M48
; DRILL file {KiCad 8.0.8-8.0.8-0~ubuntu24.04.1} date 2025-02-18T22:24:08+0000
; FORMAT={-:-/ absolute / metric / decimal}
; #@! TF.CreationDate,2025-02-18T22:24:08+00:00
; #@! TF.GenerationSoftware,Kicad,Pcbnew,8.0.8-8.0.8-0~ubuntu24.04.1
; #@! TF.FileFunction,MixedPlating,1,4
FMAT,2
METRIC
; #@! TA.AperFunction,Plated,PTH,ViaDrill
T1C0.300
; #@! TA.AperFunction,Plated,PTH,ComponentDrill
T2C0.600
; #@! TA.AperFunction,Plated,PTH,ComponentDrill
T3C0.800
; #@! TA.AperFunction,Plated,PTH,ComponentDrill
T4C1.000
; #@! TA.AperFunction,Plated,PTH,ComponentDrill
T5C1.300
; #@! TA.AperFunction,NonPlated,NPTH,ComponentDrill
T6C0.650
; #@! TA.AperFunction,NonPlated,NPTH,ComponentDrill
T7C2.850
%
G90
G05
T1
X94.45Y-138.675
X94.451Y-135.361
X94.95Y-134.875
X95.2Y-138.675
X95.3Y-128.625
X95.3Y-129.825
X95.3Y-131.025
X95.3Y-132.225
X95.3Y-133.425
X95.375Y-135.375
X95.953Y-138.663
X96.5Y-128.625
X97.7Y-128.625
X97.9Y-111.775
X98.9Y-128.625
X99.45Y-57.875
X99.45Y-58.775
X99.45Y-59.675
X99.85Y-134.672
X99.85Y-135.322
X99.85Y-135.972
X100.1Y-128.625
X101.3Y-128.625
X101.7Y-121.825
X102.225Y-122.85
X102.275Y-110.35
X102.275Y-111.35
X102.5Y-128.625
X102.85Y-119.275
X103.325Y-124.4
X103.575Y-106.475
X103.575Y-107.35
X103.7Y-128.625
X103.7Y-129.825
X103.7Y-131.025
X103.7Y-132.225
X103.7Y-133.425
X104.325Y-124.4
X104.9Y-128.625
X105.2Y-108.075
X105.6Y-125.425
X106.05Y-106.475
X106.05Y-107.375
X106.1Y-128.625
X106.125Y-136.325
X106.125Y-137.025
X106.125Y-138.325
X106.125Y-139.025
X106.575Y-123.4
X106.775Y-136.325
X106.775Y-137.025
X106.775Y-138.325
X106.775Y-139.025
X107.3Y-128.625
X108.2Y-104.25
X108.5Y-128.625
X108.65Y-136.275
X108.925Y-107.7
X109.7Y-128.625
X109.871Y-132.522
X110.521Y-132.522
X110.9Y-128.625
X111.171Y-132.522
X111.575Y-110.375
X112.1Y-128.625
X112.525Y-106.025
X112.65Y-62.375
X112.825Y-106.875
X113.3Y-128.625
X113.55Y-62.925
X113.825Y-106.875
X113.85Y-136.425
X113.85Y-137.075
X113.85Y-137.675
X114.45Y-62.375
X114.5Y-128.625
X114.65Y-131.5
X115.05Y-136.625
X115.3Y-138.075
X115.35Y-62.925
X115.35Y-130.625
X115.35Y-131.5
X115.425Y-134.25
X115.575Y-107.05
X115.975Y-110.35
X116.025Y-131.5
X116.25Y-62.375
X116.3Y-133.425
X116.575Y-107.05
X116.675Y-110.35
X116.825Y-106.025
X117.15Y-62.375
X117.3Y-107.625
X117.3Y-133.425
X117.7Y-120.375
X117.85Y-107.125
X118.05Y-62.925
X118.175Y-134.25
X118.377Y-107.645
X118.55Y-119.85
X118.75Y-126.325
X118.85Y-59.675
X119.1Y-134.275
X119.41Y-61.815
X119.625Y-124.6
X119.625Y-125.6
X119.65Y-136.625
X119.9Y-138.075
X120.025Y-134.25
X120.425Y-127.65
X120.59Y-105.865
X120.59Y-106.765
X120.9Y-133.425
X121.325Y-115.325
X121.35Y-123.927
X121.35Y-124.927
X121.875Y-110.35
X121.875Y-111.35
X121.9Y-120.045
X121.9Y-133.425
X122.2Y-115.275
X122.225Y-109.375
X122.775Y-134.25
X123.1Y-115.275
X123.2Y-136.625
X123.3Y-57.725
X123.55Y-125.325
X124.0Y-115.3
X124.35Y-61.225
X124.35Y-62.025
X124.7Y-120.175
X124.95Y-114.8
X125.35Y-61.225
X125.35Y-62.025
X125.7Y-115.575
X126.075Y-114.45
X126.1Y-119.5
X126.2Y-137.025
X126.375Y-109.375
X126.7Y-115.575
X126.9Y-113.525
X126.95Y-106.725
X127.25Y-134.775
X127.25Y-135.825
X127.4Y-124.95
X127.9Y-121.575
X127.9Y-138.925
X128.35Y-134.775
X128.35Y-135.825
X128.875Y-124.675
X129.225Y-118.925
X129.6Y-136.625
X129.8Y-133.725
X129.9Y-124.961
X130.1Y-118.925
X130.325Y-129.675
X130.35Y-124.175
X130.675Y-121.175
X131.1Y-135.525
X131.1Y-136.425
X131.15Y-115.125
X131.15Y-116.225
X131.35Y-118.275
X131.35Y-125.625
X131.4Y-128.975
X131.8Y-106.175
X131.9Y-133.925
X131.95Y-116.775
X131.95Y-139.425
X132.05Y-135.775
X132.2Y-111.725
X132.2Y-113.725
X132.35Y-118.275
X132.35Y-125.625
X132.7Y-132.175
X132.9Y-116.775
X133.3Y-110.375
X133.3Y-122.825
X133.85Y-136.575
X133.85Y-138.925
X133.95Y-109.925
X133.95Y-118.922
X133.95Y-119.922
X134.05Y-132.625
X134.1Y-133.525
X134.15Y-128.175
X134.15Y-129.075
X134.3Y-135.775
X134.83Y-142.145
X136.15Y-138.925
T3
X98.08Y-54.575
X99.71Y-54.575
X101.45Y-54.575
X103.08Y-54.575
T4
X50.0Y-140.895
X50.0Y-143.435
X50.0Y-145.975
X52.54Y-140.895
X52.54Y-143.435
X52.54Y-145.975
X55.08Y-140.895
X55.08Y-143.435
X55.08Y-145.975
X57.62Y-140.895
X57.62Y-143.435
X57.62Y-145.975
X60.16Y-140.895
X60.16Y-143.435
X60.16Y-145.975
X62.7Y-140.895
X62.7Y-143.435
X62.7Y-145.975
X65.24Y-140.895
X65.24Y-143.435
X65.24Y-145.975
X67.78Y-140.895
X67.78Y-143.435
X67.78Y-145.975
X70.32Y-140.895
X70.32Y-143.435
X70.32Y-145.975
X72.86Y-140.895
X72.86Y-143.435
X72.86Y-145.975
X75.4Y-140.895
X75.4Y-143.435
X75.4Y-145.975
X77.94Y-140.895
X77.94Y-143.435
X77.94Y-145.975
X80.48Y-140.895
X80.48Y-143.435
X80.48Y-145.975
X83.02Y-140.895
X83.02Y-143.435
X83.02Y-145.975
X85.56Y-140.895
X85.56Y-143.435
X85.56Y-145.975
X88.1Y-140.895
X88.1Y-143.435
X88.1Y-145.975
X90.64Y-140.895
X90.64Y-143.435
X90.64Y-145.975
X93.18Y-140.895
X93.18Y-143.435
X93.18Y-145.975
X95.72Y-140.895
X95.72Y-143.435
X95.72Y-145.975
X98.26Y-140.895
X98.26Y-143.435
X98.26Y-145.975
X100.8Y-140.895
X100.8Y-143.435
X100.8Y-145.975
X103.34Y-140.895
X103.34Y-143.435
X103.34Y-145.975
X105.88Y-140.895
X105.88Y-143.435
X105.88Y-145.975
X106.864Y-55.785
X106.864Y-58.325
X108.42Y-140.895
X108.42Y-143.435
X108.42Y-145.975
X109.404Y-55.785
X109.404Y-58.325
X110.96Y-140.895
X110.96Y-143.435
X110.96Y-145.975
X111.914Y-55.785
X111.914Y-58.325
X113.5Y-140.895
X113.5Y-143.435
X113.5Y-145.975
X114.454Y-55.785
X114.454Y-58.325
X116.04Y-140.895
X116.04Y-143.435
X116.04Y-145.975
X118.58Y-140.895
X118.58Y-143.435
X118.58Y-145.975
X121.12Y-140.895
X121.12Y-143.435
X121.12Y-145.975
X123.66Y-140.895
X123.66Y-143.435
X123.66Y-145.975
X126.2Y-140.895
X126.2Y-143.435
X126.2Y-145.975
X128.74Y-140.895
X128.74Y-143.435
X128.74Y-145.975
T5
X97.08Y-56.825
X104.08Y-56.825
T6
X119.16Y-57.64
X124.94Y-57.64
T7
X44.92Y-148.515
X133.82Y-148.515
T2
X117.73Y-54.36G85X117.73Y-53.56
G05
X117.73Y-58.69G85X117.73Y-57.59
G05
X126.37Y-54.36G85X126.37Y-53.56
G05
X126.37Y-58.69G85X126.37Y-57.59
G05
M30
