%TF.GenerationSoftware,KiCad,Pcbnew,8.0.8-8.0.8-0~ubuntu24.04.1*%
%TF.CreationDate,2025-02-18T22:24:07+00:00*%
%TF.ProjectId,base-module,62617365-2d6d-46f6-9475-6c652e6b6963,1.0.0*%
%TF.SameCoordinates,Original*%
%TF.FileFunction,Legend,Top*%
%TF.FilePolarity,Positive*%
%FSLAX46Y46*%
G04 Gerber Fmt 4.6, Leading zero omitted, Abs format (unit mm)*
G04 Created by KiCad (PCBNEW 8.0.8-8.0.8-0~ubuntu24.04.1) date 2025-02-18 22:24:07*
%MOMM*%
%LPD*%
G01*
G04 APERTURE LIST*
%ADD10C,0.150000*%
%ADD11C,0.200000*%
%ADD12C,0.100000*%
%ADD13C,0.000000*%
%ADD14C,0.120000*%
%ADD15C,0.010000*%
G04 APERTURE END LIST*
D10*
X135460000Y-76075001D02*
X134960000Y-76075001D01*
X135460000Y-72595001D02*
X134960000Y-72595001D01*
X135460000Y-67895001D02*
X135460000Y-72595001D01*
X134960000Y-81305001D02*
X135460000Y-81305001D01*
X120460000Y-76405001D02*
X119960000Y-76405001D01*
X119960000Y-72595001D02*
X120460000Y-72595001D01*
X119960000Y-76075001D02*
X120460000Y-76075001D01*
X134960000Y-76405001D02*
X135460000Y-76405001D01*
X135460000Y-76405001D02*
X135460000Y-81005001D01*
X135460000Y-84305001D02*
X134960000Y-84305001D01*
X135460000Y-81005001D02*
X134960000Y-81005001D01*
X119960000Y-67895001D02*
X119960000Y-72595001D01*
X119960000Y-81005001D02*
X120460000Y-81005001D01*
X119960000Y-84305001D02*
X120460000Y-84305001D01*
X119960000Y-81305001D02*
X119960000Y-84305001D01*
X120460000Y-67895001D02*
X119960000Y-67895001D01*
X135460000Y-72925001D02*
X135460000Y-76075001D01*
X119960000Y-76405001D02*
X119960000Y-81005001D01*
X120460000Y-72925001D02*
X119960000Y-72925001D01*
X134960000Y-67895001D02*
X135460000Y-67895001D01*
X134960000Y-72925001D02*
X135460000Y-72925001D01*
X135460000Y-81305001D02*
X135460000Y-84305001D01*
X119960000Y-72925001D02*
X119960000Y-76075001D01*
X120460000Y-81305001D02*
X119960000Y-81305001D01*
D11*
X121055863Y-75772220D02*
X121627292Y-75772220D01*
X121216578Y-76772220D02*
X121341578Y-75772220D01*
X122222530Y-76724601D02*
X122121340Y-76772220D01*
X122121340Y-76772220D02*
X121930863Y-76772220D01*
X121930863Y-76772220D02*
X121841578Y-76724601D01*
X121841578Y-76724601D02*
X121805863Y-76629362D01*
X121805863Y-76629362D02*
X121853483Y-76248410D01*
X121853483Y-76248410D02*
X121913006Y-76153172D01*
X121913006Y-76153172D02*
X122014197Y-76105553D01*
X122014197Y-76105553D02*
X122204673Y-76105553D01*
X122204673Y-76105553D02*
X122293959Y-76153172D01*
X122293959Y-76153172D02*
X122329673Y-76248410D01*
X122329673Y-76248410D02*
X122317768Y-76343648D01*
X122317768Y-76343648D02*
X121829673Y-76438886D01*
X122692768Y-76772220D02*
X122776102Y-76105553D01*
X122764197Y-76200791D02*
X122817768Y-76153172D01*
X122817768Y-76153172D02*
X122918959Y-76105553D01*
X122918959Y-76105553D02*
X123061816Y-76105553D01*
X123061816Y-76105553D02*
X123151102Y-76153172D01*
X123151102Y-76153172D02*
X123186816Y-76248410D01*
X123186816Y-76248410D02*
X123121340Y-76772220D01*
X123186816Y-76248410D02*
X123246340Y-76153172D01*
X123246340Y-76153172D02*
X123347530Y-76105553D01*
X123347530Y-76105553D02*
X123490387Y-76105553D01*
X123490387Y-76105553D02*
X123579673Y-76153172D01*
X123579673Y-76153172D02*
X123615387Y-76248410D01*
X123615387Y-76248410D02*
X123549911Y-76772220D01*
X124109435Y-76105553D02*
X123984435Y-77105553D01*
X124103482Y-76153172D02*
X124204673Y-76105553D01*
X124204673Y-76105553D02*
X124395149Y-76105553D01*
X124395149Y-76105553D02*
X124484435Y-76153172D01*
X124484435Y-76153172D02*
X124526101Y-76200791D01*
X124526101Y-76200791D02*
X124561816Y-76296029D01*
X124561816Y-76296029D02*
X124526101Y-76581743D01*
X124526101Y-76581743D02*
X124466578Y-76676981D01*
X124466578Y-76676981D02*
X124413006Y-76724601D01*
X124413006Y-76724601D02*
X124311816Y-76772220D01*
X124311816Y-76772220D02*
X124121339Y-76772220D01*
X124121339Y-76772220D02*
X124032054Y-76724601D01*
X125073721Y-76772220D02*
X124984435Y-76724601D01*
X124984435Y-76724601D02*
X124948721Y-76629362D01*
X124948721Y-76629362D02*
X125055863Y-75772220D01*
X125883245Y-76772220D02*
X125948721Y-76248410D01*
X125948721Y-76248410D02*
X125913007Y-76153172D01*
X125913007Y-76153172D02*
X125823721Y-76105553D01*
X125823721Y-76105553D02*
X125633245Y-76105553D01*
X125633245Y-76105553D02*
X125532054Y-76153172D01*
X125889197Y-76724601D02*
X125788007Y-76772220D01*
X125788007Y-76772220D02*
X125549911Y-76772220D01*
X125549911Y-76772220D02*
X125460626Y-76724601D01*
X125460626Y-76724601D02*
X125424911Y-76629362D01*
X125424911Y-76629362D02*
X125436816Y-76534124D01*
X125436816Y-76534124D02*
X125496340Y-76438886D01*
X125496340Y-76438886D02*
X125597531Y-76391267D01*
X125597531Y-76391267D02*
X125835626Y-76391267D01*
X125835626Y-76391267D02*
X125936816Y-76343648D01*
X126299912Y-76105553D02*
X126680864Y-76105553D01*
X126484435Y-75772220D02*
X126377293Y-76629362D01*
X126377293Y-76629362D02*
X126413007Y-76724601D01*
X126413007Y-76724601D02*
X126502293Y-76772220D01*
X126502293Y-76772220D02*
X126597531Y-76772220D01*
X127317769Y-76724601D02*
X127216579Y-76772220D01*
X127216579Y-76772220D02*
X127026102Y-76772220D01*
X127026102Y-76772220D02*
X126936817Y-76724601D01*
X126936817Y-76724601D02*
X126901102Y-76629362D01*
X126901102Y-76629362D02*
X126948722Y-76248410D01*
X126948722Y-76248410D02*
X127008245Y-76153172D01*
X127008245Y-76153172D02*
X127109436Y-76105553D01*
X127109436Y-76105553D02*
X127299912Y-76105553D01*
X127299912Y-76105553D02*
X127389198Y-76153172D01*
X127389198Y-76153172D02*
X127424912Y-76248410D01*
X127424912Y-76248410D02*
X127413007Y-76343648D01*
X127413007Y-76343648D02*
X126924912Y-76438886D01*
X128978484Y-76772220D02*
X129043960Y-76248410D01*
X129043960Y-76248410D02*
X129008246Y-76153172D01*
X129008246Y-76153172D02*
X128918960Y-76105553D01*
X128918960Y-76105553D02*
X128728484Y-76105553D01*
X128728484Y-76105553D02*
X128627293Y-76153172D01*
X128984436Y-76724601D02*
X128883246Y-76772220D01*
X128883246Y-76772220D02*
X128645150Y-76772220D01*
X128645150Y-76772220D02*
X128555865Y-76724601D01*
X128555865Y-76724601D02*
X128520150Y-76629362D01*
X128520150Y-76629362D02*
X128532055Y-76534124D01*
X128532055Y-76534124D02*
X128591579Y-76438886D01*
X128591579Y-76438886D02*
X128692770Y-76391267D01*
X128692770Y-76391267D02*
X128930865Y-76391267D01*
X128930865Y-76391267D02*
X129032055Y-76343648D01*
X129966579Y-76105553D02*
X129883246Y-76772220D01*
X129538008Y-76105553D02*
X129472532Y-76629362D01*
X129472532Y-76629362D02*
X129508246Y-76724601D01*
X129508246Y-76724601D02*
X129597532Y-76772220D01*
X129597532Y-76772220D02*
X129740389Y-76772220D01*
X129740389Y-76772220D02*
X129841579Y-76724601D01*
X129841579Y-76724601D02*
X129895151Y-76676981D01*
X130299913Y-76105553D02*
X130680865Y-76105553D01*
X130484436Y-75772220D02*
X130377294Y-76629362D01*
X130377294Y-76629362D02*
X130413008Y-76724601D01*
X130413008Y-76724601D02*
X130502294Y-76772220D01*
X130502294Y-76772220D02*
X130597532Y-76772220D01*
X130930865Y-76772220D02*
X131055865Y-75772220D01*
X131359437Y-76772220D02*
X131424913Y-76248410D01*
X131424913Y-76248410D02*
X131389199Y-76153172D01*
X131389199Y-76153172D02*
X131299913Y-76105553D01*
X131299913Y-76105553D02*
X131157056Y-76105553D01*
X131157056Y-76105553D02*
X131055865Y-76153172D01*
X131055865Y-76153172D02*
X131002294Y-76200791D01*
X131978485Y-76772220D02*
X131889199Y-76724601D01*
X131889199Y-76724601D02*
X131847532Y-76676981D01*
X131847532Y-76676981D02*
X131811818Y-76581743D01*
X131811818Y-76581743D02*
X131847532Y-76296029D01*
X131847532Y-76296029D02*
X131907056Y-76200791D01*
X131907056Y-76200791D02*
X131960627Y-76153172D01*
X131960627Y-76153172D02*
X132061818Y-76105553D01*
X132061818Y-76105553D02*
X132204675Y-76105553D01*
X132204675Y-76105553D02*
X132293961Y-76153172D01*
X132293961Y-76153172D02*
X132335627Y-76200791D01*
X132335627Y-76200791D02*
X132371342Y-76296029D01*
X132371342Y-76296029D02*
X132335627Y-76581743D01*
X132335627Y-76581743D02*
X132276104Y-76676981D01*
X132276104Y-76676981D02*
X132222532Y-76724601D01*
X132222532Y-76724601D02*
X132121342Y-76772220D01*
X132121342Y-76772220D02*
X131978485Y-76772220D01*
X132740389Y-76772220D02*
X132823723Y-76105553D01*
X132799913Y-76296029D02*
X132859437Y-76200791D01*
X132859437Y-76200791D02*
X132913008Y-76153172D01*
X132913008Y-76153172D02*
X133014199Y-76105553D01*
X133014199Y-76105553D02*
X133109437Y-76105553D01*
X133317771Y-76724601D02*
X133407056Y-76772220D01*
X133407056Y-76772220D02*
X133597533Y-76772220D01*
X133597533Y-76772220D02*
X133698723Y-76724601D01*
X133698723Y-76724601D02*
X133758247Y-76629362D01*
X133758247Y-76629362D02*
X133764199Y-76581743D01*
X133764199Y-76581743D02*
X133728485Y-76486505D01*
X133728485Y-76486505D02*
X133639199Y-76438886D01*
X133639199Y-76438886D02*
X133496342Y-76438886D01*
X133496342Y-76438886D02*
X133407056Y-76391267D01*
X133407056Y-76391267D02*
X133371342Y-76296029D01*
X133371342Y-76296029D02*
X133377295Y-76248410D01*
X133377295Y-76248410D02*
X133436818Y-76153172D01*
X133436818Y-76153172D02*
X133538009Y-76105553D01*
X133538009Y-76105553D02*
X133680866Y-76105553D01*
X133680866Y-76105553D02*
X133770152Y-76153172D01*
X134180866Y-76676981D02*
X134222533Y-76724601D01*
X134222533Y-76724601D02*
X134168961Y-76772220D01*
X134168961Y-76772220D02*
X134127295Y-76724601D01*
X134127295Y-76724601D02*
X134180866Y-76676981D01*
X134180866Y-76676981D02*
X134168961Y-76772220D01*
X134246342Y-76153172D02*
X134288009Y-76200791D01*
X134288009Y-76200791D02*
X134234438Y-76248410D01*
X134234438Y-76248410D02*
X134192771Y-76200791D01*
X134192771Y-76200791D02*
X134246342Y-76153172D01*
X134246342Y-76153172D02*
X134234438Y-76248410D01*
D10*
X122198684Y-69428209D02*
X121436779Y-69713923D01*
X121436779Y-69713923D02*
X122198684Y-69999637D01*
X122674874Y-70094876D02*
X122674874Y-69094876D01*
X122674874Y-69094876D02*
X123055826Y-69094876D01*
X123055826Y-69094876D02*
X123151064Y-69142495D01*
X123151064Y-69142495D02*
X123198683Y-69190114D01*
X123198683Y-69190114D02*
X123246302Y-69285352D01*
X123246302Y-69285352D02*
X123246302Y-69428209D01*
X123246302Y-69428209D02*
X123198683Y-69523447D01*
X123198683Y-69523447D02*
X123151064Y-69571066D01*
X123151064Y-69571066D02*
X123055826Y-69618685D01*
X123055826Y-69618685D02*
X122674874Y-69618685D01*
X123674874Y-70094876D02*
X123674874Y-69428209D01*
X123674874Y-69618685D02*
X123722493Y-69523447D01*
X123722493Y-69523447D02*
X123770112Y-69475828D01*
X123770112Y-69475828D02*
X123865350Y-69428209D01*
X123865350Y-69428209D02*
X123960588Y-69428209D01*
X124436779Y-70094876D02*
X124341541Y-70047257D01*
X124341541Y-70047257D02*
X124293922Y-69999637D01*
X124293922Y-69999637D02*
X124246303Y-69904399D01*
X124246303Y-69904399D02*
X124246303Y-69618685D01*
X124246303Y-69618685D02*
X124293922Y-69523447D01*
X124293922Y-69523447D02*
X124341541Y-69475828D01*
X124341541Y-69475828D02*
X124436779Y-69428209D01*
X124436779Y-69428209D02*
X124579636Y-69428209D01*
X124579636Y-69428209D02*
X124674874Y-69475828D01*
X124674874Y-69475828D02*
X124722493Y-69523447D01*
X124722493Y-69523447D02*
X124770112Y-69618685D01*
X124770112Y-69618685D02*
X124770112Y-69904399D01*
X124770112Y-69904399D02*
X124722493Y-69999637D01*
X124722493Y-69999637D02*
X124674874Y-70047257D01*
X124674874Y-70047257D02*
X124579636Y-70094876D01*
X124579636Y-70094876D02*
X124436779Y-70094876D01*
X125198684Y-69428209D02*
X125198684Y-70285352D01*
X125198684Y-70285352D02*
X125151065Y-70380590D01*
X125151065Y-70380590D02*
X125055827Y-70428209D01*
X125055827Y-70428209D02*
X125008208Y-70428209D01*
X125198684Y-69094876D02*
X125151065Y-69142495D01*
X125151065Y-69142495D02*
X125198684Y-69190114D01*
X125198684Y-69190114D02*
X125246303Y-69142495D01*
X125246303Y-69142495D02*
X125198684Y-69094876D01*
X125198684Y-69094876D02*
X125198684Y-69190114D01*
X126055826Y-70047257D02*
X125960588Y-70094876D01*
X125960588Y-70094876D02*
X125770112Y-70094876D01*
X125770112Y-70094876D02*
X125674874Y-70047257D01*
X125674874Y-70047257D02*
X125627255Y-69952018D01*
X125627255Y-69952018D02*
X125627255Y-69571066D01*
X125627255Y-69571066D02*
X125674874Y-69475828D01*
X125674874Y-69475828D02*
X125770112Y-69428209D01*
X125770112Y-69428209D02*
X125960588Y-69428209D01*
X125960588Y-69428209D02*
X126055826Y-69475828D01*
X126055826Y-69475828D02*
X126103445Y-69571066D01*
X126103445Y-69571066D02*
X126103445Y-69666304D01*
X126103445Y-69666304D02*
X125627255Y-69761542D01*
X126960588Y-70047257D02*
X126865350Y-70094876D01*
X126865350Y-70094876D02*
X126674874Y-70094876D01*
X126674874Y-70094876D02*
X126579636Y-70047257D01*
X126579636Y-70047257D02*
X126532017Y-69999637D01*
X126532017Y-69999637D02*
X126484398Y-69904399D01*
X126484398Y-69904399D02*
X126484398Y-69618685D01*
X126484398Y-69618685D02*
X126532017Y-69523447D01*
X126532017Y-69523447D02*
X126579636Y-69475828D01*
X126579636Y-69475828D02*
X126674874Y-69428209D01*
X126674874Y-69428209D02*
X126865350Y-69428209D01*
X126865350Y-69428209D02*
X126960588Y-69475828D01*
X127246303Y-69428209D02*
X127627255Y-69428209D01*
X127389160Y-69094876D02*
X127389160Y-69952018D01*
X127389160Y-69952018D02*
X127436779Y-70047257D01*
X127436779Y-70047257D02*
X127532017Y-70094876D01*
X127532017Y-70094876D02*
X127627255Y-70094876D01*
X128722494Y-69428209D02*
X128722494Y-70094876D01*
X128722494Y-69523447D02*
X128770113Y-69475828D01*
X128770113Y-69475828D02*
X128865351Y-69428209D01*
X128865351Y-69428209D02*
X129008208Y-69428209D01*
X129008208Y-69428209D02*
X129103446Y-69475828D01*
X129103446Y-69475828D02*
X129151065Y-69571066D01*
X129151065Y-69571066D02*
X129151065Y-70094876D01*
X130055827Y-70094876D02*
X130055827Y-69571066D01*
X130055827Y-69571066D02*
X130008208Y-69475828D01*
X130008208Y-69475828D02*
X129912970Y-69428209D01*
X129912970Y-69428209D02*
X129722494Y-69428209D01*
X129722494Y-69428209D02*
X129627256Y-69475828D01*
X130055827Y-70047257D02*
X129960589Y-70094876D01*
X129960589Y-70094876D02*
X129722494Y-70094876D01*
X129722494Y-70094876D02*
X129627256Y-70047257D01*
X129627256Y-70047257D02*
X129579637Y-69952018D01*
X129579637Y-69952018D02*
X129579637Y-69856780D01*
X129579637Y-69856780D02*
X129627256Y-69761542D01*
X129627256Y-69761542D02*
X129722494Y-69713923D01*
X129722494Y-69713923D02*
X129960589Y-69713923D01*
X129960589Y-69713923D02*
X130055827Y-69666304D01*
X130532018Y-70094876D02*
X130532018Y-69428209D01*
X130532018Y-69523447D02*
X130579637Y-69475828D01*
X130579637Y-69475828D02*
X130674875Y-69428209D01*
X130674875Y-69428209D02*
X130817732Y-69428209D01*
X130817732Y-69428209D02*
X130912970Y-69475828D01*
X130912970Y-69475828D02*
X130960589Y-69571066D01*
X130960589Y-69571066D02*
X130960589Y-70094876D01*
X130960589Y-69571066D02*
X131008208Y-69475828D01*
X131008208Y-69475828D02*
X131103446Y-69428209D01*
X131103446Y-69428209D02*
X131246303Y-69428209D01*
X131246303Y-69428209D02*
X131341542Y-69475828D01*
X131341542Y-69475828D02*
X131389161Y-69571066D01*
X131389161Y-69571066D02*
X131389161Y-70094876D01*
X132246303Y-70047257D02*
X132151065Y-70094876D01*
X132151065Y-70094876D02*
X131960589Y-70094876D01*
X131960589Y-70094876D02*
X131865351Y-70047257D01*
X131865351Y-70047257D02*
X131817732Y-69952018D01*
X131817732Y-69952018D02*
X131817732Y-69571066D01*
X131817732Y-69571066D02*
X131865351Y-69475828D01*
X131865351Y-69475828D02*
X131960589Y-69428209D01*
X131960589Y-69428209D02*
X132151065Y-69428209D01*
X132151065Y-69428209D02*
X132246303Y-69475828D01*
X132246303Y-69475828D02*
X132293922Y-69571066D01*
X132293922Y-69571066D02*
X132293922Y-69666304D01*
X132293922Y-69666304D02*
X131817732Y-69761542D01*
X132722494Y-69428209D02*
X133484399Y-69713923D01*
X133484399Y-69713923D02*
X132722494Y-69999637D01*
X122008207Y-71704820D02*
X121674874Y-71228629D01*
X121436779Y-71704820D02*
X121436779Y-70704820D01*
X121436779Y-70704820D02*
X121817731Y-70704820D01*
X121817731Y-70704820D02*
X121912969Y-70752439D01*
X121912969Y-70752439D02*
X121960588Y-70800058D01*
X121960588Y-70800058D02*
X122008207Y-70895296D01*
X122008207Y-70895296D02*
X122008207Y-71038153D01*
X122008207Y-71038153D02*
X121960588Y-71133391D01*
X121960588Y-71133391D02*
X121912969Y-71181010D01*
X121912969Y-71181010D02*
X121817731Y-71228629D01*
X121817731Y-71228629D02*
X121436779Y-71228629D01*
X122817731Y-71657201D02*
X122722493Y-71704820D01*
X122722493Y-71704820D02*
X122532017Y-71704820D01*
X122532017Y-71704820D02*
X122436779Y-71657201D01*
X122436779Y-71657201D02*
X122389160Y-71561962D01*
X122389160Y-71561962D02*
X122389160Y-71181010D01*
X122389160Y-71181010D02*
X122436779Y-71085772D01*
X122436779Y-71085772D02*
X122532017Y-71038153D01*
X122532017Y-71038153D02*
X122722493Y-71038153D01*
X122722493Y-71038153D02*
X122817731Y-71085772D01*
X122817731Y-71085772D02*
X122865350Y-71181010D01*
X122865350Y-71181010D02*
X122865350Y-71276248D01*
X122865350Y-71276248D02*
X122389160Y-71371486D01*
X123198684Y-71038153D02*
X123436779Y-71704820D01*
X123436779Y-71704820D02*
X123674874Y-71038153D01*
X124055827Y-71609581D02*
X124103446Y-71657201D01*
X124103446Y-71657201D02*
X124055827Y-71704820D01*
X124055827Y-71704820D02*
X124008208Y-71657201D01*
X124008208Y-71657201D02*
X124055827Y-71609581D01*
X124055827Y-71609581D02*
X124055827Y-71704820D01*
X125817731Y-71704820D02*
X125246303Y-71704820D01*
X125532017Y-71704820D02*
X125532017Y-70704820D01*
X125532017Y-70704820D02*
X125436779Y-70847677D01*
X125436779Y-70847677D02*
X125341541Y-70942915D01*
X125341541Y-70942915D02*
X125246303Y-70990534D01*
X126246303Y-71609581D02*
X126293922Y-71657201D01*
X126293922Y-71657201D02*
X126246303Y-71704820D01*
X126246303Y-71704820D02*
X126198684Y-71657201D01*
X126198684Y-71657201D02*
X126246303Y-71609581D01*
X126246303Y-71609581D02*
X126246303Y-71704820D01*
X126912969Y-70704820D02*
X127008207Y-70704820D01*
X127008207Y-70704820D02*
X127103445Y-70752439D01*
X127103445Y-70752439D02*
X127151064Y-70800058D01*
X127151064Y-70800058D02*
X127198683Y-70895296D01*
X127198683Y-70895296D02*
X127246302Y-71085772D01*
X127246302Y-71085772D02*
X127246302Y-71323867D01*
X127246302Y-71323867D02*
X127198683Y-71514343D01*
X127198683Y-71514343D02*
X127151064Y-71609581D01*
X127151064Y-71609581D02*
X127103445Y-71657201D01*
X127103445Y-71657201D02*
X127008207Y-71704820D01*
X127008207Y-71704820D02*
X126912969Y-71704820D01*
X126912969Y-71704820D02*
X126817731Y-71657201D01*
X126817731Y-71657201D02*
X126770112Y-71609581D01*
X126770112Y-71609581D02*
X126722493Y-71514343D01*
X126722493Y-71514343D02*
X126674874Y-71323867D01*
X126674874Y-71323867D02*
X126674874Y-71085772D01*
X126674874Y-71085772D02*
X126722493Y-70895296D01*
X126722493Y-70895296D02*
X126770112Y-70800058D01*
X126770112Y-70800058D02*
X126817731Y-70752439D01*
X126817731Y-70752439D02*
X126912969Y-70704820D01*
X127674874Y-71609581D02*
X127722493Y-71657201D01*
X127722493Y-71657201D02*
X127674874Y-71704820D01*
X127674874Y-71704820D02*
X127627255Y-71657201D01*
X127627255Y-71657201D02*
X127674874Y-71609581D01*
X127674874Y-71609581D02*
X127674874Y-71704820D01*
X128341540Y-70704820D02*
X128436778Y-70704820D01*
X128436778Y-70704820D02*
X128532016Y-70752439D01*
X128532016Y-70752439D02*
X128579635Y-70800058D01*
X128579635Y-70800058D02*
X128627254Y-70895296D01*
X128627254Y-70895296D02*
X128674873Y-71085772D01*
X128674873Y-71085772D02*
X128674873Y-71323867D01*
X128674873Y-71323867D02*
X128627254Y-71514343D01*
X128627254Y-71514343D02*
X128579635Y-71609581D01*
X128579635Y-71609581D02*
X128532016Y-71657201D01*
X128532016Y-71657201D02*
X128436778Y-71704820D01*
X128436778Y-71704820D02*
X128341540Y-71704820D01*
X128341540Y-71704820D02*
X128246302Y-71657201D01*
X128246302Y-71657201D02*
X128198683Y-71609581D01*
X128198683Y-71609581D02*
X128151064Y-71514343D01*
X128151064Y-71514343D02*
X128103445Y-71323867D01*
X128103445Y-71323867D02*
X128103445Y-71085772D01*
X128103445Y-71085772D02*
X128151064Y-70895296D01*
X128151064Y-70895296D02*
X128198683Y-70800058D01*
X128198683Y-70800058D02*
X128246302Y-70752439D01*
X128246302Y-70752439D02*
X128341540Y-70704820D01*
D11*
X121073720Y-81722220D02*
X121198720Y-80722220D01*
X121198720Y-80722220D02*
X121436816Y-80722220D01*
X121436816Y-80722220D02*
X121573720Y-80769839D01*
X121573720Y-80769839D02*
X121657054Y-80865077D01*
X121657054Y-80865077D02*
X121692768Y-80960315D01*
X121692768Y-80960315D02*
X121716578Y-81150791D01*
X121716578Y-81150791D02*
X121698720Y-81293648D01*
X121698720Y-81293648D02*
X121627292Y-81484124D01*
X121627292Y-81484124D02*
X121567768Y-81579362D01*
X121567768Y-81579362D02*
X121460625Y-81674601D01*
X121460625Y-81674601D02*
X121311816Y-81722220D01*
X121311816Y-81722220D02*
X121073720Y-81722220D01*
X122502292Y-81722220D02*
X122567768Y-81198410D01*
X122567768Y-81198410D02*
X122532054Y-81103172D01*
X122532054Y-81103172D02*
X122442768Y-81055553D01*
X122442768Y-81055553D02*
X122252292Y-81055553D01*
X122252292Y-81055553D02*
X122151101Y-81103172D01*
X122508244Y-81674601D02*
X122407054Y-81722220D01*
X122407054Y-81722220D02*
X122168958Y-81722220D01*
X122168958Y-81722220D02*
X122079673Y-81674601D01*
X122079673Y-81674601D02*
X122043958Y-81579362D01*
X122043958Y-81579362D02*
X122055863Y-81484124D01*
X122055863Y-81484124D02*
X122115387Y-81388886D01*
X122115387Y-81388886D02*
X122216578Y-81341267D01*
X122216578Y-81341267D02*
X122454673Y-81341267D01*
X122454673Y-81341267D02*
X122555863Y-81293648D01*
X122918959Y-81055553D02*
X123299911Y-81055553D01*
X123103482Y-80722220D02*
X122996340Y-81579362D01*
X122996340Y-81579362D02*
X123032054Y-81674601D01*
X123032054Y-81674601D02*
X123121340Y-81722220D01*
X123121340Y-81722220D02*
X123216578Y-81722220D01*
X123936816Y-81674601D02*
X123835626Y-81722220D01*
X123835626Y-81722220D02*
X123645149Y-81722220D01*
X123645149Y-81722220D02*
X123555864Y-81674601D01*
X123555864Y-81674601D02*
X123520149Y-81579362D01*
X123520149Y-81579362D02*
X123567769Y-81198410D01*
X123567769Y-81198410D02*
X123627292Y-81103172D01*
X123627292Y-81103172D02*
X123728483Y-81055553D01*
X123728483Y-81055553D02*
X123918959Y-81055553D01*
X123918959Y-81055553D02*
X124008245Y-81103172D01*
X124008245Y-81103172D02*
X124043959Y-81198410D01*
X124043959Y-81198410D02*
X124032054Y-81293648D01*
X124032054Y-81293648D02*
X123543959Y-81388886D01*
X124418959Y-81626981D02*
X124460626Y-81674601D01*
X124460626Y-81674601D02*
X124407054Y-81722220D01*
X124407054Y-81722220D02*
X124365388Y-81674601D01*
X124365388Y-81674601D02*
X124418959Y-81626981D01*
X124418959Y-81626981D02*
X124407054Y-81722220D01*
X124484435Y-81103172D02*
X124526102Y-81150791D01*
X124526102Y-81150791D02*
X124472531Y-81198410D01*
X124472531Y-81198410D02*
X124430864Y-81150791D01*
X124430864Y-81150791D02*
X124484435Y-81103172D01*
X124484435Y-81103172D02*
X124472531Y-81198410D01*
X121073720Y-68262220D02*
X121198720Y-67262220D01*
X121198720Y-67262220D02*
X121442768Y-67976505D01*
X121442768Y-67976505D02*
X121865387Y-67262220D01*
X121865387Y-67262220D02*
X121740387Y-68262220D01*
X122359435Y-68262220D02*
X122270149Y-68214601D01*
X122270149Y-68214601D02*
X122228482Y-68166981D01*
X122228482Y-68166981D02*
X122192768Y-68071743D01*
X122192768Y-68071743D02*
X122228482Y-67786029D01*
X122228482Y-67786029D02*
X122288006Y-67690791D01*
X122288006Y-67690791D02*
X122341577Y-67643172D01*
X122341577Y-67643172D02*
X122442768Y-67595553D01*
X122442768Y-67595553D02*
X122585625Y-67595553D01*
X122585625Y-67595553D02*
X122674911Y-67643172D01*
X122674911Y-67643172D02*
X122716577Y-67690791D01*
X122716577Y-67690791D02*
X122752292Y-67786029D01*
X122752292Y-67786029D02*
X122716577Y-68071743D01*
X122716577Y-68071743D02*
X122657054Y-68166981D01*
X122657054Y-68166981D02*
X122603482Y-68214601D01*
X122603482Y-68214601D02*
X122502292Y-68262220D01*
X122502292Y-68262220D02*
X122359435Y-68262220D01*
X123549911Y-68262220D02*
X123674911Y-67262220D01*
X123555863Y-68214601D02*
X123454673Y-68262220D01*
X123454673Y-68262220D02*
X123264197Y-68262220D01*
X123264197Y-68262220D02*
X123174911Y-68214601D01*
X123174911Y-68214601D02*
X123133244Y-68166981D01*
X123133244Y-68166981D02*
X123097530Y-68071743D01*
X123097530Y-68071743D02*
X123133244Y-67786029D01*
X123133244Y-67786029D02*
X123192768Y-67690791D01*
X123192768Y-67690791D02*
X123246339Y-67643172D01*
X123246339Y-67643172D02*
X123347530Y-67595553D01*
X123347530Y-67595553D02*
X123538006Y-67595553D01*
X123538006Y-67595553D02*
X123627292Y-67643172D01*
X124538006Y-67595553D02*
X124454673Y-68262220D01*
X124109435Y-67595553D02*
X124043959Y-68119362D01*
X124043959Y-68119362D02*
X124079673Y-68214601D01*
X124079673Y-68214601D02*
X124168959Y-68262220D01*
X124168959Y-68262220D02*
X124311816Y-68262220D01*
X124311816Y-68262220D02*
X124413006Y-68214601D01*
X124413006Y-68214601D02*
X124466578Y-68166981D01*
X125514197Y-68166981D02*
X125460625Y-68214601D01*
X125460625Y-68214601D02*
X125311816Y-68262220D01*
X125311816Y-68262220D02*
X125216578Y-68262220D01*
X125216578Y-68262220D02*
X125079673Y-68214601D01*
X125079673Y-68214601D02*
X124996340Y-68119362D01*
X124996340Y-68119362D02*
X124960625Y-68024124D01*
X124960625Y-68024124D02*
X124936816Y-67833648D01*
X124936816Y-67833648D02*
X124954673Y-67690791D01*
X124954673Y-67690791D02*
X125026101Y-67500315D01*
X125026101Y-67500315D02*
X125085625Y-67405077D01*
X125085625Y-67405077D02*
X125192768Y-67309839D01*
X125192768Y-67309839D02*
X125341578Y-67262220D01*
X125341578Y-67262220D02*
X125436816Y-67262220D01*
X125436816Y-67262220D02*
X125573721Y-67309839D01*
X125573721Y-67309839D02*
X125615387Y-67357458D01*
X126359435Y-68262220D02*
X126424911Y-67738410D01*
X126424911Y-67738410D02*
X126389197Y-67643172D01*
X126389197Y-67643172D02*
X126299911Y-67595553D01*
X126299911Y-67595553D02*
X126109435Y-67595553D01*
X126109435Y-67595553D02*
X126008244Y-67643172D01*
X126365387Y-68214601D02*
X126264197Y-68262220D01*
X126264197Y-68262220D02*
X126026101Y-68262220D01*
X126026101Y-68262220D02*
X125936816Y-68214601D01*
X125936816Y-68214601D02*
X125901101Y-68119362D01*
X125901101Y-68119362D02*
X125913006Y-68024124D01*
X125913006Y-68024124D02*
X125972530Y-67928886D01*
X125972530Y-67928886D02*
X126073721Y-67881267D01*
X126073721Y-67881267D02*
X126311816Y-67881267D01*
X126311816Y-67881267D02*
X126413006Y-67833648D01*
X126835625Y-68262220D02*
X126918959Y-67595553D01*
X126895149Y-67786029D02*
X126954673Y-67690791D01*
X126954673Y-67690791D02*
X127008244Y-67643172D01*
X127008244Y-67643172D02*
X127109435Y-67595553D01*
X127109435Y-67595553D02*
X127204673Y-67595553D01*
X127883245Y-68262220D02*
X128008245Y-67262220D01*
X127889197Y-68214601D02*
X127788007Y-68262220D01*
X127788007Y-68262220D02*
X127597531Y-68262220D01*
X127597531Y-68262220D02*
X127508245Y-68214601D01*
X127508245Y-68214601D02*
X127466578Y-68166981D01*
X127466578Y-68166981D02*
X127430864Y-68071743D01*
X127430864Y-68071743D02*
X127466578Y-67786029D01*
X127466578Y-67786029D02*
X127526102Y-67690791D01*
X127526102Y-67690791D02*
X127579673Y-67643172D01*
X127579673Y-67643172D02*
X127680864Y-67595553D01*
X127680864Y-67595553D02*
X127871340Y-67595553D01*
X127871340Y-67595553D02*
X127960626Y-67643172D01*
X121073720Y-73342220D02*
X121198720Y-72342220D01*
X121198720Y-72342220D02*
X121579673Y-72342220D01*
X121579673Y-72342220D02*
X121668958Y-72389839D01*
X121668958Y-72389839D02*
X121710625Y-72437458D01*
X121710625Y-72437458D02*
X121746339Y-72532696D01*
X121746339Y-72532696D02*
X121728482Y-72675553D01*
X121728482Y-72675553D02*
X121668958Y-72770791D01*
X121668958Y-72770791D02*
X121615387Y-72818410D01*
X121615387Y-72818410D02*
X121514197Y-72866029D01*
X121514197Y-72866029D02*
X121133244Y-72866029D01*
X122073720Y-73342220D02*
X122157054Y-72675553D01*
X122133244Y-72866029D02*
X122192768Y-72770791D01*
X122192768Y-72770791D02*
X122246339Y-72723172D01*
X122246339Y-72723172D02*
X122347530Y-72675553D01*
X122347530Y-72675553D02*
X122442768Y-72675553D01*
X122835626Y-73342220D02*
X122746340Y-73294601D01*
X122746340Y-73294601D02*
X122704673Y-73246981D01*
X122704673Y-73246981D02*
X122668959Y-73151743D01*
X122668959Y-73151743D02*
X122704673Y-72866029D01*
X122704673Y-72866029D02*
X122764197Y-72770791D01*
X122764197Y-72770791D02*
X122817768Y-72723172D01*
X122817768Y-72723172D02*
X122918959Y-72675553D01*
X122918959Y-72675553D02*
X123061816Y-72675553D01*
X123061816Y-72675553D02*
X123151102Y-72723172D01*
X123151102Y-72723172D02*
X123192768Y-72770791D01*
X123192768Y-72770791D02*
X123228483Y-72866029D01*
X123228483Y-72866029D02*
X123192768Y-73151743D01*
X123192768Y-73151743D02*
X123133245Y-73246981D01*
X123133245Y-73246981D02*
X123079673Y-73294601D01*
X123079673Y-73294601D02*
X122978483Y-73342220D01*
X122978483Y-73342220D02*
X122835626Y-73342220D01*
X123680864Y-72675553D02*
X123573721Y-73532696D01*
X123573721Y-73532696D02*
X123514197Y-73627934D01*
X123514197Y-73627934D02*
X123413007Y-73675553D01*
X123413007Y-73675553D02*
X123365388Y-73675553D01*
X123722530Y-72342220D02*
X123668959Y-72389839D01*
X123668959Y-72389839D02*
X123710626Y-72437458D01*
X123710626Y-72437458D02*
X123764197Y-72389839D01*
X123764197Y-72389839D02*
X123722530Y-72342220D01*
X123722530Y-72342220D02*
X123710626Y-72437458D01*
X124460625Y-73294601D02*
X124359435Y-73342220D01*
X124359435Y-73342220D02*
X124168958Y-73342220D01*
X124168958Y-73342220D02*
X124079673Y-73294601D01*
X124079673Y-73294601D02*
X124043958Y-73199362D01*
X124043958Y-73199362D02*
X124091578Y-72818410D01*
X124091578Y-72818410D02*
X124151101Y-72723172D01*
X124151101Y-72723172D02*
X124252292Y-72675553D01*
X124252292Y-72675553D02*
X124442768Y-72675553D01*
X124442768Y-72675553D02*
X124532054Y-72723172D01*
X124532054Y-72723172D02*
X124567768Y-72818410D01*
X124567768Y-72818410D02*
X124555863Y-72913648D01*
X124555863Y-72913648D02*
X124067768Y-73008886D01*
X125365387Y-73294601D02*
X125264197Y-73342220D01*
X125264197Y-73342220D02*
X125073721Y-73342220D01*
X125073721Y-73342220D02*
X124984435Y-73294601D01*
X124984435Y-73294601D02*
X124942768Y-73246981D01*
X124942768Y-73246981D02*
X124907054Y-73151743D01*
X124907054Y-73151743D02*
X124942768Y-72866029D01*
X124942768Y-72866029D02*
X125002292Y-72770791D01*
X125002292Y-72770791D02*
X125055863Y-72723172D01*
X125055863Y-72723172D02*
X125157054Y-72675553D01*
X125157054Y-72675553D02*
X125347530Y-72675553D01*
X125347530Y-72675553D02*
X125436816Y-72723172D01*
X125728483Y-72675553D02*
X126109435Y-72675553D01*
X125913006Y-72342220D02*
X125805864Y-73199362D01*
X125805864Y-73199362D02*
X125841578Y-73294601D01*
X125841578Y-73294601D02*
X125930864Y-73342220D01*
X125930864Y-73342220D02*
X126026102Y-73342220D01*
X127549912Y-73342220D02*
X127615388Y-72818410D01*
X127615388Y-72818410D02*
X127579674Y-72723172D01*
X127579674Y-72723172D02*
X127490388Y-72675553D01*
X127490388Y-72675553D02*
X127299912Y-72675553D01*
X127299912Y-72675553D02*
X127198721Y-72723172D01*
X127555864Y-73294601D02*
X127454674Y-73342220D01*
X127454674Y-73342220D02*
X127216578Y-73342220D01*
X127216578Y-73342220D02*
X127127293Y-73294601D01*
X127127293Y-73294601D02*
X127091578Y-73199362D01*
X127091578Y-73199362D02*
X127103483Y-73104124D01*
X127103483Y-73104124D02*
X127163007Y-73008886D01*
X127163007Y-73008886D02*
X127264198Y-72961267D01*
X127264198Y-72961267D02*
X127502293Y-72961267D01*
X127502293Y-72961267D02*
X127603483Y-72913648D01*
X128538007Y-72675553D02*
X128454674Y-73342220D01*
X128109436Y-72675553D02*
X128043960Y-73199362D01*
X128043960Y-73199362D02*
X128079674Y-73294601D01*
X128079674Y-73294601D02*
X128168960Y-73342220D01*
X128168960Y-73342220D02*
X128311817Y-73342220D01*
X128311817Y-73342220D02*
X128413007Y-73294601D01*
X128413007Y-73294601D02*
X128466579Y-73246981D01*
X128871341Y-72675553D02*
X129252293Y-72675553D01*
X129055864Y-72342220D02*
X128948722Y-73199362D01*
X128948722Y-73199362D02*
X128984436Y-73294601D01*
X128984436Y-73294601D02*
X129073722Y-73342220D01*
X129073722Y-73342220D02*
X129168960Y-73342220D01*
X129502293Y-73342220D02*
X129627293Y-72342220D01*
X129930865Y-73342220D02*
X129996341Y-72818410D01*
X129996341Y-72818410D02*
X129960627Y-72723172D01*
X129960627Y-72723172D02*
X129871341Y-72675553D01*
X129871341Y-72675553D02*
X129728484Y-72675553D01*
X129728484Y-72675553D02*
X129627293Y-72723172D01*
X129627293Y-72723172D02*
X129573722Y-72770791D01*
X130549913Y-73342220D02*
X130460627Y-73294601D01*
X130460627Y-73294601D02*
X130418960Y-73246981D01*
X130418960Y-73246981D02*
X130383246Y-73151743D01*
X130383246Y-73151743D02*
X130418960Y-72866029D01*
X130418960Y-72866029D02*
X130478484Y-72770791D01*
X130478484Y-72770791D02*
X130532055Y-72723172D01*
X130532055Y-72723172D02*
X130633246Y-72675553D01*
X130633246Y-72675553D02*
X130776103Y-72675553D01*
X130776103Y-72675553D02*
X130865389Y-72723172D01*
X130865389Y-72723172D02*
X130907055Y-72770791D01*
X130907055Y-72770791D02*
X130942770Y-72866029D01*
X130942770Y-72866029D02*
X130907055Y-73151743D01*
X130907055Y-73151743D02*
X130847532Y-73246981D01*
X130847532Y-73246981D02*
X130793960Y-73294601D01*
X130793960Y-73294601D02*
X130692770Y-73342220D01*
X130692770Y-73342220D02*
X130549913Y-73342220D01*
X131311817Y-73342220D02*
X131395151Y-72675553D01*
X131371341Y-72866029D02*
X131430865Y-72770791D01*
X131430865Y-72770791D02*
X131484436Y-72723172D01*
X131484436Y-72723172D02*
X131585627Y-72675553D01*
X131585627Y-72675553D02*
X131680865Y-72675553D01*
X131942770Y-73246981D02*
X131984437Y-73294601D01*
X131984437Y-73294601D02*
X131930865Y-73342220D01*
X131930865Y-73342220D02*
X131889199Y-73294601D01*
X131889199Y-73294601D02*
X131942770Y-73246981D01*
X131942770Y-73246981D02*
X131930865Y-73342220D01*
X132008246Y-72723172D02*
X132049913Y-72770791D01*
X132049913Y-72770791D02*
X131996342Y-72818410D01*
X131996342Y-72818410D02*
X131954675Y-72770791D01*
X131954675Y-72770791D02*
X132008246Y-72723172D01*
X132008246Y-72723172D02*
X131996342Y-72818410D01*
D10*
X121746779Y-78364876D02*
X121746779Y-77364876D01*
X121746779Y-77364876D02*
X121984874Y-77364876D01*
X121984874Y-77364876D02*
X122127731Y-77412495D01*
X122127731Y-77412495D02*
X122222969Y-77507733D01*
X122222969Y-77507733D02*
X122270588Y-77602971D01*
X122270588Y-77602971D02*
X122318207Y-77793447D01*
X122318207Y-77793447D02*
X122318207Y-77936304D01*
X122318207Y-77936304D02*
X122270588Y-78126780D01*
X122270588Y-78126780D02*
X122222969Y-78222018D01*
X122222969Y-78222018D02*
X122127731Y-78317257D01*
X122127731Y-78317257D02*
X121984874Y-78364876D01*
X121984874Y-78364876D02*
X121746779Y-78364876D01*
X122889636Y-78364876D02*
X122794398Y-78317257D01*
X122794398Y-78317257D02*
X122746779Y-78269637D01*
X122746779Y-78269637D02*
X122699160Y-78174399D01*
X122699160Y-78174399D02*
X122699160Y-77888685D01*
X122699160Y-77888685D02*
X122746779Y-77793447D01*
X122746779Y-77793447D02*
X122794398Y-77745828D01*
X122794398Y-77745828D02*
X122889636Y-77698209D01*
X122889636Y-77698209D02*
X123032493Y-77698209D01*
X123032493Y-77698209D02*
X123127731Y-77745828D01*
X123127731Y-77745828D02*
X123175350Y-77793447D01*
X123175350Y-77793447D02*
X123222969Y-77888685D01*
X123222969Y-77888685D02*
X123222969Y-78174399D01*
X123222969Y-78174399D02*
X123175350Y-78269637D01*
X123175350Y-78269637D02*
X123127731Y-78317257D01*
X123127731Y-78317257D02*
X123032493Y-78364876D01*
X123032493Y-78364876D02*
X122889636Y-78364876D01*
X123651541Y-78364876D02*
X123651541Y-77698209D01*
X123651541Y-77793447D02*
X123699160Y-77745828D01*
X123699160Y-77745828D02*
X123794398Y-77698209D01*
X123794398Y-77698209D02*
X123937255Y-77698209D01*
X123937255Y-77698209D02*
X124032493Y-77745828D01*
X124032493Y-77745828D02*
X124080112Y-77841066D01*
X124080112Y-77841066D02*
X124080112Y-78364876D01*
X124080112Y-77841066D02*
X124127731Y-77745828D01*
X124127731Y-77745828D02*
X124222969Y-77698209D01*
X124222969Y-77698209D02*
X124365826Y-77698209D01*
X124365826Y-77698209D02*
X124461065Y-77745828D01*
X124461065Y-77745828D02*
X124508684Y-77841066D01*
X124508684Y-77841066D02*
X124508684Y-78364876D01*
X124984874Y-78364876D02*
X124984874Y-77698209D01*
X124984874Y-77364876D02*
X124937255Y-77412495D01*
X124937255Y-77412495D02*
X124984874Y-77460114D01*
X124984874Y-77460114D02*
X125032493Y-77412495D01*
X125032493Y-77412495D02*
X124984874Y-77364876D01*
X124984874Y-77364876D02*
X124984874Y-77460114D01*
X125461064Y-77698209D02*
X125461064Y-78364876D01*
X125461064Y-77793447D02*
X125508683Y-77745828D01*
X125508683Y-77745828D02*
X125603921Y-77698209D01*
X125603921Y-77698209D02*
X125746778Y-77698209D01*
X125746778Y-77698209D02*
X125842016Y-77745828D01*
X125842016Y-77745828D02*
X125889635Y-77841066D01*
X125889635Y-77841066D02*
X125889635Y-78364876D01*
X126365826Y-78364876D02*
X126365826Y-77698209D01*
X126365826Y-77364876D02*
X126318207Y-77412495D01*
X126318207Y-77412495D02*
X126365826Y-77460114D01*
X126365826Y-77460114D02*
X126413445Y-77412495D01*
X126413445Y-77412495D02*
X126365826Y-77364876D01*
X126365826Y-77364876D02*
X126365826Y-77460114D01*
X126842016Y-78364876D02*
X126842016Y-77364876D01*
X126937254Y-77983923D02*
X127222968Y-78364876D01*
X127222968Y-77698209D02*
X126842016Y-78079161D01*
X128413445Y-78364876D02*
X128413445Y-77364876D01*
X128413445Y-77364876D02*
X128794397Y-77364876D01*
X128794397Y-77364876D02*
X128889635Y-77412495D01*
X128889635Y-77412495D02*
X128937254Y-77460114D01*
X128937254Y-77460114D02*
X128984873Y-77555352D01*
X128984873Y-77555352D02*
X128984873Y-77698209D01*
X128984873Y-77698209D02*
X128937254Y-77793447D01*
X128937254Y-77793447D02*
X128889635Y-77841066D01*
X128889635Y-77841066D02*
X128794397Y-77888685D01*
X128794397Y-77888685D02*
X128413445Y-77888685D01*
X129556302Y-78364876D02*
X129461064Y-78317257D01*
X129461064Y-78317257D02*
X129413445Y-78222018D01*
X129413445Y-78222018D02*
X129413445Y-77364876D01*
X130365826Y-77698209D02*
X130365826Y-78364876D01*
X129937255Y-77698209D02*
X129937255Y-78222018D01*
X129937255Y-78222018D02*
X129984874Y-78317257D01*
X129984874Y-78317257D02*
X130080112Y-78364876D01*
X130080112Y-78364876D02*
X130222969Y-78364876D01*
X130222969Y-78364876D02*
X130318207Y-78317257D01*
X130318207Y-78317257D02*
X130365826Y-78269637D01*
X130699160Y-77698209D02*
X131080112Y-77698209D01*
X130842017Y-77364876D02*
X130842017Y-78222018D01*
X130842017Y-78222018D02*
X130889636Y-78317257D01*
X130889636Y-78317257D02*
X130984874Y-78364876D01*
X130984874Y-78364876D02*
X131080112Y-78364876D01*
X131842017Y-78364876D02*
X131842017Y-77841066D01*
X131842017Y-77841066D02*
X131794398Y-77745828D01*
X131794398Y-77745828D02*
X131699160Y-77698209D01*
X131699160Y-77698209D02*
X131508684Y-77698209D01*
X131508684Y-77698209D02*
X131413446Y-77745828D01*
X131842017Y-78317257D02*
X131746779Y-78364876D01*
X131746779Y-78364876D02*
X131508684Y-78364876D01*
X131508684Y-78364876D02*
X131413446Y-78317257D01*
X131413446Y-78317257D02*
X131365827Y-78222018D01*
X131365827Y-78222018D02*
X131365827Y-78126780D01*
X131365827Y-78126780D02*
X131413446Y-78031542D01*
X131413446Y-78031542D02*
X131508684Y-77983923D01*
X131508684Y-77983923D02*
X131746779Y-77983923D01*
X131746779Y-77983923D02*
X131842017Y-77936304D01*
X121699160Y-79689105D02*
X122175350Y-79689105D01*
X121603922Y-79974820D02*
X121937255Y-78974820D01*
X121937255Y-78974820D02*
X122270588Y-79974820D01*
X122603922Y-79974820D02*
X122603922Y-79308153D01*
X122603922Y-79498629D02*
X122651541Y-79403391D01*
X122651541Y-79403391D02*
X122699160Y-79355772D01*
X122699160Y-79355772D02*
X122794398Y-79308153D01*
X122794398Y-79308153D02*
X122889636Y-79308153D01*
X123080113Y-79308153D02*
X123461065Y-79308153D01*
X123222970Y-78974820D02*
X123222970Y-79831962D01*
X123222970Y-79831962D02*
X123270589Y-79927201D01*
X123270589Y-79927201D02*
X123365827Y-79974820D01*
X123365827Y-79974820D02*
X123461065Y-79974820D01*
X124175351Y-79927201D02*
X124080113Y-79974820D01*
X124080113Y-79974820D02*
X123889637Y-79974820D01*
X123889637Y-79974820D02*
X123794399Y-79927201D01*
X123794399Y-79927201D02*
X123746780Y-79831962D01*
X123746780Y-79831962D02*
X123746780Y-79451010D01*
X123746780Y-79451010D02*
X123794399Y-79355772D01*
X123794399Y-79355772D02*
X123889637Y-79308153D01*
X123889637Y-79308153D02*
X124080113Y-79308153D01*
X124080113Y-79308153D02*
X124175351Y-79355772D01*
X124175351Y-79355772D02*
X124222970Y-79451010D01*
X124222970Y-79451010D02*
X124222970Y-79546248D01*
X124222970Y-79546248D02*
X123746780Y-79641486D01*
X124651542Y-79974820D02*
X124651542Y-79308153D01*
X124651542Y-79403391D02*
X124699161Y-79355772D01*
X124699161Y-79355772D02*
X124794399Y-79308153D01*
X124794399Y-79308153D02*
X124937256Y-79308153D01*
X124937256Y-79308153D02*
X125032494Y-79355772D01*
X125032494Y-79355772D02*
X125080113Y-79451010D01*
X125080113Y-79451010D02*
X125080113Y-79974820D01*
X125080113Y-79451010D02*
X125127732Y-79355772D01*
X125127732Y-79355772D02*
X125222970Y-79308153D01*
X125222970Y-79308153D02*
X125365827Y-79308153D01*
X125365827Y-79308153D02*
X125461066Y-79355772D01*
X125461066Y-79355772D02*
X125508685Y-79451010D01*
X125508685Y-79451010D02*
X125508685Y-79974820D01*
X126746780Y-79974820D02*
X126746780Y-78974820D01*
X126746780Y-79451010D02*
X127318208Y-79451010D01*
X127318208Y-79974820D02*
X127318208Y-78974820D01*
X127937256Y-79974820D02*
X127842018Y-79927201D01*
X127842018Y-79927201D02*
X127794399Y-79879581D01*
X127794399Y-79879581D02*
X127746780Y-79784343D01*
X127746780Y-79784343D02*
X127746780Y-79498629D01*
X127746780Y-79498629D02*
X127794399Y-79403391D01*
X127794399Y-79403391D02*
X127842018Y-79355772D01*
X127842018Y-79355772D02*
X127937256Y-79308153D01*
X127937256Y-79308153D02*
X128080113Y-79308153D01*
X128080113Y-79308153D02*
X128175351Y-79355772D01*
X128175351Y-79355772D02*
X128222970Y-79403391D01*
X128222970Y-79403391D02*
X128270589Y-79498629D01*
X128270589Y-79498629D02*
X128270589Y-79784343D01*
X128270589Y-79784343D02*
X128222970Y-79879581D01*
X128222970Y-79879581D02*
X128175351Y-79927201D01*
X128175351Y-79927201D02*
X128080113Y-79974820D01*
X128080113Y-79974820D02*
X127937256Y-79974820D01*
X128699161Y-79974820D02*
X128699161Y-79308153D01*
X128699161Y-79498629D02*
X128746780Y-79403391D01*
X128746780Y-79403391D02*
X128794399Y-79355772D01*
X128794399Y-79355772D02*
X128889637Y-79308153D01*
X128889637Y-79308153D02*
X128984875Y-79308153D01*
X129318209Y-79974820D02*
X129318209Y-79308153D01*
X129318209Y-78974820D02*
X129270590Y-79022439D01*
X129270590Y-79022439D02*
X129318209Y-79070058D01*
X129318209Y-79070058D02*
X129365828Y-79022439D01*
X129365828Y-79022439D02*
X129318209Y-78974820D01*
X129318209Y-78974820D02*
X129318209Y-79070058D01*
X130222970Y-79308153D02*
X130222970Y-79974820D01*
X129794399Y-79308153D02*
X129794399Y-79831962D01*
X129794399Y-79831962D02*
X129842018Y-79927201D01*
X129842018Y-79927201D02*
X129937256Y-79974820D01*
X129937256Y-79974820D02*
X130080113Y-79974820D01*
X130080113Y-79974820D02*
X130175351Y-79927201D01*
X130175351Y-79927201D02*
X130222970Y-79879581D01*
X130699161Y-79308153D02*
X130699161Y-79974820D01*
X130699161Y-79403391D02*
X130746780Y-79355772D01*
X130746780Y-79355772D02*
X130842018Y-79308153D01*
X130842018Y-79308153D02*
X130984875Y-79308153D01*
X130984875Y-79308153D02*
X131080113Y-79355772D01*
X131080113Y-79355772D02*
X131127732Y-79451010D01*
X131127732Y-79451010D02*
X131127732Y-79974820D01*
X131746780Y-79974820D02*
X131651542Y-79927201D01*
X131651542Y-79927201D02*
X131603923Y-79879581D01*
X131603923Y-79879581D02*
X131556304Y-79784343D01*
X131556304Y-79784343D02*
X131556304Y-79498629D01*
X131556304Y-79498629D02*
X131603923Y-79403391D01*
X131603923Y-79403391D02*
X131651542Y-79355772D01*
X131651542Y-79355772D02*
X131746780Y-79308153D01*
X131746780Y-79308153D02*
X131889637Y-79308153D01*
X131889637Y-79308153D02*
X131984875Y-79355772D01*
X131984875Y-79355772D02*
X132032494Y-79403391D01*
X132032494Y-79403391D02*
X132080113Y-79498629D01*
X132080113Y-79498629D02*
X132080113Y-79784343D01*
X132080113Y-79784343D02*
X132032494Y-79879581D01*
X132032494Y-79879581D02*
X131984875Y-79927201D01*
X131984875Y-79927201D02*
X131889637Y-79974820D01*
X131889637Y-79974820D02*
X131746780Y-79974820D01*
X132413447Y-79308153D02*
X132651542Y-79974820D01*
X132651542Y-79974820D02*
X132889637Y-79308153D01*
X122358684Y-74378153D02*
X121596779Y-74663867D01*
X121596779Y-74663867D02*
X122358684Y-74949581D01*
X122787255Y-74759105D02*
X123263445Y-74759105D01*
X122692017Y-75044820D02*
X123025350Y-74044820D01*
X123025350Y-74044820D02*
X123358683Y-75044820D01*
X124120588Y-74378153D02*
X124120588Y-75044820D01*
X123692017Y-74378153D02*
X123692017Y-74901962D01*
X123692017Y-74901962D02*
X123739636Y-74997201D01*
X123739636Y-74997201D02*
X123834874Y-75044820D01*
X123834874Y-75044820D02*
X123977731Y-75044820D01*
X123977731Y-75044820D02*
X124072969Y-74997201D01*
X124072969Y-74997201D02*
X124120588Y-74949581D01*
X124453922Y-74378153D02*
X124834874Y-74378153D01*
X124596779Y-74044820D02*
X124596779Y-74901962D01*
X124596779Y-74901962D02*
X124644398Y-74997201D01*
X124644398Y-74997201D02*
X124739636Y-75044820D01*
X124739636Y-75044820D02*
X124834874Y-75044820D01*
X125168208Y-75044820D02*
X125168208Y-74044820D01*
X125596779Y-75044820D02*
X125596779Y-74521010D01*
X125596779Y-74521010D02*
X125549160Y-74425772D01*
X125549160Y-74425772D02*
X125453922Y-74378153D01*
X125453922Y-74378153D02*
X125311065Y-74378153D01*
X125311065Y-74378153D02*
X125215827Y-74425772D01*
X125215827Y-74425772D02*
X125168208Y-74473391D01*
X126215827Y-75044820D02*
X126120589Y-74997201D01*
X126120589Y-74997201D02*
X126072970Y-74949581D01*
X126072970Y-74949581D02*
X126025351Y-74854343D01*
X126025351Y-74854343D02*
X126025351Y-74568629D01*
X126025351Y-74568629D02*
X126072970Y-74473391D01*
X126072970Y-74473391D02*
X126120589Y-74425772D01*
X126120589Y-74425772D02*
X126215827Y-74378153D01*
X126215827Y-74378153D02*
X126358684Y-74378153D01*
X126358684Y-74378153D02*
X126453922Y-74425772D01*
X126453922Y-74425772D02*
X126501541Y-74473391D01*
X126501541Y-74473391D02*
X126549160Y-74568629D01*
X126549160Y-74568629D02*
X126549160Y-74854343D01*
X126549160Y-74854343D02*
X126501541Y-74949581D01*
X126501541Y-74949581D02*
X126453922Y-74997201D01*
X126453922Y-74997201D02*
X126358684Y-75044820D01*
X126358684Y-75044820D02*
X126215827Y-75044820D01*
X126977732Y-75044820D02*
X126977732Y-74378153D01*
X126977732Y-74568629D02*
X127025351Y-74473391D01*
X127025351Y-74473391D02*
X127072970Y-74425772D01*
X127072970Y-74425772D02*
X127168208Y-74378153D01*
X127168208Y-74378153D02*
X127263446Y-74378153D01*
X128358685Y-74378153D02*
X128358685Y-75044820D01*
X128358685Y-74473391D02*
X128406304Y-74425772D01*
X128406304Y-74425772D02*
X128501542Y-74378153D01*
X128501542Y-74378153D02*
X128644399Y-74378153D01*
X128644399Y-74378153D02*
X128739637Y-74425772D01*
X128739637Y-74425772D02*
X128787256Y-74521010D01*
X128787256Y-74521010D02*
X128787256Y-75044820D01*
X129692018Y-75044820D02*
X129692018Y-74521010D01*
X129692018Y-74521010D02*
X129644399Y-74425772D01*
X129644399Y-74425772D02*
X129549161Y-74378153D01*
X129549161Y-74378153D02*
X129358685Y-74378153D01*
X129358685Y-74378153D02*
X129263447Y-74425772D01*
X129692018Y-74997201D02*
X129596780Y-75044820D01*
X129596780Y-75044820D02*
X129358685Y-75044820D01*
X129358685Y-75044820D02*
X129263447Y-74997201D01*
X129263447Y-74997201D02*
X129215828Y-74901962D01*
X129215828Y-74901962D02*
X129215828Y-74806724D01*
X129215828Y-74806724D02*
X129263447Y-74711486D01*
X129263447Y-74711486D02*
X129358685Y-74663867D01*
X129358685Y-74663867D02*
X129596780Y-74663867D01*
X129596780Y-74663867D02*
X129692018Y-74616248D01*
X130168209Y-75044820D02*
X130168209Y-74378153D01*
X130168209Y-74473391D02*
X130215828Y-74425772D01*
X130215828Y-74425772D02*
X130311066Y-74378153D01*
X130311066Y-74378153D02*
X130453923Y-74378153D01*
X130453923Y-74378153D02*
X130549161Y-74425772D01*
X130549161Y-74425772D02*
X130596780Y-74521010D01*
X130596780Y-74521010D02*
X130596780Y-75044820D01*
X130596780Y-74521010D02*
X130644399Y-74425772D01*
X130644399Y-74425772D02*
X130739637Y-74378153D01*
X130739637Y-74378153D02*
X130882494Y-74378153D01*
X130882494Y-74378153D02*
X130977733Y-74425772D01*
X130977733Y-74425772D02*
X131025352Y-74521010D01*
X131025352Y-74521010D02*
X131025352Y-75044820D01*
X131882494Y-74997201D02*
X131787256Y-75044820D01*
X131787256Y-75044820D02*
X131596780Y-75044820D01*
X131596780Y-75044820D02*
X131501542Y-74997201D01*
X131501542Y-74997201D02*
X131453923Y-74901962D01*
X131453923Y-74901962D02*
X131453923Y-74521010D01*
X131453923Y-74521010D02*
X131501542Y-74425772D01*
X131501542Y-74425772D02*
X131596780Y-74378153D01*
X131596780Y-74378153D02*
X131787256Y-74378153D01*
X131787256Y-74378153D02*
X131882494Y-74425772D01*
X131882494Y-74425772D02*
X131930113Y-74521010D01*
X131930113Y-74521010D02*
X131930113Y-74616248D01*
X131930113Y-74616248D02*
X131453923Y-74711486D01*
X132358685Y-74378153D02*
X133120590Y-74663867D01*
X133120590Y-74663867D02*
X132358685Y-74949581D01*
X122237255Y-82674820D02*
X122332493Y-82674820D01*
X122332493Y-82674820D02*
X122427731Y-82722439D01*
X122427731Y-82722439D02*
X122475350Y-82770058D01*
X122475350Y-82770058D02*
X122522969Y-82865296D01*
X122522969Y-82865296D02*
X122570588Y-83055772D01*
X122570588Y-83055772D02*
X122570588Y-83293867D01*
X122570588Y-83293867D02*
X122522969Y-83484343D01*
X122522969Y-83484343D02*
X122475350Y-83579581D01*
X122475350Y-83579581D02*
X122427731Y-83627201D01*
X122427731Y-83627201D02*
X122332493Y-83674820D01*
X122332493Y-83674820D02*
X122237255Y-83674820D01*
X122237255Y-83674820D02*
X122142017Y-83627201D01*
X122142017Y-83627201D02*
X122094398Y-83579581D01*
X122094398Y-83579581D02*
X122046779Y-83484343D01*
X122046779Y-83484343D02*
X121999160Y-83293867D01*
X121999160Y-83293867D02*
X121999160Y-83055772D01*
X121999160Y-83055772D02*
X122046779Y-82865296D01*
X122046779Y-82865296D02*
X122094398Y-82770058D01*
X122094398Y-82770058D02*
X122142017Y-82722439D01*
X122142017Y-82722439D02*
X122237255Y-82674820D01*
X122951541Y-82770058D02*
X122999160Y-82722439D01*
X122999160Y-82722439D02*
X123094398Y-82674820D01*
X123094398Y-82674820D02*
X123332493Y-82674820D01*
X123332493Y-82674820D02*
X123427731Y-82722439D01*
X123427731Y-82722439D02*
X123475350Y-82770058D01*
X123475350Y-82770058D02*
X123522969Y-82865296D01*
X123522969Y-82865296D02*
X123522969Y-82960534D01*
X123522969Y-82960534D02*
X123475350Y-83103391D01*
X123475350Y-83103391D02*
X122903922Y-83674820D01*
X122903922Y-83674820D02*
X123522969Y-83674820D01*
X123951541Y-83579581D02*
X123999160Y-83627201D01*
X123999160Y-83627201D02*
X123951541Y-83674820D01*
X123951541Y-83674820D02*
X123903922Y-83627201D01*
X123903922Y-83627201D02*
X123951541Y-83579581D01*
X123951541Y-83579581D02*
X123951541Y-83674820D01*
X124380112Y-82770058D02*
X124427731Y-82722439D01*
X124427731Y-82722439D02*
X124522969Y-82674820D01*
X124522969Y-82674820D02*
X124761064Y-82674820D01*
X124761064Y-82674820D02*
X124856302Y-82722439D01*
X124856302Y-82722439D02*
X124903921Y-82770058D01*
X124903921Y-82770058D02*
X124951540Y-82865296D01*
X124951540Y-82865296D02*
X124951540Y-82960534D01*
X124951540Y-82960534D02*
X124903921Y-83103391D01*
X124903921Y-83103391D02*
X124332493Y-83674820D01*
X124332493Y-83674820D02*
X124951540Y-83674820D01*
X125570588Y-82674820D02*
X125665826Y-82674820D01*
X125665826Y-82674820D02*
X125761064Y-82722439D01*
X125761064Y-82722439D02*
X125808683Y-82770058D01*
X125808683Y-82770058D02*
X125856302Y-82865296D01*
X125856302Y-82865296D02*
X125903921Y-83055772D01*
X125903921Y-83055772D02*
X125903921Y-83293867D01*
X125903921Y-83293867D02*
X125856302Y-83484343D01*
X125856302Y-83484343D02*
X125808683Y-83579581D01*
X125808683Y-83579581D02*
X125761064Y-83627201D01*
X125761064Y-83627201D02*
X125665826Y-83674820D01*
X125665826Y-83674820D02*
X125570588Y-83674820D01*
X125570588Y-83674820D02*
X125475350Y-83627201D01*
X125475350Y-83627201D02*
X125427731Y-83579581D01*
X125427731Y-83579581D02*
X125380112Y-83484343D01*
X125380112Y-83484343D02*
X125332493Y-83293867D01*
X125332493Y-83293867D02*
X125332493Y-83055772D01*
X125332493Y-83055772D02*
X125380112Y-82865296D01*
X125380112Y-82865296D02*
X125427731Y-82770058D01*
X125427731Y-82770058D02*
X125475350Y-82722439D01*
X125475350Y-82722439D02*
X125570588Y-82674820D01*
X126284874Y-82770058D02*
X126332493Y-82722439D01*
X126332493Y-82722439D02*
X126427731Y-82674820D01*
X126427731Y-82674820D02*
X126665826Y-82674820D01*
X126665826Y-82674820D02*
X126761064Y-82722439D01*
X126761064Y-82722439D02*
X126808683Y-82770058D01*
X126808683Y-82770058D02*
X126856302Y-82865296D01*
X126856302Y-82865296D02*
X126856302Y-82960534D01*
X126856302Y-82960534D02*
X126808683Y-83103391D01*
X126808683Y-83103391D02*
X126237255Y-83674820D01*
X126237255Y-83674820D02*
X126856302Y-83674820D01*
X127761064Y-82674820D02*
X127284874Y-82674820D01*
X127284874Y-82674820D02*
X127237255Y-83151010D01*
X127237255Y-83151010D02*
X127284874Y-83103391D01*
X127284874Y-83103391D02*
X127380112Y-83055772D01*
X127380112Y-83055772D02*
X127618207Y-83055772D01*
X127618207Y-83055772D02*
X127713445Y-83103391D01*
X127713445Y-83103391D02*
X127761064Y-83151010D01*
X127761064Y-83151010D02*
X127808683Y-83246248D01*
X127808683Y-83246248D02*
X127808683Y-83484343D01*
X127808683Y-83484343D02*
X127761064Y-83579581D01*
X127761064Y-83579581D02*
X127713445Y-83627201D01*
X127713445Y-83627201D02*
X127618207Y-83674820D01*
X127618207Y-83674820D02*
X127380112Y-83674820D01*
X127380112Y-83674820D02*
X127284874Y-83627201D01*
X127284874Y-83627201D02*
X127237255Y-83579581D01*
D12*
X109506265Y-54477133D02*
X110115789Y-54477133D01*
X106206265Y-54477133D02*
X106815789Y-54477133D01*
X106511027Y-54781895D02*
X106511027Y-54172371D01*
D10*
X42464285Y-144229819D02*
X42464285Y-144944104D01*
X42464285Y-144944104D02*
X42416666Y-145086961D01*
X42416666Y-145086961D02*
X42321428Y-145182200D01*
X42321428Y-145182200D02*
X42178571Y-145229819D01*
X42178571Y-145229819D02*
X42083333Y-145229819D01*
X42892857Y-144325057D02*
X42940476Y-144277438D01*
X42940476Y-144277438D02*
X43035714Y-144229819D01*
X43035714Y-144229819D02*
X43273809Y-144229819D01*
X43273809Y-144229819D02*
X43369047Y-144277438D01*
X43369047Y-144277438D02*
X43416666Y-144325057D01*
X43416666Y-144325057D02*
X43464285Y-144420295D01*
X43464285Y-144420295D02*
X43464285Y-144515533D01*
X43464285Y-144515533D02*
X43416666Y-144658390D01*
X43416666Y-144658390D02*
X42845238Y-145229819D01*
X42845238Y-145229819D02*
X43464285Y-145229819D01*
X44083333Y-144229819D02*
X44178571Y-144229819D01*
X44178571Y-144229819D02*
X44273809Y-144277438D01*
X44273809Y-144277438D02*
X44321428Y-144325057D01*
X44321428Y-144325057D02*
X44369047Y-144420295D01*
X44369047Y-144420295D02*
X44416666Y-144610771D01*
X44416666Y-144610771D02*
X44416666Y-144848866D01*
X44416666Y-144848866D02*
X44369047Y-145039342D01*
X44369047Y-145039342D02*
X44321428Y-145134580D01*
X44321428Y-145134580D02*
X44273809Y-145182200D01*
X44273809Y-145182200D02*
X44178571Y-145229819D01*
X44178571Y-145229819D02*
X44083333Y-145229819D01*
X44083333Y-145229819D02*
X43988095Y-145182200D01*
X43988095Y-145182200D02*
X43940476Y-145134580D01*
X43940476Y-145134580D02*
X43892857Y-145039342D01*
X43892857Y-145039342D02*
X43845238Y-144848866D01*
X43845238Y-144848866D02*
X43845238Y-144610771D01*
X43845238Y-144610771D02*
X43892857Y-144420295D01*
X43892857Y-144420295D02*
X43940476Y-144325057D01*
X43940476Y-144325057D02*
X43988095Y-144277438D01*
X43988095Y-144277438D02*
X44083333Y-144229819D01*
X45035714Y-144229819D02*
X45130952Y-144229819D01*
X45130952Y-144229819D02*
X45226190Y-144277438D01*
X45226190Y-144277438D02*
X45273809Y-144325057D01*
X45273809Y-144325057D02*
X45321428Y-144420295D01*
X45321428Y-144420295D02*
X45369047Y-144610771D01*
X45369047Y-144610771D02*
X45369047Y-144848866D01*
X45369047Y-144848866D02*
X45321428Y-145039342D01*
X45321428Y-145039342D02*
X45273809Y-145134580D01*
X45273809Y-145134580D02*
X45226190Y-145182200D01*
X45226190Y-145182200D02*
X45130952Y-145229819D01*
X45130952Y-145229819D02*
X45035714Y-145229819D01*
X45035714Y-145229819D02*
X44940476Y-145182200D01*
X44940476Y-145182200D02*
X44892857Y-145134580D01*
X44892857Y-145134580D02*
X44845238Y-145039342D01*
X44845238Y-145039342D02*
X44797619Y-144848866D01*
X44797619Y-144848866D02*
X44797619Y-144610771D01*
X44797619Y-144610771D02*
X44845238Y-144420295D01*
X44845238Y-144420295D02*
X44892857Y-144325057D01*
X44892857Y-144325057D02*
X44940476Y-144277438D01*
X44940476Y-144277438D02*
X45035714Y-144229819D01*
D12*
X114556265Y-54477133D02*
X115165789Y-54477133D01*
X111256265Y-54477133D02*
X111865789Y-54477133D01*
X111561027Y-54781895D02*
X111561027Y-54172371D01*
D13*
%TO.C,kibuzzard-67B37005*%
G36*
X133541061Y-103501777D02*
G01*
X133541061Y-104265913D01*
X133541061Y-104543780D01*
X133541061Y-105284222D01*
X133537252Y-105361759D01*
X133525861Y-105438550D01*
X133506998Y-105513855D01*
X133480845Y-105586948D01*
X133447653Y-105657125D01*
X133407743Y-105723712D01*
X133361498Y-105786066D01*
X133309364Y-105843586D01*
X133251844Y-105895720D01*
X133189490Y-105941965D01*
X133122904Y-105981875D01*
X133052726Y-106015067D01*
X132979633Y-106041220D01*
X132904328Y-106060083D01*
X132827538Y-106071474D01*
X132750000Y-106075283D01*
X132672462Y-106071474D01*
X132595672Y-106060083D01*
X132520367Y-106041220D01*
X132447274Y-106015067D01*
X132377096Y-105981875D01*
X132310510Y-105941965D01*
X132248156Y-105895720D01*
X132190636Y-105843586D01*
X132138502Y-105786066D01*
X132092257Y-105723712D01*
X132052347Y-105657125D01*
X132019155Y-105586948D01*
X131993002Y-105513855D01*
X131974139Y-105438550D01*
X131962748Y-105361759D01*
X131958939Y-105284222D01*
X131958939Y-104543780D01*
X131958939Y-104248142D01*
X132228191Y-104248142D01*
X132235662Y-104333966D01*
X132258078Y-104410501D01*
X132317044Y-104526010D01*
X132462439Y-104454927D01*
X132416397Y-104358805D01*
X132397819Y-104246527D01*
X132429321Y-104155250D01*
X132515751Y-104122132D01*
X132577141Y-104137480D01*
X132615913Y-104177060D01*
X132636914Y-104231987D01*
X132643376Y-104293376D01*
X132643376Y-104367690D01*
X132808158Y-104367690D01*
X132808158Y-104306300D01*
X132816034Y-104217851D01*
X132839661Y-104146365D01*
X132883078Y-104099111D01*
X132950323Y-104083360D01*
X133058562Y-104124556D01*
X133091276Y-104180897D01*
X133102181Y-104267528D01*
X133097738Y-104344063D01*
X133084410Y-104408885D01*
X133050485Y-104505008D01*
X133216882Y-104543780D01*
X133234653Y-104493700D01*
X133252423Y-104423425D01*
X133266155Y-104344265D01*
X133271809Y-104265913D01*
X133265953Y-104172617D01*
X133248384Y-104093053D01*
X133220113Y-104026817D01*
X133182149Y-103973506D01*
X133081179Y-103904039D01*
X132953554Y-103881422D01*
X132872375Y-103892124D01*
X132803312Y-103924233D01*
X132747981Y-103975727D01*
X132707997Y-104044588D01*
X132623990Y-103954120D01*
X132509289Y-103920194D01*
X132397819Y-103939580D01*
X132308158Y-103999354D01*
X132249192Y-104101939D01*
X132233441Y-104169588D01*
X132228191Y-104248142D01*
X131958939Y-104248142D01*
X131958939Y-103013893D01*
X132250808Y-103013893D01*
X132250808Y-103222294D01*
X132334814Y-103236834D01*
X132431745Y-103254604D01*
X132536551Y-103274798D01*
X132644184Y-103296607D01*
X132752423Y-103320032D01*
X132859047Y-103345073D01*
X132959006Y-103370921D01*
X133047254Y-103396769D01*
X132957795Y-103422819D01*
X132857431Y-103449273D01*
X132750808Y-103475121D01*
X132642569Y-103499354D01*
X132535137Y-103521769D01*
X132430937Y-103542165D01*
X132334612Y-103559128D01*
X132250808Y-103571244D01*
X132250808Y-103781260D01*
X132341276Y-103762682D01*
X132454362Y-103736026D01*
X132538997Y-103714665D01*
X132627042Y-103691510D01*
X132718498Y-103666559D01*
X132811748Y-103640172D01*
X132905179Y-103612709D01*
X132998788Y-103584168D01*
X133132068Y-103541761D01*
X133250808Y-103501777D01*
X133250808Y-103296607D01*
X133164737Y-103265733D01*
X133076692Y-103235577D01*
X132986672Y-103206139D01*
X132896204Y-103177868D01*
X132806812Y-103151212D01*
X132718498Y-103126171D01*
X132589863Y-103091842D01*
X132467286Y-103061551D01*
X132353393Y-103035501D01*
X132250808Y-103013893D01*
X131958939Y-103013893D01*
X131958939Y-102632633D01*
X132228191Y-102632633D01*
X132235662Y-102718457D01*
X132258078Y-102794992D01*
X132317044Y-102910501D01*
X132462439Y-102839418D01*
X132416397Y-102743296D01*
X132397819Y-102631018D01*
X132429321Y-102539742D01*
X132515751Y-102506624D01*
X132577141Y-102521971D01*
X132615913Y-102561551D01*
X132636914Y-102616478D01*
X132643376Y-102677868D01*
X132643376Y-102752181D01*
X132808158Y-102752181D01*
X132808158Y-102690792D01*
X132816034Y-102602342D01*
X132839661Y-102530856D01*
X132883078Y-102483603D01*
X132950323Y-102467851D01*
X133058562Y-102509047D01*
X133091276Y-102565388D01*
X133102181Y-102652019D01*
X133097738Y-102728554D01*
X133084410Y-102793376D01*
X133050485Y-102889499D01*
X133216882Y-102928271D01*
X133234653Y-102878191D01*
X133252423Y-102807916D01*
X133266155Y-102728756D01*
X133271809Y-102650404D01*
X133265953Y-102557108D01*
X133248384Y-102477544D01*
X133220113Y-102411309D01*
X133182149Y-102357997D01*
X133081179Y-102288530D01*
X132953554Y-102265913D01*
X132872375Y-102276616D01*
X132803312Y-102308724D01*
X132747981Y-102360218D01*
X132707997Y-102429079D01*
X132623990Y-102338611D01*
X132509289Y-102304685D01*
X132397819Y-102324071D01*
X132308158Y-102383845D01*
X132249192Y-102486430D01*
X132233441Y-102554079D01*
X132228191Y-102632633D01*
X131958939Y-102632633D01*
X131958939Y-102265913D01*
X131958939Y-102265778D01*
X131962748Y-102188241D01*
X131974139Y-102111450D01*
X131993002Y-102036145D01*
X132019155Y-101963052D01*
X132052347Y-101892875D01*
X132092257Y-101826288D01*
X132138502Y-101763934D01*
X132190636Y-101706414D01*
X132248156Y-101654280D01*
X132310510Y-101608035D01*
X132377096Y-101568125D01*
X132447274Y-101534933D01*
X132520367Y-101508780D01*
X132595672Y-101489917D01*
X132672462Y-101478526D01*
X132750000Y-101474717D01*
X132827538Y-101478526D01*
X132904328Y-101489917D01*
X132979633Y-101508780D01*
X133052726Y-101534933D01*
X133122904Y-101568125D01*
X133189490Y-101608035D01*
X133251844Y-101654280D01*
X133309364Y-101706414D01*
X133361498Y-101763934D01*
X133407743Y-101826288D01*
X133447653Y-101892875D01*
X133480845Y-101963052D01*
X133506998Y-102036145D01*
X133525861Y-102111450D01*
X133537252Y-102188241D01*
X133541061Y-102265778D01*
X133541061Y-102265913D01*
X133541061Y-102650404D01*
X133541061Y-103501777D01*
G37*
D14*
%TO.C,L301*%
X104760720Y-130236542D02*
X105610720Y-130236542D01*
X104760720Y-134606542D02*
X104760720Y-130236542D01*
X104760720Y-134606542D02*
X105610720Y-134606542D01*
X109480720Y-130236542D02*
X108630720Y-130236542D01*
X109480720Y-134606542D02*
X108630720Y-134606542D01*
X109480720Y-134606542D02*
X109480720Y-130236542D01*
%TO.C,JP300*%
X103050000Y-135675000D02*
X105850000Y-135675000D01*
X103050000Y-137675000D02*
X103050000Y-135675000D01*
X105850000Y-135675000D02*
X105850000Y-137675000D01*
X105850000Y-137675000D02*
X103050000Y-137675000D01*
%TO.C,TP302*%
X133450000Y-105325000D02*
G75*
G02*
X132050000Y-105325000I-700000J0D01*
G01*
X132050000Y-105325000D02*
G75*
G02*
X133450000Y-105325000I700000J0D01*
G01*
D12*
%TO.C,LED300*%
X105750000Y-59985000D02*
X105750000Y-51985000D01*
X107550000Y-53510000D02*
X107550000Y-54410000D01*
X107550000Y-54410000D02*
X108750000Y-53960000D01*
X107850000Y-54485000D02*
X108250000Y-54885000D01*
X108250000Y-54885000D02*
X107950000Y-54885000D01*
X108300000Y-54385000D02*
X108700000Y-54785000D01*
X108700000Y-54785000D02*
X108400000Y-54785000D01*
X108750000Y-53510000D02*
X108750000Y-54410000D01*
X108750000Y-53960000D02*
X106750000Y-53960000D01*
X108750000Y-53960000D02*
X107550000Y-53510000D01*
X108750000Y-53960000D02*
X109450000Y-53960000D01*
X110550000Y-51985000D02*
X110550000Y-59985000D01*
X110550000Y-59985000D02*
X105750000Y-59985000D01*
D14*
%TO.C,U802*%
X121450000Y-60255001D02*
X120800000Y-60255001D01*
X121450000Y-60255001D02*
X122100000Y-60255001D01*
X121450000Y-63375001D02*
X120800000Y-63375001D01*
X121450000Y-63375001D02*
X122100000Y-63375001D01*
X122852500Y-63655001D02*
X122372500Y-63655001D01*
X122612500Y-63325001D01*
X122852500Y-63655001D01*
G36*
X122852500Y-63655001D02*
G01*
X122372500Y-63655001D01*
X122612500Y-63325001D01*
X122852500Y-63655001D01*
G37*
D10*
%TO.C,D301*%
X124120000Y-136775000D02*
X124120000Y-139065000D01*
X124120000Y-139065000D02*
X125580000Y-139065000D01*
X125580000Y-139065000D02*
X125580000Y-136775000D01*
%TO.C,FB400*%
X106110000Y-104715000D02*
X105790000Y-104715000D01*
X106110000Y-105735000D02*
X105790000Y-105735000D01*
D13*
%TO.C,kibuzzard-67B2198C*%
G36*
X134545840Y-111401494D02*
G01*
X134601979Y-111429362D01*
X134638328Y-111477019D01*
X134650444Y-111545679D01*
X134605210Y-111657956D01*
X134545840Y-111687641D01*
X134458199Y-111697536D01*
X134414580Y-111697536D01*
X134414580Y-111397052D01*
X134446890Y-111393013D01*
X134474354Y-111392205D01*
X134545840Y-111401494D01*
G37*
G36*
X135802462Y-110953826D02*
G01*
X135877684Y-110964984D01*
X135951451Y-110983461D01*
X136023051Y-111009080D01*
X136091796Y-111041594D01*
X136157022Y-111080689D01*
X136218103Y-111125990D01*
X136274449Y-111177059D01*
X136325518Y-111233405D01*
X136370818Y-111294485D01*
X136409914Y-111359712D01*
X136442427Y-111428456D01*
X136468046Y-111500057D01*
X136486524Y-111573823D01*
X136497682Y-111649046D01*
X136501414Y-111725000D01*
X136497682Y-111800954D01*
X136486524Y-111876177D01*
X136468046Y-111949943D01*
X136442427Y-112021544D01*
X136409914Y-112090288D01*
X136370818Y-112155515D01*
X136325518Y-112216595D01*
X136274449Y-112272941D01*
X136218103Y-112324010D01*
X136157022Y-112369311D01*
X136091796Y-112408406D01*
X136023051Y-112440920D01*
X135951451Y-112466539D01*
X135877684Y-112485016D01*
X135802462Y-112496174D01*
X135726508Y-112499906D01*
X135726373Y-112499906D01*
X135511511Y-112499906D01*
X134918619Y-112499906D01*
X134215872Y-112499906D01*
X133273492Y-112499906D01*
X133197538Y-112496174D01*
X133122316Y-112485016D01*
X133048549Y-112466539D01*
X132976949Y-112440920D01*
X132908204Y-112408406D01*
X132842978Y-112369311D01*
X132781897Y-112324010D01*
X132725551Y-112272941D01*
X132674482Y-112216595D01*
X132629182Y-112155515D01*
X132590086Y-112090288D01*
X132557573Y-112021544D01*
X132531954Y-111949943D01*
X132513476Y-111876177D01*
X132502318Y-111800954D01*
X132498586Y-111725000D01*
X132502318Y-111649046D01*
X132513476Y-111573823D01*
X132531954Y-111500057D01*
X132557573Y-111428456D01*
X132590086Y-111359712D01*
X132629182Y-111294485D01*
X132665739Y-111245194D01*
X134215872Y-111245194D01*
X134215872Y-112230654D01*
X134414580Y-112230654D01*
X134414580Y-111862318D01*
X134517973Y-111862318D01*
X134572698Y-111953796D01*
X134623788Y-112044063D01*
X134670032Y-112135541D01*
X134710218Y-112230654D01*
X134918619Y-112230654D01*
X134954160Y-112230654D01*
X135169023Y-112230654D01*
X135206179Y-112143215D01*
X135249798Y-112045679D01*
X135296648Y-111944911D01*
X135343498Y-111847779D01*
X135390953Y-111947940D01*
X135436389Y-112048102D01*
X135477383Y-112143821D01*
X135511511Y-112230654D01*
X135726373Y-112230654D01*
X135682754Y-112124838D01*
X135653069Y-112060218D01*
X135618942Y-111990751D01*
X135581179Y-111917851D01*
X135540590Y-111842932D01*
X135498183Y-111768619D01*
X135454968Y-111697536D01*
X135710218Y-111230654D01*
X135509895Y-111230654D01*
X135343498Y-111550525D01*
X135185178Y-111230654D01*
X134970315Y-111230654D01*
X135232027Y-111702383D01*
X135192447Y-111773263D01*
X135151252Y-111846971D01*
X135110258Y-111921082D01*
X135071284Y-111993174D01*
X135034935Y-112061834D01*
X135001817Y-112125646D01*
X134954160Y-112230654D01*
X134918619Y-112230654D01*
X134872577Y-112124838D01*
X134816842Y-112013368D01*
X134757068Y-111906745D01*
X134698910Y-111813853D01*
X134769588Y-111768215D01*
X134816842Y-111705614D01*
X134843498Y-111630493D01*
X134852383Y-111547294D01*
X134845719Y-111468740D01*
X134825727Y-111401090D01*
X134748990Y-111298506D01*
X134694063Y-111263368D01*
X134629443Y-111238732D01*
X134555937Y-111224192D01*
X134474354Y-111219346D01*
X134417811Y-111220961D01*
X134349960Y-111225000D01*
X134279685Y-111233078D01*
X134215872Y-111245194D01*
X132665739Y-111245194D01*
X132674482Y-111233405D01*
X132725551Y-111177059D01*
X132781897Y-111125990D01*
X132842978Y-111080689D01*
X132908204Y-111041594D01*
X132976949Y-111009080D01*
X133048549Y-110983461D01*
X133122316Y-110964984D01*
X133197538Y-110953826D01*
X133273492Y-110950094D01*
X134215872Y-110950094D01*
X135726373Y-110950094D01*
X135726508Y-110950094D01*
X135802462Y-110953826D01*
G37*
D14*
%TO.C,U801*%
X131650000Y-137240000D02*
X131650000Y-137030000D01*
X131840000Y-138810000D02*
X131840000Y-138360000D01*
X133460000Y-136790000D02*
X133460000Y-137240000D01*
X133460000Y-138810000D02*
X133460000Y-138360000D01*
X131650000Y-136790000D02*
X131410000Y-136460000D01*
X131890000Y-136460000D01*
X131650000Y-136790000D01*
G36*
X131650000Y-136790000D02*
G01*
X131410000Y-136460000D01*
X131890000Y-136460000D01*
X131650000Y-136790000D01*
G37*
%TO.C,TP701*%
X133950000Y-113725000D02*
G75*
G02*
X132550000Y-113725000I-700000J0D01*
G01*
X132550000Y-113725000D02*
G75*
G02*
X133950000Y-113725000I700000J0D01*
G01*
%TO.C,U301*%
X111550000Y-132558050D02*
X110750000Y-132558050D01*
X111550000Y-132558050D02*
X112350000Y-132558050D01*
X111550000Y-135678050D02*
X110750000Y-135678050D01*
X111550000Y-135678050D02*
X112350000Y-135678050D01*
D11*
X110350000Y-132518050D02*
G75*
G02*
X110150000Y-132518050I-100000J0D01*
G01*
X110150000Y-132518050D02*
G75*
G02*
X110350000Y-132518050I100000J0D01*
G01*
D13*
%TO.C,kibuzzard-67B20BD5*%
G36*
X126697598Y-111755183D02*
G01*
X126718277Y-111835312D01*
X126735724Y-111914795D01*
X126751233Y-111997509D01*
X126594852Y-111997509D01*
X126611007Y-111914795D01*
X126629101Y-111835312D01*
X126649779Y-111755183D01*
X126673689Y-111669238D01*
X126697598Y-111755183D01*
G37*
G36*
X131559849Y-112438651D02*
G01*
X131505999Y-112438651D01*
X131279828Y-112438651D01*
X130632332Y-112438651D01*
X129652687Y-112438651D01*
X129177081Y-112438651D01*
X128884997Y-112438651D01*
X128360280Y-112438651D01*
X128047518Y-112438651D01*
X127380635Y-112438651D01*
X126815854Y-112438651D01*
X126363511Y-112438651D01*
X126201960Y-112438651D01*
X126201960Y-112314149D01*
X126363511Y-112314149D01*
X126528939Y-112314149D01*
X126565127Y-112129335D01*
X126778374Y-112129335D01*
X126815854Y-112314149D01*
X126986451Y-112314149D01*
X126965127Y-112223448D01*
X126943543Y-112135383D01*
X126921702Y-112049955D01*
X126899602Y-111967164D01*
X126884633Y-111913503D01*
X127032978Y-111913503D01*
X127038551Y-112007929D01*
X127055272Y-112090886D01*
X127083139Y-112162372D01*
X127122154Y-112222388D01*
X127190508Y-112282701D01*
X127276668Y-112318888D01*
X127380635Y-112330950D01*
X127451233Y-112326589D01*
X127513107Y-112313503D01*
X127604222Y-112275377D01*
X127564157Y-112150013D01*
X127498891Y-112178446D01*
X127396144Y-112192663D01*
X127303899Y-112174408D01*
X127241702Y-112119642D01*
X127215495Y-112063853D01*
X127199770Y-111993848D01*
X127194529Y-111909626D01*
X127198891Y-111837251D01*
X127211976Y-111777800D01*
X127257211Y-111693148D01*
X127320539Y-111647913D01*
X127393560Y-111634343D01*
X127489844Y-111647913D01*
X127561572Y-111680870D01*
X127602929Y-111554214D01*
X127576435Y-111538705D01*
X127533139Y-111519319D01*
X127513907Y-111514149D01*
X127676597Y-111514149D01*
X127676597Y-111645975D01*
X127887259Y-111645975D01*
X127887259Y-112314149D01*
X128047518Y-112314149D01*
X128047518Y-111645975D01*
X128258180Y-111645975D01*
X128360280Y-111645975D01*
X128534755Y-111645975D01*
X128534755Y-112182324D01*
X128360280Y-112182324D01*
X128360280Y-112314149D01*
X128868196Y-112314149D01*
X128868196Y-112182324D01*
X128695013Y-112182324D01*
X128695013Y-111645975D01*
X128868196Y-111645975D01*
X128868196Y-111514149D01*
X128953495Y-111514149D01*
X128968358Y-111586524D01*
X128989682Y-111676992D01*
X129006771Y-111744700D01*
X129025295Y-111815136D01*
X129045256Y-111888301D01*
X129066365Y-111962902D01*
X129088336Y-112037646D01*
X129111169Y-112112534D01*
X129145094Y-112219157D01*
X129177081Y-112314149D01*
X129341217Y-112314149D01*
X129365916Y-112245293D01*
X129390041Y-112174856D01*
X129413592Y-112102841D01*
X129436209Y-112030466D01*
X129457534Y-111958953D01*
X129477566Y-111888301D01*
X129505030Y-111785393D01*
X129529262Y-111687332D01*
X129550102Y-111596217D01*
X129567388Y-111514149D01*
X129652687Y-111514149D01*
X129652687Y-111645975D01*
X129827162Y-111645975D01*
X129827162Y-112182324D01*
X129652687Y-112182324D01*
X129652687Y-112314149D01*
X130160603Y-112314149D01*
X130160603Y-112182324D01*
X129987421Y-112182324D01*
X129987421Y-111645975D01*
X130160603Y-111645975D01*
X130160603Y-111514149D01*
X130261411Y-111514149D01*
X130261411Y-111645975D01*
X130472073Y-111645975D01*
X130472073Y-112314149D01*
X130632332Y-112314149D01*
X130632332Y-111645975D01*
X130842994Y-111645975D01*
X130842994Y-111514149D01*
X130892106Y-111514149D01*
X130925349Y-111600669D01*
X130959598Y-111684460D01*
X130994852Y-111765522D01*
X131032547Y-111845867D01*
X131074120Y-111927504D01*
X131119569Y-112010433D01*
X131119569Y-112314149D01*
X131279828Y-112314149D01*
X131279828Y-112009141D01*
X131314723Y-111946621D01*
X131347033Y-111885716D01*
X131377081Y-111825458D01*
X131405191Y-111764876D01*
X131431686Y-111703810D01*
X131456887Y-111642097D01*
X131481443Y-111579093D01*
X131505999Y-111514149D01*
X131341863Y-111514149D01*
X131310199Y-111607202D01*
X131292429Y-111658576D01*
X131274012Y-111709303D01*
X131236532Y-111804941D01*
X131203576Y-111879900D01*
X131165450Y-111795732D01*
X131128616Y-111703487D01*
X131094044Y-111608010D01*
X131062703Y-111514149D01*
X130892106Y-111514149D01*
X130842994Y-111514149D01*
X130681443Y-111514149D01*
X130261411Y-111514149D01*
X130160603Y-111514149D01*
X130041702Y-111514149D01*
X129652687Y-111514149D01*
X129567388Y-111514149D01*
X129400668Y-111514149D01*
X129389036Y-111581354D01*
X129374820Y-111658899D01*
X129358665Y-111742744D01*
X129341217Y-111828850D01*
X129322477Y-111915442D01*
X129302445Y-112000740D01*
X129281766Y-112080708D01*
X129261088Y-112151306D01*
X129240248Y-112079739D01*
X129219085Y-111999448D01*
X129198406Y-111914149D01*
X129179020Y-111827558D01*
X129161088Y-111741613D01*
X129144771Y-111658253D01*
X129131201Y-111581193D01*
X129121508Y-111514149D01*
X129006484Y-111514149D01*
X128953495Y-111514149D01*
X128868196Y-111514149D01*
X128360280Y-111514149D01*
X128360280Y-111645975D01*
X128258180Y-111645975D01*
X128258180Y-111514149D01*
X128144448Y-111514149D01*
X127676597Y-111514149D01*
X127513907Y-111514149D01*
X127473043Y-111503164D01*
X127401314Y-111496533D01*
X127396144Y-111496055D01*
X127320377Y-111503002D01*
X127250749Y-111523842D01*
X127188713Y-111558091D01*
X127135724Y-111605264D01*
X127092590Y-111664876D01*
X127060118Y-111736443D01*
X127039763Y-111819480D01*
X127032978Y-111913503D01*
X126884633Y-111913503D01*
X126877243Y-111887009D01*
X126849093Y-111789795D01*
X126820862Y-111695248D01*
X126792550Y-111603366D01*
X126764157Y-111514149D01*
X126651718Y-111514149D01*
X126590975Y-111514149D01*
X126563592Y-111602639D01*
X126535724Y-111693632D01*
X126507372Y-111787130D01*
X126478535Y-111883131D01*
X126455324Y-111962614D01*
X126432215Y-112045458D01*
X126409211Y-112131661D01*
X126386309Y-112221225D01*
X126363511Y-112314149D01*
X126201960Y-112314149D01*
X126201960Y-111193201D01*
X126403576Y-111193201D01*
X126492752Y-111232620D01*
X126562219Y-111248613D01*
X126651718Y-111253945D01*
X126742402Y-111247123D01*
X126816284Y-111226660D01*
X126873366Y-111192555D01*
X126928131Y-111118403D01*
X126946387Y-111018726D01*
X126940894Y-110958468D01*
X126924416Y-110909518D01*
X126868196Y-110837143D01*
X126793236Y-110790617D01*
X126715046Y-110758953D01*
X126665288Y-110739567D01*
X126620054Y-110715657D01*
X126587097Y-110684639D01*
X126574173Y-110643928D01*
X126588246Y-110592950D01*
X126630465Y-110562363D01*
X126700829Y-110552167D01*
X126791944Y-110565092D01*
X126863673Y-110596109D01*
X126873958Y-110568969D01*
X127030393Y-110568969D01*
X127241055Y-110568969D01*
X127241055Y-111237143D01*
X127401314Y-111237143D01*
X128382251Y-111237143D01*
X128884997Y-111237143D01*
X128884997Y-111105318D01*
X128542509Y-111105318D01*
X128542509Y-110568969D01*
X129006484Y-110568969D01*
X129180959Y-110568969D01*
X129180959Y-111105318D01*
X129006484Y-111105318D01*
X129006484Y-111237143D01*
X129514400Y-111237143D01*
X129642348Y-111237143D01*
X129785805Y-111237143D01*
X129785805Y-110705964D01*
X129833840Y-110794637D01*
X129879720Y-110883167D01*
X129923446Y-110971554D01*
X129965019Y-111059940D01*
X130004437Y-111148470D01*
X130041702Y-111237143D01*
X130169650Y-111237143D01*
X130287259Y-111237143D01*
X130446225Y-111237143D01*
X130446225Y-110871392D01*
X130514076Y-110944413D01*
X130548810Y-110989324D01*
X130581928Y-111037466D01*
X130612784Y-111087870D01*
X130640732Y-111139567D01*
X130681443Y-111237143D01*
X130861088Y-111237143D01*
X130840086Y-111179470D01*
X130813269Y-111120180D01*
X130781766Y-111060730D01*
X130746710Y-111002571D01*
X130708745Y-110946836D01*
X130668519Y-110894655D01*
X130627485Y-110847159D01*
X130587097Y-110805479D01*
X130626354Y-110757983D01*
X130663996Y-110708549D01*
X130699698Y-110658630D01*
X130733139Y-110609680D01*
X130763673Y-110562184D01*
X130790652Y-110516626D01*
X130833947Y-110437143D01*
X130654303Y-110437143D01*
X130615530Y-110514688D01*
X130564480Y-110601279D01*
X130505676Y-110689163D01*
X130446225Y-110769292D01*
X130446225Y-110437143D01*
X130287259Y-110437143D01*
X130287259Y-111237143D01*
X130169650Y-111237143D01*
X130169650Y-110437143D01*
X130026193Y-110437143D01*
X130026193Y-110929550D01*
X130003414Y-110879146D01*
X129976435Y-110820988D01*
X129946064Y-110757983D01*
X129913107Y-110693040D01*
X129878374Y-110626966D01*
X129842671Y-110560568D01*
X129806484Y-110496432D01*
X129770296Y-110437143D01*
X129642348Y-110437143D01*
X129642348Y-111237143D01*
X129514400Y-111237143D01*
X129514400Y-111105318D01*
X129341217Y-111105318D01*
X129341217Y-110568969D01*
X129514400Y-110568969D01*
X129514400Y-110437143D01*
X129006484Y-110437143D01*
X129006484Y-110568969D01*
X128542509Y-110568969D01*
X128542509Y-110437143D01*
X128382251Y-110437143D01*
X128382251Y-111237143D01*
X127401314Y-111237143D01*
X127401314Y-110983831D01*
X127790328Y-110983831D01*
X128144448Y-110983831D01*
X128144448Y-110827450D01*
X127790328Y-110827450D01*
X127790328Y-110983831D01*
X127401314Y-110983831D01*
X127401314Y-110568969D01*
X127611976Y-110568969D01*
X127611976Y-110437143D01*
X127030393Y-110437143D01*
X127030393Y-110568969D01*
X126873958Y-110568969D01*
X126910199Y-110473331D01*
X126817792Y-110435851D01*
X126758180Y-110423250D01*
X126689198Y-110419050D01*
X126610002Y-110426086D01*
X126543012Y-110447195D01*
X126488228Y-110482377D01*
X126433463Y-110557983D01*
X126415207Y-110658145D01*
X126435886Y-110753137D01*
X126488228Y-110817111D01*
X126558665Y-110859760D01*
X126633624Y-110889486D01*
X126687905Y-110912103D01*
X126737017Y-110939243D01*
X126773204Y-110973492D01*
X126787421Y-111017434D01*
X126781605Y-111055560D01*
X126760280Y-111089163D01*
X126718277Y-111112426D01*
X126651718Y-111120827D01*
X126587259Y-111116303D01*
X126533463Y-111102733D01*
X126450102Y-111063961D01*
X126403576Y-111193201D01*
X126201960Y-111193201D01*
X126201960Y-110311349D01*
X126363511Y-110311349D01*
X131505999Y-110311349D01*
X131559849Y-110311349D01*
X132198040Y-110311349D01*
X131559849Y-112438651D01*
G37*
D10*
%TO.C,D400*%
X128510000Y-107075000D02*
X128510000Y-109365000D01*
X128510000Y-109365000D02*
X129970000Y-109365000D01*
X129970000Y-109365000D02*
X129970000Y-107075000D01*
D14*
%TO.C,U200*%
X132770000Y-140602501D02*
X132120000Y-140602501D01*
X132770000Y-140602501D02*
X133420000Y-140602501D01*
X132770000Y-143722501D02*
X132120000Y-143722501D01*
X132770000Y-143722501D02*
X133420000Y-143722501D01*
X131607500Y-140652501D02*
X131367500Y-140322501D01*
X131847500Y-140322501D01*
X131607500Y-140652501D01*
G36*
X131607500Y-140652501D02*
G01*
X131367500Y-140322501D01*
X131847500Y-140322501D01*
X131607500Y-140652501D01*
G37*
D10*
%TO.C,D701*%
X124445000Y-109960000D02*
X124445000Y-112250000D01*
X125905000Y-109960000D02*
X124445000Y-109960000D01*
X125905000Y-112250000D02*
X125905000Y-109960000D01*
%TO.C,D402*%
X131510000Y-107075000D02*
X131510000Y-109365000D01*
X131510000Y-109365000D02*
X132970000Y-109365000D01*
X132970000Y-109365000D02*
X132970000Y-107075000D01*
%TO.C,Y700*%
X130950000Y-112825000D02*
X129450000Y-112825000D01*
X130950000Y-114025000D02*
X130950000Y-112825000D01*
D14*
%TO.C,U700*%
X124040000Y-118315000D02*
X124490000Y-118315000D01*
X124040000Y-118765000D02*
X124040000Y-118315000D01*
X124040000Y-125085000D02*
X124040000Y-125535000D01*
X124040000Y-125535000D02*
X124490000Y-125535000D01*
X131260000Y-118315000D02*
X130810000Y-118315000D01*
X131260000Y-118765000D02*
X131260000Y-118315000D01*
X131260000Y-125085000D02*
X131260000Y-125535000D01*
X131260000Y-125535000D02*
X130810000Y-125535000D01*
D11*
X131000000Y-117025000D02*
G75*
G02*
X130800000Y-117025000I-100000J0D01*
G01*
X130800000Y-117025000D02*
G75*
G02*
X131000000Y-117025000I100000J0D01*
G01*
D14*
%TO.C,TP700*%
X133950000Y-111725000D02*
G75*
G02*
X132550000Y-111725000I-700000J0D01*
G01*
X132550000Y-111725000D02*
G75*
G02*
X133950000Y-111725000I700000J0D01*
G01*
D13*
%TO.C,kibuzzard-67B37472*%
G36*
X131100565Y-102597092D02*
G01*
X131078150Y-102668578D01*
X131010905Y-102721486D01*
X130941887Y-102745719D01*
X130854380Y-102760258D01*
X130748384Y-102765105D01*
X130643287Y-102760258D01*
X130556318Y-102745719D01*
X130487480Y-102721486D01*
X130420234Y-102668578D01*
X130397819Y-102597092D01*
X130398318Y-102595477D01*
X130623990Y-102595477D01*
X130656300Y-102661712D01*
X130732229Y-102685945D01*
X130807351Y-102661712D01*
X130838853Y-102595477D01*
X130807351Y-102531664D01*
X130732229Y-102506624D01*
X130656300Y-102531664D01*
X130623990Y-102595477D01*
X130398318Y-102595477D01*
X130420234Y-102524596D01*
X130487480Y-102471890D01*
X130556318Y-102448106D01*
X130643287Y-102433836D01*
X130748384Y-102429079D01*
X130854380Y-102433836D01*
X130941887Y-102448106D01*
X131010905Y-102471890D01*
X131078150Y-102524596D01*
X131100066Y-102595477D01*
X131100565Y-102597092D01*
G37*
G36*
X131541061Y-103508239D02*
G01*
X131541061Y-104290145D01*
X131541061Y-104559935D01*
X131541061Y-105300377D01*
X131537252Y-105377914D01*
X131525861Y-105454705D01*
X131506998Y-105530010D01*
X131480845Y-105603103D01*
X131447653Y-105673280D01*
X131407743Y-105739867D01*
X131361498Y-105802221D01*
X131309364Y-105859741D01*
X131251844Y-105911875D01*
X131189490Y-105958120D01*
X131122904Y-105998030D01*
X131052726Y-106031222D01*
X130979633Y-106057375D01*
X130904328Y-106076238D01*
X130827538Y-106087629D01*
X130750000Y-106091438D01*
X130672462Y-106087629D01*
X130595672Y-106076238D01*
X130520367Y-106057375D01*
X130447274Y-106031222D01*
X130377096Y-105998030D01*
X130310510Y-105958120D01*
X130248156Y-105911875D01*
X130190636Y-105859741D01*
X130138502Y-105802221D01*
X130092257Y-105739867D01*
X130052347Y-105673280D01*
X130019155Y-105603103D01*
X129993002Y-105530010D01*
X129974139Y-105454705D01*
X129962748Y-105377914D01*
X129958939Y-105300377D01*
X129958939Y-104559935D01*
X129958939Y-103931502D01*
X130250808Y-103931502D01*
X130250808Y-104442003D01*
X130374192Y-104448061D01*
X130502019Y-104456543D01*
X130633481Y-104467851D01*
X130767771Y-104482391D01*
X130771204Y-104371325D01*
X130781502Y-104283683D01*
X130820275Y-104166559D01*
X130880048Y-104111632D01*
X130956785Y-104097900D01*
X131010097Y-104105977D01*
X131056139Y-104135864D01*
X131089257Y-104195638D01*
X131102181Y-104291761D01*
X131098546Y-104367286D01*
X131087641Y-104429079D01*
X131055331Y-104519548D01*
X131220113Y-104559935D01*
X131237884Y-104513893D01*
X131254847Y-104446850D01*
X131266963Y-104369305D01*
X131271809Y-104290145D01*
X131265751Y-104197658D01*
X131247577Y-104117286D01*
X131218498Y-104049031D01*
X131179725Y-103992892D01*
X131077141Y-103918578D01*
X130948708Y-103894346D01*
X130855008Y-103905295D01*
X130776387Y-103938144D01*
X130712843Y-103992892D01*
X130664737Y-104069898D01*
X130632427Y-104169521D01*
X130615913Y-104291761D01*
X130523829Y-104283683D01*
X130415590Y-104275606D01*
X130415590Y-103931502D01*
X130250808Y-103931502D01*
X129958939Y-103931502D01*
X129958939Y-103020355D01*
X130250808Y-103020355D01*
X130250808Y-103228756D01*
X130334814Y-103243296D01*
X130431745Y-103261066D01*
X130536551Y-103281260D01*
X130644184Y-103303069D01*
X130752423Y-103326494D01*
X130859047Y-103351535D01*
X130959006Y-103377383D01*
X131047254Y-103403231D01*
X130957795Y-103429281D01*
X130857431Y-103455735D01*
X130750808Y-103481583D01*
X130642569Y-103505816D01*
X130535137Y-103528231D01*
X130430937Y-103548627D01*
X130334612Y-103565590D01*
X130250808Y-103577706D01*
X130250808Y-103787722D01*
X130341276Y-103769144D01*
X130454362Y-103742488D01*
X130538997Y-103721127D01*
X130627042Y-103697972D01*
X130718498Y-103673021D01*
X130811748Y-103646634D01*
X130905179Y-103619171D01*
X130998788Y-103590630D01*
X131132068Y-103548223D01*
X131250808Y-103508239D01*
X131250808Y-103303069D01*
X131164737Y-103272195D01*
X131076692Y-103242039D01*
X130986672Y-103212601D01*
X130896204Y-103184330D01*
X130806812Y-103157674D01*
X130718498Y-103132633D01*
X130589863Y-103098304D01*
X130467286Y-103068013D01*
X130353393Y-103041963D01*
X130250808Y-103020355D01*
X129958939Y-103020355D01*
X129958939Y-102597092D01*
X130228191Y-102597092D01*
X130242551Y-102699587D01*
X130285631Y-102785209D01*
X130357431Y-102853958D01*
X130430331Y-102893538D01*
X130519790Y-102921809D01*
X130625808Y-102938772D01*
X130748384Y-102944426D01*
X130872375Y-102938873D01*
X130979402Y-102922213D01*
X131069467Y-102894447D01*
X131142569Y-102855574D01*
X131214369Y-102787363D01*
X131257449Y-102701203D01*
X131271809Y-102597092D01*
X131257449Y-102492982D01*
X131214369Y-102406821D01*
X131142569Y-102338611D01*
X131069467Y-102299737D01*
X130979402Y-102271971D01*
X130872375Y-102255311D01*
X130748384Y-102249758D01*
X130625151Y-102255311D01*
X130518780Y-102271971D01*
X130429271Y-102299737D01*
X130356624Y-102338611D01*
X130285272Y-102406821D01*
X130242461Y-102492982D01*
X130228191Y-102597092D01*
X129958939Y-102597092D01*
X129958939Y-102249758D01*
X129958939Y-102249623D01*
X129962748Y-102172086D01*
X129974139Y-102095295D01*
X129993002Y-102019990D01*
X130019155Y-101946897D01*
X130052347Y-101876720D01*
X130092257Y-101810133D01*
X130138502Y-101747779D01*
X130190636Y-101690259D01*
X130248156Y-101638125D01*
X130310510Y-101591880D01*
X130377096Y-101551970D01*
X130447274Y-101518778D01*
X130520367Y-101492625D01*
X130595672Y-101473762D01*
X130672462Y-101462371D01*
X130750000Y-101458562D01*
X130827538Y-101462371D01*
X130904328Y-101473762D01*
X130979633Y-101492625D01*
X131052726Y-101518778D01*
X131122904Y-101551970D01*
X131189490Y-101591880D01*
X131251844Y-101638125D01*
X131309364Y-101690259D01*
X131361498Y-101747779D01*
X131407743Y-101810133D01*
X131447653Y-101876720D01*
X131480845Y-101946897D01*
X131506998Y-102019990D01*
X131525861Y-102095295D01*
X131537252Y-102172086D01*
X131541061Y-102249623D01*
X131541061Y-102249758D01*
X131541061Y-102597092D01*
X131541061Y-103508239D01*
G37*
D14*
%TO.C,U400*%
X104965000Y-109740000D02*
X105665000Y-109740000D01*
X104965000Y-110440000D02*
X104965000Y-109740000D01*
X104965000Y-123260000D02*
X104965000Y-123960000D01*
X104965000Y-123960000D02*
X105665000Y-123960000D01*
X119185000Y-109740000D02*
X118485000Y-109740000D01*
X119185000Y-110440000D02*
X119185000Y-109740000D01*
X119185000Y-123260000D02*
X119185000Y-123960000D01*
X119185000Y-123960000D02*
X118485000Y-123960000D01*
X118955000Y-109452500D02*
X118485000Y-109112500D01*
X118955000Y-108772500D01*
X118955000Y-109452500D01*
G36*
X118955000Y-109452500D02*
G01*
X118485000Y-109112500D01*
X118955000Y-108772500D01*
X118955000Y-109452500D01*
G37*
D15*
%TO.C,REF\u002A\u002A*%
X134300807Y-65101783D02*
X134324161Y-65111989D01*
X134379902Y-65156135D01*
X134427569Y-65219968D01*
X134457048Y-65288088D01*
X134461846Y-65321671D01*
X134445760Y-65368557D01*
X134410475Y-65393366D01*
X134372644Y-65408388D01*
X134355321Y-65411156D01*
X134346886Y-65391067D01*
X134330230Y-65347352D01*
X134322923Y-65327599D01*
X134281948Y-65259272D01*
X134222622Y-65225192D01*
X134146552Y-65226240D01*
X134140918Y-65227582D01*
X134100305Y-65246837D01*
X134070448Y-65284376D01*
X134050055Y-65344810D01*
X134037836Y-65432752D01*
X134032500Y-65552814D01*
X134032000Y-65616699D01*
X134031752Y-65717404D01*
X134030126Y-65786055D01*
X134025801Y-65829674D01*
X134017454Y-65855283D01*
X134003765Y-65869904D01*
X133983411Y-65880559D01*
X133982234Y-65881096D01*
X133943038Y-65897668D01*
X133923619Y-65903770D01*
X133920635Y-65885320D01*
X133918081Y-65834324D01*
X133916140Y-65757309D01*
X133914997Y-65660806D01*
X133914769Y-65590185D01*
X133915932Y-65453526D01*
X133920479Y-65349852D01*
X133929999Y-65273109D01*
X133946081Y-65217247D01*
X133970313Y-65176213D01*
X134004286Y-65143955D01*
X134037833Y-65121441D01*
X134118499Y-65091477D01*
X134212381Y-65084719D01*
X134300807Y-65101783D01*
G36*
X134300807Y-65101783D02*
G01*
X134324161Y-65111989D01*
X134379902Y-65156135D01*
X134427569Y-65219968D01*
X134457048Y-65288088D01*
X134461846Y-65321671D01*
X134445760Y-65368557D01*
X134410475Y-65393366D01*
X134372644Y-65408388D01*
X134355321Y-65411156D01*
X134346886Y-65391067D01*
X134330230Y-65347352D01*
X134322923Y-65327599D01*
X134281948Y-65259272D01*
X134222622Y-65225192D01*
X134146552Y-65226240D01*
X134140918Y-65227582D01*
X134100305Y-65246837D01*
X134070448Y-65284376D01*
X134050055Y-65344810D01*
X134037836Y-65432752D01*
X134032500Y-65552814D01*
X134032000Y-65616699D01*
X134031752Y-65717404D01*
X134030126Y-65786055D01*
X134025801Y-65829674D01*
X134017454Y-65855283D01*
X134003765Y-65869904D01*
X133983411Y-65880559D01*
X133982234Y-65881096D01*
X133943038Y-65897668D01*
X133923619Y-65903770D01*
X133920635Y-65885320D01*
X133918081Y-65834324D01*
X133916140Y-65757309D01*
X133914997Y-65660806D01*
X133914769Y-65590185D01*
X133915932Y-65453526D01*
X133920479Y-65349852D01*
X133929999Y-65273109D01*
X133946081Y-65217247D01*
X133970313Y-65176213D01*
X134004286Y-65143955D01*
X134037833Y-65121441D01*
X134118499Y-65091477D01*
X134212381Y-65084719D01*
X134300807Y-65101783D01*
G37*
X129001664Y-65060090D02*
X129064367Y-65096359D01*
X129107961Y-65132359D01*
X129139845Y-65170076D01*
X129161810Y-65216200D01*
X129175649Y-65277422D01*
X129183153Y-65360432D01*
X129186117Y-65471920D01*
X129186461Y-65552063D01*
X129186461Y-65847066D01*
X129020385Y-65921516D01*
X129010615Y-65598403D01*
X129006579Y-65477730D01*
X129002344Y-65390142D01*
X128997097Y-65329651D01*
X128990025Y-65290269D01*
X128980311Y-65266008D01*
X128967144Y-65250881D01*
X128962919Y-65247607D01*
X128898909Y-65222035D01*
X128834208Y-65232154D01*
X128795692Y-65259001D01*
X128780025Y-65278025D01*
X128769180Y-65302989D01*
X128762288Y-65340835D01*
X128758479Y-65398503D01*
X128756883Y-65482936D01*
X128756615Y-65570929D01*
X128756563Y-65681324D01*
X128754672Y-65759464D01*
X128748345Y-65812166D01*
X128734983Y-65846243D01*
X128711985Y-65868512D01*
X128676754Y-65885788D01*
X128629697Y-65903739D01*
X128578303Y-65923279D01*
X128584421Y-65576486D01*
X128586884Y-65451469D01*
X128589767Y-65359083D01*
X128593898Y-65292882D01*
X128600107Y-65246421D01*
X128609226Y-65213257D01*
X128622083Y-65186945D01*
X128637584Y-65163730D01*
X128712371Y-65089570D01*
X128803628Y-65046685D01*
X128902883Y-65036413D01*
X129001664Y-65060090D01*
G36*
X129001664Y-65060090D02*
G01*
X129064367Y-65096359D01*
X129107961Y-65132359D01*
X129139845Y-65170076D01*
X129161810Y-65216200D01*
X129175649Y-65277422D01*
X129183153Y-65360432D01*
X129186117Y-65471920D01*
X129186461Y-65552063D01*
X129186461Y-65847066D01*
X129020385Y-65921516D01*
X129010615Y-65598403D01*
X129006579Y-65477730D01*
X129002344Y-65390142D01*
X128997097Y-65329651D01*
X128990025Y-65290269D01*
X128980311Y-65266008D01*
X128967144Y-65250881D01*
X128962919Y-65247607D01*
X128898909Y-65222035D01*
X128834208Y-65232154D01*
X128795692Y-65259001D01*
X128780025Y-65278025D01*
X128769180Y-65302989D01*
X128762288Y-65340835D01*
X128758479Y-65398503D01*
X128756883Y-65482936D01*
X128756615Y-65570929D01*
X128756563Y-65681324D01*
X128754672Y-65759464D01*
X128748345Y-65812166D01*
X128734983Y-65846243D01*
X128711985Y-65868512D01*
X128676754Y-65885788D01*
X128629697Y-65903739D01*
X128578303Y-65923279D01*
X128584421Y-65576486D01*
X128586884Y-65451469D01*
X128589767Y-65359083D01*
X128593898Y-65292882D01*
X128600107Y-65246421D01*
X128609226Y-65213257D01*
X128622083Y-65186945D01*
X128637584Y-65163730D01*
X128712371Y-65089570D01*
X128803628Y-65046685D01*
X128902883Y-65036413D01*
X129001664Y-65060090D01*
G37*
X131443362Y-65089671D02*
X131532117Y-65122422D01*
X131604022Y-65180351D01*
X131632144Y-65221129D01*
X131662802Y-65295955D01*
X131662165Y-65350059D01*
X131629987Y-65386447D01*
X131618081Y-65392634D01*
X131566675Y-65411926D01*
X131540422Y-65406983D01*
X131531530Y-65374588D01*
X131531077Y-65356693D01*
X131514797Y-65290860D01*
X131472365Y-65244808D01*
X131413388Y-65222565D01*
X131347475Y-65228162D01*
X131293895Y-65257230D01*
X131275798Y-65273811D01*
X131262971Y-65293926D01*
X131254306Y-65324333D01*
X131248696Y-65371789D01*
X131245035Y-65443051D01*
X131242215Y-65544876D01*
X131241484Y-65577116D01*
X131238820Y-65687411D01*
X131235792Y-65765037D01*
X131231250Y-65816397D01*
X131224046Y-65847891D01*
X131213033Y-65865921D01*
X131197060Y-65876889D01*
X131186834Y-65881734D01*
X131143406Y-65898302D01*
X131117842Y-65903770D01*
X131109395Y-65885508D01*
X131104239Y-65830297D01*
X131102346Y-65737500D01*
X131103689Y-65606479D01*
X131104107Y-65586270D01*
X131107058Y-65466734D01*
X131110548Y-65379450D01*
X131115514Y-65317592D01*
X131122893Y-65274337D01*
X131133624Y-65242861D01*
X131148645Y-65216340D01*
X131156502Y-65204976D01*
X131201553Y-65154693D01*
X131251940Y-65115582D01*
X131258108Y-65112168D01*
X131348458Y-65085213D01*
X131443362Y-65089671D01*
G36*
X131443362Y-65089671D02*
G01*
X131532117Y-65122422D01*
X131604022Y-65180351D01*
X131632144Y-65221129D01*
X131662802Y-65295955D01*
X131662165Y-65350059D01*
X131629987Y-65386447D01*
X131618081Y-65392634D01*
X131566675Y-65411926D01*
X131540422Y-65406983D01*
X131531530Y-65374588D01*
X131531077Y-65356693D01*
X131514797Y-65290860D01*
X131472365Y-65244808D01*
X131413388Y-65222565D01*
X131347475Y-65228162D01*
X131293895Y-65257230D01*
X131275798Y-65273811D01*
X131262971Y-65293926D01*
X131254306Y-65324333D01*
X131248696Y-65371789D01*
X131245035Y-65443051D01*
X131242215Y-65544876D01*
X131241484Y-65577116D01*
X131238820Y-65687411D01*
X131235792Y-65765037D01*
X131231250Y-65816397D01*
X131224046Y-65847891D01*
X131213033Y-65865921D01*
X131197060Y-65876889D01*
X131186834Y-65881734D01*
X131143406Y-65898302D01*
X131117842Y-65903770D01*
X131109395Y-65885508D01*
X131104239Y-65830297D01*
X131102346Y-65737500D01*
X131103689Y-65606479D01*
X131104107Y-65586270D01*
X131107058Y-65466734D01*
X131110548Y-65379450D01*
X131115514Y-65317592D01*
X131122893Y-65274337D01*
X131133624Y-65242861D01*
X131148645Y-65216340D01*
X131156502Y-65204976D01*
X131201553Y-65154693D01*
X131251940Y-65115582D01*
X131258108Y-65112168D01*
X131348458Y-65085213D01*
X131443362Y-65089671D01*
G37*
X129889846Y-64957121D02*
X129895572Y-65036981D01*
X129902149Y-65084040D01*
X129911262Y-65104567D01*
X129924598Y-65104830D01*
X129928923Y-65102379D01*
X129986444Y-65084637D01*
X130061268Y-65085673D01*
X130137339Y-65103911D01*
X130184918Y-65127506D01*
X130233702Y-65165199D01*
X130269364Y-65207856D01*
X130293845Y-65262058D01*
X130309087Y-65334385D01*
X130317030Y-65431420D01*
X130319616Y-65559743D01*
X130319662Y-65584359D01*
X130319692Y-65860871D01*
X130258161Y-65882321D01*
X130214459Y-65896913D01*
X130190482Y-65903707D01*
X130189777Y-65903770D01*
X130187415Y-65885346D01*
X130185406Y-65834527D01*
X130183901Y-65757994D01*
X130183053Y-65662431D01*
X130182923Y-65604330D01*
X130182651Y-65489772D01*
X130181252Y-65407668D01*
X130177849Y-65351394D01*
X130171567Y-65314327D01*
X130161529Y-65289845D01*
X130146861Y-65271326D01*
X130137702Y-65262407D01*
X130074789Y-65226467D01*
X130006136Y-65223776D01*
X129943848Y-65254171D01*
X129932329Y-65265145D01*
X129915433Y-65285780D01*
X129903714Y-65310257D01*
X129896233Y-65345648D01*
X129892054Y-65399027D01*
X129890237Y-65477467D01*
X129889846Y-65585618D01*
X129889846Y-65860871D01*
X129828315Y-65882321D01*
X129784613Y-65896913D01*
X129760636Y-65903707D01*
X129759930Y-65903770D01*
X129758126Y-65885070D01*
X129756500Y-65832323D01*
X129755117Y-65750558D01*
X129754042Y-65644806D01*
X129753340Y-65520095D01*
X129753077Y-65381456D01*
X129753077Y-64846807D01*
X129880077Y-64793237D01*
X129889846Y-64957121D01*
G36*
X129889846Y-64957121D02*
G01*
X129895572Y-65036981D01*
X129902149Y-65084040D01*
X129911262Y-65104567D01*
X129924598Y-65104830D01*
X129928923Y-65102379D01*
X129986444Y-65084637D01*
X130061268Y-65085673D01*
X130137339Y-65103911D01*
X130184918Y-65127506D01*
X130233702Y-65165199D01*
X130269364Y-65207856D01*
X130293845Y-65262058D01*
X130309087Y-65334385D01*
X130317030Y-65431420D01*
X130319616Y-65559743D01*
X130319662Y-65584359D01*
X130319692Y-65860871D01*
X130258161Y-65882321D01*
X130214459Y-65896913D01*
X130190482Y-65903707D01*
X130189777Y-65903770D01*
X130187415Y-65885346D01*
X130185406Y-65834527D01*
X130183901Y-65757994D01*
X130183053Y-65662431D01*
X130182923Y-65604330D01*
X130182651Y-65489772D01*
X130181252Y-65407668D01*
X130177849Y-65351394D01*
X130171567Y-65314327D01*
X130161529Y-65289845D01*
X130146861Y-65271326D01*
X130137702Y-65262407D01*
X130074789Y-65226467D01*
X130006136Y-65223776D01*
X129943848Y-65254171D01*
X129932329Y-65265145D01*
X129915433Y-65285780D01*
X129903714Y-65310257D01*
X129896233Y-65345648D01*
X129892054Y-65399027D01*
X129890237Y-65477467D01*
X129889846Y-65585618D01*
X129889846Y-65860871D01*
X129828315Y-65882321D01*
X129784613Y-65896913D01*
X129760636Y-65903707D01*
X129759930Y-65903770D01*
X129758126Y-65885070D01*
X129756500Y-65832323D01*
X129755117Y-65750558D01*
X129754042Y-65644806D01*
X129753340Y-65520095D01*
X129753077Y-65381456D01*
X129753077Y-64846807D01*
X129880077Y-64793237D01*
X129889846Y-64957121D01*
G37*
X133125929Y-65101663D02*
X133128911Y-65153069D01*
X133131247Y-65231193D01*
X133132749Y-65329858D01*
X133133231Y-65433344D01*
X133133231Y-65783534D01*
X133071401Y-65845364D01*
X133028793Y-65883463D01*
X132991390Y-65898896D01*
X132940270Y-65897919D01*
X132919978Y-65895434D01*
X132856554Y-65888201D01*
X132804095Y-65884056D01*
X132791308Y-65883673D01*
X132748199Y-65886177D01*
X132686544Y-65892463D01*
X132662638Y-65895434D01*
X132603922Y-65900029D01*
X132564464Y-65890047D01*
X132525338Y-65859229D01*
X132511215Y-65845364D01*
X132449385Y-65783534D01*
X132449385Y-65128504D01*
X132499150Y-65105830D01*
X132542002Y-65089035D01*
X132567073Y-65083155D01*
X132573501Y-65101737D01*
X132579509Y-65153656D01*
X132584697Y-65233173D01*
X132588664Y-65334547D01*
X132590577Y-65420193D01*
X132595923Y-65757232D01*
X132642560Y-65763826D01*
X132684976Y-65759215D01*
X132705760Y-65744288D01*
X132711570Y-65716378D01*
X132716530Y-65656926D01*
X132720246Y-65573467D01*
X132722324Y-65473533D01*
X132722624Y-65422105D01*
X132722923Y-65126055D01*
X132784454Y-65104605D01*
X132828004Y-65090021D01*
X132851694Y-65083220D01*
X132852377Y-65083155D01*
X132854754Y-65101643D01*
X132857366Y-65152907D01*
X132859995Y-65230650D01*
X132862421Y-65328575D01*
X132864115Y-65420193D01*
X132869461Y-65757232D01*
X132986692Y-65757232D01*
X132992072Y-65449747D01*
X132997451Y-65142262D01*
X133054601Y-65112708D01*
X133096797Y-65092414D01*
X133121770Y-65083205D01*
X133122491Y-65083155D01*
X133125929Y-65101663D01*
G36*
X133125929Y-65101663D02*
G01*
X133128911Y-65153069D01*
X133131247Y-65231193D01*
X133132749Y-65329858D01*
X133133231Y-65433344D01*
X133133231Y-65783534D01*
X133071401Y-65845364D01*
X133028793Y-65883463D01*
X132991390Y-65898896D01*
X132940270Y-65897919D01*
X132919978Y-65895434D01*
X132856554Y-65888201D01*
X132804095Y-65884056D01*
X132791308Y-65883673D01*
X132748199Y-65886177D01*
X132686544Y-65892463D01*
X132662638Y-65895434D01*
X132603922Y-65900029D01*
X132564464Y-65890047D01*
X132525338Y-65859229D01*
X132511215Y-65845364D01*
X132449385Y-65783534D01*
X132449385Y-65128504D01*
X132499150Y-65105830D01*
X132542002Y-65089035D01*
X132567073Y-65083155D01*
X132573501Y-65101737D01*
X132579509Y-65153656D01*
X132584697Y-65233173D01*
X132588664Y-65334547D01*
X132590577Y-65420193D01*
X132595923Y-65757232D01*
X132642560Y-65763826D01*
X132684976Y-65759215D01*
X132705760Y-65744288D01*
X132711570Y-65716378D01*
X132716530Y-65656926D01*
X132720246Y-65573467D01*
X132722324Y-65473533D01*
X132722624Y-65422105D01*
X132722923Y-65126055D01*
X132784454Y-65104605D01*
X132828004Y-65090021D01*
X132851694Y-65083220D01*
X132852377Y-65083155D01*
X132854754Y-65101643D01*
X132857366Y-65152907D01*
X132859995Y-65230650D01*
X132862421Y-65328575D01*
X132864115Y-65420193D01*
X132869461Y-65757232D01*
X132986692Y-65757232D01*
X132992072Y-65449747D01*
X132997451Y-65142262D01*
X133054601Y-65112708D01*
X133096797Y-65092414D01*
X133121770Y-65083205D01*
X133122491Y-65083155D01*
X133125929Y-65101663D01*
G37*
X126746886Y-65052257D02*
X126838464Y-65100410D01*
X126906049Y-65177906D01*
X126930057Y-65227728D01*
X126948738Y-65302534D01*
X126958301Y-65397053D01*
X126959208Y-65500211D01*
X126951921Y-65600936D01*
X126936903Y-65688154D01*
X126914615Y-65750792D01*
X126907765Y-65761580D01*
X126826632Y-65842106D01*
X126730266Y-65890337D01*
X126625701Y-65904451D01*
X126519968Y-65882630D01*
X126490543Y-65869548D01*
X126433241Y-65829232D01*
X126382950Y-65775776D01*
X126378197Y-65768996D01*
X126358878Y-65736322D01*
X126346108Y-65701395D01*
X126338564Y-65655415D01*
X126334924Y-65589585D01*
X126333865Y-65495106D01*
X126333846Y-65473924D01*
X126333894Y-65467183D01*
X126529231Y-65467183D01*
X126530368Y-65556350D01*
X126534841Y-65615521D01*
X126544246Y-65653742D01*
X126560176Y-65680054D01*
X126568308Y-65688847D01*
X126615058Y-65722262D01*
X126660447Y-65720738D01*
X126706340Y-65691753D01*
X126733712Y-65660810D01*
X126749923Y-65615644D01*
X126759026Y-65544421D01*
X126759651Y-65536115D01*
X126761204Y-65407038D01*
X126744965Y-65311173D01*
X126711152Y-65249108D01*
X126659984Y-65221433D01*
X126641720Y-65219924D01*
X126593760Y-65227514D01*
X126560953Y-65253809D01*
X126540895Y-65304096D01*
X126531178Y-65383665D01*
X126529231Y-65467183D01*
X126333894Y-65467183D01*
X126334574Y-65373250D01*
X126337629Y-65302907D01*
X126344322Y-65254164D01*
X126355960Y-65218289D01*
X126373853Y-65186549D01*
X126377808Y-65180649D01*
X126444267Y-65101105D01*
X126516685Y-65054930D01*
X126604849Y-65036600D01*
X126634787Y-65035704D01*
X126746886Y-65052257D01*
G36*
X126746886Y-65052257D02*
G01*
X126838464Y-65100410D01*
X126906049Y-65177906D01*
X126930057Y-65227728D01*
X126948738Y-65302534D01*
X126958301Y-65397053D01*
X126959208Y-65500211D01*
X126951921Y-65600936D01*
X126936903Y-65688154D01*
X126914615Y-65750792D01*
X126907765Y-65761580D01*
X126826632Y-65842106D01*
X126730266Y-65890337D01*
X126625701Y-65904451D01*
X126519968Y-65882630D01*
X126490543Y-65869548D01*
X126433241Y-65829232D01*
X126382950Y-65775776D01*
X126378197Y-65768996D01*
X126358878Y-65736322D01*
X126346108Y-65701395D01*
X126338564Y-65655415D01*
X126334924Y-65589585D01*
X126333865Y-65495106D01*
X126333846Y-65473924D01*
X126333894Y-65467183D01*
X126529231Y-65467183D01*
X126530368Y-65556350D01*
X126534841Y-65615521D01*
X126544246Y-65653742D01*
X126560176Y-65680054D01*
X126568308Y-65688847D01*
X126615058Y-65722262D01*
X126660447Y-65720738D01*
X126706340Y-65691753D01*
X126733712Y-65660810D01*
X126749923Y-65615644D01*
X126759026Y-65544421D01*
X126759651Y-65536115D01*
X126761204Y-65407038D01*
X126744965Y-65311173D01*
X126711152Y-65249108D01*
X126659984Y-65221433D01*
X126641720Y-65219924D01*
X126593760Y-65227514D01*
X126560953Y-65253809D01*
X126540895Y-65304096D01*
X126531178Y-65383665D01*
X126529231Y-65467183D01*
X126333894Y-65467183D01*
X126334574Y-65373250D01*
X126337629Y-65302907D01*
X126344322Y-65254164D01*
X126355960Y-65218289D01*
X126373853Y-65186549D01*
X126377808Y-65180649D01*
X126444267Y-65101105D01*
X126516685Y-65054930D01*
X126604849Y-65036600D01*
X126634787Y-65035704D01*
X126746886Y-65052257D01*
G37*
X134975224Y-65112839D02*
X135052528Y-65163362D01*
X135089814Y-65208591D01*
X135119353Y-65290664D01*
X135121699Y-65355608D01*
X135116385Y-65442446D01*
X134916115Y-65530104D01*
X134818739Y-65574888D01*
X134755113Y-65610914D01*
X134722029Y-65642118D01*
X134716280Y-65672437D01*
X134734658Y-65705806D01*
X134754923Y-65727924D01*
X134813889Y-65763394D01*
X134878024Y-65765880D01*
X134936926Y-65738236D01*
X134980197Y-65683321D01*
X134987936Y-65663929D01*
X135025006Y-65603365D01*
X135067654Y-65577553D01*
X135126154Y-65555472D01*
X135126154Y-65639185D01*
X135120982Y-65696151D01*
X135100723Y-65744190D01*
X135058262Y-65799347D01*
X135051951Y-65806515D01*
X135004720Y-65855586D01*
X134964121Y-65881921D01*
X134913328Y-65894036D01*
X134871220Y-65898004D01*
X134795902Y-65898992D01*
X134742286Y-65886467D01*
X134708838Y-65867870D01*
X134656268Y-65826976D01*
X134619879Y-65782749D01*
X134596850Y-65727127D01*
X134584359Y-65652048D01*
X134579587Y-65549450D01*
X134579206Y-65497377D01*
X134580501Y-65434949D01*
X134698471Y-65434949D01*
X134699839Y-65468439D01*
X134703249Y-65473924D01*
X134725753Y-65466473D01*
X134774182Y-65446754D01*
X134838908Y-65418719D01*
X134852443Y-65412693D01*
X134934244Y-65371097D01*
X134979312Y-65334539D01*
X134989217Y-65300297D01*
X134965526Y-65265649D01*
X134945960Y-65250340D01*
X134875360Y-65219722D01*
X134809280Y-65224781D01*
X134753959Y-65262152D01*
X134715636Y-65328474D01*
X134703349Y-65381117D01*
X134698471Y-65434949D01*
X134580501Y-65434949D01*
X134581730Y-65375721D01*
X134591032Y-65285711D01*
X134609460Y-65220168D01*
X134639360Y-65171913D01*
X134683080Y-65133768D01*
X134702141Y-65121441D01*
X134788726Y-65089337D01*
X134883522Y-65087317D01*
X134975224Y-65112839D01*
G36*
X134975224Y-65112839D02*
G01*
X135052528Y-65163362D01*
X135089814Y-65208591D01*
X135119353Y-65290664D01*
X135121699Y-65355608D01*
X135116385Y-65442446D01*
X134916115Y-65530104D01*
X134818739Y-65574888D01*
X134755113Y-65610914D01*
X134722029Y-65642118D01*
X134716280Y-65672437D01*
X134734658Y-65705806D01*
X134754923Y-65727924D01*
X134813889Y-65763394D01*
X134878024Y-65765880D01*
X134936926Y-65738236D01*
X134980197Y-65683321D01*
X134987936Y-65663929D01*
X135025006Y-65603365D01*
X135067654Y-65577553D01*
X135126154Y-65555472D01*
X135126154Y-65639185D01*
X135120982Y-65696151D01*
X135100723Y-65744190D01*
X135058262Y-65799347D01*
X135051951Y-65806515D01*
X135004720Y-65855586D01*
X134964121Y-65881921D01*
X134913328Y-65894036D01*
X134871220Y-65898004D01*
X134795902Y-65898992D01*
X134742286Y-65886467D01*
X134708838Y-65867870D01*
X134656268Y-65826976D01*
X134619879Y-65782749D01*
X134596850Y-65727127D01*
X134584359Y-65652048D01*
X134579587Y-65549450D01*
X134579206Y-65497377D01*
X134580501Y-65434949D01*
X134698471Y-65434949D01*
X134699839Y-65468439D01*
X134703249Y-65473924D01*
X134725753Y-65466473D01*
X134774182Y-65446754D01*
X134838908Y-65418719D01*
X134852443Y-65412693D01*
X134934244Y-65371097D01*
X134979312Y-65334539D01*
X134989217Y-65300297D01*
X134965526Y-65265649D01*
X134945960Y-65250340D01*
X134875360Y-65219722D01*
X134809280Y-65224781D01*
X134753959Y-65262152D01*
X134715636Y-65328474D01*
X134703349Y-65381117D01*
X134698471Y-65434949D01*
X134580501Y-65434949D01*
X134581730Y-65375721D01*
X134591032Y-65285711D01*
X134609460Y-65220168D01*
X134639360Y-65171913D01*
X134683080Y-65133768D01*
X134702141Y-65121441D01*
X134788726Y-65089337D01*
X134883522Y-65087317D01*
X134975224Y-65112839D01*
G37*
X132332081Y-65245290D02*
X132331833Y-65391321D01*
X132330872Y-65503656D01*
X132328794Y-65587679D01*
X132325193Y-65648770D01*
X132319665Y-65692310D01*
X132311804Y-65723680D01*
X132301207Y-65748263D01*
X132293182Y-65762295D01*
X132226728Y-65838389D01*
X132142470Y-65886085D01*
X132049249Y-65903200D01*
X131955900Y-65887547D01*
X131900312Y-65859419D01*
X131841957Y-65810761D01*
X131802186Y-65751334D01*
X131778190Y-65673508D01*
X131767161Y-65569653D01*
X131765599Y-65493463D01*
X131765809Y-65487987D01*
X131902308Y-65487987D01*
X131903141Y-65575356D01*
X131906961Y-65633193D01*
X131915746Y-65671030D01*
X131931474Y-65698399D01*
X131950266Y-65719043D01*
X132013375Y-65758891D01*
X132081137Y-65762296D01*
X132145179Y-65729026D01*
X132150164Y-65724518D01*
X132171439Y-65701068D01*
X132184779Y-65673167D01*
X132192001Y-65631642D01*
X132194923Y-65567317D01*
X132195385Y-65496201D01*
X132194383Y-65406859D01*
X132190238Y-65347259D01*
X132181236Y-65308090D01*
X132165667Y-65280041D01*
X132152902Y-65265145D01*
X132093600Y-65227576D01*
X132025301Y-65223058D01*
X131960110Y-65251754D01*
X131947528Y-65262407D01*
X131926111Y-65286064D01*
X131912744Y-65314252D01*
X131905566Y-65356246D01*
X131902719Y-65421320D01*
X131902308Y-65487987D01*
X131765809Y-65487987D01*
X131770322Y-65370766D01*
X131786362Y-65278578D01*
X131816528Y-65209270D01*
X131863629Y-65155212D01*
X131900312Y-65127506D01*
X131966990Y-65097573D01*
X132044272Y-65083679D01*
X132116110Y-65087398D01*
X132156308Y-65102401D01*
X132172082Y-65106671D01*
X132182550Y-65090751D01*
X132189856Y-65048090D01*
X132195385Y-64983107D01*
X132201437Y-64910733D01*
X132209844Y-64867188D01*
X132225141Y-64842288D01*
X132251864Y-64825846D01*
X132268654Y-64818565D01*
X132332154Y-64791964D01*
X132332081Y-65245290D01*
G36*
X132332081Y-65245290D02*
G01*
X132331833Y-65391321D01*
X132330872Y-65503656D01*
X132328794Y-65587679D01*
X132325193Y-65648770D01*
X132319665Y-65692310D01*
X132311804Y-65723680D01*
X132301207Y-65748263D01*
X132293182Y-65762295D01*
X132226728Y-65838389D01*
X132142470Y-65886085D01*
X132049249Y-65903200D01*
X131955900Y-65887547D01*
X131900312Y-65859419D01*
X131841957Y-65810761D01*
X131802186Y-65751334D01*
X131778190Y-65673508D01*
X131767161Y-65569653D01*
X131765599Y-65493463D01*
X131765809Y-65487987D01*
X131902308Y-65487987D01*
X131903141Y-65575356D01*
X131906961Y-65633193D01*
X131915746Y-65671030D01*
X131931474Y-65698399D01*
X131950266Y-65719043D01*
X132013375Y-65758891D01*
X132081137Y-65762296D01*
X132145179Y-65729026D01*
X132150164Y-65724518D01*
X132171439Y-65701068D01*
X132184779Y-65673167D01*
X132192001Y-65631642D01*
X132194923Y-65567317D01*
X132195385Y-65496201D01*
X132194383Y-65406859D01*
X132190238Y-65347259D01*
X132181236Y-65308090D01*
X132165667Y-65280041D01*
X132152902Y-65265145D01*
X132093600Y-65227576D01*
X132025301Y-65223058D01*
X131960110Y-65251754D01*
X131947528Y-65262407D01*
X131926111Y-65286064D01*
X131912744Y-65314252D01*
X131905566Y-65356246D01*
X131902719Y-65421320D01*
X131902308Y-65487987D01*
X131765809Y-65487987D01*
X131770322Y-65370766D01*
X131786362Y-65278578D01*
X131816528Y-65209270D01*
X131863629Y-65155212D01*
X131900312Y-65127506D01*
X131966990Y-65097573D01*
X132044272Y-65083679D01*
X132116110Y-65087398D01*
X132156308Y-65102401D01*
X132172082Y-65106671D01*
X132182550Y-65090751D01*
X132189856Y-65048090D01*
X132195385Y-64983107D01*
X132201437Y-64910733D01*
X132209844Y-64867188D01*
X132225141Y-64842288D01*
X132251864Y-64825846D01*
X132268654Y-64818565D01*
X132332154Y-64791964D01*
X132332081Y-65245290D01*
G37*
X128264254Y-65064746D02*
X128341286Y-65116568D01*
X128400816Y-65191413D01*
X128436378Y-65286655D01*
X128443571Y-65356757D01*
X128442754Y-65386010D01*
X128435914Y-65408408D01*
X128417112Y-65428475D01*
X128380408Y-65450734D01*
X128319862Y-65479710D01*
X128229534Y-65519928D01*
X128229077Y-65520130D01*
X128145933Y-65558211D01*
X128077753Y-65592026D01*
X128031505Y-65617934D01*
X128014158Y-65632296D01*
X128014154Y-65632412D01*
X128029443Y-65663686D01*
X128065196Y-65698158D01*
X128106242Y-65722991D01*
X128127037Y-65727924D01*
X128183770Y-65710863D01*
X128232627Y-65668134D01*
X128256465Y-65621156D01*
X128279397Y-65586523D01*
X128324318Y-65547082D01*
X128377123Y-65513010D01*
X128423710Y-65494481D01*
X128433452Y-65493463D01*
X128444418Y-65510216D01*
X128445079Y-65553040D01*
X128437020Y-65610782D01*
X128421827Y-65672290D01*
X128401086Y-65726410D01*
X128400038Y-65728511D01*
X128337621Y-65815661D01*
X128256726Y-65874940D01*
X128164856Y-65904035D01*
X128069513Y-65900635D01*
X127978198Y-65862429D01*
X127974138Y-65859742D01*
X127902306Y-65794643D01*
X127855073Y-65709706D01*
X127828934Y-65598022D01*
X127825426Y-65566644D01*
X127819213Y-65418537D01*
X127826661Y-65349469D01*
X128014154Y-65349469D01*
X128016590Y-65392553D01*
X128029914Y-65405127D01*
X128063132Y-65395720D01*
X128115494Y-65373484D01*
X128174024Y-65345611D01*
X128175479Y-65344873D01*
X128225089Y-65318778D01*
X128245000Y-65301364D01*
X128240090Y-65283108D01*
X128219416Y-65259121D01*
X128166819Y-65224407D01*
X128110177Y-65221857D01*
X128059369Y-65247120D01*
X128024276Y-65295848D01*
X128014154Y-65349469D01*
X127826661Y-65349469D01*
X127831992Y-65300037D01*
X127864778Y-65206056D01*
X127910421Y-65140216D01*
X127992802Y-65073682D01*
X128083546Y-65040677D01*
X128176185Y-65038574D01*
X128264254Y-65064746D01*
G36*
X128264254Y-65064746D02*
G01*
X128341286Y-65116568D01*
X128400816Y-65191413D01*
X128436378Y-65286655D01*
X128443571Y-65356757D01*
X128442754Y-65386010D01*
X128435914Y-65408408D01*
X128417112Y-65428475D01*
X128380408Y-65450734D01*
X128319862Y-65479710D01*
X128229534Y-65519928D01*
X128229077Y-65520130D01*
X128145933Y-65558211D01*
X128077753Y-65592026D01*
X128031505Y-65617934D01*
X128014158Y-65632296D01*
X128014154Y-65632412D01*
X128029443Y-65663686D01*
X128065196Y-65698158D01*
X128106242Y-65722991D01*
X128127037Y-65727924D01*
X128183770Y-65710863D01*
X128232627Y-65668134D01*
X128256465Y-65621156D01*
X128279397Y-65586523D01*
X128324318Y-65547082D01*
X128377123Y-65513010D01*
X128423710Y-65494481D01*
X128433452Y-65493463D01*
X128444418Y-65510216D01*
X128445079Y-65553040D01*
X128437020Y-65610782D01*
X128421827Y-65672290D01*
X128401086Y-65726410D01*
X128400038Y-65728511D01*
X128337621Y-65815661D01*
X128256726Y-65874940D01*
X128164856Y-65904035D01*
X128069513Y-65900635D01*
X127978198Y-65862429D01*
X127974138Y-65859742D01*
X127902306Y-65794643D01*
X127855073Y-65709706D01*
X127828934Y-65598022D01*
X127825426Y-65566644D01*
X127819213Y-65418537D01*
X127826661Y-65349469D01*
X128014154Y-65349469D01*
X128016590Y-65392553D01*
X128029914Y-65405127D01*
X128063132Y-65395720D01*
X128115494Y-65373484D01*
X128174024Y-65345611D01*
X128175479Y-65344873D01*
X128225089Y-65318778D01*
X128245000Y-65301364D01*
X128240090Y-65283108D01*
X128219416Y-65259121D01*
X128166819Y-65224407D01*
X128110177Y-65221857D01*
X128059369Y-65247120D01*
X128024276Y-65295848D01*
X128014154Y-65349469D01*
X127826661Y-65349469D01*
X127831992Y-65300037D01*
X127864778Y-65206056D01*
X127910421Y-65140216D01*
X127992802Y-65073682D01*
X128083546Y-65040677D01*
X128176185Y-65038574D01*
X128264254Y-65064746D01*
G37*
X130783501Y-65091304D02*
X130860060Y-65119734D01*
X130860936Y-65120280D01*
X130908285Y-65155128D01*
X130943241Y-65195853D01*
X130967825Y-65248926D01*
X130984062Y-65320815D01*
X130993975Y-65417993D01*
X130999586Y-65546929D01*
X131000077Y-65565299D01*
X131007141Y-65842288D01*
X130947695Y-65873029D01*
X130904681Y-65893803D01*
X130878710Y-65903647D01*
X130877509Y-65903770D01*
X130873014Y-65885607D01*
X130869444Y-65836613D01*
X130867248Y-65765032D01*
X130866769Y-65707069D01*
X130866758Y-65613171D01*
X130862466Y-65554204D01*
X130847503Y-65526080D01*
X130815482Y-65524707D01*
X130760014Y-65545999D01*
X130676269Y-65585137D01*
X130614689Y-65617644D01*
X130583017Y-65645846D01*
X130573706Y-65676583D01*
X130573692Y-65678105D01*
X130589057Y-65731055D01*
X130634547Y-65759661D01*
X130704166Y-65763804D01*
X130754313Y-65763085D01*
X130780754Y-65777528D01*
X130797243Y-65812219D01*
X130806733Y-65856417D01*
X130793057Y-65881494D01*
X130787907Y-65885083D01*
X130739425Y-65899497D01*
X130671531Y-65901538D01*
X130601612Y-65891984D01*
X130552068Y-65874523D01*
X130483570Y-65816365D01*
X130444634Y-65735409D01*
X130436923Y-65672161D01*
X130442807Y-65615112D01*
X130464101Y-65568543D01*
X130506265Y-65527182D01*
X130574759Y-65485756D01*
X130675044Y-65438994D01*
X130681154Y-65436351D01*
X130771490Y-65394618D01*
X130827235Y-65360392D01*
X130851129Y-65329636D01*
X130845913Y-65298312D01*
X130814328Y-65262384D01*
X130804883Y-65254117D01*
X130741617Y-65222059D01*
X130676064Y-65223408D01*
X130618972Y-65254839D01*
X130581093Y-65313025D01*
X130577574Y-65324447D01*
X130543300Y-65379838D01*
X130499809Y-65406519D01*
X130436923Y-65432961D01*
X130436923Y-65364549D01*
X130456052Y-65265111D01*
X130512831Y-65173903D01*
X130542378Y-65143390D01*
X130609542Y-65104229D01*
X130694956Y-65086501D01*
X130783501Y-65091304D01*
G36*
X130783501Y-65091304D02*
G01*
X130860060Y-65119734D01*
X130860936Y-65120280D01*
X130908285Y-65155128D01*
X130943241Y-65195853D01*
X130967825Y-65248926D01*
X130984062Y-65320815D01*
X130993975Y-65417993D01*
X130999586Y-65546929D01*
X131000077Y-65565299D01*
X131007141Y-65842288D01*
X130947695Y-65873029D01*
X130904681Y-65893803D01*
X130878710Y-65903647D01*
X130877509Y-65903770D01*
X130873014Y-65885607D01*
X130869444Y-65836613D01*
X130867248Y-65765032D01*
X130866769Y-65707069D01*
X130866758Y-65613171D01*
X130862466Y-65554204D01*
X130847503Y-65526080D01*
X130815482Y-65524707D01*
X130760014Y-65545999D01*
X130676269Y-65585137D01*
X130614689Y-65617644D01*
X130583017Y-65645846D01*
X130573706Y-65676583D01*
X130573692Y-65678105D01*
X130589057Y-65731055D01*
X130634547Y-65759661D01*
X130704166Y-65763804D01*
X130754313Y-65763085D01*
X130780754Y-65777528D01*
X130797243Y-65812219D01*
X130806733Y-65856417D01*
X130793057Y-65881494D01*
X130787907Y-65885083D01*
X130739425Y-65899497D01*
X130671531Y-65901538D01*
X130601612Y-65891984D01*
X130552068Y-65874523D01*
X130483570Y-65816365D01*
X130444634Y-65735409D01*
X130436923Y-65672161D01*
X130442807Y-65615112D01*
X130464101Y-65568543D01*
X130506265Y-65527182D01*
X130574759Y-65485756D01*
X130675044Y-65438994D01*
X130681154Y-65436351D01*
X130771490Y-65394618D01*
X130827235Y-65360392D01*
X130851129Y-65329636D01*
X130845913Y-65298312D01*
X130814328Y-65262384D01*
X130804883Y-65254117D01*
X130741617Y-65222059D01*
X130676064Y-65223408D01*
X130618972Y-65254839D01*
X130581093Y-65313025D01*
X130577574Y-65324447D01*
X130543300Y-65379838D01*
X130499809Y-65406519D01*
X130436923Y-65432961D01*
X130436923Y-65364549D01*
X130456052Y-65265111D01*
X130512831Y-65173903D01*
X130542378Y-65143390D01*
X130609542Y-65104229D01*
X130694956Y-65086501D01*
X130783501Y-65091304D01*
G37*
X127498886Y-65049506D02*
X127573539Y-65086728D01*
X127639431Y-65155262D01*
X127657577Y-65180649D01*
X127677345Y-65213867D01*
X127690172Y-65249946D01*
X127697510Y-65298099D01*
X127700813Y-65367537D01*
X127701538Y-65459207D01*
X127698263Y-65584831D01*
X127686877Y-65679155D01*
X127665041Y-65749524D01*
X127630419Y-65803287D01*
X127580670Y-65847789D01*
X127577014Y-65850424D01*
X127527985Y-65877378D01*
X127468945Y-65890713D01*
X127393859Y-65894001D01*
X127271795Y-65894001D01*
X127271744Y-66012498D01*
X127270608Y-66078493D01*
X127263686Y-66117203D01*
X127245598Y-66140420D01*
X127210962Y-66159934D01*
X127202645Y-66163921D01*
X127163720Y-66182604D01*
X127133583Y-66194404D01*
X127111174Y-66195423D01*
X127095433Y-66181762D01*
X127085302Y-66149523D01*
X127079723Y-66094805D01*
X127077635Y-66013712D01*
X127077981Y-65902345D01*
X127079700Y-65756803D01*
X127080237Y-65713270D01*
X127082172Y-65563206D01*
X127083904Y-65465043D01*
X127271692Y-65465043D01*
X127272748Y-65548365D01*
X127277438Y-65602881D01*
X127288051Y-65638838D01*
X127306872Y-65666483D01*
X127319650Y-65679966D01*
X127371890Y-65719418D01*
X127418142Y-65722629D01*
X127465867Y-65690050D01*
X127467077Y-65688847D01*
X127486494Y-65663669D01*
X127498307Y-65629448D01*
X127504265Y-65576749D01*
X127506120Y-65496132D01*
X127506154Y-65478272D01*
X127501670Y-65367176D01*
X127487074Y-65290162D01*
X127460650Y-65243148D01*
X127420683Y-65222051D01*
X127397584Y-65219924D01*
X127342762Y-65229901D01*
X127305158Y-65262753D01*
X127282523Y-65322858D01*
X127272606Y-65414599D01*
X127271692Y-65465043D01*
X127083904Y-65465043D01*
X127084222Y-65447061D01*
X127086873Y-65359680D01*
X127090606Y-65295906D01*
X127095907Y-65250583D01*
X127103258Y-65218556D01*
X127113143Y-65194669D01*
X127126046Y-65173765D01*
X127131579Y-65165899D01*
X127204969Y-65091596D01*
X127297760Y-65049468D01*
X127405096Y-65037723D01*
X127498886Y-65049506D01*
G36*
X127498886Y-65049506D02*
G01*
X127573539Y-65086728D01*
X127639431Y-65155262D01*
X127657577Y-65180649D01*
X127677345Y-65213867D01*
X127690172Y-65249946D01*
X127697510Y-65298099D01*
X127700813Y-65367537D01*
X127701538Y-65459207D01*
X127698263Y-65584831D01*
X127686877Y-65679155D01*
X127665041Y-65749524D01*
X127630419Y-65803287D01*
X127580670Y-65847789D01*
X127577014Y-65850424D01*
X127527985Y-65877378D01*
X127468945Y-65890713D01*
X127393859Y-65894001D01*
X127271795Y-65894001D01*
X127271744Y-66012498D01*
X127270608Y-66078493D01*
X127263686Y-66117203D01*
X127245598Y-66140420D01*
X127210962Y-66159934D01*
X127202645Y-66163921D01*
X127163720Y-66182604D01*
X127133583Y-66194404D01*
X127111174Y-66195423D01*
X127095433Y-66181762D01*
X127085302Y-66149523D01*
X127079723Y-66094805D01*
X127077635Y-66013712D01*
X127077981Y-65902345D01*
X127079700Y-65756803D01*
X127080237Y-65713270D01*
X127082172Y-65563206D01*
X127083904Y-65465043D01*
X127271692Y-65465043D01*
X127272748Y-65548365D01*
X127277438Y-65602881D01*
X127288051Y-65638838D01*
X127306872Y-65666483D01*
X127319650Y-65679966D01*
X127371890Y-65719418D01*
X127418142Y-65722629D01*
X127465867Y-65690050D01*
X127467077Y-65688847D01*
X127486494Y-65663669D01*
X127498307Y-65629448D01*
X127504265Y-65576749D01*
X127506120Y-65496132D01*
X127506154Y-65478272D01*
X127501670Y-65367176D01*
X127487074Y-65290162D01*
X127460650Y-65243148D01*
X127420683Y-65222051D01*
X127397584Y-65219924D01*
X127342762Y-65229901D01*
X127305158Y-65262753D01*
X127282523Y-65322858D01*
X127272606Y-65414599D01*
X127271692Y-65465043D01*
X127083904Y-65465043D01*
X127084222Y-65447061D01*
X127086873Y-65359680D01*
X127090606Y-65295906D01*
X127095907Y-65250583D01*
X127103258Y-65218556D01*
X127113143Y-65194669D01*
X127126046Y-65173765D01*
X127131579Y-65165899D01*
X127204969Y-65091596D01*
X127297760Y-65049468D01*
X127405096Y-65037723D01*
X127498886Y-65049506D01*
G37*
X133617333Y-65098529D02*
X133673590Y-65124118D01*
X133717747Y-65155125D01*
X133750101Y-65189796D01*
X133772438Y-65234521D01*
X133786546Y-65295693D01*
X133794211Y-65379702D01*
X133797220Y-65492941D01*
X133797538Y-65567510D01*
X133797538Y-65858421D01*
X133747773Y-65881096D01*
X133708576Y-65897668D01*
X133689157Y-65903770D01*
X133685442Y-65885611D01*
X133682495Y-65836649D01*
X133680691Y-65765154D01*
X133680308Y-65708386D01*
X133678661Y-65626372D01*
X133674222Y-65561310D01*
X133667740Y-65521468D01*
X133662590Y-65513001D01*
X133627977Y-65521647D01*
X133573640Y-65543824D01*
X133510722Y-65573887D01*
X133450368Y-65606193D01*
X133403721Y-65635099D01*
X133381926Y-65654962D01*
X133381839Y-65655176D01*
X133383714Y-65691936D01*
X133400525Y-65727027D01*
X133430039Y-65755529D01*
X133473116Y-65765062D01*
X133509932Y-65763951D01*
X133562074Y-65763134D01*
X133589444Y-65775350D01*
X133605882Y-65807625D01*
X133607955Y-65813711D01*
X133615081Y-65859740D01*
X133596024Y-65887688D01*
X133546353Y-65901008D01*
X133492697Y-65903471D01*
X133396142Y-65885211D01*
X133346159Y-65859132D01*
X133284429Y-65797869D01*
X133251690Y-65722671D01*
X133248753Y-65643212D01*
X133276424Y-65569168D01*
X133318047Y-65522770D01*
X133359604Y-65496794D01*
X133424922Y-65463908D01*
X133501038Y-65430558D01*
X133513726Y-65425462D01*
X133597333Y-65388566D01*
X133645530Y-65356047D01*
X133661030Y-65323719D01*
X133646550Y-65287395D01*
X133621692Y-65259001D01*
X133562939Y-65224040D01*
X133498293Y-65221418D01*
X133439008Y-65248359D01*
X133396339Y-65302089D01*
X133390739Y-65315951D01*
X133358133Y-65366937D01*
X133310530Y-65404788D01*
X133250461Y-65435851D01*
X133250461Y-65347769D01*
X133253997Y-65293952D01*
X133269156Y-65251535D01*
X133302768Y-65206280D01*
X133335035Y-65171421D01*
X133385209Y-65122063D01*
X133424193Y-65095548D01*
X133466064Y-65084912D01*
X133513460Y-65083155D01*
X133617333Y-65098529D01*
G36*
X133617333Y-65098529D02*
G01*
X133673590Y-65124118D01*
X133717747Y-65155125D01*
X133750101Y-65189796D01*
X133772438Y-65234521D01*
X133786546Y-65295693D01*
X133794211Y-65379702D01*
X133797220Y-65492941D01*
X133797538Y-65567510D01*
X133797538Y-65858421D01*
X133747773Y-65881096D01*
X133708576Y-65897668D01*
X133689157Y-65903770D01*
X133685442Y-65885611D01*
X133682495Y-65836649D01*
X133680691Y-65765154D01*
X133680308Y-65708386D01*
X133678661Y-65626372D01*
X133674222Y-65561310D01*
X133667740Y-65521468D01*
X133662590Y-65513001D01*
X133627977Y-65521647D01*
X133573640Y-65543824D01*
X133510722Y-65573887D01*
X133450368Y-65606193D01*
X133403721Y-65635099D01*
X133381926Y-65654962D01*
X133381839Y-65655176D01*
X133383714Y-65691936D01*
X133400525Y-65727027D01*
X133430039Y-65755529D01*
X133473116Y-65765062D01*
X133509932Y-65763951D01*
X133562074Y-65763134D01*
X133589444Y-65775350D01*
X133605882Y-65807625D01*
X133607955Y-65813711D01*
X133615081Y-65859740D01*
X133596024Y-65887688D01*
X133546353Y-65901008D01*
X133492697Y-65903471D01*
X133396142Y-65885211D01*
X133346159Y-65859132D01*
X133284429Y-65797869D01*
X133251690Y-65722671D01*
X133248753Y-65643212D01*
X133276424Y-65569168D01*
X133318047Y-65522770D01*
X133359604Y-65496794D01*
X133424922Y-65463908D01*
X133501038Y-65430558D01*
X133513726Y-65425462D01*
X133597333Y-65388566D01*
X133645530Y-65356047D01*
X133661030Y-65323719D01*
X133646550Y-65287395D01*
X133621692Y-65259001D01*
X133562939Y-65224040D01*
X133498293Y-65221418D01*
X133439008Y-65248359D01*
X133396339Y-65302089D01*
X133390739Y-65315951D01*
X133358133Y-65366937D01*
X133310530Y-65404788D01*
X133250461Y-65435851D01*
X133250461Y-65347769D01*
X133253997Y-65293952D01*
X133269156Y-65251535D01*
X133302768Y-65206280D01*
X133335035Y-65171421D01*
X133385209Y-65122063D01*
X133424193Y-65095548D01*
X133466064Y-65084912D01*
X133513460Y-65083155D01*
X133617333Y-65098529D01*
G37*
X130869878Y-58752777D02*
X130975612Y-58753356D01*
X131052132Y-58754923D01*
X131104372Y-58757973D01*
X131137263Y-58762997D01*
X131155737Y-58770490D01*
X131164727Y-58780945D01*
X131169163Y-58794854D01*
X131169594Y-58796655D01*
X131176333Y-58829146D01*
X131188808Y-58893253D01*
X131205719Y-58982152D01*
X131225771Y-59089020D01*
X131247664Y-59207034D01*
X131248429Y-59211179D01*
X131270359Y-59326832D01*
X131290877Y-59429015D01*
X131308659Y-59511599D01*
X131322381Y-59568457D01*
X131330718Y-59593459D01*
X131331116Y-59593902D01*
X131355677Y-59606111D01*
X131406315Y-59626457D01*
X131472095Y-59650546D01*
X131472461Y-59650675D01*
X131555317Y-59681819D01*
X131653000Y-59721492D01*
X131745077Y-59761382D01*
X131749434Y-59763354D01*
X131899407Y-59831421D01*
X132231498Y-59604640D01*
X132333374Y-59535505D01*
X132425657Y-59473698D01*
X132503003Y-59422734D01*
X132560064Y-59386128D01*
X132591495Y-59367395D01*
X132594479Y-59366005D01*
X132617321Y-59372191D01*
X132659982Y-59402036D01*
X132724128Y-59456948D01*
X132811421Y-59538335D01*
X132900535Y-59624923D01*
X132986441Y-59710248D01*
X133063327Y-59788109D01*
X133126564Y-59853698D01*
X133171523Y-59902206D01*
X133193576Y-59928826D01*
X133194396Y-59930196D01*
X133196834Y-59948464D01*
X133187650Y-59978296D01*
X133164574Y-60023722D01*
X133125337Y-60088771D01*
X133067670Y-60177471D01*
X132990795Y-60291658D01*
X132922570Y-60392163D01*
X132861582Y-60482304D01*
X132811356Y-60556850D01*
X132775416Y-60610566D01*
X132757287Y-60638219D01*
X132756146Y-60640096D01*
X132758359Y-60666591D01*
X132775138Y-60718087D01*
X132803142Y-60784852D01*
X132813122Y-60806173D01*
X132856672Y-60901160D01*
X132903134Y-61008938D01*
X132940877Y-61102193D01*
X132968073Y-61171407D01*
X132989675Y-61224007D01*
X133002158Y-61251498D01*
X133003709Y-61253617D01*
X133026668Y-61257125D01*
X133080786Y-61266739D01*
X133158868Y-61281090D01*
X133253719Y-61298808D01*
X133358143Y-61318526D01*
X133464944Y-61338875D01*
X133566926Y-61358487D01*
X133656894Y-61375992D01*
X133727653Y-61390023D01*
X133772006Y-61399210D01*
X133782885Y-61401808D01*
X133794122Y-61408219D01*
X133802605Y-61422698D01*
X133808714Y-61450134D01*
X133812832Y-61495412D01*
X133815341Y-61563421D01*
X133816621Y-61659048D01*
X133817054Y-61787181D01*
X133817077Y-61839702D01*
X133817077Y-62266846D01*
X133714500Y-62287092D01*
X133657431Y-62298071D01*
X133572269Y-62314096D01*
X133469372Y-62333234D01*
X133359096Y-62353552D01*
X133328615Y-62359133D01*
X133226855Y-62378918D01*
X133138205Y-62398374D01*
X133070108Y-62415698D01*
X133030004Y-62429089D01*
X133023323Y-62433080D01*
X133006919Y-62461343D01*
X132983399Y-62516110D01*
X132957316Y-62586589D01*
X132952142Y-62601770D01*
X132917956Y-62695897D01*
X132875523Y-62802102D01*
X132833997Y-62897474D01*
X132833792Y-62897917D01*
X132764640Y-63047526D01*
X133219512Y-63716618D01*
X132927500Y-64009117D01*
X132839180Y-64096171D01*
X132758625Y-64172910D01*
X132690360Y-64235238D01*
X132638908Y-64279057D01*
X132608794Y-64300271D01*
X132604474Y-64301617D01*
X132579111Y-64291017D01*
X132527358Y-64261548D01*
X132454868Y-64216706D01*
X132367294Y-64159985D01*
X132272612Y-64096463D01*
X132176516Y-64031669D01*
X132090837Y-63975288D01*
X132021016Y-63930789D01*
X131972494Y-63901640D01*
X131950782Y-63891309D01*
X131924293Y-63900051D01*
X131874062Y-63923088D01*
X131810451Y-63955632D01*
X131803708Y-63959250D01*
X131718046Y-64002211D01*
X131659306Y-64023280D01*
X131622772Y-64023504D01*
X131603731Y-64003929D01*
X131603620Y-64003655D01*
X131594102Y-63980473D01*
X131571403Y-63925442D01*
X131537282Y-63842823D01*
X131493500Y-63736873D01*
X131441816Y-63611853D01*
X131383992Y-63472021D01*
X131327991Y-63336638D01*
X131266447Y-63187235D01*
X131209939Y-63048833D01*
X131160161Y-62925674D01*
X131118806Y-62822003D01*
X131087568Y-62742060D01*
X131068141Y-62690089D01*
X131062154Y-62670693D01*
X131077168Y-62648444D01*
X131116439Y-62612983D01*
X131168807Y-62573888D01*
X131317941Y-62450246D01*
X131434511Y-62308523D01*
X131517118Y-62151705D01*
X131564366Y-61982776D01*
X131574857Y-61804723D01*
X131567231Y-61722540D01*
X131525682Y-61552032D01*
X131454123Y-61401460D01*
X131356995Y-61272310D01*
X131238734Y-61166065D01*
X131103780Y-61084211D01*
X130956571Y-61028233D01*
X130801544Y-60999616D01*
X130643139Y-60999845D01*
X130485794Y-61030406D01*
X130333946Y-61092783D01*
X130192035Y-61188461D01*
X130132803Y-61242573D01*
X130019203Y-61381521D01*
X129940106Y-61533362D01*
X129894986Y-61693668D01*
X129883316Y-61858013D01*
X129904569Y-62021972D01*
X129958220Y-62181119D01*
X130043740Y-62331026D01*
X130160605Y-62467268D01*
X130291193Y-62573888D01*
X130345588Y-62614643D01*
X130384014Y-62649719D01*
X130397846Y-62670727D01*
X130390603Y-62693636D01*
X130370005Y-62748366D01*
X130337746Y-62830673D01*
X130295521Y-62936316D01*
X130245023Y-63061051D01*
X130187948Y-63200637D01*
X130131854Y-63336671D01*
X130069967Y-63486202D01*
X130012644Y-63624768D01*
X129961644Y-63748108D01*
X129918727Y-63851965D01*
X129885653Y-63932081D01*
X129864181Y-63984196D01*
X129856225Y-64003655D01*
X129837429Y-64023424D01*
X129801074Y-64023366D01*
X129742479Y-64002442D01*
X129656968Y-63959614D01*
X129656292Y-63959250D01*
X129591907Y-63926013D01*
X129539861Y-63901803D01*
X129510512Y-63891405D01*
X129509217Y-63891309D01*
X129487124Y-63901856D01*
X129438348Y-63931185D01*
X129368331Y-63975828D01*
X129282514Y-64032315D01*
X129187388Y-64096463D01*
X129090540Y-64161412D01*
X129003253Y-64217897D01*
X128931181Y-64262422D01*
X128879977Y-64291491D01*
X128855526Y-64301617D01*
X128833010Y-64288308D01*
X128787742Y-64251113D01*
X128724244Y-64194129D01*
X128647039Y-64121450D01*
X128560651Y-64037172D01*
X128532399Y-64009017D01*
X128240287Y-63716417D01*
X128462631Y-63390105D01*
X128530202Y-63289898D01*
X128589507Y-63199964D01*
X128637217Y-63125511D01*
X128670007Y-63071752D01*
X128684548Y-63043895D01*
X128684974Y-63041913D01*
X128677308Y-63015656D01*
X128656689Y-62962838D01*
X128626685Y-62892311D01*
X128605625Y-62845094D01*
X128566248Y-62754695D01*
X128529165Y-62663367D01*
X128500415Y-62586201D01*
X128492605Y-62562693D01*
X128470417Y-62499917D01*
X128448727Y-62451412D01*
X128436813Y-62433080D01*
X128410523Y-62421860D01*
X128353142Y-62405955D01*
X128272118Y-62387168D01*
X128174895Y-62367300D01*
X128131385Y-62359133D01*
X128020896Y-62338830D01*
X127914916Y-62319171D01*
X127823801Y-62302089D01*
X127757908Y-62289519D01*
X127745500Y-62287092D01*
X127642923Y-62266846D01*
X127642923Y-61839702D01*
X127643153Y-61699247D01*
X127644099Y-61592980D01*
X127646141Y-61516014D01*
X127649662Y-61463461D01*
X127655043Y-61430434D01*
X127662666Y-61412046D01*
X127672912Y-61403409D01*
X127677115Y-61401808D01*
X127702470Y-61396128D01*
X127758484Y-61384796D01*
X127837964Y-61369180D01*
X127933712Y-61350648D01*
X128038533Y-61330570D01*
X128145232Y-61310313D01*
X128246613Y-61291247D01*
X128335479Y-61274740D01*
X128404637Y-61262160D01*
X128446889Y-61254876D01*
X128456290Y-61253617D01*
X128464807Y-61236764D01*
X128483660Y-61191871D01*
X128509324Y-61127431D01*
X128519123Y-61102193D01*
X128558648Y-61004687D01*
X128605192Y-60896960D01*
X128646877Y-60806173D01*
X128677550Y-60736754D01*
X128697956Y-60679711D01*
X128704768Y-60644778D01*
X128703682Y-60640096D01*
X128689285Y-60617992D01*
X128656412Y-60568832D01*
X128608590Y-60497849D01*
X128549348Y-60410279D01*
X128482215Y-60311358D01*
X128468941Y-60291831D01*
X128391046Y-60176141D01*
X128333787Y-60088045D01*
X128294881Y-60023487D01*
X128272044Y-59978412D01*
X128262994Y-59948764D01*
X128265448Y-59930486D01*
X128265511Y-59930370D01*
X128284827Y-59906362D01*
X128327551Y-59859948D01*
X128389051Y-59795938D01*
X128464698Y-59719146D01*
X128549861Y-59634383D01*
X128559465Y-59624923D01*
X128666790Y-59520990D01*
X128749615Y-59444676D01*
X128809605Y-59394572D01*
X128848423Y-59369271D01*
X128865520Y-59366005D01*
X128890473Y-59380251D01*
X128942255Y-59413157D01*
X129015520Y-59461209D01*
X129104920Y-59520891D01*
X129205111Y-59588689D01*
X129228501Y-59604640D01*
X129560593Y-59831421D01*
X129710565Y-59763354D01*
X129801770Y-59723686D01*
X129899669Y-59683792D01*
X129983831Y-59651984D01*
X129987538Y-59650675D01*
X130053369Y-59626577D01*
X130104116Y-59606201D01*
X130128842Y-59593937D01*
X130128884Y-59593902D01*
X130136729Y-59571735D01*
X130150066Y-59517218D01*
X130167570Y-59436481D01*
X130187917Y-59335651D01*
X130209782Y-59220857D01*
X130211571Y-59211179D01*
X130233504Y-59092905D01*
X130253640Y-58985543D01*
X130270680Y-58895918D01*
X130283328Y-58830852D01*
X130290284Y-58797169D01*
X130290406Y-58796655D01*
X130294639Y-58782326D01*
X130302871Y-58771508D01*
X130320033Y-58763707D01*
X130351058Y-58758430D01*
X130400878Y-58755183D01*
X130474424Y-58753473D01*
X130576629Y-58752808D01*
X130712425Y-58752694D01*
X130730000Y-58752693D01*
X130869878Y-58752777D01*
G36*
X130869878Y-58752777D02*
G01*
X130975612Y-58753356D01*
X131052132Y-58754923D01*
X131104372Y-58757973D01*
X131137263Y-58762997D01*
X131155737Y-58770490D01*
X131164727Y-58780945D01*
X131169163Y-58794854D01*
X131169594Y-58796655D01*
X131176333Y-58829146D01*
X131188808Y-58893253D01*
X131205719Y-58982152D01*
X131225771Y-59089020D01*
X131247664Y-59207034D01*
X131248429Y-59211179D01*
X131270359Y-59326832D01*
X131290877Y-59429015D01*
X131308659Y-59511599D01*
X131322381Y-59568457D01*
X131330718Y-59593459D01*
X131331116Y-59593902D01*
X131355677Y-59606111D01*
X131406315Y-59626457D01*
X131472095Y-59650546D01*
X131472461Y-59650675D01*
X131555317Y-59681819D01*
X131653000Y-59721492D01*
X131745077Y-59761382D01*
X131749434Y-59763354D01*
X131899407Y-59831421D01*
X132231498Y-59604640D01*
X132333374Y-59535505D01*
X132425657Y-59473698D01*
X132503003Y-59422734D01*
X132560064Y-59386128D01*
X132591495Y-59367395D01*
X132594479Y-59366005D01*
X132617321Y-59372191D01*
X132659982Y-59402036D01*
X132724128Y-59456948D01*
X132811421Y-59538335D01*
X132900535Y-59624923D01*
X132986441Y-59710248D01*
X133063327Y-59788109D01*
X133126564Y-59853698D01*
X133171523Y-59902206D01*
X133193576Y-59928826D01*
X133194396Y-59930196D01*
X133196834Y-59948464D01*
X133187650Y-59978296D01*
X133164574Y-60023722D01*
X133125337Y-60088771D01*
X133067670Y-60177471D01*
X132990795Y-60291658D01*
X132922570Y-60392163D01*
X132861582Y-60482304D01*
X132811356Y-60556850D01*
X132775416Y-60610566D01*
X132757287Y-60638219D01*
X132756146Y-60640096D01*
X132758359Y-60666591D01*
X132775138Y-60718087D01*
X132803142Y-60784852D01*
X132813122Y-60806173D01*
X132856672Y-60901160D01*
X132903134Y-61008938D01*
X132940877Y-61102193D01*
X132968073Y-61171407D01*
X132989675Y-61224007D01*
X133002158Y-61251498D01*
X133003709Y-61253617D01*
X133026668Y-61257125D01*
X133080786Y-61266739D01*
X133158868Y-61281090D01*
X133253719Y-61298808D01*
X133358143Y-61318526D01*
X133464944Y-61338875D01*
X133566926Y-61358487D01*
X133656894Y-61375992D01*
X133727653Y-61390023D01*
X133772006Y-61399210D01*
X133782885Y-61401808D01*
X133794122Y-61408219D01*
X133802605Y-61422698D01*
X133808714Y-61450134D01*
X133812832Y-61495412D01*
X133815341Y-61563421D01*
X133816621Y-61659048D01*
X133817054Y-61787181D01*
X133817077Y-61839702D01*
X133817077Y-62266846D01*
X133714500Y-62287092D01*
X133657431Y-62298071D01*
X133572269Y-62314096D01*
X133469372Y-62333234D01*
X133359096Y-62353552D01*
X133328615Y-62359133D01*
X133226855Y-62378918D01*
X133138205Y-62398374D01*
X133070108Y-62415698D01*
X133030004Y-62429089D01*
X133023323Y-62433080D01*
X133006919Y-62461343D01*
X132983399Y-62516110D01*
X132957316Y-62586589D01*
X132952142Y-62601770D01*
X132917956Y-62695897D01*
X132875523Y-62802102D01*
X132833997Y-62897474D01*
X132833792Y-62897917D01*
X132764640Y-63047526D01*
X133219512Y-63716618D01*
X132927500Y-64009117D01*
X132839180Y-64096171D01*
X132758625Y-64172910D01*
X132690360Y-64235238D01*
X132638908Y-64279057D01*
X132608794Y-64300271D01*
X132604474Y-64301617D01*
X132579111Y-64291017D01*
X132527358Y-64261548D01*
X132454868Y-64216706D01*
X132367294Y-64159985D01*
X132272612Y-64096463D01*
X132176516Y-64031669D01*
X132090837Y-63975288D01*
X132021016Y-63930789D01*
X131972494Y-63901640D01*
X131950782Y-63891309D01*
X131924293Y-63900051D01*
X131874062Y-63923088D01*
X131810451Y-63955632D01*
X131803708Y-63959250D01*
X131718046Y-64002211D01*
X131659306Y-64023280D01*
X131622772Y-64023504D01*
X131603731Y-64003929D01*
X131603620Y-64003655D01*
X131594102Y-63980473D01*
X131571403Y-63925442D01*
X131537282Y-63842823D01*
X131493500Y-63736873D01*
X131441816Y-63611853D01*
X131383992Y-63472021D01*
X131327991Y-63336638D01*
X131266447Y-63187235D01*
X131209939Y-63048833D01*
X131160161Y-62925674D01*
X131118806Y-62822003D01*
X131087568Y-62742060D01*
X131068141Y-62690089D01*
X131062154Y-62670693D01*
X131077168Y-62648444D01*
X131116439Y-62612983D01*
X131168807Y-62573888D01*
X131317941Y-62450246D01*
X131434511Y-62308523D01*
X131517118Y-62151705D01*
X131564366Y-61982776D01*
X131574857Y-61804723D01*
X131567231Y-61722540D01*
X131525682Y-61552032D01*
X131454123Y-61401460D01*
X131356995Y-61272310D01*
X131238734Y-61166065D01*
X131103780Y-61084211D01*
X130956571Y-61028233D01*
X130801544Y-60999616D01*
X130643139Y-60999845D01*
X130485794Y-61030406D01*
X130333946Y-61092783D01*
X130192035Y-61188461D01*
X130132803Y-61242573D01*
X130019203Y-61381521D01*
X129940106Y-61533362D01*
X129894986Y-61693668D01*
X129883316Y-61858013D01*
X129904569Y-62021972D01*
X129958220Y-62181119D01*
X130043740Y-62331026D01*
X130160605Y-62467268D01*
X130291193Y-62573888D01*
X130345588Y-62614643D01*
X130384014Y-62649719D01*
X130397846Y-62670727D01*
X130390603Y-62693636D01*
X130370005Y-62748366D01*
X130337746Y-62830673D01*
X130295521Y-62936316D01*
X130245023Y-63061051D01*
X130187948Y-63200637D01*
X130131854Y-63336671D01*
X130069967Y-63486202D01*
X130012644Y-63624768D01*
X129961644Y-63748108D01*
X129918727Y-63851965D01*
X129885653Y-63932081D01*
X129864181Y-63984196D01*
X129856225Y-64003655D01*
X129837429Y-64023424D01*
X129801074Y-64023366D01*
X129742479Y-64002442D01*
X129656968Y-63959614D01*
X129656292Y-63959250D01*
X129591907Y-63926013D01*
X129539861Y-63901803D01*
X129510512Y-63891405D01*
X129509217Y-63891309D01*
X129487124Y-63901856D01*
X129438348Y-63931185D01*
X129368331Y-63975828D01*
X129282514Y-64032315D01*
X129187388Y-64096463D01*
X129090540Y-64161412D01*
X129003253Y-64217897D01*
X128931181Y-64262422D01*
X128879977Y-64291491D01*
X128855526Y-64301617D01*
X128833010Y-64288308D01*
X128787742Y-64251113D01*
X128724244Y-64194129D01*
X128647039Y-64121450D01*
X128560651Y-64037172D01*
X128532399Y-64009017D01*
X128240287Y-63716417D01*
X128462631Y-63390105D01*
X128530202Y-63289898D01*
X128589507Y-63199964D01*
X128637217Y-63125511D01*
X128670007Y-63071752D01*
X128684548Y-63043895D01*
X128684974Y-63041913D01*
X128677308Y-63015656D01*
X128656689Y-62962838D01*
X128626685Y-62892311D01*
X128605625Y-62845094D01*
X128566248Y-62754695D01*
X128529165Y-62663367D01*
X128500415Y-62586201D01*
X128492605Y-62562693D01*
X128470417Y-62499917D01*
X128448727Y-62451412D01*
X128436813Y-62433080D01*
X128410523Y-62421860D01*
X128353142Y-62405955D01*
X128272118Y-62387168D01*
X128174895Y-62367300D01*
X128131385Y-62359133D01*
X128020896Y-62338830D01*
X127914916Y-62319171D01*
X127823801Y-62302089D01*
X127757908Y-62289519D01*
X127745500Y-62287092D01*
X127642923Y-62266846D01*
X127642923Y-61839702D01*
X127643153Y-61699247D01*
X127644099Y-61592980D01*
X127646141Y-61516014D01*
X127649662Y-61463461D01*
X127655043Y-61430434D01*
X127662666Y-61412046D01*
X127672912Y-61403409D01*
X127677115Y-61401808D01*
X127702470Y-61396128D01*
X127758484Y-61384796D01*
X127837964Y-61369180D01*
X127933712Y-61350648D01*
X128038533Y-61330570D01*
X128145232Y-61310313D01*
X128246613Y-61291247D01*
X128335479Y-61274740D01*
X128404637Y-61262160D01*
X128446889Y-61254876D01*
X128456290Y-61253617D01*
X128464807Y-61236764D01*
X128483660Y-61191871D01*
X128509324Y-61127431D01*
X128519123Y-61102193D01*
X128558648Y-61004687D01*
X128605192Y-60896960D01*
X128646877Y-60806173D01*
X128677550Y-60736754D01*
X128697956Y-60679711D01*
X128704768Y-60644778D01*
X128703682Y-60640096D01*
X128689285Y-60617992D01*
X128656412Y-60568832D01*
X128608590Y-60497849D01*
X128549348Y-60410279D01*
X128482215Y-60311358D01*
X128468941Y-60291831D01*
X128391046Y-60176141D01*
X128333787Y-60088045D01*
X128294881Y-60023487D01*
X128272044Y-59978412D01*
X128262994Y-59948764D01*
X128265448Y-59930486D01*
X128265511Y-59930370D01*
X128284827Y-59906362D01*
X128327551Y-59859948D01*
X128389051Y-59795938D01*
X128464698Y-59719146D01*
X128549861Y-59634383D01*
X128559465Y-59624923D01*
X128666790Y-59520990D01*
X128749615Y-59444676D01*
X128809605Y-59394572D01*
X128848423Y-59369271D01*
X128865520Y-59366005D01*
X128890473Y-59380251D01*
X128942255Y-59413157D01*
X129015520Y-59461209D01*
X129104920Y-59520891D01*
X129205111Y-59588689D01*
X129228501Y-59604640D01*
X129560593Y-59831421D01*
X129710565Y-59763354D01*
X129801770Y-59723686D01*
X129899669Y-59683792D01*
X129983831Y-59651984D01*
X129987538Y-59650675D01*
X130053369Y-59626577D01*
X130104116Y-59606201D01*
X130128842Y-59593937D01*
X130128884Y-59593902D01*
X130136729Y-59571735D01*
X130150066Y-59517218D01*
X130167570Y-59436481D01*
X130187917Y-59335651D01*
X130209782Y-59220857D01*
X130211571Y-59211179D01*
X130233504Y-59092905D01*
X130253640Y-58985543D01*
X130270680Y-58895918D01*
X130283328Y-58830852D01*
X130290284Y-58797169D01*
X130290406Y-58796655D01*
X130294639Y-58782326D01*
X130302871Y-58771508D01*
X130320033Y-58763707D01*
X130351058Y-58758430D01*
X130400878Y-58755183D01*
X130474424Y-58753473D01*
X130576629Y-58752808D01*
X130712425Y-58752694D01*
X130730000Y-58752693D01*
X130869878Y-58752777D01*
G37*
D14*
%TO.C,TP300*%
X129450000Y-105325000D02*
G75*
G02*
X128050000Y-105325000I-700000J0D01*
G01*
X128050000Y-105325000D02*
G75*
G02*
X129450000Y-105325000I700000J0D01*
G01*
%TO.C,JP301*%
X112295720Y-129225000D02*
X115095720Y-129225000D01*
X112295720Y-131225000D02*
X112295720Y-129225000D01*
X115095720Y-129225000D02*
X115095720Y-131225000D01*
X115095720Y-131225000D02*
X112295720Y-131225000D01*
%TO.C,J800*%
X117380000Y-55135000D02*
X117380000Y-56835000D01*
X126720000Y-55135000D02*
X126720000Y-56835000D01*
D13*
%TO.C,kibuzzard-67B219C6*%
G36*
X135825333Y-112959453D02*
G01*
X135900006Y-112970529D01*
X135973235Y-112988872D01*
X136044312Y-113014304D01*
X136112555Y-113046581D01*
X136177306Y-113085391D01*
X136237941Y-113130361D01*
X136293876Y-113181057D01*
X136344572Y-113236992D01*
X136389542Y-113297627D01*
X136428352Y-113362377D01*
X136460628Y-113430620D01*
X136486060Y-113501698D01*
X136504403Y-113574926D01*
X136515480Y-113649600D01*
X136519184Y-113725000D01*
X136515480Y-113800400D01*
X136504403Y-113875074D01*
X136486060Y-113948302D01*
X136460628Y-114019380D01*
X136428352Y-114087623D01*
X136389542Y-114152373D01*
X136344572Y-114213008D01*
X136293876Y-114268943D01*
X136237941Y-114319639D01*
X136177306Y-114364609D01*
X136112555Y-114403419D01*
X136044312Y-114435696D01*
X135973235Y-114461128D01*
X135900006Y-114479471D01*
X135825333Y-114490547D01*
X135749933Y-114494251D01*
X135749798Y-114494251D01*
X135534935Y-114494251D01*
X134656099Y-114494251D01*
X134192447Y-114494251D01*
X133250067Y-114494251D01*
X133174667Y-114490547D01*
X133099994Y-114479471D01*
X133026765Y-114461128D01*
X132955688Y-114435696D01*
X132887445Y-114403419D01*
X132822694Y-114364609D01*
X132762059Y-114319639D01*
X132706124Y-114268943D01*
X132655428Y-114213008D01*
X132610458Y-114152373D01*
X132571648Y-114087623D01*
X132539372Y-114019380D01*
X132513940Y-113948302D01*
X132495597Y-113875074D01*
X132484520Y-113800400D01*
X132480816Y-113725000D01*
X132484520Y-113649600D01*
X132495597Y-113574926D01*
X132513940Y-113501698D01*
X132539372Y-113430620D01*
X132558687Y-113389782D01*
X134192447Y-113389782D01*
X134455775Y-113389782D01*
X134455775Y-114225000D01*
X134656099Y-114225000D01*
X134977585Y-114225000D01*
X135192447Y-114225000D01*
X135229604Y-114137561D01*
X135273223Y-114040024D01*
X135320073Y-113939257D01*
X135366922Y-113842124D01*
X135414378Y-113942286D01*
X135459814Y-114042447D01*
X135500808Y-114138166D01*
X135534935Y-114225000D01*
X135749798Y-114225000D01*
X135706179Y-114119184D01*
X135676494Y-114054564D01*
X135642367Y-113985097D01*
X135604604Y-113912197D01*
X135564015Y-113837278D01*
X135521607Y-113762964D01*
X135478393Y-113691882D01*
X135733643Y-113225000D01*
X135533320Y-113225000D01*
X135366922Y-113544871D01*
X135208603Y-113225000D01*
X134993740Y-113225000D01*
X135255452Y-113696729D01*
X135215872Y-113767609D01*
X135174677Y-113841317D01*
X135133683Y-113915428D01*
X135094709Y-113987520D01*
X135058360Y-114056179D01*
X135025242Y-114119992D01*
X134977585Y-114225000D01*
X134656099Y-114225000D01*
X134656099Y-113389782D01*
X134919426Y-113389782D01*
X134919426Y-113225000D01*
X134192447Y-113225000D01*
X134192447Y-113389782D01*
X132558687Y-113389782D01*
X132571648Y-113362377D01*
X132610458Y-113297627D01*
X132655428Y-113236992D01*
X132706124Y-113181057D01*
X132762059Y-113130361D01*
X132822694Y-113085391D01*
X132887445Y-113046581D01*
X132955688Y-113014304D01*
X133026765Y-112988872D01*
X133099994Y-112970529D01*
X133174667Y-112959453D01*
X133250067Y-112955749D01*
X134192447Y-112955749D01*
X135749798Y-112955749D01*
X135749933Y-112955749D01*
X135825333Y-112959453D01*
G37*
D14*
%TO.C,TP301*%
X131450000Y-105325000D02*
G75*
G02*
X130050000Y-105325000I-700000J0D01*
G01*
X130050000Y-105325000D02*
G75*
G02*
X131450000Y-105325000I700000J0D01*
G01*
%TO.C,J200*%
X42110000Y-145715000D02*
X47630000Y-145715000D01*
X42110000Y-150715000D02*
X42110000Y-145715000D01*
X47630000Y-145715000D02*
X47630000Y-146715000D01*
X49130000Y-146715000D02*
X47630000Y-146715000D01*
X51670000Y-146715000D02*
X50869000Y-146715000D01*
X54210000Y-146715000D02*
X53409000Y-146715000D01*
X56750000Y-146715000D02*
X55949000Y-146715000D01*
X59290000Y-146715000D02*
X58489000Y-146715000D01*
X61830000Y-146715000D02*
X61029000Y-146715000D01*
X64370000Y-146715000D02*
X63569000Y-146715000D01*
X66910000Y-146715000D02*
X66109000Y-146715000D01*
X69450000Y-146715000D02*
X68649000Y-146715000D01*
X71990000Y-146715000D02*
X71189000Y-146715000D01*
X74530000Y-146715000D02*
X73729000Y-146715000D01*
X77070000Y-146715000D02*
X76269000Y-146715000D01*
X79610000Y-146715000D02*
X78809000Y-146715000D01*
X82150000Y-146715000D02*
X81349000Y-146715000D01*
X84690000Y-146715000D02*
X83889000Y-146715000D01*
X87230000Y-146715000D02*
X86429000Y-146715000D01*
X89770000Y-146715000D02*
X88969000Y-146715000D01*
X92310000Y-146715000D02*
X91509000Y-146715000D01*
X94850000Y-146715000D02*
X94049000Y-146715000D01*
X97390000Y-146715000D02*
X96589000Y-146715000D01*
X99930000Y-146715000D02*
X99129000Y-146715000D01*
X102470000Y-146715000D02*
X101669000Y-146715000D01*
X105010000Y-146715000D02*
X104209000Y-146715000D01*
X107550000Y-146715000D02*
X106749000Y-146715000D01*
X110090000Y-146715000D02*
X109289000Y-146715000D01*
X112630000Y-146715000D02*
X111829000Y-146715000D01*
X115170000Y-146715000D02*
X114369000Y-146715000D01*
X117710000Y-146715000D02*
X116909000Y-146715000D01*
X120250000Y-146715000D02*
X119449000Y-146715000D01*
X122790000Y-146715000D02*
X121989000Y-146715000D01*
X125330000Y-146715000D02*
X124529000Y-146715000D01*
X127645000Y-146715000D02*
X127069000Y-146715000D01*
X129835000Y-145975000D02*
X130435000Y-146275000D01*
X130435000Y-145675000D02*
X129835000Y-145975000D01*
X130435000Y-146275000D02*
X130435000Y-145675000D01*
X131110000Y-145715000D02*
X131110000Y-146715000D01*
X131111000Y-146715000D02*
X129835000Y-146715000D01*
X136630000Y-145715000D02*
X131110000Y-145715000D01*
X136630000Y-150715000D02*
X136630000Y-145715000D01*
D10*
%TO.C,F300*%
X104240000Y-138265000D02*
X104560000Y-138265000D01*
X104240000Y-139285000D02*
X104560000Y-139285000D01*
D14*
%TO.C,U600*%
X115190000Y-135125000D02*
X115190000Y-138125000D01*
X118410000Y-135125000D02*
X118410000Y-138125000D01*
X118570000Y-134585000D02*
X118090000Y-134585000D01*
X118090000Y-134105000D01*
X118570000Y-134585000D01*
G36*
X118570000Y-134585000D02*
G01*
X118090000Y-134585000D01*
X118090000Y-134105000D01*
X118570000Y-134585000D01*
G37*
D10*
%TO.C,X300*%
X114125000Y-103750000D02*
X115325000Y-103750000D01*
X115325000Y-105350000D02*
X114125000Y-105350000D01*
D13*
%TO.C,kibuzzard-67B37418*%
G36*
X129530560Y-103091438D02*
G01*
X129530560Y-103904039D01*
X129530560Y-104568013D01*
X129530560Y-105308454D01*
X129526801Y-105384963D01*
X129515562Y-105460734D01*
X129496949Y-105535039D01*
X129471143Y-105607162D01*
X129438393Y-105676408D01*
X129399012Y-105742110D01*
X129353381Y-105803637D01*
X129301939Y-105860394D01*
X129245182Y-105911836D01*
X129183656Y-105957466D01*
X129117953Y-105996847D01*
X129048707Y-106029598D01*
X128976585Y-106055404D01*
X128902280Y-106074016D01*
X128826508Y-106085256D01*
X128750000Y-106089015D01*
X128673492Y-106085256D01*
X128597720Y-106074016D01*
X128523415Y-106055404D01*
X128451293Y-106029598D01*
X128382047Y-105996847D01*
X128316344Y-105957466D01*
X128254818Y-105911836D01*
X128198061Y-105860394D01*
X128146619Y-105803637D01*
X128100988Y-105742110D01*
X128061607Y-105676408D01*
X128028857Y-105607162D01*
X128003051Y-105535039D01*
X127984438Y-105460734D01*
X127973199Y-105384963D01*
X127969440Y-105308454D01*
X127969440Y-104568013D01*
X127969440Y-104102746D01*
X128261309Y-104102746D01*
X128261309Y-104238449D01*
X128324313Y-104307916D01*
X128382472Y-104393538D01*
X128432553Y-104484006D01*
X128469709Y-104568013D01*
X128634491Y-104503393D01*
X128594911Y-104404847D01*
X128537561Y-104301454D01*
X129096527Y-104301454D01*
X129096527Y-104511470D01*
X129261309Y-104511470D01*
X129261309Y-103904039D01*
X129096527Y-103904039D01*
X129096527Y-104102746D01*
X128261309Y-104102746D01*
X127969440Y-104102746D01*
X127969440Y-103450081D01*
X128238691Y-103450081D01*
X128246769Y-103534289D01*
X128271002Y-103618901D01*
X128312197Y-103698667D01*
X128371163Y-103768336D01*
X128510097Y-103669790D01*
X128434168Y-103568013D01*
X128411551Y-103469467D01*
X128444669Y-103375767D01*
X128539176Y-103338611D01*
X128624798Y-103368498D01*
X128712036Y-103444426D01*
X128758279Y-103492084D01*
X128806543Y-103542973D01*
X128857835Y-103593861D01*
X128913166Y-103641519D01*
X128973142Y-103683522D01*
X129038368Y-103717447D01*
X129109451Y-103739863D01*
X129186995Y-103747334D01*
X129220921Y-103748142D01*
X129261309Y-103744103D01*
X129261309Y-103091438D01*
X129096527Y-103091438D01*
X129096527Y-103521163D01*
X129043215Y-103504200D01*
X128985864Y-103463005D01*
X128930937Y-103411309D01*
X128884895Y-103362843D01*
X128804120Y-103280452D01*
X128716882Y-103207754D01*
X128623990Y-103156058D01*
X128524637Y-103136672D01*
X128399435Y-103162520D01*
X128309774Y-103231987D01*
X128256462Y-103332149D01*
X128238691Y-103450081D01*
X127969440Y-103450081D01*
X127969440Y-102241680D01*
X128261309Y-102241680D01*
X128261309Y-102450081D01*
X128345315Y-102464620D01*
X128442246Y-102482391D01*
X128547052Y-102502585D01*
X128654685Y-102524394D01*
X128762924Y-102547819D01*
X128869548Y-102572859D01*
X128969507Y-102598708D01*
X129057754Y-102624556D01*
X128968296Y-102650606D01*
X128867932Y-102677060D01*
X128761309Y-102702908D01*
X128653069Y-102727141D01*
X128545638Y-102749556D01*
X128441438Y-102769952D01*
X128345113Y-102786914D01*
X128261309Y-102799031D01*
X128261309Y-103009047D01*
X128351777Y-102990468D01*
X128464863Y-102963813D01*
X128549497Y-102942452D01*
X128637543Y-102919296D01*
X128728998Y-102894346D01*
X128822249Y-102867959D01*
X128915679Y-102840495D01*
X129009289Y-102811955D01*
X129142569Y-102769548D01*
X129261309Y-102729564D01*
X129261309Y-102524394D01*
X129175238Y-102493520D01*
X129087193Y-102463364D01*
X128997173Y-102433926D01*
X128906704Y-102405654D01*
X128817313Y-102378998D01*
X128728998Y-102353958D01*
X128600363Y-102319628D01*
X128477787Y-102289338D01*
X128363893Y-102263288D01*
X128261309Y-102241680D01*
X127969440Y-102241680D01*
X127969440Y-102241546D01*
X127973199Y-102165037D01*
X127984438Y-102089266D01*
X128003051Y-102014961D01*
X128028857Y-101942838D01*
X128061607Y-101873592D01*
X128100988Y-101807890D01*
X128146619Y-101746363D01*
X128198061Y-101689606D01*
X128254818Y-101638164D01*
X128316344Y-101592534D01*
X128382047Y-101553153D01*
X128451293Y-101520402D01*
X128523415Y-101494596D01*
X128597720Y-101475984D01*
X128673492Y-101464744D01*
X128750000Y-101460985D01*
X128826508Y-101464744D01*
X128902280Y-101475984D01*
X128976585Y-101494596D01*
X129048707Y-101520402D01*
X129117953Y-101553153D01*
X129183656Y-101592534D01*
X129245182Y-101638164D01*
X129301939Y-101689606D01*
X129353381Y-101746363D01*
X129399012Y-101807890D01*
X129438393Y-101873592D01*
X129471143Y-101942838D01*
X129496949Y-102014961D01*
X129515562Y-102089266D01*
X129526801Y-102165037D01*
X129530560Y-102241546D01*
X129530560Y-102241680D01*
X129530560Y-102729564D01*
X129530560Y-103091438D01*
G37*
D10*
%TO.C,X400*%
X112275000Y-103550000D02*
X110775000Y-103550000D01*
X112275000Y-104750000D02*
X112275000Y-103550000D01*
D14*
%TO.C,Y900*%
X132500000Y-129675000D02*
X128500000Y-129675000D01*
X132500000Y-132975000D02*
X132500000Y-129675000D01*
%TO.C,U500*%
X119790000Y-135125000D02*
X119790000Y-138125000D01*
X123010000Y-135125000D02*
X123010000Y-138125000D01*
X123170000Y-134585000D02*
X122690000Y-134585000D01*
X122690000Y-134105000D01*
X123170000Y-134585000D01*
G36*
X123170000Y-134585000D02*
G01*
X122690000Y-134585000D01*
X122690000Y-134105000D01*
X123170000Y-134585000D01*
G37*
D10*
%TO.C,U100*%
X97155000Y-114670000D02*
X102435000Y-114670000D01*
X97155000Y-119030000D02*
X97155000Y-114670000D01*
X102435000Y-114670000D02*
X102435000Y-119030000D01*
X102435000Y-119030000D02*
X97155000Y-119030000D01*
X102325000Y-114350000D02*
G75*
G02*
X102265000Y-114350000I-30000J0D01*
G01*
X102265000Y-114350000D02*
G75*
G02*
X102325000Y-114350000I30000J0D01*
G01*
%TO.C,D700*%
X122695000Y-110650000D02*
X122695000Y-112940000D01*
X122695000Y-112940000D02*
X124155000Y-112940000D01*
X124155000Y-112940000D02*
X124155000Y-110650000D01*
D14*
%TO.C,L300*%
X97765000Y-129561508D02*
X97765000Y-130411508D01*
X97765000Y-129561508D02*
X102135000Y-129561508D01*
X97765000Y-134281508D02*
X97765000Y-133431508D01*
X97765000Y-134281508D02*
X102135000Y-134281508D01*
X102135000Y-129561508D02*
X102135000Y-130411508D01*
X102135000Y-134281508D02*
X102135000Y-133431508D01*
%TO.C,U302*%
X126190000Y-133702500D02*
X126665000Y-133702500D01*
X126190000Y-134177500D02*
X126190000Y-133702500D01*
X126190000Y-136447500D02*
X126190000Y-136922500D01*
X126190000Y-136922500D02*
X126665000Y-136922500D01*
X128935000Y-133702500D02*
X129170000Y-133702500D01*
X129410000Y-134177500D02*
X129410000Y-134002500D01*
X129410000Y-136447500D02*
X129410000Y-136922500D01*
X129410000Y-136922500D02*
X128935000Y-136922500D01*
X129740000Y-133942500D02*
X129410000Y-133702500D01*
X129740000Y-133462500D01*
X129740000Y-133942500D01*
G36*
X129740000Y-133942500D02*
G01*
X129410000Y-133702500D01*
X129740000Y-133462500D01*
X129740000Y-133942500D01*
G37*
D10*
%TO.C,D401*%
X130020000Y-107075000D02*
X130020000Y-109365000D01*
X130020000Y-109365000D02*
X131480000Y-109365000D01*
X131480000Y-109365000D02*
X131480000Y-107075000D01*
%TO.C,Q700*%
X129800000Y-127245000D02*
X131200000Y-127245000D01*
X129800000Y-128615000D02*
X129800000Y-128135000D01*
X129800000Y-129505000D02*
X131200000Y-129505000D01*
X131200000Y-127245000D02*
X131200000Y-127965000D01*
X131200000Y-129505000D02*
X131200000Y-128785000D01*
X129530000Y-127275000D02*
G75*
G02*
X129470000Y-127275000I-30000J0D01*
G01*
X129470000Y-127275000D02*
G75*
G02*
X129530000Y-127275000I30000J0D01*
G01*
D14*
%TO.C,U300*%
X96693492Y-136350788D02*
X96693492Y-135550788D01*
X96693492Y-136350788D02*
X96693492Y-137150788D01*
X99813492Y-136350788D02*
X99813492Y-135550788D01*
X99813492Y-136350788D02*
X99813492Y-137150788D01*
D11*
X99953492Y-135050788D02*
G75*
G02*
X99753492Y-135050788I-100000J0D01*
G01*
X99753492Y-135050788D02*
G75*
G02*
X99953492Y-135050788I100000J0D01*
G01*
D12*
%TO.C,LED301*%
X110800000Y-59985000D02*
X110800000Y-51985000D01*
X112600000Y-53510000D02*
X112600000Y-54410000D01*
X112600000Y-54410000D02*
X113800000Y-53960000D01*
X112900000Y-54485000D02*
X113300000Y-54885000D01*
X113300000Y-54885000D02*
X113000000Y-54885000D01*
X113350000Y-54385000D02*
X113750000Y-54785000D01*
X113750000Y-54785000D02*
X113450000Y-54785000D01*
X113800000Y-53510000D02*
X113800000Y-54410000D01*
X113800000Y-53960000D02*
X111800000Y-53960000D01*
X113800000Y-53960000D02*
X112600000Y-53510000D01*
X113800000Y-53960000D02*
X114500000Y-53960000D01*
X115600000Y-51985000D02*
X115600000Y-59985000D01*
X115600000Y-59985000D02*
X110800000Y-59985000D01*
%TD*%
M02*
