%TF.GenerationSoftware,KiCad,Pcbnew,8.0.8-8.0.8-0~ubuntu24.04.1*%
%TF.CreationDate,2025-02-18T22:24:07+00:00*%
%TF.ProjectId,base-module,62617365-2d6d-46f6-9475-6c652e6b6963,1.0.0*%
%TF.SameCoordinates,Original*%
%TF.FileFunction,Soldermask,Top*%
%TF.FilePolarity,Negative*%
%FSLAX46Y46*%
G04 Gerber Fmt 4.6, Leading zero omitted, Abs format (unit mm)*
G04 Created by KiCad (PCBNEW 8.0.8-8.0.8-0~ubuntu24.04.1) date 2025-02-18 22:24:07*
%MOMM*%
%LPD*%
G01*
G04 APERTURE LIST*
G04 Aperture macros list*
%AMRoundRect*
0 Rectangle with rounded corners*
0 $1 Rounding radius*
0 $2 $3 $4 $5 $6 $7 $8 $9 X,Y pos of 4 corners*
0 Add a 4 corners polygon primitive as box body*
4,1,4,$2,$3,$4,$5,$6,$7,$8,$9,$2,$3,0*
0 Add four circle primitives for the rounded corners*
1,1,$1+$1,$2,$3*
1,1,$1+$1,$4,$5*
1,1,$1+$1,$6,$7*
1,1,$1+$1,$8,$9*
0 Add four rect primitives between the rounded corners*
20,1,$1+$1,$2,$3,$4,$5,0*
20,1,$1+$1,$4,$5,$6,$7,0*
20,1,$1+$1,$6,$7,$8,$9,0*
20,1,$1+$1,$8,$9,$2,$3,0*%
%AMFreePoly0*
4,1,6,1.000000,0.000000,0.500000,-0.750000,-0.500000,-0.750000,-0.500000,0.750000,0.500000,0.750000,1.000000,0.000000,1.000000,0.000000,$1*%
%AMFreePoly1*
4,1,6,0.500000,-0.750000,-0.650000,-0.750000,-0.150000,0.000000,-0.650000,0.750000,0.500000,0.750000,0.500000,-0.750000,0.500000,-0.750000,$1*%
G04 Aperture macros list end*
%ADD10C,0.500000*%
%ADD11RoundRect,0.250001X0.999999X-0.499999X0.999999X0.499999X-0.999999X0.499999X-0.999999X-0.499999X0*%
%ADD12FreePoly0,0.000000*%
%ADD13FreePoly1,0.000000*%
%ADD14C,1.000000*%
%ADD15C,1.600000*%
%ADD16RoundRect,0.159000X-0.189000X0.159000X-0.189000X-0.159000X0.189000X-0.159000X0.189000X0.159000X0*%
%ADD17RoundRect,0.159000X0.159000X0.189000X-0.159000X0.189000X-0.159000X-0.189000X0.159000X-0.189000X0*%
%ADD18RoundRect,0.150000X0.587500X0.150000X-0.587500X0.150000X-0.587500X-0.150000X0.587500X-0.150000X0*%
%ADD19RoundRect,0.159000X0.189000X-0.159000X0.189000X0.159000X-0.189000X0.159000X-0.189000X-0.159000X0*%
%ADD20RoundRect,0.159000X-0.159000X-0.189000X0.159000X-0.189000X0.159000X0.189000X-0.159000X0.189000X0*%
%ADD21RoundRect,0.239000X0.274000X-0.239000X0.274000X0.239000X-0.274000X0.239000X-0.274000X-0.239000X0*%
%ADD22RoundRect,0.220000X0.220000X0.255000X-0.220000X0.255000X-0.220000X-0.255000X0.220000X-0.255000X0*%
%ADD23RoundRect,0.050000X-0.437500X-0.050000X0.437500X-0.050000X0.437500X0.050000X-0.437500X0.050000X0*%
%ADD24RoundRect,0.050000X-0.337500X-0.050000X0.337500X-0.050000X0.337500X0.050000X-0.337500X0.050000X0*%
%ADD25RoundRect,0.050000X-0.050000X-0.337500X0.050000X-0.337500X0.050000X0.337500X-0.050000X0.337500X0*%
%ADD26RoundRect,0.244000X-0.269000X0.244000X-0.269000X-0.244000X0.269000X-0.244000X0.269000X0.244000X0*%
%ADD27RoundRect,0.150000X-0.512500X-0.150000X0.512500X-0.150000X0.512500X0.150000X-0.512500X0.150000X0*%
%ADD28RoundRect,0.150000X-0.587500X-0.150000X0.587500X-0.150000X0.587500X0.150000X-0.587500X0.150000X0*%
%ADD29RoundRect,0.239000X-0.274000X0.239000X-0.274000X-0.239000X0.274000X-0.239000X0.274000X0.239000X0*%
%ADD30RoundRect,0.244000X0.244000X0.269000X-0.244000X0.269000X-0.244000X-0.269000X0.244000X-0.269000X0*%
%ADD31RoundRect,0.250000X0.450000X0.350000X-0.450000X0.350000X-0.450000X-0.350000X0.450000X-0.350000X0*%
%ADD32RoundRect,0.075000X-0.075000X0.662500X-0.075000X-0.662500X0.075000X-0.662500X0.075000X0.662500X0*%
%ADD33RoundRect,0.075000X-0.662500X0.075000X-0.662500X-0.075000X0.662500X-0.075000X0.662500X0.075000X0*%
%ADD34RoundRect,0.075000X-0.075000X0.725000X-0.075000X-0.725000X0.075000X-0.725000X0.075000X0.725000X0*%
%ADD35RoundRect,0.075000X-0.725000X0.075000X-0.725000X-0.075000X0.725000X-0.075000X0.725000X0.075000X0*%
%ADD36C,0.650000*%
%ADD37RoundRect,0.150000X0.150000X0.425000X-0.150000X0.425000X-0.150000X-0.425000X0.150000X-0.425000X0*%
%ADD38RoundRect,0.075000X0.075000X0.500000X-0.075000X0.500000X-0.075000X-0.500000X0.075000X-0.500000X0*%
%ADD39O,1.000000X2.100000*%
%ADD40O,1.000000X1.800000*%
%ADD41RoundRect,0.244000X-0.244000X-0.269000X0.244000X-0.269000X0.244000X0.269000X-0.244000X0.269000X0*%
%ADD42C,2.850000*%
%ADD43RoundRect,0.249999X0.525001X0.525001X-0.525001X0.525001X-0.525001X-0.525001X0.525001X-0.525001X0*%
%ADD44C,1.550000*%
%ADD45RoundRect,0.220000X-0.220000X-0.255000X0.220000X-0.255000X0.220000X0.255000X-0.220000X0.255000X0*%
%ADD46C,1.300000*%
%ADD47C,2.286000*%
%ADD48RoundRect,0.075000X-0.075000X0.350000X-0.075000X-0.350000X0.075000X-0.350000X0.075000X0.350000X0*%
%ADD49R,2.400000X1.600000*%
%ADD50RoundRect,0.250000X0.250000X-0.650000X0.250000X0.650000X-0.250000X0.650000X-0.250000X-0.650000X0*%
%ADD51RoundRect,0.159000X0.246073X0.021213X0.021213X0.246073X-0.246073X-0.021213X-0.021213X-0.246073X0*%
%ADD52R,1.400000X1.200000*%
%ADD53O,0.630000X2.250000*%
%ADD54RoundRect,0.250001X-0.499999X-0.999999X0.499999X-0.999999X0.499999X0.999999X-0.499999X0.999999X0*%
%ADD55RoundRect,0.062500X-0.062500X0.350000X-0.062500X-0.350000X0.062500X-0.350000X0.062500X0.350000X0*%
%ADD56RoundRect,0.062500X-0.350000X0.062500X-0.350000X-0.062500X0.350000X-0.062500X0.350000X0.062500X0*%
%ADD57R,1.700000X1.700000*%
%ADD58RoundRect,0.125000X0.345000X0.125000X-0.345000X0.125000X-0.345000X-0.125000X0.345000X-0.125000X0*%
%ADD59RoundRect,0.150000X-0.150000X0.512500X-0.150000X-0.512500X0.150000X-0.512500X0.150000X0.512500X0*%
G04 APERTURE END LIST*
D10*
X114500000Y-128625000D02*
X95300000Y-128625000D01*
X95300000Y-133425000D02*
X95300000Y-128625000D01*
X103700000Y-133425000D02*
X103700000Y-128625000D01*
D11*
%TO.C,L301*%
X107120720Y-134271542D03*
X107120720Y-130571542D03*
%TD*%
D12*
%TO.C,JP300*%
X103725000Y-136675000D03*
D13*
X105175000Y-136675000D03*
%TD*%
D14*
%TO.C,TP302*%
X132750000Y-105325000D03*
%TD*%
D15*
%TO.C,LED300*%
X106863600Y-55785000D03*
X109403600Y-55785000D03*
X106863600Y-58325000D03*
X109403600Y-58325000D03*
%TD*%
D16*
%TO.C,R903*%
X126850000Y-131625000D03*
X126850000Y-132625000D03*
%TD*%
D17*
%TO.C,R308*%
X127200000Y-138375000D03*
X126200000Y-138375000D03*
%TD*%
D18*
%TO.C,U802*%
X122387500Y-62765001D03*
X122387500Y-60865001D03*
X120512500Y-61815001D03*
%TD*%
D19*
%TO.C,C501*%
X119100000Y-138075000D03*
X119100000Y-137075000D03*
%TD*%
D20*
%TO.C,R716*%
X123000000Y-128525000D03*
X124000000Y-128525000D03*
%TD*%
D16*
%TO.C,R306*%
X114070720Y-132821542D03*
X114070720Y-133821542D03*
%TD*%
D21*
%TO.C,D301*%
X124850000Y-138365000D03*
X124850000Y-136785000D03*
%TD*%
D22*
%TO.C,FB400*%
X106740000Y-105225000D03*
X105160000Y-105225000D03*
%TD*%
D19*
%TO.C,C601*%
X114550000Y-138075000D03*
X114550000Y-137075000D03*
%TD*%
D17*
%TO.C,R301*%
X97650000Y-138871508D03*
X96650000Y-138871508D03*
%TD*%
%TO.C,C408*%
X105200000Y-106475000D03*
X104200000Y-106475000D03*
%TD*%
D19*
%TO.C,R600*%
X119100000Y-135925000D03*
X119100000Y-134925000D03*
%TD*%
D20*
%TO.C,C400*%
X115575000Y-107650000D03*
X116575000Y-107650000D03*
%TD*%
D17*
%TO.C,C313*%
X114250000Y-106025000D03*
X113250000Y-106025000D03*
%TD*%
D20*
%TO.C,R801*%
X124350000Y-62675000D03*
X125350000Y-62675000D03*
%TD*%
D17*
%TO.C,C600*%
X117300000Y-134025000D03*
X116300000Y-134025000D03*
%TD*%
%TO.C,C407*%
X107675000Y-107375000D03*
X106675000Y-107375000D03*
%TD*%
D20*
%TO.C,C314*%
X115200000Y-106025000D03*
X116200000Y-106025000D03*
%TD*%
D23*
%TO.C,U801*%
X132087500Y-137600000D03*
D24*
X131987500Y-138000000D03*
D25*
X132250000Y-138662500D03*
X132650000Y-138662500D03*
X133050000Y-138662500D03*
D24*
X133312500Y-138000000D03*
X133312500Y-137600000D03*
D25*
X133050000Y-136937500D03*
X132650000Y-136937500D03*
X132250000Y-136937500D03*
%TD*%
D14*
%TO.C,TP701*%
X133250000Y-113725000D03*
%TD*%
D26*
%TO.C,C304*%
X94646542Y-136211059D03*
X94646542Y-137771059D03*
%TD*%
D16*
%TO.C,C305*%
X96090000Y-134071508D03*
X96090000Y-135071508D03*
%TD*%
D17*
%TO.C,R404*%
X119950000Y-107645000D03*
X118950000Y-107645000D03*
%TD*%
D27*
%TO.C,U301*%
X110412500Y-133168050D03*
X110412500Y-134118050D03*
X110412500Y-135068050D03*
X112687500Y-135068050D03*
X112687500Y-134118050D03*
X112687500Y-133168050D03*
%TD*%
D17*
%TO.C,C500*%
X121900000Y-134025000D03*
X120900000Y-134025000D03*
%TD*%
D16*
%TO.C,R902*%
X127750000Y-131625000D03*
X127750000Y-132625000D03*
%TD*%
D21*
%TO.C,D400*%
X129240000Y-108665000D03*
X129240000Y-107085000D03*
%TD*%
D28*
%TO.C,U200*%
X131832500Y-141212501D03*
X131832500Y-143112501D03*
X133707500Y-142162501D03*
%TD*%
D16*
%TO.C,R700*%
X121325000Y-115925000D03*
X121325000Y-116925000D03*
%TD*%
D20*
%TO.C,R405*%
X100080000Y-59675000D03*
X101080000Y-59675000D03*
%TD*%
D19*
%TO.C,R409*%
X114450000Y-61725000D03*
X114450000Y-60725000D03*
%TD*%
%TO.C,R400*%
X113550000Y-61725000D03*
X113550000Y-60725000D03*
%TD*%
%TO.C,R411*%
X126950000Y-108375000D03*
X126950000Y-107375000D03*
%TD*%
D16*
%TO.C,C410*%
X123100000Y-113600000D03*
X123100000Y-114600000D03*
%TD*%
D29*
%TO.C,D701*%
X125175000Y-110660000D03*
X125175000Y-112240000D03*
%TD*%
D16*
%TO.C,R701*%
X124000000Y-115925000D03*
X124000000Y-116925000D03*
%TD*%
%TO.C,C405*%
X121275000Y-110350000D03*
X121275000Y-111350000D03*
%TD*%
D30*
%TO.C,C301*%
X102180000Y-136171508D03*
X100620000Y-136171508D03*
%TD*%
D19*
%TO.C,C300*%
X100400000Y-138281508D03*
X100400000Y-137281508D03*
%TD*%
D21*
%TO.C,D402*%
X132240000Y-108665000D03*
X132240000Y-107085000D03*
%TD*%
D31*
%TO.C,Y700*%
X130150000Y-113525000D03*
X127950000Y-113525000D03*
X127950000Y-115125000D03*
X130150000Y-115125000D03*
%TD*%
D32*
%TO.C,U700*%
X130400000Y-117762500D03*
X129900000Y-117762500D03*
X129400000Y-117762500D03*
X128900000Y-117762500D03*
X128400000Y-117762500D03*
X127900000Y-117762500D03*
X127400000Y-117762500D03*
X126900000Y-117762500D03*
X126400000Y-117762500D03*
X125900000Y-117762500D03*
X125400000Y-117762500D03*
X124900000Y-117762500D03*
D33*
X123487500Y-119175000D03*
X123487500Y-119675000D03*
X123487500Y-120175000D03*
X123487500Y-120675000D03*
X123487500Y-121175000D03*
X123487500Y-121675000D03*
X123487500Y-122175000D03*
X123487500Y-122675000D03*
X123487500Y-123175000D03*
X123487500Y-123675000D03*
X123487500Y-124175000D03*
X123487500Y-124675000D03*
D32*
X124900000Y-126087500D03*
X125400000Y-126087500D03*
X125900000Y-126087500D03*
X126400000Y-126087500D03*
X126900000Y-126087500D03*
X127400000Y-126087500D03*
X127900000Y-126087500D03*
X128400000Y-126087500D03*
X128900000Y-126087500D03*
X129400000Y-126087500D03*
X129900000Y-126087500D03*
X130400000Y-126087500D03*
D33*
X131812500Y-124675000D03*
X131812500Y-124175000D03*
X131812500Y-123675000D03*
X131812500Y-123175000D03*
X131812500Y-122675000D03*
X131812500Y-122175000D03*
X131812500Y-121675000D03*
X131812500Y-121175000D03*
X131812500Y-120675000D03*
X131812500Y-120175000D03*
X131812500Y-119675000D03*
X131812500Y-119175000D03*
%TD*%
D14*
%TO.C,TP700*%
X133250000Y-111725000D03*
%TD*%
D20*
%TO.C,R707*%
X122850000Y-109375000D03*
X123850000Y-109375000D03*
%TD*%
D34*
%TO.C,U400*%
X118075000Y-109175000D03*
X117575000Y-109175000D03*
X117075000Y-109175000D03*
X116575000Y-109175000D03*
X116075000Y-109175000D03*
X115575000Y-109175000D03*
X115075000Y-109175000D03*
X114575000Y-109175000D03*
X114075000Y-109175000D03*
X113575000Y-109175000D03*
X113075000Y-109175000D03*
X112575000Y-109175000D03*
X112075000Y-109175000D03*
X111575000Y-109175000D03*
X111075000Y-109175000D03*
X110575000Y-109175000D03*
X110075000Y-109175000D03*
X109575000Y-109175000D03*
X109075000Y-109175000D03*
X108575000Y-109175000D03*
X108075000Y-109175000D03*
X107575000Y-109175000D03*
X107075000Y-109175000D03*
X106575000Y-109175000D03*
X106075000Y-109175000D03*
D35*
X104400000Y-110850000D03*
X104400000Y-111350000D03*
X104400000Y-111850000D03*
X104400000Y-112350000D03*
X104400000Y-112850000D03*
X104400000Y-113350000D03*
X104400000Y-113850000D03*
X104400000Y-114350000D03*
X104400000Y-114850000D03*
X104400000Y-115350000D03*
X104400000Y-115850000D03*
X104400000Y-116350000D03*
X104400000Y-116850000D03*
X104400000Y-117350000D03*
X104400000Y-117850000D03*
X104400000Y-118350000D03*
X104400000Y-118850000D03*
X104400000Y-119350000D03*
X104400000Y-119850000D03*
X104400000Y-120350000D03*
X104400000Y-120850000D03*
X104400000Y-121350000D03*
X104400000Y-121850000D03*
X104400000Y-122350000D03*
X104400000Y-122850000D03*
D34*
X106075000Y-124525000D03*
X106575000Y-124525000D03*
X107075000Y-124525000D03*
X107575000Y-124525000D03*
X108075000Y-124525000D03*
X108575000Y-124525000D03*
X109075000Y-124525000D03*
X109575000Y-124525000D03*
X110075000Y-124525000D03*
X110575000Y-124525000D03*
X111075000Y-124525000D03*
X111575000Y-124525000D03*
X112075000Y-124525000D03*
X112575000Y-124525000D03*
X113075000Y-124525000D03*
X113575000Y-124525000D03*
X114075000Y-124525000D03*
X114575000Y-124525000D03*
X115075000Y-124525000D03*
X115575000Y-124525000D03*
X116075000Y-124525000D03*
X116575000Y-124525000D03*
X117075000Y-124525000D03*
X117575000Y-124525000D03*
X118075000Y-124525000D03*
D35*
X119750000Y-122850000D03*
X119750000Y-122350000D03*
X119750000Y-121850000D03*
X119750000Y-121350000D03*
X119750000Y-120850000D03*
X119750000Y-120350000D03*
X119750000Y-119850000D03*
X119750000Y-119350000D03*
X119750000Y-118850000D03*
X119750000Y-118350000D03*
X119750000Y-117850000D03*
X119750000Y-117350000D03*
X119750000Y-116850000D03*
X119750000Y-116350000D03*
X119750000Y-115850000D03*
X119750000Y-115350000D03*
X119750000Y-114850000D03*
X119750000Y-114350000D03*
X119750000Y-113850000D03*
X119750000Y-113350000D03*
X119750000Y-112850000D03*
X119750000Y-112350000D03*
X119750000Y-111850000D03*
X119750000Y-111350000D03*
X119750000Y-110850000D03*
%TD*%
D17*
%TO.C,C409*%
X105200000Y-107375000D03*
X104200000Y-107375000D03*
%TD*%
%TO.C,C708*%
X128600000Y-116235000D03*
X127600000Y-116235000D03*
%TD*%
D16*
%TO.C,R705*%
X132900000Y-115125000D03*
X132900000Y-116125000D03*
%TD*%
%TO.C,R307*%
X114070720Y-134721542D03*
X114070720Y-135721542D03*
%TD*%
D20*
%TO.C,R711*%
X132550000Y-128175000D03*
X133550000Y-128175000D03*
%TD*%
%TO.C,R710*%
X132550000Y-127275000D03*
X133550000Y-127275000D03*
%TD*%
%TO.C,R715*%
X123000000Y-127650000D03*
X124000000Y-127650000D03*
%TD*%
D16*
%TO.C,C801*%
X116250000Y-60725000D03*
X116250000Y-61725000D03*
%TD*%
D14*
%TO.C,TP300*%
X128750000Y-105325000D03*
%TD*%
D19*
%TO.C,C402*%
X102875000Y-111350000D03*
X102875000Y-110350000D03*
%TD*%
D12*
%TO.C,JP301*%
X112970720Y-130225000D03*
D13*
X114420720Y-130225000D03*
%TD*%
D36*
%TO.C,J800*%
X124940000Y-57640000D03*
X119160000Y-57640000D03*
D37*
X125250000Y-58715000D03*
X124450000Y-58715000D03*
D38*
X123300000Y-58715000D03*
X122300000Y-58715000D03*
X121800000Y-58715000D03*
X120800000Y-58715000D03*
D37*
X119650000Y-58715000D03*
X118850000Y-58715000D03*
X118850000Y-58715000D03*
X119650000Y-58715000D03*
D38*
X120300000Y-58715000D03*
X121300000Y-58715000D03*
X122800000Y-58715000D03*
X123800000Y-58715000D03*
D37*
X124450000Y-58715000D03*
X125250000Y-58715000D03*
D39*
X126370000Y-58140000D03*
D40*
X126370000Y-53960000D03*
D39*
X117730000Y-58140000D03*
D40*
X117730000Y-53960000D03*
%TD*%
D20*
%TO.C,C311*%
X109270720Y-136281542D03*
X110270720Y-136281542D03*
%TD*%
D14*
%TO.C,TP301*%
X130750000Y-105325000D03*
%TD*%
D20*
%TO.C,C707*%
X129500000Y-116225000D03*
X130500000Y-116225000D03*
%TD*%
D16*
%TO.C,R901*%
X123900000Y-132725000D03*
X123900000Y-133725000D03*
%TD*%
D17*
%TO.C,R709*%
X133550000Y-129075000D03*
X132550000Y-129075000D03*
%TD*%
D16*
%TO.C,R805*%
X117150000Y-60725000D03*
X117150000Y-61725000D03*
%TD*%
%TO.C,R800*%
X118050000Y-60725000D03*
X118050000Y-61725000D03*
%TD*%
D41*
%TO.C,C310*%
X111420720Y-136481542D03*
X112980720Y-136481542D03*
%TD*%
D16*
%TO.C,R402*%
X122200000Y-113600000D03*
X122200000Y-114600000D03*
%TD*%
D19*
%TO.C,R702*%
X133300000Y-122175000D03*
X133300000Y-121175000D03*
%TD*%
D41*
%TO.C,C309*%
X111410271Y-137725000D03*
X112970271Y-137725000D03*
%TD*%
D19*
%TO.C,C900*%
X130450000Y-134575000D03*
X130450000Y-133575000D03*
%TD*%
D16*
%TO.C,C404*%
X118975000Y-124600000D03*
X118975000Y-125600000D03*
%TD*%
%TO.C,R802*%
X132550000Y-133525000D03*
X132550000Y-134525000D03*
%TD*%
D20*
%TO.C,C701*%
X131350000Y-117625000D03*
X132350000Y-117625000D03*
%TD*%
D17*
%TO.C,R300*%
X99550000Y-138871508D03*
X98550000Y-138871508D03*
%TD*%
D42*
%TO.C,J200*%
X133820000Y-148515000D03*
X44920000Y-148515000D03*
D43*
X128740000Y-145975000D03*
D44*
X126200000Y-145975000D03*
X123660000Y-145975000D03*
X121120000Y-145975000D03*
X118580000Y-145975000D03*
X116040000Y-145975000D03*
X113500000Y-145975000D03*
X110960000Y-145975000D03*
X108420000Y-145975000D03*
X105880000Y-145975000D03*
X103340000Y-145975000D03*
X100800000Y-145975000D03*
X98260000Y-145975000D03*
X95720000Y-145975000D03*
X93180000Y-145975000D03*
X90640000Y-145975000D03*
X88100000Y-145975000D03*
X85560000Y-145975000D03*
X83020000Y-145975000D03*
X80480000Y-145975000D03*
X77940000Y-145975000D03*
X75400000Y-145975000D03*
X72860000Y-145975000D03*
X70320000Y-145975000D03*
X67780000Y-145975000D03*
X65240000Y-145975000D03*
X62700000Y-145975000D03*
X60160000Y-145975000D03*
X57620000Y-145975000D03*
X55080000Y-145975000D03*
X52540000Y-145975000D03*
X50000000Y-145975000D03*
X128740000Y-143435000D03*
X126200000Y-143435000D03*
X123660000Y-143435000D03*
X121120000Y-143435000D03*
X118580000Y-143435000D03*
X116040000Y-143435000D03*
X113500000Y-143435000D03*
X110960000Y-143435000D03*
X108420000Y-143435000D03*
X105880000Y-143435000D03*
X103340000Y-143435000D03*
X100800000Y-143435000D03*
X98260000Y-143435000D03*
X95720000Y-143435000D03*
X93180000Y-143435000D03*
X90640000Y-143435000D03*
X88100000Y-143435000D03*
X85560000Y-143435000D03*
X83020000Y-143435000D03*
X80480000Y-143435000D03*
X77940000Y-143435000D03*
X75400000Y-143435000D03*
X72860000Y-143435000D03*
X70320000Y-143435000D03*
X67780000Y-143435000D03*
X65240000Y-143435000D03*
X62700000Y-143435000D03*
X60160000Y-143435000D03*
X57620000Y-143435000D03*
X55080000Y-143435000D03*
X52540000Y-143435000D03*
X50000000Y-143435000D03*
X128740000Y-140895000D03*
X126200000Y-140895000D03*
X123660000Y-140895000D03*
X121120000Y-140895000D03*
X118580000Y-140895000D03*
X116040000Y-140895000D03*
X113500000Y-140895000D03*
X110960000Y-140895000D03*
X108420000Y-140895000D03*
X105880000Y-140895000D03*
X103340000Y-140895000D03*
X100800000Y-140895000D03*
X98260000Y-140895000D03*
X95720000Y-140895000D03*
X93180000Y-140895000D03*
X90640000Y-140895000D03*
X88100000Y-140895000D03*
X85560000Y-140895000D03*
X83020000Y-140895000D03*
X80480000Y-140895000D03*
X77940000Y-140895000D03*
X75400000Y-140895000D03*
X72860000Y-140895000D03*
X70320000Y-140895000D03*
X67780000Y-140895000D03*
X65240000Y-140895000D03*
X62700000Y-140895000D03*
X60160000Y-140895000D03*
X57620000Y-140895000D03*
X55080000Y-140895000D03*
X52540000Y-140895000D03*
X50000000Y-140895000D03*
%TD*%
D20*
%TO.C,C700*%
X122000000Y-125875000D03*
X123000000Y-125875000D03*
%TD*%
D19*
%TO.C,R500*%
X123650000Y-138075000D03*
X123650000Y-137075000D03*
%TD*%
D17*
%TO.C,C406*%
X107675000Y-106475000D03*
X106675000Y-106475000D03*
%TD*%
%TO.C,C411*%
X109925000Y-107025000D03*
X108925000Y-107025000D03*
%TD*%
D16*
%TO.C,C704*%
X133290000Y-118922500D03*
X133290000Y-119922500D03*
%TD*%
D19*
%TO.C,C902*%
X131350000Y-134575000D03*
X131350000Y-133575000D03*
%TD*%
D20*
%TO.C,C312*%
X132650000Y-135775000D03*
X133650000Y-135775000D03*
%TD*%
D19*
%TO.C,C702*%
X122010000Y-124927500D03*
X122010000Y-123927500D03*
%TD*%
D16*
%TO.C,R706*%
X131950000Y-115125000D03*
X131950000Y-116125000D03*
%TD*%
D19*
%TO.C,R803*%
X133450000Y-134525000D03*
X133450000Y-133525000D03*
%TD*%
D26*
%TO.C,C307*%
X110108674Y-130191542D03*
X110108674Y-131751542D03*
%TD*%
D17*
%TO.C,C306*%
X113480720Y-131971542D03*
X112480720Y-131971542D03*
%TD*%
D19*
%TO.C,R401*%
X121300000Y-114600000D03*
X121300000Y-113600000D03*
%TD*%
D45*
%TO.C,F300*%
X103610000Y-138775000D03*
X105190000Y-138775000D03*
%TD*%
D20*
%TO.C,R714*%
X123000000Y-126775000D03*
X124000000Y-126775000D03*
%TD*%
D16*
%TO.C,R900*%
X124800000Y-132725000D03*
X124800000Y-133725000D03*
%TD*%
D20*
%TO.C,C414*%
X117075000Y-126050000D03*
X118075000Y-126050000D03*
%TD*%
D46*
%TO.C,SW400*%
X103080000Y-54575000D03*
X101450000Y-54575000D03*
X99710000Y-54575000D03*
X98080000Y-54575000D03*
D47*
X104080000Y-56825000D03*
X97080000Y-56825000D03*
%TD*%
D48*
%TO.C,U600*%
X117775000Y-135175000D03*
X117125000Y-135175000D03*
X116475000Y-135175000D03*
X115825000Y-135175000D03*
X115825000Y-138075000D03*
X116475000Y-138075000D03*
X117125000Y-138075000D03*
X117775000Y-138075000D03*
D49*
X116800000Y-136625000D03*
%TD*%
D50*
%TO.C,X300*%
X113475000Y-104550000D03*
X115975000Y-104550000D03*
%TD*%
D17*
%TO.C,R406*%
X101080000Y-57875000D03*
X100080000Y-57875000D03*
%TD*%
D19*
%TO.C,R412*%
X126050000Y-108375000D03*
X126050000Y-107375000D03*
%TD*%
%TO.C,C706*%
X122200000Y-116925000D03*
X122200000Y-115925000D03*
%TD*%
D20*
%TO.C,C800*%
X124350000Y-60525000D03*
X125350000Y-60525000D03*
%TD*%
D30*
%TO.C,C302*%
X102180000Y-134909462D03*
X100620000Y-134909462D03*
%TD*%
D20*
%TO.C,C401*%
X112825000Y-107475000D03*
X113825000Y-107475000D03*
%TD*%
%TO.C,C705*%
X125700000Y-116235000D03*
X126700000Y-116235000D03*
%TD*%
D51*
%TO.C,R712*%
X128553553Y-129028553D03*
X127846447Y-128321447D03*
%TD*%
D31*
%TO.C,X400*%
X111475000Y-104250000D03*
X109275000Y-104250000D03*
X109275000Y-105850000D03*
X111475000Y-105850000D03*
%TD*%
D16*
%TO.C,R708*%
X121900000Y-120675000D03*
X121900000Y-121675000D03*
%TD*%
D17*
%TO.C,C403*%
X104325000Y-123750000D03*
X103325000Y-123750000D03*
%TD*%
D19*
%TO.C,R410*%
X127850000Y-108375000D03*
X127850000Y-107375000D03*
%TD*%
D52*
%TO.C,Y900*%
X131600000Y-130475000D03*
X129400000Y-130475000D03*
X129400000Y-132175000D03*
X131600000Y-132175000D03*
%TD*%
D48*
%TO.C,U500*%
X122375000Y-135175000D03*
X121725000Y-135175000D03*
X121075000Y-135175000D03*
X120425000Y-135175000D03*
X120425000Y-138075000D03*
X121075000Y-138075000D03*
X121725000Y-138075000D03*
X122375000Y-138075000D03*
D49*
X121400000Y-136625000D03*
%TD*%
D20*
%TO.C,R713*%
X124750000Y-109375000D03*
X125750000Y-109375000D03*
%TD*%
%TO.C,C412*%
X110825000Y-107025000D03*
X111825000Y-107025000D03*
%TD*%
%TO.C,C415*%
X118960000Y-105865000D03*
X119960000Y-105865000D03*
%TD*%
D53*
%TO.C,U100*%
X101705000Y-113320000D03*
X100435000Y-113320000D03*
X99155000Y-113320000D03*
X97885000Y-113320000D03*
X97885000Y-120380000D03*
X99155000Y-120380000D03*
X100435000Y-120380000D03*
X101705000Y-120380000D03*
%TD*%
D21*
%TO.C,D700*%
X123425000Y-112240000D03*
X123425000Y-110660000D03*
%TD*%
D16*
%TO.C,C413*%
X102875000Y-121850000D03*
X102875000Y-122850000D03*
%TD*%
D54*
%TO.C,L300*%
X98100000Y-131921508D03*
X101800000Y-131921508D03*
%TD*%
D19*
%TO.C,C100*%
X102850000Y-120925000D03*
X102850000Y-119925000D03*
%TD*%
D55*
%TO.C,U302*%
X128550000Y-133850000D03*
X128050000Y-133850000D03*
X127550000Y-133850000D03*
X127050000Y-133850000D03*
D56*
X126337500Y-134562500D03*
X126337500Y-135062500D03*
X126337500Y-135562500D03*
X126337500Y-136062500D03*
D55*
X127050000Y-136775000D03*
X127550000Y-136775000D03*
X128050000Y-136775000D03*
X128550000Y-136775000D03*
D56*
X129262500Y-136062500D03*
X129262500Y-135562500D03*
X129262500Y-135062500D03*
X129262500Y-134562500D03*
D57*
X127800000Y-135312500D03*
%TD*%
D20*
%TO.C,C703*%
X131350000Y-126275000D03*
X132350000Y-126275000D03*
%TD*%
D21*
%TO.C,D401*%
X130750000Y-108665000D03*
X130750000Y-107085000D03*
%TD*%
D19*
%TO.C,R408*%
X115350000Y-61725000D03*
X115350000Y-60725000D03*
%TD*%
D17*
%TO.C,R403*%
X119960000Y-106765000D03*
X118960000Y-106765000D03*
%TD*%
D19*
%TO.C,R703*%
X123100000Y-116925000D03*
X123100000Y-115925000D03*
%TD*%
D26*
%TO.C,C308*%
X111370720Y-130191542D03*
X111370720Y-131751542D03*
%TD*%
D19*
%TO.C,R407*%
X112650000Y-61725000D03*
X112650000Y-60725000D03*
%TD*%
D58*
%TO.C,Q700*%
X129600000Y-127725000D03*
X129600000Y-129025000D03*
X131400000Y-128375000D03*
%TD*%
D16*
%TO.C,C904*%
X130450000Y-135525000D03*
X130450000Y-136525000D03*
%TD*%
D17*
%TO.C,C416*%
X101080000Y-58775000D03*
X100080000Y-58775000D03*
%TD*%
D20*
%TO.C,R804*%
X134450000Y-138925000D03*
X135450000Y-138925000D03*
%TD*%
D59*
%TO.C,U300*%
X99203492Y-135213288D03*
X98253492Y-135213288D03*
X97303492Y-135213288D03*
X97303492Y-137488288D03*
X98253492Y-137488288D03*
X99203492Y-137488288D03*
%TD*%
D26*
%TO.C,C303*%
X95890000Y-136221508D03*
X95890000Y-137781508D03*
%TD*%
D15*
%TO.C,LED301*%
X111913600Y-55785000D03*
X114453600Y-55785000D03*
X111913600Y-58325000D03*
X114453600Y-58325000D03*
%TD*%
D20*
%TO.C,R704*%
X121050000Y-127650000D03*
X122050000Y-127650000D03*
%TD*%
M02*
