%TF.GenerationSoftware,KiCad,Pcbnew,8.0.8-8.0.8-0~ubuntu24.04.1*%
%TF.CreationDate,2025-02-18T22:24:07+00:00*%
%TF.ProjectId,base-module,62617365-2d6d-46f6-9475-6c652e6b6963,1.0.0*%
%TF.SameCoordinates,Original*%
%TF.FileFunction,Copper,L4,Bot*%
%TF.FilePolarity,Positive*%
%FSLAX46Y46*%
G04 Gerber Fmt 4.6, Leading zero omitted, Abs format (unit mm)*
G04 Created by KiCad (PCBNEW 8.0.8-8.0.8-0~ubuntu24.04.1) date 2025-02-18 22:24:07*
%MOMM*%
%LPD*%
G01*
G04 APERTURE LIST*
G04 Aperture macros list*
%AMRoundRect*
0 Rectangle with rounded corners*
0 $1 Rounding radius*
0 $2 $3 $4 $5 $6 $7 $8 $9 X,Y pos of 4 corners*
0 Add a 4 corners polygon primitive as box body*
4,1,4,$2,$3,$4,$5,$6,$7,$8,$9,$2,$3,0*
0 Add four circle primitives for the rounded corners*
1,1,$1+$1,$2,$3*
1,1,$1+$1,$4,$5*
1,1,$1+$1,$6,$7*
1,1,$1+$1,$8,$9*
0 Add four rect primitives between the rounded corners*
20,1,$1+$1,$2,$3,$4,$5,0*
20,1,$1+$1,$4,$5,$6,$7,0*
20,1,$1+$1,$6,$7,$8,$9,0*
20,1,$1+$1,$8,$9,$2,$3,0*%
G04 Aperture macros list end*
%TA.AperFunction,ComponentPad*%
%ADD10C,1.600000*%
%TD*%
%TA.AperFunction,HeatsinkPad*%
%ADD11O,1.000000X2.100000*%
%TD*%
%TA.AperFunction,HeatsinkPad*%
%ADD12O,1.000000X1.800000*%
%TD*%
%TA.AperFunction,ComponentPad*%
%ADD13RoundRect,0.249999X0.525001X0.525001X-0.525001X0.525001X-0.525001X-0.525001X0.525001X-0.525001X0*%
%TD*%
%TA.AperFunction,ComponentPad*%
%ADD14C,1.550000*%
%TD*%
%TA.AperFunction,ComponentPad*%
%ADD15C,1.300000*%
%TD*%
%TA.AperFunction,ComponentPad*%
%ADD16C,2.286000*%
%TD*%
%TA.AperFunction,SMDPad,CuDef*%
%ADD17C,1.000000*%
%TD*%
%TA.AperFunction,ViaPad*%
%ADD18C,0.500000*%
%TD*%
%TA.AperFunction,Conductor*%
%ADD19C,0.300000*%
%TD*%
%TA.AperFunction,Conductor*%
%ADD20C,0.150000*%
%TD*%
%TA.AperFunction,Conductor*%
%ADD21C,0.200000*%
%TD*%
%TA.AperFunction,Conductor*%
%ADD22C,0.100000*%
%TD*%
G04 APERTURE END LIST*
D10*
%TO.P,LED300,1*%
%TO.N,Net-(LED300-Pad1)*%
X106863600Y-55785000D03*
%TO.P,LED300,2*%
%TO.N,GND*%
X109403600Y-55785000D03*
%TO.P,LED300,3*%
%TO.N,Net-(LED300-Pad3)*%
X106863600Y-58325000D03*
%TO.P,LED300,4*%
%TO.N,GND*%
X109403600Y-58325000D03*
%TD*%
D11*
%TO.P,J800,S1,SHIELD*%
%TO.N,Net-(J800-SHIELD)*%
X126370000Y-58140000D03*
D12*
X126370000Y-53960000D03*
D11*
X117730000Y-58140000D03*
D12*
X117730000Y-53960000D03*
%TD*%
D13*
%TO.P,J200,a1,a1*%
%TO.N,GND*%
X128740000Y-145975000D03*
D14*
%TO.P,J200,a2,a2*%
%TO.N,/Backplane/BACKPLANE.D+*%
X126200000Y-145975000D03*
%TO.P,J200,a3,a3*%
%TO.N,+5V_STDBY*%
X123660000Y-145975000D03*
%TO.P,J200,a4,a4*%
%TO.N,GND*%
X121120000Y-145975000D03*
%TO.P,J200,a5,a5*%
%TO.N,/Backplane/CAN1.+*%
X118580000Y-145975000D03*
%TO.P,J200,a6,a6*%
%TO.N,/Backplane/CAN1.-*%
X116040000Y-145975000D03*
%TO.P,J200,a7,a7*%
%TO.N,GND*%
X113500000Y-145975000D03*
%TO.P,J200,a8,a8*%
%TO.N,/Backplane/CAN2.+*%
X110960000Y-145975000D03*
%TO.P,J200,a9,a9*%
%TO.N,/Backplane/CAN2.-*%
X108420000Y-145975000D03*
%TO.P,J200,a10,a10*%
%TO.N,GND*%
X105880000Y-145975000D03*
%TO.P,J200,a11,a11*%
%TO.N,+12V*%
X103340000Y-145975000D03*
%TO.P,J200,a12,a12*%
X100800000Y-145975000D03*
%TO.P,J200,a13,a13*%
%TO.N,GND*%
X98260000Y-145975000D03*
%TO.P,J200,a14,a14*%
%TO.N,+24V*%
X95720000Y-145975000D03*
%TO.P,J200,a15,a15*%
%TO.N,GND*%
X93180000Y-145975000D03*
%TO.P,J200,a16,a16*%
%TO.N,/Backplane/GPIOL0*%
X90640000Y-145975000D03*
%TO.P,J200,a17,a17*%
%TO.N,/Backplane/GPIOL1*%
X88100000Y-145975000D03*
%TO.P,J200,a18,a18*%
%TO.N,/Backplane/GPIOL2*%
X85560000Y-145975000D03*
%TO.P,J200,a19,a19*%
%TO.N,/Backplane/GPIOL3*%
X83020000Y-145975000D03*
%TO.P,J200,a20,a20*%
%TO.N,/Backplane/GPIOL4*%
X80480000Y-145975000D03*
%TO.P,J200,a21,a21*%
%TO.N,/Backplane/GPIOL5*%
X77940000Y-145975000D03*
%TO.P,J200,a22,a22*%
%TO.N,/Backplane/GPIOL6*%
X75400000Y-145975000D03*
%TO.P,J200,a23,a23*%
%TO.N,/Backplane/GPIOL7*%
X72860000Y-145975000D03*
%TO.P,J200,a24,a24*%
%TO.N,/Backplane/GPIOL8*%
X70320000Y-145975000D03*
%TO.P,J200,a25,a25*%
%TO.N,/Backplane/GPIOL9*%
X67780000Y-145975000D03*
%TO.P,J200,a26,a26*%
%TO.N,/Backplane/GPIOL10*%
X65240000Y-145975000D03*
%TO.P,J200,a27,a27*%
%TO.N,/Backplane/GPIOL11*%
X62700000Y-145975000D03*
%TO.P,J200,a28,a28*%
%TO.N,/Backplane/GPIOL12*%
X60160000Y-145975000D03*
%TO.P,J200,a29,a29*%
%TO.N,/Backplane/GPIOL13*%
X57620000Y-145975000D03*
%TO.P,J200,a30,a30*%
%TO.N,/Backplane/GPIOL14*%
X55080000Y-145975000D03*
%TO.P,J200,a31,a31*%
%TO.N,/Backplane/GPIOL15*%
X52540000Y-145975000D03*
%TO.P,J200,a32,a32*%
%TO.N,GND*%
X50000000Y-145975000D03*
%TO.P,J200,b1,b1*%
X128740000Y-143435000D03*
%TO.P,J200,b2,b2*%
X126200000Y-143435000D03*
%TO.P,J200,b3,b3*%
%TO.N,+5V_STDBY*%
X123660000Y-143435000D03*
%TO.P,J200,b4,b4*%
%TO.N,GND*%
X121120000Y-143435000D03*
%TO.P,J200,b5,b5*%
%TO.N,/Backplane/CAN1.+*%
X118580000Y-143435000D03*
%TO.P,J200,b6,b6*%
%TO.N,/Backplane/CAN1.-*%
X116040000Y-143435000D03*
%TO.P,J200,b7,b7*%
%TO.N,GND*%
X113500000Y-143435000D03*
%TO.P,J200,b8,b8*%
%TO.N,/Backplane/CAN2.+*%
X110960000Y-143435000D03*
%TO.P,J200,b9,b9*%
%TO.N,/Backplane/CAN2.-*%
X108420000Y-143435000D03*
%TO.P,J200,b10,b10*%
%TO.N,GND*%
X105880000Y-143435000D03*
%TO.P,J200,b11,b11*%
%TO.N,+12V*%
X103340000Y-143435000D03*
%TO.P,J200,b12,b12*%
X100800000Y-143435000D03*
%TO.P,J200,b13,b13*%
%TO.N,GND*%
X98260000Y-143435000D03*
%TO.P,J200,b14,b14*%
%TO.N,+24V*%
X95720000Y-143435000D03*
%TO.P,J200,b15,b15*%
%TO.N,GND*%
X93180000Y-143435000D03*
%TO.P,J200,b16,b16*%
%TO.N,/Backplane/GPIOC0*%
X90640000Y-143435000D03*
%TO.P,J200,b17,b17*%
%TO.N,/Backplane/GPIOC1*%
X88100000Y-143435000D03*
%TO.P,J200,b18,b18*%
%TO.N,/Backplane/GPIOC2*%
X85560000Y-143435000D03*
%TO.P,J200,b19,b19*%
%TO.N,/Backplane/GPIOC3*%
X83020000Y-143435000D03*
%TO.P,J200,b20,b20*%
%TO.N,/Backplane/GPIOC4*%
X80480000Y-143435000D03*
%TO.P,J200,b21,b21*%
%TO.N,/Backplane/GPIOC5*%
X77940000Y-143435000D03*
%TO.P,J200,b22,b22*%
%TO.N,/Backplane/GPIOC6*%
X75400000Y-143435000D03*
%TO.P,J200,b23,b23*%
%TO.N,/Backplane/GPIOC7*%
X72860000Y-143435000D03*
%TO.P,J200,b24,b24*%
%TO.N,/Backplane/GPIOC8*%
X70320000Y-143435000D03*
%TO.P,J200,b25,b25*%
%TO.N,/Backplane/GPIOC9*%
X67780000Y-143435000D03*
%TO.P,J200,b26,b26*%
%TO.N,/Backplane/GPIOC10*%
X65240000Y-143435000D03*
%TO.P,J200,b27,b27*%
%TO.N,/Backplane/GPIOC11*%
X62700000Y-143435000D03*
%TO.P,J200,b28,b28*%
%TO.N,/Backplane/GPIOC12*%
X60160000Y-143435000D03*
%TO.P,J200,b29,b29*%
%TO.N,/Backplane/GPIOC13*%
X57620000Y-143435000D03*
%TO.P,J200,b30,b30*%
%TO.N,/Backplane/GPIOC14*%
X55080000Y-143435000D03*
%TO.P,J200,b31,b31*%
%TO.N,/Backplane/GPIOC15*%
X52540000Y-143435000D03*
%TO.P,J200,b32,b32*%
%TO.N,GND*%
X50000000Y-143435000D03*
%TO.P,J200,c1,c1*%
X128740000Y-140895000D03*
%TO.P,J200,c2,c2*%
%TO.N,/Backplane/BACKPLANE.D-*%
X126200000Y-140895000D03*
%TO.P,J200,c3,c3*%
%TO.N,+5V_STDBY*%
X123660000Y-140895000D03*
%TO.P,J200,c4,c4*%
%TO.N,GND*%
X121120000Y-140895000D03*
%TO.P,J200,c5,c5*%
%TO.N,/Backplane/CAN1.+*%
X118580000Y-140895000D03*
%TO.P,J200,c6,c6*%
%TO.N,/Backplane/CAN1.-*%
X116040000Y-140895000D03*
%TO.P,J200,c7,c7*%
%TO.N,GND*%
X113500000Y-140895000D03*
%TO.P,J200,c8,c8*%
%TO.N,/Backplane/CAN2.+*%
X110960000Y-140895000D03*
%TO.P,J200,c9,c9*%
%TO.N,/Backplane/CAN2.-*%
X108420000Y-140895000D03*
%TO.P,J200,c10,c10*%
%TO.N,GND*%
X105880000Y-140895000D03*
%TO.P,J200,c11,c11*%
%TO.N,+12V*%
X103340000Y-140895000D03*
%TO.P,J200,c12,c12*%
X100800000Y-140895000D03*
%TO.P,J200,c13,c13*%
%TO.N,GND*%
X98260000Y-140895000D03*
%TO.P,J200,c14,c14*%
%TO.N,+24V*%
X95720000Y-140895000D03*
%TO.P,J200,c15,c15*%
%TO.N,GND*%
X93180000Y-140895000D03*
%TO.P,J200,c16,c16*%
%TO.N,/Backplane/GPIOR0*%
X90640000Y-140895000D03*
%TO.P,J200,c17,c17*%
%TO.N,/Backplane/GPIOR1*%
X88100000Y-140895000D03*
%TO.P,J200,c18,c18*%
%TO.N,/Backplane/GPIOR2*%
X85560000Y-140895000D03*
%TO.P,J200,c19,c19*%
%TO.N,/Backplane/GPIOR3*%
X83020000Y-140895000D03*
%TO.P,J200,c20,c20*%
%TO.N,/Backplane/GPIOR4*%
X80480000Y-140895000D03*
%TO.P,J200,c21,c21*%
%TO.N,/Backplane/GPIOR5*%
X77940000Y-140895000D03*
%TO.P,J200,c22,c22*%
%TO.N,/Backplane/GPIOR6*%
X75400000Y-140895000D03*
%TO.P,J200,c23,c23*%
%TO.N,/Backplane/GPIOR7*%
X72860000Y-140895000D03*
%TO.P,J200,c24,c24*%
%TO.N,/Backplane/GPIOR8*%
X70320000Y-140895000D03*
%TO.P,J200,c25,c25*%
%TO.N,/Backplane/GPIOR9*%
X67780000Y-140895000D03*
%TO.P,J200,c26,c26*%
%TO.N,/Backplane/GPIOR10*%
X65240000Y-140895000D03*
%TO.P,J200,c27,c27*%
%TO.N,/Backplane/GPIOR11*%
X62700000Y-140895000D03*
%TO.P,J200,c28,c28*%
%TO.N,/Backplane/GPIOR12*%
X60160000Y-140895000D03*
%TO.P,J200,c29,c29*%
%TO.N,/Backplane/GPIOR13*%
X57620000Y-140895000D03*
%TO.P,J200,c30,c30*%
%TO.N,/Backplane/GPIOR14*%
X55080000Y-140895000D03*
%TO.P,J200,c31,c31*%
%TO.N,/Backplane/GPIOR15*%
X52540000Y-140895000D03*
%TO.P,J200,c32,c32*%
%TO.N,GND*%
X50000000Y-140895000D03*
%TD*%
D15*
%TO.P,SW400,1*%
%TO.N,GND*%
X103080000Y-54575000D03*
%TO.P,SW400,2*%
X101450000Y-54575000D03*
%TO.P,SW400,3*%
%TO.N,/MCU/SWD.~{RST}*%
X99710000Y-54575000D03*
%TO.P,SW400,4*%
%TO.N,/MCU/USR_BUTTON*%
X98080000Y-54575000D03*
D16*
%TO.P,SW400,5*%
%TO.N,N/C*%
X104080000Y-56825000D03*
%TO.P,SW400,6*%
X97080000Y-56825000D03*
%TD*%
D10*
%TO.P,LED301,1*%
%TO.N,Net-(LED301-Pad1)*%
X111913600Y-55785000D03*
%TO.P,LED301,2*%
%TO.N,GND*%
X114453600Y-55785000D03*
%TO.P,LED301,3*%
%TO.N,Net-(LED301-Pad3)*%
X111913600Y-58325000D03*
%TO.P,LED301,4*%
%TO.N,GND*%
X114453600Y-58325000D03*
%TD*%
D17*
%TO.P,TP704,1,1*%
%TO.N,/ST-LINK/DIO*%
X127100000Y-122975000D03*
%TD*%
%TO.P,TP706,1,1*%
%TO.N,GND*%
X131900000Y-122975000D03*
%TD*%
%TO.P,TP703,1,1*%
%TO.N,/ST-LINK/STLINK-BOOT0*%
X129500000Y-120775000D03*
%TD*%
%TO.P,TP702,1,1*%
%TO.N,+3V3*%
X127100000Y-120775000D03*
%TD*%
%TO.P,TP705,1,1*%
%TO.N,/ST-LINK/CLK*%
X129500000Y-122975000D03*
%TD*%
D18*
%TO.N,+3V3*%
X115300000Y-138075000D03*
X99450000Y-59675000D03*
X131350000Y-125625000D03*
X121325000Y-115325000D03*
X104325000Y-124400000D03*
X120590000Y-106765000D03*
X115350000Y-131500000D03*
X132050000Y-135775000D03*
X131800000Y-106175000D03*
X131400000Y-128975000D03*
X133950000Y-118922500D03*
X114650000Y-131500000D03*
X115350000Y-130625000D03*
X102275000Y-111350000D03*
X121350000Y-124927500D03*
X127900000Y-121575000D03*
X121875000Y-110350000D03*
X105200000Y-108075000D03*
X125700000Y-115575000D03*
X131350000Y-118275000D03*
X124000000Y-115300000D03*
X122225000Y-109375000D03*
X115575000Y-107050000D03*
X101700000Y-121825000D03*
X119900000Y-138075000D03*
X116025000Y-131500000D03*
X112825000Y-106875000D03*
X119625000Y-124600000D03*
X114450000Y-62375000D03*
%TO.N,GND*%
X106050000Y-107375000D03*
X108925000Y-107700000D03*
X99450000Y-58775000D03*
X95300000Y-131025000D03*
X103700000Y-128625000D03*
X106050000Y-106475000D03*
X129900000Y-124961216D03*
X128350000Y-134775000D03*
X104900000Y-128625000D03*
X109870720Y-132521542D03*
X134830000Y-142145001D03*
X127250000Y-134775000D03*
X116250000Y-62375000D03*
X95300000Y-133425000D03*
X132350000Y-125625000D03*
X113850000Y-136425000D03*
X109700000Y-128625000D03*
X96500000Y-128625000D03*
X130325000Y-129675000D03*
X106100000Y-128625000D03*
X110520720Y-132521542D03*
X108650000Y-136275000D03*
X102850000Y-119275000D03*
X113300000Y-128625000D03*
X103700000Y-132225000D03*
X97700000Y-128625000D03*
X115050000Y-136625000D03*
X121350000Y-123927500D03*
X103575000Y-106475000D03*
X116825000Y-106025000D03*
X119625000Y-125600000D03*
X108200000Y-104250000D03*
X126375000Y-109375000D03*
X126900000Y-113525000D03*
X131150000Y-116225000D03*
X112525000Y-106025000D03*
X97900000Y-111775000D03*
X113850000Y-137675000D03*
X100100000Y-128625000D03*
X94450000Y-138675000D03*
X116575000Y-107050000D03*
X128350000Y-135825000D03*
X98900000Y-128625000D03*
X118750000Y-126325000D03*
X134150000Y-128175000D03*
X131900000Y-133925000D03*
X126950000Y-106725000D03*
X119100000Y-134275000D03*
X111170720Y-132521542D03*
X103575000Y-107350000D03*
X103700000Y-133425000D03*
X122200000Y-115275000D03*
X103700000Y-131025000D03*
X117150000Y-62375000D03*
X131150000Y-115125000D03*
X119410000Y-61815001D03*
X133300000Y-122825000D03*
X118050000Y-62925000D03*
X108500000Y-128625000D03*
X133950000Y-119922500D03*
X134100000Y-133525000D03*
X134300000Y-135775000D03*
X112100000Y-128625000D03*
X113825000Y-106875000D03*
X121900000Y-133425000D03*
X114500000Y-128625000D03*
X118850000Y-59675000D03*
X103325000Y-124400000D03*
X121875000Y-111350000D03*
X117300000Y-133425000D03*
X120590000Y-105865000D03*
X129800000Y-133725000D03*
X95953492Y-138663288D03*
X127250000Y-135825000D03*
X131100000Y-136425000D03*
X110900000Y-128625000D03*
X101300000Y-128625000D03*
X99850000Y-134671508D03*
X102500000Y-128625000D03*
X95300000Y-132225000D03*
X107300000Y-128625000D03*
X95200000Y-138675000D03*
X99850000Y-135971508D03*
X95300000Y-129825000D03*
X136150000Y-138925000D03*
X102225000Y-122850000D03*
X126700000Y-115575000D03*
X102275000Y-110350000D03*
X123200000Y-136625000D03*
X131950000Y-139425000D03*
X113850000Y-137075000D03*
X125350000Y-62025000D03*
X125350000Y-61225000D03*
X123550000Y-125325000D03*
X132700000Y-132175000D03*
X99850000Y-135321508D03*
X123100000Y-115275000D03*
X103700000Y-129825000D03*
X95300000Y-128625000D03*
X132350000Y-118275000D03*
X119650000Y-136625000D03*
%TO.N,+5V*%
X106125000Y-137025000D03*
X134150000Y-129075000D03*
X116300000Y-133425000D03*
X106775000Y-136325000D03*
X133300000Y-110375000D03*
X131100000Y-135525001D03*
X106775000Y-137025000D03*
X126200000Y-137025000D03*
X106125000Y-136325000D03*
X120900000Y-133425000D03*
%TO.N,/ST-LINK/LED*%
X124950000Y-114800000D03*
X127400000Y-124950000D03*
%TO.N,/ST-LINK/STLINK-BOOT0*%
X130675000Y-121175000D03*
%TO.N,/ST-LINK/DIO*%
X128875000Y-124675000D03*
%TO.N,/ST-LINK/CLK*%
X130350000Y-124175000D03*
%TO.N,+12V_FUSED*%
X94451270Y-135361059D03*
X133950000Y-109925000D03*
X106125000Y-139025000D03*
X106125000Y-138325000D03*
X106775000Y-138325000D03*
X95375000Y-135375000D03*
X106775000Y-139025000D03*
X94950000Y-134875000D03*
%TO.N,/ST-LINK/STLINK_RX*%
X126100000Y-119500000D03*
X132200000Y-113725000D03*
%TO.N,/USB/VBUS_IN*%
X124350000Y-61225000D03*
X134050000Y-132625000D03*
%TO.N,/ST-LINK/STLINK_TX*%
X132200000Y-111725000D03*
X126075000Y-114450000D03*
%TO.N,/MCU/USR_BUTTON*%
X115975000Y-110350000D03*
X99450000Y-57875000D03*
%TO.N,/MCU/SWD.~{RST}*%
X111575001Y-110375000D03*
X121900000Y-120045000D03*
X118377238Y-107645000D03*
%TO.N,Net-(U302-PGANG)*%
X129600000Y-136625000D03*
X127900000Y-138925000D03*
%TO.N,Net-(U700-PA5)*%
X124700000Y-120175000D03*
X120425000Y-127650000D03*
%TO.N,Net-(U700-PC13)*%
X130100000Y-118925000D03*
X132900000Y-116775000D03*
%TO.N,Net-(U700-PC14)*%
X129225000Y-118925000D03*
X131950000Y-116775000D03*
%TO.N,/CAN transceiver 1/CAN.TX*%
X122775000Y-134250000D03*
X118550000Y-119850000D03*
%TO.N,/CAN transceiver 1/CAN.RX*%
X117700000Y-120375000D03*
X120025000Y-134250000D03*
%TO.N,/CAN transceiver 2/CAN.TX*%
X118175000Y-134250000D03*
X106575000Y-123400000D03*
%TO.N,/CAN transceiver 2/CAN.RX*%
X105600000Y-125425000D03*
X115425000Y-134250000D03*
%TO.N,/USB/CC1*%
X123300000Y-57725000D03*
X124350000Y-62025000D03*
%TO.N,Net-(U801-~{OE})*%
X133850000Y-136575000D03*
X133850000Y-138925000D03*
%TO.N,/MCU/USER_LED_1*%
X113550000Y-62925000D03*
X117850000Y-107125000D03*
%TO.N,/MCU/USER_LED_2*%
X117300000Y-107625000D03*
X112650000Y-62375000D03*
%TO.N,/MCU/STATUS_LED*%
X115350000Y-62925000D03*
X116675000Y-110350000D03*
%TD*%
D19*
%TO.N,+3V3*%
X127900000Y-121575000D02*
X127100000Y-120775000D01*
%TO.N,GND*%
X131900000Y-122975000D02*
X132050000Y-122825000D01*
X132050000Y-122825000D02*
X133300000Y-122825000D01*
D20*
%TO.N,+5V*%
X133300000Y-110375000D02*
X134650000Y-111725000D01*
X134650000Y-111725000D02*
X134650000Y-128575000D01*
X134650000Y-128575000D02*
X134150000Y-129075000D01*
%TO.N,/ST-LINK/LED*%
X124950000Y-116125000D02*
X125450000Y-116625000D01*
X125450000Y-123000000D02*
X127400000Y-124950000D01*
X124950000Y-114800000D02*
X124950000Y-116125000D01*
X125450000Y-116625000D02*
X125450000Y-123000000D01*
D21*
%TO.N,/ST-LINK/STLINK-BOOT0*%
X130275000Y-120775000D02*
X130675000Y-121175000D01*
X129500000Y-120775000D02*
X130275000Y-120775000D01*
D20*
%TO.N,/ST-LINK/DIO*%
X127175000Y-122975000D02*
X127100000Y-122975000D01*
X128875000Y-124675000D02*
X127175000Y-122975000D01*
D21*
%TO.N,/ST-LINK/CLK*%
X129500000Y-122975000D02*
X129500000Y-123325000D01*
X129500000Y-123325000D02*
X130350000Y-124175000D01*
D20*
%TO.N,+12V_FUSED*%
X133500000Y-132225000D02*
X133500000Y-133875000D01*
X104650000Y-140275000D02*
X105900000Y-139025000D01*
X130530000Y-146895000D02*
X129850000Y-147575000D01*
X105900000Y-139025000D02*
X106125000Y-139025000D01*
X135100000Y-135475000D02*
X135100000Y-139375000D01*
X135150000Y-111125000D02*
X135150000Y-130575000D01*
X129850000Y-147575000D02*
X105450000Y-147575000D01*
X133500000Y-133875000D02*
X135100000Y-135475000D01*
X130530000Y-143945000D02*
X130530000Y-146895000D01*
X105450000Y-147575000D02*
X104650000Y-146775000D01*
X104650000Y-146775000D02*
X104650000Y-140275000D01*
X133950000Y-109925000D02*
X135150000Y-111125000D01*
X135100000Y-139375000D02*
X130530000Y-143945000D01*
X135150000Y-130575000D02*
X133500000Y-132225000D01*
%TO.N,/ST-LINK/STLINK_RX*%
X131225000Y-113725000D02*
X126100000Y-118850000D01*
X126100000Y-118850000D02*
X126100000Y-119500000D01*
X132200000Y-113725000D02*
X131225000Y-113725000D01*
%TO.N,/USB/VBUS_IN*%
X125037500Y-60537500D02*
X124350000Y-61225000D01*
X133475000Y-61850000D02*
X127000000Y-61850000D01*
X135650000Y-131025000D02*
X135650000Y-64025000D01*
X134050000Y-132625000D02*
X135650000Y-131025000D01*
X135650000Y-64025000D02*
X133475000Y-61850000D01*
X125687500Y-60537500D02*
X125037500Y-60537500D01*
X127000000Y-61850000D02*
X125687500Y-60537500D01*
%TO.N,/ST-LINK/STLINK_TX*%
X132200000Y-111725000D02*
X132050000Y-111725000D01*
X129325000Y-114450000D02*
X126075000Y-114450000D01*
X132050000Y-111725000D02*
X129325000Y-114450000D01*
%TO.N,/MCU/USR_BUTTON*%
X132950000Y-63350000D02*
X123550000Y-63350000D01*
X116950000Y-111925000D02*
X129900000Y-111925000D01*
X101250000Y-57875000D02*
X99450000Y-57875000D01*
X116850000Y-60950000D02*
X116425000Y-60525000D01*
X134325000Y-64725000D02*
X132950000Y-63350000D01*
X123550000Y-63350000D02*
X121150000Y-60950000D01*
X134325000Y-107500000D02*
X134325000Y-64725000D01*
X115975000Y-110950000D02*
X116950000Y-111925000D01*
X103900000Y-60525000D02*
X101250000Y-57875000D01*
X116425000Y-60525000D02*
X103900000Y-60525000D01*
X129900000Y-111925000D02*
X134325000Y-107500000D01*
X115975000Y-110350000D02*
X115975000Y-110950000D01*
X121150000Y-60950000D02*
X116850000Y-60950000D01*
%TO.N,/MCU/SWD.~{RST}*%
X133300000Y-62725000D02*
X134925000Y-64350000D01*
X118377238Y-107645000D02*
X117197238Y-108825000D01*
X99710000Y-54575000D02*
X99710000Y-55260000D01*
X116700000Y-112625000D02*
X115100000Y-111025000D01*
X104375000Y-59925000D02*
X116700000Y-59925000D01*
X117150000Y-60375000D02*
X121375000Y-60375000D01*
X120420000Y-118565000D02*
X121900000Y-120045000D01*
X115100000Y-108825000D02*
X113125001Y-108825000D01*
X123725000Y-62725000D02*
X133300000Y-62725000D01*
X99710000Y-55260000D02*
X104375000Y-59925000D01*
X134925000Y-107725000D02*
X130025000Y-112625000D01*
X130025000Y-112625000D02*
X120420000Y-112625000D01*
X116700000Y-59925000D02*
X117150000Y-60375000D01*
X115100000Y-111025000D02*
X115100000Y-108825000D01*
X120420000Y-112625000D02*
X116700000Y-112625000D01*
X121375000Y-60375000D02*
X123725000Y-62725000D01*
X113125001Y-108825000D02*
X111575001Y-110375000D01*
X117197238Y-108825000D02*
X115100000Y-108825000D01*
X134925000Y-64350000D02*
X134925000Y-107725000D01*
X120420000Y-112625000D02*
X120420000Y-118565000D01*
D22*
%TO.N,Net-(U302-PGANG)*%
X127900000Y-138325000D02*
X129600000Y-136625000D01*
X127900000Y-138925000D02*
X127900000Y-138325000D01*
D20*
%TO.N,Net-(U700-PA5)*%
X120425000Y-127650000D02*
X122600000Y-125475000D01*
X122600000Y-125475000D02*
X122600000Y-122275000D01*
X122600000Y-122275000D02*
X124700000Y-120175000D01*
%TO.N,Net-(U700-PC13)*%
X130100000Y-118500000D02*
X130100000Y-118925000D01*
X132900000Y-116775000D02*
X132150000Y-117525000D01*
X132150000Y-117525000D02*
X131075000Y-117525000D01*
X131075000Y-117525000D02*
X130100000Y-118500000D01*
%TO.N,Net-(U700-PC14)*%
X131800000Y-116925000D02*
X130725736Y-116925000D01*
X129225000Y-118425736D02*
X129225000Y-118925000D01*
X131950000Y-116775000D02*
X131800000Y-116925000D01*
X130725736Y-116925000D02*
X129225000Y-118425736D01*
%TO.N,/CAN transceiver 1/CAN.TX*%
X122775000Y-132600000D02*
X122775000Y-134250000D01*
X118550000Y-125225000D02*
X118000000Y-125775000D01*
X118000000Y-127825000D02*
X122775000Y-132600000D01*
X118000000Y-125775000D02*
X118000000Y-127825000D01*
X118550000Y-119850000D02*
X118550000Y-125225000D01*
%TO.N,/CAN transceiver 1/CAN.RX*%
X117150000Y-125225000D02*
X117150000Y-128325000D01*
X117700000Y-124675000D02*
X117150000Y-125225000D01*
X117150000Y-128325000D02*
X120025000Y-131200000D01*
X117700000Y-120375000D02*
X117700000Y-124675000D01*
X120025000Y-131200000D02*
X120025000Y-134250000D01*
%TO.N,/CAN transceiver 2/CAN.TX*%
X116250000Y-127425000D02*
X114850000Y-126025000D01*
X108100000Y-126025000D02*
X106575000Y-124500000D01*
X118175000Y-134250000D02*
X118175000Y-130700000D01*
X116250000Y-128775000D02*
X116250000Y-127425000D01*
X118175000Y-130700000D02*
X116250000Y-128775000D01*
X106575000Y-124500000D02*
X106575000Y-123400000D01*
X114850000Y-126025000D02*
X108100000Y-126025000D01*
%TO.N,/CAN transceiver 2/CAN.RX*%
X107050000Y-126875000D02*
X105600000Y-125425000D01*
X115425000Y-133050000D02*
X116800000Y-131675000D01*
X116800000Y-131675000D02*
X116800000Y-130675000D01*
X114250000Y-126875000D02*
X107050000Y-126875000D01*
X115350000Y-129225000D02*
X115350000Y-127975000D01*
X115350000Y-127975000D02*
X114250000Y-126875000D01*
X115425000Y-134250000D02*
X115425000Y-133050000D01*
X116800000Y-130675000D02*
X115350000Y-129225000D01*
%TO.N,/USB/CC1*%
X123850000Y-62025000D02*
X123300000Y-61475000D01*
X123300000Y-61475000D02*
X123300000Y-57725000D01*
X124350000Y-62025000D02*
X123850000Y-62025000D01*
%TO.N,Net-(U801-~{OE})*%
X133850000Y-138925000D02*
X133850000Y-136575000D01*
%TO.N,/MCU/USER_LED_1*%
X118750000Y-107125000D02*
X117850000Y-107125000D01*
X121500000Y-109875000D02*
X118750000Y-107125000D01*
X129550000Y-110525000D02*
X123150000Y-110525000D01*
X121749999Y-63725000D02*
X122499999Y-64475000D01*
X122500000Y-109875000D02*
X121500000Y-109875000D01*
X122499999Y-64475000D02*
X132200000Y-64475000D01*
X113550000Y-62925000D02*
X114350000Y-63725000D01*
X132200000Y-64475000D02*
X133225000Y-65500000D01*
X123150000Y-110525000D02*
X122500000Y-109875000D01*
X133225000Y-106850000D02*
X129550000Y-110525000D01*
X114350000Y-63725000D02*
X121749999Y-63725000D01*
X133225000Y-65500000D02*
X133225000Y-106850000D01*
%TO.N,/MCU/USER_LED_2*%
X117625000Y-106625000D02*
X118875000Y-106625000D01*
X118875000Y-106625000D02*
X120925000Y-108675000D01*
X121429999Y-64425000D02*
X113975000Y-64425000D01*
X112650000Y-63100000D02*
X112650000Y-62375000D01*
X131800000Y-65075000D02*
X122079999Y-65075000D01*
X120925000Y-108675000D02*
X122500000Y-108675000D01*
X113975000Y-64425000D02*
X112650000Y-63100000D01*
X123675000Y-109850000D02*
X129400000Y-109850000D01*
X122079999Y-65075000D02*
X121429999Y-64425000D01*
X132650000Y-65925000D02*
X131800000Y-65075000D01*
X117300000Y-107625000D02*
X117300000Y-106950000D01*
X117300000Y-106950000D02*
X117625000Y-106625000D01*
X129400000Y-109850000D02*
X132650000Y-106600000D01*
X122500000Y-108675000D02*
X123675000Y-109850000D01*
X132650000Y-106600000D02*
X132650000Y-65925000D01*
%TO.N,/MCU/STATUS_LED*%
X129700000Y-111225000D02*
X122800000Y-111225000D01*
X123075000Y-63875000D02*
X132650000Y-63875000D01*
X115800000Y-61650000D02*
X117675000Y-61650000D01*
X118370001Y-62345001D02*
X121545001Y-62345001D01*
X117675000Y-61650000D02*
X118370001Y-62345001D01*
X122425000Y-110850000D02*
X117175000Y-110850000D01*
X115350000Y-62100000D02*
X115800000Y-61650000D01*
X133800000Y-65025000D02*
X133800000Y-107125000D01*
X132650000Y-63875000D02*
X133800000Y-65025000D01*
X117175000Y-110850000D02*
X116675000Y-110350000D01*
X121545001Y-62345001D02*
X123075000Y-63875000D01*
X122800000Y-111225000D02*
X122425000Y-110850000D01*
X115350000Y-62925000D02*
X115350000Y-62100000D01*
X133800000Y-107125000D02*
X129700000Y-111225000D01*
%TD*%
%TA.AperFunction,Conductor*%
%TO.N,+12V_FUSED*%
G36*
X106791971Y-138027381D02*
G01*
X106870618Y-138043024D01*
X106915308Y-138061535D01*
X106971626Y-138099166D01*
X107005833Y-138133373D01*
X107043462Y-138189688D01*
X107061976Y-138234387D01*
X107077617Y-138313019D01*
X107080000Y-138337210D01*
X107080000Y-139012789D01*
X107077617Y-139036980D01*
X107061976Y-139115612D01*
X107043462Y-139160311D01*
X107005836Y-139216623D01*
X106971623Y-139250836D01*
X106915311Y-139288462D01*
X106870612Y-139306976D01*
X106791980Y-139322617D01*
X106767789Y-139325000D01*
X106142211Y-139325000D01*
X106118020Y-139322617D01*
X106039387Y-139306976D01*
X105994689Y-139288462D01*
X105938373Y-139250833D01*
X105904166Y-139216626D01*
X105866535Y-139160308D01*
X105848024Y-139115618D01*
X105832381Y-139036971D01*
X105830000Y-139012789D01*
X105830000Y-138337210D01*
X105832381Y-138313029D01*
X105848025Y-138234379D01*
X105866534Y-138189693D01*
X105904168Y-138133370D01*
X105938370Y-138099168D01*
X105994693Y-138061534D01*
X106039379Y-138043025D01*
X106118028Y-138027381D01*
X106142211Y-138025000D01*
X106767789Y-138025000D01*
X106791971Y-138027381D01*
G37*
%TD.AperFunction*%
%TD*%
%TA.AperFunction,Conductor*%
%TO.N,+5V*%
G36*
X131145080Y-128394685D02*
G01*
X131190835Y-128447489D01*
X131200779Y-128516647D01*
X131171754Y-128580203D01*
X131145080Y-128603316D01*
X131101950Y-128631033D01*
X131017118Y-128728937D01*
X131017117Y-128728938D01*
X130963302Y-128846774D01*
X130944867Y-128975000D01*
X130963302Y-129103225D01*
X130966800Y-129110884D01*
X131017118Y-129221063D01*
X131101951Y-129318967D01*
X131210931Y-129389004D01*
X131335225Y-129425499D01*
X131335227Y-129425500D01*
X131335228Y-129425500D01*
X131464773Y-129425500D01*
X131464773Y-129425499D01*
X131589069Y-129389004D01*
X131698049Y-129318967D01*
X131782882Y-129221063D01*
X131836697Y-129103226D01*
X131855133Y-128975000D01*
X131836697Y-128846774D01*
X131782882Y-128728937D01*
X131698049Y-128631033D01*
X131654919Y-128603315D01*
X131609165Y-128550512D01*
X131599221Y-128481353D01*
X131628246Y-128417798D01*
X131687024Y-128380023D01*
X131721959Y-128375000D01*
X133670575Y-128375000D01*
X133737614Y-128394685D01*
X133764289Y-128417798D01*
X133767117Y-128421062D01*
X133767118Y-128421063D01*
X133851951Y-128518967D01*
X133960931Y-128589004D01*
X134085225Y-128625499D01*
X134085227Y-128625500D01*
X134085228Y-128625500D01*
X134214773Y-128625500D01*
X134214773Y-128625499D01*
X134293745Y-128602312D01*
X134339063Y-128589006D01*
X134339064Y-128589005D01*
X134339069Y-128589004D01*
X134339072Y-128589001D01*
X134347016Y-128585374D01*
X134416174Y-128575427D01*
X134477196Y-128602312D01*
X134478420Y-128603316D01*
X134547666Y-128660145D01*
X134564854Y-128677333D01*
X134673722Y-128809989D01*
X134687227Y-128830201D01*
X134768121Y-128981543D01*
X134777424Y-129004001D01*
X134827240Y-129168224D01*
X134831982Y-129192065D01*
X134849403Y-129368938D01*
X134850000Y-129381092D01*
X134850000Y-129954693D01*
X134849403Y-129966847D01*
X134831982Y-130143721D01*
X134827240Y-130167562D01*
X134777424Y-130331785D01*
X134768121Y-130354243D01*
X134687227Y-130505585D01*
X134673722Y-130525797D01*
X134560969Y-130663186D01*
X134552797Y-130672202D01*
X133442897Y-131782101D01*
X133442887Y-131782112D01*
X133216634Y-132008365D01*
X133193598Y-132013592D01*
X133127919Y-131989758D01*
X133088549Y-131941346D01*
X133082882Y-131928937D01*
X132998049Y-131831033D01*
X132889069Y-131760996D01*
X132889065Y-131760994D01*
X132889064Y-131760994D01*
X132764774Y-131724500D01*
X132764772Y-131724500D01*
X132635228Y-131724500D01*
X132635226Y-131724500D01*
X132510935Y-131760994D01*
X132510932Y-131760995D01*
X132510931Y-131760996D01*
X132478091Y-131782101D01*
X132401950Y-131831033D01*
X132317118Y-131928937D01*
X132317117Y-131928938D01*
X132263302Y-132046774D01*
X132244867Y-132175000D01*
X132263302Y-132303225D01*
X132304446Y-132393316D01*
X132317118Y-132421063D01*
X132401951Y-132518967D01*
X132510931Y-132589004D01*
X132635225Y-132625499D01*
X132635227Y-132625500D01*
X132635228Y-132625500D01*
X132764773Y-132625500D01*
X132764773Y-132625499D01*
X132889069Y-132589004D01*
X132958962Y-132544086D01*
X133026000Y-132524402D01*
X133093039Y-132544086D01*
X133138794Y-132596890D01*
X133150000Y-132648402D01*
X133150000Y-137868907D01*
X133149403Y-137881061D01*
X133131982Y-138057934D01*
X133127240Y-138081775D01*
X133077424Y-138245998D01*
X133068121Y-138268456D01*
X132987227Y-138419798D01*
X132973722Y-138440010D01*
X132864854Y-138572666D01*
X132847666Y-138589854D01*
X132715010Y-138698722D01*
X132694798Y-138712227D01*
X132543456Y-138793121D01*
X132520998Y-138802424D01*
X132356775Y-138852240D01*
X132332934Y-138856982D01*
X132156061Y-138874403D01*
X132143907Y-138875000D01*
X128452111Y-138875000D01*
X128385072Y-138855315D01*
X128339317Y-138802512D01*
X128335028Y-138793121D01*
X128282882Y-138678937D01*
X128198049Y-138581033D01*
X128198048Y-138581032D01*
X128198047Y-138581031D01*
X128193296Y-138576914D01*
X128155523Y-138518136D01*
X128150500Y-138483202D01*
X128150500Y-138480122D01*
X128170185Y-138413083D01*
X128186814Y-138392446D01*
X129467441Y-137111818D01*
X129528764Y-137078334D01*
X129555122Y-137075500D01*
X129664773Y-137075500D01*
X129664773Y-137075499D01*
X129789069Y-137039004D01*
X129898049Y-136968967D01*
X129982882Y-136871063D01*
X130036697Y-136753226D01*
X130055133Y-136625000D01*
X130036697Y-136496774D01*
X130003919Y-136425000D01*
X130644867Y-136425000D01*
X130663302Y-136553225D01*
X130673247Y-136575000D01*
X130717118Y-136671063D01*
X130770235Y-136732364D01*
X130800811Y-136767652D01*
X130801951Y-136768967D01*
X130910931Y-136839004D01*
X131020117Y-136871063D01*
X131035225Y-136875499D01*
X131035227Y-136875500D01*
X131035228Y-136875500D01*
X131164773Y-136875500D01*
X131164773Y-136875499D01*
X131289069Y-136839004D01*
X131398049Y-136768967D01*
X131482882Y-136671063D01*
X131536697Y-136553226D01*
X131555133Y-136425000D01*
X131536697Y-136296774D01*
X131526753Y-136275000D01*
X131483407Y-136180086D01*
X131481431Y-136166346D01*
X131460085Y-136152628D01*
X131398049Y-136081033D01*
X131289069Y-136010996D01*
X131289065Y-136010994D01*
X131289064Y-136010994D01*
X131164774Y-135974500D01*
X131164772Y-135974500D01*
X131035228Y-135974500D01*
X131035226Y-135974500D01*
X130910935Y-136010994D01*
X130910932Y-136010995D01*
X130910931Y-136010996D01*
X130859677Y-136043934D01*
X130801950Y-136081033D01*
X130717118Y-136178937D01*
X130717117Y-136178938D01*
X130663302Y-136296774D01*
X130644867Y-136425000D01*
X130003919Y-136425000D01*
X129982882Y-136378937D01*
X129898049Y-136281033D01*
X129789069Y-136210996D01*
X129789065Y-136210994D01*
X129789064Y-136210994D01*
X129664774Y-136174500D01*
X129664772Y-136174500D01*
X129535228Y-136174500D01*
X129535226Y-136174500D01*
X129410935Y-136210994D01*
X129410932Y-136210995D01*
X129410931Y-136210996D01*
X129379753Y-136231033D01*
X129301950Y-136281033D01*
X129217118Y-136378937D01*
X129217117Y-136378938D01*
X129163302Y-136496774D01*
X129144867Y-136625000D01*
X129144867Y-136625002D01*
X129148713Y-136651755D01*
X129138769Y-136720913D01*
X129113656Y-136757081D01*
X127758103Y-138112636D01*
X127687637Y-138183101D01*
X127687636Y-138183102D01*
X127649500Y-138275170D01*
X127649500Y-138483202D01*
X127629815Y-138550241D01*
X127606704Y-138576914D01*
X127601952Y-138581031D01*
X127517118Y-138678937D01*
X127517117Y-138678938D01*
X127508082Y-138698722D01*
X127464972Y-138793121D01*
X127460683Y-138802512D01*
X127414928Y-138855315D01*
X127347889Y-138875000D01*
X107409500Y-138875000D01*
X107342461Y-138855315D01*
X107296706Y-138802511D01*
X107285500Y-138751000D01*
X107285500Y-138337221D01*
X107285500Y-138337210D01*
X107284510Y-138317064D01*
X107282127Y-138292873D01*
X107279168Y-138272928D01*
X107263527Y-138194296D01*
X107251835Y-138155749D01*
X107251831Y-138155740D01*
X107233323Y-138111055D01*
X107233321Y-138111050D01*
X107214328Y-138075517D01*
X107176699Y-138019202D01*
X107151143Y-137988063D01*
X107116936Y-137953856D01*
X107085797Y-137928300D01*
X107085784Y-137928291D01*
X107029497Y-137890680D01*
X107029483Y-137890672D01*
X107029479Y-137890669D01*
X107024655Y-137888090D01*
X106993960Y-137871682D01*
X106993946Y-137871676D01*
X106985693Y-137868257D01*
X106949267Y-137853169D01*
X106949264Y-137853168D01*
X106949259Y-137853166D01*
X106930532Y-137847485D01*
X106910709Y-137841472D01*
X106832062Y-137825829D01*
X106812126Y-137822872D01*
X106812094Y-137822868D01*
X106787948Y-137820491D01*
X106787917Y-137820488D01*
X106777698Y-137819986D01*
X106767789Y-137819500D01*
X106142211Y-137819500D01*
X106130704Y-137820065D01*
X106122066Y-137820489D01*
X106097909Y-137822868D01*
X106097896Y-137822869D01*
X106097892Y-137822870D01*
X106097886Y-137822870D01*
X106097861Y-137822874D01*
X106077929Y-137825830D01*
X106077921Y-137825831D01*
X105999307Y-137841468D01*
X105999295Y-137841471D01*
X105960742Y-137853166D01*
X105960734Y-137853169D01*
X105921450Y-137869440D01*
X105851980Y-137876907D01*
X105789502Y-137845631D01*
X105753851Y-137785541D01*
X105750000Y-137754878D01*
X105750000Y-136275000D01*
X108194867Y-136275000D01*
X108213302Y-136403225D01*
X108223247Y-136425000D01*
X108267118Y-136521063D01*
X108351951Y-136618967D01*
X108460931Y-136689004D01*
X108569606Y-136720913D01*
X108585225Y-136725499D01*
X108585227Y-136725500D01*
X108585228Y-136725500D01*
X108714773Y-136725500D01*
X108714773Y-136725499D01*
X108839069Y-136689004D01*
X108948049Y-136618967D01*
X109032882Y-136521063D01*
X109076753Y-136425000D01*
X113394867Y-136425000D01*
X113413302Y-136553225D01*
X113467117Y-136671061D01*
X113471913Y-136678524D01*
X113470123Y-136679674D01*
X113494180Y-136732364D01*
X113484231Y-136801521D01*
X113471554Y-136821245D01*
X113471913Y-136821476D01*
X113467117Y-136828938D01*
X113413302Y-136946774D01*
X113394867Y-137075000D01*
X113413302Y-137203225D01*
X113468225Y-137323488D01*
X113478169Y-137392647D01*
X113468225Y-137426512D01*
X113413302Y-137546774D01*
X113394867Y-137675000D01*
X113413302Y-137803225D01*
X113436111Y-137853169D01*
X113467118Y-137921063D01*
X113551951Y-138018967D01*
X113660931Y-138089004D01*
X113785225Y-138125499D01*
X113785227Y-138125500D01*
X113785228Y-138125500D01*
X113914773Y-138125500D01*
X113914773Y-138125499D01*
X114039069Y-138089004D01*
X114060860Y-138075000D01*
X114844867Y-138075000D01*
X114863302Y-138203225D01*
X114904254Y-138292896D01*
X114917118Y-138321063D01*
X114990624Y-138405895D01*
X114996852Y-138413083D01*
X115001951Y-138418967D01*
X115110931Y-138489004D01*
X115210148Y-138518136D01*
X115235225Y-138525499D01*
X115235227Y-138525500D01*
X115235228Y-138525500D01*
X115364773Y-138525500D01*
X115364773Y-138525499D01*
X115489069Y-138489004D01*
X115598049Y-138418967D01*
X115682882Y-138321063D01*
X115736697Y-138203226D01*
X115755133Y-138075000D01*
X119444867Y-138075000D01*
X119463302Y-138203225D01*
X119504254Y-138292896D01*
X119517118Y-138321063D01*
X119590624Y-138405895D01*
X119596852Y-138413083D01*
X119601951Y-138418967D01*
X119710931Y-138489004D01*
X119810148Y-138518136D01*
X119835225Y-138525499D01*
X119835227Y-138525500D01*
X119835228Y-138525500D01*
X119964773Y-138525500D01*
X119964773Y-138525499D01*
X120089069Y-138489004D01*
X120198049Y-138418967D01*
X120282882Y-138321063D01*
X120336697Y-138203226D01*
X120355133Y-138075000D01*
X120336697Y-137946774D01*
X120282882Y-137828937D01*
X120198049Y-137731033D01*
X120089069Y-137660996D01*
X120089065Y-137660994D01*
X120089064Y-137660994D01*
X119964774Y-137624500D01*
X119964772Y-137624500D01*
X119835228Y-137624500D01*
X119835226Y-137624500D01*
X119710935Y-137660994D01*
X119710932Y-137660995D01*
X119710931Y-137660996D01*
X119659677Y-137693934D01*
X119601950Y-137731033D01*
X119517118Y-137828937D01*
X119517117Y-137828938D01*
X119463302Y-137946774D01*
X119444867Y-138075000D01*
X115755133Y-138075000D01*
X115736697Y-137946774D01*
X115682882Y-137828937D01*
X115598049Y-137731033D01*
X115489069Y-137660996D01*
X115489065Y-137660994D01*
X115489064Y-137660994D01*
X115364774Y-137624500D01*
X115364772Y-137624500D01*
X115235228Y-137624500D01*
X115235226Y-137624500D01*
X115110935Y-137660994D01*
X115110932Y-137660995D01*
X115110931Y-137660996D01*
X115059677Y-137693934D01*
X115001950Y-137731033D01*
X114917118Y-137828937D01*
X114917117Y-137828938D01*
X114863302Y-137946774D01*
X114844867Y-138075000D01*
X114060860Y-138075000D01*
X114148049Y-138018967D01*
X114232882Y-137921063D01*
X114286697Y-137803226D01*
X114305133Y-137675000D01*
X114286697Y-137546774D01*
X114232882Y-137428937D01*
X114232880Y-137428935D01*
X114231774Y-137426512D01*
X114221830Y-137357354D01*
X114231774Y-137323488D01*
X114232880Y-137321064D01*
X114232882Y-137321063D01*
X114286697Y-137203226D01*
X114305133Y-137075000D01*
X114286697Y-136946774D01*
X114232882Y-136828937D01*
X114232879Y-136828934D01*
X114228087Y-136821476D01*
X114229877Y-136820325D01*
X114205821Y-136767652D01*
X114215762Y-136698493D01*
X114228446Y-136678754D01*
X114228087Y-136678524D01*
X114232877Y-136671068D01*
X114232882Y-136671063D01*
X114253919Y-136625000D01*
X114594867Y-136625000D01*
X114613302Y-136753225D01*
X114644472Y-136821476D01*
X114667118Y-136871063D01*
X114751951Y-136968967D01*
X114860931Y-137039004D01*
X114985225Y-137075499D01*
X114985227Y-137075500D01*
X114985228Y-137075500D01*
X115114773Y-137075500D01*
X115114773Y-137075499D01*
X115239069Y-137039004D01*
X115348049Y-136968967D01*
X115432882Y-136871063D01*
X115486697Y-136753226D01*
X115505133Y-136625000D01*
X119194867Y-136625000D01*
X119213302Y-136753225D01*
X119244472Y-136821476D01*
X119267118Y-136871063D01*
X119351951Y-136968967D01*
X119460931Y-137039004D01*
X119585225Y-137075499D01*
X119585227Y-137075500D01*
X119585228Y-137075500D01*
X119714773Y-137075500D01*
X119714773Y-137075499D01*
X119839069Y-137039004D01*
X119948049Y-136968967D01*
X120032882Y-136871063D01*
X120086697Y-136753226D01*
X120105133Y-136625000D01*
X122744867Y-136625000D01*
X122763302Y-136753225D01*
X122794472Y-136821476D01*
X122817118Y-136871063D01*
X122901951Y-136968967D01*
X123010931Y-137039004D01*
X123135225Y-137075499D01*
X123135227Y-137075500D01*
X123135228Y-137075500D01*
X123264773Y-137075500D01*
X123264773Y-137075499D01*
X123389069Y-137039004D01*
X123498049Y-136968967D01*
X123582882Y-136871063D01*
X123636697Y-136753226D01*
X123655133Y-136625000D01*
X123636697Y-136496774D01*
X123582882Y-136378937D01*
X123498049Y-136281033D01*
X123389069Y-136210996D01*
X123389065Y-136210994D01*
X123389064Y-136210994D01*
X123264774Y-136174500D01*
X123264772Y-136174500D01*
X123135228Y-136174500D01*
X123135226Y-136174500D01*
X123010935Y-136210994D01*
X123010932Y-136210995D01*
X123010931Y-136210996D01*
X122979753Y-136231033D01*
X122901950Y-136281033D01*
X122817118Y-136378937D01*
X122817117Y-136378938D01*
X122763302Y-136496774D01*
X122744867Y-136625000D01*
X120105133Y-136625000D01*
X120086697Y-136496774D01*
X120032882Y-136378937D01*
X119948049Y-136281033D01*
X119839069Y-136210996D01*
X119839065Y-136210994D01*
X119839064Y-136210994D01*
X119714774Y-136174500D01*
X119714772Y-136174500D01*
X119585228Y-136174500D01*
X119585226Y-136174500D01*
X119460935Y-136210994D01*
X119460932Y-136210995D01*
X119460931Y-136210996D01*
X119429753Y-136231033D01*
X119351950Y-136281033D01*
X119267118Y-136378937D01*
X119267117Y-136378938D01*
X119213302Y-136496774D01*
X119194867Y-136625000D01*
X115505133Y-136625000D01*
X115486697Y-136496774D01*
X115432882Y-136378937D01*
X115348049Y-136281033D01*
X115239069Y-136210996D01*
X115239065Y-136210994D01*
X115239064Y-136210994D01*
X115114774Y-136174500D01*
X115114772Y-136174500D01*
X114985228Y-136174500D01*
X114985226Y-136174500D01*
X114860935Y-136210994D01*
X114860932Y-136210995D01*
X114860931Y-136210996D01*
X114829753Y-136231033D01*
X114751950Y-136281033D01*
X114667118Y-136378937D01*
X114667117Y-136378938D01*
X114613302Y-136496774D01*
X114594867Y-136625000D01*
X114253919Y-136625000D01*
X114286697Y-136553226D01*
X114305133Y-136425000D01*
X114286697Y-136296774D01*
X114232882Y-136178937D01*
X114148049Y-136081033D01*
X114039069Y-136010996D01*
X114039065Y-136010994D01*
X114039064Y-136010994D01*
X113914774Y-135974500D01*
X113914772Y-135974500D01*
X113785228Y-135974500D01*
X113785226Y-135974500D01*
X113660935Y-136010994D01*
X113660932Y-136010995D01*
X113660931Y-136010996D01*
X113609677Y-136043934D01*
X113551950Y-136081033D01*
X113467118Y-136178937D01*
X113467117Y-136178938D01*
X113413302Y-136296774D01*
X113394867Y-136425000D01*
X109076753Y-136425000D01*
X109086697Y-136403226D01*
X109105133Y-136275000D01*
X109086697Y-136146774D01*
X109032882Y-136028937D01*
X108948049Y-135931033D01*
X108839069Y-135860996D01*
X108839065Y-135860994D01*
X108839064Y-135860994D01*
X108714774Y-135824500D01*
X108714772Y-135824500D01*
X108585228Y-135824500D01*
X108585226Y-135824500D01*
X108460935Y-135860994D01*
X108460932Y-135860995D01*
X108460931Y-135860996D01*
X108431947Y-135879623D01*
X108351950Y-135931033D01*
X108267118Y-136028937D01*
X108267117Y-136028938D01*
X108213302Y-136146774D01*
X108194867Y-136275000D01*
X105750000Y-136275000D01*
X105750000Y-134775000D01*
X126794867Y-134775000D01*
X126813302Y-134903225D01*
X126867117Y-135021061D01*
X126867118Y-135021063D01*
X126951951Y-135118967D01*
X127060931Y-135189004D01*
X127060933Y-135189004D01*
X127068392Y-135193798D01*
X127067036Y-135195906D01*
X127109802Y-135232968D01*
X127129482Y-135300009D01*
X127109793Y-135367047D01*
X127067037Y-135404094D01*
X127068392Y-135406202D01*
X127060933Y-135410995D01*
X127060931Y-135410996D01*
X127029753Y-135431033D01*
X126951950Y-135481033D01*
X126867118Y-135578937D01*
X126867117Y-135578938D01*
X126813302Y-135696774D01*
X126794867Y-135825000D01*
X126813302Y-135953225D01*
X126867117Y-136071061D01*
X126867118Y-136071063D01*
X126951951Y-136168967D01*
X127060931Y-136239004D01*
X127185225Y-136275499D01*
X127185227Y-136275500D01*
X127185228Y-136275500D01*
X127314773Y-136275500D01*
X127314773Y-136275499D01*
X127439069Y-136239004D01*
X127548049Y-136168967D01*
X127632882Y-136071063D01*
X127686697Y-135953226D01*
X127686697Y-135953225D01*
X127687206Y-135952111D01*
X127732961Y-135899307D01*
X127800000Y-135879623D01*
X127867040Y-135899308D01*
X127912794Y-135952111D01*
X127913302Y-135953225D01*
X127913303Y-135953226D01*
X127967118Y-136071063D01*
X128051951Y-136168967D01*
X128160931Y-136239004D01*
X128285225Y-136275499D01*
X128285227Y-136275500D01*
X128285228Y-136275500D01*
X128414773Y-136275500D01*
X128414773Y-136275499D01*
X128539069Y-136239004D01*
X128648049Y-136168967D01*
X128732882Y-136071063D01*
X128786697Y-135953226D01*
X128805133Y-135825000D01*
X128797944Y-135775000D01*
X131594867Y-135775000D01*
X131613302Y-135903226D01*
X131613303Y-135903227D01*
X131666592Y-136019914D01*
X131668567Y-136033652D01*
X131689913Y-136047370D01*
X131751951Y-136118967D01*
X131860931Y-136189004D01*
X131935824Y-136210994D01*
X131985225Y-136225499D01*
X131985227Y-136225500D01*
X131985228Y-136225500D01*
X132114773Y-136225500D01*
X132114773Y-136225499D01*
X132239069Y-136189004D01*
X132348049Y-136118967D01*
X132432882Y-136021063D01*
X132486697Y-135903226D01*
X132505133Y-135775000D01*
X132486697Y-135646774D01*
X132432882Y-135528937D01*
X132348049Y-135431033D01*
X132239069Y-135360996D01*
X132239065Y-135360994D01*
X132239064Y-135360994D01*
X132114774Y-135324500D01*
X132114772Y-135324500D01*
X131985228Y-135324500D01*
X131985226Y-135324500D01*
X131860935Y-135360994D01*
X131860932Y-135360995D01*
X131860931Y-135360996D01*
X131809677Y-135393934D01*
X131751950Y-135431033D01*
X131667118Y-135528937D01*
X131667117Y-135528938D01*
X131613302Y-135646774D01*
X131594867Y-135775000D01*
X128797944Y-135775000D01*
X128786697Y-135696774D01*
X128732882Y-135578937D01*
X128648049Y-135481033D01*
X128539069Y-135410996D01*
X128539066Y-135410995D01*
X128531608Y-135406202D01*
X128532963Y-135404092D01*
X128490203Y-135367042D01*
X128470517Y-135300003D01*
X128490200Y-135232963D01*
X128532963Y-135195906D01*
X128531608Y-135193798D01*
X128539066Y-135189004D01*
X128539069Y-135189004D01*
X128648049Y-135118967D01*
X128732882Y-135021063D01*
X128786697Y-134903226D01*
X128805133Y-134775000D01*
X128786697Y-134646774D01*
X128732882Y-134528937D01*
X128648049Y-134431033D01*
X128539069Y-134360996D01*
X128539065Y-134360994D01*
X128539064Y-134360994D01*
X128414774Y-134324500D01*
X128414772Y-134324500D01*
X128285228Y-134324500D01*
X128285226Y-134324500D01*
X128160935Y-134360994D01*
X128160932Y-134360995D01*
X128160931Y-134360996D01*
X128134121Y-134378226D01*
X128051950Y-134431033D01*
X127967118Y-134528937D01*
X127967117Y-134528938D01*
X127912794Y-134647888D01*
X127867039Y-134700692D01*
X127799999Y-134720376D01*
X127732960Y-134700691D01*
X127687206Y-134647888D01*
X127668130Y-134606119D01*
X127632882Y-134528937D01*
X127548049Y-134431033D01*
X127439069Y-134360996D01*
X127439065Y-134360994D01*
X127439064Y-134360994D01*
X127314774Y-134324500D01*
X127314772Y-134324500D01*
X127185228Y-134324500D01*
X127185226Y-134324500D01*
X127060935Y-134360994D01*
X127060932Y-134360995D01*
X127060931Y-134360996D01*
X127034121Y-134378226D01*
X126951950Y-134431033D01*
X126867118Y-134528937D01*
X126867117Y-134528938D01*
X126813302Y-134646774D01*
X126794867Y-134775000D01*
X105750000Y-134775000D01*
X105750000Y-134081092D01*
X105750597Y-134068938D01*
X105760237Y-133971061D01*
X105768018Y-133892056D01*
X105772757Y-133868232D01*
X105822577Y-133703994D01*
X105831875Y-133681549D01*
X105912775Y-133530195D01*
X105926272Y-133509995D01*
X106035149Y-133377328D01*
X106052328Y-133360149D01*
X106184995Y-133251272D01*
X106205195Y-133237775D01*
X106356549Y-133156875D01*
X106378994Y-133147577D01*
X106543232Y-133097757D01*
X106567056Y-133093018D01*
X106743939Y-133075597D01*
X106756093Y-133075000D01*
X115025500Y-133075000D01*
X115092539Y-133094685D01*
X115138294Y-133147489D01*
X115149500Y-133199000D01*
X115149500Y-133833760D01*
X115129815Y-133900799D01*
X115119214Y-133914962D01*
X115042118Y-134003937D01*
X115042117Y-134003938D01*
X114988302Y-134121774D01*
X114969867Y-134250000D01*
X114988302Y-134378225D01*
X115042117Y-134496061D01*
X115042118Y-134496063D01*
X115126951Y-134593967D01*
X115235931Y-134664004D01*
X115321079Y-134689005D01*
X115360225Y-134700499D01*
X115360227Y-134700500D01*
X115360228Y-134700500D01*
X115489773Y-134700500D01*
X115489773Y-134700499D01*
X115614069Y-134664004D01*
X115723049Y-134593967D01*
X115807882Y-134496063D01*
X115861697Y-134378226D01*
X115880133Y-134250000D01*
X115861697Y-134121774D01*
X115807882Y-134003937D01*
X115730786Y-133914962D01*
X115701762Y-133851406D01*
X115700500Y-133833760D01*
X115700500Y-133215477D01*
X115720185Y-133148438D01*
X115736819Y-133127796D01*
X115753296Y-133111319D01*
X115814619Y-133077834D01*
X115840977Y-133075000D01*
X116771636Y-133075000D01*
X116838675Y-133094685D01*
X116884430Y-133147489D01*
X116894374Y-133216647D01*
X116884431Y-133250511D01*
X116863302Y-133296776D01*
X116844867Y-133425000D01*
X116863302Y-133553225D01*
X116876002Y-133581033D01*
X116917118Y-133671063D01*
X117001951Y-133768967D01*
X117110931Y-133839004D01*
X117235225Y-133875499D01*
X117235227Y-133875500D01*
X117235228Y-133875500D01*
X117364773Y-133875500D01*
X117364773Y-133875499D01*
X117489069Y-133839004D01*
X117598049Y-133768967D01*
X117681787Y-133672325D01*
X117740564Y-133634552D01*
X117810433Y-133634551D01*
X117869212Y-133672325D01*
X117898238Y-133735880D01*
X117899500Y-133753529D01*
X117899500Y-133833760D01*
X117879815Y-133900799D01*
X117869214Y-133914962D01*
X117792118Y-134003937D01*
X117792117Y-134003938D01*
X117738302Y-134121774D01*
X117719867Y-134250000D01*
X117738302Y-134378225D01*
X117792117Y-134496061D01*
X117792118Y-134496063D01*
X117876951Y-134593967D01*
X117985931Y-134664004D01*
X118071079Y-134689005D01*
X118110225Y-134700499D01*
X118110227Y-134700500D01*
X118110228Y-134700500D01*
X118239773Y-134700500D01*
X118239773Y-134700499D01*
X118364069Y-134664004D01*
X118473049Y-134593967D01*
X118532956Y-134524828D01*
X118591731Y-134487056D01*
X118661600Y-134487054D01*
X118720380Y-134524827D01*
X118801951Y-134618967D01*
X118910931Y-134689004D01*
X118950738Y-134700692D01*
X119035225Y-134725499D01*
X119035227Y-134725500D01*
X119035228Y-134725500D01*
X119164773Y-134725500D01*
X119164773Y-134725499D01*
X119289069Y-134689004D01*
X119398049Y-134618967D01*
X119479617Y-134524830D01*
X119538395Y-134487055D01*
X119608264Y-134487054D01*
X119667042Y-134524827D01*
X119726951Y-134593967D01*
X119835931Y-134664004D01*
X119921079Y-134689005D01*
X119960225Y-134700499D01*
X119960227Y-134700500D01*
X119960228Y-134700500D01*
X120089773Y-134700500D01*
X120089773Y-134700499D01*
X120214069Y-134664004D01*
X120323049Y-134593967D01*
X120407882Y-134496063D01*
X120461697Y-134378226D01*
X120480133Y-134250000D01*
X120461697Y-134121774D01*
X120407882Y-134003937D01*
X120330786Y-133914962D01*
X120301762Y-133851406D01*
X120300500Y-133833760D01*
X120300500Y-133199000D01*
X120320185Y-133131961D01*
X120372989Y-133086206D01*
X120424500Y-133075000D01*
X121371636Y-133075000D01*
X121438675Y-133094685D01*
X121484430Y-133147489D01*
X121494374Y-133216647D01*
X121484431Y-133250511D01*
X121463302Y-133296776D01*
X121444867Y-133425000D01*
X121463302Y-133553225D01*
X121476002Y-133581033D01*
X121517118Y-133671063D01*
X121601951Y-133768967D01*
X121710931Y-133839004D01*
X121835225Y-133875499D01*
X121835227Y-133875500D01*
X121835228Y-133875500D01*
X121964773Y-133875500D01*
X121964773Y-133875499D01*
X122089069Y-133839004D01*
X122198049Y-133768967D01*
X122281787Y-133672325D01*
X122340564Y-133634552D01*
X122410433Y-133634551D01*
X122469212Y-133672325D01*
X122498238Y-133735880D01*
X122499500Y-133753529D01*
X122499500Y-133833760D01*
X122479815Y-133900799D01*
X122469214Y-133914962D01*
X122392118Y-134003937D01*
X122392117Y-134003938D01*
X122338302Y-134121774D01*
X122319867Y-134250000D01*
X122338302Y-134378225D01*
X122392117Y-134496061D01*
X122392118Y-134496063D01*
X122476951Y-134593967D01*
X122585931Y-134664004D01*
X122671079Y-134689005D01*
X122710225Y-134700499D01*
X122710227Y-134700500D01*
X122710228Y-134700500D01*
X122839773Y-134700500D01*
X122839773Y-134700499D01*
X122964069Y-134664004D01*
X123073049Y-134593967D01*
X123157882Y-134496063D01*
X123211697Y-134378226D01*
X123230133Y-134250000D01*
X123211697Y-134121774D01*
X123157882Y-134003937D01*
X123080786Y-133914962D01*
X123051762Y-133851406D01*
X123050500Y-133833760D01*
X123050500Y-133725000D01*
X129344867Y-133725000D01*
X129363302Y-133853225D01*
X129398837Y-133931034D01*
X129417118Y-133971063D01*
X129501951Y-134068967D01*
X129610931Y-134139004D01*
X129720117Y-134171063D01*
X129735225Y-134175499D01*
X129735227Y-134175500D01*
X129735228Y-134175500D01*
X129864773Y-134175500D01*
X129864773Y-134175499D01*
X129989069Y-134139004D01*
X130098049Y-134068967D01*
X130182882Y-133971063D01*
X130203919Y-133925000D01*
X131444867Y-133925000D01*
X131463302Y-134053225D01*
X131476029Y-134081092D01*
X131517118Y-134171063D01*
X131601951Y-134268967D01*
X131710931Y-134339004D01*
X131785824Y-134360994D01*
X131835225Y-134375499D01*
X131835227Y-134375500D01*
X131835228Y-134375500D01*
X131964773Y-134375500D01*
X131964773Y-134375499D01*
X132089069Y-134339004D01*
X132198049Y-134268967D01*
X132282882Y-134171063D01*
X132336697Y-134053226D01*
X132355133Y-133925000D01*
X132336697Y-133796774D01*
X132282882Y-133678937D01*
X132198049Y-133581033D01*
X132089069Y-133510996D01*
X132089065Y-133510994D01*
X132089064Y-133510994D01*
X131964774Y-133474500D01*
X131964772Y-133474500D01*
X131835228Y-133474500D01*
X131835226Y-133474500D01*
X131710935Y-133510994D01*
X131710932Y-133510995D01*
X131710931Y-133510996D01*
X131681057Y-133530195D01*
X131601950Y-133581033D01*
X131517118Y-133678937D01*
X131517117Y-133678938D01*
X131463302Y-133796774D01*
X131444867Y-133925000D01*
X130203919Y-133925000D01*
X130236697Y-133853226D01*
X130255133Y-133725000D01*
X130236697Y-133596774D01*
X130182882Y-133478937D01*
X130098049Y-133381033D01*
X129989069Y-133310996D01*
X129989065Y-133310994D01*
X129989064Y-133310994D01*
X129864774Y-133274500D01*
X129864772Y-133274500D01*
X129735228Y-133274500D01*
X129735226Y-133274500D01*
X129610935Y-133310994D01*
X129610932Y-133310995D01*
X129610931Y-133310996D01*
X129559677Y-133343934D01*
X129501950Y-133381033D01*
X129417118Y-133478937D01*
X129417117Y-133478938D01*
X129363302Y-133596774D01*
X129344867Y-133725000D01*
X123050500Y-133725000D01*
X123050500Y-133199000D01*
X123070185Y-133131961D01*
X123122989Y-133086206D01*
X123174500Y-133075000D01*
X124785783Y-133075000D01*
X124785786Y-133075000D01*
X125200000Y-133075000D01*
X128599999Y-129675000D01*
X129869867Y-129675000D01*
X129888302Y-129803225D01*
X129942117Y-129921061D01*
X129942118Y-129921063D01*
X130026951Y-130018967D01*
X130135931Y-130089004D01*
X130260225Y-130125499D01*
X130260227Y-130125500D01*
X130260228Y-130125500D01*
X130389773Y-130125500D01*
X130389773Y-130125499D01*
X130514069Y-130089004D01*
X130623049Y-130018967D01*
X130707882Y-129921063D01*
X130761697Y-129803226D01*
X130780133Y-129675000D01*
X130761697Y-129546774D01*
X130707882Y-129428937D01*
X130623049Y-129331033D01*
X130514069Y-129260996D01*
X130514065Y-129260994D01*
X130514064Y-129260994D01*
X130389774Y-129224500D01*
X130389772Y-129224500D01*
X130260228Y-129224500D01*
X130260226Y-129224500D01*
X130135935Y-129260994D01*
X130135932Y-129260995D01*
X130135931Y-129260996D01*
X130084677Y-129293934D01*
X130026950Y-129331033D01*
X129942118Y-129428937D01*
X129942117Y-129428938D01*
X129888302Y-129546774D01*
X129869867Y-129675000D01*
X128599999Y-129675000D01*
X129602807Y-128672192D01*
X129611802Y-128664039D01*
X129749208Y-128551272D01*
X129769408Y-128537775D01*
X129920762Y-128456875D01*
X129943207Y-128447577D01*
X130107445Y-128397757D01*
X130131269Y-128393018D01*
X130308153Y-128375597D01*
X130320307Y-128375000D01*
X131078041Y-128375000D01*
X131145080Y-128394685D01*
G37*
%TD.AperFunction*%
%TD*%
M02*
