%TF.GenerationSoftware,KiCad,Pcbnew,8.0.9-8.0.9-0~ubuntu24.04.1*%
%TF.CreationDate,2025-02-21T00:59:10+00:00*%
%TF.ProjectId,TPB,5450422e-6b69-4636-9164-5f7063625858,1.0.0*%
%TF.SameCoordinates,Original*%
%TF.FileFunction,Copper,L2,Bot*%
%TF.FilePolarity,Positive*%
%FSLAX46Y46*%
G04 Gerber Fmt 4.6, Leading zero omitted, Abs format (unit mm)*
G04 Created by KiCad (PCBNEW 8.0.9-8.0.9-0~ubuntu24.04.1) date 2025-02-21 00:59:10*
%MOMM*%
%LPD*%
G01*
G04 APERTURE LIST*
G04 Aperture macros list*
%AMRoundRect*
0 Rectangle with rounded corners*
0 $1 Rounding radius*
0 $2 $3 $4 $5 $6 $7 $8 $9 X,Y pos of 4 corners*
0 Add a 4 corners polygon primitive as box body*
4,1,4,$2,$3,$4,$5,$6,$7,$8,$9,$2,$3,0*
0 Add four circle primitives for the rounded corners*
1,1,$1+$1,$2,$3*
1,1,$1+$1,$4,$5*
1,1,$1+$1,$6,$7*
1,1,$1+$1,$8,$9*
0 Add four rect primitives between the rounded corners*
20,1,$1+$1,$2,$3,$4,$5,0*
20,1,$1+$1,$4,$5,$6,$7,0*
20,1,$1+$1,$6,$7,$8,$9,0*
20,1,$1+$1,$8,$9,$2,$3,0*%
G04 Aperture macros list end*
%TA.AperFunction,ComponentPad*%
%ADD10RoundRect,0.249999X0.525001X0.525001X-0.525001X0.525001X-0.525001X-0.525001X0.525001X-0.525001X0*%
%TD*%
%TA.AperFunction,ComponentPad*%
%ADD11C,1.550000*%
%TD*%
%TA.AperFunction,ComponentPad*%
%ADD12C,2.700000*%
%TD*%
%TA.AperFunction,ComponentPad*%
%ADD13RoundRect,0.250000X-1.775000X-1.775000X1.775000X-1.775000X1.775000X1.775000X-1.775000X1.775000X0*%
%TD*%
%TA.AperFunction,ComponentPad*%
%ADD14C,4.050000*%
%TD*%
%TA.AperFunction,ComponentPad*%
%ADD15C,1.600000*%
%TD*%
%TA.AperFunction,ViaPad*%
%ADD16C,0.600000*%
%TD*%
%TA.AperFunction,ViaPad*%
%ADD17C,0.500000*%
%TD*%
%TA.AperFunction,Conductor*%
%ADD18C,0.500000*%
%TD*%
G04 APERTURE END LIST*
D10*
%TO.P,J200,a1,a1*%
%TO.N,GND*%
X128740000Y-145975000D03*
D11*
%TO.P,J200,a2,a2*%
%TO.N,/Backplane/BACKPLANE.D+*%
X126200000Y-145975000D03*
%TO.P,J200,a3,a3*%
%TO.N,+5V_STDBY*%
X123660000Y-145975000D03*
%TO.P,J200,a4,a4*%
%TO.N,GND*%
X121120000Y-145975000D03*
%TO.P,J200,a5,a5*%
%TO.N,/Backplane/CAN1.+*%
X118580000Y-145975000D03*
%TO.P,J200,a6,a6*%
%TO.N,/Backplane/CAN1.-*%
X116040000Y-145975000D03*
%TO.P,J200,a7,a7*%
%TO.N,GND*%
X113500000Y-145975000D03*
%TO.P,J200,a8,a8*%
%TO.N,/Backplane/CAN2.+*%
X110960000Y-145975000D03*
%TO.P,J200,a9,a9*%
%TO.N,/Backplane/CAN2.-*%
X108420000Y-145975000D03*
%TO.P,J200,a10,a10*%
%TO.N,GND*%
X105880000Y-145975000D03*
%TO.P,J200,a11,a11*%
%TO.N,+12V*%
X103340000Y-145975000D03*
%TO.P,J200,a12,a12*%
X100800000Y-145975000D03*
%TO.P,J200,a13,a13*%
%TO.N,GND*%
X98260000Y-145975000D03*
%TO.P,J200,a14,a14*%
%TO.N,+24V*%
X95720000Y-145975000D03*
%TO.P,J200,a15,a15*%
%TO.N,GND*%
X93180000Y-145975000D03*
%TO.P,J200,a16,a16*%
%TO.N,/Backplane/GPIOL0*%
X90640000Y-145975000D03*
%TO.P,J200,a17,a17*%
%TO.N,/Backplane/GPIOL1*%
X88100000Y-145975000D03*
%TO.P,J200,a18,a18*%
%TO.N,/Backplane/GPIOL2*%
X85560000Y-145975000D03*
%TO.P,J200,a19,a19*%
%TO.N,/Backplane/GPIOL3*%
X83020000Y-145975000D03*
%TO.P,J200,a20,a20*%
%TO.N,/Backplane/GPIOL4*%
X80480000Y-145975000D03*
%TO.P,J200,a21,a21*%
%TO.N,/Backplane/GPIOL5*%
X77940000Y-145975000D03*
%TO.P,J200,a22,a22*%
%TO.N,/Backplane/GPIOL6*%
X75400000Y-145975000D03*
%TO.P,J200,a23,a23*%
%TO.N,/Backplane/GPIOL7*%
X72860000Y-145975000D03*
%TO.P,J200,a24,a24*%
%TO.N,/Backplane/GPIOL8*%
X70320000Y-145975000D03*
%TO.P,J200,a25,a25*%
%TO.N,/Backplane/GPIOL9*%
X67780000Y-145975000D03*
%TO.P,J200,a26,a26*%
%TO.N,/Backplane/GPIOL10*%
X65240000Y-145975000D03*
%TO.P,J200,a27,a27*%
%TO.N,/Backplane/GPIOL11*%
X62700000Y-145975000D03*
%TO.P,J200,a28,a28*%
%TO.N,/Backplane/GPIOL12*%
X60160000Y-145975000D03*
%TO.P,J200,a29,a29*%
%TO.N,/Backplane/GPIOL13*%
X57620000Y-145975000D03*
%TO.P,J200,a30,a30*%
%TO.N,/Backplane/GPIOL14*%
X55080000Y-145975000D03*
%TO.P,J200,a31,a31*%
%TO.N,/Backplane/GPIOL15*%
X52540000Y-145975000D03*
%TO.P,J200,a32,a32*%
%TO.N,GND*%
X50000000Y-145975000D03*
%TO.P,J200,b1,b1*%
X128740000Y-143435000D03*
%TO.P,J200,b2,b2*%
X126200000Y-143435000D03*
%TO.P,J200,b3,b3*%
%TO.N,+5V_STDBY*%
X123660000Y-143435000D03*
%TO.P,J200,b4,b4*%
%TO.N,GND*%
X121120000Y-143435000D03*
%TO.P,J200,b5,b5*%
%TO.N,/Backplane/CAN1.+*%
X118580000Y-143435000D03*
%TO.P,J200,b6,b6*%
%TO.N,/Backplane/CAN1.-*%
X116040000Y-143435000D03*
%TO.P,J200,b7,b7*%
%TO.N,GND*%
X113500000Y-143435000D03*
%TO.P,J200,b8,b8*%
%TO.N,/Backplane/CAN2.+*%
X110960000Y-143435000D03*
%TO.P,J200,b9,b9*%
%TO.N,/Backplane/CAN2.-*%
X108420000Y-143435000D03*
%TO.P,J200,b10,b10*%
%TO.N,GND*%
X105880000Y-143435000D03*
%TO.P,J200,b11,b11*%
%TO.N,+12V*%
X103340000Y-143435000D03*
%TO.P,J200,b12,b12*%
X100800000Y-143435000D03*
%TO.P,J200,b13,b13*%
%TO.N,GND*%
X98260000Y-143435000D03*
%TO.P,J200,b14,b14*%
%TO.N,+24V*%
X95720000Y-143435000D03*
%TO.P,J200,b15,b15*%
%TO.N,GND*%
X93180000Y-143435000D03*
%TO.P,J200,b16,b16*%
%TO.N,/Backplane/GPIOC0*%
X90640000Y-143435000D03*
%TO.P,J200,b17,b17*%
%TO.N,/Backplane/GPIOC1*%
X88100000Y-143435000D03*
%TO.P,J200,b18,b18*%
%TO.N,/Backplane/GPIOC2*%
X85560000Y-143435000D03*
%TO.P,J200,b19,b19*%
%TO.N,/Backplane/GPIOC3*%
X83020000Y-143435000D03*
%TO.P,J200,b20,b20*%
%TO.N,/Backplane/GPIOC4*%
X80480000Y-143435000D03*
%TO.P,J200,b21,b21*%
%TO.N,/Backplane/GPIOC5*%
X77940000Y-143435000D03*
%TO.P,J200,b22,b22*%
%TO.N,/Backplane/GPIOC6*%
X75400000Y-143435000D03*
%TO.P,J200,b23,b23*%
%TO.N,/Backplane/GPIOC7*%
X72860000Y-143435000D03*
%TO.P,J200,b24,b24*%
%TO.N,/Backplane/GPIOC8*%
X70320000Y-143435000D03*
%TO.P,J200,b25,b25*%
%TO.N,/Backplane/GPIOC9*%
X67780000Y-143435000D03*
%TO.P,J200,b26,b26*%
%TO.N,/Backplane/GPIOC10*%
X65240000Y-143435000D03*
%TO.P,J200,b27,b27*%
%TO.N,/Backplane/GPIOC11*%
X62700000Y-143435000D03*
%TO.P,J200,b28,b28*%
%TO.N,/Backplane/GPIOC12*%
X60160000Y-143435000D03*
%TO.P,J200,b29,b29*%
%TO.N,/Backplane/GPIOC13*%
X57620000Y-143435000D03*
%TO.P,J200,b30,b30*%
%TO.N,/Backplane/GPIOC14*%
X55080000Y-143435000D03*
%TO.P,J200,b31,b31*%
%TO.N,/Backplane/GPIOC15*%
X52540000Y-143435000D03*
%TO.P,J200,b32,b32*%
%TO.N,GND*%
X50000000Y-143435000D03*
%TO.P,J200,c1,c1*%
X128740000Y-140895000D03*
%TO.P,J200,c2,c2*%
%TO.N,/Backplane/BACKPLANE.D-*%
X126200000Y-140895000D03*
%TO.P,J200,c3,c3*%
%TO.N,+5V_STDBY*%
X123660000Y-140895000D03*
%TO.P,J200,c4,c4*%
%TO.N,GND*%
X121120000Y-140895000D03*
%TO.P,J200,c5,c5*%
%TO.N,/Backplane/CAN1.+*%
X118580000Y-140895000D03*
%TO.P,J200,c6,c6*%
%TO.N,/Backplane/CAN1.-*%
X116040000Y-140895000D03*
%TO.P,J200,c7,c7*%
%TO.N,GND*%
X113500000Y-140895000D03*
%TO.P,J200,c8,c8*%
%TO.N,/Backplane/CAN2.+*%
X110960000Y-140895000D03*
%TO.P,J200,c9,c9*%
%TO.N,/Backplane/CAN2.-*%
X108420000Y-140895000D03*
%TO.P,J200,c10,c10*%
%TO.N,GND*%
X105880000Y-140895000D03*
%TO.P,J200,c11,c11*%
%TO.N,+12V*%
X103340000Y-140895000D03*
%TO.P,J200,c12,c12*%
X100800000Y-140895000D03*
%TO.P,J200,c13,c13*%
%TO.N,GND*%
X98260000Y-140895000D03*
%TO.P,J200,c14,c14*%
%TO.N,+24V*%
X95720000Y-140895000D03*
%TO.P,J200,c15,c15*%
%TO.N,GND*%
X93180000Y-140895000D03*
%TO.P,J200,c16,c16*%
%TO.N,/Backplane/GPIOR0*%
X90640000Y-140895000D03*
%TO.P,J200,c17,c17*%
%TO.N,/Backplane/GPIOR1*%
X88100000Y-140895000D03*
%TO.P,J200,c18,c18*%
%TO.N,/Backplane/GPIOR2*%
X85560000Y-140895000D03*
%TO.P,J200,c19,c19*%
%TO.N,/Backplane/GPIOR3*%
X83020000Y-140895000D03*
%TO.P,J200,c20,c20*%
%TO.N,/Backplane/GPIOR4*%
X80480000Y-140895000D03*
%TO.P,J200,c21,c21*%
%TO.N,/Backplane/GPIOR5*%
X77940000Y-140895000D03*
%TO.P,J200,c22,c22*%
%TO.N,/Backplane/GPIOR6*%
X75400000Y-140895000D03*
%TO.P,J200,c23,c23*%
%TO.N,/Backplane/GPIOR7*%
X72860000Y-140895000D03*
%TO.P,J200,c24,c24*%
%TO.N,/Backplane/GPIOR8*%
X70320000Y-140895000D03*
%TO.P,J200,c25,c25*%
%TO.N,/Backplane/GPIOR9*%
X67780000Y-140895000D03*
%TO.P,J200,c26,c26*%
%TO.N,/Backplane/GPIOR10*%
X65240000Y-140895000D03*
%TO.P,J200,c27,c27*%
%TO.N,/Backplane/GPIOR11*%
X62700000Y-140895000D03*
%TO.P,J200,c28,c28*%
%TO.N,/Backplane/GPIOR12*%
X60160000Y-140895000D03*
%TO.P,J200,c29,c29*%
%TO.N,/Backplane/GPIOR13*%
X57620000Y-140895000D03*
%TO.P,J200,c30,c30*%
%TO.N,/Backplane/GPIOR14*%
X55080000Y-140895000D03*
%TO.P,J200,c31,c31*%
%TO.N,/Backplane/GPIOR15*%
X52540000Y-140895000D03*
%TO.P,J200,c32,c32*%
%TO.N,GND*%
X50000000Y-140895000D03*
%TD*%
D12*
%TO.P,J400,0*%
%TO.N,GND*%
X94720000Y-61647501D03*
X108220000Y-61647501D03*
D13*
%TO.P,J400,1,PWR*%
%TO.N,+12V*%
X105070000Y-67647501D03*
D14*
%TO.P,J400,2,GND*%
%TO.N,GND*%
X97870000Y-67647501D03*
%TD*%
D15*
%TO.P,LED400,1*%
%TO.N,+12V*%
X111983600Y-55725844D03*
%TO.P,LED400,2*%
%TO.N,Net-(LED400-Pad2)*%
X114523600Y-55725844D03*
%TO.P,LED400,3*%
%TO.N,+5V_STDBY*%
X111983600Y-58265844D03*
%TO.P,LED400,4*%
%TO.N,Net-(LED400-Pad4)*%
X114523600Y-58265844D03*
%TD*%
D16*
%TO.N,GND*%
X126000000Y-118000000D03*
X70000000Y-122000000D03*
X126000000Y-98000000D03*
X46000000Y-134000000D03*
X50000000Y-126000000D03*
X54000000Y-74000000D03*
X58000000Y-54000000D03*
X138000000Y-58000000D03*
X46000000Y-74000000D03*
X42000000Y-62000000D03*
X50000000Y-94000000D03*
X50000000Y-118000000D03*
X62000000Y-114000000D03*
X46000000Y-98000000D03*
X118000000Y-54000000D03*
X74000000Y-98000000D03*
X58000000Y-118000000D03*
X66000000Y-90000000D03*
X82000000Y-70000000D03*
X42000000Y-122000000D03*
X58000000Y-86000000D03*
X50000000Y-58000000D03*
X106000000Y-150000000D03*
X126000000Y-106000000D03*
X46000000Y-70000000D03*
X130000000Y-134000000D03*
X62000000Y-74000000D03*
X50000000Y-78000000D03*
X86000000Y-110000000D03*
X42000000Y-138000000D03*
X94000000Y-150000000D03*
X90000000Y-70000000D03*
X102000000Y-58000000D03*
X82000000Y-110000000D03*
X42000000Y-70000000D03*
X138000000Y-94000000D03*
X106000000Y-118000000D03*
X86000000Y-126000000D03*
X82000000Y-150000000D03*
X82000000Y-62000000D03*
X78000000Y-138000000D03*
X94000000Y-94000000D03*
X134000000Y-74000000D03*
X58000000Y-78000000D03*
X134000000Y-66000000D03*
X62000000Y-150000000D03*
X58000000Y-134000000D03*
X78000000Y-90000000D03*
X90000000Y-118000000D03*
X62000000Y-98000000D03*
X62000000Y-58000000D03*
X78000000Y-114000000D03*
X54000000Y-82000000D03*
X86000000Y-138000000D03*
X58000000Y-98000000D03*
X70000000Y-74000000D03*
X74000000Y-94000000D03*
X78000000Y-58000000D03*
X94000000Y-90000000D03*
X70000000Y-62000000D03*
X50000000Y-66000000D03*
X90000000Y-66000000D03*
X110000000Y-138000000D03*
X98000000Y-78000000D03*
X74000000Y-122000000D03*
X134000000Y-58000000D03*
X58000000Y-74000000D03*
X78000000Y-118000000D03*
X130000000Y-110000000D03*
X42000000Y-114000000D03*
X138000000Y-118000000D03*
X86000000Y-74000000D03*
X62000000Y-126000000D03*
X66000000Y-70000000D03*
X74000000Y-62000000D03*
X82000000Y-78000000D03*
X58000000Y-66000000D03*
X50000000Y-106000000D03*
X94000000Y-98000000D03*
X66000000Y-138000000D03*
X98000000Y-86000000D03*
X130000000Y-74000000D03*
X94000000Y-134000000D03*
X50000000Y-74000000D03*
X138000000Y-146000000D03*
X70000000Y-86000000D03*
X66000000Y-98000000D03*
X138000000Y-54000000D03*
X130000000Y-94000000D03*
X138000000Y-122000000D03*
X78000000Y-94000000D03*
X134000000Y-138000000D03*
X130000000Y-54000000D03*
X70000000Y-54000000D03*
X122000000Y-62000000D03*
X66000000Y-134000000D03*
X70000000Y-130000000D03*
X54000000Y-86000000D03*
X90000000Y-98000000D03*
X94000000Y-58000000D03*
X62000000Y-106000000D03*
X62000000Y-122000000D03*
X50000000Y-134000000D03*
X46000000Y-130000000D03*
X138000000Y-98000000D03*
X138000000Y-142000000D03*
X94000000Y-102000000D03*
X126000000Y-62000000D03*
X94000000Y-118000000D03*
X130000000Y-90000000D03*
X118000000Y-74000000D03*
X70000000Y-70000000D03*
X58000000Y-70000000D03*
X138000000Y-86000000D03*
X62000000Y-86000000D03*
X66000000Y-118000000D03*
X138000000Y-90000000D03*
X62000000Y-130000000D03*
X90000000Y-74000000D03*
X58000000Y-114000000D03*
X126000000Y-66000000D03*
X50000000Y-62000000D03*
X58000000Y-106000000D03*
X138000000Y-102000000D03*
X74000000Y-54000000D03*
X50000000Y-138000000D03*
X86000000Y-86000000D03*
X42000000Y-54000000D03*
X126000000Y-138000000D03*
X42000000Y-98000000D03*
X106000000Y-138000000D03*
X126000000Y-86000000D03*
X66000000Y-78000000D03*
X58000000Y-138000000D03*
X62000000Y-66000000D03*
X86000000Y-114000000D03*
X70000000Y-78000000D03*
X82000000Y-118000000D03*
X78000000Y-66000000D03*
X70000000Y-110000000D03*
X66000000Y-106000000D03*
X126000000Y-82000000D03*
X90000000Y-58000000D03*
X62000000Y-118000000D03*
X130000000Y-102000000D03*
X110000000Y-134000000D03*
X54000000Y-138000000D03*
X70000000Y-98000000D03*
X98000000Y-54000000D03*
X58000000Y-150000000D03*
X130000000Y-118000000D03*
X62000000Y-138000000D03*
X54000000Y-126000000D03*
X130000000Y-106000000D03*
X98000000Y-62000000D03*
X106000000Y-58000000D03*
X62000000Y-62000000D03*
X126000000Y-78000000D03*
X42000000Y-134000000D03*
X74000000Y-66000000D03*
X134000000Y-62000000D03*
X66000000Y-82000000D03*
X110000000Y-150000000D03*
X42000000Y-102000000D03*
X94000000Y-110000000D03*
X82000000Y-130000000D03*
X130000000Y-150000000D03*
X50000000Y-54000000D03*
X86000000Y-106000000D03*
X78000000Y-110000000D03*
X94000000Y-70000000D03*
X42000000Y-146000000D03*
X46000000Y-62000000D03*
X42000000Y-58000000D03*
X86000000Y-94000000D03*
X46000000Y-58000000D03*
X62000000Y-94000000D03*
X114000000Y-114000000D03*
X50000000Y-102000000D03*
X122000000Y-82000000D03*
X114000000Y-138000000D03*
X118000000Y-66000000D03*
X70000000Y-126000000D03*
X66000000Y-102000000D03*
X54000000Y-66000000D03*
X94000000Y-54000000D03*
X138000000Y-130000000D03*
X74000000Y-82000000D03*
X122000000Y-86000000D03*
X70000000Y-114000000D03*
X42000000Y-94000000D03*
X118000000Y-138000000D03*
X66000000Y-114000000D03*
X46000000Y-146000000D03*
X130000000Y-98000000D03*
X90000000Y-62000000D03*
X62000000Y-54000000D03*
X94000000Y-122000000D03*
X78000000Y-70000000D03*
X78000000Y-98000000D03*
X58000000Y-122000000D03*
X126000000Y-150000000D03*
X126000000Y-134000000D03*
X130000000Y-82000000D03*
X46000000Y-94000000D03*
X66000000Y-62000000D03*
X70000000Y-90000000D03*
X42000000Y-126000000D03*
X122000000Y-122000000D03*
X122000000Y-150000000D03*
X74000000Y-126000000D03*
X106000000Y-54000000D03*
X90000000Y-106000000D03*
X98000000Y-150000000D03*
X54000000Y-110000000D03*
X114000000Y-66000000D03*
X90000000Y-130000000D03*
X122000000Y-58000000D03*
X122000000Y-90000000D03*
X54000000Y-94000000D03*
X78000000Y-134000000D03*
X54000000Y-62000000D03*
X130000000Y-130000000D03*
X78000000Y-102000000D03*
X118000000Y-82000000D03*
X106000000Y-134000000D03*
X90000000Y-78000000D03*
X82000000Y-82000000D03*
X70000000Y-94000000D03*
X86000000Y-134000000D03*
X46000000Y-114000000D03*
X82000000Y-102000000D03*
X50000000Y-98000000D03*
X42000000Y-78000000D03*
X54000000Y-106000000D03*
X42000000Y-110000000D03*
X114000000Y-54000000D03*
X102000000Y-62000000D03*
X130000000Y-142000000D03*
X122000000Y-70000000D03*
X54000000Y-130000000D03*
X102000000Y-54000000D03*
X126000000Y-114000000D03*
X50000000Y-122000000D03*
X42000000Y-86000000D03*
X70000000Y-58000000D03*
X86000000Y-98000000D03*
X134000000Y-126000000D03*
X126000000Y-110000000D03*
X78000000Y-86000000D03*
X122000000Y-114000000D03*
X82000000Y-86000000D03*
X118000000Y-150000000D03*
X138000000Y-126000000D03*
X74000000Y-138000000D03*
X78000000Y-74000000D03*
X106000000Y-126000000D03*
X66000000Y-86000000D03*
X82000000Y-90000000D03*
X138000000Y-150000000D03*
X98000000Y-58000000D03*
X130000000Y-122000000D03*
X54000000Y-98000000D03*
X82000000Y-114000000D03*
X134000000Y-142000000D03*
X86000000Y-150000000D03*
X138000000Y-138000000D03*
X86000000Y-78000000D03*
X74000000Y-86000000D03*
X90000000Y-94000000D03*
X74000000Y-58000000D03*
X94000000Y-114000000D03*
X70000000Y-138000000D03*
X122000000Y-66000000D03*
X58000000Y-62000000D03*
X94000000Y-130000000D03*
X118000000Y-62000000D03*
X66000000Y-74000000D03*
X106000000Y-114000000D03*
X82000000Y-74000000D03*
X54000000Y-142000000D03*
X126000000Y-70000000D03*
X74000000Y-90000000D03*
X126000000Y-102000000D03*
X102000000Y-150000000D03*
X90000000Y-90000000D03*
X98000000Y-74000000D03*
X126000000Y-90000000D03*
X54000000Y-118000000D03*
X114000000Y-150000000D03*
X54000000Y-54000000D03*
X122000000Y-78000000D03*
X130000000Y-114000000D03*
X82000000Y-106000000D03*
X130000000Y-138000000D03*
X46000000Y-106000000D03*
X62000000Y-78000000D03*
X42000000Y-66000000D03*
X62000000Y-110000000D03*
X42000000Y-150000000D03*
X134000000Y-146000000D03*
X46000000Y-90000000D03*
X122000000Y-74000000D03*
X42000000Y-90000000D03*
X94000000Y-106000000D03*
X46000000Y-138000000D03*
X58000000Y-126000000D03*
X86000000Y-66000000D03*
X130000000Y-58000000D03*
X138000000Y-114000000D03*
X74000000Y-134000000D03*
X98000000Y-90000000D03*
X134000000Y-130000000D03*
X90000000Y-82000000D03*
X118000000Y-70000000D03*
X90000000Y-138000000D03*
X122000000Y-110000000D03*
X138000000Y-106000000D03*
X138000000Y-134000000D03*
X126000000Y-58000000D03*
X46000000Y-82000000D03*
X62000000Y-70000000D03*
X138000000Y-70000000D03*
X118000000Y-126000000D03*
X62000000Y-82000000D03*
X66000000Y-94000000D03*
X50000000Y-86000000D03*
X46000000Y-142000000D03*
X50000000Y-130000000D03*
X130000000Y-86000000D03*
X114000000Y-78000000D03*
X78000000Y-150000000D03*
X86000000Y-102000000D03*
X46000000Y-110000000D03*
X126000000Y-74000000D03*
X50000000Y-90000000D03*
X46000000Y-122000000D03*
X114000000Y-118000000D03*
X126000000Y-94000000D03*
X46000000Y-126000000D03*
X54000000Y-122000000D03*
X90000000Y-134000000D03*
X94000000Y-138000000D03*
X70000000Y-150000000D03*
X54000000Y-90000000D03*
X50000000Y-110000000D03*
X66000000Y-54000000D03*
X86000000Y-54000000D03*
X134000000Y-70000000D03*
X82000000Y-94000000D03*
X86000000Y-118000000D03*
X130000000Y-78000000D03*
X86000000Y-122000000D03*
X138000000Y-110000000D03*
X86000000Y-82000000D03*
X70000000Y-118000000D03*
X74000000Y-130000000D03*
X62000000Y-134000000D03*
X58000000Y-110000000D03*
X130000000Y-62000000D03*
X90000000Y-86000000D03*
X66000000Y-58000000D03*
X94000000Y-82000000D03*
X82000000Y-126000000D03*
X50000000Y-82000000D03*
X78000000Y-82000000D03*
X90000000Y-110000000D03*
X54000000Y-70000000D03*
X90000000Y-126000000D03*
X74000000Y-118000000D03*
X118000000Y-86000000D03*
X50000000Y-70000000D03*
X66000000Y-66000000D03*
X66000000Y-150000000D03*
X74000000Y-110000000D03*
X106000000Y-122000000D03*
X134000000Y-78000000D03*
X58000000Y-94000000D03*
X138000000Y-62000000D03*
X114000000Y-74000000D03*
X82000000Y-142000000D03*
X54000000Y-114000000D03*
X46000000Y-102000000D03*
X74000000Y-102000000D03*
X42000000Y-82000000D03*
X78000000Y-126000000D03*
X82000000Y-58000000D03*
X90000000Y-114000000D03*
X82000000Y-138000000D03*
X126000000Y-126000000D03*
X66000000Y-126000000D03*
X54000000Y-58000000D03*
X54000000Y-102000000D03*
X42000000Y-142000000D03*
X58000000Y-130000000D03*
X46000000Y-118000000D03*
X134000000Y-134000000D03*
X86000000Y-62000000D03*
X78000000Y-62000000D03*
X74000000Y-150000000D03*
X70000000Y-66000000D03*
X74000000Y-114000000D03*
X122000000Y-54000000D03*
X42000000Y-106000000D03*
X74000000Y-70000000D03*
X86000000Y-58000000D03*
X126000000Y-54000000D03*
X94000000Y-74000000D03*
X82000000Y-134000000D03*
X90000000Y-54000000D03*
X114000000Y-62000000D03*
X82000000Y-98000000D03*
X126000000Y-122000000D03*
X94000000Y-126000000D03*
X66000000Y-110000000D03*
X46000000Y-86000000D03*
X130000000Y-66000000D03*
X70000000Y-82000000D03*
X114000000Y-122000000D03*
X46000000Y-66000000D03*
X138000000Y-74000000D03*
X90000000Y-150000000D03*
X78000000Y-78000000D03*
X58000000Y-102000000D03*
X94000000Y-78000000D03*
X94000000Y-86000000D03*
X58000000Y-58000000D03*
X78000000Y-106000000D03*
X70000000Y-134000000D03*
X70000000Y-106000000D03*
X110000000Y-122000000D03*
X78000000Y-122000000D03*
X78000000Y-54000000D03*
X54000000Y-134000000D03*
X74000000Y-106000000D03*
X70000000Y-102000000D03*
X106000000Y-130000000D03*
X54000000Y-150000000D03*
X74000000Y-142000000D03*
X50000000Y-150000000D03*
X58000000Y-90000000D03*
X94000000Y-66000000D03*
X86000000Y-130000000D03*
X98000000Y-82000000D03*
X46000000Y-78000000D03*
X82000000Y-66000000D03*
X86000000Y-70000000D03*
X58000000Y-82000000D03*
X78000000Y-130000000D03*
X138000000Y-66000000D03*
X42000000Y-74000000D03*
X66000000Y-130000000D03*
X50000000Y-114000000D03*
X62000000Y-102000000D03*
X42000000Y-130000000D03*
X74000000Y-74000000D03*
X66000000Y-122000000D03*
X138000000Y-78000000D03*
X130000000Y-70000000D03*
X82000000Y-122000000D03*
X110000000Y-54000000D03*
X138000000Y-82000000D03*
X118000000Y-78000000D03*
X114000000Y-70000000D03*
X42000000Y-118000000D03*
X82000000Y-54000000D03*
X54000000Y-78000000D03*
X90000000Y-122000000D03*
X86000000Y-90000000D03*
X90000000Y-102000000D03*
X62000000Y-90000000D03*
X74000000Y-78000000D03*
D17*
%TO.N,+5V_STDBY*%
X122270000Y-133485001D03*
%TD*%
D18*
%TO.N,+12V*%
X110852230Y-55725844D02*
X105070000Y-61508074D01*
X105070000Y-61508074D02*
X105070000Y-67647501D01*
X111983600Y-55725844D02*
X110852230Y-55725844D01*
%TO.N,+5V_STDBY*%
X133370000Y-79652244D02*
X111983600Y-58265844D01*
X133370000Y-122385001D02*
X133370000Y-79652244D01*
X122270000Y-133485001D02*
X133370000Y-122385001D01*
%TD*%
%TA.AperFunction,Conductor*%
%TO.N,GND*%
G36*
X138812539Y-51805186D02*
G01*
X138858294Y-51857990D01*
X138869500Y-51909501D01*
X138869500Y-150660501D01*
X138849815Y-150727540D01*
X138797011Y-150773295D01*
X138745500Y-150784501D01*
X39994500Y-150784501D01*
X39927461Y-150764816D01*
X39881706Y-150712012D01*
X39870500Y-150660501D01*
X39870500Y-148394941D01*
X43394500Y-148394941D01*
X43394500Y-148635058D01*
X43432063Y-148872222D01*
X43506265Y-149100593D01*
X43615276Y-149314536D01*
X43756414Y-149508796D01*
X43926204Y-149678586D01*
X44120464Y-149819724D01*
X44221543Y-149871226D01*
X44334406Y-149928734D01*
X44334408Y-149928734D01*
X44334411Y-149928736D01*
X44562778Y-150002937D01*
X44799941Y-150040500D01*
X44799942Y-150040500D01*
X45040058Y-150040500D01*
X45040059Y-150040500D01*
X45277222Y-150002937D01*
X45505589Y-149928736D01*
X45719536Y-149819724D01*
X45913796Y-149678586D01*
X46083586Y-149508796D01*
X46224724Y-149314536D01*
X46333736Y-149100589D01*
X46407937Y-148872222D01*
X46445500Y-148635059D01*
X46445500Y-148394941D01*
X132294500Y-148394941D01*
X132294500Y-148635058D01*
X132332063Y-148872222D01*
X132406265Y-149100593D01*
X132515276Y-149314536D01*
X132656414Y-149508796D01*
X132826204Y-149678586D01*
X133020464Y-149819724D01*
X133121543Y-149871226D01*
X133234406Y-149928734D01*
X133234408Y-149928734D01*
X133234411Y-149928736D01*
X133462778Y-150002937D01*
X133699941Y-150040500D01*
X133699942Y-150040500D01*
X133940058Y-150040500D01*
X133940059Y-150040500D01*
X134177222Y-150002937D01*
X134405589Y-149928736D01*
X134619536Y-149819724D01*
X134813796Y-149678586D01*
X134983586Y-149508796D01*
X135124724Y-149314536D01*
X135233736Y-149100589D01*
X135307937Y-148872222D01*
X135345500Y-148635059D01*
X135345500Y-148394941D01*
X135307937Y-148157778D01*
X135233736Y-147929411D01*
X135233734Y-147929408D01*
X135233734Y-147929406D01*
X135124723Y-147715463D01*
X134983586Y-147521204D01*
X134813796Y-147351414D01*
X134619536Y-147210276D01*
X134405593Y-147101265D01*
X134177222Y-147027063D01*
X133940059Y-146989500D01*
X133699941Y-146989500D01*
X133581359Y-147008281D01*
X133462777Y-147027063D01*
X133234406Y-147101265D01*
X133020463Y-147210276D01*
X132826201Y-147351416D01*
X132656416Y-147521201D01*
X132515276Y-147715463D01*
X132406265Y-147929406D01*
X132332063Y-148157777D01*
X132294500Y-148394941D01*
X46445500Y-148394941D01*
X46407937Y-148157778D01*
X46333736Y-147929411D01*
X46333734Y-147929408D01*
X46333734Y-147929406D01*
X46224723Y-147715463D01*
X46083586Y-147521204D01*
X45913796Y-147351414D01*
X45719536Y-147210276D01*
X45505593Y-147101265D01*
X45277222Y-147027063D01*
X45040059Y-146989500D01*
X44799941Y-146989500D01*
X44681359Y-147008281D01*
X44562777Y-147027063D01*
X44334406Y-147101265D01*
X44120463Y-147210276D01*
X43926201Y-147351416D01*
X43756416Y-147521201D01*
X43615276Y-147715463D01*
X43506265Y-147929406D01*
X43432063Y-148157777D01*
X43394500Y-148394941D01*
X39870500Y-148394941D01*
X39870500Y-145974999D01*
X48920395Y-145974999D01*
X48920395Y-145975000D01*
X48938776Y-146173376D01*
X48938777Y-146173379D01*
X48993293Y-146364986D01*
X48993301Y-146365006D01*
X49080773Y-146540673D01*
X49517037Y-146104409D01*
X49534075Y-146167993D01*
X49599901Y-146282007D01*
X49692993Y-146375099D01*
X49807007Y-146440925D01*
X49870589Y-146457962D01*
X49437471Y-146891079D01*
X49437472Y-146891080D01*
X49518775Y-146941421D01*
X49518784Y-146941425D01*
X49704549Y-147013390D01*
X49704554Y-147013391D01*
X49900389Y-147050000D01*
X50099611Y-147050000D01*
X50295445Y-147013391D01*
X50295450Y-147013390D01*
X50481217Y-146941424D01*
X50481221Y-146941422D01*
X50562527Y-146891079D01*
X50129410Y-146457962D01*
X50192993Y-146440925D01*
X50307007Y-146375099D01*
X50400099Y-146282007D01*
X50465925Y-146167993D01*
X50482962Y-146104409D01*
X50919226Y-146540673D01*
X51006697Y-146365008D01*
X51006703Y-146364993D01*
X51061222Y-146173378D01*
X51061223Y-146173376D01*
X51079605Y-145975000D01*
X51559780Y-145975000D01*
X51578614Y-146166229D01*
X51634396Y-146350118D01*
X51724973Y-146519575D01*
X51724977Y-146519582D01*
X51846879Y-146668120D01*
X51995417Y-146790022D01*
X51995424Y-146790026D01*
X52164881Y-146880603D01*
X52164883Y-146880603D01*
X52164886Y-146880605D01*
X52348769Y-146936385D01*
X52348768Y-146936385D01*
X52365914Y-146938073D01*
X52540000Y-146955220D01*
X52731231Y-146936385D01*
X52915114Y-146880605D01*
X53084581Y-146790023D01*
X53233120Y-146668120D01*
X53355023Y-146519581D01*
X53445605Y-146350114D01*
X53501385Y-146166231D01*
X53520220Y-145975000D01*
X54099780Y-145975000D01*
X54118614Y-146166229D01*
X54174396Y-146350118D01*
X54264973Y-146519575D01*
X54264977Y-146519582D01*
X54386879Y-146668120D01*
X54535417Y-146790022D01*
X54535424Y-146790026D01*
X54704881Y-146880603D01*
X54704883Y-146880603D01*
X54704886Y-146880605D01*
X54888769Y-146936385D01*
X54888768Y-146936385D01*
X54905914Y-146938073D01*
X55080000Y-146955220D01*
X55271231Y-146936385D01*
X55455114Y-146880605D01*
X55624581Y-146790023D01*
X55773120Y-146668120D01*
X55895023Y-146519581D01*
X55985605Y-146350114D01*
X56041385Y-146166231D01*
X56060220Y-145975000D01*
X56639780Y-145975000D01*
X56658614Y-146166229D01*
X56714396Y-146350118D01*
X56804973Y-146519575D01*
X56804977Y-146519582D01*
X56926879Y-146668120D01*
X57075417Y-146790022D01*
X57075424Y-146790026D01*
X57244881Y-146880603D01*
X57244883Y-146880603D01*
X57244886Y-146880605D01*
X57428769Y-146936385D01*
X57428768Y-146936385D01*
X57445914Y-146938073D01*
X57620000Y-146955220D01*
X57811231Y-146936385D01*
X57995114Y-146880605D01*
X58164581Y-146790023D01*
X58313120Y-146668120D01*
X58435023Y-146519581D01*
X58525605Y-146350114D01*
X58581385Y-146166231D01*
X58600220Y-145975000D01*
X59179780Y-145975000D01*
X59198614Y-146166229D01*
X59254396Y-146350118D01*
X59344973Y-146519575D01*
X59344977Y-146519582D01*
X59466879Y-146668120D01*
X59615417Y-146790022D01*
X59615424Y-146790026D01*
X59784881Y-146880603D01*
X59784883Y-146880603D01*
X59784886Y-146880605D01*
X59968769Y-146936385D01*
X59968768Y-146936385D01*
X59985914Y-146938073D01*
X60160000Y-146955220D01*
X60351231Y-146936385D01*
X60535114Y-146880605D01*
X60704581Y-146790023D01*
X60853120Y-146668120D01*
X60975023Y-146519581D01*
X61065605Y-146350114D01*
X61121385Y-146166231D01*
X61140220Y-145975000D01*
X61719780Y-145975000D01*
X61738614Y-146166229D01*
X61794396Y-146350118D01*
X61884973Y-146519575D01*
X61884977Y-146519582D01*
X62006879Y-146668120D01*
X62155417Y-146790022D01*
X62155424Y-146790026D01*
X62324881Y-146880603D01*
X62324883Y-146880603D01*
X62324886Y-146880605D01*
X62508769Y-146936385D01*
X62508768Y-146936385D01*
X62525914Y-146938073D01*
X62700000Y-146955220D01*
X62891231Y-146936385D01*
X63075114Y-146880605D01*
X63244581Y-146790023D01*
X63393120Y-146668120D01*
X63515023Y-146519581D01*
X63605605Y-146350114D01*
X63661385Y-146166231D01*
X63680220Y-145975000D01*
X64259780Y-145975000D01*
X64278614Y-146166229D01*
X64334396Y-146350118D01*
X64424973Y-146519575D01*
X64424977Y-146519582D01*
X64546879Y-146668120D01*
X64695417Y-146790022D01*
X64695424Y-146790026D01*
X64864881Y-146880603D01*
X64864883Y-146880603D01*
X64864886Y-146880605D01*
X65048769Y-146936385D01*
X65048768Y-146936385D01*
X65065914Y-146938073D01*
X65240000Y-146955220D01*
X65431231Y-146936385D01*
X65615114Y-146880605D01*
X65784581Y-146790023D01*
X65933120Y-146668120D01*
X66055023Y-146519581D01*
X66145605Y-146350114D01*
X66201385Y-146166231D01*
X66220220Y-145975000D01*
X66799780Y-145975000D01*
X66818614Y-146166229D01*
X66874396Y-146350118D01*
X66964973Y-146519575D01*
X66964977Y-146519582D01*
X67086879Y-146668120D01*
X67235417Y-146790022D01*
X67235424Y-146790026D01*
X67404881Y-146880603D01*
X67404883Y-146880603D01*
X67404886Y-146880605D01*
X67588769Y-146936385D01*
X67588768Y-146936385D01*
X67605914Y-146938073D01*
X67780000Y-146955220D01*
X67971231Y-146936385D01*
X68155114Y-146880605D01*
X68324581Y-146790023D01*
X68473120Y-146668120D01*
X68595023Y-146519581D01*
X68685605Y-146350114D01*
X68741385Y-146166231D01*
X68760220Y-145975000D01*
X69339780Y-145975000D01*
X69358614Y-146166229D01*
X69414396Y-146350118D01*
X69504973Y-146519575D01*
X69504977Y-146519582D01*
X69626879Y-146668120D01*
X69775417Y-146790022D01*
X69775424Y-146790026D01*
X69944881Y-146880603D01*
X69944883Y-146880603D01*
X69944886Y-146880605D01*
X70128769Y-146936385D01*
X70128768Y-146936385D01*
X70145914Y-146938073D01*
X70320000Y-146955220D01*
X70511231Y-146936385D01*
X70695114Y-146880605D01*
X70864581Y-146790023D01*
X71013120Y-146668120D01*
X71135023Y-146519581D01*
X71225605Y-146350114D01*
X71281385Y-146166231D01*
X71300220Y-145975000D01*
X71879780Y-145975000D01*
X71898614Y-146166229D01*
X71954396Y-146350118D01*
X72044973Y-146519575D01*
X72044977Y-146519582D01*
X72166879Y-146668120D01*
X72315417Y-146790022D01*
X72315424Y-146790026D01*
X72484881Y-146880603D01*
X72484883Y-146880603D01*
X72484886Y-146880605D01*
X72668769Y-146936385D01*
X72668768Y-146936385D01*
X72685914Y-146938073D01*
X72860000Y-146955220D01*
X73051231Y-146936385D01*
X73235114Y-146880605D01*
X73404581Y-146790023D01*
X73553120Y-146668120D01*
X73675023Y-146519581D01*
X73765605Y-146350114D01*
X73821385Y-146166231D01*
X73840220Y-145975000D01*
X74419780Y-145975000D01*
X74438614Y-146166229D01*
X74494396Y-146350118D01*
X74584973Y-146519575D01*
X74584977Y-146519582D01*
X74706879Y-146668120D01*
X74855417Y-146790022D01*
X74855424Y-146790026D01*
X75024881Y-146880603D01*
X75024883Y-146880603D01*
X75024886Y-146880605D01*
X75208769Y-146936385D01*
X75208768Y-146936385D01*
X75225914Y-146938073D01*
X75400000Y-146955220D01*
X75591231Y-146936385D01*
X75775114Y-146880605D01*
X75944581Y-146790023D01*
X76093120Y-146668120D01*
X76215023Y-146519581D01*
X76305605Y-146350114D01*
X76361385Y-146166231D01*
X76380220Y-145975000D01*
X76959780Y-145975000D01*
X76978614Y-146166229D01*
X77034396Y-146350118D01*
X77124973Y-146519575D01*
X77124977Y-146519582D01*
X77246879Y-146668120D01*
X77395417Y-146790022D01*
X77395424Y-146790026D01*
X77564881Y-146880603D01*
X77564883Y-146880603D01*
X77564886Y-146880605D01*
X77748769Y-146936385D01*
X77748768Y-146936385D01*
X77765914Y-146938073D01*
X77940000Y-146955220D01*
X78131231Y-146936385D01*
X78315114Y-146880605D01*
X78484581Y-146790023D01*
X78633120Y-146668120D01*
X78755023Y-146519581D01*
X78845605Y-146350114D01*
X78901385Y-146166231D01*
X78920220Y-145975000D01*
X79499780Y-145975000D01*
X79518614Y-146166229D01*
X79574396Y-146350118D01*
X79664973Y-146519575D01*
X79664977Y-146519582D01*
X79786879Y-146668120D01*
X79935417Y-146790022D01*
X79935424Y-146790026D01*
X80104881Y-146880603D01*
X80104883Y-146880603D01*
X80104886Y-146880605D01*
X80288769Y-146936385D01*
X80288768Y-146936385D01*
X80305914Y-146938073D01*
X80480000Y-146955220D01*
X80671231Y-146936385D01*
X80855114Y-146880605D01*
X81024581Y-146790023D01*
X81173120Y-146668120D01*
X81295023Y-146519581D01*
X81385605Y-146350114D01*
X81441385Y-146166231D01*
X81460220Y-145975000D01*
X82039780Y-145975000D01*
X82058614Y-146166229D01*
X82114396Y-146350118D01*
X82204973Y-146519575D01*
X82204977Y-146519582D01*
X82326879Y-146668120D01*
X82475417Y-146790022D01*
X82475424Y-146790026D01*
X82644881Y-146880603D01*
X82644883Y-146880603D01*
X82644886Y-146880605D01*
X82828769Y-146936385D01*
X82828768Y-146936385D01*
X82845914Y-146938073D01*
X83020000Y-146955220D01*
X83211231Y-146936385D01*
X83395114Y-146880605D01*
X83564581Y-146790023D01*
X83713120Y-146668120D01*
X83835023Y-146519581D01*
X83925605Y-146350114D01*
X83981385Y-146166231D01*
X84000220Y-145975000D01*
X84579780Y-145975000D01*
X84598614Y-146166229D01*
X84654396Y-146350118D01*
X84744973Y-146519575D01*
X84744977Y-146519582D01*
X84866879Y-146668120D01*
X85015417Y-146790022D01*
X85015424Y-146790026D01*
X85184881Y-146880603D01*
X85184883Y-146880603D01*
X85184886Y-146880605D01*
X85368769Y-146936385D01*
X85368768Y-146936385D01*
X85385914Y-146938073D01*
X85560000Y-146955220D01*
X85751231Y-146936385D01*
X85935114Y-146880605D01*
X86104581Y-146790023D01*
X86253120Y-146668120D01*
X86375023Y-146519581D01*
X86465605Y-146350114D01*
X86521385Y-146166231D01*
X86540220Y-145975000D01*
X87119780Y-145975000D01*
X87138614Y-146166229D01*
X87194396Y-146350118D01*
X87284973Y-146519575D01*
X87284977Y-146519582D01*
X87406879Y-146668120D01*
X87555417Y-146790022D01*
X87555424Y-146790026D01*
X87724881Y-146880603D01*
X87724883Y-146880603D01*
X87724886Y-146880605D01*
X87908769Y-146936385D01*
X87908768Y-146936385D01*
X87925914Y-146938073D01*
X88100000Y-146955220D01*
X88291231Y-146936385D01*
X88475114Y-146880605D01*
X88644581Y-146790023D01*
X88793120Y-146668120D01*
X88915023Y-146519581D01*
X89005605Y-146350114D01*
X89061385Y-146166231D01*
X89080220Y-145975000D01*
X89659780Y-145975000D01*
X89678614Y-146166229D01*
X89734396Y-146350118D01*
X89824973Y-146519575D01*
X89824977Y-146519582D01*
X89946879Y-146668120D01*
X90095417Y-146790022D01*
X90095424Y-146790026D01*
X90264881Y-146880603D01*
X90264883Y-146880603D01*
X90264886Y-146880605D01*
X90448769Y-146936385D01*
X90448768Y-146936385D01*
X90465914Y-146938073D01*
X90640000Y-146955220D01*
X90831231Y-146936385D01*
X91015114Y-146880605D01*
X91184581Y-146790023D01*
X91333120Y-146668120D01*
X91455023Y-146519581D01*
X91545605Y-146350114D01*
X91601385Y-146166231D01*
X91620220Y-145975000D01*
X91620220Y-145974999D01*
X92100395Y-145974999D01*
X92100395Y-145975000D01*
X92118776Y-146173376D01*
X92118777Y-146173379D01*
X92173293Y-146364986D01*
X92173301Y-146365006D01*
X92260773Y-146540673D01*
X92697037Y-146104409D01*
X92714075Y-146167993D01*
X92779901Y-146282007D01*
X92872993Y-146375099D01*
X92987007Y-146440925D01*
X93050589Y-146457962D01*
X92617471Y-146891079D01*
X92617472Y-146891080D01*
X92698775Y-146941421D01*
X92698784Y-146941425D01*
X92884549Y-147013390D01*
X92884554Y-147013391D01*
X93080389Y-147050000D01*
X93279611Y-147050000D01*
X93475445Y-147013391D01*
X93475450Y-147013390D01*
X93661217Y-146941424D01*
X93661221Y-146941422D01*
X93742527Y-146891079D01*
X93309410Y-146457962D01*
X93372993Y-146440925D01*
X93487007Y-146375099D01*
X93580099Y-146282007D01*
X93645925Y-146167993D01*
X93662962Y-146104409D01*
X94099226Y-146540673D01*
X94186697Y-146365008D01*
X94186703Y-146364993D01*
X94241222Y-146173378D01*
X94241223Y-146173376D01*
X94259605Y-145975000D01*
X94739780Y-145975000D01*
X94758614Y-146166229D01*
X94814396Y-146350118D01*
X94904973Y-146519575D01*
X94904977Y-146519582D01*
X95026879Y-146668120D01*
X95175417Y-146790022D01*
X95175424Y-146790026D01*
X95344881Y-146880603D01*
X95344883Y-146880603D01*
X95344886Y-146880605D01*
X95528769Y-146936385D01*
X95528768Y-146936385D01*
X95545914Y-146938073D01*
X95720000Y-146955220D01*
X95911231Y-146936385D01*
X96095114Y-146880605D01*
X96264581Y-146790023D01*
X96413120Y-146668120D01*
X96535023Y-146519581D01*
X96625605Y-146350114D01*
X96681385Y-146166231D01*
X96700220Y-145975000D01*
X96700220Y-145974999D01*
X97180395Y-145974999D01*
X97180395Y-145975000D01*
X97198776Y-146173376D01*
X97198777Y-146173379D01*
X97253293Y-146364986D01*
X97253301Y-146365006D01*
X97340773Y-146540673D01*
X97777037Y-146104408D01*
X97794075Y-146167993D01*
X97859901Y-146282007D01*
X97952993Y-146375099D01*
X98067007Y-146440925D01*
X98130589Y-146457962D01*
X97697471Y-146891079D01*
X97697472Y-146891080D01*
X97778775Y-146941421D01*
X97778784Y-146941425D01*
X97964549Y-147013390D01*
X97964554Y-147013391D01*
X98160389Y-147050000D01*
X98359611Y-147050000D01*
X98555445Y-147013391D01*
X98555450Y-147013390D01*
X98741217Y-146941424D01*
X98741221Y-146941422D01*
X98822527Y-146891079D01*
X98389410Y-146457962D01*
X98452993Y-146440925D01*
X98567007Y-146375099D01*
X98660099Y-146282007D01*
X98725925Y-146167993D01*
X98742962Y-146104409D01*
X99179226Y-146540673D01*
X99266697Y-146365008D01*
X99266703Y-146364993D01*
X99321222Y-146173378D01*
X99321223Y-146173376D01*
X99339605Y-145975000D01*
X99819780Y-145975000D01*
X99838614Y-146166229D01*
X99894396Y-146350118D01*
X99984973Y-146519575D01*
X99984977Y-146519582D01*
X100106879Y-146668120D01*
X100255417Y-146790022D01*
X100255424Y-146790026D01*
X100424881Y-146880603D01*
X100424883Y-146880603D01*
X100424886Y-146880605D01*
X100608769Y-146936385D01*
X100608768Y-146936385D01*
X100625914Y-146938073D01*
X100800000Y-146955220D01*
X100991231Y-146936385D01*
X101175114Y-146880605D01*
X101344581Y-146790023D01*
X101493120Y-146668120D01*
X101615023Y-146519581D01*
X101705605Y-146350114D01*
X101761385Y-146166231D01*
X101780220Y-145975000D01*
X102359780Y-145975000D01*
X102378614Y-146166229D01*
X102434396Y-146350118D01*
X102524973Y-146519575D01*
X102524977Y-146519582D01*
X102646879Y-146668120D01*
X102795417Y-146790022D01*
X102795424Y-146790026D01*
X102964881Y-146880603D01*
X102964883Y-146880603D01*
X102964886Y-146880605D01*
X103148769Y-146936385D01*
X103148768Y-146936385D01*
X103165914Y-146938073D01*
X103340000Y-146955220D01*
X103531231Y-146936385D01*
X103715114Y-146880605D01*
X103884581Y-146790023D01*
X104033120Y-146668120D01*
X104155023Y-146519581D01*
X104245605Y-146350114D01*
X104301385Y-146166231D01*
X104320220Y-145975000D01*
X104320220Y-145974999D01*
X104800395Y-145974999D01*
X104800395Y-145975000D01*
X104818776Y-146173376D01*
X104818777Y-146173379D01*
X104873293Y-146364986D01*
X104873301Y-146365006D01*
X104960773Y-146540673D01*
X105397037Y-146104409D01*
X105414075Y-146167993D01*
X105479901Y-146282007D01*
X105572993Y-146375099D01*
X105687007Y-146440925D01*
X105750589Y-146457962D01*
X105317471Y-146891079D01*
X105317472Y-146891080D01*
X105398775Y-146941421D01*
X105398784Y-146941425D01*
X105584549Y-147013390D01*
X105584554Y-147013391D01*
X105780389Y-147050000D01*
X105979611Y-147050000D01*
X106175445Y-147013391D01*
X106175450Y-147013390D01*
X106361217Y-146941424D01*
X106361221Y-146941422D01*
X106442527Y-146891079D01*
X106009410Y-146457962D01*
X106072993Y-146440925D01*
X106187007Y-146375099D01*
X106280099Y-146282007D01*
X106345925Y-146167993D01*
X106362962Y-146104409D01*
X106799226Y-146540673D01*
X106886697Y-146365008D01*
X106886703Y-146364993D01*
X106941222Y-146173378D01*
X106941223Y-146173376D01*
X106959605Y-145975000D01*
X107439780Y-145975000D01*
X107458614Y-146166229D01*
X107514396Y-146350118D01*
X107604973Y-146519575D01*
X107604977Y-146519582D01*
X107726879Y-146668120D01*
X107875417Y-146790022D01*
X107875424Y-146790026D01*
X108044881Y-146880603D01*
X108044883Y-146880603D01*
X108044886Y-146880605D01*
X108228769Y-146936385D01*
X108228768Y-146936385D01*
X108245914Y-146938073D01*
X108420000Y-146955220D01*
X108611231Y-146936385D01*
X108795114Y-146880605D01*
X108964581Y-146790023D01*
X109113120Y-146668120D01*
X109235023Y-146519581D01*
X109325605Y-146350114D01*
X109381385Y-146166231D01*
X109400220Y-145975000D01*
X109979780Y-145975000D01*
X109998614Y-146166229D01*
X110054396Y-146350118D01*
X110144973Y-146519575D01*
X110144977Y-146519582D01*
X110266879Y-146668120D01*
X110415417Y-146790022D01*
X110415424Y-146790026D01*
X110584881Y-146880603D01*
X110584883Y-146880603D01*
X110584886Y-146880605D01*
X110768769Y-146936385D01*
X110768768Y-146936385D01*
X110785914Y-146938073D01*
X110960000Y-146955220D01*
X111151231Y-146936385D01*
X111335114Y-146880605D01*
X111504581Y-146790023D01*
X111653120Y-146668120D01*
X111775023Y-146519581D01*
X111865605Y-146350114D01*
X111921385Y-146166231D01*
X111940220Y-145975000D01*
X111940220Y-145974999D01*
X112420395Y-145974999D01*
X112420395Y-145975000D01*
X112438776Y-146173376D01*
X112438777Y-146173379D01*
X112493293Y-146364986D01*
X112493301Y-146365006D01*
X112580773Y-146540673D01*
X113017037Y-146104409D01*
X113034075Y-146167993D01*
X113099901Y-146282007D01*
X113192993Y-146375099D01*
X113307007Y-146440925D01*
X113370589Y-146457962D01*
X112937471Y-146891079D01*
X112937472Y-146891080D01*
X113018775Y-146941421D01*
X113018784Y-146941425D01*
X113204549Y-147013390D01*
X113204554Y-147013391D01*
X113400389Y-147050000D01*
X113599611Y-147050000D01*
X113795445Y-147013391D01*
X113795450Y-147013390D01*
X113981217Y-146941424D01*
X113981221Y-146941422D01*
X114062527Y-146891079D01*
X113629410Y-146457962D01*
X113692993Y-146440925D01*
X113807007Y-146375099D01*
X113900099Y-146282007D01*
X113965925Y-146167993D01*
X113982962Y-146104409D01*
X114419226Y-146540673D01*
X114506697Y-146365008D01*
X114506703Y-146364993D01*
X114561222Y-146173378D01*
X114561223Y-146173376D01*
X114579605Y-145975000D01*
X115059780Y-145975000D01*
X115078614Y-146166229D01*
X115134396Y-146350118D01*
X115224973Y-146519575D01*
X115224977Y-146519582D01*
X115346879Y-146668120D01*
X115495417Y-146790022D01*
X115495424Y-146790026D01*
X115664881Y-146880603D01*
X115664883Y-146880603D01*
X115664886Y-146880605D01*
X115848769Y-146936385D01*
X115848768Y-146936385D01*
X115865914Y-146938073D01*
X116040000Y-146955220D01*
X116231231Y-146936385D01*
X116415114Y-146880605D01*
X116584581Y-146790023D01*
X116733120Y-146668120D01*
X116855023Y-146519581D01*
X116945605Y-146350114D01*
X117001385Y-146166231D01*
X117020220Y-145975000D01*
X117599780Y-145975000D01*
X117618614Y-146166229D01*
X117674396Y-146350118D01*
X117764973Y-146519575D01*
X117764977Y-146519582D01*
X117886879Y-146668120D01*
X118035417Y-146790022D01*
X118035424Y-146790026D01*
X118204881Y-146880603D01*
X118204883Y-146880603D01*
X118204886Y-146880605D01*
X118388769Y-146936385D01*
X118388768Y-146936385D01*
X118405914Y-146938073D01*
X118580000Y-146955220D01*
X118771231Y-146936385D01*
X118955114Y-146880605D01*
X119124581Y-146790023D01*
X119273120Y-146668120D01*
X119395023Y-146519581D01*
X119485605Y-146350114D01*
X119541385Y-146166231D01*
X119560220Y-145975000D01*
X119560220Y-145974999D01*
X120040395Y-145974999D01*
X120040395Y-145975000D01*
X120058776Y-146173376D01*
X120058777Y-146173379D01*
X120113293Y-146364986D01*
X120113301Y-146365006D01*
X120200773Y-146540673D01*
X120637037Y-146104408D01*
X120654075Y-146167993D01*
X120719901Y-146282007D01*
X120812993Y-146375099D01*
X120927007Y-146440925D01*
X120990589Y-146457962D01*
X120557471Y-146891079D01*
X120557472Y-146891080D01*
X120638775Y-146941421D01*
X120638784Y-146941425D01*
X120824549Y-147013390D01*
X120824554Y-147013391D01*
X121020389Y-147050000D01*
X121219611Y-147050000D01*
X121415445Y-147013391D01*
X121415450Y-147013390D01*
X121601217Y-146941424D01*
X121601221Y-146941422D01*
X121682527Y-146891079D01*
X121249410Y-146457962D01*
X121312993Y-146440925D01*
X121427007Y-146375099D01*
X121520099Y-146282007D01*
X121585925Y-146167993D01*
X121602962Y-146104409D01*
X122039226Y-146540673D01*
X122126697Y-146365008D01*
X122126703Y-146364993D01*
X122181222Y-146173378D01*
X122181223Y-146173376D01*
X122199605Y-145975000D01*
X122679780Y-145975000D01*
X122698614Y-146166229D01*
X122754396Y-146350118D01*
X122844973Y-146519575D01*
X122844977Y-146519582D01*
X122966879Y-146668120D01*
X123115417Y-146790022D01*
X123115424Y-146790026D01*
X123284881Y-146880603D01*
X123284883Y-146880603D01*
X123284886Y-146880605D01*
X123468769Y-146936385D01*
X123468768Y-146936385D01*
X123485914Y-146938073D01*
X123660000Y-146955220D01*
X123851231Y-146936385D01*
X124035114Y-146880605D01*
X124204581Y-146790023D01*
X124353120Y-146668120D01*
X124475023Y-146519581D01*
X124565605Y-146350114D01*
X124621385Y-146166231D01*
X124640220Y-145975000D01*
X125219780Y-145975000D01*
X125238614Y-146166229D01*
X125294396Y-146350118D01*
X125384973Y-146519575D01*
X125384977Y-146519582D01*
X125506879Y-146668120D01*
X125655417Y-146790022D01*
X125655424Y-146790026D01*
X125824881Y-146880603D01*
X125824883Y-146880603D01*
X125824886Y-146880605D01*
X126008769Y-146936385D01*
X126008768Y-146936385D01*
X126025914Y-146938073D01*
X126200000Y-146955220D01*
X126391231Y-146936385D01*
X126575114Y-146880605D01*
X126744581Y-146790023D01*
X126893120Y-146668120D01*
X127015023Y-146519581D01*
X127105605Y-146350114D01*
X127161385Y-146166231D01*
X127180220Y-145975000D01*
X127161385Y-145783769D01*
X127105605Y-145599886D01*
X127105603Y-145599883D01*
X127105603Y-145599881D01*
X127015026Y-145430424D01*
X127015022Y-145430417D01*
X126995759Y-145406945D01*
X127665000Y-145406945D01*
X127665000Y-145725000D01*
X128306988Y-145725000D01*
X128274075Y-145782007D01*
X128240000Y-145909174D01*
X128240000Y-146040826D01*
X128274075Y-146167993D01*
X128306988Y-146225000D01*
X127665001Y-146225000D01*
X127665001Y-146543054D01*
X127675613Y-146631444D01*
X127731078Y-146772094D01*
X127822435Y-146892564D01*
X127942905Y-146983921D01*
X128083555Y-147039386D01*
X128171945Y-147049999D01*
X128489999Y-147049999D01*
X128490000Y-147049998D01*
X128490000Y-146408012D01*
X128547007Y-146440925D01*
X128674174Y-146475000D01*
X128805826Y-146475000D01*
X128932993Y-146440925D01*
X128990000Y-146408012D01*
X128990000Y-147049999D01*
X129308055Y-147049999D01*
X129396444Y-147039386D01*
X129537094Y-146983921D01*
X129657564Y-146892564D01*
X129748921Y-146772094D01*
X129804386Y-146631444D01*
X129815000Y-146543054D01*
X129815000Y-146225000D01*
X129173012Y-146225000D01*
X129205925Y-146167993D01*
X129240000Y-146040826D01*
X129240000Y-145909174D01*
X129205925Y-145782007D01*
X129173012Y-145725000D01*
X129814999Y-145725000D01*
X129814999Y-145406945D01*
X129804386Y-145318555D01*
X129748921Y-145177905D01*
X129657564Y-145057435D01*
X129537094Y-144966078D01*
X129396444Y-144910613D01*
X129308055Y-144900000D01*
X128990000Y-144900000D01*
X128990000Y-145541988D01*
X128932993Y-145509075D01*
X128805826Y-145475000D01*
X128674174Y-145475000D01*
X128547007Y-145509075D01*
X128490000Y-145541988D01*
X128490000Y-144900000D01*
X128171945Y-144900000D01*
X128083555Y-144910613D01*
X127942905Y-144966078D01*
X127822435Y-145057435D01*
X127731078Y-145177905D01*
X127675613Y-145318555D01*
X127665000Y-145406945D01*
X126995759Y-145406945D01*
X126893120Y-145281879D01*
X126744582Y-145159977D01*
X126744575Y-145159973D01*
X126575118Y-145069396D01*
X126483172Y-145041505D01*
X126391231Y-145013615D01*
X126391229Y-145013614D01*
X126391231Y-145013614D01*
X126200000Y-144994780D01*
X126008770Y-145013614D01*
X125824881Y-145069396D01*
X125655424Y-145159973D01*
X125655417Y-145159977D01*
X125506879Y-145281879D01*
X125384977Y-145430417D01*
X125384973Y-145430424D01*
X125294396Y-145599881D01*
X125238614Y-145783770D01*
X125219780Y-145975000D01*
X124640220Y-145975000D01*
X124621385Y-145783769D01*
X124565605Y-145599886D01*
X124565603Y-145599883D01*
X124565603Y-145599881D01*
X124475026Y-145430424D01*
X124475022Y-145430417D01*
X124353120Y-145281879D01*
X124204582Y-145159977D01*
X124204575Y-145159973D01*
X124035118Y-145069396D01*
X123943172Y-145041505D01*
X123851231Y-145013615D01*
X123851229Y-145013614D01*
X123851231Y-145013614D01*
X123660000Y-144994780D01*
X123468770Y-145013614D01*
X123284881Y-145069396D01*
X123115424Y-145159973D01*
X123115417Y-145159977D01*
X122966879Y-145281879D01*
X122844977Y-145430417D01*
X122844973Y-145430424D01*
X122754396Y-145599881D01*
X122698614Y-145783770D01*
X122679780Y-145975000D01*
X122199605Y-145975000D01*
X122199605Y-145974999D01*
X122181223Y-145776623D01*
X122181222Y-145776621D01*
X122126703Y-145585006D01*
X122126697Y-145584991D01*
X122039225Y-145409325D01*
X121602962Y-145845589D01*
X121585925Y-145782007D01*
X121520099Y-145667993D01*
X121427007Y-145574901D01*
X121312993Y-145509075D01*
X121249409Y-145492037D01*
X121682527Y-145058919D01*
X121682526Y-145058918D01*
X121601224Y-145008579D01*
X121601215Y-145008574D01*
X121415450Y-144936609D01*
X121415445Y-144936608D01*
X121219611Y-144900000D01*
X121020389Y-144900000D01*
X120824554Y-144936608D01*
X120824553Y-144936608D01*
X120638780Y-145008576D01*
X120638776Y-145008578D01*
X120557471Y-145058919D01*
X120990590Y-145492037D01*
X120927007Y-145509075D01*
X120812993Y-145574901D01*
X120719901Y-145667993D01*
X120654075Y-145782007D01*
X120637037Y-145845590D01*
X120200773Y-145409325D01*
X120113301Y-145584993D01*
X120113293Y-145585013D01*
X120058777Y-145776620D01*
X120058776Y-145776623D01*
X120040395Y-145974999D01*
X119560220Y-145974999D01*
X119541385Y-145783769D01*
X119485605Y-145599886D01*
X119485603Y-145599883D01*
X119485603Y-145599881D01*
X119395026Y-145430424D01*
X119395022Y-145430417D01*
X119273120Y-145281879D01*
X119124582Y-145159977D01*
X119124575Y-145159973D01*
X118955118Y-145069396D01*
X118863172Y-145041505D01*
X118771231Y-145013615D01*
X118771229Y-145013614D01*
X118771231Y-145013614D01*
X118580000Y-144994780D01*
X118388770Y-145013614D01*
X118204881Y-145069396D01*
X118035424Y-145159973D01*
X118035417Y-145159977D01*
X117886879Y-145281879D01*
X117764977Y-145430417D01*
X117764973Y-145430424D01*
X117674396Y-145599881D01*
X117618614Y-145783770D01*
X117599780Y-145975000D01*
X117020220Y-145975000D01*
X117001385Y-145783769D01*
X116945605Y-145599886D01*
X116945603Y-145599883D01*
X116945603Y-145599881D01*
X116855026Y-145430424D01*
X116855022Y-145430417D01*
X116733120Y-145281879D01*
X116584582Y-145159977D01*
X116584575Y-145159973D01*
X116415118Y-145069396D01*
X116323172Y-145041505D01*
X116231231Y-145013615D01*
X116231229Y-145013614D01*
X116231231Y-145013614D01*
X116040000Y-144994780D01*
X115848770Y-145013614D01*
X115664881Y-145069396D01*
X115495424Y-145159973D01*
X115495417Y-145159977D01*
X115346879Y-145281879D01*
X115224977Y-145430417D01*
X115224973Y-145430424D01*
X115134396Y-145599881D01*
X115078614Y-145783770D01*
X115059780Y-145975000D01*
X114579605Y-145975000D01*
X114579605Y-145974999D01*
X114561223Y-145776623D01*
X114561222Y-145776621D01*
X114506703Y-145585006D01*
X114506697Y-145584991D01*
X114419225Y-145409325D01*
X113982962Y-145845589D01*
X113965925Y-145782007D01*
X113900099Y-145667993D01*
X113807007Y-145574901D01*
X113692993Y-145509075D01*
X113629409Y-145492037D01*
X114062527Y-145058919D01*
X114062526Y-145058918D01*
X113981224Y-145008579D01*
X113981215Y-145008574D01*
X113795450Y-144936609D01*
X113795445Y-144936608D01*
X113599611Y-144900000D01*
X113400389Y-144900000D01*
X113204554Y-144936608D01*
X113204553Y-144936608D01*
X113018780Y-145008576D01*
X113018776Y-145008578D01*
X112937471Y-145058919D01*
X113370590Y-145492037D01*
X113307007Y-145509075D01*
X113192993Y-145574901D01*
X113099901Y-145667993D01*
X113034075Y-145782007D01*
X113017037Y-145845590D01*
X112580773Y-145409325D01*
X112493301Y-145584993D01*
X112493293Y-145585013D01*
X112438777Y-145776620D01*
X112438776Y-145776623D01*
X112420395Y-145974999D01*
X111940220Y-145974999D01*
X111921385Y-145783769D01*
X111865605Y-145599886D01*
X111865603Y-145599883D01*
X111865603Y-145599881D01*
X111775026Y-145430424D01*
X111775022Y-145430417D01*
X111653120Y-145281879D01*
X111504582Y-145159977D01*
X111504575Y-145159973D01*
X111335118Y-145069396D01*
X111243172Y-145041505D01*
X111151231Y-145013615D01*
X111151229Y-145013614D01*
X111151231Y-145013614D01*
X110960000Y-144994780D01*
X110768770Y-145013614D01*
X110584881Y-145069396D01*
X110415424Y-145159973D01*
X110415417Y-145159977D01*
X110266879Y-145281879D01*
X110144977Y-145430417D01*
X110144973Y-145430424D01*
X110054396Y-145599881D01*
X109998614Y-145783770D01*
X109979780Y-145975000D01*
X109400220Y-145975000D01*
X109381385Y-145783769D01*
X109325605Y-145599886D01*
X109325603Y-145599883D01*
X109325603Y-145599881D01*
X109235026Y-145430424D01*
X109235022Y-145430417D01*
X109113120Y-145281879D01*
X108964582Y-145159977D01*
X108964575Y-145159973D01*
X108795118Y-145069396D01*
X108703172Y-145041505D01*
X108611231Y-145013615D01*
X108611229Y-145013614D01*
X108611231Y-145013614D01*
X108420000Y-144994780D01*
X108228770Y-145013614D01*
X108044881Y-145069396D01*
X107875424Y-145159973D01*
X107875417Y-145159977D01*
X107726879Y-145281879D01*
X107604977Y-145430417D01*
X107604973Y-145430424D01*
X107514396Y-145599881D01*
X107458614Y-145783770D01*
X107439780Y-145975000D01*
X106959605Y-145975000D01*
X106959605Y-145974999D01*
X106941223Y-145776623D01*
X106941222Y-145776621D01*
X106886703Y-145585006D01*
X106886697Y-145584991D01*
X106799225Y-145409325D01*
X106362962Y-145845589D01*
X106345925Y-145782007D01*
X106280099Y-145667993D01*
X106187007Y-145574901D01*
X106072993Y-145509075D01*
X106009409Y-145492037D01*
X106442527Y-145058919D01*
X106442526Y-145058918D01*
X106361224Y-145008579D01*
X106361215Y-145008574D01*
X106175450Y-144936609D01*
X106175445Y-144936608D01*
X105979611Y-144900000D01*
X105780389Y-144900000D01*
X105584554Y-144936608D01*
X105584553Y-144936608D01*
X105398780Y-145008576D01*
X105398776Y-145008578D01*
X105317471Y-145058919D01*
X105750590Y-145492037D01*
X105687007Y-145509075D01*
X105572993Y-145574901D01*
X105479901Y-145667993D01*
X105414075Y-145782007D01*
X105397037Y-145845590D01*
X104960773Y-145409325D01*
X104873301Y-145584993D01*
X104873293Y-145585013D01*
X104818777Y-145776620D01*
X104818776Y-145776623D01*
X104800395Y-145974999D01*
X104320220Y-145974999D01*
X104301385Y-145783769D01*
X104245605Y-145599886D01*
X104245603Y-145599883D01*
X104245603Y-145599881D01*
X104155026Y-145430424D01*
X104155022Y-145430417D01*
X104033120Y-145281879D01*
X103884582Y-145159977D01*
X103884575Y-145159973D01*
X103715118Y-145069396D01*
X103623172Y-145041505D01*
X103531231Y-145013615D01*
X103531229Y-145013614D01*
X103531231Y-145013614D01*
X103340000Y-144994780D01*
X103148770Y-145013614D01*
X102964881Y-145069396D01*
X102795424Y-145159973D01*
X102795417Y-145159977D01*
X102646879Y-145281879D01*
X102524977Y-145430417D01*
X102524973Y-145430424D01*
X102434396Y-145599881D01*
X102378614Y-145783770D01*
X102359780Y-145975000D01*
X101780220Y-145975000D01*
X101761385Y-145783769D01*
X101705605Y-145599886D01*
X101705603Y-145599883D01*
X101705603Y-145599881D01*
X101615026Y-145430424D01*
X101615022Y-145430417D01*
X101493120Y-145281879D01*
X101344582Y-145159977D01*
X101344575Y-145159973D01*
X101175118Y-145069396D01*
X101083172Y-145041505D01*
X100991231Y-145013615D01*
X100991229Y-145013614D01*
X100991231Y-145013614D01*
X100800000Y-144994780D01*
X100608770Y-145013614D01*
X100424881Y-145069396D01*
X100255424Y-145159973D01*
X100255417Y-145159977D01*
X100106879Y-145281879D01*
X99984977Y-145430417D01*
X99984973Y-145430424D01*
X99894396Y-145599881D01*
X99838614Y-145783770D01*
X99819780Y-145975000D01*
X99339605Y-145975000D01*
X99339605Y-145974999D01*
X99321223Y-145776623D01*
X99321222Y-145776621D01*
X99266703Y-145585006D01*
X99266697Y-145584991D01*
X99179225Y-145409325D01*
X98742962Y-145845589D01*
X98725925Y-145782007D01*
X98660099Y-145667993D01*
X98567007Y-145574901D01*
X98452993Y-145509075D01*
X98389409Y-145492037D01*
X98822527Y-145058919D01*
X98822526Y-145058918D01*
X98741224Y-145008579D01*
X98741215Y-145008574D01*
X98555450Y-144936609D01*
X98555445Y-144936608D01*
X98359611Y-144900000D01*
X98160389Y-144900000D01*
X97964554Y-144936608D01*
X97964553Y-144936608D01*
X97778780Y-145008576D01*
X97778776Y-145008578D01*
X97697471Y-145058919D01*
X98130590Y-145492037D01*
X98067007Y-145509075D01*
X97952993Y-145574901D01*
X97859901Y-145667993D01*
X97794075Y-145782007D01*
X97777037Y-145845590D01*
X97340773Y-145409325D01*
X97253301Y-145584993D01*
X97253293Y-145585013D01*
X97198777Y-145776620D01*
X97198776Y-145776623D01*
X97180395Y-145974999D01*
X96700220Y-145974999D01*
X96681385Y-145783769D01*
X96625605Y-145599886D01*
X96625603Y-145599883D01*
X96625603Y-145599881D01*
X96535026Y-145430424D01*
X96535022Y-145430417D01*
X96413120Y-145281879D01*
X96264582Y-145159977D01*
X96264575Y-145159973D01*
X96095118Y-145069396D01*
X96003172Y-145041505D01*
X95911231Y-145013615D01*
X95911229Y-145013614D01*
X95911231Y-145013614D01*
X95720000Y-144994780D01*
X95528770Y-145013614D01*
X95344881Y-145069396D01*
X95175424Y-145159973D01*
X95175417Y-145159977D01*
X95026879Y-145281879D01*
X94904977Y-145430417D01*
X94904973Y-145430424D01*
X94814396Y-145599881D01*
X94758614Y-145783770D01*
X94739780Y-145975000D01*
X94259605Y-145975000D01*
X94259605Y-145974999D01*
X94241223Y-145776623D01*
X94241222Y-145776621D01*
X94186703Y-145585006D01*
X94186697Y-145584991D01*
X94099225Y-145409325D01*
X93662962Y-145845589D01*
X93645925Y-145782007D01*
X93580099Y-145667993D01*
X93487007Y-145574901D01*
X93372993Y-145509075D01*
X93309409Y-145492037D01*
X93742527Y-145058919D01*
X93742526Y-145058918D01*
X93661224Y-145008579D01*
X93661215Y-145008574D01*
X93475450Y-144936609D01*
X93475445Y-144936608D01*
X93279611Y-144900000D01*
X93080389Y-144900000D01*
X92884554Y-144936608D01*
X92884553Y-144936608D01*
X92698780Y-145008576D01*
X92698776Y-145008578D01*
X92617471Y-145058919D01*
X93050590Y-145492037D01*
X92987007Y-145509075D01*
X92872993Y-145574901D01*
X92779901Y-145667993D01*
X92714075Y-145782007D01*
X92697037Y-145845590D01*
X92260773Y-145409325D01*
X92173301Y-145584993D01*
X92173293Y-145585013D01*
X92118777Y-145776620D01*
X92118776Y-145776623D01*
X92100395Y-145974999D01*
X91620220Y-145974999D01*
X91601385Y-145783769D01*
X91545605Y-145599886D01*
X91545603Y-145599883D01*
X91545603Y-145599881D01*
X91455026Y-145430424D01*
X91455022Y-145430417D01*
X91333120Y-145281879D01*
X91184582Y-145159977D01*
X91184575Y-145159973D01*
X91015118Y-145069396D01*
X90923172Y-145041505D01*
X90831231Y-145013615D01*
X90831229Y-145013614D01*
X90831231Y-145013614D01*
X90640000Y-144994780D01*
X90448770Y-145013614D01*
X90264881Y-145069396D01*
X90095424Y-145159973D01*
X90095417Y-145159977D01*
X89946879Y-145281879D01*
X89824977Y-145430417D01*
X89824973Y-145430424D01*
X89734396Y-145599881D01*
X89678614Y-145783770D01*
X89659780Y-145975000D01*
X89080220Y-145975000D01*
X89061385Y-145783769D01*
X89005605Y-145599886D01*
X89005603Y-145599883D01*
X89005603Y-145599881D01*
X88915026Y-145430424D01*
X88915022Y-145430417D01*
X88793120Y-145281879D01*
X88644582Y-145159977D01*
X88644575Y-145159973D01*
X88475118Y-145069396D01*
X88383172Y-145041505D01*
X88291231Y-145013615D01*
X88291229Y-145013614D01*
X88291231Y-145013614D01*
X88100000Y-144994780D01*
X87908770Y-145013614D01*
X87724881Y-145069396D01*
X87555424Y-145159973D01*
X87555417Y-145159977D01*
X87406879Y-145281879D01*
X87284977Y-145430417D01*
X87284973Y-145430424D01*
X87194396Y-145599881D01*
X87138614Y-145783770D01*
X87119780Y-145975000D01*
X86540220Y-145975000D01*
X86521385Y-145783769D01*
X86465605Y-145599886D01*
X86465603Y-145599883D01*
X86465603Y-145599881D01*
X86375026Y-145430424D01*
X86375022Y-145430417D01*
X86253120Y-145281879D01*
X86104582Y-145159977D01*
X86104575Y-145159973D01*
X85935118Y-145069396D01*
X85843172Y-145041505D01*
X85751231Y-145013615D01*
X85751229Y-145013614D01*
X85751231Y-145013614D01*
X85560000Y-144994780D01*
X85368770Y-145013614D01*
X85184881Y-145069396D01*
X85015424Y-145159973D01*
X85015417Y-145159977D01*
X84866879Y-145281879D01*
X84744977Y-145430417D01*
X84744973Y-145430424D01*
X84654396Y-145599881D01*
X84598614Y-145783770D01*
X84579780Y-145975000D01*
X84000220Y-145975000D01*
X83981385Y-145783769D01*
X83925605Y-145599886D01*
X83925603Y-145599883D01*
X83925603Y-145599881D01*
X83835026Y-145430424D01*
X83835022Y-145430417D01*
X83713120Y-145281879D01*
X83564582Y-145159977D01*
X83564575Y-145159973D01*
X83395118Y-145069396D01*
X83303172Y-145041505D01*
X83211231Y-145013615D01*
X83211229Y-145013614D01*
X83211231Y-145013614D01*
X83020000Y-144994780D01*
X82828770Y-145013614D01*
X82644881Y-145069396D01*
X82475424Y-145159973D01*
X82475417Y-145159977D01*
X82326879Y-145281879D01*
X82204977Y-145430417D01*
X82204973Y-145430424D01*
X82114396Y-145599881D01*
X82058614Y-145783770D01*
X82039780Y-145975000D01*
X81460220Y-145975000D01*
X81441385Y-145783769D01*
X81385605Y-145599886D01*
X81385603Y-145599883D01*
X81385603Y-145599881D01*
X81295026Y-145430424D01*
X81295022Y-145430417D01*
X81173120Y-145281879D01*
X81024582Y-145159977D01*
X81024575Y-145159973D01*
X80855118Y-145069396D01*
X80763172Y-145041505D01*
X80671231Y-145013615D01*
X80671229Y-145013614D01*
X80671231Y-145013614D01*
X80480000Y-144994780D01*
X80288770Y-145013614D01*
X80104881Y-145069396D01*
X79935424Y-145159973D01*
X79935417Y-145159977D01*
X79786879Y-145281879D01*
X79664977Y-145430417D01*
X79664973Y-145430424D01*
X79574396Y-145599881D01*
X79518614Y-145783770D01*
X79499780Y-145975000D01*
X78920220Y-145975000D01*
X78901385Y-145783769D01*
X78845605Y-145599886D01*
X78845603Y-145599883D01*
X78845603Y-145599881D01*
X78755026Y-145430424D01*
X78755022Y-145430417D01*
X78633120Y-145281879D01*
X78484582Y-145159977D01*
X78484575Y-145159973D01*
X78315118Y-145069396D01*
X78223172Y-145041505D01*
X78131231Y-145013615D01*
X78131229Y-145013614D01*
X78131231Y-145013614D01*
X77940000Y-144994780D01*
X77748770Y-145013614D01*
X77564881Y-145069396D01*
X77395424Y-145159973D01*
X77395417Y-145159977D01*
X77246879Y-145281879D01*
X77124977Y-145430417D01*
X77124973Y-145430424D01*
X77034396Y-145599881D01*
X76978614Y-145783770D01*
X76959780Y-145975000D01*
X76380220Y-145975000D01*
X76361385Y-145783769D01*
X76305605Y-145599886D01*
X76305603Y-145599883D01*
X76305603Y-145599881D01*
X76215026Y-145430424D01*
X76215022Y-145430417D01*
X76093120Y-145281879D01*
X75944582Y-145159977D01*
X75944575Y-145159973D01*
X75775118Y-145069396D01*
X75683172Y-145041505D01*
X75591231Y-145013615D01*
X75591229Y-145013614D01*
X75591231Y-145013614D01*
X75400000Y-144994780D01*
X75208770Y-145013614D01*
X75024881Y-145069396D01*
X74855424Y-145159973D01*
X74855417Y-145159977D01*
X74706879Y-145281879D01*
X74584977Y-145430417D01*
X74584973Y-145430424D01*
X74494396Y-145599881D01*
X74438614Y-145783770D01*
X74419780Y-145975000D01*
X73840220Y-145975000D01*
X73821385Y-145783769D01*
X73765605Y-145599886D01*
X73765603Y-145599883D01*
X73765603Y-145599881D01*
X73675026Y-145430424D01*
X73675022Y-145430417D01*
X73553120Y-145281879D01*
X73404582Y-145159977D01*
X73404575Y-145159973D01*
X73235118Y-145069396D01*
X73143172Y-145041505D01*
X73051231Y-145013615D01*
X73051229Y-145013614D01*
X73051231Y-145013614D01*
X72860000Y-144994780D01*
X72668770Y-145013614D01*
X72484881Y-145069396D01*
X72315424Y-145159973D01*
X72315417Y-145159977D01*
X72166879Y-145281879D01*
X72044977Y-145430417D01*
X72044973Y-145430424D01*
X71954396Y-145599881D01*
X71898614Y-145783770D01*
X71879780Y-145975000D01*
X71300220Y-145975000D01*
X71281385Y-145783769D01*
X71225605Y-145599886D01*
X71225603Y-145599883D01*
X71225603Y-145599881D01*
X71135026Y-145430424D01*
X71135022Y-145430417D01*
X71013120Y-145281879D01*
X70864582Y-145159977D01*
X70864575Y-145159973D01*
X70695118Y-145069396D01*
X70603172Y-145041505D01*
X70511231Y-145013615D01*
X70511229Y-145013614D01*
X70511231Y-145013614D01*
X70320000Y-144994780D01*
X70128770Y-145013614D01*
X69944881Y-145069396D01*
X69775424Y-145159973D01*
X69775417Y-145159977D01*
X69626879Y-145281879D01*
X69504977Y-145430417D01*
X69504973Y-145430424D01*
X69414396Y-145599881D01*
X69358614Y-145783770D01*
X69339780Y-145975000D01*
X68760220Y-145975000D01*
X68741385Y-145783769D01*
X68685605Y-145599886D01*
X68685603Y-145599883D01*
X68685603Y-145599881D01*
X68595026Y-145430424D01*
X68595022Y-145430417D01*
X68473120Y-145281879D01*
X68324582Y-145159977D01*
X68324575Y-145159973D01*
X68155118Y-145069396D01*
X68063172Y-145041505D01*
X67971231Y-145013615D01*
X67971229Y-145013614D01*
X67971231Y-145013614D01*
X67780000Y-144994780D01*
X67588770Y-145013614D01*
X67404881Y-145069396D01*
X67235424Y-145159973D01*
X67235417Y-145159977D01*
X67086879Y-145281879D01*
X66964977Y-145430417D01*
X66964973Y-145430424D01*
X66874396Y-145599881D01*
X66818614Y-145783770D01*
X66799780Y-145975000D01*
X66220220Y-145975000D01*
X66201385Y-145783769D01*
X66145605Y-145599886D01*
X66145603Y-145599883D01*
X66145603Y-145599881D01*
X66055026Y-145430424D01*
X66055022Y-145430417D01*
X65933120Y-145281879D01*
X65784582Y-145159977D01*
X65784575Y-145159973D01*
X65615118Y-145069396D01*
X65523172Y-145041505D01*
X65431231Y-145013615D01*
X65431229Y-145013614D01*
X65431231Y-145013614D01*
X65240000Y-144994780D01*
X65048770Y-145013614D01*
X64864881Y-145069396D01*
X64695424Y-145159973D01*
X64695417Y-145159977D01*
X64546879Y-145281879D01*
X64424977Y-145430417D01*
X64424973Y-145430424D01*
X64334396Y-145599881D01*
X64278614Y-145783770D01*
X64259780Y-145975000D01*
X63680220Y-145975000D01*
X63661385Y-145783769D01*
X63605605Y-145599886D01*
X63605603Y-145599883D01*
X63605603Y-145599881D01*
X63515026Y-145430424D01*
X63515022Y-145430417D01*
X63393120Y-145281879D01*
X63244582Y-145159977D01*
X63244575Y-145159973D01*
X63075118Y-145069396D01*
X62983172Y-145041505D01*
X62891231Y-145013615D01*
X62891229Y-145013614D01*
X62891231Y-145013614D01*
X62700000Y-144994780D01*
X62508770Y-145013614D01*
X62324881Y-145069396D01*
X62155424Y-145159973D01*
X62155417Y-145159977D01*
X62006879Y-145281879D01*
X61884977Y-145430417D01*
X61884973Y-145430424D01*
X61794396Y-145599881D01*
X61738614Y-145783770D01*
X61719780Y-145975000D01*
X61140220Y-145975000D01*
X61121385Y-145783769D01*
X61065605Y-145599886D01*
X61065603Y-145599883D01*
X61065603Y-145599881D01*
X60975026Y-145430424D01*
X60975022Y-145430417D01*
X60853120Y-145281879D01*
X60704582Y-145159977D01*
X60704575Y-145159973D01*
X60535118Y-145069396D01*
X60443172Y-145041505D01*
X60351231Y-145013615D01*
X60351229Y-145013614D01*
X60351231Y-145013614D01*
X60160000Y-144994780D01*
X59968770Y-145013614D01*
X59784881Y-145069396D01*
X59615424Y-145159973D01*
X59615417Y-145159977D01*
X59466879Y-145281879D01*
X59344977Y-145430417D01*
X59344973Y-145430424D01*
X59254396Y-145599881D01*
X59198614Y-145783770D01*
X59179780Y-145975000D01*
X58600220Y-145975000D01*
X58581385Y-145783769D01*
X58525605Y-145599886D01*
X58525603Y-145599883D01*
X58525603Y-145599881D01*
X58435026Y-145430424D01*
X58435022Y-145430417D01*
X58313120Y-145281879D01*
X58164582Y-145159977D01*
X58164575Y-145159973D01*
X57995118Y-145069396D01*
X57903172Y-145041505D01*
X57811231Y-145013615D01*
X57811229Y-145013614D01*
X57811231Y-145013614D01*
X57620000Y-144994780D01*
X57428770Y-145013614D01*
X57244881Y-145069396D01*
X57075424Y-145159973D01*
X57075417Y-145159977D01*
X56926879Y-145281879D01*
X56804977Y-145430417D01*
X56804973Y-145430424D01*
X56714396Y-145599881D01*
X56658614Y-145783770D01*
X56639780Y-145975000D01*
X56060220Y-145975000D01*
X56041385Y-145783769D01*
X55985605Y-145599886D01*
X55985603Y-145599883D01*
X55985603Y-145599881D01*
X55895026Y-145430424D01*
X55895022Y-145430417D01*
X55773120Y-145281879D01*
X55624582Y-145159977D01*
X55624575Y-145159973D01*
X55455118Y-145069396D01*
X55363172Y-145041505D01*
X55271231Y-145013615D01*
X55271229Y-145013614D01*
X55271231Y-145013614D01*
X55080000Y-144994780D01*
X54888770Y-145013614D01*
X54704881Y-145069396D01*
X54535424Y-145159973D01*
X54535417Y-145159977D01*
X54386879Y-145281879D01*
X54264977Y-145430417D01*
X54264973Y-145430424D01*
X54174396Y-145599881D01*
X54118614Y-145783770D01*
X54099780Y-145975000D01*
X53520220Y-145975000D01*
X53501385Y-145783769D01*
X53445605Y-145599886D01*
X53445603Y-145599883D01*
X53445603Y-145599881D01*
X53355026Y-145430424D01*
X53355022Y-145430417D01*
X53233120Y-145281879D01*
X53084582Y-145159977D01*
X53084575Y-145159973D01*
X52915118Y-145069396D01*
X52823172Y-145041505D01*
X52731231Y-145013615D01*
X52731229Y-145013614D01*
X52731231Y-145013614D01*
X52540000Y-144994780D01*
X52348770Y-145013614D01*
X52164881Y-145069396D01*
X51995424Y-145159973D01*
X51995417Y-145159977D01*
X51846879Y-145281879D01*
X51724977Y-145430417D01*
X51724973Y-145430424D01*
X51634396Y-145599881D01*
X51578614Y-145783770D01*
X51559780Y-145975000D01*
X51079605Y-145975000D01*
X51079605Y-145974999D01*
X51061223Y-145776623D01*
X51061222Y-145776621D01*
X51006703Y-145585006D01*
X51006697Y-145584991D01*
X50919225Y-145409325D01*
X50482962Y-145845589D01*
X50465925Y-145782007D01*
X50400099Y-145667993D01*
X50307007Y-145574901D01*
X50192993Y-145509075D01*
X50129409Y-145492037D01*
X50562527Y-145058919D01*
X50562526Y-145058918D01*
X50481224Y-145008579D01*
X50481215Y-145008574D01*
X50295450Y-144936609D01*
X50295445Y-144936608D01*
X50099611Y-144900000D01*
X49900389Y-144900000D01*
X49704554Y-144936608D01*
X49704553Y-144936608D01*
X49518780Y-145008576D01*
X49518776Y-145008578D01*
X49437471Y-145058919D01*
X49870590Y-145492037D01*
X49807007Y-145509075D01*
X49692993Y-145574901D01*
X49599901Y-145667993D01*
X49534075Y-145782007D01*
X49517037Y-145845590D01*
X49080773Y-145409325D01*
X48993301Y-145584993D01*
X48993293Y-145585013D01*
X48938777Y-145776620D01*
X48938776Y-145776623D01*
X48920395Y-145974999D01*
X39870500Y-145974999D01*
X39870500Y-143434999D01*
X48920395Y-143434999D01*
X48920395Y-143435000D01*
X48938776Y-143633376D01*
X48938777Y-143633379D01*
X48993293Y-143824986D01*
X48993301Y-143825006D01*
X49080773Y-144000673D01*
X49517037Y-143564409D01*
X49534075Y-143627993D01*
X49599901Y-143742007D01*
X49692993Y-143835099D01*
X49807007Y-143900925D01*
X49870589Y-143917962D01*
X49437471Y-144351079D01*
X49437472Y-144351080D01*
X49518775Y-144401421D01*
X49518784Y-144401425D01*
X49704549Y-144473390D01*
X49704554Y-144473391D01*
X49900389Y-144510000D01*
X50099611Y-144510000D01*
X50295445Y-144473391D01*
X50295450Y-144473390D01*
X50481217Y-144401424D01*
X50481221Y-144401422D01*
X50562527Y-144351079D01*
X50129410Y-143917962D01*
X50192993Y-143900925D01*
X50307007Y-143835099D01*
X50400099Y-143742007D01*
X50465925Y-143627993D01*
X50482962Y-143564409D01*
X50919226Y-144000673D01*
X51006697Y-143825008D01*
X51006703Y-143824993D01*
X51061222Y-143633378D01*
X51061223Y-143633376D01*
X51079605Y-143435000D01*
X51559780Y-143435000D01*
X51578614Y-143626229D01*
X51634396Y-143810118D01*
X51724973Y-143979575D01*
X51724977Y-143979582D01*
X51846879Y-144128120D01*
X51995417Y-144250022D01*
X51995424Y-144250026D01*
X52164881Y-144340603D01*
X52164883Y-144340603D01*
X52164886Y-144340605D01*
X52348769Y-144396385D01*
X52348768Y-144396385D01*
X52365914Y-144398073D01*
X52540000Y-144415220D01*
X52731231Y-144396385D01*
X52915114Y-144340605D01*
X53084581Y-144250023D01*
X53233120Y-144128120D01*
X53355023Y-143979581D01*
X53445605Y-143810114D01*
X53501385Y-143626231D01*
X53520220Y-143435000D01*
X54099780Y-143435000D01*
X54118614Y-143626229D01*
X54174396Y-143810118D01*
X54264973Y-143979575D01*
X54264977Y-143979582D01*
X54386879Y-144128120D01*
X54535417Y-144250022D01*
X54535424Y-144250026D01*
X54704881Y-144340603D01*
X54704883Y-144340603D01*
X54704886Y-144340605D01*
X54888769Y-144396385D01*
X54888768Y-144396385D01*
X54905914Y-144398073D01*
X55080000Y-144415220D01*
X55271231Y-144396385D01*
X55455114Y-144340605D01*
X55624581Y-144250023D01*
X55773120Y-144128120D01*
X55895023Y-143979581D01*
X55985605Y-143810114D01*
X56041385Y-143626231D01*
X56060220Y-143435000D01*
X56639780Y-143435000D01*
X56658614Y-143626229D01*
X56714396Y-143810118D01*
X56804973Y-143979575D01*
X56804977Y-143979582D01*
X56926879Y-144128120D01*
X57075417Y-144250022D01*
X57075424Y-144250026D01*
X57244881Y-144340603D01*
X57244883Y-144340603D01*
X57244886Y-144340605D01*
X57428769Y-144396385D01*
X57428768Y-144396385D01*
X57445914Y-144398073D01*
X57620000Y-144415220D01*
X57811231Y-144396385D01*
X57995114Y-144340605D01*
X58164581Y-144250023D01*
X58313120Y-144128120D01*
X58435023Y-143979581D01*
X58525605Y-143810114D01*
X58581385Y-143626231D01*
X58600220Y-143435000D01*
X59179780Y-143435000D01*
X59198614Y-143626229D01*
X59254396Y-143810118D01*
X59344973Y-143979575D01*
X59344977Y-143979582D01*
X59466879Y-144128120D01*
X59615417Y-144250022D01*
X59615424Y-144250026D01*
X59784881Y-144340603D01*
X59784883Y-144340603D01*
X59784886Y-144340605D01*
X59968769Y-144396385D01*
X59968768Y-144396385D01*
X59985914Y-144398073D01*
X60160000Y-144415220D01*
X60351231Y-144396385D01*
X60535114Y-144340605D01*
X60704581Y-144250023D01*
X60853120Y-144128120D01*
X60975023Y-143979581D01*
X61065605Y-143810114D01*
X61121385Y-143626231D01*
X61140220Y-143435000D01*
X61719780Y-143435000D01*
X61738614Y-143626229D01*
X61794396Y-143810118D01*
X61884973Y-143979575D01*
X61884977Y-143979582D01*
X62006879Y-144128120D01*
X62155417Y-144250022D01*
X62155424Y-144250026D01*
X62324881Y-144340603D01*
X62324883Y-144340603D01*
X62324886Y-144340605D01*
X62508769Y-144396385D01*
X62508768Y-144396385D01*
X62525914Y-144398073D01*
X62700000Y-144415220D01*
X62891231Y-144396385D01*
X63075114Y-144340605D01*
X63244581Y-144250023D01*
X63393120Y-144128120D01*
X63515023Y-143979581D01*
X63605605Y-143810114D01*
X63661385Y-143626231D01*
X63680220Y-143435000D01*
X64259780Y-143435000D01*
X64278614Y-143626229D01*
X64334396Y-143810118D01*
X64424973Y-143979575D01*
X64424977Y-143979582D01*
X64546879Y-144128120D01*
X64695417Y-144250022D01*
X64695424Y-144250026D01*
X64864881Y-144340603D01*
X64864883Y-144340603D01*
X64864886Y-144340605D01*
X65048769Y-144396385D01*
X65048768Y-144396385D01*
X65065914Y-144398073D01*
X65240000Y-144415220D01*
X65431231Y-144396385D01*
X65615114Y-144340605D01*
X65784581Y-144250023D01*
X65933120Y-144128120D01*
X66055023Y-143979581D01*
X66145605Y-143810114D01*
X66201385Y-143626231D01*
X66220220Y-143435000D01*
X66799780Y-143435000D01*
X66818614Y-143626229D01*
X66874396Y-143810118D01*
X66964973Y-143979575D01*
X66964977Y-143979582D01*
X67086879Y-144128120D01*
X67235417Y-144250022D01*
X67235424Y-144250026D01*
X67404881Y-144340603D01*
X67404883Y-144340603D01*
X67404886Y-144340605D01*
X67588769Y-144396385D01*
X67588768Y-144396385D01*
X67605914Y-144398073D01*
X67780000Y-144415220D01*
X67971231Y-144396385D01*
X68155114Y-144340605D01*
X68324581Y-144250023D01*
X68473120Y-144128120D01*
X68595023Y-143979581D01*
X68685605Y-143810114D01*
X68741385Y-143626231D01*
X68760220Y-143435000D01*
X69339780Y-143435000D01*
X69358614Y-143626229D01*
X69414396Y-143810118D01*
X69504973Y-143979575D01*
X69504977Y-143979582D01*
X69626879Y-144128120D01*
X69775417Y-144250022D01*
X69775424Y-144250026D01*
X69944881Y-144340603D01*
X69944883Y-144340603D01*
X69944886Y-144340605D01*
X70128769Y-144396385D01*
X70128768Y-144396385D01*
X70145914Y-144398073D01*
X70320000Y-144415220D01*
X70511231Y-144396385D01*
X70695114Y-144340605D01*
X70864581Y-144250023D01*
X71013120Y-144128120D01*
X71135023Y-143979581D01*
X71225605Y-143810114D01*
X71281385Y-143626231D01*
X71300220Y-143435000D01*
X71879780Y-143435000D01*
X71898614Y-143626229D01*
X71954396Y-143810118D01*
X72044973Y-143979575D01*
X72044977Y-143979582D01*
X72166879Y-144128120D01*
X72315417Y-144250022D01*
X72315424Y-144250026D01*
X72484881Y-144340603D01*
X72484883Y-144340603D01*
X72484886Y-144340605D01*
X72668769Y-144396385D01*
X72668768Y-144396385D01*
X72685914Y-144398073D01*
X72860000Y-144415220D01*
X73051231Y-144396385D01*
X73235114Y-144340605D01*
X73404581Y-144250023D01*
X73553120Y-144128120D01*
X73675023Y-143979581D01*
X73765605Y-143810114D01*
X73821385Y-143626231D01*
X73840220Y-143435000D01*
X74419780Y-143435000D01*
X74438614Y-143626229D01*
X74494396Y-143810118D01*
X74584973Y-143979575D01*
X74584977Y-143979582D01*
X74706879Y-144128120D01*
X74855417Y-144250022D01*
X74855424Y-144250026D01*
X75024881Y-144340603D01*
X75024883Y-144340603D01*
X75024886Y-144340605D01*
X75208769Y-144396385D01*
X75208768Y-144396385D01*
X75225914Y-144398073D01*
X75400000Y-144415220D01*
X75591231Y-144396385D01*
X75775114Y-144340605D01*
X75944581Y-144250023D01*
X76093120Y-144128120D01*
X76215023Y-143979581D01*
X76305605Y-143810114D01*
X76361385Y-143626231D01*
X76380220Y-143435000D01*
X76959780Y-143435000D01*
X76978614Y-143626229D01*
X77034396Y-143810118D01*
X77124973Y-143979575D01*
X77124977Y-143979582D01*
X77246879Y-144128120D01*
X77395417Y-144250022D01*
X77395424Y-144250026D01*
X77564881Y-144340603D01*
X77564883Y-144340603D01*
X77564886Y-144340605D01*
X77748769Y-144396385D01*
X77748768Y-144396385D01*
X77765914Y-144398073D01*
X77940000Y-144415220D01*
X78131231Y-144396385D01*
X78315114Y-144340605D01*
X78484581Y-144250023D01*
X78633120Y-144128120D01*
X78755023Y-143979581D01*
X78845605Y-143810114D01*
X78901385Y-143626231D01*
X78920220Y-143435000D01*
X79499780Y-143435000D01*
X79518614Y-143626229D01*
X79574396Y-143810118D01*
X79664973Y-143979575D01*
X79664977Y-143979582D01*
X79786879Y-144128120D01*
X79935417Y-144250022D01*
X79935424Y-144250026D01*
X80104881Y-144340603D01*
X80104883Y-144340603D01*
X80104886Y-144340605D01*
X80288769Y-144396385D01*
X80288768Y-144396385D01*
X80305914Y-144398073D01*
X80480000Y-144415220D01*
X80671231Y-144396385D01*
X80855114Y-144340605D01*
X81024581Y-144250023D01*
X81173120Y-144128120D01*
X81295023Y-143979581D01*
X81385605Y-143810114D01*
X81441385Y-143626231D01*
X81460220Y-143435000D01*
X82039780Y-143435000D01*
X82058614Y-143626229D01*
X82114396Y-143810118D01*
X82204973Y-143979575D01*
X82204977Y-143979582D01*
X82326879Y-144128120D01*
X82475417Y-144250022D01*
X82475424Y-144250026D01*
X82644881Y-144340603D01*
X82644883Y-144340603D01*
X82644886Y-144340605D01*
X82828769Y-144396385D01*
X82828768Y-144396385D01*
X82845914Y-144398073D01*
X83020000Y-144415220D01*
X83211231Y-144396385D01*
X83395114Y-144340605D01*
X83564581Y-144250023D01*
X83713120Y-144128120D01*
X83835023Y-143979581D01*
X83925605Y-143810114D01*
X83981385Y-143626231D01*
X84000220Y-143435000D01*
X84579780Y-143435000D01*
X84598614Y-143626229D01*
X84654396Y-143810118D01*
X84744973Y-143979575D01*
X84744977Y-143979582D01*
X84866879Y-144128120D01*
X85015417Y-144250022D01*
X85015424Y-144250026D01*
X85184881Y-144340603D01*
X85184883Y-144340603D01*
X85184886Y-144340605D01*
X85368769Y-144396385D01*
X85368768Y-144396385D01*
X85385914Y-144398073D01*
X85560000Y-144415220D01*
X85751231Y-144396385D01*
X85935114Y-144340605D01*
X86104581Y-144250023D01*
X86253120Y-144128120D01*
X86375023Y-143979581D01*
X86465605Y-143810114D01*
X86521385Y-143626231D01*
X86540220Y-143435000D01*
X87119780Y-143435000D01*
X87138614Y-143626229D01*
X87194396Y-143810118D01*
X87284973Y-143979575D01*
X87284977Y-143979582D01*
X87406879Y-144128120D01*
X87555417Y-144250022D01*
X87555424Y-144250026D01*
X87724881Y-144340603D01*
X87724883Y-144340603D01*
X87724886Y-144340605D01*
X87908769Y-144396385D01*
X87908768Y-144396385D01*
X87925914Y-144398073D01*
X88100000Y-144415220D01*
X88291231Y-144396385D01*
X88475114Y-144340605D01*
X88644581Y-144250023D01*
X88793120Y-144128120D01*
X88915023Y-143979581D01*
X89005605Y-143810114D01*
X89061385Y-143626231D01*
X89080220Y-143435000D01*
X89659780Y-143435000D01*
X89678614Y-143626229D01*
X89734396Y-143810118D01*
X89824973Y-143979575D01*
X89824977Y-143979582D01*
X89946879Y-144128120D01*
X90095417Y-144250022D01*
X90095424Y-144250026D01*
X90264881Y-144340603D01*
X90264883Y-144340603D01*
X90264886Y-144340605D01*
X90448769Y-144396385D01*
X90448768Y-144396385D01*
X90465914Y-144398073D01*
X90640000Y-144415220D01*
X90831231Y-144396385D01*
X91015114Y-144340605D01*
X91184581Y-144250023D01*
X91333120Y-144128120D01*
X91455023Y-143979581D01*
X91545605Y-143810114D01*
X91601385Y-143626231D01*
X91620220Y-143435000D01*
X91620220Y-143434999D01*
X92100395Y-143434999D01*
X92100395Y-143435000D01*
X92118776Y-143633376D01*
X92118777Y-143633379D01*
X92173293Y-143824986D01*
X92173301Y-143825006D01*
X92260773Y-144000673D01*
X92697037Y-143564409D01*
X92714075Y-143627993D01*
X92779901Y-143742007D01*
X92872993Y-143835099D01*
X92987007Y-143900925D01*
X93050589Y-143917962D01*
X92617471Y-144351079D01*
X92617472Y-144351080D01*
X92698775Y-144401421D01*
X92698784Y-144401425D01*
X92884549Y-144473390D01*
X92884554Y-144473391D01*
X93080389Y-144510000D01*
X93279611Y-144510000D01*
X93475445Y-144473391D01*
X93475450Y-144473390D01*
X93661217Y-144401424D01*
X93661221Y-144401422D01*
X93742527Y-144351079D01*
X93309410Y-143917962D01*
X93372993Y-143900925D01*
X93487007Y-143835099D01*
X93580099Y-143742007D01*
X93645925Y-143627993D01*
X93662962Y-143564409D01*
X94099226Y-144000673D01*
X94186697Y-143825008D01*
X94186703Y-143824993D01*
X94241222Y-143633378D01*
X94241223Y-143633376D01*
X94259605Y-143435000D01*
X94739780Y-143435000D01*
X94758614Y-143626229D01*
X94814396Y-143810118D01*
X94904973Y-143979575D01*
X94904977Y-143979582D01*
X95026879Y-144128120D01*
X95175417Y-144250022D01*
X95175424Y-144250026D01*
X95344881Y-144340603D01*
X95344883Y-144340603D01*
X95344886Y-144340605D01*
X95528769Y-144396385D01*
X95528768Y-144396385D01*
X95545914Y-144398073D01*
X95720000Y-144415220D01*
X95911231Y-144396385D01*
X96095114Y-144340605D01*
X96264581Y-144250023D01*
X96413120Y-144128120D01*
X96535023Y-143979581D01*
X96625605Y-143810114D01*
X96681385Y-143626231D01*
X96700220Y-143435000D01*
X96700220Y-143434999D01*
X97180395Y-143434999D01*
X97180395Y-143435000D01*
X97198776Y-143633376D01*
X97198777Y-143633379D01*
X97253293Y-143824986D01*
X97253301Y-143825006D01*
X97340773Y-144000673D01*
X97777037Y-143564408D01*
X97794075Y-143627993D01*
X97859901Y-143742007D01*
X97952993Y-143835099D01*
X98067007Y-143900925D01*
X98130589Y-143917962D01*
X97697471Y-144351079D01*
X97697472Y-144351080D01*
X97778775Y-144401421D01*
X97778784Y-144401425D01*
X97964549Y-144473390D01*
X97964554Y-144473391D01*
X98160389Y-144510000D01*
X98359611Y-144510000D01*
X98555445Y-144473391D01*
X98555450Y-144473390D01*
X98741217Y-144401424D01*
X98741221Y-144401422D01*
X98822527Y-144351079D01*
X98389410Y-143917962D01*
X98452993Y-143900925D01*
X98567007Y-143835099D01*
X98660099Y-143742007D01*
X98725925Y-143627993D01*
X98742962Y-143564409D01*
X99179226Y-144000673D01*
X99266697Y-143825008D01*
X99266703Y-143824993D01*
X99321222Y-143633378D01*
X99321223Y-143633376D01*
X99339605Y-143435000D01*
X99819780Y-143435000D01*
X99838614Y-143626229D01*
X99894396Y-143810118D01*
X99984973Y-143979575D01*
X99984977Y-143979582D01*
X100106879Y-144128120D01*
X100255417Y-144250022D01*
X100255424Y-144250026D01*
X100424881Y-144340603D01*
X100424883Y-144340603D01*
X100424886Y-144340605D01*
X100608769Y-144396385D01*
X100608768Y-144396385D01*
X100625914Y-144398073D01*
X100800000Y-144415220D01*
X100991231Y-144396385D01*
X101175114Y-144340605D01*
X101344581Y-144250023D01*
X101493120Y-144128120D01*
X101615023Y-143979581D01*
X101705605Y-143810114D01*
X101761385Y-143626231D01*
X101780220Y-143435000D01*
X102359780Y-143435000D01*
X102378614Y-143626229D01*
X102434396Y-143810118D01*
X102524973Y-143979575D01*
X102524977Y-143979582D01*
X102646879Y-144128120D01*
X102795417Y-144250022D01*
X102795424Y-144250026D01*
X102964881Y-144340603D01*
X102964883Y-144340603D01*
X102964886Y-144340605D01*
X103148769Y-144396385D01*
X103148768Y-144396385D01*
X103165914Y-144398073D01*
X103340000Y-144415220D01*
X103531231Y-144396385D01*
X103715114Y-144340605D01*
X103884581Y-144250023D01*
X104033120Y-144128120D01*
X104155023Y-143979581D01*
X104245605Y-143810114D01*
X104301385Y-143626231D01*
X104320220Y-143435000D01*
X104320220Y-143434999D01*
X104800395Y-143434999D01*
X104800395Y-143435000D01*
X104818776Y-143633376D01*
X104818777Y-143633379D01*
X104873293Y-143824986D01*
X104873301Y-143825006D01*
X104960773Y-144000673D01*
X105397037Y-143564409D01*
X105414075Y-143627993D01*
X105479901Y-143742007D01*
X105572993Y-143835099D01*
X105687007Y-143900925D01*
X105750589Y-143917962D01*
X105317471Y-144351079D01*
X105317472Y-144351080D01*
X105398775Y-144401421D01*
X105398784Y-144401425D01*
X105584549Y-144473390D01*
X105584554Y-144473391D01*
X105780389Y-144510000D01*
X105979611Y-144510000D01*
X106175445Y-144473391D01*
X106175450Y-144473390D01*
X106361217Y-144401424D01*
X106361221Y-144401422D01*
X106442527Y-144351079D01*
X106009410Y-143917962D01*
X106072993Y-143900925D01*
X106187007Y-143835099D01*
X106280099Y-143742007D01*
X106345925Y-143627993D01*
X106362962Y-143564409D01*
X106799226Y-144000673D01*
X106886697Y-143825008D01*
X106886703Y-143824993D01*
X106941222Y-143633378D01*
X106941223Y-143633376D01*
X106959605Y-143435000D01*
X107439780Y-143435000D01*
X107458614Y-143626229D01*
X107514396Y-143810118D01*
X107604973Y-143979575D01*
X107604977Y-143979582D01*
X107726879Y-144128120D01*
X107875417Y-144250022D01*
X107875424Y-144250026D01*
X108044881Y-144340603D01*
X108044883Y-144340603D01*
X108044886Y-144340605D01*
X108228769Y-144396385D01*
X108228768Y-144396385D01*
X108245914Y-144398073D01*
X108420000Y-144415220D01*
X108611231Y-144396385D01*
X108795114Y-144340605D01*
X108964581Y-144250023D01*
X109113120Y-144128120D01*
X109235023Y-143979581D01*
X109325605Y-143810114D01*
X109381385Y-143626231D01*
X109400220Y-143435000D01*
X109979780Y-143435000D01*
X109998614Y-143626229D01*
X110054396Y-143810118D01*
X110144973Y-143979575D01*
X110144977Y-143979582D01*
X110266879Y-144128120D01*
X110415417Y-144250022D01*
X110415424Y-144250026D01*
X110584881Y-144340603D01*
X110584883Y-144340603D01*
X110584886Y-144340605D01*
X110768769Y-144396385D01*
X110768768Y-144396385D01*
X110785914Y-144398073D01*
X110960000Y-144415220D01*
X111151231Y-144396385D01*
X111335114Y-144340605D01*
X111504581Y-144250023D01*
X111653120Y-144128120D01*
X111775023Y-143979581D01*
X111865605Y-143810114D01*
X111921385Y-143626231D01*
X111940220Y-143435000D01*
X111940220Y-143434999D01*
X112420395Y-143434999D01*
X112420395Y-143435000D01*
X112438776Y-143633376D01*
X112438777Y-143633379D01*
X112493293Y-143824986D01*
X112493301Y-143825006D01*
X112580773Y-144000673D01*
X113017037Y-143564409D01*
X113034075Y-143627993D01*
X113099901Y-143742007D01*
X113192993Y-143835099D01*
X113307007Y-143900925D01*
X113370589Y-143917962D01*
X112937471Y-144351079D01*
X112937472Y-144351080D01*
X113018775Y-144401421D01*
X113018784Y-144401425D01*
X113204549Y-144473390D01*
X113204554Y-144473391D01*
X113400389Y-144510000D01*
X113599611Y-144510000D01*
X113795445Y-144473391D01*
X113795450Y-144473390D01*
X113981217Y-144401424D01*
X113981221Y-144401422D01*
X114062527Y-144351079D01*
X113629410Y-143917962D01*
X113692993Y-143900925D01*
X113807007Y-143835099D01*
X113900099Y-143742007D01*
X113965925Y-143627993D01*
X113982962Y-143564409D01*
X114419226Y-144000673D01*
X114506697Y-143825008D01*
X114506703Y-143824993D01*
X114561222Y-143633378D01*
X114561223Y-143633376D01*
X114579605Y-143435000D01*
X115059780Y-143435000D01*
X115078614Y-143626229D01*
X115134396Y-143810118D01*
X115224973Y-143979575D01*
X115224977Y-143979582D01*
X115346879Y-144128120D01*
X115495417Y-144250022D01*
X115495424Y-144250026D01*
X115664881Y-144340603D01*
X115664883Y-144340603D01*
X115664886Y-144340605D01*
X115848769Y-144396385D01*
X115848768Y-144396385D01*
X115865914Y-144398073D01*
X116040000Y-144415220D01*
X116231231Y-144396385D01*
X116415114Y-144340605D01*
X116584581Y-144250023D01*
X116733120Y-144128120D01*
X116855023Y-143979581D01*
X116945605Y-143810114D01*
X117001385Y-143626231D01*
X117020220Y-143435000D01*
X117599780Y-143435000D01*
X117618614Y-143626229D01*
X117674396Y-143810118D01*
X117764973Y-143979575D01*
X117764977Y-143979582D01*
X117886879Y-144128120D01*
X118035417Y-144250022D01*
X118035424Y-144250026D01*
X118204881Y-144340603D01*
X118204883Y-144340603D01*
X118204886Y-144340605D01*
X118388769Y-144396385D01*
X118388768Y-144396385D01*
X118405914Y-144398073D01*
X118580000Y-144415220D01*
X118771231Y-144396385D01*
X118955114Y-144340605D01*
X119124581Y-144250023D01*
X119273120Y-144128120D01*
X119395023Y-143979581D01*
X119485605Y-143810114D01*
X119541385Y-143626231D01*
X119560220Y-143435000D01*
X119560220Y-143434999D01*
X120040395Y-143434999D01*
X120040395Y-143435000D01*
X120058776Y-143633376D01*
X120058777Y-143633379D01*
X120113293Y-143824986D01*
X120113301Y-143825006D01*
X120200773Y-144000673D01*
X120637037Y-143564408D01*
X120654075Y-143627993D01*
X120719901Y-143742007D01*
X120812993Y-143835099D01*
X120927007Y-143900925D01*
X120990589Y-143917962D01*
X120557471Y-144351079D01*
X120557472Y-144351080D01*
X120638775Y-144401421D01*
X120638784Y-144401425D01*
X120824549Y-144473390D01*
X120824554Y-144473391D01*
X121020389Y-144510000D01*
X121219611Y-144510000D01*
X121415445Y-144473391D01*
X121415450Y-144473390D01*
X121601217Y-144401424D01*
X121601221Y-144401422D01*
X121682527Y-144351079D01*
X121249410Y-143917962D01*
X121312993Y-143900925D01*
X121427007Y-143835099D01*
X121520099Y-143742007D01*
X121585925Y-143627993D01*
X121602962Y-143564409D01*
X122039226Y-144000673D01*
X122126697Y-143825008D01*
X122126703Y-143824993D01*
X122181222Y-143633378D01*
X122181223Y-143633376D01*
X122199605Y-143435000D01*
X122679780Y-143435000D01*
X122698614Y-143626229D01*
X122754396Y-143810118D01*
X122844973Y-143979575D01*
X122844977Y-143979582D01*
X122966879Y-144128120D01*
X123115417Y-144250022D01*
X123115424Y-144250026D01*
X123284881Y-144340603D01*
X123284883Y-144340603D01*
X123284886Y-144340605D01*
X123468769Y-144396385D01*
X123468768Y-144396385D01*
X123485914Y-144398073D01*
X123660000Y-144415220D01*
X123851231Y-144396385D01*
X124035114Y-144340605D01*
X124204581Y-144250023D01*
X124353120Y-144128120D01*
X124475023Y-143979581D01*
X124565605Y-143810114D01*
X124621385Y-143626231D01*
X124640220Y-143435000D01*
X124640220Y-143434999D01*
X125120395Y-143434999D01*
X125120395Y-143435000D01*
X125138776Y-143633376D01*
X125138777Y-143633379D01*
X125193293Y-143824986D01*
X125193301Y-143825006D01*
X125280773Y-144000673D01*
X125717037Y-143564409D01*
X125734075Y-143627993D01*
X125799901Y-143742007D01*
X125892993Y-143835099D01*
X126007007Y-143900925D01*
X126070589Y-143917962D01*
X125637471Y-144351079D01*
X125637472Y-144351080D01*
X125718775Y-144401421D01*
X125718784Y-144401425D01*
X125904549Y-144473390D01*
X125904554Y-144473391D01*
X126100389Y-144510000D01*
X126299611Y-144510000D01*
X126495445Y-144473391D01*
X126495450Y-144473390D01*
X126681217Y-144401424D01*
X126681221Y-144401422D01*
X126762527Y-144351079D01*
X126329410Y-143917962D01*
X126392993Y-143900925D01*
X126507007Y-143835099D01*
X126600099Y-143742007D01*
X126665925Y-143627993D01*
X126682962Y-143564409D01*
X127119226Y-144000673D01*
X127206697Y-143825008D01*
X127206703Y-143824993D01*
X127261222Y-143633378D01*
X127261223Y-143633376D01*
X127279605Y-143435000D01*
X127279605Y-143434999D01*
X127660395Y-143434999D01*
X127660395Y-143435000D01*
X127678776Y-143633376D01*
X127678777Y-143633379D01*
X127733293Y-143824986D01*
X127733301Y-143825006D01*
X127820773Y-144000673D01*
X128257037Y-143564409D01*
X128274075Y-143627993D01*
X128339901Y-143742007D01*
X128432993Y-143835099D01*
X128547007Y-143900925D01*
X128610589Y-143917962D01*
X128177471Y-144351079D01*
X128177472Y-144351080D01*
X128258775Y-144401421D01*
X128258784Y-144401425D01*
X128444549Y-144473390D01*
X128444554Y-144473391D01*
X128640389Y-144510000D01*
X128839611Y-144510000D01*
X129035445Y-144473391D01*
X129035450Y-144473390D01*
X129221217Y-144401424D01*
X129221221Y-144401422D01*
X129302527Y-144351079D01*
X128869410Y-143917962D01*
X128932993Y-143900925D01*
X129047007Y-143835099D01*
X129140099Y-143742007D01*
X129205925Y-143627993D01*
X129222962Y-143564409D01*
X129659226Y-144000673D01*
X129746697Y-143825008D01*
X129746703Y-143824993D01*
X129801222Y-143633378D01*
X129801223Y-143633376D01*
X129819605Y-143435000D01*
X129819605Y-143434999D01*
X129801223Y-143236623D01*
X129801222Y-143236621D01*
X129746703Y-143045006D01*
X129746697Y-143044991D01*
X129659225Y-142869325D01*
X129222962Y-143305589D01*
X129205925Y-143242007D01*
X129140099Y-143127993D01*
X129047007Y-143034901D01*
X128932993Y-142969075D01*
X128869409Y-142952037D01*
X129302527Y-142518919D01*
X129302526Y-142518918D01*
X129221224Y-142468579D01*
X129221215Y-142468574D01*
X129035450Y-142396609D01*
X129035445Y-142396608D01*
X128839611Y-142360000D01*
X128640389Y-142360000D01*
X128444554Y-142396608D01*
X128444553Y-142396608D01*
X128258780Y-142468576D01*
X128258776Y-142468578D01*
X128177471Y-142518919D01*
X128610590Y-142952037D01*
X128547007Y-142969075D01*
X128432993Y-143034901D01*
X128339901Y-143127993D01*
X128274075Y-143242007D01*
X128257037Y-143305590D01*
X127820773Y-142869325D01*
X127733301Y-143044993D01*
X127733293Y-143045013D01*
X127678777Y-143236620D01*
X127678776Y-143236623D01*
X127660395Y-143434999D01*
X127279605Y-143434999D01*
X127261223Y-143236623D01*
X127261222Y-143236621D01*
X127206703Y-143045006D01*
X127206697Y-143044991D01*
X127119225Y-142869325D01*
X126682962Y-143305589D01*
X126665925Y-143242007D01*
X126600099Y-143127993D01*
X126507007Y-143034901D01*
X126392993Y-142969075D01*
X126329409Y-142952037D01*
X126762527Y-142518919D01*
X126762526Y-142518918D01*
X126681224Y-142468579D01*
X126681215Y-142468574D01*
X126495450Y-142396609D01*
X126495445Y-142396608D01*
X126299611Y-142360000D01*
X126100389Y-142360000D01*
X125904554Y-142396608D01*
X125904553Y-142396608D01*
X125718780Y-142468576D01*
X125718776Y-142468578D01*
X125637471Y-142518919D01*
X126070590Y-142952037D01*
X126007007Y-142969075D01*
X125892993Y-143034901D01*
X125799901Y-143127993D01*
X125734075Y-143242007D01*
X125717037Y-143305590D01*
X125280773Y-142869325D01*
X125193301Y-143044993D01*
X125193293Y-143045013D01*
X125138777Y-143236620D01*
X125138776Y-143236623D01*
X125120395Y-143434999D01*
X124640220Y-143434999D01*
X124621385Y-143243769D01*
X124565605Y-143059886D01*
X124565603Y-143059883D01*
X124565603Y-143059881D01*
X124475026Y-142890424D01*
X124475022Y-142890417D01*
X124353120Y-142741879D01*
X124204582Y-142619977D01*
X124204575Y-142619973D01*
X124035118Y-142529396D01*
X123943172Y-142501505D01*
X123851231Y-142473615D01*
X123851229Y-142473614D01*
X123851231Y-142473614D01*
X123660000Y-142454780D01*
X123468770Y-142473614D01*
X123284881Y-142529396D01*
X123115424Y-142619973D01*
X123115417Y-142619977D01*
X122966879Y-142741879D01*
X122844977Y-142890417D01*
X122844973Y-142890424D01*
X122754396Y-143059881D01*
X122698614Y-143243770D01*
X122679780Y-143435000D01*
X122199605Y-143435000D01*
X122199605Y-143434999D01*
X122181223Y-143236623D01*
X122181222Y-143236621D01*
X122126703Y-143045006D01*
X122126697Y-143044991D01*
X122039225Y-142869325D01*
X121602962Y-143305589D01*
X121585925Y-143242007D01*
X121520099Y-143127993D01*
X121427007Y-143034901D01*
X121312993Y-142969075D01*
X121249409Y-142952037D01*
X121682527Y-142518919D01*
X121682526Y-142518918D01*
X121601224Y-142468579D01*
X121601215Y-142468574D01*
X121415450Y-142396609D01*
X121415445Y-142396608D01*
X121219611Y-142360000D01*
X121020389Y-142360000D01*
X120824554Y-142396608D01*
X120824553Y-142396608D01*
X120638780Y-142468576D01*
X120638776Y-142468578D01*
X120557471Y-142518919D01*
X120990590Y-142952037D01*
X120927007Y-142969075D01*
X120812993Y-143034901D01*
X120719901Y-143127993D01*
X120654075Y-143242007D01*
X120637037Y-143305590D01*
X120200773Y-142869325D01*
X120113301Y-143044993D01*
X120113293Y-143045013D01*
X120058777Y-143236620D01*
X120058776Y-143236623D01*
X120040395Y-143434999D01*
X119560220Y-143434999D01*
X119541385Y-143243769D01*
X119485605Y-143059886D01*
X119485603Y-143059883D01*
X119485603Y-143059881D01*
X119395026Y-142890424D01*
X119395022Y-142890417D01*
X119273120Y-142741879D01*
X119124582Y-142619977D01*
X119124575Y-142619973D01*
X118955118Y-142529396D01*
X118863172Y-142501505D01*
X118771231Y-142473615D01*
X118771229Y-142473614D01*
X118771231Y-142473614D01*
X118580000Y-142454780D01*
X118388770Y-142473614D01*
X118204881Y-142529396D01*
X118035424Y-142619973D01*
X118035417Y-142619977D01*
X117886879Y-142741879D01*
X117764977Y-142890417D01*
X117764973Y-142890424D01*
X117674396Y-143059881D01*
X117618614Y-143243770D01*
X117599780Y-143435000D01*
X117020220Y-143435000D01*
X117001385Y-143243769D01*
X116945605Y-143059886D01*
X116945603Y-143059883D01*
X116945603Y-143059881D01*
X116855026Y-142890424D01*
X116855022Y-142890417D01*
X116733120Y-142741879D01*
X116584582Y-142619977D01*
X116584575Y-142619973D01*
X116415118Y-142529396D01*
X116323172Y-142501505D01*
X116231231Y-142473615D01*
X116231229Y-142473614D01*
X116231231Y-142473614D01*
X116040000Y-142454780D01*
X115848770Y-142473614D01*
X115664881Y-142529396D01*
X115495424Y-142619973D01*
X115495417Y-142619977D01*
X115346879Y-142741879D01*
X115224977Y-142890417D01*
X115224973Y-142890424D01*
X115134396Y-143059881D01*
X115078614Y-143243770D01*
X115059780Y-143435000D01*
X114579605Y-143435000D01*
X114579605Y-143434999D01*
X114561223Y-143236623D01*
X114561222Y-143236621D01*
X114506703Y-143045006D01*
X114506697Y-143044991D01*
X114419225Y-142869325D01*
X113982962Y-143305589D01*
X113965925Y-143242007D01*
X113900099Y-143127993D01*
X113807007Y-143034901D01*
X113692993Y-142969075D01*
X113629409Y-142952037D01*
X114062527Y-142518919D01*
X114062526Y-142518918D01*
X113981224Y-142468579D01*
X113981215Y-142468574D01*
X113795450Y-142396609D01*
X113795445Y-142396608D01*
X113599611Y-142360000D01*
X113400389Y-142360000D01*
X113204554Y-142396608D01*
X113204553Y-142396608D01*
X113018780Y-142468576D01*
X113018776Y-142468578D01*
X112937471Y-142518919D01*
X113370590Y-142952037D01*
X113307007Y-142969075D01*
X113192993Y-143034901D01*
X113099901Y-143127993D01*
X113034075Y-143242007D01*
X113017037Y-143305590D01*
X112580773Y-142869325D01*
X112493301Y-143044993D01*
X112493293Y-143045013D01*
X112438777Y-143236620D01*
X112438776Y-143236623D01*
X112420395Y-143434999D01*
X111940220Y-143434999D01*
X111921385Y-143243769D01*
X111865605Y-143059886D01*
X111865603Y-143059883D01*
X111865603Y-143059881D01*
X111775026Y-142890424D01*
X111775022Y-142890417D01*
X111653120Y-142741879D01*
X111504582Y-142619977D01*
X111504575Y-142619973D01*
X111335118Y-142529396D01*
X111243172Y-142501505D01*
X111151231Y-142473615D01*
X111151229Y-142473614D01*
X111151231Y-142473614D01*
X110960000Y-142454780D01*
X110768770Y-142473614D01*
X110584881Y-142529396D01*
X110415424Y-142619973D01*
X110415417Y-142619977D01*
X110266879Y-142741879D01*
X110144977Y-142890417D01*
X110144973Y-142890424D01*
X110054396Y-143059881D01*
X109998614Y-143243770D01*
X109979780Y-143435000D01*
X109400220Y-143435000D01*
X109381385Y-143243769D01*
X109325605Y-143059886D01*
X109325603Y-143059883D01*
X109325603Y-143059881D01*
X109235026Y-142890424D01*
X109235022Y-142890417D01*
X109113120Y-142741879D01*
X108964582Y-142619977D01*
X108964575Y-142619973D01*
X108795118Y-142529396D01*
X108703172Y-142501505D01*
X108611231Y-142473615D01*
X108611229Y-142473614D01*
X108611231Y-142473614D01*
X108420000Y-142454780D01*
X108228770Y-142473614D01*
X108044881Y-142529396D01*
X107875424Y-142619973D01*
X107875417Y-142619977D01*
X107726879Y-142741879D01*
X107604977Y-142890417D01*
X107604973Y-142890424D01*
X107514396Y-143059881D01*
X107458614Y-143243770D01*
X107439780Y-143435000D01*
X106959605Y-143435000D01*
X106959605Y-143434999D01*
X106941223Y-143236623D01*
X106941222Y-143236621D01*
X106886703Y-143045006D01*
X106886697Y-143044991D01*
X106799225Y-142869325D01*
X106362962Y-143305589D01*
X106345925Y-143242007D01*
X106280099Y-143127993D01*
X106187007Y-143034901D01*
X106072993Y-142969075D01*
X106009409Y-142952037D01*
X106442527Y-142518919D01*
X106442526Y-142518918D01*
X106361224Y-142468579D01*
X106361215Y-142468574D01*
X106175450Y-142396609D01*
X106175445Y-142396608D01*
X105979611Y-142360000D01*
X105780389Y-142360000D01*
X105584554Y-142396608D01*
X105584553Y-142396608D01*
X105398780Y-142468576D01*
X105398776Y-142468578D01*
X105317471Y-142518919D01*
X105750590Y-142952037D01*
X105687007Y-142969075D01*
X105572993Y-143034901D01*
X105479901Y-143127993D01*
X105414075Y-143242007D01*
X105397037Y-143305590D01*
X104960773Y-142869325D01*
X104873301Y-143044993D01*
X104873293Y-143045013D01*
X104818777Y-143236620D01*
X104818776Y-143236623D01*
X104800395Y-143434999D01*
X104320220Y-143434999D01*
X104301385Y-143243769D01*
X104245605Y-143059886D01*
X104245603Y-143059883D01*
X104245603Y-143059881D01*
X104155026Y-142890424D01*
X104155022Y-142890417D01*
X104033120Y-142741879D01*
X103884582Y-142619977D01*
X103884575Y-142619973D01*
X103715118Y-142529396D01*
X103623172Y-142501505D01*
X103531231Y-142473615D01*
X103531229Y-142473614D01*
X103531231Y-142473614D01*
X103340000Y-142454780D01*
X103148770Y-142473614D01*
X102964881Y-142529396D01*
X102795424Y-142619973D01*
X102795417Y-142619977D01*
X102646879Y-142741879D01*
X102524977Y-142890417D01*
X102524973Y-142890424D01*
X102434396Y-143059881D01*
X102378614Y-143243770D01*
X102359780Y-143435000D01*
X101780220Y-143435000D01*
X101761385Y-143243769D01*
X101705605Y-143059886D01*
X101705603Y-143059883D01*
X101705603Y-143059881D01*
X101615026Y-142890424D01*
X101615022Y-142890417D01*
X101493120Y-142741879D01*
X101344582Y-142619977D01*
X101344575Y-142619973D01*
X101175118Y-142529396D01*
X101083172Y-142501505D01*
X100991231Y-142473615D01*
X100991229Y-142473614D01*
X100991231Y-142473614D01*
X100800000Y-142454780D01*
X100608770Y-142473614D01*
X100424881Y-142529396D01*
X100255424Y-142619973D01*
X100255417Y-142619977D01*
X100106879Y-142741879D01*
X99984977Y-142890417D01*
X99984973Y-142890424D01*
X99894396Y-143059881D01*
X99838614Y-143243770D01*
X99819780Y-143435000D01*
X99339605Y-143435000D01*
X99339605Y-143434999D01*
X99321223Y-143236623D01*
X99321222Y-143236621D01*
X99266703Y-143045006D01*
X99266697Y-143044991D01*
X99179225Y-142869325D01*
X98742962Y-143305589D01*
X98725925Y-143242007D01*
X98660099Y-143127993D01*
X98567007Y-143034901D01*
X98452993Y-142969075D01*
X98389409Y-142952037D01*
X98822527Y-142518919D01*
X98822526Y-142518918D01*
X98741224Y-142468579D01*
X98741215Y-142468574D01*
X98555450Y-142396609D01*
X98555445Y-142396608D01*
X98359611Y-142360000D01*
X98160389Y-142360000D01*
X97964554Y-142396608D01*
X97964553Y-142396608D01*
X97778780Y-142468576D01*
X97778776Y-142468578D01*
X97697471Y-142518919D01*
X98130590Y-142952037D01*
X98067007Y-142969075D01*
X97952993Y-143034901D01*
X97859901Y-143127993D01*
X97794075Y-143242007D01*
X97777037Y-143305590D01*
X97340773Y-142869325D01*
X97253301Y-143044993D01*
X97253293Y-143045013D01*
X97198777Y-143236620D01*
X97198776Y-143236623D01*
X97180395Y-143434999D01*
X96700220Y-143434999D01*
X96681385Y-143243769D01*
X96625605Y-143059886D01*
X96625603Y-143059883D01*
X96625603Y-143059881D01*
X96535026Y-142890424D01*
X96535022Y-142890417D01*
X96413120Y-142741879D01*
X96264582Y-142619977D01*
X96264575Y-142619973D01*
X96095118Y-142529396D01*
X96003172Y-142501505D01*
X95911231Y-142473615D01*
X95911229Y-142473614D01*
X95911231Y-142473614D01*
X95720000Y-142454780D01*
X95528770Y-142473614D01*
X95344881Y-142529396D01*
X95175424Y-142619973D01*
X95175417Y-142619977D01*
X95026879Y-142741879D01*
X94904977Y-142890417D01*
X94904973Y-142890424D01*
X94814396Y-143059881D01*
X94758614Y-143243770D01*
X94739780Y-143435000D01*
X94259605Y-143435000D01*
X94259605Y-143434999D01*
X94241223Y-143236623D01*
X94241222Y-143236621D01*
X94186703Y-143045006D01*
X94186697Y-143044991D01*
X94099225Y-142869325D01*
X93662962Y-143305589D01*
X93645925Y-143242007D01*
X93580099Y-143127993D01*
X93487007Y-143034901D01*
X93372993Y-142969075D01*
X93309409Y-142952037D01*
X93742527Y-142518919D01*
X93742526Y-142518918D01*
X93661224Y-142468579D01*
X93661215Y-142468574D01*
X93475450Y-142396609D01*
X93475445Y-142396608D01*
X93279611Y-142360000D01*
X93080389Y-142360000D01*
X92884554Y-142396608D01*
X92884553Y-142396608D01*
X92698780Y-142468576D01*
X92698776Y-142468578D01*
X92617471Y-142518919D01*
X93050590Y-142952037D01*
X92987007Y-142969075D01*
X92872993Y-143034901D01*
X92779901Y-143127993D01*
X92714075Y-143242007D01*
X92697037Y-143305590D01*
X92260773Y-142869325D01*
X92173301Y-143044993D01*
X92173293Y-143045013D01*
X92118777Y-143236620D01*
X92118776Y-143236623D01*
X92100395Y-143434999D01*
X91620220Y-143434999D01*
X91601385Y-143243769D01*
X91545605Y-143059886D01*
X91545603Y-143059883D01*
X91545603Y-143059881D01*
X91455026Y-142890424D01*
X91455022Y-142890417D01*
X91333120Y-142741879D01*
X91184582Y-142619977D01*
X91184575Y-142619973D01*
X91015118Y-142529396D01*
X90923172Y-142501505D01*
X90831231Y-142473615D01*
X90831229Y-142473614D01*
X90831231Y-142473614D01*
X90640000Y-142454780D01*
X90448770Y-142473614D01*
X90264881Y-142529396D01*
X90095424Y-142619973D01*
X90095417Y-142619977D01*
X89946879Y-142741879D01*
X89824977Y-142890417D01*
X89824973Y-142890424D01*
X89734396Y-143059881D01*
X89678614Y-143243770D01*
X89659780Y-143435000D01*
X89080220Y-143435000D01*
X89061385Y-143243769D01*
X89005605Y-143059886D01*
X89005603Y-143059883D01*
X89005603Y-143059881D01*
X88915026Y-142890424D01*
X88915022Y-142890417D01*
X88793120Y-142741879D01*
X88644582Y-142619977D01*
X88644575Y-142619973D01*
X88475118Y-142529396D01*
X88383172Y-142501505D01*
X88291231Y-142473615D01*
X88291229Y-142473614D01*
X88291231Y-142473614D01*
X88100000Y-142454780D01*
X87908770Y-142473614D01*
X87724881Y-142529396D01*
X87555424Y-142619973D01*
X87555417Y-142619977D01*
X87406879Y-142741879D01*
X87284977Y-142890417D01*
X87284973Y-142890424D01*
X87194396Y-143059881D01*
X87138614Y-143243770D01*
X87119780Y-143435000D01*
X86540220Y-143435000D01*
X86521385Y-143243769D01*
X86465605Y-143059886D01*
X86465603Y-143059883D01*
X86465603Y-143059881D01*
X86375026Y-142890424D01*
X86375022Y-142890417D01*
X86253120Y-142741879D01*
X86104582Y-142619977D01*
X86104575Y-142619973D01*
X85935118Y-142529396D01*
X85843172Y-142501505D01*
X85751231Y-142473615D01*
X85751229Y-142473614D01*
X85751231Y-142473614D01*
X85560000Y-142454780D01*
X85368770Y-142473614D01*
X85184881Y-142529396D01*
X85015424Y-142619973D01*
X85015417Y-142619977D01*
X84866879Y-142741879D01*
X84744977Y-142890417D01*
X84744973Y-142890424D01*
X84654396Y-143059881D01*
X84598614Y-143243770D01*
X84579780Y-143435000D01*
X84000220Y-143435000D01*
X83981385Y-143243769D01*
X83925605Y-143059886D01*
X83925603Y-143059883D01*
X83925603Y-143059881D01*
X83835026Y-142890424D01*
X83835022Y-142890417D01*
X83713120Y-142741879D01*
X83564582Y-142619977D01*
X83564575Y-142619973D01*
X83395118Y-142529396D01*
X83303172Y-142501505D01*
X83211231Y-142473615D01*
X83211229Y-142473614D01*
X83211231Y-142473614D01*
X83020000Y-142454780D01*
X82828770Y-142473614D01*
X82644881Y-142529396D01*
X82475424Y-142619973D01*
X82475417Y-142619977D01*
X82326879Y-142741879D01*
X82204977Y-142890417D01*
X82204973Y-142890424D01*
X82114396Y-143059881D01*
X82058614Y-143243770D01*
X82039780Y-143435000D01*
X81460220Y-143435000D01*
X81441385Y-143243769D01*
X81385605Y-143059886D01*
X81385603Y-143059883D01*
X81385603Y-143059881D01*
X81295026Y-142890424D01*
X81295022Y-142890417D01*
X81173120Y-142741879D01*
X81024582Y-142619977D01*
X81024575Y-142619973D01*
X80855118Y-142529396D01*
X80763172Y-142501505D01*
X80671231Y-142473615D01*
X80671229Y-142473614D01*
X80671231Y-142473614D01*
X80480000Y-142454780D01*
X80288770Y-142473614D01*
X80104881Y-142529396D01*
X79935424Y-142619973D01*
X79935417Y-142619977D01*
X79786879Y-142741879D01*
X79664977Y-142890417D01*
X79664973Y-142890424D01*
X79574396Y-143059881D01*
X79518614Y-143243770D01*
X79499780Y-143435000D01*
X78920220Y-143435000D01*
X78901385Y-143243769D01*
X78845605Y-143059886D01*
X78845603Y-143059883D01*
X78845603Y-143059881D01*
X78755026Y-142890424D01*
X78755022Y-142890417D01*
X78633120Y-142741879D01*
X78484582Y-142619977D01*
X78484575Y-142619973D01*
X78315118Y-142529396D01*
X78223172Y-142501505D01*
X78131231Y-142473615D01*
X78131229Y-142473614D01*
X78131231Y-142473614D01*
X77940000Y-142454780D01*
X77748770Y-142473614D01*
X77564881Y-142529396D01*
X77395424Y-142619973D01*
X77395417Y-142619977D01*
X77246879Y-142741879D01*
X77124977Y-142890417D01*
X77124973Y-142890424D01*
X77034396Y-143059881D01*
X76978614Y-143243770D01*
X76959780Y-143435000D01*
X76380220Y-143435000D01*
X76361385Y-143243769D01*
X76305605Y-143059886D01*
X76305603Y-143059883D01*
X76305603Y-143059881D01*
X76215026Y-142890424D01*
X76215022Y-142890417D01*
X76093120Y-142741879D01*
X75944582Y-142619977D01*
X75944575Y-142619973D01*
X75775118Y-142529396D01*
X75683172Y-142501505D01*
X75591231Y-142473615D01*
X75591229Y-142473614D01*
X75591231Y-142473614D01*
X75400000Y-142454780D01*
X75208770Y-142473614D01*
X75024881Y-142529396D01*
X74855424Y-142619973D01*
X74855417Y-142619977D01*
X74706879Y-142741879D01*
X74584977Y-142890417D01*
X74584973Y-142890424D01*
X74494396Y-143059881D01*
X74438614Y-143243770D01*
X74419780Y-143435000D01*
X73840220Y-143435000D01*
X73821385Y-143243769D01*
X73765605Y-143059886D01*
X73765603Y-143059883D01*
X73765603Y-143059881D01*
X73675026Y-142890424D01*
X73675022Y-142890417D01*
X73553120Y-142741879D01*
X73404582Y-142619977D01*
X73404575Y-142619973D01*
X73235118Y-142529396D01*
X73143172Y-142501505D01*
X73051231Y-142473615D01*
X73051229Y-142473614D01*
X73051231Y-142473614D01*
X72860000Y-142454780D01*
X72668770Y-142473614D01*
X72484881Y-142529396D01*
X72315424Y-142619973D01*
X72315417Y-142619977D01*
X72166879Y-142741879D01*
X72044977Y-142890417D01*
X72044973Y-142890424D01*
X71954396Y-143059881D01*
X71898614Y-143243770D01*
X71879780Y-143435000D01*
X71300220Y-143435000D01*
X71281385Y-143243769D01*
X71225605Y-143059886D01*
X71225603Y-143059883D01*
X71225603Y-143059881D01*
X71135026Y-142890424D01*
X71135022Y-142890417D01*
X71013120Y-142741879D01*
X70864582Y-142619977D01*
X70864575Y-142619973D01*
X70695118Y-142529396D01*
X70603172Y-142501505D01*
X70511231Y-142473615D01*
X70511229Y-142473614D01*
X70511231Y-142473614D01*
X70320000Y-142454780D01*
X70128770Y-142473614D01*
X69944881Y-142529396D01*
X69775424Y-142619973D01*
X69775417Y-142619977D01*
X69626879Y-142741879D01*
X69504977Y-142890417D01*
X69504973Y-142890424D01*
X69414396Y-143059881D01*
X69358614Y-143243770D01*
X69339780Y-143435000D01*
X68760220Y-143435000D01*
X68741385Y-143243769D01*
X68685605Y-143059886D01*
X68685603Y-143059883D01*
X68685603Y-143059881D01*
X68595026Y-142890424D01*
X68595022Y-142890417D01*
X68473120Y-142741879D01*
X68324582Y-142619977D01*
X68324575Y-142619973D01*
X68155118Y-142529396D01*
X68063172Y-142501505D01*
X67971231Y-142473615D01*
X67971229Y-142473614D01*
X67971231Y-142473614D01*
X67780000Y-142454780D01*
X67588770Y-142473614D01*
X67404881Y-142529396D01*
X67235424Y-142619973D01*
X67235417Y-142619977D01*
X67086879Y-142741879D01*
X66964977Y-142890417D01*
X66964973Y-142890424D01*
X66874396Y-143059881D01*
X66818614Y-143243770D01*
X66799780Y-143435000D01*
X66220220Y-143435000D01*
X66201385Y-143243769D01*
X66145605Y-143059886D01*
X66145603Y-143059883D01*
X66145603Y-143059881D01*
X66055026Y-142890424D01*
X66055022Y-142890417D01*
X65933120Y-142741879D01*
X65784582Y-142619977D01*
X65784575Y-142619973D01*
X65615118Y-142529396D01*
X65523172Y-142501505D01*
X65431231Y-142473615D01*
X65431229Y-142473614D01*
X65431231Y-142473614D01*
X65240000Y-142454780D01*
X65048770Y-142473614D01*
X64864881Y-142529396D01*
X64695424Y-142619973D01*
X64695417Y-142619977D01*
X64546879Y-142741879D01*
X64424977Y-142890417D01*
X64424973Y-142890424D01*
X64334396Y-143059881D01*
X64278614Y-143243770D01*
X64259780Y-143435000D01*
X63680220Y-143435000D01*
X63661385Y-143243769D01*
X63605605Y-143059886D01*
X63605603Y-143059883D01*
X63605603Y-143059881D01*
X63515026Y-142890424D01*
X63515022Y-142890417D01*
X63393120Y-142741879D01*
X63244582Y-142619977D01*
X63244575Y-142619973D01*
X63075118Y-142529396D01*
X62983172Y-142501505D01*
X62891231Y-142473615D01*
X62891229Y-142473614D01*
X62891231Y-142473614D01*
X62700000Y-142454780D01*
X62508770Y-142473614D01*
X62324881Y-142529396D01*
X62155424Y-142619973D01*
X62155417Y-142619977D01*
X62006879Y-142741879D01*
X61884977Y-142890417D01*
X61884973Y-142890424D01*
X61794396Y-143059881D01*
X61738614Y-143243770D01*
X61719780Y-143435000D01*
X61140220Y-143435000D01*
X61121385Y-143243769D01*
X61065605Y-143059886D01*
X61065603Y-143059883D01*
X61065603Y-143059881D01*
X60975026Y-142890424D01*
X60975022Y-142890417D01*
X60853120Y-142741879D01*
X60704582Y-142619977D01*
X60704575Y-142619973D01*
X60535118Y-142529396D01*
X60443172Y-142501505D01*
X60351231Y-142473615D01*
X60351229Y-142473614D01*
X60351231Y-142473614D01*
X60160000Y-142454780D01*
X59968770Y-142473614D01*
X59784881Y-142529396D01*
X59615424Y-142619973D01*
X59615417Y-142619977D01*
X59466879Y-142741879D01*
X59344977Y-142890417D01*
X59344973Y-142890424D01*
X59254396Y-143059881D01*
X59198614Y-143243770D01*
X59179780Y-143435000D01*
X58600220Y-143435000D01*
X58581385Y-143243769D01*
X58525605Y-143059886D01*
X58525603Y-143059883D01*
X58525603Y-143059881D01*
X58435026Y-142890424D01*
X58435022Y-142890417D01*
X58313120Y-142741879D01*
X58164582Y-142619977D01*
X58164575Y-142619973D01*
X57995118Y-142529396D01*
X57903172Y-142501505D01*
X57811231Y-142473615D01*
X57811229Y-142473614D01*
X57811231Y-142473614D01*
X57620000Y-142454780D01*
X57428770Y-142473614D01*
X57244881Y-142529396D01*
X57075424Y-142619973D01*
X57075417Y-142619977D01*
X56926879Y-142741879D01*
X56804977Y-142890417D01*
X56804973Y-142890424D01*
X56714396Y-143059881D01*
X56658614Y-143243770D01*
X56639780Y-143435000D01*
X56060220Y-143435000D01*
X56041385Y-143243769D01*
X55985605Y-143059886D01*
X55985603Y-143059883D01*
X55985603Y-143059881D01*
X55895026Y-142890424D01*
X55895022Y-142890417D01*
X55773120Y-142741879D01*
X55624582Y-142619977D01*
X55624575Y-142619973D01*
X55455118Y-142529396D01*
X55363172Y-142501505D01*
X55271231Y-142473615D01*
X55271229Y-142473614D01*
X55271231Y-142473614D01*
X55080000Y-142454780D01*
X54888770Y-142473614D01*
X54704881Y-142529396D01*
X54535424Y-142619973D01*
X54535417Y-142619977D01*
X54386879Y-142741879D01*
X54264977Y-142890417D01*
X54264973Y-142890424D01*
X54174396Y-143059881D01*
X54118614Y-143243770D01*
X54099780Y-143435000D01*
X53520220Y-143435000D01*
X53501385Y-143243769D01*
X53445605Y-143059886D01*
X53445603Y-143059883D01*
X53445603Y-143059881D01*
X53355026Y-142890424D01*
X53355022Y-142890417D01*
X53233120Y-142741879D01*
X53084582Y-142619977D01*
X53084575Y-142619973D01*
X52915118Y-142529396D01*
X52823172Y-142501505D01*
X52731231Y-142473615D01*
X52731229Y-142473614D01*
X52731231Y-142473614D01*
X52540000Y-142454780D01*
X52348770Y-142473614D01*
X52164881Y-142529396D01*
X51995424Y-142619973D01*
X51995417Y-142619977D01*
X51846879Y-142741879D01*
X51724977Y-142890417D01*
X51724973Y-142890424D01*
X51634396Y-143059881D01*
X51578614Y-143243770D01*
X51559780Y-143435000D01*
X51079605Y-143435000D01*
X51079605Y-143434999D01*
X51061223Y-143236623D01*
X51061222Y-143236621D01*
X51006703Y-143045006D01*
X51006697Y-143044991D01*
X50919225Y-142869325D01*
X50482962Y-143305589D01*
X50465925Y-143242007D01*
X50400099Y-143127993D01*
X50307007Y-143034901D01*
X50192993Y-142969075D01*
X50129409Y-142952037D01*
X50562527Y-142518919D01*
X50562526Y-142518918D01*
X50481224Y-142468579D01*
X50481215Y-142468574D01*
X50295450Y-142396609D01*
X50295445Y-142396608D01*
X50099611Y-142360000D01*
X49900389Y-142360000D01*
X49704554Y-142396608D01*
X49704553Y-142396608D01*
X49518780Y-142468576D01*
X49518776Y-142468578D01*
X49437471Y-142518919D01*
X49870590Y-142952037D01*
X49807007Y-142969075D01*
X49692993Y-143034901D01*
X49599901Y-143127993D01*
X49534075Y-143242007D01*
X49517037Y-143305590D01*
X49080773Y-142869325D01*
X48993301Y-143044993D01*
X48993293Y-143045013D01*
X48938777Y-143236620D01*
X48938776Y-143236623D01*
X48920395Y-143434999D01*
X39870500Y-143434999D01*
X39870500Y-140894999D01*
X48920395Y-140894999D01*
X48920395Y-140895000D01*
X48938776Y-141093376D01*
X48938777Y-141093379D01*
X48993293Y-141284986D01*
X48993301Y-141285006D01*
X49080773Y-141460673D01*
X49517037Y-141024409D01*
X49534075Y-141087993D01*
X49599901Y-141202007D01*
X49692993Y-141295099D01*
X49807007Y-141360925D01*
X49870589Y-141377962D01*
X49437471Y-141811079D01*
X49437472Y-141811080D01*
X49518775Y-141861421D01*
X49518784Y-141861425D01*
X49704549Y-141933390D01*
X49704554Y-141933391D01*
X49900389Y-141970000D01*
X50099611Y-141970000D01*
X50295445Y-141933391D01*
X50295450Y-141933390D01*
X50481217Y-141861424D01*
X50481221Y-141861422D01*
X50562527Y-141811079D01*
X50129410Y-141377962D01*
X50192993Y-141360925D01*
X50307007Y-141295099D01*
X50400099Y-141202007D01*
X50465925Y-141087993D01*
X50482962Y-141024409D01*
X50919226Y-141460673D01*
X51006697Y-141285008D01*
X51006703Y-141284993D01*
X51061222Y-141093378D01*
X51061223Y-141093376D01*
X51079605Y-140895000D01*
X51559780Y-140895000D01*
X51578614Y-141086229D01*
X51634396Y-141270118D01*
X51724973Y-141439575D01*
X51724977Y-141439582D01*
X51846879Y-141588120D01*
X51995417Y-141710022D01*
X51995424Y-141710026D01*
X52164881Y-141800603D01*
X52164883Y-141800603D01*
X52164886Y-141800605D01*
X52348769Y-141856385D01*
X52348768Y-141856385D01*
X52365914Y-141858073D01*
X52540000Y-141875220D01*
X52731231Y-141856385D01*
X52915114Y-141800605D01*
X53084581Y-141710023D01*
X53233120Y-141588120D01*
X53355023Y-141439581D01*
X53445605Y-141270114D01*
X53501385Y-141086231D01*
X53520220Y-140895000D01*
X54099780Y-140895000D01*
X54118614Y-141086229D01*
X54174396Y-141270118D01*
X54264973Y-141439575D01*
X54264977Y-141439582D01*
X54386879Y-141588120D01*
X54535417Y-141710022D01*
X54535424Y-141710026D01*
X54704881Y-141800603D01*
X54704883Y-141800603D01*
X54704886Y-141800605D01*
X54888769Y-141856385D01*
X54888768Y-141856385D01*
X54905914Y-141858073D01*
X55080000Y-141875220D01*
X55271231Y-141856385D01*
X55455114Y-141800605D01*
X55624581Y-141710023D01*
X55773120Y-141588120D01*
X55895023Y-141439581D01*
X55985605Y-141270114D01*
X56041385Y-141086231D01*
X56060220Y-140895000D01*
X56639780Y-140895000D01*
X56658614Y-141086229D01*
X56714396Y-141270118D01*
X56804973Y-141439575D01*
X56804977Y-141439582D01*
X56926879Y-141588120D01*
X57075417Y-141710022D01*
X57075424Y-141710026D01*
X57244881Y-141800603D01*
X57244883Y-141800603D01*
X57244886Y-141800605D01*
X57428769Y-141856385D01*
X57428768Y-141856385D01*
X57445914Y-141858073D01*
X57620000Y-141875220D01*
X57811231Y-141856385D01*
X57995114Y-141800605D01*
X58164581Y-141710023D01*
X58313120Y-141588120D01*
X58435023Y-141439581D01*
X58525605Y-141270114D01*
X58581385Y-141086231D01*
X58600220Y-140895000D01*
X59179780Y-140895000D01*
X59198614Y-141086229D01*
X59254396Y-141270118D01*
X59344973Y-141439575D01*
X59344977Y-141439582D01*
X59466879Y-141588120D01*
X59615417Y-141710022D01*
X59615424Y-141710026D01*
X59784881Y-141800603D01*
X59784883Y-141800603D01*
X59784886Y-141800605D01*
X59968769Y-141856385D01*
X59968768Y-141856385D01*
X59985914Y-141858073D01*
X60160000Y-141875220D01*
X60351231Y-141856385D01*
X60535114Y-141800605D01*
X60704581Y-141710023D01*
X60853120Y-141588120D01*
X60975023Y-141439581D01*
X61065605Y-141270114D01*
X61121385Y-141086231D01*
X61140220Y-140895000D01*
X61719780Y-140895000D01*
X61738614Y-141086229D01*
X61794396Y-141270118D01*
X61884973Y-141439575D01*
X61884977Y-141439582D01*
X62006879Y-141588120D01*
X62155417Y-141710022D01*
X62155424Y-141710026D01*
X62324881Y-141800603D01*
X62324883Y-141800603D01*
X62324886Y-141800605D01*
X62508769Y-141856385D01*
X62508768Y-141856385D01*
X62525914Y-141858073D01*
X62700000Y-141875220D01*
X62891231Y-141856385D01*
X63075114Y-141800605D01*
X63244581Y-141710023D01*
X63393120Y-141588120D01*
X63515023Y-141439581D01*
X63605605Y-141270114D01*
X63661385Y-141086231D01*
X63680220Y-140895000D01*
X64259780Y-140895000D01*
X64278614Y-141086229D01*
X64334396Y-141270118D01*
X64424973Y-141439575D01*
X64424977Y-141439582D01*
X64546879Y-141588120D01*
X64695417Y-141710022D01*
X64695424Y-141710026D01*
X64864881Y-141800603D01*
X64864883Y-141800603D01*
X64864886Y-141800605D01*
X65048769Y-141856385D01*
X65048768Y-141856385D01*
X65065914Y-141858073D01*
X65240000Y-141875220D01*
X65431231Y-141856385D01*
X65615114Y-141800605D01*
X65784581Y-141710023D01*
X65933120Y-141588120D01*
X66055023Y-141439581D01*
X66145605Y-141270114D01*
X66201385Y-141086231D01*
X66220220Y-140895000D01*
X66799780Y-140895000D01*
X66818614Y-141086229D01*
X66874396Y-141270118D01*
X66964973Y-141439575D01*
X66964977Y-141439582D01*
X67086879Y-141588120D01*
X67235417Y-141710022D01*
X67235424Y-141710026D01*
X67404881Y-141800603D01*
X67404883Y-141800603D01*
X67404886Y-141800605D01*
X67588769Y-141856385D01*
X67588768Y-141856385D01*
X67605914Y-141858073D01*
X67780000Y-141875220D01*
X67971231Y-141856385D01*
X68155114Y-141800605D01*
X68324581Y-141710023D01*
X68473120Y-141588120D01*
X68595023Y-141439581D01*
X68685605Y-141270114D01*
X68741385Y-141086231D01*
X68760220Y-140895000D01*
X69339780Y-140895000D01*
X69358614Y-141086229D01*
X69414396Y-141270118D01*
X69504973Y-141439575D01*
X69504977Y-141439582D01*
X69626879Y-141588120D01*
X69775417Y-141710022D01*
X69775424Y-141710026D01*
X69944881Y-141800603D01*
X69944883Y-141800603D01*
X69944886Y-141800605D01*
X70128769Y-141856385D01*
X70128768Y-141856385D01*
X70145914Y-141858073D01*
X70320000Y-141875220D01*
X70511231Y-141856385D01*
X70695114Y-141800605D01*
X70864581Y-141710023D01*
X71013120Y-141588120D01*
X71135023Y-141439581D01*
X71225605Y-141270114D01*
X71281385Y-141086231D01*
X71300220Y-140895000D01*
X71879780Y-140895000D01*
X71898614Y-141086229D01*
X71954396Y-141270118D01*
X72044973Y-141439575D01*
X72044977Y-141439582D01*
X72166879Y-141588120D01*
X72315417Y-141710022D01*
X72315424Y-141710026D01*
X72484881Y-141800603D01*
X72484883Y-141800603D01*
X72484886Y-141800605D01*
X72668769Y-141856385D01*
X72668768Y-141856385D01*
X72685914Y-141858073D01*
X72860000Y-141875220D01*
X73051231Y-141856385D01*
X73235114Y-141800605D01*
X73404581Y-141710023D01*
X73553120Y-141588120D01*
X73675023Y-141439581D01*
X73765605Y-141270114D01*
X73821385Y-141086231D01*
X73840220Y-140895000D01*
X74419780Y-140895000D01*
X74438614Y-141086229D01*
X74494396Y-141270118D01*
X74584973Y-141439575D01*
X74584977Y-141439582D01*
X74706879Y-141588120D01*
X74855417Y-141710022D01*
X74855424Y-141710026D01*
X75024881Y-141800603D01*
X75024883Y-141800603D01*
X75024886Y-141800605D01*
X75208769Y-141856385D01*
X75208768Y-141856385D01*
X75225914Y-141858073D01*
X75400000Y-141875220D01*
X75591231Y-141856385D01*
X75775114Y-141800605D01*
X75944581Y-141710023D01*
X76093120Y-141588120D01*
X76215023Y-141439581D01*
X76305605Y-141270114D01*
X76361385Y-141086231D01*
X76380220Y-140895000D01*
X76959780Y-140895000D01*
X76978614Y-141086229D01*
X77034396Y-141270118D01*
X77124973Y-141439575D01*
X77124977Y-141439582D01*
X77246879Y-141588120D01*
X77395417Y-141710022D01*
X77395424Y-141710026D01*
X77564881Y-141800603D01*
X77564883Y-141800603D01*
X77564886Y-141800605D01*
X77748769Y-141856385D01*
X77748768Y-141856385D01*
X77765914Y-141858073D01*
X77940000Y-141875220D01*
X78131231Y-141856385D01*
X78315114Y-141800605D01*
X78484581Y-141710023D01*
X78633120Y-141588120D01*
X78755023Y-141439581D01*
X78845605Y-141270114D01*
X78901385Y-141086231D01*
X78920220Y-140895000D01*
X79499780Y-140895000D01*
X79518614Y-141086229D01*
X79574396Y-141270118D01*
X79664973Y-141439575D01*
X79664977Y-141439582D01*
X79786879Y-141588120D01*
X79935417Y-141710022D01*
X79935424Y-141710026D01*
X80104881Y-141800603D01*
X80104883Y-141800603D01*
X80104886Y-141800605D01*
X80288769Y-141856385D01*
X80288768Y-141856385D01*
X80305914Y-141858073D01*
X80480000Y-141875220D01*
X80671231Y-141856385D01*
X80855114Y-141800605D01*
X81024581Y-141710023D01*
X81173120Y-141588120D01*
X81295023Y-141439581D01*
X81385605Y-141270114D01*
X81441385Y-141086231D01*
X81460220Y-140895000D01*
X82039780Y-140895000D01*
X82058614Y-141086229D01*
X82114396Y-141270118D01*
X82204973Y-141439575D01*
X82204977Y-141439582D01*
X82326879Y-141588120D01*
X82475417Y-141710022D01*
X82475424Y-141710026D01*
X82644881Y-141800603D01*
X82644883Y-141800603D01*
X82644886Y-141800605D01*
X82828769Y-141856385D01*
X82828768Y-141856385D01*
X82845914Y-141858073D01*
X83020000Y-141875220D01*
X83211231Y-141856385D01*
X83395114Y-141800605D01*
X83564581Y-141710023D01*
X83713120Y-141588120D01*
X83835023Y-141439581D01*
X83925605Y-141270114D01*
X83981385Y-141086231D01*
X84000220Y-140895000D01*
X84579780Y-140895000D01*
X84598614Y-141086229D01*
X84654396Y-141270118D01*
X84744973Y-141439575D01*
X84744977Y-141439582D01*
X84866879Y-141588120D01*
X85015417Y-141710022D01*
X85015424Y-141710026D01*
X85184881Y-141800603D01*
X85184883Y-141800603D01*
X85184886Y-141800605D01*
X85368769Y-141856385D01*
X85368768Y-141856385D01*
X85385914Y-141858073D01*
X85560000Y-141875220D01*
X85751231Y-141856385D01*
X85935114Y-141800605D01*
X86104581Y-141710023D01*
X86253120Y-141588120D01*
X86375023Y-141439581D01*
X86465605Y-141270114D01*
X86521385Y-141086231D01*
X86540220Y-140895000D01*
X87119780Y-140895000D01*
X87138614Y-141086229D01*
X87194396Y-141270118D01*
X87284973Y-141439575D01*
X87284977Y-141439582D01*
X87406879Y-141588120D01*
X87555417Y-141710022D01*
X87555424Y-141710026D01*
X87724881Y-141800603D01*
X87724883Y-141800603D01*
X87724886Y-141800605D01*
X87908769Y-141856385D01*
X87908768Y-141856385D01*
X87925914Y-141858073D01*
X88100000Y-141875220D01*
X88291231Y-141856385D01*
X88475114Y-141800605D01*
X88644581Y-141710023D01*
X88793120Y-141588120D01*
X88915023Y-141439581D01*
X89005605Y-141270114D01*
X89061385Y-141086231D01*
X89080220Y-140895000D01*
X89659780Y-140895000D01*
X89678614Y-141086229D01*
X89734396Y-141270118D01*
X89824973Y-141439575D01*
X89824977Y-141439582D01*
X89946879Y-141588120D01*
X90095417Y-141710022D01*
X90095424Y-141710026D01*
X90264881Y-141800603D01*
X90264883Y-141800603D01*
X90264886Y-141800605D01*
X90448769Y-141856385D01*
X90448768Y-141856385D01*
X90465914Y-141858073D01*
X90640000Y-141875220D01*
X90831231Y-141856385D01*
X91015114Y-141800605D01*
X91184581Y-141710023D01*
X91333120Y-141588120D01*
X91455023Y-141439581D01*
X91545605Y-141270114D01*
X91601385Y-141086231D01*
X91620220Y-140895000D01*
X91620220Y-140894999D01*
X92100395Y-140894999D01*
X92100395Y-140895000D01*
X92118776Y-141093376D01*
X92118777Y-141093379D01*
X92173293Y-141284986D01*
X92173301Y-141285006D01*
X92260773Y-141460673D01*
X92697037Y-141024409D01*
X92714075Y-141087993D01*
X92779901Y-141202007D01*
X92872993Y-141295099D01*
X92987007Y-141360925D01*
X93050589Y-141377962D01*
X92617471Y-141811079D01*
X92617472Y-141811080D01*
X92698775Y-141861421D01*
X92698784Y-141861425D01*
X92884549Y-141933390D01*
X92884554Y-141933391D01*
X93080389Y-141970000D01*
X93279611Y-141970000D01*
X93475445Y-141933391D01*
X93475450Y-141933390D01*
X93661217Y-141861424D01*
X93661221Y-141861422D01*
X93742527Y-141811079D01*
X93309410Y-141377962D01*
X93372993Y-141360925D01*
X93487007Y-141295099D01*
X93580099Y-141202007D01*
X93645925Y-141087993D01*
X93662962Y-141024409D01*
X94099226Y-141460673D01*
X94186697Y-141285008D01*
X94186703Y-141284993D01*
X94241222Y-141093378D01*
X94241223Y-141093376D01*
X94259605Y-140895000D01*
X94739780Y-140895000D01*
X94758614Y-141086229D01*
X94814396Y-141270118D01*
X94904973Y-141439575D01*
X94904977Y-141439582D01*
X95026879Y-141588120D01*
X95175417Y-141710022D01*
X95175424Y-141710026D01*
X95344881Y-141800603D01*
X95344883Y-141800603D01*
X95344886Y-141800605D01*
X95528769Y-141856385D01*
X95528768Y-141856385D01*
X95545914Y-141858073D01*
X95720000Y-141875220D01*
X95911231Y-141856385D01*
X96095114Y-141800605D01*
X96264581Y-141710023D01*
X96413120Y-141588120D01*
X96535023Y-141439581D01*
X96625605Y-141270114D01*
X96681385Y-141086231D01*
X96700220Y-140895000D01*
X96700220Y-140894999D01*
X97180395Y-140894999D01*
X97180395Y-140895000D01*
X97198776Y-141093376D01*
X97198777Y-141093379D01*
X97253293Y-141284986D01*
X97253301Y-141285006D01*
X97340773Y-141460673D01*
X97777037Y-141024408D01*
X97794075Y-141087993D01*
X97859901Y-141202007D01*
X97952993Y-141295099D01*
X98067007Y-141360925D01*
X98130589Y-141377962D01*
X97697471Y-141811079D01*
X97697472Y-141811080D01*
X97778775Y-141861421D01*
X97778784Y-141861425D01*
X97964549Y-141933390D01*
X97964554Y-141933391D01*
X98160389Y-141970000D01*
X98359611Y-141970000D01*
X98555445Y-141933391D01*
X98555450Y-141933390D01*
X98741217Y-141861424D01*
X98741221Y-141861422D01*
X98822527Y-141811079D01*
X98389410Y-141377962D01*
X98452993Y-141360925D01*
X98567007Y-141295099D01*
X98660099Y-141202007D01*
X98725925Y-141087993D01*
X98742962Y-141024409D01*
X99179226Y-141460673D01*
X99266697Y-141285008D01*
X99266703Y-141284993D01*
X99321222Y-141093378D01*
X99321223Y-141093376D01*
X99339605Y-140895000D01*
X99819780Y-140895000D01*
X99838614Y-141086229D01*
X99894396Y-141270118D01*
X99984973Y-141439575D01*
X99984977Y-141439582D01*
X100106879Y-141588120D01*
X100255417Y-141710022D01*
X100255424Y-141710026D01*
X100424881Y-141800603D01*
X100424883Y-141800603D01*
X100424886Y-141800605D01*
X100608769Y-141856385D01*
X100608768Y-141856385D01*
X100625914Y-141858073D01*
X100800000Y-141875220D01*
X100991231Y-141856385D01*
X101175114Y-141800605D01*
X101344581Y-141710023D01*
X101493120Y-141588120D01*
X101615023Y-141439581D01*
X101705605Y-141270114D01*
X101761385Y-141086231D01*
X101780220Y-140895000D01*
X102359780Y-140895000D01*
X102378614Y-141086229D01*
X102434396Y-141270118D01*
X102524973Y-141439575D01*
X102524977Y-141439582D01*
X102646879Y-141588120D01*
X102795417Y-141710022D01*
X102795424Y-141710026D01*
X102964881Y-141800603D01*
X102964883Y-141800603D01*
X102964886Y-141800605D01*
X103148769Y-141856385D01*
X103148768Y-141856385D01*
X103165914Y-141858073D01*
X103340000Y-141875220D01*
X103531231Y-141856385D01*
X103715114Y-141800605D01*
X103884581Y-141710023D01*
X104033120Y-141588120D01*
X104155023Y-141439581D01*
X104245605Y-141270114D01*
X104301385Y-141086231D01*
X104320220Y-140895000D01*
X104320220Y-140894999D01*
X104800395Y-140894999D01*
X104800395Y-140895000D01*
X104818776Y-141093376D01*
X104818777Y-141093379D01*
X104873293Y-141284986D01*
X104873301Y-141285006D01*
X104960773Y-141460673D01*
X105397037Y-141024409D01*
X105414075Y-141087993D01*
X105479901Y-141202007D01*
X105572993Y-141295099D01*
X105687007Y-141360925D01*
X105750589Y-141377962D01*
X105317471Y-141811079D01*
X105317472Y-141811080D01*
X105398775Y-141861421D01*
X105398784Y-141861425D01*
X105584549Y-141933390D01*
X105584554Y-141933391D01*
X105780389Y-141970000D01*
X105979611Y-141970000D01*
X106175445Y-141933391D01*
X106175450Y-141933390D01*
X106361217Y-141861424D01*
X106361221Y-141861422D01*
X106442527Y-141811079D01*
X106009410Y-141377962D01*
X106072993Y-141360925D01*
X106187007Y-141295099D01*
X106280099Y-141202007D01*
X106345925Y-141087993D01*
X106362962Y-141024409D01*
X106799226Y-141460673D01*
X106886697Y-141285008D01*
X106886703Y-141284993D01*
X106941222Y-141093378D01*
X106941223Y-141093376D01*
X106959605Y-140895000D01*
X107439780Y-140895000D01*
X107458614Y-141086229D01*
X107514396Y-141270118D01*
X107604973Y-141439575D01*
X107604977Y-141439582D01*
X107726879Y-141588120D01*
X107875417Y-141710022D01*
X107875424Y-141710026D01*
X108044881Y-141800603D01*
X108044883Y-141800603D01*
X108044886Y-141800605D01*
X108228769Y-141856385D01*
X108228768Y-141856385D01*
X108245914Y-141858073D01*
X108420000Y-141875220D01*
X108611231Y-141856385D01*
X108795114Y-141800605D01*
X108964581Y-141710023D01*
X109113120Y-141588120D01*
X109235023Y-141439581D01*
X109325605Y-141270114D01*
X109381385Y-141086231D01*
X109400220Y-140895000D01*
X109979780Y-140895000D01*
X109998614Y-141086229D01*
X110054396Y-141270118D01*
X110144973Y-141439575D01*
X110144977Y-141439582D01*
X110266879Y-141588120D01*
X110415417Y-141710022D01*
X110415424Y-141710026D01*
X110584881Y-141800603D01*
X110584883Y-141800603D01*
X110584886Y-141800605D01*
X110768769Y-141856385D01*
X110768768Y-141856385D01*
X110785914Y-141858073D01*
X110960000Y-141875220D01*
X111151231Y-141856385D01*
X111335114Y-141800605D01*
X111504581Y-141710023D01*
X111653120Y-141588120D01*
X111775023Y-141439581D01*
X111865605Y-141270114D01*
X111921385Y-141086231D01*
X111940220Y-140895000D01*
X111940220Y-140894999D01*
X112420395Y-140894999D01*
X112420395Y-140895000D01*
X112438776Y-141093376D01*
X112438777Y-141093379D01*
X112493293Y-141284986D01*
X112493301Y-141285006D01*
X112580773Y-141460673D01*
X113017037Y-141024409D01*
X113034075Y-141087993D01*
X113099901Y-141202007D01*
X113192993Y-141295099D01*
X113307007Y-141360925D01*
X113370589Y-141377962D01*
X112937471Y-141811079D01*
X112937472Y-141811080D01*
X113018775Y-141861421D01*
X113018784Y-141861425D01*
X113204549Y-141933390D01*
X113204554Y-141933391D01*
X113400389Y-141970000D01*
X113599611Y-141970000D01*
X113795445Y-141933391D01*
X113795450Y-141933390D01*
X113981217Y-141861424D01*
X113981221Y-141861422D01*
X114062527Y-141811079D01*
X113629410Y-141377962D01*
X113692993Y-141360925D01*
X113807007Y-141295099D01*
X113900099Y-141202007D01*
X113965925Y-141087993D01*
X113982962Y-141024409D01*
X114419226Y-141460673D01*
X114506697Y-141285008D01*
X114506703Y-141284993D01*
X114561222Y-141093378D01*
X114561223Y-141093376D01*
X114579605Y-140895000D01*
X115059780Y-140895000D01*
X115078614Y-141086229D01*
X115134396Y-141270118D01*
X115224973Y-141439575D01*
X115224977Y-141439582D01*
X115346879Y-141588120D01*
X115495417Y-141710022D01*
X115495424Y-141710026D01*
X115664881Y-141800603D01*
X115664883Y-141800603D01*
X115664886Y-141800605D01*
X115848769Y-141856385D01*
X115848768Y-141856385D01*
X115865914Y-141858073D01*
X116040000Y-141875220D01*
X116231231Y-141856385D01*
X116415114Y-141800605D01*
X116584581Y-141710023D01*
X116733120Y-141588120D01*
X116855023Y-141439581D01*
X116945605Y-141270114D01*
X117001385Y-141086231D01*
X117020220Y-140895000D01*
X117599780Y-140895000D01*
X117618614Y-141086229D01*
X117674396Y-141270118D01*
X117764973Y-141439575D01*
X117764977Y-141439582D01*
X117886879Y-141588120D01*
X118035417Y-141710022D01*
X118035424Y-141710026D01*
X118204881Y-141800603D01*
X118204883Y-141800603D01*
X118204886Y-141800605D01*
X118388769Y-141856385D01*
X118388768Y-141856385D01*
X118405914Y-141858073D01*
X118580000Y-141875220D01*
X118771231Y-141856385D01*
X118955114Y-141800605D01*
X119124581Y-141710023D01*
X119273120Y-141588120D01*
X119395023Y-141439581D01*
X119485605Y-141270114D01*
X119541385Y-141086231D01*
X119560220Y-140895000D01*
X119560220Y-140894999D01*
X120040395Y-140894999D01*
X120040395Y-140895000D01*
X120058776Y-141093376D01*
X120058777Y-141093379D01*
X120113293Y-141284986D01*
X120113301Y-141285006D01*
X120200773Y-141460673D01*
X120637037Y-141024408D01*
X120654075Y-141087993D01*
X120719901Y-141202007D01*
X120812993Y-141295099D01*
X120927007Y-141360925D01*
X120990589Y-141377962D01*
X120557471Y-141811079D01*
X120557472Y-141811080D01*
X120638775Y-141861421D01*
X120638784Y-141861425D01*
X120824549Y-141933390D01*
X120824554Y-141933391D01*
X121020389Y-141970000D01*
X121219611Y-141970000D01*
X121415445Y-141933391D01*
X121415450Y-141933390D01*
X121601217Y-141861424D01*
X121601221Y-141861422D01*
X121682527Y-141811079D01*
X121249410Y-141377962D01*
X121312993Y-141360925D01*
X121427007Y-141295099D01*
X121520099Y-141202007D01*
X121585925Y-141087993D01*
X121602962Y-141024409D01*
X122039226Y-141460673D01*
X122126697Y-141285008D01*
X122126703Y-141284993D01*
X122181222Y-141093378D01*
X122181223Y-141093376D01*
X122199605Y-140895000D01*
X122679780Y-140895000D01*
X122698614Y-141086229D01*
X122754396Y-141270118D01*
X122844973Y-141439575D01*
X122844977Y-141439582D01*
X122966879Y-141588120D01*
X123115417Y-141710022D01*
X123115424Y-141710026D01*
X123284881Y-141800603D01*
X123284883Y-141800603D01*
X123284886Y-141800605D01*
X123468769Y-141856385D01*
X123468768Y-141856385D01*
X123485914Y-141858073D01*
X123660000Y-141875220D01*
X123851231Y-141856385D01*
X124035114Y-141800605D01*
X124204581Y-141710023D01*
X124353120Y-141588120D01*
X124475023Y-141439581D01*
X124565605Y-141270114D01*
X124621385Y-141086231D01*
X124640220Y-140895000D01*
X125219780Y-140895000D01*
X125238614Y-141086229D01*
X125294396Y-141270118D01*
X125384973Y-141439575D01*
X125384977Y-141439582D01*
X125506879Y-141588120D01*
X125655417Y-141710022D01*
X125655424Y-141710026D01*
X125824881Y-141800603D01*
X125824883Y-141800603D01*
X125824886Y-141800605D01*
X126008769Y-141856385D01*
X126008768Y-141856385D01*
X126025914Y-141858073D01*
X126200000Y-141875220D01*
X126391231Y-141856385D01*
X126575114Y-141800605D01*
X126744581Y-141710023D01*
X126893120Y-141588120D01*
X127015023Y-141439581D01*
X127105605Y-141270114D01*
X127161385Y-141086231D01*
X127180220Y-140895000D01*
X127180220Y-140894999D01*
X127660395Y-140894999D01*
X127660395Y-140895000D01*
X127678776Y-141093376D01*
X127678777Y-141093379D01*
X127733293Y-141284986D01*
X127733301Y-141285006D01*
X127820773Y-141460673D01*
X128257037Y-141024409D01*
X128274075Y-141087993D01*
X128339901Y-141202007D01*
X128432993Y-141295099D01*
X128547007Y-141360925D01*
X128610589Y-141377962D01*
X128177471Y-141811079D01*
X128177472Y-141811080D01*
X128258775Y-141861421D01*
X128258784Y-141861425D01*
X128444549Y-141933390D01*
X128444554Y-141933391D01*
X128640389Y-141970000D01*
X128839611Y-141970000D01*
X129035445Y-141933391D01*
X129035450Y-141933390D01*
X129221217Y-141861424D01*
X129221221Y-141861422D01*
X129302527Y-141811079D01*
X128869410Y-141377962D01*
X128932993Y-141360925D01*
X129047007Y-141295099D01*
X129140099Y-141202007D01*
X129205925Y-141087993D01*
X129222962Y-141024409D01*
X129659226Y-141460673D01*
X129746697Y-141285008D01*
X129746703Y-141284993D01*
X129801222Y-141093378D01*
X129801223Y-141093376D01*
X129819605Y-140895000D01*
X129819605Y-140894999D01*
X129801223Y-140696623D01*
X129801222Y-140696621D01*
X129746703Y-140505006D01*
X129746697Y-140504991D01*
X129659225Y-140329325D01*
X129222962Y-140765589D01*
X129205925Y-140702007D01*
X129140099Y-140587993D01*
X129047007Y-140494901D01*
X128932993Y-140429075D01*
X128869409Y-140412037D01*
X129302527Y-139978919D01*
X129302526Y-139978918D01*
X129221224Y-139928579D01*
X129221215Y-139928574D01*
X129035450Y-139856609D01*
X129035445Y-139856608D01*
X128839611Y-139820000D01*
X128640389Y-139820000D01*
X128444554Y-139856608D01*
X128444553Y-139856608D01*
X128258780Y-139928576D01*
X128258776Y-139928578D01*
X128177471Y-139978919D01*
X128610590Y-140412037D01*
X128547007Y-140429075D01*
X128432993Y-140494901D01*
X128339901Y-140587993D01*
X128274075Y-140702007D01*
X128257037Y-140765590D01*
X127820773Y-140329325D01*
X127733301Y-140504993D01*
X127733293Y-140505013D01*
X127678777Y-140696620D01*
X127678776Y-140696623D01*
X127660395Y-140894999D01*
X127180220Y-140894999D01*
X127161385Y-140703769D01*
X127105605Y-140519886D01*
X127105603Y-140519883D01*
X127105603Y-140519881D01*
X127015026Y-140350424D01*
X127015022Y-140350417D01*
X126893120Y-140201879D01*
X126744582Y-140079977D01*
X126744575Y-140079973D01*
X126575118Y-139989396D01*
X126483172Y-139961505D01*
X126391231Y-139933615D01*
X126391229Y-139933614D01*
X126391231Y-139933614D01*
X126200000Y-139914780D01*
X126008770Y-139933614D01*
X125824881Y-139989396D01*
X125655424Y-140079973D01*
X125655417Y-140079977D01*
X125506879Y-140201879D01*
X125384977Y-140350417D01*
X125384973Y-140350424D01*
X125294396Y-140519881D01*
X125238614Y-140703770D01*
X125219780Y-140895000D01*
X124640220Y-140895000D01*
X124621385Y-140703769D01*
X124565605Y-140519886D01*
X124565603Y-140519883D01*
X124565603Y-140519881D01*
X124475026Y-140350424D01*
X124475022Y-140350417D01*
X124353120Y-140201879D01*
X124204582Y-140079977D01*
X124204575Y-140079973D01*
X124035118Y-139989396D01*
X123943172Y-139961505D01*
X123851231Y-139933615D01*
X123851229Y-139933614D01*
X123851231Y-139933614D01*
X123660000Y-139914780D01*
X123468770Y-139933614D01*
X123284881Y-139989396D01*
X123115424Y-140079973D01*
X123115417Y-140079977D01*
X122966879Y-140201879D01*
X122844977Y-140350417D01*
X122844973Y-140350424D01*
X122754396Y-140519881D01*
X122698614Y-140703770D01*
X122679780Y-140895000D01*
X122199605Y-140895000D01*
X122199605Y-140894999D01*
X122181223Y-140696623D01*
X122181222Y-140696621D01*
X122126703Y-140505006D01*
X122126697Y-140504991D01*
X122039225Y-140329325D01*
X121602962Y-140765589D01*
X121585925Y-140702007D01*
X121520099Y-140587993D01*
X121427007Y-140494901D01*
X121312993Y-140429075D01*
X121249409Y-140412037D01*
X121682527Y-139978919D01*
X121682526Y-139978918D01*
X121601224Y-139928579D01*
X121601215Y-139928574D01*
X121415450Y-139856609D01*
X121415445Y-139856608D01*
X121219611Y-139820000D01*
X121020389Y-139820000D01*
X120824554Y-139856608D01*
X120824553Y-139856608D01*
X120638780Y-139928576D01*
X120638776Y-139928578D01*
X120557471Y-139978919D01*
X120990590Y-140412037D01*
X120927007Y-140429075D01*
X120812993Y-140494901D01*
X120719901Y-140587993D01*
X120654075Y-140702007D01*
X120637037Y-140765590D01*
X120200773Y-140329325D01*
X120113301Y-140504993D01*
X120113293Y-140505013D01*
X120058777Y-140696620D01*
X120058776Y-140696623D01*
X120040395Y-140894999D01*
X119560220Y-140894999D01*
X119541385Y-140703769D01*
X119485605Y-140519886D01*
X119485603Y-140519883D01*
X119485603Y-140519881D01*
X119395026Y-140350424D01*
X119395022Y-140350417D01*
X119273120Y-140201879D01*
X119124582Y-140079977D01*
X119124575Y-140079973D01*
X118955118Y-139989396D01*
X118863172Y-139961505D01*
X118771231Y-139933615D01*
X118771229Y-139933614D01*
X118771231Y-139933614D01*
X118580000Y-139914780D01*
X118388770Y-139933614D01*
X118204881Y-139989396D01*
X118035424Y-140079973D01*
X118035417Y-140079977D01*
X117886879Y-140201879D01*
X117764977Y-140350417D01*
X117764973Y-140350424D01*
X117674396Y-140519881D01*
X117618614Y-140703770D01*
X117599780Y-140895000D01*
X117020220Y-140895000D01*
X117001385Y-140703769D01*
X116945605Y-140519886D01*
X116945603Y-140519883D01*
X116945603Y-140519881D01*
X116855026Y-140350424D01*
X116855022Y-140350417D01*
X116733120Y-140201879D01*
X116584582Y-140079977D01*
X116584575Y-140079973D01*
X116415118Y-139989396D01*
X116323172Y-139961505D01*
X116231231Y-139933615D01*
X116231229Y-139933614D01*
X116231231Y-139933614D01*
X116040000Y-139914780D01*
X115848770Y-139933614D01*
X115664881Y-139989396D01*
X115495424Y-140079973D01*
X115495417Y-140079977D01*
X115346879Y-140201879D01*
X115224977Y-140350417D01*
X115224973Y-140350424D01*
X115134396Y-140519881D01*
X115078614Y-140703770D01*
X115059780Y-140895000D01*
X114579605Y-140895000D01*
X114579605Y-140894999D01*
X114561223Y-140696623D01*
X114561222Y-140696621D01*
X114506703Y-140505006D01*
X114506697Y-140504991D01*
X114419225Y-140329325D01*
X113982962Y-140765589D01*
X113965925Y-140702007D01*
X113900099Y-140587993D01*
X113807007Y-140494901D01*
X113692993Y-140429075D01*
X113629409Y-140412037D01*
X114062527Y-139978919D01*
X114062526Y-139978918D01*
X113981224Y-139928579D01*
X113981215Y-139928574D01*
X113795450Y-139856609D01*
X113795445Y-139856608D01*
X113599611Y-139820000D01*
X113400389Y-139820000D01*
X113204554Y-139856608D01*
X113204553Y-139856608D01*
X113018780Y-139928576D01*
X113018776Y-139928578D01*
X112937471Y-139978919D01*
X113370590Y-140412037D01*
X113307007Y-140429075D01*
X113192993Y-140494901D01*
X113099901Y-140587993D01*
X113034075Y-140702007D01*
X113017037Y-140765590D01*
X112580773Y-140329325D01*
X112493301Y-140504993D01*
X112493293Y-140505013D01*
X112438777Y-140696620D01*
X112438776Y-140696623D01*
X112420395Y-140894999D01*
X111940220Y-140894999D01*
X111921385Y-140703769D01*
X111865605Y-140519886D01*
X111865603Y-140519883D01*
X111865603Y-140519881D01*
X111775026Y-140350424D01*
X111775022Y-140350417D01*
X111653120Y-140201879D01*
X111504582Y-140079977D01*
X111504575Y-140079973D01*
X111335118Y-139989396D01*
X111243172Y-139961505D01*
X111151231Y-139933615D01*
X111151229Y-139933614D01*
X111151231Y-139933614D01*
X110960000Y-139914780D01*
X110768770Y-139933614D01*
X110584881Y-139989396D01*
X110415424Y-140079973D01*
X110415417Y-140079977D01*
X110266879Y-140201879D01*
X110144977Y-140350417D01*
X110144973Y-140350424D01*
X110054396Y-140519881D01*
X109998614Y-140703770D01*
X109979780Y-140895000D01*
X109400220Y-140895000D01*
X109381385Y-140703769D01*
X109325605Y-140519886D01*
X109325603Y-140519883D01*
X109325603Y-140519881D01*
X109235026Y-140350424D01*
X109235022Y-140350417D01*
X109113120Y-140201879D01*
X108964582Y-140079977D01*
X108964575Y-140079973D01*
X108795118Y-139989396D01*
X108703172Y-139961505D01*
X108611231Y-139933615D01*
X108611229Y-139933614D01*
X108611231Y-139933614D01*
X108420000Y-139914780D01*
X108228770Y-139933614D01*
X108044881Y-139989396D01*
X107875424Y-140079973D01*
X107875417Y-140079977D01*
X107726879Y-140201879D01*
X107604977Y-140350417D01*
X107604973Y-140350424D01*
X107514396Y-140519881D01*
X107458614Y-140703770D01*
X107439780Y-140895000D01*
X106959605Y-140895000D01*
X106959605Y-140894999D01*
X106941223Y-140696623D01*
X106941222Y-140696621D01*
X106886703Y-140505006D01*
X106886697Y-140504991D01*
X106799225Y-140329325D01*
X106362962Y-140765589D01*
X106345925Y-140702007D01*
X106280099Y-140587993D01*
X106187007Y-140494901D01*
X106072993Y-140429075D01*
X106009409Y-140412037D01*
X106442527Y-139978919D01*
X106442526Y-139978918D01*
X106361224Y-139928579D01*
X106361215Y-139928574D01*
X106175450Y-139856609D01*
X106175445Y-139856608D01*
X105979611Y-139820000D01*
X105780389Y-139820000D01*
X105584554Y-139856608D01*
X105584553Y-139856608D01*
X105398780Y-139928576D01*
X105398776Y-139928578D01*
X105317471Y-139978919D01*
X105750590Y-140412037D01*
X105687007Y-140429075D01*
X105572993Y-140494901D01*
X105479901Y-140587993D01*
X105414075Y-140702007D01*
X105397037Y-140765590D01*
X104960773Y-140329325D01*
X104873301Y-140504993D01*
X104873293Y-140505013D01*
X104818777Y-140696620D01*
X104818776Y-140696623D01*
X104800395Y-140894999D01*
X104320220Y-140894999D01*
X104301385Y-140703769D01*
X104245605Y-140519886D01*
X104245603Y-140519883D01*
X104245603Y-140519881D01*
X104155026Y-140350424D01*
X104155022Y-140350417D01*
X104033120Y-140201879D01*
X103884582Y-140079977D01*
X103884575Y-140079973D01*
X103715118Y-139989396D01*
X103623172Y-139961505D01*
X103531231Y-139933615D01*
X103531229Y-139933614D01*
X103531231Y-139933614D01*
X103340000Y-139914780D01*
X103148770Y-139933614D01*
X102964881Y-139989396D01*
X102795424Y-140079973D01*
X102795417Y-140079977D01*
X102646879Y-140201879D01*
X102524977Y-140350417D01*
X102524973Y-140350424D01*
X102434396Y-140519881D01*
X102378614Y-140703770D01*
X102359780Y-140895000D01*
X101780220Y-140895000D01*
X101761385Y-140703769D01*
X101705605Y-140519886D01*
X101705603Y-140519883D01*
X101705603Y-140519881D01*
X101615026Y-140350424D01*
X101615022Y-140350417D01*
X101493120Y-140201879D01*
X101344582Y-140079977D01*
X101344575Y-140079973D01*
X101175118Y-139989396D01*
X101083172Y-139961505D01*
X100991231Y-139933615D01*
X100991229Y-139933614D01*
X100991231Y-139933614D01*
X100800000Y-139914780D01*
X100608770Y-139933614D01*
X100424881Y-139989396D01*
X100255424Y-140079973D01*
X100255417Y-140079977D01*
X100106879Y-140201879D01*
X99984977Y-140350417D01*
X99984973Y-140350424D01*
X99894396Y-140519881D01*
X99838614Y-140703770D01*
X99819780Y-140895000D01*
X99339605Y-140895000D01*
X99339605Y-140894999D01*
X99321223Y-140696623D01*
X99321222Y-140696621D01*
X99266703Y-140505006D01*
X99266697Y-140504991D01*
X99179225Y-140329325D01*
X98742962Y-140765589D01*
X98725925Y-140702007D01*
X98660099Y-140587993D01*
X98567007Y-140494901D01*
X98452993Y-140429075D01*
X98389409Y-140412037D01*
X98822527Y-139978919D01*
X98822526Y-139978918D01*
X98741224Y-139928579D01*
X98741215Y-139928574D01*
X98555450Y-139856609D01*
X98555445Y-139856608D01*
X98359611Y-139820000D01*
X98160389Y-139820000D01*
X97964554Y-139856608D01*
X97964553Y-139856608D01*
X97778780Y-139928576D01*
X97778776Y-139928578D01*
X97697471Y-139978919D01*
X98130590Y-140412037D01*
X98067007Y-140429075D01*
X97952993Y-140494901D01*
X97859901Y-140587993D01*
X97794075Y-140702007D01*
X97777037Y-140765590D01*
X97340773Y-140329325D01*
X97253301Y-140504993D01*
X97253293Y-140505013D01*
X97198777Y-140696620D01*
X97198776Y-140696623D01*
X97180395Y-140894999D01*
X96700220Y-140894999D01*
X96681385Y-140703769D01*
X96625605Y-140519886D01*
X96625603Y-140519883D01*
X96625603Y-140519881D01*
X96535026Y-140350424D01*
X96535022Y-140350417D01*
X96413120Y-140201879D01*
X96264582Y-140079977D01*
X96264575Y-140079973D01*
X96095118Y-139989396D01*
X96003172Y-139961505D01*
X95911231Y-139933615D01*
X95911229Y-139933614D01*
X95911231Y-139933614D01*
X95720000Y-139914780D01*
X95528770Y-139933614D01*
X95344881Y-139989396D01*
X95175424Y-140079973D01*
X95175417Y-140079977D01*
X95026879Y-140201879D01*
X94904977Y-140350417D01*
X94904973Y-140350424D01*
X94814396Y-140519881D01*
X94758614Y-140703770D01*
X94739780Y-140895000D01*
X94259605Y-140895000D01*
X94259605Y-140894999D01*
X94241223Y-140696623D01*
X94241222Y-140696621D01*
X94186703Y-140505006D01*
X94186697Y-140504991D01*
X94099225Y-140329325D01*
X93662962Y-140765589D01*
X93645925Y-140702007D01*
X93580099Y-140587993D01*
X93487007Y-140494901D01*
X93372993Y-140429075D01*
X93309409Y-140412037D01*
X93742527Y-139978919D01*
X93742526Y-139978918D01*
X93661224Y-139928579D01*
X93661215Y-139928574D01*
X93475450Y-139856609D01*
X93475445Y-139856608D01*
X93279611Y-139820000D01*
X93080389Y-139820000D01*
X92884554Y-139856608D01*
X92884553Y-139856608D01*
X92698780Y-139928576D01*
X92698776Y-139928578D01*
X92617471Y-139978919D01*
X93050590Y-140412037D01*
X92987007Y-140429075D01*
X92872993Y-140494901D01*
X92779901Y-140587993D01*
X92714075Y-140702007D01*
X92697037Y-140765590D01*
X92260773Y-140329325D01*
X92173301Y-140504993D01*
X92173293Y-140505013D01*
X92118777Y-140696620D01*
X92118776Y-140696623D01*
X92100395Y-140894999D01*
X91620220Y-140894999D01*
X91601385Y-140703769D01*
X91545605Y-140519886D01*
X91545603Y-140519883D01*
X91545603Y-140519881D01*
X91455026Y-140350424D01*
X91455022Y-140350417D01*
X91333120Y-140201879D01*
X91184582Y-140079977D01*
X91184575Y-140079973D01*
X91015118Y-139989396D01*
X90923172Y-139961505D01*
X90831231Y-139933615D01*
X90831229Y-139933614D01*
X90831231Y-139933614D01*
X90640000Y-139914780D01*
X90448770Y-139933614D01*
X90264881Y-139989396D01*
X90095424Y-140079973D01*
X90095417Y-140079977D01*
X89946879Y-140201879D01*
X89824977Y-140350417D01*
X89824973Y-140350424D01*
X89734396Y-140519881D01*
X89678614Y-140703770D01*
X89659780Y-140895000D01*
X89080220Y-140895000D01*
X89061385Y-140703769D01*
X89005605Y-140519886D01*
X89005603Y-140519883D01*
X89005603Y-140519881D01*
X88915026Y-140350424D01*
X88915022Y-140350417D01*
X88793120Y-140201879D01*
X88644582Y-140079977D01*
X88644575Y-140079973D01*
X88475118Y-139989396D01*
X88383172Y-139961505D01*
X88291231Y-139933615D01*
X88291229Y-139933614D01*
X88291231Y-139933614D01*
X88100000Y-139914780D01*
X87908770Y-139933614D01*
X87724881Y-139989396D01*
X87555424Y-140079973D01*
X87555417Y-140079977D01*
X87406879Y-140201879D01*
X87284977Y-140350417D01*
X87284973Y-140350424D01*
X87194396Y-140519881D01*
X87138614Y-140703770D01*
X87119780Y-140895000D01*
X86540220Y-140895000D01*
X86521385Y-140703769D01*
X86465605Y-140519886D01*
X86465603Y-140519883D01*
X86465603Y-140519881D01*
X86375026Y-140350424D01*
X86375022Y-140350417D01*
X86253120Y-140201879D01*
X86104582Y-140079977D01*
X86104575Y-140079973D01*
X85935118Y-139989396D01*
X85843172Y-139961505D01*
X85751231Y-139933615D01*
X85751229Y-139933614D01*
X85751231Y-139933614D01*
X85560000Y-139914780D01*
X85368770Y-139933614D01*
X85184881Y-139989396D01*
X85015424Y-140079973D01*
X85015417Y-140079977D01*
X84866879Y-140201879D01*
X84744977Y-140350417D01*
X84744973Y-140350424D01*
X84654396Y-140519881D01*
X84598614Y-140703770D01*
X84579780Y-140895000D01*
X84000220Y-140895000D01*
X83981385Y-140703769D01*
X83925605Y-140519886D01*
X83925603Y-140519883D01*
X83925603Y-140519881D01*
X83835026Y-140350424D01*
X83835022Y-140350417D01*
X83713120Y-140201879D01*
X83564582Y-140079977D01*
X83564575Y-140079973D01*
X83395118Y-139989396D01*
X83303172Y-139961505D01*
X83211231Y-139933615D01*
X83211229Y-139933614D01*
X83211231Y-139933614D01*
X83020000Y-139914780D01*
X82828770Y-139933614D01*
X82644881Y-139989396D01*
X82475424Y-140079973D01*
X82475417Y-140079977D01*
X82326879Y-140201879D01*
X82204977Y-140350417D01*
X82204973Y-140350424D01*
X82114396Y-140519881D01*
X82058614Y-140703770D01*
X82039780Y-140895000D01*
X81460220Y-140895000D01*
X81441385Y-140703769D01*
X81385605Y-140519886D01*
X81385603Y-140519883D01*
X81385603Y-140519881D01*
X81295026Y-140350424D01*
X81295022Y-140350417D01*
X81173120Y-140201879D01*
X81024582Y-140079977D01*
X81024575Y-140079973D01*
X80855118Y-139989396D01*
X80763172Y-139961505D01*
X80671231Y-139933615D01*
X80671229Y-139933614D01*
X80671231Y-139933614D01*
X80480000Y-139914780D01*
X80288770Y-139933614D01*
X80104881Y-139989396D01*
X79935424Y-140079973D01*
X79935417Y-140079977D01*
X79786879Y-140201879D01*
X79664977Y-140350417D01*
X79664973Y-140350424D01*
X79574396Y-140519881D01*
X79518614Y-140703770D01*
X79499780Y-140895000D01*
X78920220Y-140895000D01*
X78901385Y-140703769D01*
X78845605Y-140519886D01*
X78845603Y-140519883D01*
X78845603Y-140519881D01*
X78755026Y-140350424D01*
X78755022Y-140350417D01*
X78633120Y-140201879D01*
X78484582Y-140079977D01*
X78484575Y-140079973D01*
X78315118Y-139989396D01*
X78223172Y-139961505D01*
X78131231Y-139933615D01*
X78131229Y-139933614D01*
X78131231Y-139933614D01*
X77940000Y-139914780D01*
X77748770Y-139933614D01*
X77564881Y-139989396D01*
X77395424Y-140079973D01*
X77395417Y-140079977D01*
X77246879Y-140201879D01*
X77124977Y-140350417D01*
X77124973Y-140350424D01*
X77034396Y-140519881D01*
X76978614Y-140703770D01*
X76959780Y-140895000D01*
X76380220Y-140895000D01*
X76361385Y-140703769D01*
X76305605Y-140519886D01*
X76305603Y-140519883D01*
X76305603Y-140519881D01*
X76215026Y-140350424D01*
X76215022Y-140350417D01*
X76093120Y-140201879D01*
X75944582Y-140079977D01*
X75944575Y-140079973D01*
X75775118Y-139989396D01*
X75683172Y-139961505D01*
X75591231Y-139933615D01*
X75591229Y-139933614D01*
X75591231Y-139933614D01*
X75400000Y-139914780D01*
X75208770Y-139933614D01*
X75024881Y-139989396D01*
X74855424Y-140079973D01*
X74855417Y-140079977D01*
X74706879Y-140201879D01*
X74584977Y-140350417D01*
X74584973Y-140350424D01*
X74494396Y-140519881D01*
X74438614Y-140703770D01*
X74419780Y-140895000D01*
X73840220Y-140895000D01*
X73821385Y-140703769D01*
X73765605Y-140519886D01*
X73765603Y-140519883D01*
X73765603Y-140519881D01*
X73675026Y-140350424D01*
X73675022Y-140350417D01*
X73553120Y-140201879D01*
X73404582Y-140079977D01*
X73404575Y-140079973D01*
X73235118Y-139989396D01*
X73143172Y-139961505D01*
X73051231Y-139933615D01*
X73051229Y-139933614D01*
X73051231Y-139933614D01*
X72860000Y-139914780D01*
X72668770Y-139933614D01*
X72484881Y-139989396D01*
X72315424Y-140079973D01*
X72315417Y-140079977D01*
X72166879Y-140201879D01*
X72044977Y-140350417D01*
X72044973Y-140350424D01*
X71954396Y-140519881D01*
X71898614Y-140703770D01*
X71879780Y-140895000D01*
X71300220Y-140895000D01*
X71281385Y-140703769D01*
X71225605Y-140519886D01*
X71225603Y-140519883D01*
X71225603Y-140519881D01*
X71135026Y-140350424D01*
X71135022Y-140350417D01*
X71013120Y-140201879D01*
X70864582Y-140079977D01*
X70864575Y-140079973D01*
X70695118Y-139989396D01*
X70603172Y-139961505D01*
X70511231Y-139933615D01*
X70511229Y-139933614D01*
X70511231Y-139933614D01*
X70320000Y-139914780D01*
X70128770Y-139933614D01*
X69944881Y-139989396D01*
X69775424Y-140079973D01*
X69775417Y-140079977D01*
X69626879Y-140201879D01*
X69504977Y-140350417D01*
X69504973Y-140350424D01*
X69414396Y-140519881D01*
X69358614Y-140703770D01*
X69339780Y-140895000D01*
X68760220Y-140895000D01*
X68741385Y-140703769D01*
X68685605Y-140519886D01*
X68685603Y-140519883D01*
X68685603Y-140519881D01*
X68595026Y-140350424D01*
X68595022Y-140350417D01*
X68473120Y-140201879D01*
X68324582Y-140079977D01*
X68324575Y-140079973D01*
X68155118Y-139989396D01*
X68063172Y-139961505D01*
X67971231Y-139933615D01*
X67971229Y-139933614D01*
X67971231Y-139933614D01*
X67780000Y-139914780D01*
X67588770Y-139933614D01*
X67404881Y-139989396D01*
X67235424Y-140079973D01*
X67235417Y-140079977D01*
X67086879Y-140201879D01*
X66964977Y-140350417D01*
X66964973Y-140350424D01*
X66874396Y-140519881D01*
X66818614Y-140703770D01*
X66799780Y-140895000D01*
X66220220Y-140895000D01*
X66201385Y-140703769D01*
X66145605Y-140519886D01*
X66145603Y-140519883D01*
X66145603Y-140519881D01*
X66055026Y-140350424D01*
X66055022Y-140350417D01*
X65933120Y-140201879D01*
X65784582Y-140079977D01*
X65784575Y-140079973D01*
X65615118Y-139989396D01*
X65523172Y-139961505D01*
X65431231Y-139933615D01*
X65431229Y-139933614D01*
X65431231Y-139933614D01*
X65240000Y-139914780D01*
X65048770Y-139933614D01*
X64864881Y-139989396D01*
X64695424Y-140079973D01*
X64695417Y-140079977D01*
X64546879Y-140201879D01*
X64424977Y-140350417D01*
X64424973Y-140350424D01*
X64334396Y-140519881D01*
X64278614Y-140703770D01*
X64259780Y-140895000D01*
X63680220Y-140895000D01*
X63661385Y-140703769D01*
X63605605Y-140519886D01*
X63605603Y-140519883D01*
X63605603Y-140519881D01*
X63515026Y-140350424D01*
X63515022Y-140350417D01*
X63393120Y-140201879D01*
X63244582Y-140079977D01*
X63244575Y-140079973D01*
X63075118Y-139989396D01*
X62983172Y-139961505D01*
X62891231Y-139933615D01*
X62891229Y-139933614D01*
X62891231Y-139933614D01*
X62700000Y-139914780D01*
X62508770Y-139933614D01*
X62324881Y-139989396D01*
X62155424Y-140079973D01*
X62155417Y-140079977D01*
X62006879Y-140201879D01*
X61884977Y-140350417D01*
X61884973Y-140350424D01*
X61794396Y-140519881D01*
X61738614Y-140703770D01*
X61719780Y-140895000D01*
X61140220Y-140895000D01*
X61121385Y-140703769D01*
X61065605Y-140519886D01*
X61065603Y-140519883D01*
X61065603Y-140519881D01*
X60975026Y-140350424D01*
X60975022Y-140350417D01*
X60853120Y-140201879D01*
X60704582Y-140079977D01*
X60704575Y-140079973D01*
X60535118Y-139989396D01*
X60443172Y-139961505D01*
X60351231Y-139933615D01*
X60351229Y-139933614D01*
X60351231Y-139933614D01*
X60160000Y-139914780D01*
X59968770Y-139933614D01*
X59784881Y-139989396D01*
X59615424Y-140079973D01*
X59615417Y-140079977D01*
X59466879Y-140201879D01*
X59344977Y-140350417D01*
X59344973Y-140350424D01*
X59254396Y-140519881D01*
X59198614Y-140703770D01*
X59179780Y-140895000D01*
X58600220Y-140895000D01*
X58581385Y-140703769D01*
X58525605Y-140519886D01*
X58525603Y-140519883D01*
X58525603Y-140519881D01*
X58435026Y-140350424D01*
X58435022Y-140350417D01*
X58313120Y-140201879D01*
X58164582Y-140079977D01*
X58164575Y-140079973D01*
X57995118Y-139989396D01*
X57903172Y-139961505D01*
X57811231Y-139933615D01*
X57811229Y-139933614D01*
X57811231Y-139933614D01*
X57620000Y-139914780D01*
X57428770Y-139933614D01*
X57244881Y-139989396D01*
X57075424Y-140079973D01*
X57075417Y-140079977D01*
X56926879Y-140201879D01*
X56804977Y-140350417D01*
X56804973Y-140350424D01*
X56714396Y-140519881D01*
X56658614Y-140703770D01*
X56639780Y-140895000D01*
X56060220Y-140895000D01*
X56041385Y-140703769D01*
X55985605Y-140519886D01*
X55985603Y-140519883D01*
X55985603Y-140519881D01*
X55895026Y-140350424D01*
X55895022Y-140350417D01*
X55773120Y-140201879D01*
X55624582Y-140079977D01*
X55624575Y-140079973D01*
X55455118Y-139989396D01*
X55363172Y-139961505D01*
X55271231Y-139933615D01*
X55271229Y-139933614D01*
X55271231Y-139933614D01*
X55080000Y-139914780D01*
X54888770Y-139933614D01*
X54704881Y-139989396D01*
X54535424Y-140079973D01*
X54535417Y-140079977D01*
X54386879Y-140201879D01*
X54264977Y-140350417D01*
X54264973Y-140350424D01*
X54174396Y-140519881D01*
X54118614Y-140703770D01*
X54099780Y-140895000D01*
X53520220Y-140895000D01*
X53501385Y-140703769D01*
X53445605Y-140519886D01*
X53445603Y-140519883D01*
X53445603Y-140519881D01*
X53355026Y-140350424D01*
X53355022Y-140350417D01*
X53233120Y-140201879D01*
X53084582Y-140079977D01*
X53084575Y-140079973D01*
X52915118Y-139989396D01*
X52823172Y-139961505D01*
X52731231Y-139933615D01*
X52731229Y-139933614D01*
X52731231Y-139933614D01*
X52540000Y-139914780D01*
X52348770Y-139933614D01*
X52164881Y-139989396D01*
X51995424Y-140079973D01*
X51995417Y-140079977D01*
X51846879Y-140201879D01*
X51724977Y-140350417D01*
X51724973Y-140350424D01*
X51634396Y-140519881D01*
X51578614Y-140703770D01*
X51559780Y-140895000D01*
X51079605Y-140895000D01*
X51079605Y-140894999D01*
X51061223Y-140696623D01*
X51061222Y-140696621D01*
X51006703Y-140505006D01*
X51006697Y-140504991D01*
X50919225Y-140329325D01*
X50482962Y-140765589D01*
X50465925Y-140702007D01*
X50400099Y-140587993D01*
X50307007Y-140494901D01*
X50192993Y-140429075D01*
X50129409Y-140412037D01*
X50562527Y-139978919D01*
X50562526Y-139978918D01*
X50481224Y-139928579D01*
X50481215Y-139928574D01*
X50295450Y-139856609D01*
X50295445Y-139856608D01*
X50099611Y-139820000D01*
X49900389Y-139820000D01*
X49704554Y-139856608D01*
X49704553Y-139856608D01*
X49518780Y-139928576D01*
X49518776Y-139928578D01*
X49437471Y-139978919D01*
X49870590Y-140412037D01*
X49807007Y-140429075D01*
X49692993Y-140494901D01*
X49599901Y-140587993D01*
X49534075Y-140702007D01*
X49517037Y-140765590D01*
X49080773Y-140329325D01*
X48993301Y-140504993D01*
X48993293Y-140505013D01*
X48938777Y-140696620D01*
X48938776Y-140696623D01*
X48920395Y-140894999D01*
X39870500Y-140894999D01*
X39870500Y-67647501D01*
X95540011Y-67647501D01*
X95559944Y-67951624D01*
X95559946Y-67951636D01*
X95619401Y-68250539D01*
X95619405Y-68250554D01*
X95717372Y-68539152D01*
X95852166Y-68812488D01*
X95852173Y-68812501D01*
X96021496Y-69065909D01*
X96057256Y-69106687D01*
X96057258Y-69106687D01*
X96754728Y-68409217D01*
X96840278Y-68526967D01*
X96990534Y-68677223D01*
X97108282Y-68762771D01*
X96410812Y-69460241D01*
X96410812Y-69460242D01*
X96451591Y-69496005D01*
X96704999Y-69665327D01*
X96705012Y-69665334D01*
X96978348Y-69800128D01*
X97266946Y-69898095D01*
X97266961Y-69898099D01*
X97565864Y-69957554D01*
X97565876Y-69957556D01*
X97870000Y-69977489D01*
X98174123Y-69957556D01*
X98174135Y-69957554D01*
X98473038Y-69898099D01*
X98473053Y-69898095D01*
X98761651Y-69800128D01*
X99034987Y-69665334D01*
X99035000Y-69665327D01*
X99288406Y-69496006D01*
X99288410Y-69496003D01*
X99329186Y-69460242D01*
X99329186Y-69460241D01*
X98631717Y-68762772D01*
X98749466Y-68677223D01*
X98899722Y-68526967D01*
X98985271Y-68409218D01*
X99682740Y-69106687D01*
X99682741Y-69106687D01*
X99718502Y-69065911D01*
X99718505Y-69065907D01*
X99887826Y-68812501D01*
X99887833Y-68812488D01*
X100022627Y-68539152D01*
X100120594Y-68250554D01*
X100120598Y-68250539D01*
X100180053Y-67951636D01*
X100180055Y-67951624D01*
X100199988Y-67647501D01*
X100180055Y-67343377D01*
X100180053Y-67343365D01*
X100120598Y-67044462D01*
X100120594Y-67044447D01*
X100022627Y-66755849D01*
X99887829Y-66482505D01*
X99718504Y-66229092D01*
X99682741Y-66188313D01*
X99682740Y-66188313D01*
X98985270Y-66885782D01*
X98899722Y-66768035D01*
X98749466Y-66617779D01*
X98631716Y-66532229D01*
X99329186Y-65834759D01*
X99329186Y-65834757D01*
X99310341Y-65818231D01*
X102844500Y-65818231D01*
X102844500Y-69476770D01*
X102847353Y-69507200D01*
X102847353Y-69507202D01*
X102892206Y-69635381D01*
X102892207Y-69635383D01*
X102972850Y-69744651D01*
X103082118Y-69825294D01*
X103124845Y-69840245D01*
X103210299Y-69870147D01*
X103240730Y-69873001D01*
X103240734Y-69873001D01*
X106899270Y-69873001D01*
X106929699Y-69870147D01*
X106929701Y-69870147D01*
X106993790Y-69847720D01*
X107057882Y-69825294D01*
X107167150Y-69744651D01*
X107247793Y-69635383D01*
X107270219Y-69571291D01*
X107292646Y-69507202D01*
X107292646Y-69507200D01*
X107295500Y-69476770D01*
X107295500Y-65818231D01*
X107292646Y-65787801D01*
X107292646Y-65787799D01*
X107247793Y-65659620D01*
X107247792Y-65659618D01*
X107167150Y-65550351D01*
X107057882Y-65469708D01*
X107057880Y-65469707D01*
X106929700Y-65424854D01*
X106899270Y-65422001D01*
X106899266Y-65422001D01*
X105644500Y-65422001D01*
X105577461Y-65402316D01*
X105531706Y-65349512D01*
X105520500Y-65298001D01*
X105520500Y-61746039D01*
X105540185Y-61679000D01*
X105556819Y-61658358D01*
X106079139Y-61136038D01*
X106679030Y-60536146D01*
X106740351Y-60502663D01*
X106810043Y-60507647D01*
X106865976Y-60549519D01*
X106890393Y-60614983D01*
X106875541Y-60683256D01*
X106872437Y-60688618D01*
X106745290Y-60896103D01*
X106645906Y-61136038D01*
X106645901Y-61136055D01*
X106585274Y-61388588D01*
X106564898Y-61647501D01*
X106585274Y-61906413D01*
X106645901Y-62158946D01*
X106645906Y-62158963D01*
X106745290Y-62398898D01*
X106745292Y-62398901D01*
X106880993Y-62620345D01*
X106886801Y-62627145D01*
X107429521Y-62084424D01*
X107520924Y-62221218D01*
X107646283Y-62346577D01*
X107783075Y-62437978D01*
X107240355Y-62980698D01*
X107247155Y-62986506D01*
X107468599Y-63122208D01*
X107468602Y-63122210D01*
X107708537Y-63221594D01*
X107708554Y-63221599D01*
X107961088Y-63282226D01*
X107961087Y-63282226D01*
X108220000Y-63302602D01*
X108478912Y-63282226D01*
X108731445Y-63221599D01*
X108731462Y-63221594D01*
X108971397Y-63122210D01*
X108971400Y-63122208D01*
X109192841Y-62986508D01*
X109192851Y-62986501D01*
X109199643Y-62980699D01*
X109199643Y-62980698D01*
X108656923Y-62437978D01*
X108793717Y-62346577D01*
X108919076Y-62221218D01*
X109010477Y-62084424D01*
X109553197Y-62627144D01*
X109553198Y-62627144D01*
X109559000Y-62620352D01*
X109559007Y-62620342D01*
X109694707Y-62398901D01*
X109694709Y-62398898D01*
X109794093Y-62158963D01*
X109794098Y-62158946D01*
X109854725Y-61906413D01*
X109875101Y-61647501D01*
X109854725Y-61388588D01*
X109794098Y-61136055D01*
X109794093Y-61136038D01*
X109694709Y-60896103D01*
X109694707Y-60896100D01*
X109559005Y-60674656D01*
X109553197Y-60667856D01*
X109010477Y-61210576D01*
X108919076Y-61073784D01*
X108793717Y-60948425D01*
X108656923Y-60857022D01*
X109199644Y-60314302D01*
X109192844Y-60308494D01*
X108971400Y-60172793D01*
X108971397Y-60172791D01*
X108731462Y-60073407D01*
X108731445Y-60073402D01*
X108478911Y-60012775D01*
X108478912Y-60012775D01*
X108220000Y-59992399D01*
X107961087Y-60012775D01*
X107708554Y-60073402D01*
X107708537Y-60073407D01*
X107468602Y-60172791D01*
X107261117Y-60299938D01*
X107193672Y-60318182D01*
X107127069Y-60297065D01*
X107082456Y-60243293D01*
X107073996Y-60173938D01*
X107104376Y-60111018D01*
X107108627Y-60106549D01*
X108949332Y-58265844D01*
X110978259Y-58265844D01*
X110997575Y-58461973D01*
X111054788Y-58650577D01*
X111147686Y-58824376D01*
X111147690Y-58824383D01*
X111272716Y-58976727D01*
X111425060Y-59101753D01*
X111425067Y-59101757D01*
X111598866Y-59194655D01*
X111598869Y-59194655D01*
X111598873Y-59194658D01*
X111787468Y-59251868D01*
X111983600Y-59271185D01*
X112179732Y-59251868D01*
X112225837Y-59237881D01*
X112295703Y-59237257D01*
X112349514Y-59268861D01*
X132883181Y-79802528D01*
X132916666Y-79863851D01*
X132919500Y-79890209D01*
X132919500Y-122147035D01*
X132899815Y-122214074D01*
X132883181Y-122234716D01*
X121995125Y-133122771D01*
X121974491Y-133139401D01*
X121971950Y-133141033D01*
X121971949Y-133141034D01*
X121942969Y-133174479D01*
X121936943Y-133180952D01*
X121909515Y-133208381D01*
X121909503Y-133208397D01*
X121907279Y-133212250D01*
X121893619Y-133231434D01*
X121887116Y-133238939D01*
X121887114Y-133238942D01*
X121871576Y-133272966D01*
X121866172Y-133283451D01*
X121850200Y-133311115D01*
X121847263Y-133322075D01*
X121840289Y-133341474D01*
X121833305Y-133356768D01*
X121833302Y-133356778D01*
X121828952Y-133387029D01*
X121825991Y-133401465D01*
X121819502Y-133425685D01*
X121819501Y-133425694D01*
X121819501Y-133443900D01*
X121818239Y-133461546D01*
X121814867Y-133485000D01*
X121818239Y-133508453D01*
X121819501Y-133526100D01*
X121819501Y-133544314D01*
X121825991Y-133568536D01*
X121828952Y-133582973D01*
X121833303Y-133613226D01*
X121833304Y-133613231D01*
X121840286Y-133628519D01*
X121847265Y-133647933D01*
X121850199Y-133658882D01*
X121850202Y-133658890D01*
X121866166Y-133686540D01*
X121871573Y-133697027D01*
X121887117Y-133731063D01*
X121887118Y-133731064D01*
X121893609Y-133738556D01*
X121907283Y-133757757D01*
X121909509Y-133761613D01*
X121909510Y-133761614D01*
X121909511Y-133761615D01*
X121936945Y-133789049D01*
X121942951Y-133795500D01*
X121971951Y-133828968D01*
X121974488Y-133830598D01*
X121986898Y-133840599D01*
X121986941Y-133840544D01*
X121993384Y-133845488D01*
X121993386Y-133845490D01*
X122032896Y-133868301D01*
X122037886Y-133871341D01*
X122080931Y-133899005D01*
X122080936Y-133899006D01*
X122080937Y-133899007D01*
X122082235Y-133899600D01*
X122091170Y-133902752D01*
X122096111Y-133904799D01*
X122096113Y-133904800D01*
X122096114Y-133904800D01*
X122096116Y-133904801D01*
X122146777Y-133918375D01*
X122149584Y-133919162D01*
X122205228Y-133935501D01*
X122334772Y-133935501D01*
X122390423Y-133919160D01*
X122393218Y-133918375D01*
X122443887Y-133904800D01*
X122443899Y-133904792D01*
X122448823Y-133902754D01*
X122457764Y-133899600D01*
X122459065Y-133899006D01*
X122459069Y-133899005D01*
X122502081Y-133871361D01*
X122507085Y-133868311D01*
X122546614Y-133845490D01*
X122546616Y-133845488D01*
X122553069Y-133840537D01*
X122553112Y-133840593D01*
X122565519Y-133830593D01*
X122568049Y-133828968D01*
X122597055Y-133795491D01*
X122603060Y-133789042D01*
X133730490Y-122661614D01*
X133789799Y-122558887D01*
X133820500Y-122444310D01*
X133820500Y-79592935D01*
X133789799Y-79478358D01*
X133789799Y-79478357D01*
X133730489Y-79375630D01*
X112986617Y-58631758D01*
X112953132Y-58570435D01*
X112955638Y-58508080D01*
X112969624Y-58461976D01*
X112969624Y-58461973D01*
X112988941Y-58265844D01*
X113518259Y-58265844D01*
X113537575Y-58461973D01*
X113594788Y-58650577D01*
X113687686Y-58824376D01*
X113687690Y-58824383D01*
X113812716Y-58976727D01*
X113965060Y-59101753D01*
X113965067Y-59101757D01*
X114138866Y-59194655D01*
X114138869Y-59194655D01*
X114138873Y-59194658D01*
X114327468Y-59251868D01*
X114523600Y-59271185D01*
X114719732Y-59251868D01*
X114908327Y-59194658D01*
X115082138Y-59101754D01*
X115234483Y-58976727D01*
X115359510Y-58824382D01*
X115452414Y-58650571D01*
X115509624Y-58461976D01*
X115528941Y-58265844D01*
X115509624Y-58069712D01*
X115452414Y-57881117D01*
X115452411Y-57881113D01*
X115452411Y-57881110D01*
X115359513Y-57707311D01*
X115359509Y-57707304D01*
X115234483Y-57554960D01*
X115082139Y-57429934D01*
X115082132Y-57429930D01*
X114908333Y-57337032D01*
X114908327Y-57337030D01*
X114719732Y-57279820D01*
X114719729Y-57279819D01*
X114523600Y-57260503D01*
X114327470Y-57279819D01*
X114138866Y-57337032D01*
X113965067Y-57429930D01*
X113965060Y-57429934D01*
X113812716Y-57554960D01*
X113687690Y-57707304D01*
X113687686Y-57707311D01*
X113594788Y-57881110D01*
X113537575Y-58069714D01*
X113518259Y-58265844D01*
X112988941Y-58265844D01*
X112969624Y-58069712D01*
X112912414Y-57881117D01*
X112912411Y-57881113D01*
X112912411Y-57881110D01*
X112819513Y-57707311D01*
X112819509Y-57707304D01*
X112694483Y-57554960D01*
X112542139Y-57429934D01*
X112542132Y-57429930D01*
X112368333Y-57337032D01*
X112368327Y-57337030D01*
X112179732Y-57279820D01*
X112179729Y-57279819D01*
X111983600Y-57260503D01*
X111787470Y-57279819D01*
X111598866Y-57337032D01*
X111425067Y-57429930D01*
X111425060Y-57429934D01*
X111272716Y-57554960D01*
X111147690Y-57707304D01*
X111147686Y-57707311D01*
X111054788Y-57881110D01*
X110997575Y-58069714D01*
X110978259Y-58265844D01*
X108949332Y-58265844D01*
X110953976Y-56261200D01*
X111015297Y-56227717D01*
X111084989Y-56232701D01*
X111140922Y-56274573D01*
X111144760Y-56279997D01*
X111147690Y-56284382D01*
X111272716Y-56436727D01*
X111425060Y-56561753D01*
X111425067Y-56561757D01*
X111598866Y-56654655D01*
X111598869Y-56654655D01*
X111598873Y-56654658D01*
X111787468Y-56711868D01*
X111983600Y-56731185D01*
X112179732Y-56711868D01*
X112368327Y-56654658D01*
X112542138Y-56561754D01*
X112694483Y-56436727D01*
X112819510Y-56284382D01*
X112912414Y-56110571D01*
X112969624Y-55921976D01*
X112988941Y-55725844D01*
X113518259Y-55725844D01*
X113537575Y-55921973D01*
X113594788Y-56110577D01*
X113687686Y-56284376D01*
X113687690Y-56284383D01*
X113812716Y-56436727D01*
X113965060Y-56561753D01*
X113965067Y-56561757D01*
X114138866Y-56654655D01*
X114138869Y-56654655D01*
X114138873Y-56654658D01*
X114327468Y-56711868D01*
X114523600Y-56731185D01*
X114719732Y-56711868D01*
X114908327Y-56654658D01*
X115082138Y-56561754D01*
X115234483Y-56436727D01*
X115359510Y-56284382D01*
X115452414Y-56110571D01*
X115509624Y-55921976D01*
X115528941Y-55725844D01*
X115509624Y-55529712D01*
X115452414Y-55341117D01*
X115452411Y-55341113D01*
X115452411Y-55341110D01*
X115359513Y-55167311D01*
X115359509Y-55167304D01*
X115234483Y-55014960D01*
X115082139Y-54889934D01*
X115082132Y-54889930D01*
X114998076Y-54845001D01*
X131714592Y-54845001D01*
X131734201Y-55131681D01*
X131792666Y-55413035D01*
X131792667Y-55413038D01*
X131888894Y-55683794D01*
X131888893Y-55683794D01*
X132021098Y-55938936D01*
X132186812Y-56173701D01*
X132237260Y-56227717D01*
X132382947Y-56383709D01*
X132605853Y-56565056D01*
X132753196Y-56654658D01*
X132851382Y-56714366D01*
X133038237Y-56795527D01*
X133114942Y-56828845D01*
X133391642Y-56906372D01*
X133641920Y-56940772D01*
X133676321Y-56945501D01*
X133676322Y-56945501D01*
X133963679Y-56945501D01*
X133994370Y-56941282D01*
X134248358Y-56906372D01*
X134525058Y-56828845D01*
X134638015Y-56779780D01*
X134788617Y-56714366D01*
X134788620Y-56714364D01*
X134788625Y-56714362D01*
X135034147Y-56565056D01*
X135257053Y-56383709D01*
X135453189Y-56173699D01*
X135618901Y-55938937D01*
X135751104Y-55683798D01*
X135847334Y-55413033D01*
X135905798Y-55131687D01*
X135925408Y-54845001D01*
X135905798Y-54558315D01*
X135847334Y-54276969D01*
X135751105Y-54006207D01*
X135751106Y-54006207D01*
X135618901Y-53751065D01*
X135453187Y-53516300D01*
X135374554Y-53432106D01*
X135257053Y-53306293D01*
X135034147Y-53124946D01*
X135034146Y-53124945D01*
X134788617Y-52975635D01*
X134525063Y-52861159D01*
X134525061Y-52861158D01*
X134525058Y-52861157D01*
X134395578Y-52824878D01*
X134248364Y-52783631D01*
X134248359Y-52783630D01*
X134248358Y-52783630D01*
X134106018Y-52764065D01*
X133963679Y-52744501D01*
X133963678Y-52744501D01*
X133676322Y-52744501D01*
X133676321Y-52744501D01*
X133391642Y-52783630D01*
X133391635Y-52783631D01*
X133183861Y-52841846D01*
X133114942Y-52861157D01*
X133114939Y-52861157D01*
X133114936Y-52861159D01*
X133114935Y-52861159D01*
X132851382Y-52975635D01*
X132605853Y-53124945D01*
X132382950Y-53306290D01*
X132186812Y-53516300D01*
X132021098Y-53751065D01*
X131888894Y-54006207D01*
X131792667Y-54276963D01*
X131792666Y-54276966D01*
X131734201Y-54558320D01*
X131714592Y-54845001D01*
X114998076Y-54845001D01*
X114908333Y-54797032D01*
X114908327Y-54797030D01*
X114719732Y-54739820D01*
X114719729Y-54739819D01*
X114523600Y-54720503D01*
X114327470Y-54739819D01*
X114138866Y-54797032D01*
X113965067Y-54889930D01*
X113965060Y-54889934D01*
X113812716Y-55014960D01*
X113687690Y-55167304D01*
X113687686Y-55167311D01*
X113594788Y-55341110D01*
X113537575Y-55529714D01*
X113518259Y-55725844D01*
X112988941Y-55725844D01*
X112969624Y-55529712D01*
X112912414Y-55341117D01*
X112912411Y-55341113D01*
X112912411Y-55341110D01*
X112819513Y-55167311D01*
X112819509Y-55167304D01*
X112694483Y-55014960D01*
X112542139Y-54889934D01*
X112542132Y-54889930D01*
X112368333Y-54797032D01*
X112368327Y-54797030D01*
X112179732Y-54739820D01*
X112179729Y-54739819D01*
X111983600Y-54720503D01*
X111787470Y-54739819D01*
X111598866Y-54797032D01*
X111425067Y-54889930D01*
X111425060Y-54889934D01*
X111272716Y-55014960D01*
X111147690Y-55167304D01*
X111124978Y-55209797D01*
X111076016Y-55259642D01*
X111015620Y-55275344D01*
X110792921Y-55275344D01*
X110702555Y-55299557D01*
X110702554Y-55299556D01*
X110678346Y-55306043D01*
X110678343Y-55306044D01*
X110575616Y-55365355D01*
X110575613Y-55365357D01*
X104709513Y-61231457D01*
X104709509Y-61231463D01*
X104650201Y-61334186D01*
X104650200Y-61334191D01*
X104619500Y-61448765D01*
X104619500Y-65298001D01*
X104599815Y-65365040D01*
X104547011Y-65410795D01*
X104495500Y-65422001D01*
X103240730Y-65422001D01*
X103210300Y-65424854D01*
X103210298Y-65424854D01*
X103082119Y-65469707D01*
X103082117Y-65469708D01*
X102972850Y-65550351D01*
X102892207Y-65659618D01*
X102892206Y-65659620D01*
X102847353Y-65787799D01*
X102847353Y-65787801D01*
X102844500Y-65818231D01*
X99310341Y-65818231D01*
X99288408Y-65798997D01*
X99035000Y-65629674D01*
X99034987Y-65629667D01*
X98761651Y-65494873D01*
X98473053Y-65396906D01*
X98473038Y-65396902D01*
X98174135Y-65337447D01*
X98174123Y-65337445D01*
X97870000Y-65317512D01*
X97565876Y-65337445D01*
X97565864Y-65337447D01*
X97266961Y-65396902D01*
X97266946Y-65396906D01*
X96978348Y-65494873D01*
X96705004Y-65629671D01*
X96451594Y-65798994D01*
X96451588Y-65798999D01*
X96410812Y-65834757D01*
X96410812Y-65834760D01*
X97108282Y-66532229D01*
X96990534Y-66617779D01*
X96840278Y-66768035D01*
X96754729Y-66885783D01*
X96057259Y-66188313D01*
X96057256Y-66188313D01*
X96021498Y-66229089D01*
X96021493Y-66229095D01*
X95852170Y-66482505D01*
X95717372Y-66755849D01*
X95619405Y-67044447D01*
X95619401Y-67044462D01*
X95559946Y-67343365D01*
X95559944Y-67343377D01*
X95540011Y-67647501D01*
X39870500Y-67647501D01*
X39870500Y-61647501D01*
X93064898Y-61647501D01*
X93085274Y-61906413D01*
X93145901Y-62158946D01*
X93145906Y-62158963D01*
X93245290Y-62398898D01*
X93245292Y-62398901D01*
X93380993Y-62620345D01*
X93386801Y-62627145D01*
X93929521Y-62084424D01*
X94020924Y-62221218D01*
X94146283Y-62346577D01*
X94283075Y-62437978D01*
X93740355Y-62980698D01*
X93747155Y-62986506D01*
X93968599Y-63122208D01*
X93968602Y-63122210D01*
X94208537Y-63221594D01*
X94208554Y-63221599D01*
X94461088Y-63282226D01*
X94461087Y-63282226D01*
X94720000Y-63302602D01*
X94978912Y-63282226D01*
X95231445Y-63221599D01*
X95231462Y-63221594D01*
X95471397Y-63122210D01*
X95471400Y-63122208D01*
X95692841Y-62986508D01*
X95692851Y-62986501D01*
X95699643Y-62980699D01*
X95699643Y-62980698D01*
X95156923Y-62437978D01*
X95293717Y-62346577D01*
X95419076Y-62221218D01*
X95510477Y-62084424D01*
X96053197Y-62627144D01*
X96053198Y-62627144D01*
X96059000Y-62620352D01*
X96059007Y-62620342D01*
X96194707Y-62398901D01*
X96194709Y-62398898D01*
X96294093Y-62158963D01*
X96294098Y-62158946D01*
X96354725Y-61906413D01*
X96375101Y-61647501D01*
X96354725Y-61388588D01*
X96294098Y-61136055D01*
X96294093Y-61136038D01*
X96194709Y-60896103D01*
X96194707Y-60896100D01*
X96059005Y-60674656D01*
X96053197Y-60667856D01*
X95510477Y-61210576D01*
X95419076Y-61073784D01*
X95293717Y-60948425D01*
X95156924Y-60857023D01*
X95699644Y-60314302D01*
X95692844Y-60308494D01*
X95471400Y-60172793D01*
X95471397Y-60172791D01*
X95231462Y-60073407D01*
X95231445Y-60073402D01*
X94978911Y-60012775D01*
X94978912Y-60012775D01*
X94720000Y-59992399D01*
X94461087Y-60012775D01*
X94208554Y-60073402D01*
X94208537Y-60073407D01*
X93968602Y-60172791D01*
X93968599Y-60172793D01*
X93747157Y-60308493D01*
X93747156Y-60308494D01*
X93740355Y-60314302D01*
X94283076Y-60857023D01*
X94146283Y-60948425D01*
X94020924Y-61073784D01*
X93929522Y-61210577D01*
X93386801Y-60667856D01*
X93380993Y-60674657D01*
X93380992Y-60674658D01*
X93245292Y-60896100D01*
X93245290Y-60896103D01*
X93145906Y-61136038D01*
X93145901Y-61136055D01*
X93085274Y-61388588D01*
X93064898Y-61647501D01*
X39870500Y-61647501D01*
X39870500Y-54845001D01*
X42814592Y-54845001D01*
X42834201Y-55131681D01*
X42892666Y-55413035D01*
X42892667Y-55413038D01*
X42988894Y-55683794D01*
X42988893Y-55683794D01*
X43121098Y-55938936D01*
X43286812Y-56173701D01*
X43337260Y-56227717D01*
X43482947Y-56383709D01*
X43705853Y-56565056D01*
X43853196Y-56654658D01*
X43951382Y-56714366D01*
X44138237Y-56795527D01*
X44214942Y-56828845D01*
X44491642Y-56906372D01*
X44741920Y-56940772D01*
X44776321Y-56945501D01*
X44776322Y-56945501D01*
X45063679Y-56945501D01*
X45094370Y-56941282D01*
X45348358Y-56906372D01*
X45625058Y-56828845D01*
X45738015Y-56779780D01*
X45888617Y-56714366D01*
X45888620Y-56714364D01*
X45888625Y-56714362D01*
X46134147Y-56565056D01*
X46357053Y-56383709D01*
X46553189Y-56173699D01*
X46718901Y-55938937D01*
X46851104Y-55683798D01*
X46947334Y-55413033D01*
X47005798Y-55131687D01*
X47025408Y-54845001D01*
X47005798Y-54558315D01*
X46947334Y-54276969D01*
X46851105Y-54006207D01*
X46851106Y-54006207D01*
X46718901Y-53751065D01*
X46553187Y-53516300D01*
X46474554Y-53432106D01*
X46357053Y-53306293D01*
X46134147Y-53124946D01*
X46134146Y-53124945D01*
X45888617Y-52975635D01*
X45625063Y-52861159D01*
X45625061Y-52861158D01*
X45625058Y-52861157D01*
X45495578Y-52824878D01*
X45348364Y-52783631D01*
X45348359Y-52783630D01*
X45348358Y-52783630D01*
X45206018Y-52764065D01*
X45063679Y-52744501D01*
X45063678Y-52744501D01*
X44776322Y-52744501D01*
X44776321Y-52744501D01*
X44491642Y-52783630D01*
X44491635Y-52783631D01*
X44283861Y-52841846D01*
X44214942Y-52861157D01*
X44214939Y-52861157D01*
X44214936Y-52861159D01*
X44214935Y-52861159D01*
X43951382Y-52975635D01*
X43705853Y-53124945D01*
X43482950Y-53306290D01*
X43286812Y-53516300D01*
X43121098Y-53751065D01*
X42988894Y-54006207D01*
X42892667Y-54276963D01*
X42892666Y-54276966D01*
X42834201Y-54558320D01*
X42814592Y-54845001D01*
X39870500Y-54845001D01*
X39870500Y-51909501D01*
X39890185Y-51842462D01*
X39942989Y-51796707D01*
X39994500Y-51785501D01*
X138745500Y-51785501D01*
X138812539Y-51805186D01*
G37*
%TD.AperFunction*%
%TD*%
M02*
