%TF.GenerationSoftware,KiCad,Pcbnew,8.0.9-8.0.9-0~ubuntu24.04.1*%
%TF.CreationDate,2025-02-21T00:59:10+00:00*%
%TF.ProjectId,TPB,5450422e-6b69-4636-9164-5f7063625858,1.0.0*%
%TF.SameCoordinates,Original*%
%TF.FileFunction,Soldermask,Top*%
%TF.FilePolarity,Negative*%
%FSLAX46Y46*%
G04 Gerber Fmt 4.6, Leading zero omitted, Abs format (unit mm)*
G04 Created by KiCad (PCBNEW 8.0.9-8.0.9-0~ubuntu24.04.1) date 2025-02-21 00:59:10*
%MOMM*%
%LPD*%
G01*
G04 APERTURE LIST*
G04 Aperture macros list*
%AMRoundRect*
0 Rectangle with rounded corners*
0 $1 Rounding radius*
0 $2 $3 $4 $5 $6 $7 $8 $9 X,Y pos of 4 corners*
0 Add a 4 corners polygon primitive as box body*
4,1,4,$2,$3,$4,$5,$6,$7,$8,$9,$2,$3,0*
0 Add four circle primitives for the rounded corners*
1,1,$1+$1,$2,$3*
1,1,$1+$1,$4,$5*
1,1,$1+$1,$6,$7*
1,1,$1+$1,$8,$9*
0 Add four rect primitives between the rounded corners*
20,1,$1+$1,$2,$3,$4,$5,0*
20,1,$1+$1,$4,$5,$6,$7,0*
20,1,$1+$1,$6,$7,$8,$9,0*
20,1,$1+$1,$8,$9,$2,$3,0*%
G04 Aperture macros list end*
%ADD10RoundRect,0.244000X0.244000X0.269000X-0.244000X0.269000X-0.244000X-0.269000X0.244000X-0.269000X0*%
%ADD11RoundRect,0.260556X-1.027444X-0.677444X1.027444X-0.677444X1.027444X0.677444X-1.027444X0.677444X0*%
%ADD12RoundRect,0.244000X-0.244000X-0.269000X0.244000X-0.269000X0.244000X0.269000X-0.244000X0.269000X0*%
%ADD13RoundRect,0.250000X2.050000X0.300000X-2.050000X0.300000X-2.050000X-0.300000X2.050000X-0.300000X0*%
%ADD14RoundRect,0.250002X4.449998X5.149998X-4.449998X5.149998X-4.449998X-5.149998X4.449998X-5.149998X0*%
%ADD15RoundRect,0.250000X1.000000X-1.950000X1.000000X1.950000X-1.000000X1.950000X-1.000000X-1.950000X0*%
%ADD16RoundRect,0.244000X-0.269000X0.244000X-0.269000X-0.244000X0.269000X-0.244000X0.269000X0.244000X0*%
%ADD17RoundRect,0.267317X-0.280683X-0.470683X0.280683X-0.470683X0.280683X0.470683X-0.280683X0.470683X0*%
%ADD18C,2.850000*%
%ADD19RoundRect,0.249999X0.525001X0.525001X-0.525001X0.525001X-0.525001X-0.525001X0.525001X-0.525001X0*%
%ADD20C,1.550000*%
%ADD21RoundRect,0.250000X2.660000X-1.660000X2.660000X1.660000X-2.660000X1.660000X-2.660000X-1.660000X0*%
%ADD22RoundRect,0.219000X-0.219000X-0.294000X0.219000X-0.294000X0.219000X0.294000X-0.219000X0.294000X0*%
%ADD23C,2.700000*%
%ADD24RoundRect,0.250000X-1.775000X-1.775000X1.775000X-1.775000X1.775000X1.775000X-1.775000X1.775000X0*%
%ADD25C,4.050000*%
%ADD26C,1.600000*%
%ADD27RoundRect,0.219000X0.219000X0.294000X-0.219000X0.294000X-0.219000X-0.294000X0.219000X-0.294000X0*%
G04 APERTURE END LIST*
D10*
%TO.C,C400*%
X118610000Y-116285001D03*
X117050000Y-116285001D03*
%TD*%
D11*
%TO.C,D403*%
X123820000Y-107010001D03*
X127820000Y-107010001D03*
%TD*%
D12*
%TO.C,C419*%
X121595000Y-100400001D03*
X123155000Y-100400001D03*
%TD*%
D10*
%TO.C,C417*%
X119150000Y-128785001D03*
X117590000Y-128785001D03*
%TD*%
D13*
%TO.C,U401*%
X119095000Y-110410001D03*
X119095000Y-108710001D03*
X119095000Y-107010001D03*
D14*
X109945000Y-107010001D03*
D13*
X119095000Y-105310001D03*
X119095000Y-103610001D03*
%TD*%
D15*
%TO.C,C421*%
X119095000Y-97100001D03*
X119095000Y-88700001D03*
%TD*%
D16*
%TO.C,C418*%
X122820000Y-103005001D03*
X122820000Y-104565001D03*
%TD*%
D17*
%TO.C,R400*%
X118060000Y-55725844D03*
X119880000Y-55725844D03*
%TD*%
D18*
%TO.C,J200*%
X133820000Y-148515000D03*
X44920000Y-148515000D03*
D19*
X128740000Y-145975000D03*
D20*
X126200000Y-145975000D03*
X123660000Y-145975000D03*
X121120000Y-145975000D03*
X118580000Y-145975000D03*
X116040000Y-145975000D03*
X113500000Y-145975000D03*
X110960000Y-145975000D03*
X108420000Y-145975000D03*
X105880000Y-145975000D03*
X103340000Y-145975000D03*
X100800000Y-145975000D03*
X98260000Y-145975000D03*
X95720000Y-145975000D03*
X93180000Y-145975000D03*
X90640000Y-145975000D03*
X88100000Y-145975000D03*
X85560000Y-145975000D03*
X83020000Y-145975000D03*
X80480000Y-145975000D03*
X77940000Y-145975000D03*
X75400000Y-145975000D03*
X72860000Y-145975000D03*
X70320000Y-145975000D03*
X67780000Y-145975000D03*
X65240000Y-145975000D03*
X62700000Y-145975000D03*
X60160000Y-145975000D03*
X57620000Y-145975000D03*
X55080000Y-145975000D03*
X52540000Y-145975000D03*
X50000000Y-145975000D03*
X128740000Y-143435000D03*
X126200000Y-143435000D03*
X123660000Y-143435000D03*
X121120000Y-143435000D03*
X118580000Y-143435000D03*
X116040000Y-143435000D03*
X113500000Y-143435000D03*
X110960000Y-143435000D03*
X108420000Y-143435000D03*
X105880000Y-143435000D03*
X103340000Y-143435000D03*
X100800000Y-143435000D03*
X98260000Y-143435000D03*
X95720000Y-143435000D03*
X93180000Y-143435000D03*
X90640000Y-143435000D03*
X88100000Y-143435000D03*
X85560000Y-143435000D03*
X83020000Y-143435000D03*
X80480000Y-143435000D03*
X77940000Y-143435000D03*
X75400000Y-143435000D03*
X72860000Y-143435000D03*
X70320000Y-143435000D03*
X67780000Y-143435000D03*
X65240000Y-143435000D03*
X62700000Y-143435000D03*
X60160000Y-143435000D03*
X57620000Y-143435000D03*
X55080000Y-143435000D03*
X52540000Y-143435000D03*
X50000000Y-143435000D03*
X128740000Y-140895000D03*
X126200000Y-140895000D03*
X123660000Y-140895000D03*
X121120000Y-140895000D03*
X118580000Y-140895000D03*
X116040000Y-140895000D03*
X113500000Y-140895000D03*
X110960000Y-140895000D03*
X108420000Y-140895000D03*
X105880000Y-140895000D03*
X103340000Y-140895000D03*
X100800000Y-140895000D03*
X98260000Y-140895000D03*
X95720000Y-140895000D03*
X93180000Y-140895000D03*
X90640000Y-140895000D03*
X88100000Y-140895000D03*
X85560000Y-140895000D03*
X83020000Y-140895000D03*
X80480000Y-140895000D03*
X77940000Y-140895000D03*
X75400000Y-140895000D03*
X72860000Y-140895000D03*
X70320000Y-140895000D03*
X67780000Y-140895000D03*
X65240000Y-140895000D03*
X62700000Y-140895000D03*
X60160000Y-140895000D03*
X57620000Y-140895000D03*
X55080000Y-140895000D03*
X52540000Y-140895000D03*
X50000000Y-140895000D03*
%TD*%
D15*
%TO.C,C420*%
X121370000Y-126190001D03*
X121370000Y-118790001D03*
%TD*%
D21*
%TO.C,L400*%
X110095000Y-115830001D03*
X110095000Y-126190001D03*
%TD*%
D22*
%TO.C,R414*%
X117050000Y-113285001D03*
X118690000Y-113285001D03*
%TD*%
D23*
%TO.C,J400*%
X94720000Y-61647501D03*
X108220000Y-61647501D03*
D24*
X105070000Y-67647501D03*
D25*
X97870000Y-67647501D03*
%TD*%
D26*
%TO.C,LED400*%
X111983600Y-55725844D03*
X114523600Y-55725844D03*
X111983600Y-58265844D03*
X114523600Y-58265844D03*
%TD*%
D27*
%TO.C,R413*%
X118690000Y-114785001D03*
X117050000Y-114785001D03*
%TD*%
D17*
%TO.C,R401*%
X118060000Y-58265844D03*
X119880000Y-58265844D03*
%TD*%
M02*
