%TF.GenerationSoftware,KiCad,Pcbnew,8.0.9-8.0.9-0~ubuntu24.04.1*%
%TF.CreationDate,2025-02-20T23:41:23+00:00*%
%TF.ProjectId,TPB,5450422e-6b69-4636-9164-5f7063625858,1.0.0*%
%TF.SameCoordinates,Original*%
%TF.FileFunction,Legend,Top*%
%TF.FilePolarity,Positive*%
%FSLAX46Y46*%
G04 Gerber Fmt 4.6, Leading zero omitted, Abs format (unit mm)*
G04 Created by KiCad (PCBNEW 8.0.9-8.0.9-0~ubuntu24.04.1) date 2025-02-20 23:41:23*
%MOMM*%
%LPD*%
G01*
G04 APERTURE LIST*
%ADD10C,0.150000*%
%ADD11C,0.200000*%
%ADD12C,0.254000*%
%ADD13C,0.100000*%
%ADD14C,0.120000*%
%ADD15C,0.010000*%
G04 APERTURE END LIST*
D10*
X135460000Y-76075001D02*
X134960000Y-76075001D01*
X135460000Y-72595001D02*
X134960000Y-72595001D01*
X135460000Y-67895001D02*
X135460000Y-72595001D01*
X134960000Y-81305001D02*
X135460000Y-81305001D01*
X120460000Y-76405001D02*
X119960000Y-76405001D01*
X119960000Y-72595001D02*
X120460000Y-72595001D01*
X119960000Y-76075001D02*
X120460000Y-76075001D01*
X134960000Y-76405001D02*
X135460000Y-76405001D01*
X135460000Y-76405001D02*
X135460000Y-81005001D01*
X135460000Y-84305001D02*
X134960000Y-84305001D01*
X135460000Y-81005001D02*
X134960000Y-81005001D01*
X119960000Y-67895001D02*
X119960000Y-72595001D01*
X119960000Y-81005001D02*
X120460000Y-81005001D01*
X119960000Y-84305001D02*
X120460000Y-84305001D01*
X119960000Y-81305001D02*
X119960000Y-84305001D01*
X120460000Y-67895001D02*
X119960000Y-67895001D01*
X135460000Y-72925001D02*
X135460000Y-76075001D01*
X119960000Y-76405001D02*
X119960000Y-81005001D01*
X120460000Y-72925001D02*
X119960000Y-72925001D01*
X134960000Y-67895001D02*
X135460000Y-67895001D01*
X134960000Y-72925001D02*
X135460000Y-72925001D01*
X135460000Y-81305001D02*
X135460000Y-84305001D01*
X119960000Y-72925001D02*
X119960000Y-76075001D01*
X120460000Y-81305001D02*
X119960000Y-81305001D01*
D11*
X121055863Y-75772220D02*
X121627292Y-75772220D01*
X121216578Y-76772220D02*
X121341578Y-75772220D01*
X122222530Y-76724601D02*
X122121340Y-76772220D01*
X122121340Y-76772220D02*
X121930863Y-76772220D01*
X121930863Y-76772220D02*
X121841578Y-76724601D01*
X121841578Y-76724601D02*
X121805863Y-76629362D01*
X121805863Y-76629362D02*
X121853483Y-76248410D01*
X121853483Y-76248410D02*
X121913006Y-76153172D01*
X121913006Y-76153172D02*
X122014197Y-76105553D01*
X122014197Y-76105553D02*
X122204673Y-76105553D01*
X122204673Y-76105553D02*
X122293959Y-76153172D01*
X122293959Y-76153172D02*
X122329673Y-76248410D01*
X122329673Y-76248410D02*
X122317768Y-76343648D01*
X122317768Y-76343648D02*
X121829673Y-76438886D01*
X122692768Y-76772220D02*
X122776102Y-76105553D01*
X122764197Y-76200791D02*
X122817768Y-76153172D01*
X122817768Y-76153172D02*
X122918959Y-76105553D01*
X122918959Y-76105553D02*
X123061816Y-76105553D01*
X123061816Y-76105553D02*
X123151102Y-76153172D01*
X123151102Y-76153172D02*
X123186816Y-76248410D01*
X123186816Y-76248410D02*
X123121340Y-76772220D01*
X123186816Y-76248410D02*
X123246340Y-76153172D01*
X123246340Y-76153172D02*
X123347530Y-76105553D01*
X123347530Y-76105553D02*
X123490387Y-76105553D01*
X123490387Y-76105553D02*
X123579673Y-76153172D01*
X123579673Y-76153172D02*
X123615387Y-76248410D01*
X123615387Y-76248410D02*
X123549911Y-76772220D01*
X124109435Y-76105553D02*
X123984435Y-77105553D01*
X124103482Y-76153172D02*
X124204673Y-76105553D01*
X124204673Y-76105553D02*
X124395149Y-76105553D01*
X124395149Y-76105553D02*
X124484435Y-76153172D01*
X124484435Y-76153172D02*
X124526101Y-76200791D01*
X124526101Y-76200791D02*
X124561816Y-76296029D01*
X124561816Y-76296029D02*
X124526101Y-76581743D01*
X124526101Y-76581743D02*
X124466578Y-76676981D01*
X124466578Y-76676981D02*
X124413006Y-76724601D01*
X124413006Y-76724601D02*
X124311816Y-76772220D01*
X124311816Y-76772220D02*
X124121339Y-76772220D01*
X124121339Y-76772220D02*
X124032054Y-76724601D01*
X125073721Y-76772220D02*
X124984435Y-76724601D01*
X124984435Y-76724601D02*
X124948721Y-76629362D01*
X124948721Y-76629362D02*
X125055863Y-75772220D01*
X125883245Y-76772220D02*
X125948721Y-76248410D01*
X125948721Y-76248410D02*
X125913007Y-76153172D01*
X125913007Y-76153172D02*
X125823721Y-76105553D01*
X125823721Y-76105553D02*
X125633245Y-76105553D01*
X125633245Y-76105553D02*
X125532054Y-76153172D01*
X125889197Y-76724601D02*
X125788007Y-76772220D01*
X125788007Y-76772220D02*
X125549911Y-76772220D01*
X125549911Y-76772220D02*
X125460626Y-76724601D01*
X125460626Y-76724601D02*
X125424911Y-76629362D01*
X125424911Y-76629362D02*
X125436816Y-76534124D01*
X125436816Y-76534124D02*
X125496340Y-76438886D01*
X125496340Y-76438886D02*
X125597531Y-76391267D01*
X125597531Y-76391267D02*
X125835626Y-76391267D01*
X125835626Y-76391267D02*
X125936816Y-76343648D01*
X126299912Y-76105553D02*
X126680864Y-76105553D01*
X126484435Y-75772220D02*
X126377293Y-76629362D01*
X126377293Y-76629362D02*
X126413007Y-76724601D01*
X126413007Y-76724601D02*
X126502293Y-76772220D01*
X126502293Y-76772220D02*
X126597531Y-76772220D01*
X127317769Y-76724601D02*
X127216579Y-76772220D01*
X127216579Y-76772220D02*
X127026102Y-76772220D01*
X127026102Y-76772220D02*
X126936817Y-76724601D01*
X126936817Y-76724601D02*
X126901102Y-76629362D01*
X126901102Y-76629362D02*
X126948722Y-76248410D01*
X126948722Y-76248410D02*
X127008245Y-76153172D01*
X127008245Y-76153172D02*
X127109436Y-76105553D01*
X127109436Y-76105553D02*
X127299912Y-76105553D01*
X127299912Y-76105553D02*
X127389198Y-76153172D01*
X127389198Y-76153172D02*
X127424912Y-76248410D01*
X127424912Y-76248410D02*
X127413007Y-76343648D01*
X127413007Y-76343648D02*
X126924912Y-76438886D01*
X128978484Y-76772220D02*
X129043960Y-76248410D01*
X129043960Y-76248410D02*
X129008246Y-76153172D01*
X129008246Y-76153172D02*
X128918960Y-76105553D01*
X128918960Y-76105553D02*
X128728484Y-76105553D01*
X128728484Y-76105553D02*
X128627293Y-76153172D01*
X128984436Y-76724601D02*
X128883246Y-76772220D01*
X128883246Y-76772220D02*
X128645150Y-76772220D01*
X128645150Y-76772220D02*
X128555865Y-76724601D01*
X128555865Y-76724601D02*
X128520150Y-76629362D01*
X128520150Y-76629362D02*
X128532055Y-76534124D01*
X128532055Y-76534124D02*
X128591579Y-76438886D01*
X128591579Y-76438886D02*
X128692770Y-76391267D01*
X128692770Y-76391267D02*
X128930865Y-76391267D01*
X128930865Y-76391267D02*
X129032055Y-76343648D01*
X129966579Y-76105553D02*
X129883246Y-76772220D01*
X129538008Y-76105553D02*
X129472532Y-76629362D01*
X129472532Y-76629362D02*
X129508246Y-76724601D01*
X129508246Y-76724601D02*
X129597532Y-76772220D01*
X129597532Y-76772220D02*
X129740389Y-76772220D01*
X129740389Y-76772220D02*
X129841579Y-76724601D01*
X129841579Y-76724601D02*
X129895151Y-76676981D01*
X130299913Y-76105553D02*
X130680865Y-76105553D01*
X130484436Y-75772220D02*
X130377294Y-76629362D01*
X130377294Y-76629362D02*
X130413008Y-76724601D01*
X130413008Y-76724601D02*
X130502294Y-76772220D01*
X130502294Y-76772220D02*
X130597532Y-76772220D01*
X130930865Y-76772220D02*
X131055865Y-75772220D01*
X131359437Y-76772220D02*
X131424913Y-76248410D01*
X131424913Y-76248410D02*
X131389199Y-76153172D01*
X131389199Y-76153172D02*
X131299913Y-76105553D01*
X131299913Y-76105553D02*
X131157056Y-76105553D01*
X131157056Y-76105553D02*
X131055865Y-76153172D01*
X131055865Y-76153172D02*
X131002294Y-76200791D01*
X131978485Y-76772220D02*
X131889199Y-76724601D01*
X131889199Y-76724601D02*
X131847532Y-76676981D01*
X131847532Y-76676981D02*
X131811818Y-76581743D01*
X131811818Y-76581743D02*
X131847532Y-76296029D01*
X131847532Y-76296029D02*
X131907056Y-76200791D01*
X131907056Y-76200791D02*
X131960627Y-76153172D01*
X131960627Y-76153172D02*
X132061818Y-76105553D01*
X132061818Y-76105553D02*
X132204675Y-76105553D01*
X132204675Y-76105553D02*
X132293961Y-76153172D01*
X132293961Y-76153172D02*
X132335627Y-76200791D01*
X132335627Y-76200791D02*
X132371342Y-76296029D01*
X132371342Y-76296029D02*
X132335627Y-76581743D01*
X132335627Y-76581743D02*
X132276104Y-76676981D01*
X132276104Y-76676981D02*
X132222532Y-76724601D01*
X132222532Y-76724601D02*
X132121342Y-76772220D01*
X132121342Y-76772220D02*
X131978485Y-76772220D01*
X132740389Y-76772220D02*
X132823723Y-76105553D01*
X132799913Y-76296029D02*
X132859437Y-76200791D01*
X132859437Y-76200791D02*
X132913008Y-76153172D01*
X132913008Y-76153172D02*
X133014199Y-76105553D01*
X133014199Y-76105553D02*
X133109437Y-76105553D01*
X133317771Y-76724601D02*
X133407056Y-76772220D01*
X133407056Y-76772220D02*
X133597533Y-76772220D01*
X133597533Y-76772220D02*
X133698723Y-76724601D01*
X133698723Y-76724601D02*
X133758247Y-76629362D01*
X133758247Y-76629362D02*
X133764199Y-76581743D01*
X133764199Y-76581743D02*
X133728485Y-76486505D01*
X133728485Y-76486505D02*
X133639199Y-76438886D01*
X133639199Y-76438886D02*
X133496342Y-76438886D01*
X133496342Y-76438886D02*
X133407056Y-76391267D01*
X133407056Y-76391267D02*
X133371342Y-76296029D01*
X133371342Y-76296029D02*
X133377295Y-76248410D01*
X133377295Y-76248410D02*
X133436818Y-76153172D01*
X133436818Y-76153172D02*
X133538009Y-76105553D01*
X133538009Y-76105553D02*
X133680866Y-76105553D01*
X133680866Y-76105553D02*
X133770152Y-76153172D01*
X134180866Y-76676981D02*
X134222533Y-76724601D01*
X134222533Y-76724601D02*
X134168961Y-76772220D01*
X134168961Y-76772220D02*
X134127295Y-76724601D01*
X134127295Y-76724601D02*
X134180866Y-76676981D01*
X134180866Y-76676981D02*
X134168961Y-76772220D01*
X134246342Y-76153172D02*
X134288009Y-76200791D01*
X134288009Y-76200791D02*
X134234438Y-76248410D01*
X134234438Y-76248410D02*
X134192771Y-76200791D01*
X134192771Y-76200791D02*
X134246342Y-76153172D01*
X134246342Y-76153172D02*
X134234438Y-76248410D01*
D10*
X121436779Y-70094876D02*
X121436779Y-69094876D01*
X121436779Y-69094876D02*
X121817731Y-69094876D01*
X121817731Y-69094876D02*
X121912969Y-69142495D01*
X121912969Y-69142495D02*
X121960588Y-69190114D01*
X121960588Y-69190114D02*
X122008207Y-69285352D01*
X122008207Y-69285352D02*
X122008207Y-69428209D01*
X122008207Y-69428209D02*
X121960588Y-69523447D01*
X121960588Y-69523447D02*
X121912969Y-69571066D01*
X121912969Y-69571066D02*
X121817731Y-69618685D01*
X121817731Y-69618685D02*
X121436779Y-69618685D01*
X122579636Y-70094876D02*
X122484398Y-70047257D01*
X122484398Y-70047257D02*
X122436779Y-69999637D01*
X122436779Y-69999637D02*
X122389160Y-69904399D01*
X122389160Y-69904399D02*
X122389160Y-69618685D01*
X122389160Y-69618685D02*
X122436779Y-69523447D01*
X122436779Y-69523447D02*
X122484398Y-69475828D01*
X122484398Y-69475828D02*
X122579636Y-69428209D01*
X122579636Y-69428209D02*
X122722493Y-69428209D01*
X122722493Y-69428209D02*
X122817731Y-69475828D01*
X122817731Y-69475828D02*
X122865350Y-69523447D01*
X122865350Y-69523447D02*
X122912969Y-69618685D01*
X122912969Y-69618685D02*
X122912969Y-69904399D01*
X122912969Y-69904399D02*
X122865350Y-69999637D01*
X122865350Y-69999637D02*
X122817731Y-70047257D01*
X122817731Y-70047257D02*
X122722493Y-70094876D01*
X122722493Y-70094876D02*
X122579636Y-70094876D01*
X123246303Y-69428209D02*
X123436779Y-70094876D01*
X123436779Y-70094876D02*
X123627255Y-69618685D01*
X123627255Y-69618685D02*
X123817731Y-70094876D01*
X123817731Y-70094876D02*
X124008207Y-69428209D01*
X124770112Y-70047257D02*
X124674874Y-70094876D01*
X124674874Y-70094876D02*
X124484398Y-70094876D01*
X124484398Y-70094876D02*
X124389160Y-70047257D01*
X124389160Y-70047257D02*
X124341541Y-69952018D01*
X124341541Y-69952018D02*
X124341541Y-69571066D01*
X124341541Y-69571066D02*
X124389160Y-69475828D01*
X124389160Y-69475828D02*
X124484398Y-69428209D01*
X124484398Y-69428209D02*
X124674874Y-69428209D01*
X124674874Y-69428209D02*
X124770112Y-69475828D01*
X124770112Y-69475828D02*
X124817731Y-69571066D01*
X124817731Y-69571066D02*
X124817731Y-69666304D01*
X124817731Y-69666304D02*
X124341541Y-69761542D01*
X125246303Y-70094876D02*
X125246303Y-69428209D01*
X125246303Y-69618685D02*
X125293922Y-69523447D01*
X125293922Y-69523447D02*
X125341541Y-69475828D01*
X125341541Y-69475828D02*
X125436779Y-69428209D01*
X125436779Y-69428209D02*
X125532017Y-69428209D01*
X126627256Y-70094876D02*
X126627256Y-69094876D01*
X127103446Y-69428209D02*
X127103446Y-70094876D01*
X127103446Y-69523447D02*
X127151065Y-69475828D01*
X127151065Y-69475828D02*
X127246303Y-69428209D01*
X127246303Y-69428209D02*
X127389160Y-69428209D01*
X127389160Y-69428209D02*
X127484398Y-69475828D01*
X127484398Y-69475828D02*
X127532017Y-69571066D01*
X127532017Y-69571066D02*
X127532017Y-70094876D01*
X128008208Y-69428209D02*
X128008208Y-70285352D01*
X128008208Y-70285352D02*
X127960589Y-70380590D01*
X127960589Y-70380590D02*
X127865351Y-70428209D01*
X127865351Y-70428209D02*
X127817732Y-70428209D01*
X128008208Y-69094876D02*
X127960589Y-69142495D01*
X127960589Y-69142495D02*
X128008208Y-69190114D01*
X128008208Y-69190114D02*
X128055827Y-69142495D01*
X128055827Y-69142495D02*
X128008208Y-69094876D01*
X128008208Y-69094876D02*
X128008208Y-69190114D01*
X128865350Y-70047257D02*
X128770112Y-70094876D01*
X128770112Y-70094876D02*
X128579636Y-70094876D01*
X128579636Y-70094876D02*
X128484398Y-70047257D01*
X128484398Y-70047257D02*
X128436779Y-69952018D01*
X128436779Y-69952018D02*
X128436779Y-69571066D01*
X128436779Y-69571066D02*
X128484398Y-69475828D01*
X128484398Y-69475828D02*
X128579636Y-69428209D01*
X128579636Y-69428209D02*
X128770112Y-69428209D01*
X128770112Y-69428209D02*
X128865350Y-69475828D01*
X128865350Y-69475828D02*
X128912969Y-69571066D01*
X128912969Y-69571066D02*
X128912969Y-69666304D01*
X128912969Y-69666304D02*
X128436779Y-69761542D01*
X129770112Y-70047257D02*
X129674874Y-70094876D01*
X129674874Y-70094876D02*
X129484398Y-70094876D01*
X129484398Y-70094876D02*
X129389160Y-70047257D01*
X129389160Y-70047257D02*
X129341541Y-69999637D01*
X129341541Y-69999637D02*
X129293922Y-69904399D01*
X129293922Y-69904399D02*
X129293922Y-69618685D01*
X129293922Y-69618685D02*
X129341541Y-69523447D01*
X129341541Y-69523447D02*
X129389160Y-69475828D01*
X129389160Y-69475828D02*
X129484398Y-69428209D01*
X129484398Y-69428209D02*
X129674874Y-69428209D01*
X129674874Y-69428209D02*
X129770112Y-69475828D01*
X130055827Y-69428209D02*
X130436779Y-69428209D01*
X130198684Y-69094876D02*
X130198684Y-69952018D01*
X130198684Y-69952018D02*
X130246303Y-70047257D01*
X130246303Y-70047257D02*
X130341541Y-70094876D01*
X130341541Y-70094876D02*
X130436779Y-70094876D01*
X130912970Y-70094876D02*
X130817732Y-70047257D01*
X130817732Y-70047257D02*
X130770113Y-69999637D01*
X130770113Y-69999637D02*
X130722494Y-69904399D01*
X130722494Y-69904399D02*
X130722494Y-69618685D01*
X130722494Y-69618685D02*
X130770113Y-69523447D01*
X130770113Y-69523447D02*
X130817732Y-69475828D01*
X130817732Y-69475828D02*
X130912970Y-69428209D01*
X130912970Y-69428209D02*
X131055827Y-69428209D01*
X131055827Y-69428209D02*
X131151065Y-69475828D01*
X131151065Y-69475828D02*
X131198684Y-69523447D01*
X131198684Y-69523447D02*
X131246303Y-69618685D01*
X131246303Y-69618685D02*
X131246303Y-69904399D01*
X131246303Y-69904399D02*
X131198684Y-69999637D01*
X131198684Y-69999637D02*
X131151065Y-70047257D01*
X131151065Y-70047257D02*
X131055827Y-70094876D01*
X131055827Y-70094876D02*
X130912970Y-70094876D01*
X131674875Y-70094876D02*
X131674875Y-69428209D01*
X131674875Y-69618685D02*
X131722494Y-69523447D01*
X131722494Y-69523447D02*
X131770113Y-69475828D01*
X131770113Y-69475828D02*
X131865351Y-69428209D01*
X131865351Y-69428209D02*
X131960589Y-69428209D01*
X122008207Y-71704820D02*
X121674874Y-71228629D01*
X121436779Y-71704820D02*
X121436779Y-70704820D01*
X121436779Y-70704820D02*
X121817731Y-70704820D01*
X121817731Y-70704820D02*
X121912969Y-70752439D01*
X121912969Y-70752439D02*
X121960588Y-70800058D01*
X121960588Y-70800058D02*
X122008207Y-70895296D01*
X122008207Y-70895296D02*
X122008207Y-71038153D01*
X122008207Y-71038153D02*
X121960588Y-71133391D01*
X121960588Y-71133391D02*
X121912969Y-71181010D01*
X121912969Y-71181010D02*
X121817731Y-71228629D01*
X121817731Y-71228629D02*
X121436779Y-71228629D01*
X122817731Y-71657201D02*
X122722493Y-71704820D01*
X122722493Y-71704820D02*
X122532017Y-71704820D01*
X122532017Y-71704820D02*
X122436779Y-71657201D01*
X122436779Y-71657201D02*
X122389160Y-71561962D01*
X122389160Y-71561962D02*
X122389160Y-71181010D01*
X122389160Y-71181010D02*
X122436779Y-71085772D01*
X122436779Y-71085772D02*
X122532017Y-71038153D01*
X122532017Y-71038153D02*
X122722493Y-71038153D01*
X122722493Y-71038153D02*
X122817731Y-71085772D01*
X122817731Y-71085772D02*
X122865350Y-71181010D01*
X122865350Y-71181010D02*
X122865350Y-71276248D01*
X122865350Y-71276248D02*
X122389160Y-71371486D01*
X123198684Y-71038153D02*
X123436779Y-71704820D01*
X123436779Y-71704820D02*
X123674874Y-71038153D01*
X124055827Y-71609581D02*
X124103446Y-71657201D01*
X124103446Y-71657201D02*
X124055827Y-71704820D01*
X124055827Y-71704820D02*
X124008208Y-71657201D01*
X124008208Y-71657201D02*
X124055827Y-71609581D01*
X124055827Y-71609581D02*
X124055827Y-71704820D01*
X125817731Y-71704820D02*
X125246303Y-71704820D01*
X125532017Y-71704820D02*
X125532017Y-70704820D01*
X125532017Y-70704820D02*
X125436779Y-70847677D01*
X125436779Y-70847677D02*
X125341541Y-70942915D01*
X125341541Y-70942915D02*
X125246303Y-70990534D01*
X126246303Y-71609581D02*
X126293922Y-71657201D01*
X126293922Y-71657201D02*
X126246303Y-71704820D01*
X126246303Y-71704820D02*
X126198684Y-71657201D01*
X126198684Y-71657201D02*
X126246303Y-71609581D01*
X126246303Y-71609581D02*
X126246303Y-71704820D01*
X126912969Y-70704820D02*
X127008207Y-70704820D01*
X127008207Y-70704820D02*
X127103445Y-70752439D01*
X127103445Y-70752439D02*
X127151064Y-70800058D01*
X127151064Y-70800058D02*
X127198683Y-70895296D01*
X127198683Y-70895296D02*
X127246302Y-71085772D01*
X127246302Y-71085772D02*
X127246302Y-71323867D01*
X127246302Y-71323867D02*
X127198683Y-71514343D01*
X127198683Y-71514343D02*
X127151064Y-71609581D01*
X127151064Y-71609581D02*
X127103445Y-71657201D01*
X127103445Y-71657201D02*
X127008207Y-71704820D01*
X127008207Y-71704820D02*
X126912969Y-71704820D01*
X126912969Y-71704820D02*
X126817731Y-71657201D01*
X126817731Y-71657201D02*
X126770112Y-71609581D01*
X126770112Y-71609581D02*
X126722493Y-71514343D01*
X126722493Y-71514343D02*
X126674874Y-71323867D01*
X126674874Y-71323867D02*
X126674874Y-71085772D01*
X126674874Y-71085772D02*
X126722493Y-70895296D01*
X126722493Y-70895296D02*
X126770112Y-70800058D01*
X126770112Y-70800058D02*
X126817731Y-70752439D01*
X126817731Y-70752439D02*
X126912969Y-70704820D01*
X127674874Y-71609581D02*
X127722493Y-71657201D01*
X127722493Y-71657201D02*
X127674874Y-71704820D01*
X127674874Y-71704820D02*
X127627255Y-71657201D01*
X127627255Y-71657201D02*
X127674874Y-71609581D01*
X127674874Y-71609581D02*
X127674874Y-71704820D01*
X128341540Y-70704820D02*
X128436778Y-70704820D01*
X128436778Y-70704820D02*
X128532016Y-70752439D01*
X128532016Y-70752439D02*
X128579635Y-70800058D01*
X128579635Y-70800058D02*
X128627254Y-70895296D01*
X128627254Y-70895296D02*
X128674873Y-71085772D01*
X128674873Y-71085772D02*
X128674873Y-71323867D01*
X128674873Y-71323867D02*
X128627254Y-71514343D01*
X128627254Y-71514343D02*
X128579635Y-71609581D01*
X128579635Y-71609581D02*
X128532016Y-71657201D01*
X128532016Y-71657201D02*
X128436778Y-71704820D01*
X128436778Y-71704820D02*
X128341540Y-71704820D01*
X128341540Y-71704820D02*
X128246302Y-71657201D01*
X128246302Y-71657201D02*
X128198683Y-71609581D01*
X128198683Y-71609581D02*
X128151064Y-71514343D01*
X128151064Y-71514343D02*
X128103445Y-71323867D01*
X128103445Y-71323867D02*
X128103445Y-71085772D01*
X128103445Y-71085772D02*
X128151064Y-70895296D01*
X128151064Y-70895296D02*
X128198683Y-70800058D01*
X128198683Y-70800058D02*
X128246302Y-70752439D01*
X128246302Y-70752439D02*
X128341540Y-70704820D01*
D11*
X121073720Y-81722220D02*
X121198720Y-80722220D01*
X121198720Y-80722220D02*
X121436816Y-80722220D01*
X121436816Y-80722220D02*
X121573720Y-80769839D01*
X121573720Y-80769839D02*
X121657054Y-80865077D01*
X121657054Y-80865077D02*
X121692768Y-80960315D01*
X121692768Y-80960315D02*
X121716578Y-81150791D01*
X121716578Y-81150791D02*
X121698720Y-81293648D01*
X121698720Y-81293648D02*
X121627292Y-81484124D01*
X121627292Y-81484124D02*
X121567768Y-81579362D01*
X121567768Y-81579362D02*
X121460625Y-81674601D01*
X121460625Y-81674601D02*
X121311816Y-81722220D01*
X121311816Y-81722220D02*
X121073720Y-81722220D01*
X122502292Y-81722220D02*
X122567768Y-81198410D01*
X122567768Y-81198410D02*
X122532054Y-81103172D01*
X122532054Y-81103172D02*
X122442768Y-81055553D01*
X122442768Y-81055553D02*
X122252292Y-81055553D01*
X122252292Y-81055553D02*
X122151101Y-81103172D01*
X122508244Y-81674601D02*
X122407054Y-81722220D01*
X122407054Y-81722220D02*
X122168958Y-81722220D01*
X122168958Y-81722220D02*
X122079673Y-81674601D01*
X122079673Y-81674601D02*
X122043958Y-81579362D01*
X122043958Y-81579362D02*
X122055863Y-81484124D01*
X122055863Y-81484124D02*
X122115387Y-81388886D01*
X122115387Y-81388886D02*
X122216578Y-81341267D01*
X122216578Y-81341267D02*
X122454673Y-81341267D01*
X122454673Y-81341267D02*
X122555863Y-81293648D01*
X122918959Y-81055553D02*
X123299911Y-81055553D01*
X123103482Y-80722220D02*
X122996340Y-81579362D01*
X122996340Y-81579362D02*
X123032054Y-81674601D01*
X123032054Y-81674601D02*
X123121340Y-81722220D01*
X123121340Y-81722220D02*
X123216578Y-81722220D01*
X123936816Y-81674601D02*
X123835626Y-81722220D01*
X123835626Y-81722220D02*
X123645149Y-81722220D01*
X123645149Y-81722220D02*
X123555864Y-81674601D01*
X123555864Y-81674601D02*
X123520149Y-81579362D01*
X123520149Y-81579362D02*
X123567769Y-81198410D01*
X123567769Y-81198410D02*
X123627292Y-81103172D01*
X123627292Y-81103172D02*
X123728483Y-81055553D01*
X123728483Y-81055553D02*
X123918959Y-81055553D01*
X123918959Y-81055553D02*
X124008245Y-81103172D01*
X124008245Y-81103172D02*
X124043959Y-81198410D01*
X124043959Y-81198410D02*
X124032054Y-81293648D01*
X124032054Y-81293648D02*
X123543959Y-81388886D01*
X124418959Y-81626981D02*
X124460626Y-81674601D01*
X124460626Y-81674601D02*
X124407054Y-81722220D01*
X124407054Y-81722220D02*
X124365388Y-81674601D01*
X124365388Y-81674601D02*
X124418959Y-81626981D01*
X124418959Y-81626981D02*
X124407054Y-81722220D01*
X124484435Y-81103172D02*
X124526102Y-81150791D01*
X124526102Y-81150791D02*
X124472531Y-81198410D01*
X124472531Y-81198410D02*
X124430864Y-81150791D01*
X124430864Y-81150791D02*
X124484435Y-81103172D01*
X124484435Y-81103172D02*
X124472531Y-81198410D01*
X121073720Y-68262220D02*
X121198720Y-67262220D01*
X121198720Y-67262220D02*
X121442768Y-67976505D01*
X121442768Y-67976505D02*
X121865387Y-67262220D01*
X121865387Y-67262220D02*
X121740387Y-68262220D01*
X122359435Y-68262220D02*
X122270149Y-68214601D01*
X122270149Y-68214601D02*
X122228482Y-68166981D01*
X122228482Y-68166981D02*
X122192768Y-68071743D01*
X122192768Y-68071743D02*
X122228482Y-67786029D01*
X122228482Y-67786029D02*
X122288006Y-67690791D01*
X122288006Y-67690791D02*
X122341577Y-67643172D01*
X122341577Y-67643172D02*
X122442768Y-67595553D01*
X122442768Y-67595553D02*
X122585625Y-67595553D01*
X122585625Y-67595553D02*
X122674911Y-67643172D01*
X122674911Y-67643172D02*
X122716577Y-67690791D01*
X122716577Y-67690791D02*
X122752292Y-67786029D01*
X122752292Y-67786029D02*
X122716577Y-68071743D01*
X122716577Y-68071743D02*
X122657054Y-68166981D01*
X122657054Y-68166981D02*
X122603482Y-68214601D01*
X122603482Y-68214601D02*
X122502292Y-68262220D01*
X122502292Y-68262220D02*
X122359435Y-68262220D01*
X123549911Y-68262220D02*
X123674911Y-67262220D01*
X123555863Y-68214601D02*
X123454673Y-68262220D01*
X123454673Y-68262220D02*
X123264197Y-68262220D01*
X123264197Y-68262220D02*
X123174911Y-68214601D01*
X123174911Y-68214601D02*
X123133244Y-68166981D01*
X123133244Y-68166981D02*
X123097530Y-68071743D01*
X123097530Y-68071743D02*
X123133244Y-67786029D01*
X123133244Y-67786029D02*
X123192768Y-67690791D01*
X123192768Y-67690791D02*
X123246339Y-67643172D01*
X123246339Y-67643172D02*
X123347530Y-67595553D01*
X123347530Y-67595553D02*
X123538006Y-67595553D01*
X123538006Y-67595553D02*
X123627292Y-67643172D01*
X124538006Y-67595553D02*
X124454673Y-68262220D01*
X124109435Y-67595553D02*
X124043959Y-68119362D01*
X124043959Y-68119362D02*
X124079673Y-68214601D01*
X124079673Y-68214601D02*
X124168959Y-68262220D01*
X124168959Y-68262220D02*
X124311816Y-68262220D01*
X124311816Y-68262220D02*
X124413006Y-68214601D01*
X124413006Y-68214601D02*
X124466578Y-68166981D01*
X125514197Y-68166981D02*
X125460625Y-68214601D01*
X125460625Y-68214601D02*
X125311816Y-68262220D01*
X125311816Y-68262220D02*
X125216578Y-68262220D01*
X125216578Y-68262220D02*
X125079673Y-68214601D01*
X125079673Y-68214601D02*
X124996340Y-68119362D01*
X124996340Y-68119362D02*
X124960625Y-68024124D01*
X124960625Y-68024124D02*
X124936816Y-67833648D01*
X124936816Y-67833648D02*
X124954673Y-67690791D01*
X124954673Y-67690791D02*
X125026101Y-67500315D01*
X125026101Y-67500315D02*
X125085625Y-67405077D01*
X125085625Y-67405077D02*
X125192768Y-67309839D01*
X125192768Y-67309839D02*
X125341578Y-67262220D01*
X125341578Y-67262220D02*
X125436816Y-67262220D01*
X125436816Y-67262220D02*
X125573721Y-67309839D01*
X125573721Y-67309839D02*
X125615387Y-67357458D01*
X126359435Y-68262220D02*
X126424911Y-67738410D01*
X126424911Y-67738410D02*
X126389197Y-67643172D01*
X126389197Y-67643172D02*
X126299911Y-67595553D01*
X126299911Y-67595553D02*
X126109435Y-67595553D01*
X126109435Y-67595553D02*
X126008244Y-67643172D01*
X126365387Y-68214601D02*
X126264197Y-68262220D01*
X126264197Y-68262220D02*
X126026101Y-68262220D01*
X126026101Y-68262220D02*
X125936816Y-68214601D01*
X125936816Y-68214601D02*
X125901101Y-68119362D01*
X125901101Y-68119362D02*
X125913006Y-68024124D01*
X125913006Y-68024124D02*
X125972530Y-67928886D01*
X125972530Y-67928886D02*
X126073721Y-67881267D01*
X126073721Y-67881267D02*
X126311816Y-67881267D01*
X126311816Y-67881267D02*
X126413006Y-67833648D01*
X126835625Y-68262220D02*
X126918959Y-67595553D01*
X126895149Y-67786029D02*
X126954673Y-67690791D01*
X126954673Y-67690791D02*
X127008244Y-67643172D01*
X127008244Y-67643172D02*
X127109435Y-67595553D01*
X127109435Y-67595553D02*
X127204673Y-67595553D01*
X127883245Y-68262220D02*
X128008245Y-67262220D01*
X127889197Y-68214601D02*
X127788007Y-68262220D01*
X127788007Y-68262220D02*
X127597531Y-68262220D01*
X127597531Y-68262220D02*
X127508245Y-68214601D01*
X127508245Y-68214601D02*
X127466578Y-68166981D01*
X127466578Y-68166981D02*
X127430864Y-68071743D01*
X127430864Y-68071743D02*
X127466578Y-67786029D01*
X127466578Y-67786029D02*
X127526102Y-67690791D01*
X127526102Y-67690791D02*
X127579673Y-67643172D01*
X127579673Y-67643172D02*
X127680864Y-67595553D01*
X127680864Y-67595553D02*
X127871340Y-67595553D01*
X127871340Y-67595553D02*
X127960626Y-67643172D01*
X121073720Y-73342220D02*
X121198720Y-72342220D01*
X121198720Y-72342220D02*
X121579673Y-72342220D01*
X121579673Y-72342220D02*
X121668958Y-72389839D01*
X121668958Y-72389839D02*
X121710625Y-72437458D01*
X121710625Y-72437458D02*
X121746339Y-72532696D01*
X121746339Y-72532696D02*
X121728482Y-72675553D01*
X121728482Y-72675553D02*
X121668958Y-72770791D01*
X121668958Y-72770791D02*
X121615387Y-72818410D01*
X121615387Y-72818410D02*
X121514197Y-72866029D01*
X121514197Y-72866029D02*
X121133244Y-72866029D01*
X122073720Y-73342220D02*
X122157054Y-72675553D01*
X122133244Y-72866029D02*
X122192768Y-72770791D01*
X122192768Y-72770791D02*
X122246339Y-72723172D01*
X122246339Y-72723172D02*
X122347530Y-72675553D01*
X122347530Y-72675553D02*
X122442768Y-72675553D01*
X122835626Y-73342220D02*
X122746340Y-73294601D01*
X122746340Y-73294601D02*
X122704673Y-73246981D01*
X122704673Y-73246981D02*
X122668959Y-73151743D01*
X122668959Y-73151743D02*
X122704673Y-72866029D01*
X122704673Y-72866029D02*
X122764197Y-72770791D01*
X122764197Y-72770791D02*
X122817768Y-72723172D01*
X122817768Y-72723172D02*
X122918959Y-72675553D01*
X122918959Y-72675553D02*
X123061816Y-72675553D01*
X123061816Y-72675553D02*
X123151102Y-72723172D01*
X123151102Y-72723172D02*
X123192768Y-72770791D01*
X123192768Y-72770791D02*
X123228483Y-72866029D01*
X123228483Y-72866029D02*
X123192768Y-73151743D01*
X123192768Y-73151743D02*
X123133245Y-73246981D01*
X123133245Y-73246981D02*
X123079673Y-73294601D01*
X123079673Y-73294601D02*
X122978483Y-73342220D01*
X122978483Y-73342220D02*
X122835626Y-73342220D01*
X123680864Y-72675553D02*
X123573721Y-73532696D01*
X123573721Y-73532696D02*
X123514197Y-73627934D01*
X123514197Y-73627934D02*
X123413007Y-73675553D01*
X123413007Y-73675553D02*
X123365388Y-73675553D01*
X123722530Y-72342220D02*
X123668959Y-72389839D01*
X123668959Y-72389839D02*
X123710626Y-72437458D01*
X123710626Y-72437458D02*
X123764197Y-72389839D01*
X123764197Y-72389839D02*
X123722530Y-72342220D01*
X123722530Y-72342220D02*
X123710626Y-72437458D01*
X124460625Y-73294601D02*
X124359435Y-73342220D01*
X124359435Y-73342220D02*
X124168958Y-73342220D01*
X124168958Y-73342220D02*
X124079673Y-73294601D01*
X124079673Y-73294601D02*
X124043958Y-73199362D01*
X124043958Y-73199362D02*
X124091578Y-72818410D01*
X124091578Y-72818410D02*
X124151101Y-72723172D01*
X124151101Y-72723172D02*
X124252292Y-72675553D01*
X124252292Y-72675553D02*
X124442768Y-72675553D01*
X124442768Y-72675553D02*
X124532054Y-72723172D01*
X124532054Y-72723172D02*
X124567768Y-72818410D01*
X124567768Y-72818410D02*
X124555863Y-72913648D01*
X124555863Y-72913648D02*
X124067768Y-73008886D01*
X125365387Y-73294601D02*
X125264197Y-73342220D01*
X125264197Y-73342220D02*
X125073721Y-73342220D01*
X125073721Y-73342220D02*
X124984435Y-73294601D01*
X124984435Y-73294601D02*
X124942768Y-73246981D01*
X124942768Y-73246981D02*
X124907054Y-73151743D01*
X124907054Y-73151743D02*
X124942768Y-72866029D01*
X124942768Y-72866029D02*
X125002292Y-72770791D01*
X125002292Y-72770791D02*
X125055863Y-72723172D01*
X125055863Y-72723172D02*
X125157054Y-72675553D01*
X125157054Y-72675553D02*
X125347530Y-72675553D01*
X125347530Y-72675553D02*
X125436816Y-72723172D01*
X125728483Y-72675553D02*
X126109435Y-72675553D01*
X125913006Y-72342220D02*
X125805864Y-73199362D01*
X125805864Y-73199362D02*
X125841578Y-73294601D01*
X125841578Y-73294601D02*
X125930864Y-73342220D01*
X125930864Y-73342220D02*
X126026102Y-73342220D01*
X127549912Y-73342220D02*
X127615388Y-72818410D01*
X127615388Y-72818410D02*
X127579674Y-72723172D01*
X127579674Y-72723172D02*
X127490388Y-72675553D01*
X127490388Y-72675553D02*
X127299912Y-72675553D01*
X127299912Y-72675553D02*
X127198721Y-72723172D01*
X127555864Y-73294601D02*
X127454674Y-73342220D01*
X127454674Y-73342220D02*
X127216578Y-73342220D01*
X127216578Y-73342220D02*
X127127293Y-73294601D01*
X127127293Y-73294601D02*
X127091578Y-73199362D01*
X127091578Y-73199362D02*
X127103483Y-73104124D01*
X127103483Y-73104124D02*
X127163007Y-73008886D01*
X127163007Y-73008886D02*
X127264198Y-72961267D01*
X127264198Y-72961267D02*
X127502293Y-72961267D01*
X127502293Y-72961267D02*
X127603483Y-72913648D01*
X128538007Y-72675553D02*
X128454674Y-73342220D01*
X128109436Y-72675553D02*
X128043960Y-73199362D01*
X128043960Y-73199362D02*
X128079674Y-73294601D01*
X128079674Y-73294601D02*
X128168960Y-73342220D01*
X128168960Y-73342220D02*
X128311817Y-73342220D01*
X128311817Y-73342220D02*
X128413007Y-73294601D01*
X128413007Y-73294601D02*
X128466579Y-73246981D01*
X128871341Y-72675553D02*
X129252293Y-72675553D01*
X129055864Y-72342220D02*
X128948722Y-73199362D01*
X128948722Y-73199362D02*
X128984436Y-73294601D01*
X128984436Y-73294601D02*
X129073722Y-73342220D01*
X129073722Y-73342220D02*
X129168960Y-73342220D01*
X129502293Y-73342220D02*
X129627293Y-72342220D01*
X129930865Y-73342220D02*
X129996341Y-72818410D01*
X129996341Y-72818410D02*
X129960627Y-72723172D01*
X129960627Y-72723172D02*
X129871341Y-72675553D01*
X129871341Y-72675553D02*
X129728484Y-72675553D01*
X129728484Y-72675553D02*
X129627293Y-72723172D01*
X129627293Y-72723172D02*
X129573722Y-72770791D01*
X130549913Y-73342220D02*
X130460627Y-73294601D01*
X130460627Y-73294601D02*
X130418960Y-73246981D01*
X130418960Y-73246981D02*
X130383246Y-73151743D01*
X130383246Y-73151743D02*
X130418960Y-72866029D01*
X130418960Y-72866029D02*
X130478484Y-72770791D01*
X130478484Y-72770791D02*
X130532055Y-72723172D01*
X130532055Y-72723172D02*
X130633246Y-72675553D01*
X130633246Y-72675553D02*
X130776103Y-72675553D01*
X130776103Y-72675553D02*
X130865389Y-72723172D01*
X130865389Y-72723172D02*
X130907055Y-72770791D01*
X130907055Y-72770791D02*
X130942770Y-72866029D01*
X130942770Y-72866029D02*
X130907055Y-73151743D01*
X130907055Y-73151743D02*
X130847532Y-73246981D01*
X130847532Y-73246981D02*
X130793960Y-73294601D01*
X130793960Y-73294601D02*
X130692770Y-73342220D01*
X130692770Y-73342220D02*
X130549913Y-73342220D01*
X131311817Y-73342220D02*
X131395151Y-72675553D01*
X131371341Y-72866029D02*
X131430865Y-72770791D01*
X131430865Y-72770791D02*
X131484436Y-72723172D01*
X131484436Y-72723172D02*
X131585627Y-72675553D01*
X131585627Y-72675553D02*
X131680865Y-72675553D01*
X131942770Y-73246981D02*
X131984437Y-73294601D01*
X131984437Y-73294601D02*
X131930865Y-73342220D01*
X131930865Y-73342220D02*
X131889199Y-73294601D01*
X131889199Y-73294601D02*
X131942770Y-73246981D01*
X131942770Y-73246981D02*
X131930865Y-73342220D01*
X132008246Y-72723172D02*
X132049913Y-72770791D01*
X132049913Y-72770791D02*
X131996342Y-72818410D01*
X131996342Y-72818410D02*
X131954675Y-72770791D01*
X131954675Y-72770791D02*
X132008246Y-72723172D01*
X132008246Y-72723172D02*
X131996342Y-72818410D01*
D10*
X121746779Y-78364876D02*
X121746779Y-77364876D01*
X121746779Y-77364876D02*
X121984874Y-77364876D01*
X121984874Y-77364876D02*
X122127731Y-77412495D01*
X122127731Y-77412495D02*
X122222969Y-77507733D01*
X122222969Y-77507733D02*
X122270588Y-77602971D01*
X122270588Y-77602971D02*
X122318207Y-77793447D01*
X122318207Y-77793447D02*
X122318207Y-77936304D01*
X122318207Y-77936304D02*
X122270588Y-78126780D01*
X122270588Y-78126780D02*
X122222969Y-78222018D01*
X122222969Y-78222018D02*
X122127731Y-78317257D01*
X122127731Y-78317257D02*
X121984874Y-78364876D01*
X121984874Y-78364876D02*
X121746779Y-78364876D01*
X122889636Y-78364876D02*
X122794398Y-78317257D01*
X122794398Y-78317257D02*
X122746779Y-78269637D01*
X122746779Y-78269637D02*
X122699160Y-78174399D01*
X122699160Y-78174399D02*
X122699160Y-77888685D01*
X122699160Y-77888685D02*
X122746779Y-77793447D01*
X122746779Y-77793447D02*
X122794398Y-77745828D01*
X122794398Y-77745828D02*
X122889636Y-77698209D01*
X122889636Y-77698209D02*
X123032493Y-77698209D01*
X123032493Y-77698209D02*
X123127731Y-77745828D01*
X123127731Y-77745828D02*
X123175350Y-77793447D01*
X123175350Y-77793447D02*
X123222969Y-77888685D01*
X123222969Y-77888685D02*
X123222969Y-78174399D01*
X123222969Y-78174399D02*
X123175350Y-78269637D01*
X123175350Y-78269637D02*
X123127731Y-78317257D01*
X123127731Y-78317257D02*
X123032493Y-78364876D01*
X123032493Y-78364876D02*
X122889636Y-78364876D01*
X123651541Y-78364876D02*
X123651541Y-77698209D01*
X123651541Y-77793447D02*
X123699160Y-77745828D01*
X123699160Y-77745828D02*
X123794398Y-77698209D01*
X123794398Y-77698209D02*
X123937255Y-77698209D01*
X123937255Y-77698209D02*
X124032493Y-77745828D01*
X124032493Y-77745828D02*
X124080112Y-77841066D01*
X124080112Y-77841066D02*
X124080112Y-78364876D01*
X124080112Y-77841066D02*
X124127731Y-77745828D01*
X124127731Y-77745828D02*
X124222969Y-77698209D01*
X124222969Y-77698209D02*
X124365826Y-77698209D01*
X124365826Y-77698209D02*
X124461065Y-77745828D01*
X124461065Y-77745828D02*
X124508684Y-77841066D01*
X124508684Y-77841066D02*
X124508684Y-78364876D01*
X124984874Y-78364876D02*
X124984874Y-77698209D01*
X124984874Y-77364876D02*
X124937255Y-77412495D01*
X124937255Y-77412495D02*
X124984874Y-77460114D01*
X124984874Y-77460114D02*
X125032493Y-77412495D01*
X125032493Y-77412495D02*
X124984874Y-77364876D01*
X124984874Y-77364876D02*
X124984874Y-77460114D01*
X125461064Y-77698209D02*
X125461064Y-78364876D01*
X125461064Y-77793447D02*
X125508683Y-77745828D01*
X125508683Y-77745828D02*
X125603921Y-77698209D01*
X125603921Y-77698209D02*
X125746778Y-77698209D01*
X125746778Y-77698209D02*
X125842016Y-77745828D01*
X125842016Y-77745828D02*
X125889635Y-77841066D01*
X125889635Y-77841066D02*
X125889635Y-78364876D01*
X126365826Y-78364876D02*
X126365826Y-77698209D01*
X126365826Y-77364876D02*
X126318207Y-77412495D01*
X126318207Y-77412495D02*
X126365826Y-77460114D01*
X126365826Y-77460114D02*
X126413445Y-77412495D01*
X126413445Y-77412495D02*
X126365826Y-77364876D01*
X126365826Y-77364876D02*
X126365826Y-77460114D01*
X126842016Y-78364876D02*
X126842016Y-77364876D01*
X126937254Y-77983923D02*
X127222968Y-78364876D01*
X127222968Y-77698209D02*
X126842016Y-78079161D01*
X128413445Y-78364876D02*
X128413445Y-77364876D01*
X128413445Y-77364876D02*
X128794397Y-77364876D01*
X128794397Y-77364876D02*
X128889635Y-77412495D01*
X128889635Y-77412495D02*
X128937254Y-77460114D01*
X128937254Y-77460114D02*
X128984873Y-77555352D01*
X128984873Y-77555352D02*
X128984873Y-77698209D01*
X128984873Y-77698209D02*
X128937254Y-77793447D01*
X128937254Y-77793447D02*
X128889635Y-77841066D01*
X128889635Y-77841066D02*
X128794397Y-77888685D01*
X128794397Y-77888685D02*
X128413445Y-77888685D01*
X129556302Y-78364876D02*
X129461064Y-78317257D01*
X129461064Y-78317257D02*
X129413445Y-78222018D01*
X129413445Y-78222018D02*
X129413445Y-77364876D01*
X130365826Y-77698209D02*
X130365826Y-78364876D01*
X129937255Y-77698209D02*
X129937255Y-78222018D01*
X129937255Y-78222018D02*
X129984874Y-78317257D01*
X129984874Y-78317257D02*
X130080112Y-78364876D01*
X130080112Y-78364876D02*
X130222969Y-78364876D01*
X130222969Y-78364876D02*
X130318207Y-78317257D01*
X130318207Y-78317257D02*
X130365826Y-78269637D01*
X130699160Y-77698209D02*
X131080112Y-77698209D01*
X130842017Y-77364876D02*
X130842017Y-78222018D01*
X130842017Y-78222018D02*
X130889636Y-78317257D01*
X130889636Y-78317257D02*
X130984874Y-78364876D01*
X130984874Y-78364876D02*
X131080112Y-78364876D01*
X131842017Y-78364876D02*
X131842017Y-77841066D01*
X131842017Y-77841066D02*
X131794398Y-77745828D01*
X131794398Y-77745828D02*
X131699160Y-77698209D01*
X131699160Y-77698209D02*
X131508684Y-77698209D01*
X131508684Y-77698209D02*
X131413446Y-77745828D01*
X131842017Y-78317257D02*
X131746779Y-78364876D01*
X131746779Y-78364876D02*
X131508684Y-78364876D01*
X131508684Y-78364876D02*
X131413446Y-78317257D01*
X131413446Y-78317257D02*
X131365827Y-78222018D01*
X131365827Y-78222018D02*
X131365827Y-78126780D01*
X131365827Y-78126780D02*
X131413446Y-78031542D01*
X131413446Y-78031542D02*
X131508684Y-77983923D01*
X131508684Y-77983923D02*
X131746779Y-77983923D01*
X131746779Y-77983923D02*
X131842017Y-77936304D01*
X121699160Y-79689105D02*
X122175350Y-79689105D01*
X121603922Y-79974820D02*
X121937255Y-78974820D01*
X121937255Y-78974820D02*
X122270588Y-79974820D01*
X122603922Y-79974820D02*
X122603922Y-79308153D01*
X122603922Y-79498629D02*
X122651541Y-79403391D01*
X122651541Y-79403391D02*
X122699160Y-79355772D01*
X122699160Y-79355772D02*
X122794398Y-79308153D01*
X122794398Y-79308153D02*
X122889636Y-79308153D01*
X123080113Y-79308153D02*
X123461065Y-79308153D01*
X123222970Y-78974820D02*
X123222970Y-79831962D01*
X123222970Y-79831962D02*
X123270589Y-79927201D01*
X123270589Y-79927201D02*
X123365827Y-79974820D01*
X123365827Y-79974820D02*
X123461065Y-79974820D01*
X124175351Y-79927201D02*
X124080113Y-79974820D01*
X124080113Y-79974820D02*
X123889637Y-79974820D01*
X123889637Y-79974820D02*
X123794399Y-79927201D01*
X123794399Y-79927201D02*
X123746780Y-79831962D01*
X123746780Y-79831962D02*
X123746780Y-79451010D01*
X123746780Y-79451010D02*
X123794399Y-79355772D01*
X123794399Y-79355772D02*
X123889637Y-79308153D01*
X123889637Y-79308153D02*
X124080113Y-79308153D01*
X124080113Y-79308153D02*
X124175351Y-79355772D01*
X124175351Y-79355772D02*
X124222970Y-79451010D01*
X124222970Y-79451010D02*
X124222970Y-79546248D01*
X124222970Y-79546248D02*
X123746780Y-79641486D01*
X124651542Y-79974820D02*
X124651542Y-79308153D01*
X124651542Y-79403391D02*
X124699161Y-79355772D01*
X124699161Y-79355772D02*
X124794399Y-79308153D01*
X124794399Y-79308153D02*
X124937256Y-79308153D01*
X124937256Y-79308153D02*
X125032494Y-79355772D01*
X125032494Y-79355772D02*
X125080113Y-79451010D01*
X125080113Y-79451010D02*
X125080113Y-79974820D01*
X125080113Y-79451010D02*
X125127732Y-79355772D01*
X125127732Y-79355772D02*
X125222970Y-79308153D01*
X125222970Y-79308153D02*
X125365827Y-79308153D01*
X125365827Y-79308153D02*
X125461066Y-79355772D01*
X125461066Y-79355772D02*
X125508685Y-79451010D01*
X125508685Y-79451010D02*
X125508685Y-79974820D01*
X126746780Y-79974820D02*
X126746780Y-78974820D01*
X126746780Y-79451010D02*
X127318208Y-79451010D01*
X127318208Y-79974820D02*
X127318208Y-78974820D01*
X127937256Y-79974820D02*
X127842018Y-79927201D01*
X127842018Y-79927201D02*
X127794399Y-79879581D01*
X127794399Y-79879581D02*
X127746780Y-79784343D01*
X127746780Y-79784343D02*
X127746780Y-79498629D01*
X127746780Y-79498629D02*
X127794399Y-79403391D01*
X127794399Y-79403391D02*
X127842018Y-79355772D01*
X127842018Y-79355772D02*
X127937256Y-79308153D01*
X127937256Y-79308153D02*
X128080113Y-79308153D01*
X128080113Y-79308153D02*
X128175351Y-79355772D01*
X128175351Y-79355772D02*
X128222970Y-79403391D01*
X128222970Y-79403391D02*
X128270589Y-79498629D01*
X128270589Y-79498629D02*
X128270589Y-79784343D01*
X128270589Y-79784343D02*
X128222970Y-79879581D01*
X128222970Y-79879581D02*
X128175351Y-79927201D01*
X128175351Y-79927201D02*
X128080113Y-79974820D01*
X128080113Y-79974820D02*
X127937256Y-79974820D01*
X128699161Y-79974820D02*
X128699161Y-79308153D01*
X128699161Y-79498629D02*
X128746780Y-79403391D01*
X128746780Y-79403391D02*
X128794399Y-79355772D01*
X128794399Y-79355772D02*
X128889637Y-79308153D01*
X128889637Y-79308153D02*
X128984875Y-79308153D01*
X129318209Y-79974820D02*
X129318209Y-79308153D01*
X129318209Y-78974820D02*
X129270590Y-79022439D01*
X129270590Y-79022439D02*
X129318209Y-79070058D01*
X129318209Y-79070058D02*
X129365828Y-79022439D01*
X129365828Y-79022439D02*
X129318209Y-78974820D01*
X129318209Y-78974820D02*
X129318209Y-79070058D01*
X130222970Y-79308153D02*
X130222970Y-79974820D01*
X129794399Y-79308153D02*
X129794399Y-79831962D01*
X129794399Y-79831962D02*
X129842018Y-79927201D01*
X129842018Y-79927201D02*
X129937256Y-79974820D01*
X129937256Y-79974820D02*
X130080113Y-79974820D01*
X130080113Y-79974820D02*
X130175351Y-79927201D01*
X130175351Y-79927201D02*
X130222970Y-79879581D01*
X130699161Y-79308153D02*
X130699161Y-79974820D01*
X130699161Y-79403391D02*
X130746780Y-79355772D01*
X130746780Y-79355772D02*
X130842018Y-79308153D01*
X130842018Y-79308153D02*
X130984875Y-79308153D01*
X130984875Y-79308153D02*
X131080113Y-79355772D01*
X131080113Y-79355772D02*
X131127732Y-79451010D01*
X131127732Y-79451010D02*
X131127732Y-79974820D01*
X131746780Y-79974820D02*
X131651542Y-79927201D01*
X131651542Y-79927201D02*
X131603923Y-79879581D01*
X131603923Y-79879581D02*
X131556304Y-79784343D01*
X131556304Y-79784343D02*
X131556304Y-79498629D01*
X131556304Y-79498629D02*
X131603923Y-79403391D01*
X131603923Y-79403391D02*
X131651542Y-79355772D01*
X131651542Y-79355772D02*
X131746780Y-79308153D01*
X131746780Y-79308153D02*
X131889637Y-79308153D01*
X131889637Y-79308153D02*
X131984875Y-79355772D01*
X131984875Y-79355772D02*
X132032494Y-79403391D01*
X132032494Y-79403391D02*
X132080113Y-79498629D01*
X132080113Y-79498629D02*
X132080113Y-79784343D01*
X132080113Y-79784343D02*
X132032494Y-79879581D01*
X132032494Y-79879581D02*
X131984875Y-79927201D01*
X131984875Y-79927201D02*
X131889637Y-79974820D01*
X131889637Y-79974820D02*
X131746780Y-79974820D01*
X132413447Y-79308153D02*
X132651542Y-79974820D01*
X132651542Y-79974820D02*
X132889637Y-79308153D01*
X121596779Y-75044820D02*
X121596779Y-74044820D01*
X121596779Y-74044820D02*
X121930112Y-74759105D01*
X121930112Y-74759105D02*
X122263445Y-74044820D01*
X122263445Y-74044820D02*
X122263445Y-75044820D01*
X123168207Y-75044820D02*
X123168207Y-74521010D01*
X123168207Y-74521010D02*
X123120588Y-74425772D01*
X123120588Y-74425772D02*
X123025350Y-74378153D01*
X123025350Y-74378153D02*
X122834874Y-74378153D01*
X122834874Y-74378153D02*
X122739636Y-74425772D01*
X123168207Y-74997201D02*
X123072969Y-75044820D01*
X123072969Y-75044820D02*
X122834874Y-75044820D01*
X122834874Y-75044820D02*
X122739636Y-74997201D01*
X122739636Y-74997201D02*
X122692017Y-74901962D01*
X122692017Y-74901962D02*
X122692017Y-74806724D01*
X122692017Y-74806724D02*
X122739636Y-74711486D01*
X122739636Y-74711486D02*
X122834874Y-74663867D01*
X122834874Y-74663867D02*
X123072969Y-74663867D01*
X123072969Y-74663867D02*
X123168207Y-74616248D01*
X124072969Y-74997201D02*
X123977731Y-75044820D01*
X123977731Y-75044820D02*
X123787255Y-75044820D01*
X123787255Y-75044820D02*
X123692017Y-74997201D01*
X123692017Y-74997201D02*
X123644398Y-74949581D01*
X123644398Y-74949581D02*
X123596779Y-74854343D01*
X123596779Y-74854343D02*
X123596779Y-74568629D01*
X123596779Y-74568629D02*
X123644398Y-74473391D01*
X123644398Y-74473391D02*
X123692017Y-74425772D01*
X123692017Y-74425772D02*
X123787255Y-74378153D01*
X123787255Y-74378153D02*
X123977731Y-74378153D01*
X123977731Y-74378153D02*
X124072969Y-74425772D01*
X124501541Y-75044820D02*
X124501541Y-74378153D01*
X124501541Y-74044820D02*
X124453922Y-74092439D01*
X124453922Y-74092439D02*
X124501541Y-74140058D01*
X124501541Y-74140058D02*
X124549160Y-74092439D01*
X124549160Y-74092439D02*
X124501541Y-74044820D01*
X124501541Y-74044820D02*
X124501541Y-74140058D01*
X125358683Y-74997201D02*
X125263445Y-75044820D01*
X125263445Y-75044820D02*
X125072969Y-75044820D01*
X125072969Y-75044820D02*
X124977731Y-74997201D01*
X124977731Y-74997201D02*
X124930112Y-74901962D01*
X124930112Y-74901962D02*
X124930112Y-74521010D01*
X124930112Y-74521010D02*
X124977731Y-74425772D01*
X124977731Y-74425772D02*
X125072969Y-74378153D01*
X125072969Y-74378153D02*
X125263445Y-74378153D01*
X125263445Y-74378153D02*
X125358683Y-74425772D01*
X125358683Y-74425772D02*
X125406302Y-74521010D01*
X125406302Y-74521010D02*
X125406302Y-74616248D01*
X125406302Y-74616248D02*
X124930112Y-74711486D01*
X125834874Y-74378153D02*
X125834874Y-75235296D01*
X125834874Y-75235296D02*
X125787255Y-75330534D01*
X125787255Y-75330534D02*
X125692017Y-75378153D01*
X125692017Y-75378153D02*
X125644398Y-75378153D01*
X125834874Y-74044820D02*
X125787255Y-74092439D01*
X125787255Y-74092439D02*
X125834874Y-74140058D01*
X125834874Y-74140058D02*
X125882493Y-74092439D01*
X125882493Y-74092439D02*
X125834874Y-74044820D01*
X125834874Y-74044820D02*
X125834874Y-74140058D01*
X127644397Y-74949581D02*
X127596778Y-74997201D01*
X127596778Y-74997201D02*
X127453921Y-75044820D01*
X127453921Y-75044820D02*
X127358683Y-75044820D01*
X127358683Y-75044820D02*
X127215826Y-74997201D01*
X127215826Y-74997201D02*
X127120588Y-74901962D01*
X127120588Y-74901962D02*
X127072969Y-74806724D01*
X127072969Y-74806724D02*
X127025350Y-74616248D01*
X127025350Y-74616248D02*
X127025350Y-74473391D01*
X127025350Y-74473391D02*
X127072969Y-74282915D01*
X127072969Y-74282915D02*
X127120588Y-74187677D01*
X127120588Y-74187677D02*
X127215826Y-74092439D01*
X127215826Y-74092439D02*
X127358683Y-74044820D01*
X127358683Y-74044820D02*
X127453921Y-74044820D01*
X127453921Y-74044820D02*
X127596778Y-74092439D01*
X127596778Y-74092439D02*
X127644397Y-74140058D01*
X128072969Y-75044820D02*
X128072969Y-74044820D01*
X128501540Y-75044820D02*
X128501540Y-74521010D01*
X128501540Y-74521010D02*
X128453921Y-74425772D01*
X128453921Y-74425772D02*
X128358683Y-74378153D01*
X128358683Y-74378153D02*
X128215826Y-74378153D01*
X128215826Y-74378153D02*
X128120588Y-74425772D01*
X128120588Y-74425772D02*
X128072969Y-74473391D01*
X129120588Y-75044820D02*
X129025350Y-74997201D01*
X129025350Y-74997201D02*
X128977731Y-74949581D01*
X128977731Y-74949581D02*
X128930112Y-74854343D01*
X128930112Y-74854343D02*
X128930112Y-74568629D01*
X128930112Y-74568629D02*
X128977731Y-74473391D01*
X128977731Y-74473391D02*
X129025350Y-74425772D01*
X129025350Y-74425772D02*
X129120588Y-74378153D01*
X129120588Y-74378153D02*
X129263445Y-74378153D01*
X129263445Y-74378153D02*
X129358683Y-74425772D01*
X129358683Y-74425772D02*
X129406302Y-74473391D01*
X129406302Y-74473391D02*
X129453921Y-74568629D01*
X129453921Y-74568629D02*
X129453921Y-74854343D01*
X129453921Y-74854343D02*
X129406302Y-74949581D01*
X129406302Y-74949581D02*
X129358683Y-74997201D01*
X129358683Y-74997201D02*
X129263445Y-75044820D01*
X129263445Y-75044820D02*
X129120588Y-75044820D01*
X130311064Y-75044820D02*
X130311064Y-74044820D01*
X130311064Y-74997201D02*
X130215826Y-75044820D01*
X130215826Y-75044820D02*
X130025350Y-75044820D01*
X130025350Y-75044820D02*
X129930112Y-74997201D01*
X129930112Y-74997201D02*
X129882493Y-74949581D01*
X129882493Y-74949581D02*
X129834874Y-74854343D01*
X129834874Y-74854343D02*
X129834874Y-74568629D01*
X129834874Y-74568629D02*
X129882493Y-74473391D01*
X129882493Y-74473391D02*
X129930112Y-74425772D01*
X129930112Y-74425772D02*
X130025350Y-74378153D01*
X130025350Y-74378153D02*
X130215826Y-74378153D01*
X130215826Y-74378153D02*
X130311064Y-74425772D01*
X130930112Y-75044820D02*
X130834874Y-74997201D01*
X130834874Y-74997201D02*
X130787255Y-74949581D01*
X130787255Y-74949581D02*
X130739636Y-74854343D01*
X130739636Y-74854343D02*
X130739636Y-74568629D01*
X130739636Y-74568629D02*
X130787255Y-74473391D01*
X130787255Y-74473391D02*
X130834874Y-74425772D01*
X130834874Y-74425772D02*
X130930112Y-74378153D01*
X130930112Y-74378153D02*
X131072969Y-74378153D01*
X131072969Y-74378153D02*
X131168207Y-74425772D01*
X131168207Y-74425772D02*
X131215826Y-74473391D01*
X131215826Y-74473391D02*
X131263445Y-74568629D01*
X131263445Y-74568629D02*
X131263445Y-74854343D01*
X131263445Y-74854343D02*
X131215826Y-74949581D01*
X131215826Y-74949581D02*
X131168207Y-74997201D01*
X131168207Y-74997201D02*
X131072969Y-75044820D01*
X131072969Y-75044820D02*
X130930112Y-75044820D01*
X131596779Y-74378153D02*
X131787255Y-75044820D01*
X131787255Y-75044820D02*
X131977731Y-74568629D01*
X131977731Y-74568629D02*
X132168207Y-75044820D01*
X132168207Y-75044820D02*
X132358683Y-74378153D01*
X132739636Y-75044820D02*
X132739636Y-74378153D01*
X132739636Y-74044820D02*
X132692017Y-74092439D01*
X132692017Y-74092439D02*
X132739636Y-74140058D01*
X132739636Y-74140058D02*
X132787255Y-74092439D01*
X132787255Y-74092439D02*
X132739636Y-74044820D01*
X132739636Y-74044820D02*
X132739636Y-74140058D01*
X133596778Y-74997201D02*
X133501540Y-75044820D01*
X133501540Y-75044820D02*
X133311064Y-75044820D01*
X133311064Y-75044820D02*
X133215826Y-74997201D01*
X133215826Y-74997201D02*
X133168207Y-74901962D01*
X133168207Y-74901962D02*
X133168207Y-74521010D01*
X133168207Y-74521010D02*
X133215826Y-74425772D01*
X133215826Y-74425772D02*
X133311064Y-74378153D01*
X133311064Y-74378153D02*
X133501540Y-74378153D01*
X133501540Y-74378153D02*
X133596778Y-74425772D01*
X133596778Y-74425772D02*
X133644397Y-74521010D01*
X133644397Y-74521010D02*
X133644397Y-74616248D01*
X133644397Y-74616248D02*
X133168207Y-74711486D01*
X134501540Y-74997201D02*
X134406302Y-75044820D01*
X134406302Y-75044820D02*
X134215826Y-75044820D01*
X134215826Y-75044820D02*
X134120588Y-74997201D01*
X134120588Y-74997201D02*
X134072969Y-74949581D01*
X134072969Y-74949581D02*
X134025350Y-74854343D01*
X134025350Y-74854343D02*
X134025350Y-74568629D01*
X134025350Y-74568629D02*
X134072969Y-74473391D01*
X134072969Y-74473391D02*
X134120588Y-74425772D01*
X134120588Y-74425772D02*
X134215826Y-74378153D01*
X134215826Y-74378153D02*
X134406302Y-74378153D01*
X134406302Y-74378153D02*
X134501540Y-74425772D01*
X122237255Y-82674820D02*
X122332493Y-82674820D01*
X122332493Y-82674820D02*
X122427731Y-82722439D01*
X122427731Y-82722439D02*
X122475350Y-82770058D01*
X122475350Y-82770058D02*
X122522969Y-82865296D01*
X122522969Y-82865296D02*
X122570588Y-83055772D01*
X122570588Y-83055772D02*
X122570588Y-83293867D01*
X122570588Y-83293867D02*
X122522969Y-83484343D01*
X122522969Y-83484343D02*
X122475350Y-83579581D01*
X122475350Y-83579581D02*
X122427731Y-83627201D01*
X122427731Y-83627201D02*
X122332493Y-83674820D01*
X122332493Y-83674820D02*
X122237255Y-83674820D01*
X122237255Y-83674820D02*
X122142017Y-83627201D01*
X122142017Y-83627201D02*
X122094398Y-83579581D01*
X122094398Y-83579581D02*
X122046779Y-83484343D01*
X122046779Y-83484343D02*
X121999160Y-83293867D01*
X121999160Y-83293867D02*
X121999160Y-83055772D01*
X121999160Y-83055772D02*
X122046779Y-82865296D01*
X122046779Y-82865296D02*
X122094398Y-82770058D01*
X122094398Y-82770058D02*
X122142017Y-82722439D01*
X122142017Y-82722439D02*
X122237255Y-82674820D01*
X122951541Y-82770058D02*
X122999160Y-82722439D01*
X122999160Y-82722439D02*
X123094398Y-82674820D01*
X123094398Y-82674820D02*
X123332493Y-82674820D01*
X123332493Y-82674820D02*
X123427731Y-82722439D01*
X123427731Y-82722439D02*
X123475350Y-82770058D01*
X123475350Y-82770058D02*
X123522969Y-82865296D01*
X123522969Y-82865296D02*
X123522969Y-82960534D01*
X123522969Y-82960534D02*
X123475350Y-83103391D01*
X123475350Y-83103391D02*
X122903922Y-83674820D01*
X122903922Y-83674820D02*
X123522969Y-83674820D01*
X123951541Y-83579581D02*
X123999160Y-83627201D01*
X123999160Y-83627201D02*
X123951541Y-83674820D01*
X123951541Y-83674820D02*
X123903922Y-83627201D01*
X123903922Y-83627201D02*
X123951541Y-83579581D01*
X123951541Y-83579581D02*
X123951541Y-83674820D01*
X124380112Y-82770058D02*
X124427731Y-82722439D01*
X124427731Y-82722439D02*
X124522969Y-82674820D01*
X124522969Y-82674820D02*
X124761064Y-82674820D01*
X124761064Y-82674820D02*
X124856302Y-82722439D01*
X124856302Y-82722439D02*
X124903921Y-82770058D01*
X124903921Y-82770058D02*
X124951540Y-82865296D01*
X124951540Y-82865296D02*
X124951540Y-82960534D01*
X124951540Y-82960534D02*
X124903921Y-83103391D01*
X124903921Y-83103391D02*
X124332493Y-83674820D01*
X124332493Y-83674820D02*
X124951540Y-83674820D01*
X125570588Y-82674820D02*
X125665826Y-82674820D01*
X125665826Y-82674820D02*
X125761064Y-82722439D01*
X125761064Y-82722439D02*
X125808683Y-82770058D01*
X125808683Y-82770058D02*
X125856302Y-82865296D01*
X125856302Y-82865296D02*
X125903921Y-83055772D01*
X125903921Y-83055772D02*
X125903921Y-83293867D01*
X125903921Y-83293867D02*
X125856302Y-83484343D01*
X125856302Y-83484343D02*
X125808683Y-83579581D01*
X125808683Y-83579581D02*
X125761064Y-83627201D01*
X125761064Y-83627201D02*
X125665826Y-83674820D01*
X125665826Y-83674820D02*
X125570588Y-83674820D01*
X125570588Y-83674820D02*
X125475350Y-83627201D01*
X125475350Y-83627201D02*
X125427731Y-83579581D01*
X125427731Y-83579581D02*
X125380112Y-83484343D01*
X125380112Y-83484343D02*
X125332493Y-83293867D01*
X125332493Y-83293867D02*
X125332493Y-83055772D01*
X125332493Y-83055772D02*
X125380112Y-82865296D01*
X125380112Y-82865296D02*
X125427731Y-82770058D01*
X125427731Y-82770058D02*
X125475350Y-82722439D01*
X125475350Y-82722439D02*
X125570588Y-82674820D01*
X126284874Y-82770058D02*
X126332493Y-82722439D01*
X126332493Y-82722439D02*
X126427731Y-82674820D01*
X126427731Y-82674820D02*
X126665826Y-82674820D01*
X126665826Y-82674820D02*
X126761064Y-82722439D01*
X126761064Y-82722439D02*
X126808683Y-82770058D01*
X126808683Y-82770058D02*
X126856302Y-82865296D01*
X126856302Y-82865296D02*
X126856302Y-82960534D01*
X126856302Y-82960534D02*
X126808683Y-83103391D01*
X126808683Y-83103391D02*
X126237255Y-83674820D01*
X126237255Y-83674820D02*
X126856302Y-83674820D01*
X127761064Y-82674820D02*
X127284874Y-82674820D01*
X127284874Y-82674820D02*
X127237255Y-83151010D01*
X127237255Y-83151010D02*
X127284874Y-83103391D01*
X127284874Y-83103391D02*
X127380112Y-83055772D01*
X127380112Y-83055772D02*
X127618207Y-83055772D01*
X127618207Y-83055772D02*
X127713445Y-83103391D01*
X127713445Y-83103391D02*
X127761064Y-83151010D01*
X127761064Y-83151010D02*
X127808683Y-83246248D01*
X127808683Y-83246248D02*
X127808683Y-83484343D01*
X127808683Y-83484343D02*
X127761064Y-83579581D01*
X127761064Y-83579581D02*
X127713445Y-83627201D01*
X127713445Y-83627201D02*
X127618207Y-83674820D01*
X127618207Y-83674820D02*
X127380112Y-83674820D01*
X127380112Y-83674820D02*
X127284874Y-83627201D01*
X127284874Y-83627201D02*
X127237255Y-83579581D01*
X108355714Y-99939820D02*
X108355714Y-100749343D01*
X108355714Y-100749343D02*
X108403333Y-100844581D01*
X108403333Y-100844581D02*
X108450952Y-100892201D01*
X108450952Y-100892201D02*
X108546190Y-100939820D01*
X108546190Y-100939820D02*
X108736666Y-100939820D01*
X108736666Y-100939820D02*
X108831904Y-100892201D01*
X108831904Y-100892201D02*
X108879523Y-100844581D01*
X108879523Y-100844581D02*
X108927142Y-100749343D01*
X108927142Y-100749343D02*
X108927142Y-99939820D01*
X109831904Y-100273153D02*
X109831904Y-100939820D01*
X109593809Y-99892201D02*
X109355714Y-100606486D01*
X109355714Y-100606486D02*
X109974761Y-100606486D01*
X110546190Y-99939820D02*
X110641428Y-99939820D01*
X110641428Y-99939820D02*
X110736666Y-99987439D01*
X110736666Y-99987439D02*
X110784285Y-100035058D01*
X110784285Y-100035058D02*
X110831904Y-100130296D01*
X110831904Y-100130296D02*
X110879523Y-100320772D01*
X110879523Y-100320772D02*
X110879523Y-100558867D01*
X110879523Y-100558867D02*
X110831904Y-100749343D01*
X110831904Y-100749343D02*
X110784285Y-100844581D01*
X110784285Y-100844581D02*
X110736666Y-100892201D01*
X110736666Y-100892201D02*
X110641428Y-100939820D01*
X110641428Y-100939820D02*
X110546190Y-100939820D01*
X110546190Y-100939820D02*
X110450952Y-100892201D01*
X110450952Y-100892201D02*
X110403333Y-100844581D01*
X110403333Y-100844581D02*
X110355714Y-100749343D01*
X110355714Y-100749343D02*
X110308095Y-100558867D01*
X110308095Y-100558867D02*
X110308095Y-100320772D01*
X110308095Y-100320772D02*
X110355714Y-100130296D01*
X110355714Y-100130296D02*
X110403333Y-100035058D01*
X110403333Y-100035058D02*
X110450952Y-99987439D01*
X110450952Y-99987439D02*
X110546190Y-99939820D01*
X111831904Y-100939820D02*
X111260476Y-100939820D01*
X111546190Y-100939820D02*
X111546190Y-99939820D01*
X111546190Y-99939820D02*
X111450952Y-100082677D01*
X111450952Y-100082677D02*
X111355714Y-100177915D01*
X111355714Y-100177915D02*
X111260476Y-100225534D01*
X113154580Y-94019048D02*
X113202200Y-94066667D01*
X113202200Y-94066667D02*
X113249819Y-94209524D01*
X113249819Y-94209524D02*
X113249819Y-94304762D01*
X113249819Y-94304762D02*
X113202200Y-94447619D01*
X113202200Y-94447619D02*
X113106961Y-94542857D01*
X113106961Y-94542857D02*
X113011723Y-94590476D01*
X113011723Y-94590476D02*
X112821247Y-94638095D01*
X112821247Y-94638095D02*
X112678390Y-94638095D01*
X112678390Y-94638095D02*
X112487914Y-94590476D01*
X112487914Y-94590476D02*
X112392676Y-94542857D01*
X112392676Y-94542857D02*
X112297438Y-94447619D01*
X112297438Y-94447619D02*
X112249819Y-94304762D01*
X112249819Y-94304762D02*
X112249819Y-94209524D01*
X112249819Y-94209524D02*
X112297438Y-94066667D01*
X112297438Y-94066667D02*
X112345057Y-94019048D01*
X112583152Y-93161905D02*
X113249819Y-93161905D01*
X112202200Y-93400000D02*
X112916485Y-93638095D01*
X112916485Y-93638095D02*
X112916485Y-93019048D01*
X112345057Y-92685714D02*
X112297438Y-92638095D01*
X112297438Y-92638095D02*
X112249819Y-92542857D01*
X112249819Y-92542857D02*
X112249819Y-92304762D01*
X112249819Y-92304762D02*
X112297438Y-92209524D01*
X112297438Y-92209524D02*
X112345057Y-92161905D01*
X112345057Y-92161905D02*
X112440295Y-92114286D01*
X112440295Y-92114286D02*
X112535533Y-92114286D01*
X112535533Y-92114286D02*
X112678390Y-92161905D01*
X112678390Y-92161905D02*
X113249819Y-92733333D01*
X113249819Y-92733333D02*
X113249819Y-92114286D01*
X113249819Y-91161905D02*
X113249819Y-91733333D01*
X113249819Y-91447619D02*
X112249819Y-91447619D01*
X112249819Y-91447619D02*
X112392676Y-91542857D01*
X112392676Y-91542857D02*
X112487914Y-91638095D01*
X112487914Y-91638095D02*
X112535533Y-91733333D01*
X42464285Y-144229819D02*
X42464285Y-144944104D01*
X42464285Y-144944104D02*
X42416666Y-145086961D01*
X42416666Y-145086961D02*
X42321428Y-145182200D01*
X42321428Y-145182200D02*
X42178571Y-145229819D01*
X42178571Y-145229819D02*
X42083333Y-145229819D01*
X42892857Y-144325057D02*
X42940476Y-144277438D01*
X42940476Y-144277438D02*
X43035714Y-144229819D01*
X43035714Y-144229819D02*
X43273809Y-144229819D01*
X43273809Y-144229819D02*
X43369047Y-144277438D01*
X43369047Y-144277438D02*
X43416666Y-144325057D01*
X43416666Y-144325057D02*
X43464285Y-144420295D01*
X43464285Y-144420295D02*
X43464285Y-144515533D01*
X43464285Y-144515533D02*
X43416666Y-144658390D01*
X43416666Y-144658390D02*
X42845238Y-145229819D01*
X42845238Y-145229819D02*
X43464285Y-145229819D01*
X44083333Y-144229819D02*
X44178571Y-144229819D01*
X44178571Y-144229819D02*
X44273809Y-144277438D01*
X44273809Y-144277438D02*
X44321428Y-144325057D01*
X44321428Y-144325057D02*
X44369047Y-144420295D01*
X44369047Y-144420295D02*
X44416666Y-144610771D01*
X44416666Y-144610771D02*
X44416666Y-144848866D01*
X44416666Y-144848866D02*
X44369047Y-145039342D01*
X44369047Y-145039342D02*
X44321428Y-145134580D01*
X44321428Y-145134580D02*
X44273809Y-145182200D01*
X44273809Y-145182200D02*
X44178571Y-145229819D01*
X44178571Y-145229819D02*
X44083333Y-145229819D01*
X44083333Y-145229819D02*
X43988095Y-145182200D01*
X43988095Y-145182200D02*
X43940476Y-145134580D01*
X43940476Y-145134580D02*
X43892857Y-145039342D01*
X43892857Y-145039342D02*
X43845238Y-144848866D01*
X43845238Y-144848866D02*
X43845238Y-144610771D01*
X43845238Y-144610771D02*
X43892857Y-144420295D01*
X43892857Y-144420295D02*
X43940476Y-144325057D01*
X43940476Y-144325057D02*
X43988095Y-144277438D01*
X43988095Y-144277438D02*
X44083333Y-144229819D01*
X45035714Y-144229819D02*
X45130952Y-144229819D01*
X45130952Y-144229819D02*
X45226190Y-144277438D01*
X45226190Y-144277438D02*
X45273809Y-144325057D01*
X45273809Y-144325057D02*
X45321428Y-144420295D01*
X45321428Y-144420295D02*
X45369047Y-144610771D01*
X45369047Y-144610771D02*
X45369047Y-144848866D01*
X45369047Y-144848866D02*
X45321428Y-145039342D01*
X45321428Y-145039342D02*
X45273809Y-145134580D01*
X45273809Y-145134580D02*
X45226190Y-145182200D01*
X45226190Y-145182200D02*
X45130952Y-145229819D01*
X45130952Y-145229819D02*
X45035714Y-145229819D01*
X45035714Y-145229819D02*
X44940476Y-145182200D01*
X44940476Y-145182200D02*
X44892857Y-145134580D01*
X44892857Y-145134580D02*
X44845238Y-145039342D01*
X44845238Y-145039342D02*
X44797619Y-144848866D01*
X44797619Y-144848866D02*
X44797619Y-144610771D01*
X44797619Y-144610771D02*
X44845238Y-144420295D01*
X44845238Y-144420295D02*
X44892857Y-144325057D01*
X44892857Y-144325057D02*
X44940476Y-144277438D01*
X44940476Y-144277438D02*
X45035714Y-144229819D01*
X127229580Y-123404048D02*
X127277200Y-123451667D01*
X127277200Y-123451667D02*
X127324819Y-123594524D01*
X127324819Y-123594524D02*
X127324819Y-123689762D01*
X127324819Y-123689762D02*
X127277200Y-123832619D01*
X127277200Y-123832619D02*
X127181961Y-123927857D01*
X127181961Y-123927857D02*
X127086723Y-123975476D01*
X127086723Y-123975476D02*
X126896247Y-124023095D01*
X126896247Y-124023095D02*
X126753390Y-124023095D01*
X126753390Y-124023095D02*
X126562914Y-123975476D01*
X126562914Y-123975476D02*
X126467676Y-123927857D01*
X126467676Y-123927857D02*
X126372438Y-123832619D01*
X126372438Y-123832619D02*
X126324819Y-123689762D01*
X126324819Y-123689762D02*
X126324819Y-123594524D01*
X126324819Y-123594524D02*
X126372438Y-123451667D01*
X126372438Y-123451667D02*
X126420057Y-123404048D01*
X126658152Y-122546905D02*
X127324819Y-122546905D01*
X126277200Y-122785000D02*
X126991485Y-123023095D01*
X126991485Y-123023095D02*
X126991485Y-122404048D01*
X126420057Y-122070714D02*
X126372438Y-122023095D01*
X126372438Y-122023095D02*
X126324819Y-121927857D01*
X126324819Y-121927857D02*
X126324819Y-121689762D01*
X126324819Y-121689762D02*
X126372438Y-121594524D01*
X126372438Y-121594524D02*
X126420057Y-121546905D01*
X126420057Y-121546905D02*
X126515295Y-121499286D01*
X126515295Y-121499286D02*
X126610533Y-121499286D01*
X126610533Y-121499286D02*
X126753390Y-121546905D01*
X126753390Y-121546905D02*
X127324819Y-122118333D01*
X127324819Y-122118333D02*
X127324819Y-121499286D01*
X126324819Y-120880238D02*
X126324819Y-120785000D01*
X126324819Y-120785000D02*
X126372438Y-120689762D01*
X126372438Y-120689762D02*
X126420057Y-120642143D01*
X126420057Y-120642143D02*
X126515295Y-120594524D01*
X126515295Y-120594524D02*
X126705771Y-120546905D01*
X126705771Y-120546905D02*
X126943866Y-120546905D01*
X126943866Y-120546905D02*
X127134342Y-120594524D01*
X127134342Y-120594524D02*
X127229580Y-120642143D01*
X127229580Y-120642143D02*
X127277200Y-120689762D01*
X127277200Y-120689762D02*
X127324819Y-120785000D01*
X127324819Y-120785000D02*
X127324819Y-120880238D01*
X127324819Y-120880238D02*
X127277200Y-120975476D01*
X127277200Y-120975476D02*
X127229580Y-121023095D01*
X127229580Y-121023095D02*
X127134342Y-121070714D01*
X127134342Y-121070714D02*
X126943866Y-121118333D01*
X126943866Y-121118333D02*
X126705771Y-121118333D01*
X126705771Y-121118333D02*
X126515295Y-121070714D01*
X126515295Y-121070714D02*
X126420057Y-121023095D01*
X126420057Y-121023095D02*
X126372438Y-120975476D01*
X126372438Y-120975476D02*
X126324819Y-120880238D01*
D12*
X110837143Y-60951819D02*
X110837143Y-61858962D01*
X110837143Y-61858962D02*
X110776666Y-62040390D01*
X110776666Y-62040390D02*
X110655714Y-62161343D01*
X110655714Y-62161343D02*
X110474285Y-62221819D01*
X110474285Y-62221819D02*
X110353333Y-62221819D01*
X111986190Y-61375152D02*
X111986190Y-62221819D01*
X111683809Y-60891343D02*
X111381428Y-61798485D01*
X111381428Y-61798485D02*
X112167619Y-61798485D01*
X112893333Y-60951819D02*
X113014286Y-60951819D01*
X113014286Y-60951819D02*
X113135238Y-61012295D01*
X113135238Y-61012295D02*
X113195714Y-61072771D01*
X113195714Y-61072771D02*
X113256190Y-61193723D01*
X113256190Y-61193723D02*
X113316667Y-61435628D01*
X113316667Y-61435628D02*
X113316667Y-61738009D01*
X113316667Y-61738009D02*
X113256190Y-61979914D01*
X113256190Y-61979914D02*
X113195714Y-62100866D01*
X113195714Y-62100866D02*
X113135238Y-62161343D01*
X113135238Y-62161343D02*
X113014286Y-62221819D01*
X113014286Y-62221819D02*
X112893333Y-62221819D01*
X112893333Y-62221819D02*
X112772381Y-62161343D01*
X112772381Y-62161343D02*
X112711905Y-62100866D01*
X112711905Y-62100866D02*
X112651428Y-61979914D01*
X112651428Y-61979914D02*
X112590952Y-61738009D01*
X112590952Y-61738009D02*
X112590952Y-61435628D01*
X112590952Y-61435628D02*
X112651428Y-61193723D01*
X112651428Y-61193723D02*
X112711905Y-61072771D01*
X112711905Y-61072771D02*
X112772381Y-61012295D01*
X112772381Y-61012295D02*
X112893333Y-60951819D01*
X114102857Y-60951819D02*
X114223810Y-60951819D01*
X114223810Y-60951819D02*
X114344762Y-61012295D01*
X114344762Y-61012295D02*
X114405238Y-61072771D01*
X114405238Y-61072771D02*
X114465714Y-61193723D01*
X114465714Y-61193723D02*
X114526191Y-61435628D01*
X114526191Y-61435628D02*
X114526191Y-61738009D01*
X114526191Y-61738009D02*
X114465714Y-61979914D01*
X114465714Y-61979914D02*
X114405238Y-62100866D01*
X114405238Y-62100866D02*
X114344762Y-62161343D01*
X114344762Y-62161343D02*
X114223810Y-62221819D01*
X114223810Y-62221819D02*
X114102857Y-62221819D01*
X114102857Y-62221819D02*
X113981905Y-62161343D01*
X113981905Y-62161343D02*
X113921429Y-62100866D01*
X113921429Y-62100866D02*
X113860952Y-61979914D01*
X113860952Y-61979914D02*
X113800476Y-61738009D01*
X113800476Y-61738009D02*
X113800476Y-61435628D01*
X113800476Y-61435628D02*
X113860952Y-61193723D01*
X113860952Y-61193723D02*
X113921429Y-61072771D01*
X113921429Y-61072771D02*
X113981905Y-61012295D01*
X113981905Y-61012295D02*
X114102857Y-60951819D01*
D13*
X111512856Y-53090739D02*
X111131904Y-53090739D01*
X111131904Y-53090739D02*
X111131904Y-52290739D01*
X111779523Y-52671691D02*
X112046189Y-52671691D01*
X112160475Y-53090739D02*
X111779523Y-53090739D01*
X111779523Y-53090739D02*
X111779523Y-52290739D01*
X111779523Y-52290739D02*
X112160475Y-52290739D01*
X112503333Y-53090739D02*
X112503333Y-52290739D01*
X112503333Y-52290739D02*
X112693809Y-52290739D01*
X112693809Y-52290739D02*
X112808095Y-52328834D01*
X112808095Y-52328834D02*
X112884285Y-52405024D01*
X112884285Y-52405024D02*
X112922380Y-52481215D01*
X112922380Y-52481215D02*
X112960476Y-52633596D01*
X112960476Y-52633596D02*
X112960476Y-52747882D01*
X112960476Y-52747882D02*
X112922380Y-52900263D01*
X112922380Y-52900263D02*
X112884285Y-52976453D01*
X112884285Y-52976453D02*
X112808095Y-53052644D01*
X112808095Y-53052644D02*
X112693809Y-53090739D01*
X112693809Y-53090739D02*
X112503333Y-53090739D01*
X113646190Y-52557405D02*
X113646190Y-53090739D01*
X113455714Y-52252644D02*
X113265237Y-52824072D01*
X113265237Y-52824072D02*
X113760476Y-52824072D01*
X114217619Y-52290739D02*
X114293809Y-52290739D01*
X114293809Y-52290739D02*
X114370000Y-52328834D01*
X114370000Y-52328834D02*
X114408095Y-52366929D01*
X114408095Y-52366929D02*
X114446190Y-52443120D01*
X114446190Y-52443120D02*
X114484285Y-52595501D01*
X114484285Y-52595501D02*
X114484285Y-52785977D01*
X114484285Y-52785977D02*
X114446190Y-52938358D01*
X114446190Y-52938358D02*
X114408095Y-53014548D01*
X114408095Y-53014548D02*
X114370000Y-53052644D01*
X114370000Y-53052644D02*
X114293809Y-53090739D01*
X114293809Y-53090739D02*
X114217619Y-53090739D01*
X114217619Y-53090739D02*
X114141428Y-53052644D01*
X114141428Y-53052644D02*
X114103333Y-53014548D01*
X114103333Y-53014548D02*
X114065238Y-52938358D01*
X114065238Y-52938358D02*
X114027142Y-52785977D01*
X114027142Y-52785977D02*
X114027142Y-52595501D01*
X114027142Y-52595501D02*
X114065238Y-52443120D01*
X114065238Y-52443120D02*
X114103333Y-52366929D01*
X114103333Y-52366929D02*
X114141428Y-52328834D01*
X114141428Y-52328834D02*
X114217619Y-52290739D01*
X114979524Y-52290739D02*
X115055714Y-52290739D01*
X115055714Y-52290739D02*
X115131905Y-52328834D01*
X115131905Y-52328834D02*
X115170000Y-52366929D01*
X115170000Y-52366929D02*
X115208095Y-52443120D01*
X115208095Y-52443120D02*
X115246190Y-52595501D01*
X115246190Y-52595501D02*
X115246190Y-52785977D01*
X115246190Y-52785977D02*
X115208095Y-52938358D01*
X115208095Y-52938358D02*
X115170000Y-53014548D01*
X115170000Y-53014548D02*
X115131905Y-53052644D01*
X115131905Y-53052644D02*
X115055714Y-53090739D01*
X115055714Y-53090739D02*
X114979524Y-53090739D01*
X114979524Y-53090739D02*
X114903333Y-53052644D01*
X114903333Y-53052644D02*
X114865238Y-53014548D01*
X114865238Y-53014548D02*
X114827143Y-52938358D01*
X114827143Y-52938358D02*
X114789047Y-52785977D01*
X114789047Y-52785977D02*
X114789047Y-52595501D01*
X114789047Y-52595501D02*
X114827143Y-52443120D01*
X114827143Y-52443120D02*
X114865238Y-52366929D01*
X114865238Y-52366929D02*
X114903333Y-52328834D01*
X114903333Y-52328834D02*
X114979524Y-52290739D01*
X111326265Y-54417977D02*
X111935789Y-54417977D01*
X111631027Y-54722739D02*
X111631027Y-54113215D01*
X114626265Y-54417977D02*
X115235789Y-54417977D01*
D10*
%TO.C,D403*%
X122310000Y-105360001D02*
X122310000Y-108660001D01*
X122310000Y-105360001D02*
X127820000Y-105360001D01*
X122310000Y-108660001D02*
X127820000Y-108660001D01*
D14*
%TO.C,U401*%
X114905000Y-101810001D02*
X116270000Y-101810001D01*
X114905000Y-112210001D02*
X116270000Y-112210001D01*
X116270000Y-101810001D02*
X116270000Y-102760001D01*
X116270000Y-112210001D02*
X116270000Y-111260001D01*
X119435000Y-111690001D02*
X118755000Y-111690001D01*
X119095000Y-111220001D01*
X119435000Y-111690001D01*
G36*
X119435000Y-111690001D02*
G01*
X118755000Y-111690001D01*
X119095000Y-111220001D01*
X119435000Y-111690001D01*
G37*
D15*
%TO.C,REF\u002A\u002A*%
X134300807Y-65101783D02*
X134324161Y-65111989D01*
X134379902Y-65156135D01*
X134427569Y-65219968D01*
X134457048Y-65288088D01*
X134461846Y-65321671D01*
X134445760Y-65368557D01*
X134410475Y-65393366D01*
X134372644Y-65408388D01*
X134355321Y-65411156D01*
X134346886Y-65391067D01*
X134330230Y-65347352D01*
X134322923Y-65327599D01*
X134281948Y-65259272D01*
X134222622Y-65225192D01*
X134146552Y-65226240D01*
X134140918Y-65227582D01*
X134100305Y-65246837D01*
X134070448Y-65284376D01*
X134050055Y-65344810D01*
X134037836Y-65432752D01*
X134032500Y-65552814D01*
X134032000Y-65616699D01*
X134031752Y-65717404D01*
X134030126Y-65786055D01*
X134025801Y-65829674D01*
X134017454Y-65855283D01*
X134003765Y-65869904D01*
X133983411Y-65880559D01*
X133982234Y-65881096D01*
X133943038Y-65897668D01*
X133923619Y-65903770D01*
X133920635Y-65885320D01*
X133918081Y-65834324D01*
X133916140Y-65757309D01*
X133914997Y-65660806D01*
X133914769Y-65590185D01*
X133915932Y-65453526D01*
X133920479Y-65349852D01*
X133929999Y-65273109D01*
X133946081Y-65217247D01*
X133970313Y-65176213D01*
X134004286Y-65143955D01*
X134037833Y-65121441D01*
X134118499Y-65091477D01*
X134212381Y-65084719D01*
X134300807Y-65101783D01*
G36*
X134300807Y-65101783D02*
G01*
X134324161Y-65111989D01*
X134379902Y-65156135D01*
X134427569Y-65219968D01*
X134457048Y-65288088D01*
X134461846Y-65321671D01*
X134445760Y-65368557D01*
X134410475Y-65393366D01*
X134372644Y-65408388D01*
X134355321Y-65411156D01*
X134346886Y-65391067D01*
X134330230Y-65347352D01*
X134322923Y-65327599D01*
X134281948Y-65259272D01*
X134222622Y-65225192D01*
X134146552Y-65226240D01*
X134140918Y-65227582D01*
X134100305Y-65246837D01*
X134070448Y-65284376D01*
X134050055Y-65344810D01*
X134037836Y-65432752D01*
X134032500Y-65552814D01*
X134032000Y-65616699D01*
X134031752Y-65717404D01*
X134030126Y-65786055D01*
X134025801Y-65829674D01*
X134017454Y-65855283D01*
X134003765Y-65869904D01*
X133983411Y-65880559D01*
X133982234Y-65881096D01*
X133943038Y-65897668D01*
X133923619Y-65903770D01*
X133920635Y-65885320D01*
X133918081Y-65834324D01*
X133916140Y-65757309D01*
X133914997Y-65660806D01*
X133914769Y-65590185D01*
X133915932Y-65453526D01*
X133920479Y-65349852D01*
X133929999Y-65273109D01*
X133946081Y-65217247D01*
X133970313Y-65176213D01*
X134004286Y-65143955D01*
X134037833Y-65121441D01*
X134118499Y-65091477D01*
X134212381Y-65084719D01*
X134300807Y-65101783D01*
G37*
X129001664Y-65060090D02*
X129064367Y-65096359D01*
X129107961Y-65132359D01*
X129139845Y-65170076D01*
X129161810Y-65216200D01*
X129175649Y-65277422D01*
X129183153Y-65360432D01*
X129186117Y-65471920D01*
X129186461Y-65552063D01*
X129186461Y-65847066D01*
X129020385Y-65921516D01*
X129010615Y-65598403D01*
X129006579Y-65477730D01*
X129002344Y-65390142D01*
X128997097Y-65329651D01*
X128990025Y-65290269D01*
X128980311Y-65266008D01*
X128967144Y-65250881D01*
X128962919Y-65247607D01*
X128898909Y-65222035D01*
X128834208Y-65232154D01*
X128795692Y-65259001D01*
X128780025Y-65278025D01*
X128769180Y-65302989D01*
X128762288Y-65340835D01*
X128758479Y-65398503D01*
X128756883Y-65482936D01*
X128756615Y-65570929D01*
X128756563Y-65681324D01*
X128754672Y-65759464D01*
X128748345Y-65812166D01*
X128734983Y-65846243D01*
X128711985Y-65868512D01*
X128676754Y-65885788D01*
X128629697Y-65903739D01*
X128578303Y-65923279D01*
X128584421Y-65576486D01*
X128586884Y-65451469D01*
X128589767Y-65359083D01*
X128593898Y-65292882D01*
X128600107Y-65246421D01*
X128609226Y-65213257D01*
X128622083Y-65186945D01*
X128637584Y-65163730D01*
X128712371Y-65089570D01*
X128803628Y-65046685D01*
X128902883Y-65036413D01*
X129001664Y-65060090D01*
G36*
X129001664Y-65060090D02*
G01*
X129064367Y-65096359D01*
X129107961Y-65132359D01*
X129139845Y-65170076D01*
X129161810Y-65216200D01*
X129175649Y-65277422D01*
X129183153Y-65360432D01*
X129186117Y-65471920D01*
X129186461Y-65552063D01*
X129186461Y-65847066D01*
X129020385Y-65921516D01*
X129010615Y-65598403D01*
X129006579Y-65477730D01*
X129002344Y-65390142D01*
X128997097Y-65329651D01*
X128990025Y-65290269D01*
X128980311Y-65266008D01*
X128967144Y-65250881D01*
X128962919Y-65247607D01*
X128898909Y-65222035D01*
X128834208Y-65232154D01*
X128795692Y-65259001D01*
X128780025Y-65278025D01*
X128769180Y-65302989D01*
X128762288Y-65340835D01*
X128758479Y-65398503D01*
X128756883Y-65482936D01*
X128756615Y-65570929D01*
X128756563Y-65681324D01*
X128754672Y-65759464D01*
X128748345Y-65812166D01*
X128734983Y-65846243D01*
X128711985Y-65868512D01*
X128676754Y-65885788D01*
X128629697Y-65903739D01*
X128578303Y-65923279D01*
X128584421Y-65576486D01*
X128586884Y-65451469D01*
X128589767Y-65359083D01*
X128593898Y-65292882D01*
X128600107Y-65246421D01*
X128609226Y-65213257D01*
X128622083Y-65186945D01*
X128637584Y-65163730D01*
X128712371Y-65089570D01*
X128803628Y-65046685D01*
X128902883Y-65036413D01*
X129001664Y-65060090D01*
G37*
X131443362Y-65089671D02*
X131532117Y-65122422D01*
X131604022Y-65180351D01*
X131632144Y-65221129D01*
X131662802Y-65295955D01*
X131662165Y-65350059D01*
X131629987Y-65386447D01*
X131618081Y-65392634D01*
X131566675Y-65411926D01*
X131540422Y-65406983D01*
X131531530Y-65374588D01*
X131531077Y-65356693D01*
X131514797Y-65290860D01*
X131472365Y-65244808D01*
X131413388Y-65222565D01*
X131347475Y-65228162D01*
X131293895Y-65257230D01*
X131275798Y-65273811D01*
X131262971Y-65293926D01*
X131254306Y-65324333D01*
X131248696Y-65371789D01*
X131245035Y-65443051D01*
X131242215Y-65544876D01*
X131241484Y-65577116D01*
X131238820Y-65687411D01*
X131235792Y-65765037D01*
X131231250Y-65816397D01*
X131224046Y-65847891D01*
X131213033Y-65865921D01*
X131197060Y-65876889D01*
X131186834Y-65881734D01*
X131143406Y-65898302D01*
X131117842Y-65903770D01*
X131109395Y-65885508D01*
X131104239Y-65830297D01*
X131102346Y-65737500D01*
X131103689Y-65606479D01*
X131104107Y-65586270D01*
X131107058Y-65466734D01*
X131110548Y-65379450D01*
X131115514Y-65317592D01*
X131122893Y-65274337D01*
X131133624Y-65242861D01*
X131148645Y-65216340D01*
X131156502Y-65204976D01*
X131201553Y-65154693D01*
X131251940Y-65115582D01*
X131258108Y-65112168D01*
X131348458Y-65085213D01*
X131443362Y-65089671D01*
G36*
X131443362Y-65089671D02*
G01*
X131532117Y-65122422D01*
X131604022Y-65180351D01*
X131632144Y-65221129D01*
X131662802Y-65295955D01*
X131662165Y-65350059D01*
X131629987Y-65386447D01*
X131618081Y-65392634D01*
X131566675Y-65411926D01*
X131540422Y-65406983D01*
X131531530Y-65374588D01*
X131531077Y-65356693D01*
X131514797Y-65290860D01*
X131472365Y-65244808D01*
X131413388Y-65222565D01*
X131347475Y-65228162D01*
X131293895Y-65257230D01*
X131275798Y-65273811D01*
X131262971Y-65293926D01*
X131254306Y-65324333D01*
X131248696Y-65371789D01*
X131245035Y-65443051D01*
X131242215Y-65544876D01*
X131241484Y-65577116D01*
X131238820Y-65687411D01*
X131235792Y-65765037D01*
X131231250Y-65816397D01*
X131224046Y-65847891D01*
X131213033Y-65865921D01*
X131197060Y-65876889D01*
X131186834Y-65881734D01*
X131143406Y-65898302D01*
X131117842Y-65903770D01*
X131109395Y-65885508D01*
X131104239Y-65830297D01*
X131102346Y-65737500D01*
X131103689Y-65606479D01*
X131104107Y-65586270D01*
X131107058Y-65466734D01*
X131110548Y-65379450D01*
X131115514Y-65317592D01*
X131122893Y-65274337D01*
X131133624Y-65242861D01*
X131148645Y-65216340D01*
X131156502Y-65204976D01*
X131201553Y-65154693D01*
X131251940Y-65115582D01*
X131258108Y-65112168D01*
X131348458Y-65085213D01*
X131443362Y-65089671D01*
G37*
X129889846Y-64957121D02*
X129895572Y-65036981D01*
X129902149Y-65084040D01*
X129911262Y-65104567D01*
X129924598Y-65104830D01*
X129928923Y-65102379D01*
X129986444Y-65084637D01*
X130061268Y-65085673D01*
X130137339Y-65103911D01*
X130184918Y-65127506D01*
X130233702Y-65165199D01*
X130269364Y-65207856D01*
X130293845Y-65262058D01*
X130309087Y-65334385D01*
X130317030Y-65431420D01*
X130319616Y-65559743D01*
X130319662Y-65584359D01*
X130319692Y-65860871D01*
X130258161Y-65882321D01*
X130214459Y-65896913D01*
X130190482Y-65903707D01*
X130189777Y-65903770D01*
X130187415Y-65885346D01*
X130185406Y-65834527D01*
X130183901Y-65757994D01*
X130183053Y-65662431D01*
X130182923Y-65604330D01*
X130182651Y-65489772D01*
X130181252Y-65407668D01*
X130177849Y-65351394D01*
X130171567Y-65314327D01*
X130161529Y-65289845D01*
X130146861Y-65271326D01*
X130137702Y-65262407D01*
X130074789Y-65226467D01*
X130006136Y-65223776D01*
X129943848Y-65254171D01*
X129932329Y-65265145D01*
X129915433Y-65285780D01*
X129903714Y-65310257D01*
X129896233Y-65345648D01*
X129892054Y-65399027D01*
X129890237Y-65477467D01*
X129889846Y-65585618D01*
X129889846Y-65860871D01*
X129828315Y-65882321D01*
X129784613Y-65896913D01*
X129760636Y-65903707D01*
X129759930Y-65903770D01*
X129758126Y-65885070D01*
X129756500Y-65832323D01*
X129755117Y-65750558D01*
X129754042Y-65644806D01*
X129753340Y-65520095D01*
X129753077Y-65381456D01*
X129753077Y-64846807D01*
X129880077Y-64793237D01*
X129889846Y-64957121D01*
G36*
X129889846Y-64957121D02*
G01*
X129895572Y-65036981D01*
X129902149Y-65084040D01*
X129911262Y-65104567D01*
X129924598Y-65104830D01*
X129928923Y-65102379D01*
X129986444Y-65084637D01*
X130061268Y-65085673D01*
X130137339Y-65103911D01*
X130184918Y-65127506D01*
X130233702Y-65165199D01*
X130269364Y-65207856D01*
X130293845Y-65262058D01*
X130309087Y-65334385D01*
X130317030Y-65431420D01*
X130319616Y-65559743D01*
X130319662Y-65584359D01*
X130319692Y-65860871D01*
X130258161Y-65882321D01*
X130214459Y-65896913D01*
X130190482Y-65903707D01*
X130189777Y-65903770D01*
X130187415Y-65885346D01*
X130185406Y-65834527D01*
X130183901Y-65757994D01*
X130183053Y-65662431D01*
X130182923Y-65604330D01*
X130182651Y-65489772D01*
X130181252Y-65407668D01*
X130177849Y-65351394D01*
X130171567Y-65314327D01*
X130161529Y-65289845D01*
X130146861Y-65271326D01*
X130137702Y-65262407D01*
X130074789Y-65226467D01*
X130006136Y-65223776D01*
X129943848Y-65254171D01*
X129932329Y-65265145D01*
X129915433Y-65285780D01*
X129903714Y-65310257D01*
X129896233Y-65345648D01*
X129892054Y-65399027D01*
X129890237Y-65477467D01*
X129889846Y-65585618D01*
X129889846Y-65860871D01*
X129828315Y-65882321D01*
X129784613Y-65896913D01*
X129760636Y-65903707D01*
X129759930Y-65903770D01*
X129758126Y-65885070D01*
X129756500Y-65832323D01*
X129755117Y-65750558D01*
X129754042Y-65644806D01*
X129753340Y-65520095D01*
X129753077Y-65381456D01*
X129753077Y-64846807D01*
X129880077Y-64793237D01*
X129889846Y-64957121D01*
G37*
X133125929Y-65101663D02*
X133128911Y-65153069D01*
X133131247Y-65231193D01*
X133132749Y-65329858D01*
X133133231Y-65433344D01*
X133133231Y-65783534D01*
X133071401Y-65845364D01*
X133028793Y-65883463D01*
X132991390Y-65898896D01*
X132940270Y-65897919D01*
X132919978Y-65895434D01*
X132856554Y-65888201D01*
X132804095Y-65884056D01*
X132791308Y-65883673D01*
X132748199Y-65886177D01*
X132686544Y-65892463D01*
X132662638Y-65895434D01*
X132603922Y-65900029D01*
X132564464Y-65890047D01*
X132525338Y-65859229D01*
X132511215Y-65845364D01*
X132449385Y-65783534D01*
X132449385Y-65128504D01*
X132499150Y-65105830D01*
X132542002Y-65089035D01*
X132567073Y-65083155D01*
X132573501Y-65101737D01*
X132579509Y-65153656D01*
X132584697Y-65233173D01*
X132588664Y-65334547D01*
X132590577Y-65420193D01*
X132595923Y-65757232D01*
X132642560Y-65763826D01*
X132684976Y-65759215D01*
X132705760Y-65744288D01*
X132711570Y-65716378D01*
X132716530Y-65656926D01*
X132720246Y-65573467D01*
X132722324Y-65473533D01*
X132722624Y-65422105D01*
X132722923Y-65126055D01*
X132784454Y-65104605D01*
X132828004Y-65090021D01*
X132851694Y-65083220D01*
X132852377Y-65083155D01*
X132854754Y-65101643D01*
X132857366Y-65152907D01*
X132859995Y-65230650D01*
X132862421Y-65328575D01*
X132864115Y-65420193D01*
X132869461Y-65757232D01*
X132986692Y-65757232D01*
X132992072Y-65449747D01*
X132997451Y-65142262D01*
X133054601Y-65112708D01*
X133096797Y-65092414D01*
X133121770Y-65083205D01*
X133122491Y-65083155D01*
X133125929Y-65101663D01*
G36*
X133125929Y-65101663D02*
G01*
X133128911Y-65153069D01*
X133131247Y-65231193D01*
X133132749Y-65329858D01*
X133133231Y-65433344D01*
X133133231Y-65783534D01*
X133071401Y-65845364D01*
X133028793Y-65883463D01*
X132991390Y-65898896D01*
X132940270Y-65897919D01*
X132919978Y-65895434D01*
X132856554Y-65888201D01*
X132804095Y-65884056D01*
X132791308Y-65883673D01*
X132748199Y-65886177D01*
X132686544Y-65892463D01*
X132662638Y-65895434D01*
X132603922Y-65900029D01*
X132564464Y-65890047D01*
X132525338Y-65859229D01*
X132511215Y-65845364D01*
X132449385Y-65783534D01*
X132449385Y-65128504D01*
X132499150Y-65105830D01*
X132542002Y-65089035D01*
X132567073Y-65083155D01*
X132573501Y-65101737D01*
X132579509Y-65153656D01*
X132584697Y-65233173D01*
X132588664Y-65334547D01*
X132590577Y-65420193D01*
X132595923Y-65757232D01*
X132642560Y-65763826D01*
X132684976Y-65759215D01*
X132705760Y-65744288D01*
X132711570Y-65716378D01*
X132716530Y-65656926D01*
X132720246Y-65573467D01*
X132722324Y-65473533D01*
X132722624Y-65422105D01*
X132722923Y-65126055D01*
X132784454Y-65104605D01*
X132828004Y-65090021D01*
X132851694Y-65083220D01*
X132852377Y-65083155D01*
X132854754Y-65101643D01*
X132857366Y-65152907D01*
X132859995Y-65230650D01*
X132862421Y-65328575D01*
X132864115Y-65420193D01*
X132869461Y-65757232D01*
X132986692Y-65757232D01*
X132992072Y-65449747D01*
X132997451Y-65142262D01*
X133054601Y-65112708D01*
X133096797Y-65092414D01*
X133121770Y-65083205D01*
X133122491Y-65083155D01*
X133125929Y-65101663D01*
G37*
X126746886Y-65052257D02*
X126838464Y-65100410D01*
X126906049Y-65177906D01*
X126930057Y-65227728D01*
X126948738Y-65302534D01*
X126958301Y-65397053D01*
X126959208Y-65500211D01*
X126951921Y-65600936D01*
X126936903Y-65688154D01*
X126914615Y-65750792D01*
X126907765Y-65761580D01*
X126826632Y-65842106D01*
X126730266Y-65890337D01*
X126625701Y-65904451D01*
X126519968Y-65882630D01*
X126490543Y-65869548D01*
X126433241Y-65829232D01*
X126382950Y-65775776D01*
X126378197Y-65768996D01*
X126358878Y-65736322D01*
X126346108Y-65701395D01*
X126338564Y-65655415D01*
X126334924Y-65589585D01*
X126333865Y-65495106D01*
X126333846Y-65473924D01*
X126333894Y-65467183D01*
X126529231Y-65467183D01*
X126530368Y-65556350D01*
X126534841Y-65615521D01*
X126544246Y-65653742D01*
X126560176Y-65680054D01*
X126568308Y-65688847D01*
X126615058Y-65722262D01*
X126660447Y-65720738D01*
X126706340Y-65691753D01*
X126733712Y-65660810D01*
X126749923Y-65615644D01*
X126759026Y-65544421D01*
X126759651Y-65536115D01*
X126761204Y-65407038D01*
X126744965Y-65311173D01*
X126711152Y-65249108D01*
X126659984Y-65221433D01*
X126641720Y-65219924D01*
X126593760Y-65227514D01*
X126560953Y-65253809D01*
X126540895Y-65304096D01*
X126531178Y-65383665D01*
X126529231Y-65467183D01*
X126333894Y-65467183D01*
X126334574Y-65373250D01*
X126337629Y-65302907D01*
X126344322Y-65254164D01*
X126355960Y-65218289D01*
X126373853Y-65186549D01*
X126377808Y-65180649D01*
X126444267Y-65101105D01*
X126516685Y-65054930D01*
X126604849Y-65036600D01*
X126634787Y-65035704D01*
X126746886Y-65052257D01*
G36*
X126746886Y-65052257D02*
G01*
X126838464Y-65100410D01*
X126906049Y-65177906D01*
X126930057Y-65227728D01*
X126948738Y-65302534D01*
X126958301Y-65397053D01*
X126959208Y-65500211D01*
X126951921Y-65600936D01*
X126936903Y-65688154D01*
X126914615Y-65750792D01*
X126907765Y-65761580D01*
X126826632Y-65842106D01*
X126730266Y-65890337D01*
X126625701Y-65904451D01*
X126519968Y-65882630D01*
X126490543Y-65869548D01*
X126433241Y-65829232D01*
X126382950Y-65775776D01*
X126378197Y-65768996D01*
X126358878Y-65736322D01*
X126346108Y-65701395D01*
X126338564Y-65655415D01*
X126334924Y-65589585D01*
X126333865Y-65495106D01*
X126333846Y-65473924D01*
X126333894Y-65467183D01*
X126529231Y-65467183D01*
X126530368Y-65556350D01*
X126534841Y-65615521D01*
X126544246Y-65653742D01*
X126560176Y-65680054D01*
X126568308Y-65688847D01*
X126615058Y-65722262D01*
X126660447Y-65720738D01*
X126706340Y-65691753D01*
X126733712Y-65660810D01*
X126749923Y-65615644D01*
X126759026Y-65544421D01*
X126759651Y-65536115D01*
X126761204Y-65407038D01*
X126744965Y-65311173D01*
X126711152Y-65249108D01*
X126659984Y-65221433D01*
X126641720Y-65219924D01*
X126593760Y-65227514D01*
X126560953Y-65253809D01*
X126540895Y-65304096D01*
X126531178Y-65383665D01*
X126529231Y-65467183D01*
X126333894Y-65467183D01*
X126334574Y-65373250D01*
X126337629Y-65302907D01*
X126344322Y-65254164D01*
X126355960Y-65218289D01*
X126373853Y-65186549D01*
X126377808Y-65180649D01*
X126444267Y-65101105D01*
X126516685Y-65054930D01*
X126604849Y-65036600D01*
X126634787Y-65035704D01*
X126746886Y-65052257D01*
G37*
X134975224Y-65112839D02*
X135052528Y-65163362D01*
X135089814Y-65208591D01*
X135119353Y-65290664D01*
X135121699Y-65355608D01*
X135116385Y-65442446D01*
X134916115Y-65530104D01*
X134818739Y-65574888D01*
X134755113Y-65610914D01*
X134722029Y-65642118D01*
X134716280Y-65672437D01*
X134734658Y-65705806D01*
X134754923Y-65727924D01*
X134813889Y-65763394D01*
X134878024Y-65765880D01*
X134936926Y-65738236D01*
X134980197Y-65683321D01*
X134987936Y-65663929D01*
X135025006Y-65603365D01*
X135067654Y-65577553D01*
X135126154Y-65555472D01*
X135126154Y-65639185D01*
X135120982Y-65696151D01*
X135100723Y-65744190D01*
X135058262Y-65799347D01*
X135051951Y-65806515D01*
X135004720Y-65855586D01*
X134964121Y-65881921D01*
X134913328Y-65894036D01*
X134871220Y-65898004D01*
X134795902Y-65898992D01*
X134742286Y-65886467D01*
X134708838Y-65867870D01*
X134656268Y-65826976D01*
X134619879Y-65782749D01*
X134596850Y-65727127D01*
X134584359Y-65652048D01*
X134579587Y-65549450D01*
X134579206Y-65497377D01*
X134580501Y-65434949D01*
X134698471Y-65434949D01*
X134699839Y-65468439D01*
X134703249Y-65473924D01*
X134725753Y-65466473D01*
X134774182Y-65446754D01*
X134838908Y-65418719D01*
X134852443Y-65412693D01*
X134934244Y-65371097D01*
X134979312Y-65334539D01*
X134989217Y-65300297D01*
X134965526Y-65265649D01*
X134945960Y-65250340D01*
X134875360Y-65219722D01*
X134809280Y-65224781D01*
X134753959Y-65262152D01*
X134715636Y-65328474D01*
X134703349Y-65381117D01*
X134698471Y-65434949D01*
X134580501Y-65434949D01*
X134581730Y-65375721D01*
X134591032Y-65285711D01*
X134609460Y-65220168D01*
X134639360Y-65171913D01*
X134683080Y-65133768D01*
X134702141Y-65121441D01*
X134788726Y-65089337D01*
X134883522Y-65087317D01*
X134975224Y-65112839D01*
G36*
X134975224Y-65112839D02*
G01*
X135052528Y-65163362D01*
X135089814Y-65208591D01*
X135119353Y-65290664D01*
X135121699Y-65355608D01*
X135116385Y-65442446D01*
X134916115Y-65530104D01*
X134818739Y-65574888D01*
X134755113Y-65610914D01*
X134722029Y-65642118D01*
X134716280Y-65672437D01*
X134734658Y-65705806D01*
X134754923Y-65727924D01*
X134813889Y-65763394D01*
X134878024Y-65765880D01*
X134936926Y-65738236D01*
X134980197Y-65683321D01*
X134987936Y-65663929D01*
X135025006Y-65603365D01*
X135067654Y-65577553D01*
X135126154Y-65555472D01*
X135126154Y-65639185D01*
X135120982Y-65696151D01*
X135100723Y-65744190D01*
X135058262Y-65799347D01*
X135051951Y-65806515D01*
X135004720Y-65855586D01*
X134964121Y-65881921D01*
X134913328Y-65894036D01*
X134871220Y-65898004D01*
X134795902Y-65898992D01*
X134742286Y-65886467D01*
X134708838Y-65867870D01*
X134656268Y-65826976D01*
X134619879Y-65782749D01*
X134596850Y-65727127D01*
X134584359Y-65652048D01*
X134579587Y-65549450D01*
X134579206Y-65497377D01*
X134580501Y-65434949D01*
X134698471Y-65434949D01*
X134699839Y-65468439D01*
X134703249Y-65473924D01*
X134725753Y-65466473D01*
X134774182Y-65446754D01*
X134838908Y-65418719D01*
X134852443Y-65412693D01*
X134934244Y-65371097D01*
X134979312Y-65334539D01*
X134989217Y-65300297D01*
X134965526Y-65265649D01*
X134945960Y-65250340D01*
X134875360Y-65219722D01*
X134809280Y-65224781D01*
X134753959Y-65262152D01*
X134715636Y-65328474D01*
X134703349Y-65381117D01*
X134698471Y-65434949D01*
X134580501Y-65434949D01*
X134581730Y-65375721D01*
X134591032Y-65285711D01*
X134609460Y-65220168D01*
X134639360Y-65171913D01*
X134683080Y-65133768D01*
X134702141Y-65121441D01*
X134788726Y-65089337D01*
X134883522Y-65087317D01*
X134975224Y-65112839D01*
G37*
X132332081Y-65245290D02*
X132331833Y-65391321D01*
X132330872Y-65503656D01*
X132328794Y-65587679D01*
X132325193Y-65648770D01*
X132319665Y-65692310D01*
X132311804Y-65723680D01*
X132301207Y-65748263D01*
X132293182Y-65762295D01*
X132226728Y-65838389D01*
X132142470Y-65886085D01*
X132049249Y-65903200D01*
X131955900Y-65887547D01*
X131900312Y-65859419D01*
X131841957Y-65810761D01*
X131802186Y-65751334D01*
X131778190Y-65673508D01*
X131767161Y-65569653D01*
X131765599Y-65493463D01*
X131765809Y-65487987D01*
X131902308Y-65487987D01*
X131903141Y-65575356D01*
X131906961Y-65633193D01*
X131915746Y-65671030D01*
X131931474Y-65698399D01*
X131950266Y-65719043D01*
X132013375Y-65758891D01*
X132081137Y-65762296D01*
X132145179Y-65729026D01*
X132150164Y-65724518D01*
X132171439Y-65701068D01*
X132184779Y-65673167D01*
X132192001Y-65631642D01*
X132194923Y-65567317D01*
X132195385Y-65496201D01*
X132194383Y-65406859D01*
X132190238Y-65347259D01*
X132181236Y-65308090D01*
X132165667Y-65280041D01*
X132152902Y-65265145D01*
X132093600Y-65227576D01*
X132025301Y-65223058D01*
X131960110Y-65251754D01*
X131947528Y-65262407D01*
X131926111Y-65286064D01*
X131912744Y-65314252D01*
X131905566Y-65356246D01*
X131902719Y-65421320D01*
X131902308Y-65487987D01*
X131765809Y-65487987D01*
X131770322Y-65370766D01*
X131786362Y-65278578D01*
X131816528Y-65209270D01*
X131863629Y-65155212D01*
X131900312Y-65127506D01*
X131966990Y-65097573D01*
X132044272Y-65083679D01*
X132116110Y-65087398D01*
X132156308Y-65102401D01*
X132172082Y-65106671D01*
X132182550Y-65090751D01*
X132189856Y-65048090D01*
X132195385Y-64983107D01*
X132201437Y-64910733D01*
X132209844Y-64867188D01*
X132225141Y-64842288D01*
X132251864Y-64825846D01*
X132268654Y-64818565D01*
X132332154Y-64791964D01*
X132332081Y-65245290D01*
G36*
X132332081Y-65245290D02*
G01*
X132331833Y-65391321D01*
X132330872Y-65503656D01*
X132328794Y-65587679D01*
X132325193Y-65648770D01*
X132319665Y-65692310D01*
X132311804Y-65723680D01*
X132301207Y-65748263D01*
X132293182Y-65762295D01*
X132226728Y-65838389D01*
X132142470Y-65886085D01*
X132049249Y-65903200D01*
X131955900Y-65887547D01*
X131900312Y-65859419D01*
X131841957Y-65810761D01*
X131802186Y-65751334D01*
X131778190Y-65673508D01*
X131767161Y-65569653D01*
X131765599Y-65493463D01*
X131765809Y-65487987D01*
X131902308Y-65487987D01*
X131903141Y-65575356D01*
X131906961Y-65633193D01*
X131915746Y-65671030D01*
X131931474Y-65698399D01*
X131950266Y-65719043D01*
X132013375Y-65758891D01*
X132081137Y-65762296D01*
X132145179Y-65729026D01*
X132150164Y-65724518D01*
X132171439Y-65701068D01*
X132184779Y-65673167D01*
X132192001Y-65631642D01*
X132194923Y-65567317D01*
X132195385Y-65496201D01*
X132194383Y-65406859D01*
X132190238Y-65347259D01*
X132181236Y-65308090D01*
X132165667Y-65280041D01*
X132152902Y-65265145D01*
X132093600Y-65227576D01*
X132025301Y-65223058D01*
X131960110Y-65251754D01*
X131947528Y-65262407D01*
X131926111Y-65286064D01*
X131912744Y-65314252D01*
X131905566Y-65356246D01*
X131902719Y-65421320D01*
X131902308Y-65487987D01*
X131765809Y-65487987D01*
X131770322Y-65370766D01*
X131786362Y-65278578D01*
X131816528Y-65209270D01*
X131863629Y-65155212D01*
X131900312Y-65127506D01*
X131966990Y-65097573D01*
X132044272Y-65083679D01*
X132116110Y-65087398D01*
X132156308Y-65102401D01*
X132172082Y-65106671D01*
X132182550Y-65090751D01*
X132189856Y-65048090D01*
X132195385Y-64983107D01*
X132201437Y-64910733D01*
X132209844Y-64867188D01*
X132225141Y-64842288D01*
X132251864Y-64825846D01*
X132268654Y-64818565D01*
X132332154Y-64791964D01*
X132332081Y-65245290D01*
G37*
X128264254Y-65064746D02*
X128341286Y-65116568D01*
X128400816Y-65191413D01*
X128436378Y-65286655D01*
X128443571Y-65356757D01*
X128442754Y-65386010D01*
X128435914Y-65408408D01*
X128417112Y-65428475D01*
X128380408Y-65450734D01*
X128319862Y-65479710D01*
X128229534Y-65519928D01*
X128229077Y-65520130D01*
X128145933Y-65558211D01*
X128077753Y-65592026D01*
X128031505Y-65617934D01*
X128014158Y-65632296D01*
X128014154Y-65632412D01*
X128029443Y-65663686D01*
X128065196Y-65698158D01*
X128106242Y-65722991D01*
X128127037Y-65727924D01*
X128183770Y-65710863D01*
X128232627Y-65668134D01*
X128256465Y-65621156D01*
X128279397Y-65586523D01*
X128324318Y-65547082D01*
X128377123Y-65513010D01*
X128423710Y-65494481D01*
X128433452Y-65493463D01*
X128444418Y-65510216D01*
X128445079Y-65553040D01*
X128437020Y-65610782D01*
X128421827Y-65672290D01*
X128401086Y-65726410D01*
X128400038Y-65728511D01*
X128337621Y-65815661D01*
X128256726Y-65874940D01*
X128164856Y-65904035D01*
X128069513Y-65900635D01*
X127978198Y-65862429D01*
X127974138Y-65859742D01*
X127902306Y-65794643D01*
X127855073Y-65709706D01*
X127828934Y-65598022D01*
X127825426Y-65566644D01*
X127819213Y-65418537D01*
X127826661Y-65349469D01*
X128014154Y-65349469D01*
X128016590Y-65392553D01*
X128029914Y-65405127D01*
X128063132Y-65395720D01*
X128115494Y-65373484D01*
X128174024Y-65345611D01*
X128175479Y-65344873D01*
X128225089Y-65318778D01*
X128245000Y-65301364D01*
X128240090Y-65283108D01*
X128219416Y-65259121D01*
X128166819Y-65224407D01*
X128110177Y-65221857D01*
X128059369Y-65247120D01*
X128024276Y-65295848D01*
X128014154Y-65349469D01*
X127826661Y-65349469D01*
X127831992Y-65300037D01*
X127864778Y-65206056D01*
X127910421Y-65140216D01*
X127992802Y-65073682D01*
X128083546Y-65040677D01*
X128176185Y-65038574D01*
X128264254Y-65064746D01*
G36*
X128264254Y-65064746D02*
G01*
X128341286Y-65116568D01*
X128400816Y-65191413D01*
X128436378Y-65286655D01*
X128443571Y-65356757D01*
X128442754Y-65386010D01*
X128435914Y-65408408D01*
X128417112Y-65428475D01*
X128380408Y-65450734D01*
X128319862Y-65479710D01*
X128229534Y-65519928D01*
X128229077Y-65520130D01*
X128145933Y-65558211D01*
X128077753Y-65592026D01*
X128031505Y-65617934D01*
X128014158Y-65632296D01*
X128014154Y-65632412D01*
X128029443Y-65663686D01*
X128065196Y-65698158D01*
X128106242Y-65722991D01*
X128127037Y-65727924D01*
X128183770Y-65710863D01*
X128232627Y-65668134D01*
X128256465Y-65621156D01*
X128279397Y-65586523D01*
X128324318Y-65547082D01*
X128377123Y-65513010D01*
X128423710Y-65494481D01*
X128433452Y-65493463D01*
X128444418Y-65510216D01*
X128445079Y-65553040D01*
X128437020Y-65610782D01*
X128421827Y-65672290D01*
X128401086Y-65726410D01*
X128400038Y-65728511D01*
X128337621Y-65815661D01*
X128256726Y-65874940D01*
X128164856Y-65904035D01*
X128069513Y-65900635D01*
X127978198Y-65862429D01*
X127974138Y-65859742D01*
X127902306Y-65794643D01*
X127855073Y-65709706D01*
X127828934Y-65598022D01*
X127825426Y-65566644D01*
X127819213Y-65418537D01*
X127826661Y-65349469D01*
X128014154Y-65349469D01*
X128016590Y-65392553D01*
X128029914Y-65405127D01*
X128063132Y-65395720D01*
X128115494Y-65373484D01*
X128174024Y-65345611D01*
X128175479Y-65344873D01*
X128225089Y-65318778D01*
X128245000Y-65301364D01*
X128240090Y-65283108D01*
X128219416Y-65259121D01*
X128166819Y-65224407D01*
X128110177Y-65221857D01*
X128059369Y-65247120D01*
X128024276Y-65295848D01*
X128014154Y-65349469D01*
X127826661Y-65349469D01*
X127831992Y-65300037D01*
X127864778Y-65206056D01*
X127910421Y-65140216D01*
X127992802Y-65073682D01*
X128083546Y-65040677D01*
X128176185Y-65038574D01*
X128264254Y-65064746D01*
G37*
X130783501Y-65091304D02*
X130860060Y-65119734D01*
X130860936Y-65120280D01*
X130908285Y-65155128D01*
X130943241Y-65195853D01*
X130967825Y-65248926D01*
X130984062Y-65320815D01*
X130993975Y-65417993D01*
X130999586Y-65546929D01*
X131000077Y-65565299D01*
X131007141Y-65842288D01*
X130947695Y-65873029D01*
X130904681Y-65893803D01*
X130878710Y-65903647D01*
X130877509Y-65903770D01*
X130873014Y-65885607D01*
X130869444Y-65836613D01*
X130867248Y-65765032D01*
X130866769Y-65707069D01*
X130866758Y-65613171D01*
X130862466Y-65554204D01*
X130847503Y-65526080D01*
X130815482Y-65524707D01*
X130760014Y-65545999D01*
X130676269Y-65585137D01*
X130614689Y-65617644D01*
X130583017Y-65645846D01*
X130573706Y-65676583D01*
X130573692Y-65678105D01*
X130589057Y-65731055D01*
X130634547Y-65759661D01*
X130704166Y-65763804D01*
X130754313Y-65763085D01*
X130780754Y-65777528D01*
X130797243Y-65812219D01*
X130806733Y-65856417D01*
X130793057Y-65881494D01*
X130787907Y-65885083D01*
X130739425Y-65899497D01*
X130671531Y-65901538D01*
X130601612Y-65891984D01*
X130552068Y-65874523D01*
X130483570Y-65816365D01*
X130444634Y-65735409D01*
X130436923Y-65672161D01*
X130442807Y-65615112D01*
X130464101Y-65568543D01*
X130506265Y-65527182D01*
X130574759Y-65485756D01*
X130675044Y-65438994D01*
X130681154Y-65436351D01*
X130771490Y-65394618D01*
X130827235Y-65360392D01*
X130851129Y-65329636D01*
X130845913Y-65298312D01*
X130814328Y-65262384D01*
X130804883Y-65254117D01*
X130741617Y-65222059D01*
X130676064Y-65223408D01*
X130618972Y-65254839D01*
X130581093Y-65313025D01*
X130577574Y-65324447D01*
X130543300Y-65379838D01*
X130499809Y-65406519D01*
X130436923Y-65432961D01*
X130436923Y-65364549D01*
X130456052Y-65265111D01*
X130512831Y-65173903D01*
X130542378Y-65143390D01*
X130609542Y-65104229D01*
X130694956Y-65086501D01*
X130783501Y-65091304D01*
G36*
X130783501Y-65091304D02*
G01*
X130860060Y-65119734D01*
X130860936Y-65120280D01*
X130908285Y-65155128D01*
X130943241Y-65195853D01*
X130967825Y-65248926D01*
X130984062Y-65320815D01*
X130993975Y-65417993D01*
X130999586Y-65546929D01*
X131000077Y-65565299D01*
X131007141Y-65842288D01*
X130947695Y-65873029D01*
X130904681Y-65893803D01*
X130878710Y-65903647D01*
X130877509Y-65903770D01*
X130873014Y-65885607D01*
X130869444Y-65836613D01*
X130867248Y-65765032D01*
X130866769Y-65707069D01*
X130866758Y-65613171D01*
X130862466Y-65554204D01*
X130847503Y-65526080D01*
X130815482Y-65524707D01*
X130760014Y-65545999D01*
X130676269Y-65585137D01*
X130614689Y-65617644D01*
X130583017Y-65645846D01*
X130573706Y-65676583D01*
X130573692Y-65678105D01*
X130589057Y-65731055D01*
X130634547Y-65759661D01*
X130704166Y-65763804D01*
X130754313Y-65763085D01*
X130780754Y-65777528D01*
X130797243Y-65812219D01*
X130806733Y-65856417D01*
X130793057Y-65881494D01*
X130787907Y-65885083D01*
X130739425Y-65899497D01*
X130671531Y-65901538D01*
X130601612Y-65891984D01*
X130552068Y-65874523D01*
X130483570Y-65816365D01*
X130444634Y-65735409D01*
X130436923Y-65672161D01*
X130442807Y-65615112D01*
X130464101Y-65568543D01*
X130506265Y-65527182D01*
X130574759Y-65485756D01*
X130675044Y-65438994D01*
X130681154Y-65436351D01*
X130771490Y-65394618D01*
X130827235Y-65360392D01*
X130851129Y-65329636D01*
X130845913Y-65298312D01*
X130814328Y-65262384D01*
X130804883Y-65254117D01*
X130741617Y-65222059D01*
X130676064Y-65223408D01*
X130618972Y-65254839D01*
X130581093Y-65313025D01*
X130577574Y-65324447D01*
X130543300Y-65379838D01*
X130499809Y-65406519D01*
X130436923Y-65432961D01*
X130436923Y-65364549D01*
X130456052Y-65265111D01*
X130512831Y-65173903D01*
X130542378Y-65143390D01*
X130609542Y-65104229D01*
X130694956Y-65086501D01*
X130783501Y-65091304D01*
G37*
X127498886Y-65049506D02*
X127573539Y-65086728D01*
X127639431Y-65155262D01*
X127657577Y-65180649D01*
X127677345Y-65213867D01*
X127690172Y-65249946D01*
X127697510Y-65298099D01*
X127700813Y-65367537D01*
X127701538Y-65459207D01*
X127698263Y-65584831D01*
X127686877Y-65679155D01*
X127665041Y-65749524D01*
X127630419Y-65803287D01*
X127580670Y-65847789D01*
X127577014Y-65850424D01*
X127527985Y-65877378D01*
X127468945Y-65890713D01*
X127393859Y-65894001D01*
X127271795Y-65894001D01*
X127271744Y-66012498D01*
X127270608Y-66078493D01*
X127263686Y-66117203D01*
X127245598Y-66140420D01*
X127210962Y-66159934D01*
X127202645Y-66163921D01*
X127163720Y-66182604D01*
X127133583Y-66194404D01*
X127111174Y-66195423D01*
X127095433Y-66181762D01*
X127085302Y-66149523D01*
X127079723Y-66094805D01*
X127077635Y-66013712D01*
X127077981Y-65902345D01*
X127079700Y-65756803D01*
X127080237Y-65713270D01*
X127082172Y-65563206D01*
X127083904Y-65465043D01*
X127271692Y-65465043D01*
X127272748Y-65548365D01*
X127277438Y-65602881D01*
X127288051Y-65638838D01*
X127306872Y-65666483D01*
X127319650Y-65679966D01*
X127371890Y-65719418D01*
X127418142Y-65722629D01*
X127465867Y-65690050D01*
X127467077Y-65688847D01*
X127486494Y-65663669D01*
X127498307Y-65629448D01*
X127504265Y-65576749D01*
X127506120Y-65496132D01*
X127506154Y-65478272D01*
X127501670Y-65367176D01*
X127487074Y-65290162D01*
X127460650Y-65243148D01*
X127420683Y-65222051D01*
X127397584Y-65219924D01*
X127342762Y-65229901D01*
X127305158Y-65262753D01*
X127282523Y-65322858D01*
X127272606Y-65414599D01*
X127271692Y-65465043D01*
X127083904Y-65465043D01*
X127084222Y-65447061D01*
X127086873Y-65359680D01*
X127090606Y-65295906D01*
X127095907Y-65250583D01*
X127103258Y-65218556D01*
X127113143Y-65194669D01*
X127126046Y-65173765D01*
X127131579Y-65165899D01*
X127204969Y-65091596D01*
X127297760Y-65049468D01*
X127405096Y-65037723D01*
X127498886Y-65049506D01*
G36*
X127498886Y-65049506D02*
G01*
X127573539Y-65086728D01*
X127639431Y-65155262D01*
X127657577Y-65180649D01*
X127677345Y-65213867D01*
X127690172Y-65249946D01*
X127697510Y-65298099D01*
X127700813Y-65367537D01*
X127701538Y-65459207D01*
X127698263Y-65584831D01*
X127686877Y-65679155D01*
X127665041Y-65749524D01*
X127630419Y-65803287D01*
X127580670Y-65847789D01*
X127577014Y-65850424D01*
X127527985Y-65877378D01*
X127468945Y-65890713D01*
X127393859Y-65894001D01*
X127271795Y-65894001D01*
X127271744Y-66012498D01*
X127270608Y-66078493D01*
X127263686Y-66117203D01*
X127245598Y-66140420D01*
X127210962Y-66159934D01*
X127202645Y-66163921D01*
X127163720Y-66182604D01*
X127133583Y-66194404D01*
X127111174Y-66195423D01*
X127095433Y-66181762D01*
X127085302Y-66149523D01*
X127079723Y-66094805D01*
X127077635Y-66013712D01*
X127077981Y-65902345D01*
X127079700Y-65756803D01*
X127080237Y-65713270D01*
X127082172Y-65563206D01*
X127083904Y-65465043D01*
X127271692Y-65465043D01*
X127272748Y-65548365D01*
X127277438Y-65602881D01*
X127288051Y-65638838D01*
X127306872Y-65666483D01*
X127319650Y-65679966D01*
X127371890Y-65719418D01*
X127418142Y-65722629D01*
X127465867Y-65690050D01*
X127467077Y-65688847D01*
X127486494Y-65663669D01*
X127498307Y-65629448D01*
X127504265Y-65576749D01*
X127506120Y-65496132D01*
X127506154Y-65478272D01*
X127501670Y-65367176D01*
X127487074Y-65290162D01*
X127460650Y-65243148D01*
X127420683Y-65222051D01*
X127397584Y-65219924D01*
X127342762Y-65229901D01*
X127305158Y-65262753D01*
X127282523Y-65322858D01*
X127272606Y-65414599D01*
X127271692Y-65465043D01*
X127083904Y-65465043D01*
X127084222Y-65447061D01*
X127086873Y-65359680D01*
X127090606Y-65295906D01*
X127095907Y-65250583D01*
X127103258Y-65218556D01*
X127113143Y-65194669D01*
X127126046Y-65173765D01*
X127131579Y-65165899D01*
X127204969Y-65091596D01*
X127297760Y-65049468D01*
X127405096Y-65037723D01*
X127498886Y-65049506D01*
G37*
X133617333Y-65098529D02*
X133673590Y-65124118D01*
X133717747Y-65155125D01*
X133750101Y-65189796D01*
X133772438Y-65234521D01*
X133786546Y-65295693D01*
X133794211Y-65379702D01*
X133797220Y-65492941D01*
X133797538Y-65567510D01*
X133797538Y-65858421D01*
X133747773Y-65881096D01*
X133708576Y-65897668D01*
X133689157Y-65903770D01*
X133685442Y-65885611D01*
X133682495Y-65836649D01*
X133680691Y-65765154D01*
X133680308Y-65708386D01*
X133678661Y-65626372D01*
X133674222Y-65561310D01*
X133667740Y-65521468D01*
X133662590Y-65513001D01*
X133627977Y-65521647D01*
X133573640Y-65543824D01*
X133510722Y-65573887D01*
X133450368Y-65606193D01*
X133403721Y-65635099D01*
X133381926Y-65654962D01*
X133381839Y-65655176D01*
X133383714Y-65691936D01*
X133400525Y-65727027D01*
X133430039Y-65755529D01*
X133473116Y-65765062D01*
X133509932Y-65763951D01*
X133562074Y-65763134D01*
X133589444Y-65775350D01*
X133605882Y-65807625D01*
X133607955Y-65813711D01*
X133615081Y-65859740D01*
X133596024Y-65887688D01*
X133546353Y-65901008D01*
X133492697Y-65903471D01*
X133396142Y-65885211D01*
X133346159Y-65859132D01*
X133284429Y-65797869D01*
X133251690Y-65722671D01*
X133248753Y-65643212D01*
X133276424Y-65569168D01*
X133318047Y-65522770D01*
X133359604Y-65496794D01*
X133424922Y-65463908D01*
X133501038Y-65430558D01*
X133513726Y-65425462D01*
X133597333Y-65388566D01*
X133645530Y-65356047D01*
X133661030Y-65323719D01*
X133646550Y-65287395D01*
X133621692Y-65259001D01*
X133562939Y-65224040D01*
X133498293Y-65221418D01*
X133439008Y-65248359D01*
X133396339Y-65302089D01*
X133390739Y-65315951D01*
X133358133Y-65366937D01*
X133310530Y-65404788D01*
X133250461Y-65435851D01*
X133250461Y-65347769D01*
X133253997Y-65293952D01*
X133269156Y-65251535D01*
X133302768Y-65206280D01*
X133335035Y-65171421D01*
X133385209Y-65122063D01*
X133424193Y-65095548D01*
X133466064Y-65084912D01*
X133513460Y-65083155D01*
X133617333Y-65098529D01*
G36*
X133617333Y-65098529D02*
G01*
X133673590Y-65124118D01*
X133717747Y-65155125D01*
X133750101Y-65189796D01*
X133772438Y-65234521D01*
X133786546Y-65295693D01*
X133794211Y-65379702D01*
X133797220Y-65492941D01*
X133797538Y-65567510D01*
X133797538Y-65858421D01*
X133747773Y-65881096D01*
X133708576Y-65897668D01*
X133689157Y-65903770D01*
X133685442Y-65885611D01*
X133682495Y-65836649D01*
X133680691Y-65765154D01*
X133680308Y-65708386D01*
X133678661Y-65626372D01*
X133674222Y-65561310D01*
X133667740Y-65521468D01*
X133662590Y-65513001D01*
X133627977Y-65521647D01*
X133573640Y-65543824D01*
X133510722Y-65573887D01*
X133450368Y-65606193D01*
X133403721Y-65635099D01*
X133381926Y-65654962D01*
X133381839Y-65655176D01*
X133383714Y-65691936D01*
X133400525Y-65727027D01*
X133430039Y-65755529D01*
X133473116Y-65765062D01*
X133509932Y-65763951D01*
X133562074Y-65763134D01*
X133589444Y-65775350D01*
X133605882Y-65807625D01*
X133607955Y-65813711D01*
X133615081Y-65859740D01*
X133596024Y-65887688D01*
X133546353Y-65901008D01*
X133492697Y-65903471D01*
X133396142Y-65885211D01*
X133346159Y-65859132D01*
X133284429Y-65797869D01*
X133251690Y-65722671D01*
X133248753Y-65643212D01*
X133276424Y-65569168D01*
X133318047Y-65522770D01*
X133359604Y-65496794D01*
X133424922Y-65463908D01*
X133501038Y-65430558D01*
X133513726Y-65425462D01*
X133597333Y-65388566D01*
X133645530Y-65356047D01*
X133661030Y-65323719D01*
X133646550Y-65287395D01*
X133621692Y-65259001D01*
X133562939Y-65224040D01*
X133498293Y-65221418D01*
X133439008Y-65248359D01*
X133396339Y-65302089D01*
X133390739Y-65315951D01*
X133358133Y-65366937D01*
X133310530Y-65404788D01*
X133250461Y-65435851D01*
X133250461Y-65347769D01*
X133253997Y-65293952D01*
X133269156Y-65251535D01*
X133302768Y-65206280D01*
X133335035Y-65171421D01*
X133385209Y-65122063D01*
X133424193Y-65095548D01*
X133466064Y-65084912D01*
X133513460Y-65083155D01*
X133617333Y-65098529D01*
G37*
X130869878Y-58752777D02*
X130975612Y-58753356D01*
X131052132Y-58754923D01*
X131104372Y-58757973D01*
X131137263Y-58762997D01*
X131155737Y-58770490D01*
X131164727Y-58780945D01*
X131169163Y-58794854D01*
X131169594Y-58796655D01*
X131176333Y-58829146D01*
X131188808Y-58893253D01*
X131205719Y-58982152D01*
X131225771Y-59089020D01*
X131247664Y-59207034D01*
X131248429Y-59211179D01*
X131270359Y-59326832D01*
X131290877Y-59429015D01*
X131308659Y-59511599D01*
X131322381Y-59568457D01*
X131330718Y-59593459D01*
X131331116Y-59593902D01*
X131355677Y-59606111D01*
X131406315Y-59626457D01*
X131472095Y-59650546D01*
X131472461Y-59650675D01*
X131555317Y-59681819D01*
X131653000Y-59721492D01*
X131745077Y-59761382D01*
X131749434Y-59763354D01*
X131899407Y-59831421D01*
X132231498Y-59604640D01*
X132333374Y-59535505D01*
X132425657Y-59473698D01*
X132503003Y-59422734D01*
X132560064Y-59386128D01*
X132591495Y-59367395D01*
X132594479Y-59366005D01*
X132617321Y-59372191D01*
X132659982Y-59402036D01*
X132724128Y-59456948D01*
X132811421Y-59538335D01*
X132900535Y-59624923D01*
X132986441Y-59710248D01*
X133063327Y-59788109D01*
X133126564Y-59853698D01*
X133171523Y-59902206D01*
X133193576Y-59928826D01*
X133194396Y-59930196D01*
X133196834Y-59948464D01*
X133187650Y-59978296D01*
X133164574Y-60023722D01*
X133125337Y-60088771D01*
X133067670Y-60177471D01*
X132990795Y-60291658D01*
X132922570Y-60392163D01*
X132861582Y-60482304D01*
X132811356Y-60556850D01*
X132775416Y-60610566D01*
X132757287Y-60638219D01*
X132756146Y-60640096D01*
X132758359Y-60666591D01*
X132775138Y-60718087D01*
X132803142Y-60784852D01*
X132813122Y-60806173D01*
X132856672Y-60901160D01*
X132903134Y-61008938D01*
X132940877Y-61102193D01*
X132968073Y-61171407D01*
X132989675Y-61224007D01*
X133002158Y-61251498D01*
X133003709Y-61253617D01*
X133026668Y-61257125D01*
X133080786Y-61266739D01*
X133158868Y-61281090D01*
X133253719Y-61298808D01*
X133358143Y-61318526D01*
X133464944Y-61338875D01*
X133566926Y-61358487D01*
X133656894Y-61375992D01*
X133727653Y-61390023D01*
X133772006Y-61399210D01*
X133782885Y-61401808D01*
X133794122Y-61408219D01*
X133802605Y-61422698D01*
X133808714Y-61450134D01*
X133812832Y-61495412D01*
X133815341Y-61563421D01*
X133816621Y-61659048D01*
X133817054Y-61787181D01*
X133817077Y-61839702D01*
X133817077Y-62266846D01*
X133714500Y-62287092D01*
X133657431Y-62298071D01*
X133572269Y-62314096D01*
X133469372Y-62333234D01*
X133359096Y-62353552D01*
X133328615Y-62359133D01*
X133226855Y-62378918D01*
X133138205Y-62398374D01*
X133070108Y-62415698D01*
X133030004Y-62429089D01*
X133023323Y-62433080D01*
X133006919Y-62461343D01*
X132983399Y-62516110D01*
X132957316Y-62586589D01*
X132952142Y-62601770D01*
X132917956Y-62695897D01*
X132875523Y-62802102D01*
X132833997Y-62897474D01*
X132833792Y-62897917D01*
X132764640Y-63047526D01*
X133219512Y-63716618D01*
X132927500Y-64009117D01*
X132839180Y-64096171D01*
X132758625Y-64172910D01*
X132690360Y-64235238D01*
X132638908Y-64279057D01*
X132608794Y-64300271D01*
X132604474Y-64301617D01*
X132579111Y-64291017D01*
X132527358Y-64261548D01*
X132454868Y-64216706D01*
X132367294Y-64159985D01*
X132272612Y-64096463D01*
X132176516Y-64031669D01*
X132090837Y-63975288D01*
X132021016Y-63930789D01*
X131972494Y-63901640D01*
X131950782Y-63891309D01*
X131924293Y-63900051D01*
X131874062Y-63923088D01*
X131810451Y-63955632D01*
X131803708Y-63959250D01*
X131718046Y-64002211D01*
X131659306Y-64023280D01*
X131622772Y-64023504D01*
X131603731Y-64003929D01*
X131603620Y-64003655D01*
X131594102Y-63980473D01*
X131571403Y-63925442D01*
X131537282Y-63842823D01*
X131493500Y-63736873D01*
X131441816Y-63611853D01*
X131383992Y-63472021D01*
X131327991Y-63336638D01*
X131266447Y-63187235D01*
X131209939Y-63048833D01*
X131160161Y-62925674D01*
X131118806Y-62822003D01*
X131087568Y-62742060D01*
X131068141Y-62690089D01*
X131062154Y-62670693D01*
X131077168Y-62648444D01*
X131116439Y-62612983D01*
X131168807Y-62573888D01*
X131317941Y-62450246D01*
X131434511Y-62308523D01*
X131517118Y-62151705D01*
X131564366Y-61982776D01*
X131574857Y-61804723D01*
X131567231Y-61722540D01*
X131525682Y-61552032D01*
X131454123Y-61401460D01*
X131356995Y-61272310D01*
X131238734Y-61166065D01*
X131103780Y-61084211D01*
X130956571Y-61028233D01*
X130801544Y-60999616D01*
X130643139Y-60999845D01*
X130485794Y-61030406D01*
X130333946Y-61092783D01*
X130192035Y-61188461D01*
X130132803Y-61242573D01*
X130019203Y-61381521D01*
X129940106Y-61533362D01*
X129894986Y-61693668D01*
X129883316Y-61858013D01*
X129904569Y-62021972D01*
X129958220Y-62181119D01*
X130043740Y-62331026D01*
X130160605Y-62467268D01*
X130291193Y-62573888D01*
X130345588Y-62614643D01*
X130384014Y-62649719D01*
X130397846Y-62670727D01*
X130390603Y-62693636D01*
X130370005Y-62748366D01*
X130337746Y-62830673D01*
X130295521Y-62936316D01*
X130245023Y-63061051D01*
X130187948Y-63200637D01*
X130131854Y-63336671D01*
X130069967Y-63486202D01*
X130012644Y-63624768D01*
X129961644Y-63748108D01*
X129918727Y-63851965D01*
X129885653Y-63932081D01*
X129864181Y-63984196D01*
X129856225Y-64003655D01*
X129837429Y-64023424D01*
X129801074Y-64023366D01*
X129742479Y-64002442D01*
X129656968Y-63959614D01*
X129656292Y-63959250D01*
X129591907Y-63926013D01*
X129539861Y-63901803D01*
X129510512Y-63891405D01*
X129509217Y-63891309D01*
X129487124Y-63901856D01*
X129438348Y-63931185D01*
X129368331Y-63975828D01*
X129282514Y-64032315D01*
X129187388Y-64096463D01*
X129090540Y-64161412D01*
X129003253Y-64217897D01*
X128931181Y-64262422D01*
X128879977Y-64291491D01*
X128855526Y-64301617D01*
X128833010Y-64288308D01*
X128787742Y-64251113D01*
X128724244Y-64194129D01*
X128647039Y-64121450D01*
X128560651Y-64037172D01*
X128532399Y-64009017D01*
X128240287Y-63716417D01*
X128462631Y-63390105D01*
X128530202Y-63289898D01*
X128589507Y-63199964D01*
X128637217Y-63125511D01*
X128670007Y-63071752D01*
X128684548Y-63043895D01*
X128684974Y-63041913D01*
X128677308Y-63015656D01*
X128656689Y-62962838D01*
X128626685Y-62892311D01*
X128605625Y-62845094D01*
X128566248Y-62754695D01*
X128529165Y-62663367D01*
X128500415Y-62586201D01*
X128492605Y-62562693D01*
X128470417Y-62499917D01*
X128448727Y-62451412D01*
X128436813Y-62433080D01*
X128410523Y-62421860D01*
X128353142Y-62405955D01*
X128272118Y-62387168D01*
X128174895Y-62367300D01*
X128131385Y-62359133D01*
X128020896Y-62338830D01*
X127914916Y-62319171D01*
X127823801Y-62302089D01*
X127757908Y-62289519D01*
X127745500Y-62287092D01*
X127642923Y-62266846D01*
X127642923Y-61839702D01*
X127643153Y-61699247D01*
X127644099Y-61592980D01*
X127646141Y-61516014D01*
X127649662Y-61463461D01*
X127655043Y-61430434D01*
X127662666Y-61412046D01*
X127672912Y-61403409D01*
X127677115Y-61401808D01*
X127702470Y-61396128D01*
X127758484Y-61384796D01*
X127837964Y-61369180D01*
X127933712Y-61350648D01*
X128038533Y-61330570D01*
X128145232Y-61310313D01*
X128246613Y-61291247D01*
X128335479Y-61274740D01*
X128404637Y-61262160D01*
X128446889Y-61254876D01*
X128456290Y-61253617D01*
X128464807Y-61236764D01*
X128483660Y-61191871D01*
X128509324Y-61127431D01*
X128519123Y-61102193D01*
X128558648Y-61004687D01*
X128605192Y-60896960D01*
X128646877Y-60806173D01*
X128677550Y-60736754D01*
X128697956Y-60679711D01*
X128704768Y-60644778D01*
X128703682Y-60640096D01*
X128689285Y-60617992D01*
X128656412Y-60568832D01*
X128608590Y-60497849D01*
X128549348Y-60410279D01*
X128482215Y-60311358D01*
X128468941Y-60291831D01*
X128391046Y-60176141D01*
X128333787Y-60088045D01*
X128294881Y-60023487D01*
X128272044Y-59978412D01*
X128262994Y-59948764D01*
X128265448Y-59930486D01*
X128265511Y-59930370D01*
X128284827Y-59906362D01*
X128327551Y-59859948D01*
X128389051Y-59795938D01*
X128464698Y-59719146D01*
X128549861Y-59634383D01*
X128559465Y-59624923D01*
X128666790Y-59520990D01*
X128749615Y-59444676D01*
X128809605Y-59394572D01*
X128848423Y-59369271D01*
X128865520Y-59366005D01*
X128890473Y-59380251D01*
X128942255Y-59413157D01*
X129015520Y-59461209D01*
X129104920Y-59520891D01*
X129205111Y-59588689D01*
X129228501Y-59604640D01*
X129560593Y-59831421D01*
X129710565Y-59763354D01*
X129801770Y-59723686D01*
X129899669Y-59683792D01*
X129983831Y-59651984D01*
X129987538Y-59650675D01*
X130053369Y-59626577D01*
X130104116Y-59606201D01*
X130128842Y-59593937D01*
X130128884Y-59593902D01*
X130136729Y-59571735D01*
X130150066Y-59517218D01*
X130167570Y-59436481D01*
X130187917Y-59335651D01*
X130209782Y-59220857D01*
X130211571Y-59211179D01*
X130233504Y-59092905D01*
X130253640Y-58985543D01*
X130270680Y-58895918D01*
X130283328Y-58830852D01*
X130290284Y-58797169D01*
X130290406Y-58796655D01*
X130294639Y-58782326D01*
X130302871Y-58771508D01*
X130320033Y-58763707D01*
X130351058Y-58758430D01*
X130400878Y-58755183D01*
X130474424Y-58753473D01*
X130576629Y-58752808D01*
X130712425Y-58752694D01*
X130730000Y-58752693D01*
X130869878Y-58752777D01*
G36*
X130869878Y-58752777D02*
G01*
X130975612Y-58753356D01*
X131052132Y-58754923D01*
X131104372Y-58757973D01*
X131137263Y-58762997D01*
X131155737Y-58770490D01*
X131164727Y-58780945D01*
X131169163Y-58794854D01*
X131169594Y-58796655D01*
X131176333Y-58829146D01*
X131188808Y-58893253D01*
X131205719Y-58982152D01*
X131225771Y-59089020D01*
X131247664Y-59207034D01*
X131248429Y-59211179D01*
X131270359Y-59326832D01*
X131290877Y-59429015D01*
X131308659Y-59511599D01*
X131322381Y-59568457D01*
X131330718Y-59593459D01*
X131331116Y-59593902D01*
X131355677Y-59606111D01*
X131406315Y-59626457D01*
X131472095Y-59650546D01*
X131472461Y-59650675D01*
X131555317Y-59681819D01*
X131653000Y-59721492D01*
X131745077Y-59761382D01*
X131749434Y-59763354D01*
X131899407Y-59831421D01*
X132231498Y-59604640D01*
X132333374Y-59535505D01*
X132425657Y-59473698D01*
X132503003Y-59422734D01*
X132560064Y-59386128D01*
X132591495Y-59367395D01*
X132594479Y-59366005D01*
X132617321Y-59372191D01*
X132659982Y-59402036D01*
X132724128Y-59456948D01*
X132811421Y-59538335D01*
X132900535Y-59624923D01*
X132986441Y-59710248D01*
X133063327Y-59788109D01*
X133126564Y-59853698D01*
X133171523Y-59902206D01*
X133193576Y-59928826D01*
X133194396Y-59930196D01*
X133196834Y-59948464D01*
X133187650Y-59978296D01*
X133164574Y-60023722D01*
X133125337Y-60088771D01*
X133067670Y-60177471D01*
X132990795Y-60291658D01*
X132922570Y-60392163D01*
X132861582Y-60482304D01*
X132811356Y-60556850D01*
X132775416Y-60610566D01*
X132757287Y-60638219D01*
X132756146Y-60640096D01*
X132758359Y-60666591D01*
X132775138Y-60718087D01*
X132803142Y-60784852D01*
X132813122Y-60806173D01*
X132856672Y-60901160D01*
X132903134Y-61008938D01*
X132940877Y-61102193D01*
X132968073Y-61171407D01*
X132989675Y-61224007D01*
X133002158Y-61251498D01*
X133003709Y-61253617D01*
X133026668Y-61257125D01*
X133080786Y-61266739D01*
X133158868Y-61281090D01*
X133253719Y-61298808D01*
X133358143Y-61318526D01*
X133464944Y-61338875D01*
X133566926Y-61358487D01*
X133656894Y-61375992D01*
X133727653Y-61390023D01*
X133772006Y-61399210D01*
X133782885Y-61401808D01*
X133794122Y-61408219D01*
X133802605Y-61422698D01*
X133808714Y-61450134D01*
X133812832Y-61495412D01*
X133815341Y-61563421D01*
X133816621Y-61659048D01*
X133817054Y-61787181D01*
X133817077Y-61839702D01*
X133817077Y-62266846D01*
X133714500Y-62287092D01*
X133657431Y-62298071D01*
X133572269Y-62314096D01*
X133469372Y-62333234D01*
X133359096Y-62353552D01*
X133328615Y-62359133D01*
X133226855Y-62378918D01*
X133138205Y-62398374D01*
X133070108Y-62415698D01*
X133030004Y-62429089D01*
X133023323Y-62433080D01*
X133006919Y-62461343D01*
X132983399Y-62516110D01*
X132957316Y-62586589D01*
X132952142Y-62601770D01*
X132917956Y-62695897D01*
X132875523Y-62802102D01*
X132833997Y-62897474D01*
X132833792Y-62897917D01*
X132764640Y-63047526D01*
X133219512Y-63716618D01*
X132927500Y-64009117D01*
X132839180Y-64096171D01*
X132758625Y-64172910D01*
X132690360Y-64235238D01*
X132638908Y-64279057D01*
X132608794Y-64300271D01*
X132604474Y-64301617D01*
X132579111Y-64291017D01*
X132527358Y-64261548D01*
X132454868Y-64216706D01*
X132367294Y-64159985D01*
X132272612Y-64096463D01*
X132176516Y-64031669D01*
X132090837Y-63975288D01*
X132021016Y-63930789D01*
X131972494Y-63901640D01*
X131950782Y-63891309D01*
X131924293Y-63900051D01*
X131874062Y-63923088D01*
X131810451Y-63955632D01*
X131803708Y-63959250D01*
X131718046Y-64002211D01*
X131659306Y-64023280D01*
X131622772Y-64023504D01*
X131603731Y-64003929D01*
X131603620Y-64003655D01*
X131594102Y-63980473D01*
X131571403Y-63925442D01*
X131537282Y-63842823D01*
X131493500Y-63736873D01*
X131441816Y-63611853D01*
X131383992Y-63472021D01*
X131327991Y-63336638D01*
X131266447Y-63187235D01*
X131209939Y-63048833D01*
X131160161Y-62925674D01*
X131118806Y-62822003D01*
X131087568Y-62742060D01*
X131068141Y-62690089D01*
X131062154Y-62670693D01*
X131077168Y-62648444D01*
X131116439Y-62612983D01*
X131168807Y-62573888D01*
X131317941Y-62450246D01*
X131434511Y-62308523D01*
X131517118Y-62151705D01*
X131564366Y-61982776D01*
X131574857Y-61804723D01*
X131567231Y-61722540D01*
X131525682Y-61552032D01*
X131454123Y-61401460D01*
X131356995Y-61272310D01*
X131238734Y-61166065D01*
X131103780Y-61084211D01*
X130956571Y-61028233D01*
X130801544Y-60999616D01*
X130643139Y-60999845D01*
X130485794Y-61030406D01*
X130333946Y-61092783D01*
X130192035Y-61188461D01*
X130132803Y-61242573D01*
X130019203Y-61381521D01*
X129940106Y-61533362D01*
X129894986Y-61693668D01*
X129883316Y-61858013D01*
X129904569Y-62021972D01*
X129958220Y-62181119D01*
X130043740Y-62331026D01*
X130160605Y-62467268D01*
X130291193Y-62573888D01*
X130345588Y-62614643D01*
X130384014Y-62649719D01*
X130397846Y-62670727D01*
X130390603Y-62693636D01*
X130370005Y-62748366D01*
X130337746Y-62830673D01*
X130295521Y-62936316D01*
X130245023Y-63061051D01*
X130187948Y-63200637D01*
X130131854Y-63336671D01*
X130069967Y-63486202D01*
X130012644Y-63624768D01*
X129961644Y-63748108D01*
X129918727Y-63851965D01*
X129885653Y-63932081D01*
X129864181Y-63984196D01*
X129856225Y-64003655D01*
X129837429Y-64023424D01*
X129801074Y-64023366D01*
X129742479Y-64002442D01*
X129656968Y-63959614D01*
X129656292Y-63959250D01*
X129591907Y-63926013D01*
X129539861Y-63901803D01*
X129510512Y-63891405D01*
X129509217Y-63891309D01*
X129487124Y-63901856D01*
X129438348Y-63931185D01*
X129368331Y-63975828D01*
X129282514Y-64032315D01*
X129187388Y-64096463D01*
X129090540Y-64161412D01*
X129003253Y-64217897D01*
X128931181Y-64262422D01*
X128879977Y-64291491D01*
X128855526Y-64301617D01*
X128833010Y-64288308D01*
X128787742Y-64251113D01*
X128724244Y-64194129D01*
X128647039Y-64121450D01*
X128560651Y-64037172D01*
X128532399Y-64009017D01*
X128240287Y-63716417D01*
X128462631Y-63390105D01*
X128530202Y-63289898D01*
X128589507Y-63199964D01*
X128637217Y-63125511D01*
X128670007Y-63071752D01*
X128684548Y-63043895D01*
X128684974Y-63041913D01*
X128677308Y-63015656D01*
X128656689Y-62962838D01*
X128626685Y-62892311D01*
X128605625Y-62845094D01*
X128566248Y-62754695D01*
X128529165Y-62663367D01*
X128500415Y-62586201D01*
X128492605Y-62562693D01*
X128470417Y-62499917D01*
X128448727Y-62451412D01*
X128436813Y-62433080D01*
X128410523Y-62421860D01*
X128353142Y-62405955D01*
X128272118Y-62387168D01*
X128174895Y-62367300D01*
X128131385Y-62359133D01*
X128020896Y-62338830D01*
X127914916Y-62319171D01*
X127823801Y-62302089D01*
X127757908Y-62289519D01*
X127745500Y-62287092D01*
X127642923Y-62266846D01*
X127642923Y-61839702D01*
X127643153Y-61699247D01*
X127644099Y-61592980D01*
X127646141Y-61516014D01*
X127649662Y-61463461D01*
X127655043Y-61430434D01*
X127662666Y-61412046D01*
X127672912Y-61403409D01*
X127677115Y-61401808D01*
X127702470Y-61396128D01*
X127758484Y-61384796D01*
X127837964Y-61369180D01*
X127933712Y-61350648D01*
X128038533Y-61330570D01*
X128145232Y-61310313D01*
X128246613Y-61291247D01*
X128335479Y-61274740D01*
X128404637Y-61262160D01*
X128446889Y-61254876D01*
X128456290Y-61253617D01*
X128464807Y-61236764D01*
X128483660Y-61191871D01*
X128509324Y-61127431D01*
X128519123Y-61102193D01*
X128558648Y-61004687D01*
X128605192Y-60896960D01*
X128646877Y-60806173D01*
X128677550Y-60736754D01*
X128697956Y-60679711D01*
X128704768Y-60644778D01*
X128703682Y-60640096D01*
X128689285Y-60617992D01*
X128656412Y-60568832D01*
X128608590Y-60497849D01*
X128549348Y-60410279D01*
X128482215Y-60311358D01*
X128468941Y-60291831D01*
X128391046Y-60176141D01*
X128333787Y-60088045D01*
X128294881Y-60023487D01*
X128272044Y-59978412D01*
X128262994Y-59948764D01*
X128265448Y-59930486D01*
X128265511Y-59930370D01*
X128284827Y-59906362D01*
X128327551Y-59859948D01*
X128389051Y-59795938D01*
X128464698Y-59719146D01*
X128549861Y-59634383D01*
X128559465Y-59624923D01*
X128666790Y-59520990D01*
X128749615Y-59444676D01*
X128809605Y-59394572D01*
X128848423Y-59369271D01*
X128865520Y-59366005D01*
X128890473Y-59380251D01*
X128942255Y-59413157D01*
X129015520Y-59461209D01*
X129104920Y-59520891D01*
X129205111Y-59588689D01*
X129228501Y-59604640D01*
X129560593Y-59831421D01*
X129710565Y-59763354D01*
X129801770Y-59723686D01*
X129899669Y-59683792D01*
X129983831Y-59651984D01*
X129987538Y-59650675D01*
X130053369Y-59626577D01*
X130104116Y-59606201D01*
X130128842Y-59593937D01*
X130128884Y-59593902D01*
X130136729Y-59571735D01*
X130150066Y-59517218D01*
X130167570Y-59436481D01*
X130187917Y-59335651D01*
X130209782Y-59220857D01*
X130211571Y-59211179D01*
X130233504Y-59092905D01*
X130253640Y-58985543D01*
X130270680Y-58895918D01*
X130283328Y-58830852D01*
X130290284Y-58797169D01*
X130290406Y-58796655D01*
X130294639Y-58782326D01*
X130302871Y-58771508D01*
X130320033Y-58763707D01*
X130351058Y-58758430D01*
X130400878Y-58755183D01*
X130474424Y-58753473D01*
X130576629Y-58752808D01*
X130712425Y-58752694D01*
X130730000Y-58752693D01*
X130869878Y-58752777D01*
G37*
D14*
%TO.C,C421*%
X113735000Y-87540001D02*
X117585000Y-87540001D01*
X113735000Y-97195564D02*
X113735000Y-87540001D01*
X114799437Y-98260001D02*
X113735000Y-97195564D01*
X114799437Y-98260001D02*
X117585000Y-98260001D01*
X115710000Y-99125001D02*
X116960000Y-99125001D01*
X116335000Y-99750001D02*
X116335000Y-98500001D01*
X123390563Y-98260001D02*
X120605000Y-98260001D01*
X123390563Y-98260001D02*
X124455000Y-97195564D01*
X124455000Y-87540001D02*
X120605000Y-87540001D01*
X124455000Y-97195564D02*
X124455000Y-87540001D01*
%TO.C,J200*%
X42110000Y-145715000D02*
X47630000Y-145715000D01*
X42110000Y-150715000D02*
X42110000Y-145715000D01*
X47630000Y-145715000D02*
X47630000Y-146715000D01*
X49130000Y-146715000D02*
X47630000Y-146715000D01*
X51670000Y-146715000D02*
X50869000Y-146715000D01*
X54210000Y-146715000D02*
X53409000Y-146715000D01*
X56750000Y-146715000D02*
X55949000Y-146715000D01*
X59290000Y-146715000D02*
X58489000Y-146715000D01*
X61830000Y-146715000D02*
X61029000Y-146715000D01*
X64370000Y-146715000D02*
X63569000Y-146715000D01*
X66910000Y-146715000D02*
X66109000Y-146715000D01*
X69450000Y-146715000D02*
X68649000Y-146715000D01*
X71990000Y-146715000D02*
X71189000Y-146715000D01*
X74530000Y-146715000D02*
X73729000Y-146715000D01*
X77070000Y-146715000D02*
X76269000Y-146715000D01*
X79610000Y-146715000D02*
X78809000Y-146715000D01*
X82150000Y-146715000D02*
X81349000Y-146715000D01*
X84690000Y-146715000D02*
X83889000Y-146715000D01*
X87230000Y-146715000D02*
X86429000Y-146715000D01*
X89770000Y-146715000D02*
X88969000Y-146715000D01*
X92310000Y-146715000D02*
X91509000Y-146715000D01*
X94850000Y-146715000D02*
X94049000Y-146715000D01*
X97390000Y-146715000D02*
X96589000Y-146715000D01*
X99930000Y-146715000D02*
X99129000Y-146715000D01*
X102470000Y-146715000D02*
X101669000Y-146715000D01*
X105010000Y-146715000D02*
X104209000Y-146715000D01*
X107550000Y-146715000D02*
X106749000Y-146715000D01*
X110090000Y-146715000D02*
X109289000Y-146715000D01*
X112630000Y-146715000D02*
X111829000Y-146715000D01*
X115170000Y-146715000D02*
X114369000Y-146715000D01*
X117710000Y-146715000D02*
X116909000Y-146715000D01*
X120250000Y-146715000D02*
X119449000Y-146715000D01*
X122790000Y-146715000D02*
X121989000Y-146715000D01*
X125330000Y-146715000D02*
X124529000Y-146715000D01*
X127645000Y-146715000D02*
X127069000Y-146715000D01*
X129835000Y-145975000D02*
X130435000Y-146275000D01*
X130435000Y-145675000D02*
X129835000Y-145975000D01*
X130435000Y-146275000D02*
X130435000Y-145675000D01*
X131110000Y-145715000D02*
X131110000Y-146715000D01*
X131111000Y-146715000D02*
X129835000Y-146715000D01*
X136630000Y-145715000D02*
X131110000Y-145715000D01*
X136630000Y-150715000D02*
X136630000Y-145715000D01*
%TO.C,C420*%
X117010000Y-118130001D02*
X119860000Y-118130001D01*
X117010000Y-125785564D02*
X117010000Y-118130001D01*
X118074437Y-126850001D02*
X117010000Y-125785564D01*
X118074437Y-126850001D02*
X119860000Y-126850001D01*
X118360000Y-127590001D02*
X119360000Y-127590001D01*
X118860000Y-128090001D02*
X118860000Y-127090001D01*
X124665563Y-126850001D02*
X122880000Y-126850001D01*
X124665563Y-126850001D02*
X125730000Y-125785564D01*
X125730000Y-118130001D02*
X122880000Y-118130001D01*
X125730000Y-125785564D02*
X125730000Y-118130001D01*
D10*
%TO.C,L400*%
X103765000Y-114680001D02*
X107035000Y-114680001D01*
X103765000Y-127340001D02*
X103765000Y-114680001D01*
X107035000Y-127340001D02*
X103765000Y-127340001D01*
X113155000Y-127340001D02*
X116425000Y-127340001D01*
X116425000Y-114680001D02*
X113155000Y-114680001D01*
X116425000Y-127340001D02*
X116425000Y-114680001D01*
D13*
%TO.C,J400*%
X93720000Y-51647501D02*
X109220000Y-51647501D01*
X93720000Y-60647501D02*
X93720000Y-51647501D01*
X93720000Y-64647501D02*
X93720000Y-69497501D01*
X93720000Y-69497501D02*
X95470000Y-69497501D01*
X107470000Y-69497501D02*
X109220000Y-69497501D01*
X109220000Y-51647501D02*
X109220000Y-60647501D01*
X109220000Y-69497501D02*
X109220000Y-64647501D01*
%TO.C,LED400*%
X110870000Y-59925844D02*
X110870000Y-51925844D01*
X112670000Y-53450844D02*
X112670000Y-54350844D01*
X112670000Y-54350844D02*
X113870000Y-53900844D01*
X112970000Y-54425844D02*
X113370000Y-54825844D01*
X113370000Y-54825844D02*
X113070000Y-54825844D01*
X113420000Y-54325844D02*
X113820000Y-54725844D01*
X113820000Y-54725844D02*
X113520000Y-54725844D01*
X113870000Y-53450844D02*
X113870000Y-54350844D01*
X113870000Y-53900844D02*
X111870000Y-53900844D01*
X113870000Y-53900844D02*
X112670000Y-53450844D01*
X113870000Y-53900844D02*
X114570000Y-53900844D01*
X115670000Y-51925844D02*
X115670000Y-59925844D01*
X115670000Y-59925844D02*
X110870000Y-59925844D01*
%TD*%
M02*
