%TF.GenerationSoftware,KiCad,Pcbnew,8.0.9-8.0.9-0~ubuntu24.04.1*%
%TF.CreationDate,2025-02-21T00:59:10+00:00*%
%TF.ProjectId,TPB,5450422e-6b69-4636-9164-5f7063625858,1.0.0*%
%TF.SameCoordinates,Original*%
%TF.FileFunction,Soldermask,Bot*%
%TF.FilePolarity,Negative*%
%FSLAX46Y46*%
G04 Gerber Fmt 4.6, Leading zero omitted, Abs format (unit mm)*
G04 Created by KiCad (PCBNEW 8.0.9-8.0.9-0~ubuntu24.04.1) date 2025-02-21 00:59:10*
%MOMM*%
%LPD*%
G01*
G04 APERTURE LIST*
G04 Aperture macros list*
%AMRoundRect*
0 Rectangle with rounded corners*
0 $1 Rounding radius*
0 $2 $3 $4 $5 $6 $7 $8 $9 X,Y pos of 4 corners*
0 Add a 4 corners polygon primitive as box body*
4,1,4,$2,$3,$4,$5,$6,$7,$8,$9,$2,$3,0*
0 Add four circle primitives for the rounded corners*
1,1,$1+$1,$2,$3*
1,1,$1+$1,$4,$5*
1,1,$1+$1,$6,$7*
1,1,$1+$1,$8,$9*
0 Add four rect primitives between the rounded corners*
20,1,$1+$1,$2,$3,$4,$5,0*
20,1,$1+$1,$4,$5,$6,$7,0*
20,1,$1+$1,$6,$7,$8,$9,0*
20,1,$1+$1,$8,$9,$2,$3,0*%
G04 Aperture macros list end*
%ADD10C,2.850000*%
%ADD11RoundRect,0.249999X0.525001X0.525001X-0.525001X0.525001X-0.525001X-0.525001X0.525001X-0.525001X0*%
%ADD12C,1.550000*%
%ADD13C,2.700000*%
%ADD14RoundRect,0.250000X-1.775000X-1.775000X1.775000X-1.775000X1.775000X1.775000X-1.775000X1.775000X0*%
%ADD15C,4.050000*%
%ADD16C,1.600000*%
G04 APERTURE END LIST*
D10*
%TO.C,J200*%
X133820000Y-148515000D03*
X44920000Y-148515000D03*
D11*
X128740000Y-145975000D03*
D12*
X126200000Y-145975000D03*
X123660000Y-145975000D03*
X121120000Y-145975000D03*
X118580000Y-145975000D03*
X116040000Y-145975000D03*
X113500000Y-145975000D03*
X110960000Y-145975000D03*
X108420000Y-145975000D03*
X105880000Y-145975000D03*
X103340000Y-145975000D03*
X100800000Y-145975000D03*
X98260000Y-145975000D03*
X95720000Y-145975000D03*
X93180000Y-145975000D03*
X90640000Y-145975000D03*
X88100000Y-145975000D03*
X85560000Y-145975000D03*
X83020000Y-145975000D03*
X80480000Y-145975000D03*
X77940000Y-145975000D03*
X75400000Y-145975000D03*
X72860000Y-145975000D03*
X70320000Y-145975000D03*
X67780000Y-145975000D03*
X65240000Y-145975000D03*
X62700000Y-145975000D03*
X60160000Y-145975000D03*
X57620000Y-145975000D03*
X55080000Y-145975000D03*
X52540000Y-145975000D03*
X50000000Y-145975000D03*
X128740000Y-143435000D03*
X126200000Y-143435000D03*
X123660000Y-143435000D03*
X121120000Y-143435000D03*
X118580000Y-143435000D03*
X116040000Y-143435000D03*
X113500000Y-143435000D03*
X110960000Y-143435000D03*
X108420000Y-143435000D03*
X105880000Y-143435000D03*
X103340000Y-143435000D03*
X100800000Y-143435000D03*
X98260000Y-143435000D03*
X95720000Y-143435000D03*
X93180000Y-143435000D03*
X90640000Y-143435000D03*
X88100000Y-143435000D03*
X85560000Y-143435000D03*
X83020000Y-143435000D03*
X80480000Y-143435000D03*
X77940000Y-143435000D03*
X75400000Y-143435000D03*
X72860000Y-143435000D03*
X70320000Y-143435000D03*
X67780000Y-143435000D03*
X65240000Y-143435000D03*
X62700000Y-143435000D03*
X60160000Y-143435000D03*
X57620000Y-143435000D03*
X55080000Y-143435000D03*
X52540000Y-143435000D03*
X50000000Y-143435000D03*
X128740000Y-140895000D03*
X126200000Y-140895000D03*
X123660000Y-140895000D03*
X121120000Y-140895000D03*
X118580000Y-140895000D03*
X116040000Y-140895000D03*
X113500000Y-140895000D03*
X110960000Y-140895000D03*
X108420000Y-140895000D03*
X105880000Y-140895000D03*
X103340000Y-140895000D03*
X100800000Y-140895000D03*
X98260000Y-140895000D03*
X95720000Y-140895000D03*
X93180000Y-140895000D03*
X90640000Y-140895000D03*
X88100000Y-140895000D03*
X85560000Y-140895000D03*
X83020000Y-140895000D03*
X80480000Y-140895000D03*
X77940000Y-140895000D03*
X75400000Y-140895000D03*
X72860000Y-140895000D03*
X70320000Y-140895000D03*
X67780000Y-140895000D03*
X65240000Y-140895000D03*
X62700000Y-140895000D03*
X60160000Y-140895000D03*
X57620000Y-140895000D03*
X55080000Y-140895000D03*
X52540000Y-140895000D03*
X50000000Y-140895000D03*
%TD*%
D13*
%TO.C,J400*%
X94720000Y-61647501D03*
X108220000Y-61647501D03*
D14*
X105070000Y-67647501D03*
D15*
X97870000Y-67647501D03*
%TD*%
D16*
%TO.C,LED400*%
X111983600Y-55725844D03*
X114523600Y-55725844D03*
X111983600Y-58265844D03*
X114523600Y-58265844D03*
%TD*%
M02*
