M48
; DRILL file {KiCad 8.0.9-8.0.9-0~ubuntu24.04.1} date 2025-02-20T23:41:24+0000
; FORMAT={-:-/ absolute / metric / decimal}
; #@! TF.CreationDate,2025-02-20T23:41:24+00:00
; #@! TF.GenerationSoftware,Kicad,Pcbnew,8.0.9-8.0.9-0~ubuntu24.04.1
; #@! TF.FileFunction,MixedPlating,1,2
FMAT,2
METRIC
; #@! TA.AperFunction,Plated,PTH,ViaDrill
T1C0.300
; #@! TA.AperFunction,Plated,PTH,ComponentDrill
T2C1.000
; #@! TA.AperFunction,Plated,PTH,ComponentDrill
T3C1.800
; #@! TA.AperFunction,Plated,PTH,ComponentDrill
T4C2.700
; #@! TA.AperFunction,NonPlated,NPTH,ComponentDrill
T5C2.850
%
G90
G05
T1
X42.969Y-52.549
X42.969Y-60.549
X42.969Y-64.549
X42.969Y-68.549
X42.969Y-72.549
X42.969Y-76.549
X42.969Y-80.549
X42.969Y-84.549
X42.969Y-88.549
X42.969Y-92.549
X42.969Y-96.549
X42.969Y-100.549
X42.969Y-104.549
X42.969Y-108.549
X42.969Y-112.549
X42.969Y-116.549
X42.969Y-120.549
X42.969Y-124.549
X42.969Y-128.549
X42.969Y-132.549
X42.969Y-136.549
X42.969Y-140.549
X42.969Y-144.549
X42.969Y-148.549
X46.969Y-52.549
X46.969Y-60.549
X46.969Y-64.549
X46.969Y-68.549
X46.969Y-72.549
X46.969Y-76.549
X46.969Y-80.549
X46.969Y-84.549
X46.969Y-88.549
X46.969Y-92.549
X46.969Y-96.549
X46.969Y-100.549
X46.969Y-104.549
X46.969Y-108.549
X46.969Y-112.549
X46.969Y-116.549
X46.969Y-120.549
X46.969Y-124.549
X46.969Y-128.549
X46.969Y-132.549
X46.969Y-136.549
X46.969Y-140.549
X46.969Y-144.549
X46.969Y-148.549
X50.969Y-52.549
X50.969Y-56.549
X50.969Y-60.549
X50.969Y-64.549
X50.969Y-68.549
X50.969Y-72.549
X50.969Y-76.549
X50.969Y-80.549
X50.969Y-84.549
X50.969Y-88.549
X50.969Y-92.549
X50.969Y-96.549
X50.969Y-100.549
X50.969Y-104.549
X50.969Y-108.549
X50.969Y-112.549
X50.969Y-116.549
X50.969Y-120.549
X50.969Y-124.549
X50.969Y-128.549
X50.969Y-132.549
X50.969Y-136.549
X50.969Y-148.549
X54.969Y-52.549
X54.969Y-56.549
X54.969Y-60.549
X54.969Y-64.549
X54.969Y-68.549
X54.969Y-72.549
X54.969Y-76.549
X54.969Y-80.549
X54.969Y-84.549
X54.969Y-88.549
X54.969Y-92.549
X54.969Y-96.549
X54.969Y-100.549
X54.969Y-104.549
X54.969Y-108.549
X54.969Y-112.549
X54.969Y-116.549
X54.969Y-120.549
X54.969Y-124.549
X54.969Y-128.549
X54.969Y-132.549
X54.969Y-136.549
X54.969Y-148.549
X58.969Y-52.549
X58.969Y-56.549
X58.969Y-60.549
X58.969Y-64.549
X58.969Y-68.549
X58.969Y-72.549
X58.969Y-76.549
X58.969Y-80.549
X58.969Y-84.549
X58.969Y-88.549
X58.969Y-92.549
X58.969Y-96.549
X58.969Y-100.549
X58.969Y-104.549
X58.969Y-108.549
X58.969Y-112.549
X58.969Y-116.549
X58.969Y-120.549
X58.969Y-124.549
X58.969Y-128.549
X58.969Y-132.549
X58.969Y-136.549
X58.969Y-144.549
X58.969Y-148.549
X62.969Y-52.549
X62.969Y-56.549
X62.969Y-60.549
X62.969Y-64.549
X62.969Y-68.549
X62.969Y-72.549
X62.969Y-76.549
X62.969Y-80.549
X62.969Y-84.549
X62.969Y-88.549
X62.969Y-92.549
X62.969Y-96.549
X62.969Y-100.549
X62.969Y-104.549
X62.969Y-108.549
X62.969Y-112.549
X62.969Y-116.549
X62.969Y-120.549
X62.969Y-124.549
X62.969Y-128.549
X62.969Y-132.549
X62.969Y-136.549
X62.969Y-148.549
X66.969Y-52.549
X66.969Y-56.549
X66.969Y-60.549
X66.969Y-64.549
X66.969Y-68.549
X66.969Y-72.549
X66.969Y-76.549
X66.969Y-80.549
X66.969Y-84.549
X66.969Y-88.549
X66.969Y-92.549
X66.969Y-96.549
X66.969Y-100.549
X66.969Y-104.549
X66.969Y-108.549
X66.969Y-112.549
X66.969Y-116.549
X66.969Y-120.549
X66.969Y-124.549
X66.969Y-128.549
X66.969Y-132.549
X66.969Y-136.549
X66.969Y-148.549
X70.969Y-52.549
X70.969Y-56.549
X70.969Y-60.549
X70.969Y-64.549
X70.969Y-68.549
X70.969Y-72.549
X70.969Y-76.549
X70.969Y-80.549
X70.969Y-84.549
X70.969Y-88.549
X70.969Y-92.549
X70.969Y-96.549
X70.969Y-100.549
X70.969Y-104.549
X70.969Y-108.549
X70.969Y-112.549
X70.969Y-116.549
X70.969Y-120.549
X70.969Y-124.549
X70.969Y-128.549
X70.969Y-132.549
X70.969Y-136.549
X70.969Y-148.549
X74.969Y-52.549
X74.969Y-56.549
X74.969Y-60.549
X74.969Y-64.549
X74.969Y-68.549
X74.969Y-72.549
X74.969Y-76.549
X74.969Y-80.549
X74.969Y-84.549
X74.969Y-88.549
X74.969Y-92.549
X74.969Y-96.549
X74.969Y-100.549
X74.969Y-104.549
X74.969Y-108.549
X74.969Y-112.549
X74.969Y-116.549
X74.969Y-120.549
X74.969Y-124.549
X74.969Y-128.549
X74.969Y-132.549
X74.969Y-136.549
X74.969Y-148.549
X78.969Y-52.549
X78.969Y-56.549
X78.969Y-60.549
X78.969Y-64.549
X78.969Y-68.549
X78.969Y-72.549
X78.969Y-76.549
X78.969Y-80.549
X78.969Y-84.549
X78.969Y-88.549
X78.969Y-92.549
X78.969Y-96.549
X78.969Y-100.549
X78.969Y-104.549
X78.969Y-108.549
X78.969Y-112.549
X78.969Y-116.549
X78.969Y-120.549
X78.969Y-124.549
X78.969Y-128.549
X78.969Y-132.549
X78.969Y-136.549
X78.969Y-144.549
X78.969Y-148.549
X82.969Y-52.549
X82.969Y-56.549
X82.969Y-60.549
X82.969Y-64.549
X82.969Y-68.549
X82.969Y-72.549
X82.969Y-76.549
X82.969Y-80.549
X82.969Y-84.549
X82.969Y-88.549
X82.969Y-92.549
X82.969Y-96.549
X82.969Y-100.549
X82.969Y-104.549
X82.969Y-108.549
X82.969Y-112.549
X82.969Y-116.549
X82.969Y-120.549
X82.969Y-124.549
X82.969Y-128.549
X82.969Y-132.549
X82.969Y-136.549
X82.969Y-148.549
X86.969Y-52.549
X86.969Y-56.549
X86.969Y-60.549
X86.969Y-64.549
X86.969Y-68.549
X86.969Y-72.549
X86.969Y-76.549
X86.969Y-80.549
X86.969Y-84.549
X86.969Y-88.549
X86.969Y-92.549
X86.969Y-96.549
X86.969Y-100.549
X86.969Y-104.549
X86.969Y-108.549
X86.969Y-112.549
X86.969Y-116.549
X86.969Y-120.549
X86.969Y-124.549
X86.969Y-128.549
X86.969Y-132.549
X86.969Y-136.549
X86.969Y-144.549
X86.969Y-148.549
X90.969Y-52.549
X90.969Y-56.549
X90.969Y-60.549
X90.969Y-64.549
X90.969Y-68.549
X90.969Y-72.549
X90.969Y-76.549
X90.969Y-80.549
X90.969Y-84.549
X90.969Y-88.549
X90.969Y-92.549
X90.969Y-96.549
X90.969Y-100.549
X90.969Y-104.549
X90.969Y-108.549
X90.969Y-112.549
X90.969Y-116.549
X90.969Y-120.549
X90.969Y-124.549
X90.969Y-128.549
X90.969Y-132.549
X90.969Y-136.549
X90.969Y-148.549
X94.969Y-52.549
X94.969Y-56.549
X94.969Y-64.549
X94.969Y-68.549
X94.969Y-72.549
X94.969Y-76.549
X94.969Y-80.549
X94.969Y-84.549
X94.969Y-88.549
X94.969Y-92.549
X94.969Y-96.549
X94.969Y-100.549
X94.969Y-104.549
X94.969Y-108.549
X94.969Y-112.549
X94.969Y-116.549
X94.969Y-120.549
X94.969Y-124.549
X94.969Y-128.549
X94.969Y-132.549
X94.969Y-136.549
X94.969Y-148.549
X98.969Y-52.549
X98.969Y-56.549
X98.969Y-60.549
X98.969Y-64.549
X98.969Y-72.549
X98.969Y-76.549
X98.969Y-80.549
X98.969Y-148.549
X102.969Y-52.549
X102.969Y-56.549
X102.969Y-60.549
X102.969Y-148.549
X106.969Y-52.549
X106.969Y-56.549
X106.969Y-120.549
X106.969Y-132.549
X106.969Y-136.549
X106.969Y-144.549
X106.969Y-148.549
X110.969Y-52.549
X110.969Y-60.549
X110.969Y-120.549
X110.969Y-132.549
X110.969Y-136.549
X110.969Y-148.549
X114.969Y-52.549
X114.969Y-64.549
X114.969Y-68.549
X114.969Y-72.549
X114.969Y-76.549
X114.969Y-80.549
X114.969Y-116.549
X114.969Y-120.549
X114.969Y-124.549
X114.969Y-136.549
X114.969Y-144.549
X114.969Y-148.549
X118.969Y-52.549
X118.969Y-60.549
X118.969Y-68.549
X118.969Y-72.549
X118.969Y-76.549
X118.969Y-80.549
X118.969Y-84.549
X118.969Y-92.549
X118.969Y-148.549
X122.27Y-133.485
X122.969Y-52.549
X122.969Y-56.549
X122.969Y-60.549
X122.969Y-64.549
X122.969Y-72.549
X122.969Y-76.549
X122.969Y-80.549
X122.969Y-84.549
X122.969Y-88.549
X122.969Y-92.549
X122.969Y-96.549
X122.969Y-108.549
X122.969Y-112.549
X122.969Y-148.549
X126.969Y-52.549
X126.969Y-56.549
X126.969Y-60.549
X126.969Y-64.549
X126.969Y-68.549
X126.969Y-76.549
X126.969Y-80.549
X126.969Y-84.549
X126.969Y-88.549
X126.969Y-92.549
X126.969Y-96.549
X126.969Y-100.549
X126.969Y-104.549
X126.969Y-108.549
X126.969Y-112.549
X126.969Y-116.549
X126.969Y-120.549
X126.969Y-124.549
X126.969Y-132.549
X126.969Y-136.549
X126.969Y-148.549
X130.969Y-52.549
X130.969Y-56.549
X130.969Y-60.549
X130.969Y-64.549
X130.969Y-68.549
X130.969Y-72.549
X130.969Y-80.549
X130.969Y-84.549
X130.969Y-88.549
X130.969Y-92.549
X130.969Y-96.549
X130.969Y-100.549
X130.969Y-104.549
X130.969Y-108.549
X130.969Y-112.549
X130.969Y-116.549
X130.969Y-120.549
X130.969Y-128.549
X130.969Y-132.549
X130.969Y-136.549
X130.969Y-140.549
X130.969Y-144.549
X130.969Y-148.549
X134.969Y-60.549
X134.969Y-64.549
X134.969Y-68.549
X134.969Y-72.549
X134.969Y-76.549
X134.969Y-80.549
X134.969Y-84.549
X134.969Y-88.549
X134.969Y-92.549
X134.969Y-96.549
X134.969Y-100.549
X134.969Y-104.549
X134.969Y-108.549
X134.969Y-112.549
X134.969Y-116.549
X134.969Y-120.549
X134.969Y-124.549
X134.969Y-128.549
X134.969Y-132.549
X134.969Y-136.549
X134.969Y-140.549
X134.969Y-144.549
T2
X50.0Y-140.895
X50.0Y-143.435
X50.0Y-145.975
X52.54Y-140.895
X52.54Y-143.435
X52.54Y-145.975
X55.08Y-140.895
X55.08Y-143.435
X55.08Y-145.975
X57.62Y-140.895
X57.62Y-143.435
X57.62Y-145.975
X60.16Y-140.895
X60.16Y-143.435
X60.16Y-145.975
X62.7Y-140.895
X62.7Y-143.435
X62.7Y-145.975
X65.24Y-140.895
X65.24Y-143.435
X65.24Y-145.975
X67.78Y-140.895
X67.78Y-143.435
X67.78Y-145.975
X70.32Y-140.895
X70.32Y-143.435
X70.32Y-145.975
X72.86Y-140.895
X72.86Y-143.435
X72.86Y-145.975
X75.4Y-140.895
X75.4Y-143.435
X75.4Y-145.975
X77.94Y-140.895
X77.94Y-143.435
X77.94Y-145.975
X80.48Y-140.895
X80.48Y-143.435
X80.48Y-145.975
X83.02Y-140.895
X83.02Y-143.435
X83.02Y-145.975
X85.56Y-140.895
X85.56Y-143.435
X85.56Y-145.975
X88.1Y-140.895
X88.1Y-143.435
X88.1Y-145.975
X90.64Y-140.895
X90.64Y-143.435
X90.64Y-145.975
X93.18Y-140.895
X93.18Y-143.435
X93.18Y-145.975
X95.72Y-140.895
X95.72Y-143.435
X95.72Y-145.975
X98.26Y-140.895
X98.26Y-143.435
X98.26Y-145.975
X100.8Y-140.895
X100.8Y-143.435
X100.8Y-145.975
X103.34Y-140.895
X103.34Y-143.435
X103.34Y-145.975
X105.88Y-140.895
X105.88Y-143.435
X105.88Y-145.975
X108.42Y-140.895
X108.42Y-143.435
X108.42Y-145.975
X110.96Y-140.895
X110.96Y-143.435
X110.96Y-145.975
X111.984Y-55.726
X111.984Y-58.266
X113.5Y-140.895
X113.5Y-143.435
X113.5Y-145.975
X114.524Y-55.726
X114.524Y-58.266
X116.04Y-140.895
X116.04Y-143.435
X116.04Y-145.975
X118.58Y-140.895
X118.58Y-143.435
X118.58Y-145.975
X121.12Y-140.895
X121.12Y-143.435
X121.12Y-145.975
X123.66Y-140.895
X123.66Y-143.435
X123.66Y-145.975
X126.2Y-140.895
X126.2Y-143.435
X126.2Y-145.975
X128.74Y-140.895
X128.74Y-143.435
X128.74Y-145.975
T3
X94.72Y-61.648
X108.22Y-61.648
T4
X97.87Y-67.648
X105.07Y-67.648
T5
X44.92Y-148.515
X133.82Y-148.515
M30
