%TF.GenerationSoftware,KiCad,Pcbnew,8.0.7*%
%TF.CreationDate,2025-02-21T01:46:00+01:00*%
%TF.ProjectId,TPB,5450422e-6b69-4636-9164-5f7063625858,1.0.0*%
%TF.SameCoordinates,Original*%
%TF.FileFunction,Other,Comment*%
%FSLAX46Y46*%
G04 Gerber Fmt 4.6, Leading zero omitted, Abs format (unit mm)*
G04 Created by KiCad (PCBNEW 8.0.7) date 2025-02-21 01:46:00*
%MOMM*%
%LPD*%
G01*
G04 APERTURE LIST*
%ADD10C,0.100000*%
%ADD11C,0.150000*%
G04 APERTURE END LIST*
D10*
X97260000Y569999D02*
X97260000Y100000000D01*
X2740000Y569999D02*
X2670000Y100000000D01*
D11*
X98979819Y43386780D02*
X97979819Y43386780D01*
X97979819Y43386780D02*
X97979819Y43624875D01*
X97979819Y43624875D02*
X98027438Y43767732D01*
X98027438Y43767732D02*
X98122676Y43862970D01*
X98122676Y43862970D02*
X98217914Y43910589D01*
X98217914Y43910589D02*
X98408390Y43958208D01*
X98408390Y43958208D02*
X98551247Y43958208D01*
X98551247Y43958208D02*
X98741723Y43910589D01*
X98741723Y43910589D02*
X98836961Y43862970D01*
X98836961Y43862970D02*
X98932200Y43767732D01*
X98932200Y43767732D02*
X98979819Y43624875D01*
X98979819Y43624875D02*
X98979819Y43386780D01*
X97979819Y44577256D02*
X97979819Y44767732D01*
X97979819Y44767732D02*
X98027438Y44862970D01*
X98027438Y44862970D02*
X98122676Y44958208D01*
X98122676Y44958208D02*
X98313152Y45005827D01*
X98313152Y45005827D02*
X98646485Y45005827D01*
X98646485Y45005827D02*
X98836961Y44958208D01*
X98836961Y44958208D02*
X98932200Y44862970D01*
X98932200Y44862970D02*
X98979819Y44767732D01*
X98979819Y44767732D02*
X98979819Y44577256D01*
X98979819Y44577256D02*
X98932200Y44482018D01*
X98932200Y44482018D02*
X98836961Y44386780D01*
X98836961Y44386780D02*
X98646485Y44339161D01*
X98646485Y44339161D02*
X98313152Y44339161D01*
X98313152Y44339161D02*
X98122676Y44386780D01*
X98122676Y44386780D02*
X98027438Y44482018D01*
X98027438Y44482018D02*
X97979819Y44577256D01*
X98979819Y45434399D02*
X97979819Y45434399D01*
X97979819Y45434399D02*
X98979819Y46005827D01*
X98979819Y46005827D02*
X97979819Y46005827D01*
X97979819Y46529637D02*
X98170295Y46434399D01*
X97979819Y46815351D02*
X97979819Y47386779D01*
X98979819Y47101065D02*
X97979819Y47101065D01*
X98979819Y48482018D02*
X97979819Y48482018D01*
X97979819Y48482018D02*
X97979819Y48862970D01*
X97979819Y48862970D02*
X98027438Y48958208D01*
X98027438Y48958208D02*
X98075057Y49005827D01*
X98075057Y49005827D02*
X98170295Y49053446D01*
X98170295Y49053446D02*
X98313152Y49053446D01*
X98313152Y49053446D02*
X98408390Y49005827D01*
X98408390Y49005827D02*
X98456009Y48958208D01*
X98456009Y48958208D02*
X98503628Y48862970D01*
X98503628Y48862970D02*
X98503628Y48482018D01*
X97979819Y49482018D02*
X98789342Y49482018D01*
X98789342Y49482018D02*
X98884580Y49529637D01*
X98884580Y49529637D02*
X98932200Y49577256D01*
X98932200Y49577256D02*
X98979819Y49672494D01*
X98979819Y49672494D02*
X98979819Y49862970D01*
X98979819Y49862970D02*
X98932200Y49958208D01*
X98932200Y49958208D02*
X98884580Y50005827D01*
X98884580Y50005827D02*
X98789342Y50053446D01*
X98789342Y50053446D02*
X97979819Y50053446D01*
X97979819Y50386780D02*
X97979819Y50958208D01*
X98979819Y50672494D02*
X97979819Y50672494D01*
X98694104Y52005828D02*
X98694104Y52482018D01*
X98979819Y51910590D02*
X97979819Y52243923D01*
X97979819Y52243923D02*
X98979819Y52577256D01*
X98979819Y52910590D02*
X97979819Y52910590D01*
X97979819Y52910590D02*
X98979819Y53482018D01*
X98979819Y53482018D02*
X97979819Y53482018D01*
X98503628Y54148685D02*
X98979819Y54148685D01*
X97979819Y53815352D02*
X98503628Y54148685D01*
X98503628Y54148685D02*
X97979819Y54482018D01*
X97979819Y54672495D02*
X97979819Y55243923D01*
X98979819Y54958209D02*
X97979819Y54958209D01*
X98979819Y55577257D02*
X97979819Y55577257D01*
X98456009Y55577257D02*
X98456009Y56148685D01*
X98979819Y56148685D02*
X97979819Y56148685D01*
X98979819Y56624876D02*
X97979819Y56624876D01*
X98979819Y57101066D02*
X97979819Y57101066D01*
X97979819Y57101066D02*
X98979819Y57672494D01*
X98979819Y57672494D02*
X97979819Y57672494D01*
X98027438Y58672494D02*
X97979819Y58577256D01*
X97979819Y58577256D02*
X97979819Y58434399D01*
X97979819Y58434399D02*
X98027438Y58291542D01*
X98027438Y58291542D02*
X98122676Y58196304D01*
X98122676Y58196304D02*
X98217914Y58148685D01*
X98217914Y58148685D02*
X98408390Y58101066D01*
X98408390Y58101066D02*
X98551247Y58101066D01*
X98551247Y58101066D02*
X98741723Y58148685D01*
X98741723Y58148685D02*
X98836961Y58196304D01*
X98836961Y58196304D02*
X98932200Y58291542D01*
X98932200Y58291542D02*
X98979819Y58434399D01*
X98979819Y58434399D02*
X98979819Y58529637D01*
X98979819Y58529637D02*
X98932200Y58672494D01*
X98932200Y58672494D02*
X98884580Y58720113D01*
X98884580Y58720113D02*
X98551247Y58720113D01*
X98551247Y58720113D02*
X98551247Y58529637D01*
X98979819Y59910590D02*
X97979819Y59910590D01*
X98456009Y59910590D02*
X98456009Y60482018D01*
X98979819Y60482018D02*
X97979819Y60482018D01*
X98456009Y60958209D02*
X98456009Y61291542D01*
X98979819Y61434399D02*
X98979819Y60958209D01*
X98979819Y60958209D02*
X97979819Y60958209D01*
X97979819Y60958209D02*
X97979819Y61434399D01*
X98979819Y62434399D02*
X98503628Y62101066D01*
X98979819Y61862971D02*
X97979819Y61862971D01*
X97979819Y61862971D02*
X97979819Y62243923D01*
X97979819Y62243923D02*
X98027438Y62339161D01*
X98027438Y62339161D02*
X98075057Y62386780D01*
X98075057Y62386780D02*
X98170295Y62434399D01*
X98170295Y62434399D02*
X98313152Y62434399D01*
X98313152Y62434399D02*
X98408390Y62386780D01*
X98408390Y62386780D02*
X98456009Y62339161D01*
X98456009Y62339161D02*
X98503628Y62243923D01*
X98503628Y62243923D02*
X98503628Y61862971D01*
X98456009Y62862971D02*
X98456009Y63196304D01*
X98979819Y63339161D02*
X98979819Y62862971D01*
X98979819Y62862971D02*
X97979819Y62862971D01*
X97979819Y62862971D02*
X97979819Y63339161D01*
X2059819Y45586780D02*
X1059819Y45586780D01*
X1059819Y45586780D02*
X1059819Y45824875D01*
X1059819Y45824875D02*
X1107438Y45967732D01*
X1107438Y45967732D02*
X1202676Y46062970D01*
X1202676Y46062970D02*
X1297914Y46110589D01*
X1297914Y46110589D02*
X1488390Y46158208D01*
X1488390Y46158208D02*
X1631247Y46158208D01*
X1631247Y46158208D02*
X1821723Y46110589D01*
X1821723Y46110589D02*
X1916961Y46062970D01*
X1916961Y46062970D02*
X2012200Y45967732D01*
X2012200Y45967732D02*
X2059819Y45824875D01*
X2059819Y45824875D02*
X2059819Y45586780D01*
X1059819Y46777256D02*
X1059819Y46967732D01*
X1059819Y46967732D02*
X1107438Y47062970D01*
X1107438Y47062970D02*
X1202676Y47158208D01*
X1202676Y47158208D02*
X1393152Y47205827D01*
X1393152Y47205827D02*
X1726485Y47205827D01*
X1726485Y47205827D02*
X1916961Y47158208D01*
X1916961Y47158208D02*
X2012200Y47062970D01*
X2012200Y47062970D02*
X2059819Y46967732D01*
X2059819Y46967732D02*
X2059819Y46777256D01*
X2059819Y46777256D02*
X2012200Y46682018D01*
X2012200Y46682018D02*
X1916961Y46586780D01*
X1916961Y46586780D02*
X1726485Y46539161D01*
X1726485Y46539161D02*
X1393152Y46539161D01*
X1393152Y46539161D02*
X1202676Y46586780D01*
X1202676Y46586780D02*
X1107438Y46682018D01*
X1107438Y46682018D02*
X1059819Y46777256D01*
X2059819Y47634399D02*
X1059819Y47634399D01*
X1059819Y47634399D02*
X2059819Y48205827D01*
X2059819Y48205827D02*
X1059819Y48205827D01*
X1059819Y48729637D02*
X1250295Y48634399D01*
X1059819Y49015351D02*
X1059819Y49586779D01*
X2059819Y49301065D02*
X1059819Y49301065D01*
X2059819Y50682018D02*
X1059819Y50682018D01*
X1059819Y50682018D02*
X1059819Y51062970D01*
X1059819Y51062970D02*
X1107438Y51158208D01*
X1107438Y51158208D02*
X1155057Y51205827D01*
X1155057Y51205827D02*
X1250295Y51253446D01*
X1250295Y51253446D02*
X1393152Y51253446D01*
X1393152Y51253446D02*
X1488390Y51205827D01*
X1488390Y51205827D02*
X1536009Y51158208D01*
X1536009Y51158208D02*
X1583628Y51062970D01*
X1583628Y51062970D02*
X1583628Y50682018D01*
X1059819Y51682018D02*
X1869342Y51682018D01*
X1869342Y51682018D02*
X1964580Y51729637D01*
X1964580Y51729637D02*
X2012200Y51777256D01*
X2012200Y51777256D02*
X2059819Y51872494D01*
X2059819Y51872494D02*
X2059819Y52062970D01*
X2059819Y52062970D02*
X2012200Y52158208D01*
X2012200Y52158208D02*
X1964580Y52205827D01*
X1964580Y52205827D02*
X1869342Y52253446D01*
X1869342Y52253446D02*
X1059819Y52253446D01*
X1059819Y52586780D02*
X1059819Y53158208D01*
X2059819Y52872494D02*
X1059819Y52872494D01*
X1774104Y54205828D02*
X1774104Y54682018D01*
X2059819Y54110590D02*
X1059819Y54443923D01*
X1059819Y54443923D02*
X2059819Y54777256D01*
X2059819Y55110590D02*
X1059819Y55110590D01*
X1059819Y55110590D02*
X2059819Y55682018D01*
X2059819Y55682018D02*
X1059819Y55682018D01*
X1583628Y56348685D02*
X2059819Y56348685D01*
X1059819Y56015352D02*
X1583628Y56348685D01*
X1583628Y56348685D02*
X1059819Y56682018D01*
X1059819Y56872495D02*
X1059819Y57443923D01*
X2059819Y57158209D02*
X1059819Y57158209D01*
X2059819Y57777257D02*
X1059819Y57777257D01*
X1536009Y57777257D02*
X1536009Y58348685D01*
X2059819Y58348685D02*
X1059819Y58348685D01*
X2059819Y58824876D02*
X1059819Y58824876D01*
X2059819Y59301066D02*
X1059819Y59301066D01*
X1059819Y59301066D02*
X2059819Y59872494D01*
X2059819Y59872494D02*
X1059819Y59872494D01*
X1107438Y60872494D02*
X1059819Y60777256D01*
X1059819Y60777256D02*
X1059819Y60634399D01*
X1059819Y60634399D02*
X1107438Y60491542D01*
X1107438Y60491542D02*
X1202676Y60396304D01*
X1202676Y60396304D02*
X1297914Y60348685D01*
X1297914Y60348685D02*
X1488390Y60301066D01*
X1488390Y60301066D02*
X1631247Y60301066D01*
X1631247Y60301066D02*
X1821723Y60348685D01*
X1821723Y60348685D02*
X1916961Y60396304D01*
X1916961Y60396304D02*
X2012200Y60491542D01*
X2012200Y60491542D02*
X2059819Y60634399D01*
X2059819Y60634399D02*
X2059819Y60729637D01*
X2059819Y60729637D02*
X2012200Y60872494D01*
X2012200Y60872494D02*
X1964580Y60920113D01*
X1964580Y60920113D02*
X1631247Y60920113D01*
X1631247Y60920113D02*
X1631247Y60729637D01*
X2059819Y62110590D02*
X1059819Y62110590D01*
X1536009Y62110590D02*
X1536009Y62682018D01*
X2059819Y62682018D02*
X1059819Y62682018D01*
X1536009Y63158209D02*
X1536009Y63491542D01*
X2059819Y63634399D02*
X2059819Y63158209D01*
X2059819Y63158209D02*
X1059819Y63158209D01*
X1059819Y63158209D02*
X1059819Y63634399D01*
X2059819Y64634399D02*
X1583628Y64301066D01*
X2059819Y64062971D02*
X1059819Y64062971D01*
X1059819Y64062971D02*
X1059819Y64443923D01*
X1059819Y64443923D02*
X1107438Y64539161D01*
X1107438Y64539161D02*
X1155057Y64586780D01*
X1155057Y64586780D02*
X1250295Y64634399D01*
X1250295Y64634399D02*
X1393152Y64634399D01*
X1393152Y64634399D02*
X1488390Y64586780D01*
X1488390Y64586780D02*
X1536009Y64539161D01*
X1536009Y64539161D02*
X1583628Y64443923D01*
X1583628Y64443923D02*
X1583628Y64062971D01*
X1536009Y65062971D02*
X1536009Y65396304D01*
X2059819Y65539161D02*
X2059819Y65062971D01*
X2059819Y65062971D02*
X1059819Y65062971D01*
X1059819Y65062971D02*
X1059819Y65539161D01*
X-452937Y102393644D02*
X-451198Y101774599D01*
X-451198Y101774599D02*
X-833085Y102106861D01*
X-833085Y102106861D02*
X-832684Y101964004D01*
X-832684Y101964004D02*
X-880035Y101868633D01*
X-880035Y101868633D02*
X-927520Y101820880D01*
X-927520Y101820880D02*
X-1022624Y101772994D01*
X-1022624Y101772994D02*
X-1260718Y101772325D01*
X-1260718Y101772325D02*
X-1356090Y101819676D01*
X-1356090Y101819676D02*
X-1403842Y101867162D01*
X-1403842Y101867162D02*
X-1451729Y101962266D01*
X-1451729Y101962266D02*
X-1452531Y102247979D01*
X-1452531Y102247979D02*
X-1405180Y102343350D01*
X-1405180Y102343350D02*
X-1357695Y102391103D01*
X-1354752Y101343488D02*
X-1402237Y101295735D01*
X-1402237Y101295735D02*
X-1449990Y101343220D01*
X-1449990Y101343220D02*
X-1402505Y101390973D01*
X-1402505Y101390973D02*
X-1354752Y101343488D01*
X-1354752Y101343488D02*
X-1449990Y101343220D01*
X-447319Y100393653D02*
X-448656Y100869841D01*
X-448656Y100869841D02*
X-924979Y100916122D01*
X-924979Y100916122D02*
X-877226Y100868637D01*
X-877226Y100868637D02*
X-829340Y100773533D01*
X-829340Y100773533D02*
X-828671Y100535439D01*
X-828671Y100535439D02*
X-876022Y100440068D01*
X-876022Y100440068D02*
X-923507Y100392315D01*
X-923507Y100392315D02*
X-1018611Y100344429D01*
X-1018611Y100344429D02*
X-1256706Y100343760D01*
X-1256706Y100343760D02*
X-1352077Y100391111D01*
X-1352077Y100391111D02*
X-1399830Y100438596D01*
X-1399830Y100438596D02*
X-1447716Y100533700D01*
X-1447716Y100533700D02*
X-1448385Y100771794D01*
X-1448385Y100771794D02*
X-1401034Y100867166D01*
X-1401034Y100867166D02*
X-1353548Y100914919D01*
X-444777Y99488894D02*
X-445312Y99679370D01*
X-445312Y99679370D02*
X-493199Y99774474D01*
X-493199Y99774474D02*
X-540951Y99821959D01*
X-540951Y99821959D02*
X-684075Y99916795D01*
X-684075Y99916795D02*
X-874685Y99963879D01*
X-874685Y99963879D02*
X-1255635Y99962809D01*
X-1255635Y99962809D02*
X-1350739Y99914922D01*
X-1350739Y99914922D02*
X-1398225Y99867170D01*
X-1398225Y99867170D02*
X-1445576Y99771798D01*
X-1445576Y99771798D02*
X-1445041Y99581323D01*
X-1445041Y99581323D02*
X-1397154Y99486219D01*
X-1397154Y99486219D02*
X-1349402Y99438734D01*
X-1349402Y99438734D02*
X-1254030Y99391383D01*
X-1254030Y99391383D02*
X-1015936Y99392051D01*
X-1015936Y99392051D02*
X-920832Y99439938D01*
X-920832Y99439938D02*
X-873347Y99487690D01*
X-873347Y99487690D02*
X-825996Y99583062D01*
X-825996Y99583062D02*
X-826531Y99773537D01*
X-826531Y99773537D02*
X-874417Y99868641D01*
X-874417Y99868641D02*
X-922170Y99916126D01*
X-922170Y99916126D02*
X-1017541Y99963478D01*
X-442771Y98774611D02*
X-442503Y98679373D01*
X-442503Y98679373D02*
X-489855Y98584002D01*
X-489855Y98584002D02*
X-537340Y98536249D01*
X-537340Y98536249D02*
X-632444Y98488363D01*
X-632444Y98488363D02*
X-822785Y98440209D01*
X-822785Y98440209D02*
X-1060880Y98439540D01*
X-1060880Y98439540D02*
X-1251489Y98486624D01*
X-1251489Y98486624D02*
X-1346860Y98533975D01*
X-1346860Y98533975D02*
X-1394613Y98581461D01*
X-1394613Y98581461D02*
X-1442499Y98676565D01*
X-1442499Y98676565D02*
X-1442767Y98771802D01*
X-1442767Y98771802D02*
X-1395416Y98867174D01*
X-1395416Y98867174D02*
X-1347930Y98914926D01*
X-1347930Y98914926D02*
X-1252826Y98962813D01*
X-1252826Y98962813D02*
X-1062485Y99010967D01*
X-1062485Y99010967D02*
X-824391Y99011635D01*
X-824391Y99011635D02*
X-633781Y98964552D01*
X-633781Y98964552D02*
X-538410Y98917200D01*
X-538410Y98917200D02*
X-490657Y98869715D01*
X-490657Y98869715D02*
X-442771Y98774611D01*
X-440096Y97822234D02*
X-439828Y97726996D01*
X-439828Y97726996D02*
X-487179Y97631625D01*
X-487179Y97631625D02*
X-534665Y97583872D01*
X-534665Y97583872D02*
X-629768Y97535986D01*
X-629768Y97535986D02*
X-820110Y97487832D01*
X-820110Y97487832D02*
X-1058204Y97487163D01*
X-1058204Y97487163D02*
X-1248814Y97534247D01*
X-1248814Y97534247D02*
X-1344185Y97581598D01*
X-1344185Y97581598D02*
X-1391938Y97629083D01*
X-1391938Y97629083D02*
X-1439824Y97724187D01*
X-1439824Y97724187D02*
X-1440092Y97819425D01*
X-1440092Y97819425D02*
X-1392740Y97914796D01*
X-1392740Y97914796D02*
X-1345255Y97962549D01*
X-1345255Y97962549D02*
X-1250151Y98010435D01*
X-1250151Y98010435D02*
X-1059810Y98058589D01*
X-1059810Y98058589D02*
X-821715Y98059258D01*
X-821715Y98059258D02*
X-631106Y98012174D01*
X-631106Y98012174D02*
X-535735Y97964823D01*
X-535735Y97964823D02*
X-487982Y97917338D01*
X-487982Y97917338D02*
X-440096Y97822234D01*
X-1435811Y96295621D02*
X-769147Y96297494D01*
X-864385Y96297226D02*
X-816632Y96249741D01*
X-816632Y96249741D02*
X-768746Y96154637D01*
X-768746Y96154637D02*
X-768345Y96011781D01*
X-768345Y96011781D02*
X-815696Y95916409D01*
X-815696Y95916409D02*
X-910800Y95868523D01*
X-910800Y95868523D02*
X-1434607Y95867051D01*
X-910800Y95868523D02*
X-815429Y95821171D01*
X-815429Y95821171D02*
X-767542Y95726068D01*
X-767542Y95726068D02*
X-767141Y95583211D01*
X-767141Y95583211D02*
X-814492Y95487839D01*
X-814492Y95487839D02*
X-909596Y95439953D01*
X-909596Y95439953D02*
X-1433404Y95438482D01*
X-1432066Y94962293D02*
X-765402Y94964166D01*
X-860640Y94963899D02*
X-812887Y94916413D01*
X-812887Y94916413D02*
X-765001Y94821310D01*
X-765001Y94821310D02*
X-764599Y94678453D01*
X-764599Y94678453D02*
X-811951Y94583081D01*
X-811951Y94583081D02*
X-907055Y94535195D01*
X-907055Y94535195D02*
X-1430862Y94533724D01*
X-907055Y94535195D02*
X-811683Y94487844D01*
X-811683Y94487844D02*
X-763797Y94392740D01*
X-763797Y94392740D02*
X-763396Y94249883D01*
X-763396Y94249883D02*
X-810747Y94154512D01*
X-810747Y94154512D02*
X-905851Y94106625D01*
X-905851Y94106625D02*
X-1429658Y94105154D01*
D10*
X5050002Y96438596D02*
X-2717756Y96416776D01*
X5040002Y99998596D02*
X-2727756Y99976776D01*
X-2131339Y96418423D02*
X-2141339Y99978423D01*
X-2131339Y96418423D02*
X-2141339Y99978423D01*
X-2131339Y96418423D02*
X-2720922Y97543275D01*
X-2131339Y96418423D02*
X-1548085Y97546570D01*
X-2141339Y99978423D02*
X-1551756Y98853571D01*
X-2141339Y99978423D02*
X-2724593Y98850276D01*
D11*
X-881789Y106896538D02*
X-1357976Y106894822D01*
X-1357976Y106894822D02*
X-1403879Y106418463D01*
X-1403879Y106418463D02*
X-1356432Y106466254D01*
X-1356432Y106466254D02*
X-1261366Y106514216D01*
X-1261366Y106514216D02*
X-1023272Y106515074D01*
X-1023272Y106515074D02*
X-927863Y106467798D01*
X-927863Y106467798D02*
X-880073Y106420351D01*
X-880073Y106420351D02*
X-832111Y106325285D01*
X-832111Y106325285D02*
X-831253Y106087191D01*
X-831253Y106087191D02*
X-878529Y105991782D01*
X-878529Y105991782D02*
X-925976Y105943992D01*
X-925976Y105943992D02*
X-1021042Y105896030D01*
X-1021042Y105896030D02*
X-1259135Y105895172D01*
X-1259135Y105895172D02*
X-1354544Y105942448D01*
X-1354544Y105942448D02*
X-1402335Y105989895D01*
X-402341Y105993498D02*
X-354551Y105946051D01*
X-354551Y105946051D02*
X-401998Y105898261D01*
X-401998Y105898261D02*
X-449788Y105945708D01*
X-449788Y105945708D02*
X-402341Y105993498D01*
X-402341Y105993498D02*
X-401998Y105898261D01*
X546773Y106901686D02*
X70585Y106899970D01*
X70585Y106899970D02*
X24683Y106423611D01*
X24683Y106423611D02*
X72130Y106471402D01*
X72130Y106471402D02*
X167196Y106519364D01*
X167196Y106519364D02*
X405289Y106520222D01*
X405289Y106520222D02*
X500698Y106472946D01*
X500698Y106472946D02*
X548489Y106425499D01*
X548489Y106425499D02*
X596451Y106330433D01*
X596451Y106330433D02*
X597309Y106092339D01*
X597309Y106092339D02*
X550033Y105996930D01*
X550033Y105996930D02*
X502586Y105949140D01*
X502586Y105949140D02*
X407520Y105901178D01*
X407520Y105901178D02*
X169427Y105900320D01*
X169427Y105900320D02*
X74017Y105947596D01*
X74017Y105947596D02*
X26227Y105995043D01*
X1499148Y106905118D02*
X1022960Y106903402D01*
X1022960Y106903402D02*
X977058Y106427043D01*
X977058Y106427043D02*
X1024505Y106474834D01*
X1024505Y106474834D02*
X1119571Y106522796D01*
X1119571Y106522796D02*
X1357664Y106523654D01*
X1357664Y106523654D02*
X1453073Y106476378D01*
X1453073Y106476378D02*
X1500864Y106428931D01*
X1500864Y106428931D02*
X1548826Y106333865D01*
X1548826Y106333865D02*
X1549684Y106095771D01*
X1549684Y106095771D02*
X1502408Y106000362D01*
X1502408Y106000362D02*
X1454961Y105952572D01*
X1454961Y105952572D02*
X1359895Y105904610D01*
X1359895Y105904610D02*
X1121801Y105903752D01*
X1121801Y105903752D02*
X1026392Y105951028D01*
X1026392Y105951028D02*
X978602Y105998475D01*
X2165810Y106907521D02*
X2261048Y106907864D01*
X2261048Y106907864D02*
X2356457Y106860588D01*
X2356457Y106860588D02*
X2404247Y106813141D01*
X2404247Y106813141D02*
X2452209Y106718075D01*
X2452209Y106718075D02*
X2500514Y106527772D01*
X2500514Y106527772D02*
X2501372Y106289678D01*
X2501372Y106289678D02*
X2454440Y106099032D01*
X2454440Y106099032D02*
X2407164Y106003623D01*
X2407164Y106003623D02*
X2359717Y105955832D01*
X2359717Y105955832D02*
X2264651Y105907870D01*
X2264651Y105907870D02*
X2169414Y105907527D01*
X2169414Y105907527D02*
X2074005Y105954803D01*
X2074005Y105954803D02*
X2026214Y106002250D01*
X2026214Y106002250D02*
X1978252Y106097316D01*
X1978252Y106097316D02*
X1929947Y106287619D01*
X1929947Y106287619D02*
X1929089Y106525713D01*
X1929089Y106525713D02*
X1976021Y106716359D01*
X1976021Y106716359D02*
X2023297Y106811768D01*
X2023297Y106811768D02*
X2070744Y106859559D01*
X2070744Y106859559D02*
X2165810Y106907521D01*
X3118185Y106910953D02*
X3213422Y106911296D01*
X3213422Y106911296D02*
X3308831Y106864020D01*
X3308831Y106864020D02*
X3356622Y106816573D01*
X3356622Y106816573D02*
X3404584Y106721507D01*
X3404584Y106721507D02*
X3452889Y106531204D01*
X3452889Y106531204D02*
X3453747Y106293110D01*
X3453747Y106293110D02*
X3406814Y106102464D01*
X3406814Y106102464D02*
X3359539Y106007055D01*
X3359539Y106007055D02*
X3312092Y105959264D01*
X3312092Y105959264D02*
X3217026Y105911302D01*
X3217026Y105911302D02*
X3121788Y105910959D01*
X3121788Y105910959D02*
X3026379Y105958235D01*
X3026379Y105958235D02*
X2978589Y106005682D01*
X2978589Y106005682D02*
X2930627Y106100748D01*
X2930627Y106100748D02*
X2882322Y106291051D01*
X2882322Y106291051D02*
X2881464Y106529145D01*
X2881464Y106529145D02*
X2928396Y106719791D01*
X2928396Y106719791D02*
X2975672Y106815200D01*
X2975672Y106815200D02*
X3023119Y106862991D01*
X3023119Y106862991D02*
X3118185Y106910953D01*
X4645588Y105916450D02*
X4643186Y106583113D01*
X4643529Y106487875D02*
X4690976Y106535666D01*
X4690976Y106535666D02*
X4786042Y106583628D01*
X4786042Y106583628D02*
X4928898Y106584142D01*
X4928898Y106584142D02*
X5024307Y106536867D01*
X5024307Y106536867D02*
X5072269Y106441801D01*
X5072269Y106441801D02*
X5074157Y105917995D01*
X5072269Y106441801D02*
X5119545Y106537210D01*
X5119545Y106537210D02*
X5214611Y106585172D01*
X5214611Y106585172D02*
X5357467Y106585687D01*
X5357467Y106585687D02*
X5452876Y106538411D01*
X5452876Y106538411D02*
X5500838Y106443345D01*
X5500838Y106443345D02*
X5502726Y105919539D01*
X5978913Y105921255D02*
X5976510Y106587917D01*
X5976854Y106492680D02*
X6024301Y106540470D01*
X6024301Y106540470D02*
X6119367Y106588432D01*
X6119367Y106588432D02*
X6262223Y106588947D01*
X6262223Y106588947D02*
X6357632Y106541672D01*
X6357632Y106541672D02*
X6405594Y106446606D01*
X6405594Y106446606D02*
X6407481Y105922800D01*
X6405594Y106446606D02*
X6452869Y106542015D01*
X6452869Y106542015D02*
X6547935Y106589977D01*
X6547935Y106589977D02*
X6690791Y106590491D01*
X6690791Y106590491D02*
X6786200Y106543216D01*
X6786200Y106543216D02*
X6834162Y106448150D01*
X6834162Y106448150D02*
X6836050Y105924344D01*
D10*
X5548198Y96939997D02*
X5516231Y105810825D01*
X-1802Y96919997D02*
X-33769Y105790825D01*
X5518344Y105224409D02*
X-31656Y105204409D01*
X5518344Y105224409D02*
X-31656Y105204409D01*
X5518344Y105224409D02*
X4393961Y104633933D01*
X5518344Y105224409D02*
X4389734Y105806766D01*
X-31656Y105204409D02*
X1092727Y105794885D01*
X-31656Y105204409D02*
X1096954Y104622052D01*
D11*
X45476190Y-16384818D02*
X44904762Y-16384818D01*
X45190476Y-16384818D02*
X45190476Y-15384818D01*
X45190476Y-15384818D02*
X45095238Y-15527675D01*
X45095238Y-15527675D02*
X45000000Y-15622913D01*
X45000000Y-15622913D02*
X44904762Y-15670532D01*
X46095238Y-15384818D02*
X46190476Y-15384818D01*
X46190476Y-15384818D02*
X46285714Y-15432437D01*
X46285714Y-15432437D02*
X46333333Y-15480056D01*
X46333333Y-15480056D02*
X46380952Y-15575294D01*
X46380952Y-15575294D02*
X46428571Y-15765770D01*
X46428571Y-15765770D02*
X46428571Y-16003865D01*
X46428571Y-16003865D02*
X46380952Y-16194341D01*
X46380952Y-16194341D02*
X46333333Y-16289579D01*
X46333333Y-16289579D02*
X46285714Y-16337199D01*
X46285714Y-16337199D02*
X46190476Y-16384818D01*
X46190476Y-16384818D02*
X46095238Y-16384818D01*
X46095238Y-16384818D02*
X46000000Y-16337199D01*
X46000000Y-16337199D02*
X45952381Y-16289579D01*
X45952381Y-16289579D02*
X45904762Y-16194341D01*
X45904762Y-16194341D02*
X45857143Y-16003865D01*
X45857143Y-16003865D02*
X45857143Y-15765770D01*
X45857143Y-15765770D02*
X45904762Y-15575294D01*
X45904762Y-15575294D02*
X45952381Y-15480056D01*
X45952381Y-15480056D02*
X46000000Y-15432437D01*
X46000000Y-15432437D02*
X46095238Y-15384818D01*
X47047619Y-15384818D02*
X47142857Y-15384818D01*
X47142857Y-15384818D02*
X47238095Y-15432437D01*
X47238095Y-15432437D02*
X47285714Y-15480056D01*
X47285714Y-15480056D02*
X47333333Y-15575294D01*
X47333333Y-15575294D02*
X47380952Y-15765770D01*
X47380952Y-15765770D02*
X47380952Y-16003865D01*
X47380952Y-16003865D02*
X47333333Y-16194341D01*
X47333333Y-16194341D02*
X47285714Y-16289579D01*
X47285714Y-16289579D02*
X47238095Y-16337199D01*
X47238095Y-16337199D02*
X47142857Y-16384818D01*
X47142857Y-16384818D02*
X47047619Y-16384818D01*
X47047619Y-16384818D02*
X46952381Y-16337199D01*
X46952381Y-16337199D02*
X46904762Y-16289579D01*
X46904762Y-16289579D02*
X46857143Y-16194341D01*
X46857143Y-16194341D02*
X46809524Y-16003865D01*
X46809524Y-16003865D02*
X46809524Y-15765770D01*
X46809524Y-15765770D02*
X46857143Y-15575294D01*
X46857143Y-15575294D02*
X46904762Y-15480056D01*
X46904762Y-15480056D02*
X46952381Y-15432437D01*
X46952381Y-15432437D02*
X47047619Y-15384818D01*
X47809524Y-16289579D02*
X47857143Y-16337199D01*
X47857143Y-16337199D02*
X47809524Y-16384818D01*
X47809524Y-16384818D02*
X47761905Y-16337199D01*
X47761905Y-16337199D02*
X47809524Y-16289579D01*
X47809524Y-16289579D02*
X47809524Y-16384818D01*
X48476190Y-15384818D02*
X48571428Y-15384818D01*
X48571428Y-15384818D02*
X48666666Y-15432437D01*
X48666666Y-15432437D02*
X48714285Y-15480056D01*
X48714285Y-15480056D02*
X48761904Y-15575294D01*
X48761904Y-15575294D02*
X48809523Y-15765770D01*
X48809523Y-15765770D02*
X48809523Y-16003865D01*
X48809523Y-16003865D02*
X48761904Y-16194341D01*
X48761904Y-16194341D02*
X48714285Y-16289579D01*
X48714285Y-16289579D02*
X48666666Y-16337199D01*
X48666666Y-16337199D02*
X48571428Y-16384818D01*
X48571428Y-16384818D02*
X48476190Y-16384818D01*
X48476190Y-16384818D02*
X48380952Y-16337199D01*
X48380952Y-16337199D02*
X48333333Y-16289579D01*
X48333333Y-16289579D02*
X48285714Y-16194341D01*
X48285714Y-16194341D02*
X48238095Y-16003865D01*
X48238095Y-16003865D02*
X48238095Y-15765770D01*
X48238095Y-15765770D02*
X48285714Y-15575294D01*
X48285714Y-15575294D02*
X48333333Y-15480056D01*
X48333333Y-15480056D02*
X48380952Y-15432437D01*
X48380952Y-15432437D02*
X48476190Y-15384818D01*
X49428571Y-15384818D02*
X49523809Y-15384818D01*
X49523809Y-15384818D02*
X49619047Y-15432437D01*
X49619047Y-15432437D02*
X49666666Y-15480056D01*
X49666666Y-15480056D02*
X49714285Y-15575294D01*
X49714285Y-15575294D02*
X49761904Y-15765770D01*
X49761904Y-15765770D02*
X49761904Y-16003865D01*
X49761904Y-16003865D02*
X49714285Y-16194341D01*
X49714285Y-16194341D02*
X49666666Y-16289579D01*
X49666666Y-16289579D02*
X49619047Y-16337199D01*
X49619047Y-16337199D02*
X49523809Y-16384818D01*
X49523809Y-16384818D02*
X49428571Y-16384818D01*
X49428571Y-16384818D02*
X49333333Y-16337199D01*
X49333333Y-16337199D02*
X49285714Y-16289579D01*
X49285714Y-16289579D02*
X49238095Y-16194341D01*
X49238095Y-16194341D02*
X49190476Y-16003865D01*
X49190476Y-16003865D02*
X49190476Y-15765770D01*
X49190476Y-15765770D02*
X49238095Y-15575294D01*
X49238095Y-15575294D02*
X49285714Y-15480056D01*
X49285714Y-15480056D02*
X49333333Y-15432437D01*
X49333333Y-15432437D02*
X49428571Y-15384818D01*
X50380952Y-15384818D02*
X50476190Y-15384818D01*
X50476190Y-15384818D02*
X50571428Y-15432437D01*
X50571428Y-15432437D02*
X50619047Y-15480056D01*
X50619047Y-15480056D02*
X50666666Y-15575294D01*
X50666666Y-15575294D02*
X50714285Y-15765770D01*
X50714285Y-15765770D02*
X50714285Y-16003865D01*
X50714285Y-16003865D02*
X50666666Y-16194341D01*
X50666666Y-16194341D02*
X50619047Y-16289579D01*
X50619047Y-16289579D02*
X50571428Y-16337199D01*
X50571428Y-16337199D02*
X50476190Y-16384818D01*
X50476190Y-16384818D02*
X50380952Y-16384818D01*
X50380952Y-16384818D02*
X50285714Y-16337199D01*
X50285714Y-16337199D02*
X50238095Y-16289579D01*
X50238095Y-16289579D02*
X50190476Y-16194341D01*
X50190476Y-16194341D02*
X50142857Y-16003865D01*
X50142857Y-16003865D02*
X50142857Y-15765770D01*
X50142857Y-15765770D02*
X50190476Y-15575294D01*
X50190476Y-15575294D02*
X50238095Y-15480056D01*
X50238095Y-15480056D02*
X50285714Y-15432437D01*
X50285714Y-15432437D02*
X50380952Y-15384818D01*
X51333333Y-15384818D02*
X51428571Y-15384818D01*
X51428571Y-15384818D02*
X51523809Y-15432437D01*
X51523809Y-15432437D02*
X51571428Y-15480056D01*
X51571428Y-15480056D02*
X51619047Y-15575294D01*
X51619047Y-15575294D02*
X51666666Y-15765770D01*
X51666666Y-15765770D02*
X51666666Y-16003865D01*
X51666666Y-16003865D02*
X51619047Y-16194341D01*
X51619047Y-16194341D02*
X51571428Y-16289579D01*
X51571428Y-16289579D02*
X51523809Y-16337199D01*
X51523809Y-16337199D02*
X51428571Y-16384818D01*
X51428571Y-16384818D02*
X51333333Y-16384818D01*
X51333333Y-16384818D02*
X51238095Y-16337199D01*
X51238095Y-16337199D02*
X51190476Y-16289579D01*
X51190476Y-16289579D02*
X51142857Y-16194341D01*
X51142857Y-16194341D02*
X51095238Y-16003865D01*
X51095238Y-16003865D02*
X51095238Y-15765770D01*
X51095238Y-15765770D02*
X51142857Y-15575294D01*
X51142857Y-15575294D02*
X51190476Y-15480056D01*
X51190476Y-15480056D02*
X51238095Y-15432437D01*
X51238095Y-15432437D02*
X51333333Y-15384818D01*
X52857143Y-16384818D02*
X52857143Y-15718151D01*
X52857143Y-15813389D02*
X52904762Y-15765770D01*
X52904762Y-15765770D02*
X53000000Y-15718151D01*
X53000000Y-15718151D02*
X53142857Y-15718151D01*
X53142857Y-15718151D02*
X53238095Y-15765770D01*
X53238095Y-15765770D02*
X53285714Y-15861008D01*
X53285714Y-15861008D02*
X53285714Y-16384818D01*
X53285714Y-15861008D02*
X53333333Y-15765770D01*
X53333333Y-15765770D02*
X53428571Y-15718151D01*
X53428571Y-15718151D02*
X53571428Y-15718151D01*
X53571428Y-15718151D02*
X53666667Y-15765770D01*
X53666667Y-15765770D02*
X53714286Y-15861008D01*
X53714286Y-15861008D02*
X53714286Y-16384818D01*
X54190476Y-16384818D02*
X54190476Y-15718151D01*
X54190476Y-15813389D02*
X54238095Y-15765770D01*
X54238095Y-15765770D02*
X54333333Y-15718151D01*
X54333333Y-15718151D02*
X54476190Y-15718151D01*
X54476190Y-15718151D02*
X54571428Y-15765770D01*
X54571428Y-15765770D02*
X54619047Y-15861008D01*
X54619047Y-15861008D02*
X54619047Y-16384818D01*
X54619047Y-15861008D02*
X54666666Y-15765770D01*
X54666666Y-15765770D02*
X54761904Y-15718151D01*
X54761904Y-15718151D02*
X54904761Y-15718151D01*
X54904761Y-15718151D02*
X55000000Y-15765770D01*
X55000000Y-15765770D02*
X55047619Y-15861008D01*
X55047619Y-15861008D02*
X55047619Y-16384818D01*
D10*
X0Y-500000D02*
X0Y-17666419D01*
X100000000Y-500000D02*
X100000000Y-17666419D01*
X0Y-17079999D02*
X100000000Y-17079999D01*
X0Y-17079999D02*
X100000000Y-17079999D01*
X0Y-17079999D02*
X1126504Y-16493578D01*
X0Y-17079999D02*
X1126504Y-17666420D01*
X100000000Y-17079999D02*
X98873496Y-17666420D01*
X100000000Y-17079999D02*
X98873496Y-16493578D01*
D11*
X100614819Y94029525D02*
X100614819Y94648572D01*
X100614819Y94648572D02*
X100995771Y94315239D01*
X100995771Y94315239D02*
X100995771Y94458096D01*
X100995771Y94458096D02*
X101043390Y94553334D01*
X101043390Y94553334D02*
X101091009Y94600953D01*
X101091009Y94600953D02*
X101186247Y94648572D01*
X101186247Y94648572D02*
X101424342Y94648572D01*
X101424342Y94648572D02*
X101519580Y94600953D01*
X101519580Y94600953D02*
X101567200Y94553334D01*
X101567200Y94553334D02*
X101614819Y94458096D01*
X101614819Y94458096D02*
X101614819Y94172382D01*
X101614819Y94172382D02*
X101567200Y94077144D01*
X101567200Y94077144D02*
X101519580Y94029525D01*
X101519580Y95077144D02*
X101567200Y95124763D01*
X101567200Y95124763D02*
X101614819Y95077144D01*
X101614819Y95077144D02*
X101567200Y95029525D01*
X101567200Y95029525D02*
X101519580Y95077144D01*
X101519580Y95077144D02*
X101614819Y95077144D01*
X100614819Y96029524D02*
X100614819Y95553334D01*
X100614819Y95553334D02*
X101091009Y95505715D01*
X101091009Y95505715D02*
X101043390Y95553334D01*
X101043390Y95553334D02*
X100995771Y95648572D01*
X100995771Y95648572D02*
X100995771Y95886667D01*
X100995771Y95886667D02*
X101043390Y95981905D01*
X101043390Y95981905D02*
X101091009Y96029524D01*
X101091009Y96029524D02*
X101186247Y96077143D01*
X101186247Y96077143D02*
X101424342Y96077143D01*
X101424342Y96077143D02*
X101519580Y96029524D01*
X101519580Y96029524D02*
X101567200Y95981905D01*
X101567200Y95981905D02*
X101614819Y95886667D01*
X101614819Y95886667D02*
X101614819Y95648572D01*
X101614819Y95648572D02*
X101567200Y95553334D01*
X101567200Y95553334D02*
X101519580Y95505715D01*
X100614819Y96934286D02*
X100614819Y96743810D01*
X100614819Y96743810D02*
X100662438Y96648572D01*
X100662438Y96648572D02*
X100710057Y96600953D01*
X100710057Y96600953D02*
X100852914Y96505715D01*
X100852914Y96505715D02*
X101043390Y96458096D01*
X101043390Y96458096D02*
X101424342Y96458096D01*
X101424342Y96458096D02*
X101519580Y96505715D01*
X101519580Y96505715D02*
X101567200Y96553334D01*
X101567200Y96553334D02*
X101614819Y96648572D01*
X101614819Y96648572D02*
X101614819Y96839048D01*
X101614819Y96839048D02*
X101567200Y96934286D01*
X101567200Y96934286D02*
X101519580Y96981905D01*
X101519580Y96981905D02*
X101424342Y97029524D01*
X101424342Y97029524D02*
X101186247Y97029524D01*
X101186247Y97029524D02*
X101091009Y96981905D01*
X101091009Y96981905D02*
X101043390Y96934286D01*
X101043390Y96934286D02*
X100995771Y96839048D01*
X100995771Y96839048D02*
X100995771Y96648572D01*
X100995771Y96648572D02*
X101043390Y96553334D01*
X101043390Y96553334D02*
X101091009Y96505715D01*
X101091009Y96505715D02*
X101186247Y96458096D01*
X100614819Y97648572D02*
X100614819Y97743810D01*
X100614819Y97743810D02*
X100662438Y97839048D01*
X100662438Y97839048D02*
X100710057Y97886667D01*
X100710057Y97886667D02*
X100805295Y97934286D01*
X100805295Y97934286D02*
X100995771Y97981905D01*
X100995771Y97981905D02*
X101233866Y97981905D01*
X101233866Y97981905D02*
X101424342Y97934286D01*
X101424342Y97934286D02*
X101519580Y97886667D01*
X101519580Y97886667D02*
X101567200Y97839048D01*
X101567200Y97839048D02*
X101614819Y97743810D01*
X101614819Y97743810D02*
X101614819Y97648572D01*
X101614819Y97648572D02*
X101567200Y97553334D01*
X101567200Y97553334D02*
X101519580Y97505715D01*
X101519580Y97505715D02*
X101424342Y97458096D01*
X101424342Y97458096D02*
X101233866Y97410477D01*
X101233866Y97410477D02*
X100995771Y97410477D01*
X100995771Y97410477D02*
X100805295Y97458096D01*
X100805295Y97458096D02*
X100710057Y97505715D01*
X100710057Y97505715D02*
X100662438Y97553334D01*
X100662438Y97553334D02*
X100614819Y97648572D01*
X100614819Y98600953D02*
X100614819Y98696191D01*
X100614819Y98696191D02*
X100662438Y98791429D01*
X100662438Y98791429D02*
X100710057Y98839048D01*
X100710057Y98839048D02*
X100805295Y98886667D01*
X100805295Y98886667D02*
X100995771Y98934286D01*
X100995771Y98934286D02*
X101233866Y98934286D01*
X101233866Y98934286D02*
X101424342Y98886667D01*
X101424342Y98886667D02*
X101519580Y98839048D01*
X101519580Y98839048D02*
X101567200Y98791429D01*
X101567200Y98791429D02*
X101614819Y98696191D01*
X101614819Y98696191D02*
X101614819Y98600953D01*
X101614819Y98600953D02*
X101567200Y98505715D01*
X101567200Y98505715D02*
X101519580Y98458096D01*
X101519580Y98458096D02*
X101424342Y98410477D01*
X101424342Y98410477D02*
X101233866Y98362858D01*
X101233866Y98362858D02*
X100995771Y98362858D01*
X100995771Y98362858D02*
X100805295Y98410477D01*
X100805295Y98410477D02*
X100710057Y98458096D01*
X100710057Y98458096D02*
X100662438Y98505715D01*
X100662438Y98505715D02*
X100614819Y98600953D01*
X101614819Y100124763D02*
X100948152Y100124763D01*
X101043390Y100124763D02*
X100995771Y100172382D01*
X100995771Y100172382D02*
X100948152Y100267620D01*
X100948152Y100267620D02*
X100948152Y100410477D01*
X100948152Y100410477D02*
X100995771Y100505715D01*
X100995771Y100505715D02*
X101091009Y100553334D01*
X101091009Y100553334D02*
X101614819Y100553334D01*
X101091009Y100553334D02*
X100995771Y100600953D01*
X100995771Y100600953D02*
X100948152Y100696191D01*
X100948152Y100696191D02*
X100948152Y100839048D01*
X100948152Y100839048D02*
X100995771Y100934287D01*
X100995771Y100934287D02*
X101091009Y100981906D01*
X101091009Y100981906D02*
X101614819Y100981906D01*
X101614819Y101458096D02*
X100948152Y101458096D01*
X101043390Y101458096D02*
X100995771Y101505715D01*
X100995771Y101505715D02*
X100948152Y101600953D01*
X100948152Y101600953D02*
X100948152Y101743810D01*
X100948152Y101743810D02*
X100995771Y101839048D01*
X100995771Y101839048D02*
X101091009Y101886667D01*
X101091009Y101886667D02*
X101614819Y101886667D01*
X101091009Y101886667D02*
X100995771Y101934286D01*
X100995771Y101934286D02*
X100948152Y102029524D01*
X100948152Y102029524D02*
X100948152Y102172381D01*
X100948152Y102172381D02*
X100995771Y102267620D01*
X100995771Y102267620D02*
X101091009Y102315239D01*
X101091009Y102315239D02*
X101614819Y102315239D01*
D10*
X94950000Y96440000D02*
X102896420Y96440000D01*
X94950000Y100000000D02*
X102896420Y100000000D01*
X102310000Y96440000D02*
X102310000Y100000000D01*
X102310000Y96440000D02*
X102310000Y100000000D01*
X102310000Y96440000D02*
X101723579Y97566504D01*
X102310000Y96440000D02*
X102896421Y97566504D01*
X102310000Y100000000D02*
X102896421Y98873496D01*
X102310000Y100000000D02*
X101723579Y98873496D01*
D11*
X-6535181Y47996191D02*
X-6535181Y47424763D01*
X-6535181Y47710477D02*
X-7535181Y47710477D01*
X-7535181Y47710477D02*
X-7392324Y47615239D01*
X-7392324Y47615239D02*
X-7297086Y47520001D01*
X-7297086Y47520001D02*
X-7249467Y47424763D01*
X-7535181Y48615239D02*
X-7535181Y48710477D01*
X-7535181Y48710477D02*
X-7487562Y48805715D01*
X-7487562Y48805715D02*
X-7439943Y48853334D01*
X-7439943Y48853334D02*
X-7344705Y48900953D01*
X-7344705Y48900953D02*
X-7154229Y48948572D01*
X-7154229Y48948572D02*
X-6916134Y48948572D01*
X-6916134Y48948572D02*
X-6725658Y48900953D01*
X-6725658Y48900953D02*
X-6630420Y48853334D01*
X-6630420Y48853334D02*
X-6582800Y48805715D01*
X-6582800Y48805715D02*
X-6535181Y48710477D01*
X-6535181Y48710477D02*
X-6535181Y48615239D01*
X-6535181Y48615239D02*
X-6582800Y48520001D01*
X-6582800Y48520001D02*
X-6630420Y48472382D01*
X-6630420Y48472382D02*
X-6725658Y48424763D01*
X-6725658Y48424763D02*
X-6916134Y48377144D01*
X-6916134Y48377144D02*
X-7154229Y48377144D01*
X-7154229Y48377144D02*
X-7344705Y48424763D01*
X-7344705Y48424763D02*
X-7439943Y48472382D01*
X-7439943Y48472382D02*
X-7487562Y48520001D01*
X-7487562Y48520001D02*
X-7535181Y48615239D01*
X-7535181Y49567620D02*
X-7535181Y49662858D01*
X-7535181Y49662858D02*
X-7487562Y49758096D01*
X-7487562Y49758096D02*
X-7439943Y49805715D01*
X-7439943Y49805715D02*
X-7344705Y49853334D01*
X-7344705Y49853334D02*
X-7154229Y49900953D01*
X-7154229Y49900953D02*
X-6916134Y49900953D01*
X-6916134Y49900953D02*
X-6725658Y49853334D01*
X-6725658Y49853334D02*
X-6630420Y49805715D01*
X-6630420Y49805715D02*
X-6582800Y49758096D01*
X-6582800Y49758096D02*
X-6535181Y49662858D01*
X-6535181Y49662858D02*
X-6535181Y49567620D01*
X-6535181Y49567620D02*
X-6582800Y49472382D01*
X-6582800Y49472382D02*
X-6630420Y49424763D01*
X-6630420Y49424763D02*
X-6725658Y49377144D01*
X-6725658Y49377144D02*
X-6916134Y49329525D01*
X-6916134Y49329525D02*
X-7154229Y49329525D01*
X-7154229Y49329525D02*
X-7344705Y49377144D01*
X-7344705Y49377144D02*
X-7439943Y49424763D01*
X-7439943Y49424763D02*
X-7487562Y49472382D01*
X-7487562Y49472382D02*
X-7535181Y49567620D01*
X-6630420Y50329525D02*
X-6582800Y50377144D01*
X-6582800Y50377144D02*
X-6535181Y50329525D01*
X-6535181Y50329525D02*
X-6582800Y50281906D01*
X-6582800Y50281906D02*
X-6630420Y50329525D01*
X-6630420Y50329525D02*
X-6535181Y50329525D01*
X-7535181Y50996191D02*
X-7535181Y51091429D01*
X-7535181Y51091429D02*
X-7487562Y51186667D01*
X-7487562Y51186667D02*
X-7439943Y51234286D01*
X-7439943Y51234286D02*
X-7344705Y51281905D01*
X-7344705Y51281905D02*
X-7154229Y51329524D01*
X-7154229Y51329524D02*
X-6916134Y51329524D01*
X-6916134Y51329524D02*
X-6725658Y51281905D01*
X-6725658Y51281905D02*
X-6630420Y51234286D01*
X-6630420Y51234286D02*
X-6582800Y51186667D01*
X-6582800Y51186667D02*
X-6535181Y51091429D01*
X-6535181Y51091429D02*
X-6535181Y50996191D01*
X-6535181Y50996191D02*
X-6582800Y50900953D01*
X-6582800Y50900953D02*
X-6630420Y50853334D01*
X-6630420Y50853334D02*
X-6725658Y50805715D01*
X-6725658Y50805715D02*
X-6916134Y50758096D01*
X-6916134Y50758096D02*
X-7154229Y50758096D01*
X-7154229Y50758096D02*
X-7344705Y50805715D01*
X-7344705Y50805715D02*
X-7439943Y50853334D01*
X-7439943Y50853334D02*
X-7487562Y50900953D01*
X-7487562Y50900953D02*
X-7535181Y50996191D01*
X-7535181Y51948572D02*
X-7535181Y52043810D01*
X-7535181Y52043810D02*
X-7487562Y52139048D01*
X-7487562Y52139048D02*
X-7439943Y52186667D01*
X-7439943Y52186667D02*
X-7344705Y52234286D01*
X-7344705Y52234286D02*
X-7154229Y52281905D01*
X-7154229Y52281905D02*
X-6916134Y52281905D01*
X-6916134Y52281905D02*
X-6725658Y52234286D01*
X-6725658Y52234286D02*
X-6630420Y52186667D01*
X-6630420Y52186667D02*
X-6582800Y52139048D01*
X-6582800Y52139048D02*
X-6535181Y52043810D01*
X-6535181Y52043810D02*
X-6535181Y51948572D01*
X-6535181Y51948572D02*
X-6582800Y51853334D01*
X-6582800Y51853334D02*
X-6630420Y51805715D01*
X-6630420Y51805715D02*
X-6725658Y51758096D01*
X-6725658Y51758096D02*
X-6916134Y51710477D01*
X-6916134Y51710477D02*
X-7154229Y51710477D01*
X-7154229Y51710477D02*
X-7344705Y51758096D01*
X-7344705Y51758096D02*
X-7439943Y51805715D01*
X-7439943Y51805715D02*
X-7487562Y51853334D01*
X-7487562Y51853334D02*
X-7535181Y51948572D01*
X-7535181Y52900953D02*
X-7535181Y52996191D01*
X-7535181Y52996191D02*
X-7487562Y53091429D01*
X-7487562Y53091429D02*
X-7439943Y53139048D01*
X-7439943Y53139048D02*
X-7344705Y53186667D01*
X-7344705Y53186667D02*
X-7154229Y53234286D01*
X-7154229Y53234286D02*
X-6916134Y53234286D01*
X-6916134Y53234286D02*
X-6725658Y53186667D01*
X-6725658Y53186667D02*
X-6630420Y53139048D01*
X-6630420Y53139048D02*
X-6582800Y53091429D01*
X-6582800Y53091429D02*
X-6535181Y52996191D01*
X-6535181Y52996191D02*
X-6535181Y52900953D01*
X-6535181Y52900953D02*
X-6582800Y52805715D01*
X-6582800Y52805715D02*
X-6630420Y52758096D01*
X-6630420Y52758096D02*
X-6725658Y52710477D01*
X-6725658Y52710477D02*
X-6916134Y52662858D01*
X-6916134Y52662858D02*
X-7154229Y52662858D01*
X-7154229Y52662858D02*
X-7344705Y52710477D01*
X-7344705Y52710477D02*
X-7439943Y52758096D01*
X-7439943Y52758096D02*
X-7487562Y52805715D01*
X-7487562Y52805715D02*
X-7535181Y52900953D01*
X-7535181Y53853334D02*
X-7535181Y53948572D01*
X-7535181Y53948572D02*
X-7487562Y54043810D01*
X-7487562Y54043810D02*
X-7439943Y54091429D01*
X-7439943Y54091429D02*
X-7344705Y54139048D01*
X-7344705Y54139048D02*
X-7154229Y54186667D01*
X-7154229Y54186667D02*
X-6916134Y54186667D01*
X-6916134Y54186667D02*
X-6725658Y54139048D01*
X-6725658Y54139048D02*
X-6630420Y54091429D01*
X-6630420Y54091429D02*
X-6582800Y54043810D01*
X-6582800Y54043810D02*
X-6535181Y53948572D01*
X-6535181Y53948572D02*
X-6535181Y53853334D01*
X-6535181Y53853334D02*
X-6582800Y53758096D01*
X-6582800Y53758096D02*
X-6630420Y53710477D01*
X-6630420Y53710477D02*
X-6725658Y53662858D01*
X-6725658Y53662858D02*
X-6916134Y53615239D01*
X-6916134Y53615239D02*
X-7154229Y53615239D01*
X-7154229Y53615239D02*
X-7344705Y53662858D01*
X-7344705Y53662858D02*
X-7439943Y53710477D01*
X-7439943Y53710477D02*
X-7487562Y53758096D01*
X-7487562Y53758096D02*
X-7535181Y53853334D01*
X-6535181Y55377144D02*
X-7201848Y55377144D01*
X-7106610Y55377144D02*
X-7154229Y55424763D01*
X-7154229Y55424763D02*
X-7201848Y55520001D01*
X-7201848Y55520001D02*
X-7201848Y55662858D01*
X-7201848Y55662858D02*
X-7154229Y55758096D01*
X-7154229Y55758096D02*
X-7058991Y55805715D01*
X-7058991Y55805715D02*
X-6535181Y55805715D01*
X-7058991Y55805715D02*
X-7154229Y55853334D01*
X-7154229Y55853334D02*
X-7201848Y55948572D01*
X-7201848Y55948572D02*
X-7201848Y56091429D01*
X-7201848Y56091429D02*
X-7154229Y56186668D01*
X-7154229Y56186668D02*
X-7058991Y56234287D01*
X-7058991Y56234287D02*
X-6535181Y56234287D01*
X-6535181Y56710477D02*
X-7201848Y56710477D01*
X-7106610Y56710477D02*
X-7154229Y56758096D01*
X-7154229Y56758096D02*
X-7201848Y56853334D01*
X-7201848Y56853334D02*
X-7201848Y56996191D01*
X-7201848Y56996191D02*
X-7154229Y57091429D01*
X-7154229Y57091429D02*
X-7058991Y57139048D01*
X-7058991Y57139048D02*
X-6535181Y57139048D01*
X-7058991Y57139048D02*
X-7154229Y57186667D01*
X-7154229Y57186667D02*
X-7201848Y57281905D01*
X-7201848Y57281905D02*
X-7201848Y57424762D01*
X-7201848Y57424762D02*
X-7154229Y57520001D01*
X-7154229Y57520001D02*
X-7058991Y57567620D01*
X-7058991Y57567620D02*
X-6535181Y57567620D01*
D10*
X-500000Y0D02*
X-6256420Y0D01*
X-500000Y100000000D02*
X-6256420Y100000000D01*
X-5670000Y0D02*
X-5670000Y100000000D01*
X-5670000Y0D02*
X-5670000Y100000000D01*
X-5670000Y0D02*
X-6256421Y1126504D01*
X-5670000Y0D02*
X-5083579Y1126504D01*
X-5670000Y100000000D02*
X-5083579Y98873496D01*
X-5670000Y100000000D02*
X-6256421Y98873496D01*
D11*
X93587045Y106935542D02*
X93110855Y106934684D01*
X93110855Y106934684D02*
X93064094Y106458408D01*
X93064094Y106458408D02*
X93111627Y106506113D01*
X93111627Y106506113D02*
X93206779Y106553904D01*
X93206779Y106553904D02*
X93444874Y106554333D01*
X93444874Y106554333D02*
X93540198Y106506885D01*
X93540198Y106506885D02*
X93587903Y106459352D01*
X93587903Y106459352D02*
X93635693Y106364200D01*
X93635693Y106364200D02*
X93636122Y106126105D01*
X93636122Y106126105D02*
X93588675Y106030781D01*
X93588675Y106030781D02*
X93541142Y105983077D01*
X93541142Y105983077D02*
X93445990Y105935286D01*
X93445990Y105935286D02*
X93207895Y105934857D01*
X93207895Y105934857D02*
X93112571Y105982304D01*
X93112571Y105982304D02*
X93064866Y106029838D01*
X94064865Y106031639D02*
X94112570Y105984106D01*
X94112570Y105984106D02*
X94065036Y105936401D01*
X94065036Y105936401D02*
X94017332Y105983935D01*
X94017332Y105983935D02*
X94064865Y106031639D01*
X94064865Y106031639D02*
X94065036Y105936401D01*
X95015613Y106938116D02*
X94539424Y106937258D01*
X94539424Y106937258D02*
X94492663Y106460982D01*
X94492663Y106460982D02*
X94540196Y106508687D01*
X94540196Y106508687D02*
X94635348Y106556478D01*
X94635348Y106556478D02*
X94873443Y106556907D01*
X94873443Y106556907D02*
X94968767Y106509459D01*
X94968767Y106509459D02*
X95016471Y106461926D01*
X95016471Y106461926D02*
X95064262Y106366774D01*
X95064262Y106366774D02*
X95064691Y106128679D01*
X95064691Y106128679D02*
X95017244Y106033355D01*
X95017244Y106033355D02*
X94969710Y105985651D01*
X94969710Y105985651D02*
X94874558Y105937860D01*
X94874558Y105937860D02*
X94636463Y105937431D01*
X94636463Y105937431D02*
X94541140Y105984878D01*
X94541140Y105984878D02*
X94493435Y106032412D01*
X95967993Y106939832D02*
X95491803Y106938974D01*
X95491803Y106938974D02*
X95445042Y106462698D01*
X95445042Y106462698D02*
X95492575Y106510403D01*
X95492575Y106510403D02*
X95587728Y106558194D01*
X95587728Y106558194D02*
X95825822Y106558623D01*
X95825822Y106558623D02*
X95921146Y106511175D01*
X95921146Y106511175D02*
X95968851Y106463642D01*
X95968851Y106463642D02*
X96016641Y106368490D01*
X96016641Y106368490D02*
X96017070Y106130395D01*
X96017070Y106130395D02*
X95969623Y106035071D01*
X95969623Y106035071D02*
X95922090Y105987367D01*
X95922090Y105987367D02*
X95826938Y105939576D01*
X95826938Y105939576D02*
X95588843Y105939147D01*
X95588843Y105939147D02*
X95493519Y105986594D01*
X95493519Y105986594D02*
X95445814Y106034128D01*
X96634659Y106941033D02*
X96729896Y106941205D01*
X96729896Y106941205D02*
X96825220Y106893757D01*
X96825220Y106893757D02*
X96872925Y106846224D01*
X96872925Y106846224D02*
X96920716Y106751072D01*
X96920716Y106751072D02*
X96968678Y106560682D01*
X96968678Y106560682D02*
X96969107Y106322587D01*
X96969107Y106322587D02*
X96921831Y106132025D01*
X96921831Y106132025D02*
X96874384Y106036702D01*
X96874384Y106036702D02*
X96826850Y105988997D01*
X96826850Y105988997D02*
X96731698Y105941206D01*
X96731698Y105941206D02*
X96636460Y105941035D01*
X96636460Y105941035D02*
X96541137Y105988482D01*
X96541137Y105988482D02*
X96493432Y106036015D01*
X96493432Y106036015D02*
X96445641Y106131167D01*
X96445641Y106131167D02*
X96397679Y106321557D01*
X96397679Y106321557D02*
X96397250Y106559652D01*
X96397250Y106559652D02*
X96444526Y106750214D01*
X96444526Y106750214D02*
X96491973Y106845538D01*
X96491973Y106845538D02*
X96539506Y106893242D01*
X96539506Y106893242D02*
X96634659Y106941033D01*
X97587038Y106942749D02*
X97682276Y106942921D01*
X97682276Y106942921D02*
X97777600Y106895473D01*
X97777600Y106895473D02*
X97825304Y106847940D01*
X97825304Y106847940D02*
X97873095Y106752788D01*
X97873095Y106752788D02*
X97921057Y106562398D01*
X97921057Y106562398D02*
X97921486Y106324303D01*
X97921486Y106324303D02*
X97874210Y106133741D01*
X97874210Y106133741D02*
X97826763Y106038418D01*
X97826763Y106038418D02*
X97779230Y105990713D01*
X97779230Y105990713D02*
X97684078Y105942922D01*
X97684078Y105942922D02*
X97588840Y105942751D01*
X97588840Y105942751D02*
X97493516Y105990198D01*
X97493516Y105990198D02*
X97445811Y106037731D01*
X97445811Y106037731D02*
X97398021Y106132883D01*
X97398021Y106132883D02*
X97350059Y106323273D01*
X97350059Y106323273D02*
X97349630Y106561368D01*
X97349630Y106561368D02*
X97396905Y106751930D01*
X97396905Y106751930D02*
X97444353Y106847254D01*
X97444353Y106847254D02*
X97491886Y106894958D01*
X97491886Y106894958D02*
X97587038Y106942749D01*
X99112647Y105945496D02*
X99111446Y106612162D01*
X99111618Y106516924D02*
X99159151Y106564629D01*
X99159151Y106564629D02*
X99254303Y106612419D01*
X99254303Y106612419D02*
X99397160Y106612677D01*
X99397160Y106612677D02*
X99492484Y106565229D01*
X99492484Y106565229D02*
X99540274Y106470077D01*
X99540274Y106470077D02*
X99541218Y105946268D01*
X99540274Y106470077D02*
X99587721Y106565401D01*
X99587721Y106565401D02*
X99682874Y106613191D01*
X99682874Y106613191D02*
X99825730Y106613449D01*
X99825730Y106613449D02*
X99921054Y106566001D01*
X99921054Y106566001D02*
X99968845Y106470849D01*
X99968845Y106470849D02*
X99969789Y105947041D01*
X100445978Y105947899D02*
X100444777Y106614564D01*
X100444948Y106519326D02*
X100492482Y106567031D01*
X100492482Y106567031D02*
X100587634Y106614822D01*
X100587634Y106614822D02*
X100730491Y106615079D01*
X100730491Y106615079D02*
X100825814Y106567632D01*
X100825814Y106567632D02*
X100873605Y106472479D01*
X100873605Y106472479D02*
X100874549Y105948671D01*
X100873605Y106472479D02*
X100921052Y106567803D01*
X100921052Y106567803D02*
X101016204Y106615594D01*
X101016204Y106615594D02*
X101159061Y106615851D01*
X101159061Y106615851D02*
X101254385Y106568404D01*
X101254385Y106568404D02*
X101302176Y106473252D01*
X101302176Y106473252D02*
X101303119Y105949443D01*
D10*
X94449099Y96939999D02*
X94433084Y105828303D01*
X99999099Y96949999D02*
X99983084Y105838303D01*
X94434141Y105241884D02*
X99984141Y105251884D01*
X94434141Y105241884D02*
X99984141Y105251884D01*
X94434141Y105241884D02*
X95559586Y105830334D01*
X94434141Y105241884D02*
X95561700Y104657494D01*
X99984141Y105251884D02*
X98858696Y104663434D01*
X99984141Y105251884D02*
X98856582Y105836274D01*
X47383335Y-1941965D02*
X47483335Y-1975299D01*
X47483335Y-1975299D02*
X47516668Y-2008632D01*
X47516668Y-2008632D02*
X47550001Y-2075299D01*
X47550001Y-2075299D02*
X47550001Y-2175299D01*
X47550001Y-2175299D02*
X47516668Y-2241965D01*
X47516668Y-2241965D02*
X47483335Y-2275299D01*
X47483335Y-2275299D02*
X47416668Y-2308632D01*
X47416668Y-2308632D02*
X47150001Y-2308632D01*
X47150001Y-2308632D02*
X47150001Y-1608632D01*
X47150001Y-1608632D02*
X47383335Y-1608632D01*
X47383335Y-1608632D02*
X47450001Y-1641965D01*
X47450001Y-1641965D02*
X47483335Y-1675299D01*
X47483335Y-1675299D02*
X47516668Y-1741965D01*
X47516668Y-1741965D02*
X47516668Y-1808632D01*
X47516668Y-1808632D02*
X47483335Y-1875299D01*
X47483335Y-1875299D02*
X47450001Y-1908632D01*
X47450001Y-1908632D02*
X47383335Y-1941965D01*
X47383335Y-1941965D02*
X47150001Y-1941965D01*
X47950001Y-2308632D02*
X47883335Y-2275299D01*
X47883335Y-2275299D02*
X47850001Y-2241965D01*
X47850001Y-2241965D02*
X47816668Y-2175299D01*
X47816668Y-2175299D02*
X47816668Y-1975299D01*
X47816668Y-1975299D02*
X47850001Y-1908632D01*
X47850001Y-1908632D02*
X47883335Y-1875299D01*
X47883335Y-1875299D02*
X47950001Y-1841965D01*
X47950001Y-1841965D02*
X48050001Y-1841965D01*
X48050001Y-1841965D02*
X48116668Y-1875299D01*
X48116668Y-1875299D02*
X48150001Y-1908632D01*
X48150001Y-1908632D02*
X48183335Y-1975299D01*
X48183335Y-1975299D02*
X48183335Y-2175299D01*
X48183335Y-2175299D02*
X48150001Y-2241965D01*
X48150001Y-2241965D02*
X48116668Y-2275299D01*
X48116668Y-2275299D02*
X48050001Y-2308632D01*
X48050001Y-2308632D02*
X47950001Y-2308632D01*
X48783334Y-2308632D02*
X48783334Y-1941965D01*
X48783334Y-1941965D02*
X48750001Y-1875299D01*
X48750001Y-1875299D02*
X48683334Y-1841965D01*
X48683334Y-1841965D02*
X48550001Y-1841965D01*
X48550001Y-1841965D02*
X48483334Y-1875299D01*
X48783334Y-2275299D02*
X48716668Y-2308632D01*
X48716668Y-2308632D02*
X48550001Y-2308632D01*
X48550001Y-2308632D02*
X48483334Y-2275299D01*
X48483334Y-2275299D02*
X48450001Y-2208632D01*
X48450001Y-2208632D02*
X48450001Y-2141965D01*
X48450001Y-2141965D02*
X48483334Y-2075299D01*
X48483334Y-2075299D02*
X48550001Y-2041965D01*
X48550001Y-2041965D02*
X48716668Y-2041965D01*
X48716668Y-2041965D02*
X48783334Y-2008632D01*
X49116667Y-2308632D02*
X49116667Y-1841965D01*
X49116667Y-1975299D02*
X49150001Y-1908632D01*
X49150001Y-1908632D02*
X49183334Y-1875299D01*
X49183334Y-1875299D02*
X49250001Y-1841965D01*
X49250001Y-1841965D02*
X49316667Y-1841965D01*
X49850000Y-2308632D02*
X49850000Y-1608632D01*
X49850000Y-2275299D02*
X49783334Y-2308632D01*
X49783334Y-2308632D02*
X49650000Y-2308632D01*
X49650000Y-2308632D02*
X49583334Y-2275299D01*
X49583334Y-2275299D02*
X49550000Y-2241965D01*
X49550000Y-2241965D02*
X49516667Y-2175299D01*
X49516667Y-2175299D02*
X49516667Y-1975299D01*
X49516667Y-1975299D02*
X49550000Y-1908632D01*
X49550000Y-1908632D02*
X49583334Y-1875299D01*
X49583334Y-1875299D02*
X49650000Y-1841965D01*
X49650000Y-1841965D02*
X49783334Y-1841965D01*
X49783334Y-1841965D02*
X49850000Y-1875299D01*
X50983333Y-2275299D02*
X50916666Y-2308632D01*
X50916666Y-2308632D02*
X50783333Y-2308632D01*
X50783333Y-2308632D02*
X50716666Y-2275299D01*
X50716666Y-2275299D02*
X50683333Y-2208632D01*
X50683333Y-2208632D02*
X50683333Y-1941965D01*
X50683333Y-1941965D02*
X50716666Y-1875299D01*
X50716666Y-1875299D02*
X50783333Y-1841965D01*
X50783333Y-1841965D02*
X50916666Y-1841965D01*
X50916666Y-1841965D02*
X50983333Y-1875299D01*
X50983333Y-1875299D02*
X51016666Y-1941965D01*
X51016666Y-1941965D02*
X51016666Y-2008632D01*
X51016666Y-2008632D02*
X50683333Y-2075299D01*
X51616666Y-2308632D02*
X51616666Y-1608632D01*
X51616666Y-2275299D02*
X51550000Y-2308632D01*
X51550000Y-2308632D02*
X51416666Y-2308632D01*
X51416666Y-2308632D02*
X51350000Y-2275299D01*
X51350000Y-2275299D02*
X51316666Y-2241965D01*
X51316666Y-2241965D02*
X51283333Y-2175299D01*
X51283333Y-2175299D02*
X51283333Y-1975299D01*
X51283333Y-1975299D02*
X51316666Y-1908632D01*
X51316666Y-1908632D02*
X51350000Y-1875299D01*
X51350000Y-1875299D02*
X51416666Y-1841965D01*
X51416666Y-1841965D02*
X51550000Y-1841965D01*
X51550000Y-1841965D02*
X51616666Y-1875299D01*
X52249999Y-1841965D02*
X52249999Y-2408632D01*
X52249999Y-2408632D02*
X52216666Y-2475299D01*
X52216666Y-2475299D02*
X52183333Y-2508632D01*
X52183333Y-2508632D02*
X52116666Y-2541965D01*
X52116666Y-2541965D02*
X52016666Y-2541965D01*
X52016666Y-2541965D02*
X51949999Y-2508632D01*
X52249999Y-2275299D02*
X52183333Y-2308632D01*
X52183333Y-2308632D02*
X52049999Y-2308632D01*
X52049999Y-2308632D02*
X51983333Y-2275299D01*
X51983333Y-2275299D02*
X51949999Y-2241965D01*
X51949999Y-2241965D02*
X51916666Y-2175299D01*
X51916666Y-2175299D02*
X51916666Y-1975299D01*
X51916666Y-1975299D02*
X51949999Y-1908632D01*
X51949999Y-1908632D02*
X51983333Y-1875299D01*
X51983333Y-1875299D02*
X52049999Y-1841965D01*
X52049999Y-1841965D02*
X52183333Y-1841965D01*
X52183333Y-1841965D02*
X52249999Y-1875299D01*
X52849999Y-2275299D02*
X52783332Y-2308632D01*
X52783332Y-2308632D02*
X52649999Y-2308632D01*
X52649999Y-2308632D02*
X52583332Y-2275299D01*
X52583332Y-2275299D02*
X52549999Y-2208632D01*
X52549999Y-2208632D02*
X52549999Y-1941965D01*
X52549999Y-1941965D02*
X52583332Y-1875299D01*
X52583332Y-1875299D02*
X52649999Y-1841965D01*
X52649999Y-1841965D02*
X52783332Y-1841965D01*
X52783332Y-1841965D02*
X52849999Y-1875299D01*
X52849999Y-1875299D02*
X52883332Y-1941965D01*
X52883332Y-1941965D02*
X52883332Y-2008632D01*
X52883332Y-2008632D02*
X52549999Y-2075299D01*
%TO.C,J200*%
X50000000Y-89999D02*
X49800000Y-589999D01*
X50000000Y-89999D02*
X50000000Y-1389999D01*
X50200000Y-589999D02*
X50000000Y-89999D01*
%TD*%
M02*
