M48
; DRILL file {KiCad 8.0.7} date 2025-02-21T01:46:00+0100
; FORMAT={-:-/ absolute / inch / decimal}
; #@! TF.CreationDate,2025-02-21T01:46:00+01:00
; #@! TF.GenerationSoftware,Kicad,Pcbnew,8.0.7
; #@! TF.FileFunction,Plated,1,2,PTH
FMAT,2
INCH
; #@! TA.AperFunction,Plated,PTH,ViaDrill
T1C0.0118
; #@! TA.AperFunction,Plated,PTH,ComponentDrill
T2C0.0394
; #@! TA.AperFunction,Plated,PTH,ComponentDrill
T3C0.0709
; #@! TA.AperFunction,Plated,PTH,ComponentDrill
T4C0.1063
%
G90
G05
T1
X0.1035Y3.8301
X0.1035Y3.6726
X0.1035Y3.5152
X0.1035Y3.3577
X0.1035Y3.2002
X0.1035Y3.0427
X0.1035Y2.8852
X0.1035Y2.7278
X0.1035Y2.5703
X0.1035Y2.4128
X0.1035Y2.2553
X0.1035Y2.0978
X0.1035Y1.9404
X0.1035Y1.7829
X0.1035Y1.6254
X0.1035Y1.4679
X0.1035Y1.3104
X0.1035Y1.153
X0.1035Y0.9955
X0.1035Y0.838
X0.1035Y0.6805
X0.1035Y0.523
X0.1035Y0.3656
X0.1035Y0.2081
X0.1035Y0.0506
X0.261Y3.6726
X0.261Y3.5152
X0.261Y3.3577
X0.261Y3.2002
X0.261Y3.0427
X0.261Y2.8852
X0.261Y2.7278
X0.261Y2.5703
X0.261Y2.4128
X0.261Y2.2553
X0.261Y2.0978
X0.261Y1.9404
X0.261Y1.7829
X0.261Y1.6254
X0.261Y1.4679
X0.261Y1.3104
X0.261Y1.153
X0.261Y0.9955
X0.261Y0.838
X0.261Y0.6805
X0.261Y0.523
X0.261Y0.3656
X0.261Y0.2081
X0.4185Y3.8301
X0.4185Y3.6726
X0.4185Y3.5152
X0.4185Y3.3577
X0.4185Y3.2002
X0.4185Y3.0427
X0.4185Y2.8852
X0.4185Y2.7278
X0.4185Y2.5703
X0.4185Y2.4128
X0.4185Y2.2553
X0.4185Y2.0978
X0.4185Y1.9404
X0.4185Y1.7829
X0.4185Y1.6254
X0.4185Y1.4679
X0.4185Y1.3104
X0.4185Y1.153
X0.4185Y0.9955
X0.4185Y0.838
X0.4185Y0.6805
X0.4185Y0.523
X0.4185Y0.0506
X0.576Y3.8301
X0.576Y3.6726
X0.576Y3.5152
X0.576Y3.3577
X0.576Y3.2002
X0.576Y3.0427
X0.576Y2.8852
X0.576Y2.7278
X0.576Y2.5703
X0.576Y2.4128
X0.576Y2.2553
X0.576Y2.0978
X0.576Y1.9404
X0.576Y1.7829
X0.576Y1.6254
X0.576Y1.4679
X0.576Y1.3104
X0.576Y1.153
X0.576Y0.9955
X0.576Y0.838
X0.576Y0.6805
X0.576Y0.523
X0.576Y0.3656
X0.576Y0.0506
X0.7335Y3.8301
X0.7335Y3.6726
X0.7335Y3.5152
X0.7335Y3.3577
X0.7335Y3.2002
X0.7335Y3.0427
X0.7335Y2.8852
X0.7335Y2.7278
X0.7335Y2.5703
X0.7335Y2.4128
X0.7335Y2.2553
X0.7335Y2.0978
X0.7335Y1.9404
X0.7335Y1.7829
X0.7335Y1.6254
X0.7335Y1.4679
X0.7335Y1.3104
X0.7335Y1.153
X0.7335Y0.9955
X0.7335Y0.838
X0.7335Y0.6805
X0.7335Y0.523
X0.7335Y0.0506
X0.8909Y3.8301
X0.8909Y3.6726
X0.8909Y3.5152
X0.8909Y3.3577
X0.8909Y3.2002
X0.8909Y3.0427
X0.8909Y2.8852
X0.8909Y2.7278
X0.8909Y2.5703
X0.8909Y2.4128
X0.8909Y2.2553
X0.8909Y2.0978
X0.8909Y1.9404
X0.8909Y1.7829
X0.8909Y1.6254
X0.8909Y1.4679
X0.8909Y1.3104
X0.8909Y1.153
X0.8909Y0.9955
X0.8909Y0.838
X0.8909Y0.6805
X0.8909Y0.523
X0.8909Y0.0506
X1.0484Y3.8301
X1.0484Y3.6726
X1.0484Y3.5152
X1.0484Y3.3577
X1.0484Y3.2002
X1.0484Y3.0427
X1.0484Y2.8852
X1.0484Y2.7278
X1.0484Y2.5703
X1.0484Y2.4128
X1.0484Y2.2553
X1.0484Y2.0978
X1.0484Y1.9404
X1.0484Y1.7829
X1.0484Y1.6254
X1.0484Y1.4679
X1.0484Y1.3104
X1.0484Y1.153
X1.0484Y0.9955
X1.0484Y0.838
X1.0484Y0.6805
X1.0484Y0.523
X1.0484Y0.0506
X1.2059Y3.8301
X1.2059Y3.6726
X1.2059Y3.5152
X1.2059Y3.3577
X1.2059Y3.2002
X1.2059Y3.0427
X1.2059Y2.8852
X1.2059Y2.7278
X1.2059Y2.5703
X1.2059Y2.4128
X1.2059Y2.2553
X1.2059Y2.0978
X1.2059Y1.9404
X1.2059Y1.7829
X1.2059Y1.6254
X1.2059Y1.4679
X1.2059Y1.3104
X1.2059Y1.153
X1.2059Y0.9955
X1.2059Y0.838
X1.2059Y0.6805
X1.2059Y0.523
X1.2059Y0.0506
X1.3634Y3.8301
X1.3634Y3.6726
X1.3634Y3.5152
X1.3634Y3.3577
X1.3634Y3.2002
X1.3634Y3.0427
X1.3634Y2.8852
X1.3634Y2.7278
X1.3634Y2.5703
X1.3634Y2.4128
X1.3634Y2.2553
X1.3634Y2.0978
X1.3634Y1.9404
X1.3634Y1.7829
X1.3634Y1.6254
X1.3634Y1.4679
X1.3634Y1.3104
X1.3634Y1.153
X1.3634Y0.9955
X1.3634Y0.838
X1.3634Y0.6805
X1.3634Y0.523
X1.3634Y0.3656
X1.3634Y0.0506
X1.5209Y3.8301
X1.5209Y3.6726
X1.5209Y3.5152
X1.5209Y3.3577
X1.5209Y3.2002
X1.5209Y3.0427
X1.5209Y2.8852
X1.5209Y2.7278
X1.5209Y2.5703
X1.5209Y2.4128
X1.5209Y2.2553
X1.5209Y2.0978
X1.5209Y1.9404
X1.5209Y1.7829
X1.5209Y1.6254
X1.5209Y1.4679
X1.5209Y1.3104
X1.5209Y1.153
X1.5209Y0.9955
X1.5209Y0.838
X1.5209Y0.6805
X1.5209Y0.523
X1.5209Y0.0506
X1.6783Y3.8301
X1.6783Y3.6726
X1.6783Y3.5152
X1.6783Y3.3577
X1.6783Y3.2002
X1.6783Y3.0427
X1.6783Y2.8852
X1.6783Y2.7278
X1.6783Y2.5703
X1.6783Y2.4128
X1.6783Y2.2553
X1.6783Y2.0978
X1.6783Y1.9404
X1.6783Y1.7829
X1.6783Y1.6254
X1.6783Y1.4679
X1.6783Y1.3104
X1.6783Y1.153
X1.6783Y0.9955
X1.6783Y0.838
X1.6783Y0.6805
X1.6783Y0.523
X1.6783Y0.3656
X1.6783Y0.0506
X1.8358Y3.8301
X1.8358Y3.6726
X1.8358Y3.5152
X1.8358Y3.3577
X1.8358Y3.2002
X1.8358Y3.0427
X1.8358Y2.8852
X1.8358Y2.7278
X1.8358Y2.5703
X1.8358Y2.4128
X1.8358Y2.2553
X1.8358Y2.0978
X1.8358Y1.9404
X1.8358Y1.7829
X1.8358Y1.6254
X1.8358Y1.4679
X1.8358Y1.3104
X1.8358Y1.153
X1.8358Y0.9955
X1.8358Y0.838
X1.8358Y0.6805
X1.8358Y0.523
X1.8358Y0.0506
X1.9933Y3.8301
X1.9933Y3.6726
X1.9933Y3.5152
X1.9933Y3.3577
X1.9933Y3.2002
X1.9933Y3.0427
X1.9933Y2.8852
X1.9933Y2.7278
X1.9933Y2.5703
X1.9933Y2.4128
X1.9933Y2.2553
X1.9933Y2.0978
X1.9933Y1.9404
X1.9933Y1.7829
X1.9933Y1.6254
X1.9933Y1.4679
X1.9933Y1.3104
X1.9933Y1.153
X1.9933Y0.9955
X1.9933Y0.838
X1.9933Y0.6805
X1.9933Y0.523
X1.9933Y0.0506
X2.1508Y3.8301
X2.1508Y3.6726
X2.1508Y3.3577
X2.1508Y3.2002
X2.1508Y3.0427
X2.1508Y2.8852
X2.1508Y2.7278
X2.1508Y2.5703
X2.1508Y2.4128
X2.1508Y2.2553
X2.1508Y2.0978
X2.1508Y1.9404
X2.1508Y1.7829
X2.1508Y1.6254
X2.1508Y1.4679
X2.1508Y1.3104
X2.1508Y1.153
X2.1508Y0.9955
X2.1508Y0.838
X2.1508Y0.6805
X2.1508Y0.523
X2.1508Y0.0506
X2.3083Y3.8301
X2.3083Y3.6726
X2.3083Y3.5152
X2.3083Y3.0427
X2.3083Y2.8852
X2.3083Y2.7278
X2.3083Y2.5703
X2.3083Y2.4128
X2.3083Y0.0506
X2.4657Y3.8301
X2.4657Y3.6726
X2.4657Y3.5152
X2.4657Y0.0506
X2.6232Y3.8301
X2.6232Y3.6726
X2.6232Y1.4679
X2.6232Y1.3104
X2.6232Y1.153
X2.6232Y0.9955
X2.6232Y0.838
X2.6232Y0.6805
X2.6232Y0.523
X2.6232Y0.0506
X2.7807Y3.8301
X2.7807Y1.153
X2.7807Y0.6805
X2.7807Y0.523
X2.7807Y0.0506
X2.9382Y3.8301
X2.9382Y3.5152
X2.9382Y3.3577
X2.9382Y3.2002
X2.9382Y3.0427
X2.9382Y2.8852
X2.9382Y1.4679
X2.9382Y1.3104
X2.9382Y1.153
X2.9382Y0.523
X2.9382Y0.0506
X3.0957Y3.8301
X3.0957Y3.5152
X3.0957Y3.3577
X3.0957Y3.2002
X3.0957Y3.0427
X3.0957Y2.8852
X3.0957Y2.7278
X3.0957Y2.5703
X3.0957Y0.9955
X3.0957Y0.523
X3.0957Y0.0506
X3.2531Y3.8301
X3.2531Y3.6726
X3.2531Y3.5152
X3.2531Y3.3577
X3.2531Y3.2002
X3.2531Y3.0427
X3.2531Y2.8852
X3.2531Y2.7278
X3.2531Y2.5703
X3.2531Y2.4128
X3.2531Y1.6254
X3.2531Y1.4679
X3.2531Y1.153
X3.2531Y0.0506
X3.2638Y0.7008
X3.4106Y3.8301
X3.4106Y3.6726
X3.4106Y3.5152
X3.4106Y3.3577
X3.4106Y3.2002
X3.4106Y3.0427
X3.4106Y2.8852
X3.4106Y2.7278
X3.4106Y2.5703
X3.4106Y2.4128
X3.4106Y2.2553
X3.4106Y2.0978
X3.4106Y1.9404
X3.4106Y1.7829
X3.4106Y1.6254
X3.4106Y1.4679
X3.4106Y1.3104
X3.4106Y1.153
X3.4106Y0.9955
X3.4106Y0.6805
X3.4106Y0.523
X3.4106Y0.0506
X3.5681Y3.8301
X3.5681Y3.6726
X3.5681Y3.5152
X3.5681Y3.3577
X3.5681Y3.2002
X3.5681Y3.0427
X3.5681Y2.8852
X3.5681Y2.7278
X3.5681Y2.5703
X3.5681Y2.4128
X3.5681Y2.2553
X3.5681Y2.0978
X3.5681Y1.9404
X3.5681Y1.7829
X3.5681Y1.6254
X3.5681Y1.4679
X3.5681Y1.3104
X3.5681Y1.153
X3.5681Y0.838
X3.5681Y0.6805
X3.5681Y0.523
X3.5681Y0.3656
X3.5681Y0.0506
X3.7256Y3.6726
X3.7256Y3.5152
X3.7256Y3.3577
X3.7256Y3.2002
X3.7256Y3.0427
X3.7256Y2.8852
X3.7256Y0.9955
X3.7256Y0.838
X3.7256Y0.6805
X3.7256Y0.523
X3.7256Y0.3656
X3.7256Y0.2081
X3.8831Y3.8301
X3.8831Y3.6726
X3.8831Y3.5152
X3.8831Y3.3577
X3.8831Y3.2002
X3.8831Y3.0427
X3.8831Y2.8852
X3.8831Y2.7278
X3.8831Y2.5703
X3.8831Y2.4128
X3.8831Y2.2553
X3.8831Y2.0978
X3.8831Y1.9404
X3.8831Y1.7829
X3.8831Y1.6254
X3.8831Y1.4679
X3.8831Y1.3104
X3.8831Y1.153
X3.8831Y0.9955
X3.8831Y0.838
X3.8831Y0.6805
X3.8831Y0.523
X3.8831Y0.3656
X3.8831Y0.2081
X3.8831Y0.0506
T2
X0.4185Y0.4091
X0.4185Y0.3091
X0.4185Y0.2091
X0.5185Y0.4091
X0.5185Y0.3091
X0.5185Y0.2091
X0.6185Y0.4091
X0.6185Y0.3091
X0.6185Y0.2091
X0.7185Y0.4091
X0.7185Y0.3091
X0.7185Y0.2091
X0.8185Y0.4091
X0.8185Y0.3091
X0.8185Y0.2091
X0.9185Y0.4091
X0.9185Y0.3091
X0.9185Y0.2091
X1.0185Y0.4091
X1.0185Y0.3091
X1.0185Y0.2091
X1.1185Y0.4091
X1.1185Y0.3091
X1.1185Y0.2091
X1.2185Y0.4091
X1.2185Y0.3091
X1.2185Y0.2091
X1.3185Y0.4091
X1.3185Y0.3091
X1.3185Y0.2091
X1.4185Y0.4091
X1.4185Y0.3091
X1.4185Y0.2091
X1.5185Y0.4091
X1.5185Y0.3091
X1.5185Y0.2091
X1.6185Y0.4091
X1.6185Y0.3091
X1.6185Y0.2091
X1.7185Y0.4091
X1.7185Y0.3091
X1.7185Y0.2091
X1.8185Y0.4091
X1.8185Y0.3091
X1.8185Y0.2091
X1.9185Y0.4091
X1.9185Y0.3091
X1.9185Y0.2091
X2.0185Y0.4091
X2.0185Y0.3091
X2.0185Y0.2091
X2.1185Y0.4091
X2.1185Y0.3091
X2.1185Y0.2091
X2.2185Y0.4091
X2.2185Y0.3091
X2.2185Y0.2091
X2.3185Y0.4091
X2.3185Y0.3091
X2.3185Y0.2091
X2.4185Y0.4091
X2.4185Y0.3091
X2.4185Y0.2091
X2.5185Y0.4091
X2.5185Y0.3091
X2.5185Y0.2091
X2.6185Y0.4091
X2.6185Y0.3091
X2.6185Y0.2091
X2.7185Y0.4091
X2.7185Y0.3091
X2.7185Y0.2091
X2.8185Y0.4091
X2.8185Y0.3091
X2.8185Y0.2091
X2.8588Y3.7622
X2.8588Y3.6622
X2.9185Y0.4091
X2.9185Y0.3091
X2.9185Y0.2091
X2.9588Y3.7622
X2.9588Y3.6622
X3.0185Y0.4091
X3.0185Y0.3091
X3.0185Y0.2091
X3.1185Y0.4091
X3.1185Y0.3091
X3.1185Y0.2091
X3.2185Y0.4091
X3.2185Y0.3091
X3.2185Y0.2091
X3.3185Y0.4091
X3.3185Y0.3091
X3.3185Y0.2091
X3.4185Y0.4091
X3.4185Y0.3091
X3.4185Y0.2091
X3.5185Y0.4091
X3.5185Y0.3091
X3.5185Y0.2091
T3
X2.1791Y3.529
X2.7106Y3.529
T4
X2.3031Y3.2928
X2.5866Y3.2928
M30
