%TF.GenerationSoftware,KiCad,Pcbnew,8.0.7*%
%TF.CreationDate,2025-02-21T01:46:00+01:00*%
%TF.ProjectId,TPB,5450422e-6b69-4636-9164-5f7063625858,1.0.0*%
%TF.SameCoordinates,Original*%
%TF.FileFunction,Soldermask,Top*%
%TF.FilePolarity,Negative*%
%FSLAX46Y46*%
G04 Gerber Fmt 4.6, Leading zero omitted, Abs format (unit mm)*
G04 Created by KiCad (PCBNEW 8.0.7) date 2025-02-21 01:46:00*
%MOMM*%
%LPD*%
G01*
G04 APERTURE LIST*
G04 Aperture macros list*
%AMRoundRect*
0 Rectangle with rounded corners*
0 $1 Rounding radius*
0 $2 $3 $4 $5 $6 $7 $8 $9 X,Y pos of 4 corners*
0 Add a 4 corners polygon primitive as box body*
4,1,4,$2,$3,$4,$5,$6,$7,$8,$9,$2,$3,0*
0 Add four circle primitives for the rounded corners*
1,1,$1+$1,$2,$3*
1,1,$1+$1,$4,$5*
1,1,$1+$1,$6,$7*
1,1,$1+$1,$8,$9*
0 Add four rect primitives between the rounded corners*
20,1,$1+$1,$2,$3,$4,$5,0*
20,1,$1+$1,$4,$5,$6,$7,0*
20,1,$1+$1,$6,$7,$8,$9,0*
20,1,$1+$1,$8,$9,$2,$3,0*%
G04 Aperture macros list end*
%ADD10RoundRect,0.244000X0.244000X0.269000X-0.244000X0.269000X-0.244000X-0.269000X0.244000X-0.269000X0*%
%ADD11RoundRect,0.260556X-1.027444X-0.677444X1.027444X-0.677444X1.027444X0.677444X-1.027444X0.677444X0*%
%ADD12RoundRect,0.244000X-0.244000X-0.269000X0.244000X-0.269000X0.244000X0.269000X-0.244000X0.269000X0*%
%ADD13RoundRect,0.250000X2.050000X0.300000X-2.050000X0.300000X-2.050000X-0.300000X2.050000X-0.300000X0*%
%ADD14RoundRect,0.250002X4.449998X5.149998X-4.449998X5.149998X-4.449998X-5.149998X4.449998X-5.149998X0*%
%ADD15RoundRect,0.250000X1.000000X-1.950000X1.000000X1.950000X-1.000000X1.950000X-1.000000X-1.950000X0*%
%ADD16RoundRect,0.244000X-0.269000X0.244000X-0.269000X-0.244000X0.269000X-0.244000X0.269000X0.244000X0*%
%ADD17RoundRect,0.267317X-0.280683X-0.470683X0.280683X-0.470683X0.280683X0.470683X-0.280683X0.470683X0*%
%ADD18C,2.850000*%
%ADD19RoundRect,0.249999X0.525001X0.525001X-0.525001X0.525001X-0.525001X-0.525001X0.525001X-0.525001X0*%
%ADD20C,1.550000*%
%ADD21RoundRect,0.250000X2.660000X-1.660000X2.660000X1.660000X-2.660000X1.660000X-2.660000X-1.660000X0*%
%ADD22RoundRect,0.219000X-0.219000X-0.294000X0.219000X-0.294000X0.219000X0.294000X-0.219000X0.294000X0*%
%ADD23C,2.700000*%
%ADD24RoundRect,0.250000X-1.775000X-1.775000X1.775000X-1.775000X1.775000X1.775000X-1.775000X1.775000X0*%
%ADD25C,4.050000*%
%ADD26C,1.600000*%
%ADD27RoundRect,0.219000X0.219000X0.294000X-0.219000X0.294000X-0.219000X-0.294000X0.219000X-0.294000X0*%
G04 APERTURE END LIST*
D10*
%TO.C,C400*%
X79240000Y35000000D03*
X77680000Y35000000D03*
%TD*%
D11*
%TO.C,D403*%
X84450000Y44275000D03*
X88450000Y44275000D03*
%TD*%
D12*
%TO.C,C419*%
X82225000Y50885000D03*
X83785000Y50885000D03*
%TD*%
D10*
%TO.C,C417*%
X79780000Y22500000D03*
X78220000Y22500000D03*
%TD*%
D13*
%TO.C,U401*%
X79725000Y40875000D03*
X79725000Y42575000D03*
X79725000Y44275000D03*
D14*
X70575000Y44275000D03*
D13*
X79725000Y45975000D03*
X79725000Y47675000D03*
%TD*%
D15*
%TO.C,C421*%
X79725000Y54185000D03*
X79725000Y62585000D03*
%TD*%
D16*
%TO.C,C418*%
X83450000Y48280000D03*
X83450000Y46720000D03*
%TD*%
D17*
%TO.C,R400*%
X78690000Y95559157D03*
X80510000Y95559157D03*
%TD*%
D18*
%TO.C,J200*%
X94450000Y2770001D03*
X5550000Y2770001D03*
D19*
X89370000Y5310001D03*
D20*
X86830000Y5310001D03*
X84290000Y5310001D03*
X81750000Y5310001D03*
X79210000Y5310001D03*
X76670000Y5310001D03*
X74130000Y5310001D03*
X71590000Y5310001D03*
X69050000Y5310001D03*
X66510000Y5310001D03*
X63970000Y5310001D03*
X61430000Y5310001D03*
X58890000Y5310001D03*
X56350000Y5310001D03*
X53810000Y5310001D03*
X51270000Y5310001D03*
X48730000Y5310001D03*
X46190000Y5310001D03*
X43650000Y5310001D03*
X41110000Y5310001D03*
X38570000Y5310001D03*
X36030000Y5310001D03*
X33490000Y5310001D03*
X30950000Y5310001D03*
X28410000Y5310001D03*
X25870000Y5310001D03*
X23330000Y5310001D03*
X20790000Y5310001D03*
X18250000Y5310001D03*
X15710000Y5310001D03*
X13170000Y5310001D03*
X10630000Y5310001D03*
X89370000Y7850001D03*
X86830000Y7850001D03*
X84290000Y7850001D03*
X81750000Y7850001D03*
X79210000Y7850001D03*
X76670000Y7850001D03*
X74130000Y7850001D03*
X71590000Y7850001D03*
X69050000Y7850001D03*
X66510000Y7850001D03*
X63970000Y7850001D03*
X61430000Y7850001D03*
X58890000Y7850001D03*
X56350000Y7850001D03*
X53810000Y7850001D03*
X51270000Y7850001D03*
X48730000Y7850001D03*
X46190000Y7850001D03*
X43650000Y7850001D03*
X41110000Y7850001D03*
X38570000Y7850001D03*
X36030000Y7850001D03*
X33490000Y7850001D03*
X30950000Y7850001D03*
X28410000Y7850001D03*
X25870000Y7850001D03*
X23330000Y7850001D03*
X20790000Y7850001D03*
X18250000Y7850001D03*
X15710000Y7850001D03*
X13170000Y7850001D03*
X10630000Y7850001D03*
X89370000Y10390001D03*
X86830000Y10390001D03*
X84290000Y10390001D03*
X81750000Y10390001D03*
X79210000Y10390001D03*
X76670000Y10390001D03*
X74130000Y10390001D03*
X71590000Y10390001D03*
X69050000Y10390001D03*
X66510000Y10390001D03*
X63970000Y10390001D03*
X61430000Y10390001D03*
X58890000Y10390001D03*
X56350000Y10390001D03*
X53810000Y10390001D03*
X51270000Y10390001D03*
X48730000Y10390001D03*
X46190000Y10390001D03*
X43650000Y10390001D03*
X41110000Y10390001D03*
X38570000Y10390001D03*
X36030000Y10390001D03*
X33490000Y10390001D03*
X30950000Y10390001D03*
X28410000Y10390001D03*
X25870000Y10390001D03*
X23330000Y10390001D03*
X20790000Y10390001D03*
X18250000Y10390001D03*
X15710000Y10390001D03*
X13170000Y10390001D03*
X10630000Y10390001D03*
%TD*%
D15*
%TO.C,C420*%
X82000000Y25095000D03*
X82000000Y32495000D03*
%TD*%
D21*
%TO.C,L400*%
X70725000Y35455000D03*
X70725000Y25095000D03*
%TD*%
D22*
%TO.C,R414*%
X77680000Y38000000D03*
X79320000Y38000000D03*
%TD*%
D23*
%TO.C,J400*%
X55350000Y89637500D03*
X68850000Y89637500D03*
D24*
X65700000Y83637500D03*
D25*
X58500000Y83637500D03*
%TD*%
D26*
%TO.C,LED400*%
X72613600Y95559157D03*
X75153600Y95559157D03*
X72613600Y93019157D03*
X75153600Y93019157D03*
%TD*%
D27*
%TO.C,R413*%
X79320000Y36500000D03*
X77680000Y36500000D03*
%TD*%
D17*
%TO.C,R401*%
X78690000Y93019157D03*
X80510000Y93019157D03*
%TD*%
M02*
